G75*
%MOIN*%
%OFA0B0*%
%FSLAX25Y25*%
%IPPOS*%
%LPD*%
%AMOC8*
5,1,8,0,0,1.08239X$1,22.5*
%
%ADD10C,0.00000*%
%ADD11C,0.06791*%
%ADD12C,0.05020*%
%ADD13R,0.02756X0.05512*%
%ADD14R,0.05512X0.07874*%
%ADD15R,0.05039X0.05512*%
%ADD16R,0.07677X0.05512*%
%ADD17R,0.05118X0.05906*%
%ADD18R,0.05236X0.02087*%
%ADD19OC8,0.08500*%
%ADD20R,0.05906X0.05118*%
%ADD21C,0.06000*%
%ADD22C,0.00500*%
%ADD23C,0.04724*%
%ADD24R,0.04724X0.04724*%
%ADD25C,0.01000*%
%ADD26C,0.02400*%
%ADD27C,0.01600*%
D10*
X0020570Y0001467D02*
X0020570Y0198711D01*
X0182381Y0198711D01*
X0182381Y0001467D01*
X0020570Y0001467D01*
X0020570Y0001861D02*
X0181987Y0001861D01*
X0181987Y0009341D01*
X0094487Y0094578D02*
X0094489Y0094677D01*
X0094495Y0094776D01*
X0094505Y0094875D01*
X0094519Y0094973D01*
X0094537Y0095070D01*
X0094559Y0095167D01*
X0094584Y0095263D01*
X0094614Y0095357D01*
X0094647Y0095451D01*
X0094684Y0095543D01*
X0094725Y0095633D01*
X0094769Y0095722D01*
X0094817Y0095808D01*
X0094868Y0095893D01*
X0094923Y0095976D01*
X0094981Y0096056D01*
X0095042Y0096134D01*
X0095106Y0096210D01*
X0095173Y0096283D01*
X0095243Y0096353D01*
X0095316Y0096420D01*
X0095392Y0096484D01*
X0095470Y0096545D01*
X0095550Y0096603D01*
X0095633Y0096658D01*
X0095717Y0096709D01*
X0095804Y0096757D01*
X0095893Y0096801D01*
X0095983Y0096842D01*
X0096075Y0096879D01*
X0096169Y0096912D01*
X0096263Y0096942D01*
X0096359Y0096967D01*
X0096456Y0096989D01*
X0096553Y0097007D01*
X0096651Y0097021D01*
X0096750Y0097031D01*
X0096849Y0097037D01*
X0096948Y0097039D01*
X0097047Y0097037D01*
X0097146Y0097031D01*
X0097245Y0097021D01*
X0097343Y0097007D01*
X0097440Y0096989D01*
X0097537Y0096967D01*
X0097633Y0096942D01*
X0097727Y0096912D01*
X0097821Y0096879D01*
X0097913Y0096842D01*
X0098003Y0096801D01*
X0098092Y0096757D01*
X0098178Y0096709D01*
X0098263Y0096658D01*
X0098346Y0096603D01*
X0098426Y0096545D01*
X0098504Y0096484D01*
X0098580Y0096420D01*
X0098653Y0096353D01*
X0098723Y0096283D01*
X0098790Y0096210D01*
X0098854Y0096134D01*
X0098915Y0096056D01*
X0098973Y0095976D01*
X0099028Y0095893D01*
X0099079Y0095809D01*
X0099127Y0095722D01*
X0099171Y0095633D01*
X0099212Y0095543D01*
X0099249Y0095451D01*
X0099282Y0095357D01*
X0099312Y0095263D01*
X0099337Y0095167D01*
X0099359Y0095070D01*
X0099377Y0094973D01*
X0099391Y0094875D01*
X0099401Y0094776D01*
X0099407Y0094677D01*
X0099409Y0094578D01*
X0099407Y0094479D01*
X0099401Y0094380D01*
X0099391Y0094281D01*
X0099377Y0094183D01*
X0099359Y0094086D01*
X0099337Y0093989D01*
X0099312Y0093893D01*
X0099282Y0093799D01*
X0099249Y0093705D01*
X0099212Y0093613D01*
X0099171Y0093523D01*
X0099127Y0093434D01*
X0099079Y0093348D01*
X0099028Y0093263D01*
X0098973Y0093180D01*
X0098915Y0093100D01*
X0098854Y0093022D01*
X0098790Y0092946D01*
X0098723Y0092873D01*
X0098653Y0092803D01*
X0098580Y0092736D01*
X0098504Y0092672D01*
X0098426Y0092611D01*
X0098346Y0092553D01*
X0098263Y0092498D01*
X0098179Y0092447D01*
X0098092Y0092399D01*
X0098003Y0092355D01*
X0097913Y0092314D01*
X0097821Y0092277D01*
X0097727Y0092244D01*
X0097633Y0092214D01*
X0097537Y0092189D01*
X0097440Y0092167D01*
X0097343Y0092149D01*
X0097245Y0092135D01*
X0097146Y0092125D01*
X0097047Y0092119D01*
X0096948Y0092117D01*
X0096849Y0092119D01*
X0096750Y0092125D01*
X0096651Y0092135D01*
X0096553Y0092149D01*
X0096456Y0092167D01*
X0096359Y0092189D01*
X0096263Y0092214D01*
X0096169Y0092244D01*
X0096075Y0092277D01*
X0095983Y0092314D01*
X0095893Y0092355D01*
X0095804Y0092399D01*
X0095718Y0092447D01*
X0095633Y0092498D01*
X0095550Y0092553D01*
X0095470Y0092611D01*
X0095392Y0092672D01*
X0095316Y0092736D01*
X0095243Y0092803D01*
X0095173Y0092873D01*
X0095106Y0092946D01*
X0095042Y0093022D01*
X0094981Y0093100D01*
X0094923Y0093180D01*
X0094868Y0093263D01*
X0094817Y0093347D01*
X0094769Y0093434D01*
X0094725Y0093523D01*
X0094684Y0093613D01*
X0094647Y0093705D01*
X0094614Y0093799D01*
X0094584Y0093893D01*
X0094559Y0093989D01*
X0094537Y0094086D01*
X0094519Y0094183D01*
X0094505Y0094281D01*
X0094495Y0094380D01*
X0094489Y0094479D01*
X0094487Y0094578D01*
X0096061Y0112294D02*
X0096063Y0112393D01*
X0096069Y0112492D01*
X0096079Y0112591D01*
X0096093Y0112689D01*
X0096111Y0112786D01*
X0096133Y0112883D01*
X0096158Y0112979D01*
X0096188Y0113073D01*
X0096221Y0113167D01*
X0096258Y0113259D01*
X0096299Y0113349D01*
X0096343Y0113438D01*
X0096391Y0113524D01*
X0096442Y0113609D01*
X0096497Y0113692D01*
X0096555Y0113772D01*
X0096616Y0113850D01*
X0096680Y0113926D01*
X0096747Y0113999D01*
X0096817Y0114069D01*
X0096890Y0114136D01*
X0096966Y0114200D01*
X0097044Y0114261D01*
X0097124Y0114319D01*
X0097207Y0114374D01*
X0097291Y0114425D01*
X0097378Y0114473D01*
X0097467Y0114517D01*
X0097557Y0114558D01*
X0097649Y0114595D01*
X0097743Y0114628D01*
X0097837Y0114658D01*
X0097933Y0114683D01*
X0098030Y0114705D01*
X0098127Y0114723D01*
X0098225Y0114737D01*
X0098324Y0114747D01*
X0098423Y0114753D01*
X0098522Y0114755D01*
X0098621Y0114753D01*
X0098720Y0114747D01*
X0098819Y0114737D01*
X0098917Y0114723D01*
X0099014Y0114705D01*
X0099111Y0114683D01*
X0099207Y0114658D01*
X0099301Y0114628D01*
X0099395Y0114595D01*
X0099487Y0114558D01*
X0099577Y0114517D01*
X0099666Y0114473D01*
X0099752Y0114425D01*
X0099837Y0114374D01*
X0099920Y0114319D01*
X0100000Y0114261D01*
X0100078Y0114200D01*
X0100154Y0114136D01*
X0100227Y0114069D01*
X0100297Y0113999D01*
X0100364Y0113926D01*
X0100428Y0113850D01*
X0100489Y0113772D01*
X0100547Y0113692D01*
X0100602Y0113609D01*
X0100653Y0113525D01*
X0100701Y0113438D01*
X0100745Y0113349D01*
X0100786Y0113259D01*
X0100823Y0113167D01*
X0100856Y0113073D01*
X0100886Y0112979D01*
X0100911Y0112883D01*
X0100933Y0112786D01*
X0100951Y0112689D01*
X0100965Y0112591D01*
X0100975Y0112492D01*
X0100981Y0112393D01*
X0100983Y0112294D01*
X0100981Y0112195D01*
X0100975Y0112096D01*
X0100965Y0111997D01*
X0100951Y0111899D01*
X0100933Y0111802D01*
X0100911Y0111705D01*
X0100886Y0111609D01*
X0100856Y0111515D01*
X0100823Y0111421D01*
X0100786Y0111329D01*
X0100745Y0111239D01*
X0100701Y0111150D01*
X0100653Y0111064D01*
X0100602Y0110979D01*
X0100547Y0110896D01*
X0100489Y0110816D01*
X0100428Y0110738D01*
X0100364Y0110662D01*
X0100297Y0110589D01*
X0100227Y0110519D01*
X0100154Y0110452D01*
X0100078Y0110388D01*
X0100000Y0110327D01*
X0099920Y0110269D01*
X0099837Y0110214D01*
X0099753Y0110163D01*
X0099666Y0110115D01*
X0099577Y0110071D01*
X0099487Y0110030D01*
X0099395Y0109993D01*
X0099301Y0109960D01*
X0099207Y0109930D01*
X0099111Y0109905D01*
X0099014Y0109883D01*
X0098917Y0109865D01*
X0098819Y0109851D01*
X0098720Y0109841D01*
X0098621Y0109835D01*
X0098522Y0109833D01*
X0098423Y0109835D01*
X0098324Y0109841D01*
X0098225Y0109851D01*
X0098127Y0109865D01*
X0098030Y0109883D01*
X0097933Y0109905D01*
X0097837Y0109930D01*
X0097743Y0109960D01*
X0097649Y0109993D01*
X0097557Y0110030D01*
X0097467Y0110071D01*
X0097378Y0110115D01*
X0097292Y0110163D01*
X0097207Y0110214D01*
X0097124Y0110269D01*
X0097044Y0110327D01*
X0096966Y0110388D01*
X0096890Y0110452D01*
X0096817Y0110519D01*
X0096747Y0110589D01*
X0096680Y0110662D01*
X0096616Y0110738D01*
X0096555Y0110816D01*
X0096497Y0110896D01*
X0096442Y0110979D01*
X0096391Y0111063D01*
X0096343Y0111150D01*
X0096299Y0111239D01*
X0096258Y0111329D01*
X0096221Y0111421D01*
X0096188Y0111515D01*
X0096158Y0111609D01*
X0096133Y0111705D01*
X0096111Y0111802D01*
X0096093Y0111899D01*
X0096079Y0111997D01*
X0096069Y0112096D01*
X0096063Y0112195D01*
X0096061Y0112294D01*
X0064565Y0112294D02*
X0064567Y0112393D01*
X0064573Y0112492D01*
X0064583Y0112591D01*
X0064597Y0112689D01*
X0064615Y0112786D01*
X0064637Y0112883D01*
X0064662Y0112979D01*
X0064692Y0113073D01*
X0064725Y0113167D01*
X0064762Y0113259D01*
X0064803Y0113349D01*
X0064847Y0113438D01*
X0064895Y0113524D01*
X0064946Y0113609D01*
X0065001Y0113692D01*
X0065059Y0113772D01*
X0065120Y0113850D01*
X0065184Y0113926D01*
X0065251Y0113999D01*
X0065321Y0114069D01*
X0065394Y0114136D01*
X0065470Y0114200D01*
X0065548Y0114261D01*
X0065628Y0114319D01*
X0065711Y0114374D01*
X0065795Y0114425D01*
X0065882Y0114473D01*
X0065971Y0114517D01*
X0066061Y0114558D01*
X0066153Y0114595D01*
X0066247Y0114628D01*
X0066341Y0114658D01*
X0066437Y0114683D01*
X0066534Y0114705D01*
X0066631Y0114723D01*
X0066729Y0114737D01*
X0066828Y0114747D01*
X0066927Y0114753D01*
X0067026Y0114755D01*
X0067125Y0114753D01*
X0067224Y0114747D01*
X0067323Y0114737D01*
X0067421Y0114723D01*
X0067518Y0114705D01*
X0067615Y0114683D01*
X0067711Y0114658D01*
X0067805Y0114628D01*
X0067899Y0114595D01*
X0067991Y0114558D01*
X0068081Y0114517D01*
X0068170Y0114473D01*
X0068256Y0114425D01*
X0068341Y0114374D01*
X0068424Y0114319D01*
X0068504Y0114261D01*
X0068582Y0114200D01*
X0068658Y0114136D01*
X0068731Y0114069D01*
X0068801Y0113999D01*
X0068868Y0113926D01*
X0068932Y0113850D01*
X0068993Y0113772D01*
X0069051Y0113692D01*
X0069106Y0113609D01*
X0069157Y0113525D01*
X0069205Y0113438D01*
X0069249Y0113349D01*
X0069290Y0113259D01*
X0069327Y0113167D01*
X0069360Y0113073D01*
X0069390Y0112979D01*
X0069415Y0112883D01*
X0069437Y0112786D01*
X0069455Y0112689D01*
X0069469Y0112591D01*
X0069479Y0112492D01*
X0069485Y0112393D01*
X0069487Y0112294D01*
X0069485Y0112195D01*
X0069479Y0112096D01*
X0069469Y0111997D01*
X0069455Y0111899D01*
X0069437Y0111802D01*
X0069415Y0111705D01*
X0069390Y0111609D01*
X0069360Y0111515D01*
X0069327Y0111421D01*
X0069290Y0111329D01*
X0069249Y0111239D01*
X0069205Y0111150D01*
X0069157Y0111064D01*
X0069106Y0110979D01*
X0069051Y0110896D01*
X0068993Y0110816D01*
X0068932Y0110738D01*
X0068868Y0110662D01*
X0068801Y0110589D01*
X0068731Y0110519D01*
X0068658Y0110452D01*
X0068582Y0110388D01*
X0068504Y0110327D01*
X0068424Y0110269D01*
X0068341Y0110214D01*
X0068257Y0110163D01*
X0068170Y0110115D01*
X0068081Y0110071D01*
X0067991Y0110030D01*
X0067899Y0109993D01*
X0067805Y0109960D01*
X0067711Y0109930D01*
X0067615Y0109905D01*
X0067518Y0109883D01*
X0067421Y0109865D01*
X0067323Y0109851D01*
X0067224Y0109841D01*
X0067125Y0109835D01*
X0067026Y0109833D01*
X0066927Y0109835D01*
X0066828Y0109841D01*
X0066729Y0109851D01*
X0066631Y0109865D01*
X0066534Y0109883D01*
X0066437Y0109905D01*
X0066341Y0109930D01*
X0066247Y0109960D01*
X0066153Y0109993D01*
X0066061Y0110030D01*
X0065971Y0110071D01*
X0065882Y0110115D01*
X0065796Y0110163D01*
X0065711Y0110214D01*
X0065628Y0110269D01*
X0065548Y0110327D01*
X0065470Y0110388D01*
X0065394Y0110452D01*
X0065321Y0110519D01*
X0065251Y0110589D01*
X0065184Y0110662D01*
X0065120Y0110738D01*
X0065059Y0110816D01*
X0065001Y0110896D01*
X0064946Y0110979D01*
X0064895Y0111063D01*
X0064847Y0111150D01*
X0064803Y0111239D01*
X0064762Y0111329D01*
X0064725Y0111421D01*
X0064692Y0111515D01*
X0064662Y0111609D01*
X0064637Y0111705D01*
X0064615Y0111802D01*
X0064597Y0111899D01*
X0064583Y0111997D01*
X0064573Y0112096D01*
X0064567Y0112195D01*
X0064565Y0112294D01*
X0062990Y0094578D02*
X0062992Y0094677D01*
X0062998Y0094776D01*
X0063008Y0094875D01*
X0063022Y0094973D01*
X0063040Y0095070D01*
X0063062Y0095167D01*
X0063087Y0095263D01*
X0063117Y0095357D01*
X0063150Y0095451D01*
X0063187Y0095543D01*
X0063228Y0095633D01*
X0063272Y0095722D01*
X0063320Y0095808D01*
X0063371Y0095893D01*
X0063426Y0095976D01*
X0063484Y0096056D01*
X0063545Y0096134D01*
X0063609Y0096210D01*
X0063676Y0096283D01*
X0063746Y0096353D01*
X0063819Y0096420D01*
X0063895Y0096484D01*
X0063973Y0096545D01*
X0064053Y0096603D01*
X0064136Y0096658D01*
X0064220Y0096709D01*
X0064307Y0096757D01*
X0064396Y0096801D01*
X0064486Y0096842D01*
X0064578Y0096879D01*
X0064672Y0096912D01*
X0064766Y0096942D01*
X0064862Y0096967D01*
X0064959Y0096989D01*
X0065056Y0097007D01*
X0065154Y0097021D01*
X0065253Y0097031D01*
X0065352Y0097037D01*
X0065451Y0097039D01*
X0065550Y0097037D01*
X0065649Y0097031D01*
X0065748Y0097021D01*
X0065846Y0097007D01*
X0065943Y0096989D01*
X0066040Y0096967D01*
X0066136Y0096942D01*
X0066230Y0096912D01*
X0066324Y0096879D01*
X0066416Y0096842D01*
X0066506Y0096801D01*
X0066595Y0096757D01*
X0066681Y0096709D01*
X0066766Y0096658D01*
X0066849Y0096603D01*
X0066929Y0096545D01*
X0067007Y0096484D01*
X0067083Y0096420D01*
X0067156Y0096353D01*
X0067226Y0096283D01*
X0067293Y0096210D01*
X0067357Y0096134D01*
X0067418Y0096056D01*
X0067476Y0095976D01*
X0067531Y0095893D01*
X0067582Y0095809D01*
X0067630Y0095722D01*
X0067674Y0095633D01*
X0067715Y0095543D01*
X0067752Y0095451D01*
X0067785Y0095357D01*
X0067815Y0095263D01*
X0067840Y0095167D01*
X0067862Y0095070D01*
X0067880Y0094973D01*
X0067894Y0094875D01*
X0067904Y0094776D01*
X0067910Y0094677D01*
X0067912Y0094578D01*
X0067910Y0094479D01*
X0067904Y0094380D01*
X0067894Y0094281D01*
X0067880Y0094183D01*
X0067862Y0094086D01*
X0067840Y0093989D01*
X0067815Y0093893D01*
X0067785Y0093799D01*
X0067752Y0093705D01*
X0067715Y0093613D01*
X0067674Y0093523D01*
X0067630Y0093434D01*
X0067582Y0093348D01*
X0067531Y0093263D01*
X0067476Y0093180D01*
X0067418Y0093100D01*
X0067357Y0093022D01*
X0067293Y0092946D01*
X0067226Y0092873D01*
X0067156Y0092803D01*
X0067083Y0092736D01*
X0067007Y0092672D01*
X0066929Y0092611D01*
X0066849Y0092553D01*
X0066766Y0092498D01*
X0066682Y0092447D01*
X0066595Y0092399D01*
X0066506Y0092355D01*
X0066416Y0092314D01*
X0066324Y0092277D01*
X0066230Y0092244D01*
X0066136Y0092214D01*
X0066040Y0092189D01*
X0065943Y0092167D01*
X0065846Y0092149D01*
X0065748Y0092135D01*
X0065649Y0092125D01*
X0065550Y0092119D01*
X0065451Y0092117D01*
X0065352Y0092119D01*
X0065253Y0092125D01*
X0065154Y0092135D01*
X0065056Y0092149D01*
X0064959Y0092167D01*
X0064862Y0092189D01*
X0064766Y0092214D01*
X0064672Y0092244D01*
X0064578Y0092277D01*
X0064486Y0092314D01*
X0064396Y0092355D01*
X0064307Y0092399D01*
X0064221Y0092447D01*
X0064136Y0092498D01*
X0064053Y0092553D01*
X0063973Y0092611D01*
X0063895Y0092672D01*
X0063819Y0092736D01*
X0063746Y0092803D01*
X0063676Y0092873D01*
X0063609Y0092946D01*
X0063545Y0093022D01*
X0063484Y0093100D01*
X0063426Y0093180D01*
X0063371Y0093263D01*
X0063320Y0093347D01*
X0063272Y0093434D01*
X0063228Y0093523D01*
X0063187Y0093613D01*
X0063150Y0093705D01*
X0063117Y0093799D01*
X0063087Y0093893D01*
X0063062Y0093989D01*
X0063040Y0094086D01*
X0063022Y0094183D01*
X0063008Y0094281D01*
X0062998Y0094380D01*
X0062992Y0094479D01*
X0062990Y0094578D01*
D11*
X0118404Y0193003D03*
X0145963Y0193003D03*
D12*
X0142026Y0182668D03*
X0122341Y0182668D03*
D13*
X0103640Y0137373D03*
X0099310Y0137373D03*
X0094979Y0137373D03*
X0090648Y0137373D03*
X0086318Y0137373D03*
X0081987Y0137373D03*
X0077656Y0137373D03*
X0073325Y0137373D03*
X0068995Y0137373D03*
D14*
X0046554Y0096152D03*
X0108759Y0096152D03*
D15*
X0108995Y0133948D03*
D16*
X0049999Y0133948D03*
D17*
X0047538Y0164066D03*
X0055018Y0164066D03*
D18*
X0068994Y0162885D03*
X0068994Y0167885D03*
X0068994Y0157885D03*
X0081594Y0157885D03*
X0081594Y0162885D03*
X0081594Y0167885D03*
D19*
X0115058Y0153830D03*
X0122932Y0127452D03*
X0154034Y0141625D03*
X0154034Y0153436D03*
X0141436Y0064459D03*
X0143010Y0010916D03*
X0131199Y0010916D03*
X0119388Y0010916D03*
X0154822Y0010916D03*
D20*
X0151278Y0097727D03*
X0151278Y0105207D03*
X0151278Y0113475D03*
X0151278Y0120956D03*
X0141042Y0133160D03*
X0141042Y0140641D03*
X0141042Y0150483D03*
X0141042Y0157963D03*
X0127656Y0155995D03*
X0127656Y0163475D03*
X0127656Y0146940D03*
X0127656Y0139459D03*
X0128050Y0105207D03*
X0128050Y0097727D03*
D21*
X0050735Y0041507D02*
X0044735Y0041507D01*
X0044735Y0031507D02*
X0050735Y0031507D01*
X0050735Y0020247D02*
X0044735Y0020247D01*
X0044735Y0010247D02*
X0050735Y0010247D01*
D22*
X0020727Y0001625D02*
X0020727Y0198475D01*
X0182144Y0198475D01*
X0182144Y0001625D01*
X0020727Y0001625D01*
D23*
X0026936Y0005050D03*
X0035936Y0005050D03*
X0036936Y0015050D03*
X0035936Y0025050D03*
X0026936Y0025050D03*
X0025936Y0015050D03*
X0025936Y0035050D03*
X0026936Y0045050D03*
X0035936Y0045050D03*
X0036936Y0035050D03*
X0036936Y0055050D03*
X0035936Y0065050D03*
X0026936Y0065050D03*
X0025936Y0055050D03*
X0025936Y0075050D03*
X0026936Y0085050D03*
X0035936Y0085050D03*
X0036936Y0075050D03*
X0036936Y0095050D03*
X0035936Y0105050D03*
X0036936Y0115050D03*
X0035936Y0125050D03*
X0026936Y0125050D03*
X0025936Y0115050D03*
X0026936Y0105050D03*
X0025936Y0095050D03*
X0025936Y0135050D03*
X0026936Y0145050D03*
X0035936Y0145050D03*
X0036936Y0135050D03*
X0036936Y0155050D03*
X0035936Y0165050D03*
X0026936Y0165050D03*
X0025936Y0155050D03*
X0025936Y0175050D03*
X0026936Y0185050D03*
X0035936Y0185050D03*
X0036936Y0175050D03*
X0036936Y0195050D03*
X0165936Y0185050D03*
X0166936Y0175050D03*
X0175936Y0175050D03*
X0176936Y0185050D03*
X0175936Y0195050D03*
X0176936Y0165050D03*
X0175936Y0155050D03*
X0166936Y0155050D03*
X0165936Y0145050D03*
X0166936Y0135050D03*
X0175936Y0135050D03*
X0176936Y0125050D03*
X0175936Y0115050D03*
X0166936Y0115050D03*
X0165936Y0105050D03*
X0166936Y0095050D03*
X0175936Y0095050D03*
X0176936Y0085050D03*
X0175936Y0075050D03*
X0166936Y0075050D03*
X0165936Y0065050D03*
X0166936Y0055050D03*
X0175936Y0055050D03*
X0176936Y0045050D03*
X0175936Y0035050D03*
X0166936Y0035050D03*
X0165936Y0045050D03*
X0165936Y0025050D03*
X0166936Y0015050D03*
X0175936Y0015050D03*
X0176936Y0005050D03*
X0165936Y0005050D03*
X0176936Y0025050D03*
X0176936Y0065050D03*
X0165936Y0085050D03*
X0176936Y0105050D03*
X0165936Y0125050D03*
X0176936Y0145050D03*
X0165936Y0165050D03*
D24*
X0166936Y0195050D03*
X0025936Y0195050D03*
D25*
X0026908Y0195337D02*
X0029798Y0195337D01*
X0029798Y0195725D01*
X0033473Y0195725D01*
X0033473Y0194361D01*
X0034001Y0193089D01*
X0034975Y0192115D01*
X0036247Y0191588D01*
X0037624Y0191588D01*
X0038897Y0192115D01*
X0039871Y0193089D01*
X0040398Y0194361D01*
X0040398Y0195725D01*
X0114331Y0195725D01*
X0114217Y0195569D01*
X0113867Y0194882D01*
X0113629Y0194149D01*
X0113527Y0193503D01*
X0117904Y0193503D01*
X0117904Y0192503D01*
X0113527Y0192503D01*
X0113629Y0191856D01*
X0113867Y0191123D01*
X0114217Y0190437D01*
X0114670Y0189813D01*
X0115215Y0189269D01*
X0115838Y0188816D01*
X0116525Y0188466D01*
X0117258Y0188228D01*
X0117904Y0188125D01*
X0117904Y0192503D01*
X0118904Y0192503D01*
X0118904Y0193503D01*
X0123282Y0193503D01*
X0123179Y0194149D01*
X0122941Y0194882D01*
X0122591Y0195569D01*
X0122478Y0195725D01*
X0141890Y0195725D01*
X0141776Y0195569D01*
X0141426Y0194882D01*
X0141188Y0194149D01*
X0141086Y0193503D01*
X0145463Y0193503D01*
X0145463Y0192503D01*
X0141086Y0192503D01*
X0141188Y0191856D01*
X0141426Y0191123D01*
X0141776Y0190437D01*
X0142229Y0189813D01*
X0142774Y0189269D01*
X0143397Y0188816D01*
X0144084Y0188466D01*
X0144817Y0188228D01*
X0145463Y0188125D01*
X0145463Y0192503D01*
X0146463Y0192503D01*
X0146463Y0188125D01*
X0147110Y0188228D01*
X0147843Y0188466D01*
X0148529Y0188816D01*
X0149153Y0189269D01*
X0149697Y0189813D01*
X0150150Y0190437D01*
X0150500Y0191123D01*
X0150738Y0191856D01*
X0150841Y0192503D01*
X0146463Y0192503D01*
X0146463Y0193503D01*
X0150841Y0193503D01*
X0150738Y0194149D01*
X0150500Y0194882D01*
X0150150Y0195569D01*
X0150037Y0195725D01*
X0163073Y0195725D01*
X0163073Y0195337D01*
X0166648Y0195337D01*
X0166648Y0194763D01*
X0163073Y0194763D01*
X0163073Y0192490D01*
X0163176Y0192109D01*
X0163373Y0191767D01*
X0163584Y0191556D01*
X0161909Y0191556D01*
X0160796Y0190443D01*
X0133562Y0163210D01*
X0132449Y0162097D01*
X0132449Y0123515D01*
X0133562Y0122402D01*
X0133562Y0122402D01*
X0141110Y0114854D01*
X0141110Y0102254D01*
X0138483Y0099627D01*
X0132103Y0099627D01*
X0132103Y0100742D01*
X0131589Y0101255D01*
X0131924Y0101448D01*
X0132203Y0101727D01*
X0132400Y0102069D01*
X0132503Y0102451D01*
X0132503Y0104707D01*
X0128550Y0104707D01*
X0128550Y0105707D01*
X0132503Y0105707D01*
X0132503Y0107964D01*
X0132400Y0108346D01*
X0132203Y0108688D01*
X0131924Y0108967D01*
X0131582Y0109164D01*
X0131200Y0109267D01*
X0128550Y0109267D01*
X0128550Y0105708D01*
X0127550Y0105708D01*
X0127550Y0109267D01*
X0124900Y0109267D01*
X0124518Y0109164D01*
X0124176Y0108967D01*
X0123897Y0108688D01*
X0123699Y0108346D01*
X0123597Y0107964D01*
X0123597Y0105707D01*
X0127550Y0105707D01*
X0127550Y0104707D01*
X0123597Y0104707D01*
X0123597Y0102451D01*
X0123699Y0102069D01*
X0123897Y0101727D01*
X0124176Y0101448D01*
X0124510Y0101255D01*
X0123997Y0100742D01*
X0123997Y0099824D01*
X0121922Y0099824D01*
X0121522Y0100224D01*
X0119617Y0100224D01*
X0118270Y0098877D01*
X0118270Y0096971D01*
X0119617Y0095624D01*
X0121522Y0095624D01*
X0121922Y0096024D01*
X0123997Y0096024D01*
X0123997Y0094712D01*
X0124641Y0094068D01*
X0131458Y0094068D01*
X0132103Y0094712D01*
X0132103Y0095827D01*
X0140057Y0095827D01*
X0142617Y0098387D01*
X0145176Y0095827D01*
X0147225Y0095827D01*
X0147225Y0094712D01*
X0147870Y0094068D01*
X0154687Y0094068D01*
X0155331Y0094712D01*
X0155331Y0095827D01*
X0159349Y0095827D01*
X0160462Y0096940D01*
X0161901Y0098380D01*
X0162467Y0098380D01*
X0163814Y0099727D01*
X0163814Y0101633D01*
X0162467Y0102980D01*
X0160562Y0102980D01*
X0159214Y0101633D01*
X0159214Y0101067D01*
X0157775Y0099627D01*
X0155331Y0099627D01*
X0155331Y0100742D01*
X0154818Y0101255D01*
X0155152Y0101448D01*
X0155431Y0101727D01*
X0155629Y0102069D01*
X0155731Y0102451D01*
X0155731Y0104707D01*
X0151778Y0104707D01*
X0151778Y0105707D01*
X0155731Y0105707D01*
X0155731Y0107964D01*
X0155629Y0108346D01*
X0155431Y0108688D01*
X0155152Y0108967D01*
X0154810Y0109164D01*
X0154428Y0109267D01*
X0151778Y0109267D01*
X0151778Y0105708D01*
X0150778Y0105708D01*
X0150778Y0109267D01*
X0148128Y0109267D01*
X0147746Y0109164D01*
X0147404Y0108967D01*
X0147125Y0108688D01*
X0146928Y0108346D01*
X0146825Y0107964D01*
X0146825Y0105707D01*
X0150778Y0105707D01*
X0150778Y0104707D01*
X0146825Y0104707D01*
X0146825Y0102451D01*
X0146928Y0102069D01*
X0147125Y0101727D01*
X0147404Y0101448D01*
X0147739Y0101255D01*
X0147225Y0100742D01*
X0147225Y0099627D01*
X0146750Y0099627D01*
X0144910Y0101467D01*
X0144910Y0111575D01*
X0147225Y0111575D01*
X0147225Y0110460D01*
X0147870Y0109816D01*
X0154687Y0109816D01*
X0155331Y0110460D01*
X0155331Y0111575D01*
X0157381Y0111575D01*
X0158821Y0110135D01*
X0158821Y0109570D01*
X0160168Y0108222D01*
X0162073Y0108222D01*
X0163421Y0109570D01*
X0163421Y0111475D01*
X0162073Y0112822D01*
X0161508Y0112822D01*
X0161383Y0112947D01*
X0162073Y0112947D01*
X0163421Y0114294D01*
X0163421Y0116200D01*
X0163021Y0116600D01*
X0163021Y0119577D01*
X0160265Y0122333D01*
X0160265Y0129420D01*
X0156328Y0133357D01*
X0155215Y0134470D01*
X0145095Y0134470D01*
X0145095Y0136175D01*
X0144450Y0136819D01*
X0137634Y0136819D01*
X0136989Y0136175D01*
X0136989Y0130146D01*
X0137634Y0129501D01*
X0144450Y0129501D01*
X0145095Y0130146D01*
X0145095Y0130670D01*
X0153641Y0130670D01*
X0156465Y0127846D01*
X0156465Y0120759D01*
X0157578Y0119646D01*
X0159221Y0118003D01*
X0159221Y0116600D01*
X0158821Y0116200D01*
X0158821Y0115375D01*
X0155331Y0115375D01*
X0155331Y0116490D01*
X0154818Y0117003D01*
X0155152Y0117196D01*
X0155431Y0117475D01*
X0155629Y0117817D01*
X0155731Y0118199D01*
X0155731Y0120456D01*
X0151778Y0120456D01*
X0151778Y0121455D01*
X0155731Y0121455D01*
X0155731Y0123712D01*
X0155629Y0124094D01*
X0155431Y0124436D01*
X0155152Y0124715D01*
X0154810Y0124912D01*
X0154428Y0125015D01*
X0151778Y0125015D01*
X0151778Y0121456D01*
X0150778Y0121456D01*
X0150778Y0125015D01*
X0148128Y0125015D01*
X0147746Y0124912D01*
X0147404Y0124715D01*
X0147125Y0124436D01*
X0146928Y0124094D01*
X0146825Y0123712D01*
X0146825Y0121455D01*
X0150778Y0121455D01*
X0150778Y0120456D01*
X0146825Y0120456D01*
X0146825Y0118199D01*
X0146928Y0117817D01*
X0147125Y0117475D01*
X0147404Y0117196D01*
X0147739Y0117003D01*
X0147225Y0116490D01*
X0147225Y0115375D01*
X0145963Y0115375D01*
X0144910Y0116428D01*
X0143797Y0117541D01*
X0136249Y0125089D01*
X0136249Y0160523D01*
X0163483Y0187756D01*
X0163746Y0187756D01*
X0163001Y0187011D01*
X0162473Y0185739D01*
X0162473Y0184361D01*
X0163001Y0183089D01*
X0163975Y0182115D01*
X0163992Y0182107D01*
X0158365Y0182107D01*
X0157252Y0180994D01*
X0139142Y0162884D01*
X0139142Y0161622D01*
X0137634Y0161622D01*
X0136989Y0160978D01*
X0136989Y0154949D01*
X0137634Y0154304D01*
X0144450Y0154304D01*
X0145095Y0154949D01*
X0145095Y0160978D01*
X0144450Y0161622D01*
X0143254Y0161622D01*
X0159939Y0178307D01*
X0165753Y0178307D01*
X0164975Y0177985D01*
X0164001Y0177011D01*
X0163473Y0175739D01*
X0163473Y0174361D01*
X0164001Y0173089D01*
X0164975Y0172115D01*
X0166247Y0171588D01*
X0167624Y0171588D01*
X0168897Y0172115D01*
X0169871Y0173089D01*
X0170398Y0174361D01*
X0170398Y0175739D01*
X0169871Y0177011D01*
X0168897Y0177985D01*
X0168119Y0178307D01*
X0172880Y0178307D01*
X0176186Y0181613D01*
X0176247Y0181588D01*
X0176908Y0181588D01*
X0176908Y0178794D01*
X0176316Y0178912D01*
X0176223Y0178912D01*
X0176223Y0175337D01*
X0175648Y0175337D01*
X0175648Y0174763D01*
X0172073Y0174763D01*
X0172073Y0174670D01*
X0172222Y0173923D01*
X0172513Y0173221D01*
X0172936Y0172588D01*
X0173474Y0172050D01*
X0174106Y0171627D01*
X0174809Y0171336D01*
X0175555Y0171188D01*
X0175648Y0171188D01*
X0175648Y0174763D01*
X0176223Y0174763D01*
X0176223Y0171188D01*
X0176316Y0171188D01*
X0176908Y0171306D01*
X0176908Y0168512D01*
X0176247Y0168512D01*
X0174975Y0167985D01*
X0174001Y0167011D01*
X0173473Y0165739D01*
X0173473Y0164361D01*
X0174001Y0163089D01*
X0174975Y0162115D01*
X0176247Y0161588D01*
X0176908Y0161588D01*
X0176908Y0158395D01*
X0176624Y0158512D01*
X0175247Y0158512D01*
X0173975Y0157985D01*
X0173001Y0157011D01*
X0172473Y0155739D01*
X0172473Y0154361D01*
X0173001Y0153089D01*
X0173975Y0152115D01*
X0175247Y0151588D01*
X0176624Y0151588D01*
X0176908Y0151705D01*
X0176908Y0148512D01*
X0176247Y0148512D01*
X0174975Y0147985D01*
X0174001Y0147011D01*
X0173473Y0145739D01*
X0173473Y0144361D01*
X0174001Y0143089D01*
X0174975Y0142115D01*
X0176247Y0141588D01*
X0176908Y0141588D01*
X0176908Y0138395D01*
X0176624Y0138512D01*
X0175247Y0138512D01*
X0173975Y0137985D01*
X0173001Y0137011D01*
X0172473Y0135739D01*
X0172473Y0134361D01*
X0173001Y0133089D01*
X0173975Y0132115D01*
X0175247Y0131588D01*
X0176624Y0131588D01*
X0176908Y0131705D01*
X0176908Y0128512D01*
X0176247Y0128512D01*
X0174975Y0127985D01*
X0174001Y0127011D01*
X0173473Y0125739D01*
X0173473Y0124361D01*
X0174001Y0123089D01*
X0174975Y0122115D01*
X0176247Y0121588D01*
X0176908Y0121588D01*
X0176908Y0118395D01*
X0176624Y0118512D01*
X0175247Y0118512D01*
X0173975Y0117985D01*
X0173001Y0117011D01*
X0172473Y0115739D01*
X0172473Y0114361D01*
X0173001Y0113089D01*
X0173975Y0112115D01*
X0175247Y0111588D01*
X0176624Y0111588D01*
X0176908Y0111705D01*
X0176908Y0108512D01*
X0176247Y0108512D01*
X0174975Y0107985D01*
X0174001Y0107011D01*
X0173473Y0105739D01*
X0173473Y0104361D01*
X0174001Y0103089D01*
X0174975Y0102115D01*
X0176247Y0101588D01*
X0176908Y0101588D01*
X0176908Y0098794D01*
X0176316Y0098912D01*
X0176223Y0098912D01*
X0176223Y0095337D01*
X0175648Y0095337D01*
X0175648Y0098912D01*
X0175555Y0098912D01*
X0174809Y0098764D01*
X0174106Y0098473D01*
X0173474Y0098050D01*
X0173257Y0097833D01*
X0173257Y0111416D01*
X0170373Y0114300D01*
X0170398Y0114361D01*
X0170398Y0115739D01*
X0169871Y0117011D01*
X0168897Y0117985D01*
X0167624Y0118512D01*
X0166247Y0118512D01*
X0164975Y0117985D01*
X0164001Y0117011D01*
X0163473Y0115739D01*
X0163473Y0114361D01*
X0164001Y0113089D01*
X0164975Y0112115D01*
X0166247Y0111588D01*
X0167624Y0111588D01*
X0167686Y0111613D01*
X0169457Y0109842D01*
X0169457Y0097991D01*
X0169398Y0098050D01*
X0168765Y0098473D01*
X0168062Y0098764D01*
X0167316Y0098912D01*
X0167223Y0098912D01*
X0167223Y0095337D01*
X0166648Y0095337D01*
X0166648Y0094763D01*
X0163073Y0094763D01*
X0163073Y0094670D01*
X0163222Y0093923D01*
X0163513Y0093221D01*
X0163936Y0092588D01*
X0164474Y0092050D01*
X0164623Y0091950D01*
X0142616Y0091950D01*
X0141767Y0092799D01*
X0141767Y0093365D01*
X0140420Y0094712D01*
X0138514Y0094712D01*
X0137167Y0093365D01*
X0137167Y0091460D01*
X0138514Y0090112D01*
X0139080Y0090112D01*
X0141042Y0088150D01*
X0158724Y0088150D01*
X0158033Y0087459D01*
X0158033Y0086894D01*
X0157646Y0086506D01*
X0157646Y0016428D01*
X0157261Y0016043D01*
X0157038Y0016266D01*
X0152605Y0016266D01*
X0149472Y0013132D01*
X0149472Y0008700D01*
X0152137Y0006034D01*
X0145695Y0006034D01*
X0148360Y0008700D01*
X0148360Y0013132D01*
X0148137Y0013356D01*
X0153966Y0019184D01*
X0153966Y0074524D01*
X0155153Y0075711D01*
X0155153Y0077617D01*
X0153806Y0078964D01*
X0151900Y0078964D01*
X0150553Y0077617D01*
X0150553Y0077051D01*
X0150166Y0076664D01*
X0150166Y0020758D01*
X0145450Y0016043D01*
X0145227Y0016266D01*
X0140794Y0016266D01*
X0137660Y0013132D01*
X0137660Y0008700D01*
X0140326Y0006034D01*
X0133884Y0006034D01*
X0136549Y0008700D01*
X0136549Y0013132D01*
X0133416Y0016266D01*
X0132706Y0016266D01*
X0132706Y0078239D01*
X0133493Y0079027D01*
X0133493Y0080601D01*
X0132706Y0081388D01*
X0131593Y0082501D01*
X0123263Y0090831D01*
X0123263Y0091790D01*
X0121916Y0093137D01*
X0120011Y0093137D01*
X0118663Y0091790D01*
X0118663Y0089885D01*
X0120011Y0088537D01*
X0120183Y0088537D01*
X0128906Y0079814D01*
X0128906Y0016188D01*
X0125849Y0013132D01*
X0125849Y0008700D01*
X0128515Y0006034D01*
X0122073Y0006034D01*
X0124738Y0008700D01*
X0124738Y0013132D01*
X0121604Y0016266D01*
X0121288Y0016266D01*
X0121288Y0076493D01*
X0121688Y0076893D01*
X0121688Y0078798D01*
X0120341Y0080145D01*
X0118436Y0080145D01*
X0117088Y0078798D01*
X0117088Y0076893D01*
X0117488Y0076493D01*
X0117488Y0016266D01*
X0117172Y0016266D01*
X0114038Y0013132D01*
X0114038Y0008700D01*
X0116704Y0006034D01*
X0052332Y0006034D01*
X0052462Y0006077D01*
X0053093Y0006398D01*
X0053666Y0006814D01*
X0054167Y0007315D01*
X0054584Y0007888D01*
X0054905Y0008519D01*
X0055124Y0009193D01*
X0055212Y0009747D01*
X0048235Y0009747D01*
X0048235Y0010747D01*
X0047235Y0010747D01*
X0047235Y0014747D01*
X0044381Y0014747D01*
X0043681Y0014636D01*
X0043007Y0014417D01*
X0042376Y0014096D01*
X0041803Y0013679D01*
X0041302Y0013178D01*
X0040886Y0012605D01*
X0040565Y0011974D01*
X0040346Y0011301D01*
X0040258Y0010747D01*
X0047235Y0010747D01*
X0047235Y0009747D01*
X0040258Y0009747D01*
X0040346Y0009193D01*
X0040565Y0008519D01*
X0040886Y0007888D01*
X0041302Y0007315D01*
X0041803Y0006814D01*
X0042376Y0006398D01*
X0043007Y0006077D01*
X0043138Y0006034D01*
X0039275Y0006034D01*
X0038871Y0007011D01*
X0037897Y0007985D01*
X0036624Y0008512D01*
X0035247Y0008512D01*
X0033975Y0007985D01*
X0033001Y0007011D01*
X0032596Y0006034D01*
X0030678Y0006034D01*
X0030649Y0006177D01*
X0030358Y0006879D01*
X0029936Y0007512D01*
X0029398Y0008050D01*
X0028765Y0008473D01*
X0028062Y0008764D01*
X0027316Y0008912D01*
X0027223Y0008912D01*
X0027223Y0006034D01*
X0026908Y0006034D01*
X0026908Y0011705D01*
X0027897Y0012115D01*
X0028871Y0013089D01*
X0029398Y0014361D01*
X0029398Y0015739D01*
X0028871Y0017011D01*
X0027897Y0017985D01*
X0026908Y0018395D01*
X0026908Y0021588D01*
X0027624Y0021588D01*
X0028897Y0022115D01*
X0029871Y0023089D01*
X0030398Y0024361D01*
X0030398Y0025739D01*
X0029871Y0027011D01*
X0028897Y0027985D01*
X0027624Y0028512D01*
X0026908Y0028512D01*
X0026908Y0031705D01*
X0027897Y0032115D01*
X0028871Y0033089D01*
X0029398Y0034361D01*
X0029398Y0035739D01*
X0028871Y0037011D01*
X0027897Y0037985D01*
X0026908Y0038395D01*
X0026908Y0041588D01*
X0027624Y0041588D01*
X0028897Y0042115D01*
X0029871Y0043089D01*
X0030398Y0044361D01*
X0030398Y0045739D01*
X0029871Y0047011D01*
X0028897Y0047985D01*
X0027624Y0048512D01*
X0026908Y0048512D01*
X0026908Y0051705D01*
X0027897Y0052115D01*
X0028871Y0053089D01*
X0029398Y0054361D01*
X0029398Y0055739D01*
X0028871Y0057011D01*
X0027897Y0057985D01*
X0026908Y0058395D01*
X0026908Y0061588D01*
X0027624Y0061588D01*
X0028897Y0062115D01*
X0029871Y0063089D01*
X0030398Y0064361D01*
X0030398Y0065739D01*
X0029871Y0067011D01*
X0028897Y0067985D01*
X0027624Y0068512D01*
X0026908Y0068512D01*
X0026908Y0071705D01*
X0027897Y0072115D01*
X0028871Y0073089D01*
X0029398Y0074361D01*
X0029398Y0075739D01*
X0028871Y0077011D01*
X0027897Y0077985D01*
X0026908Y0078395D01*
X0026908Y0081588D01*
X0027624Y0081588D01*
X0028897Y0082115D01*
X0029871Y0083089D01*
X0030398Y0084361D01*
X0030398Y0085739D01*
X0029871Y0087011D01*
X0028897Y0087985D01*
X0027624Y0088512D01*
X0026908Y0088512D01*
X0026908Y0091705D01*
X0027897Y0092115D01*
X0028871Y0093089D01*
X0029398Y0094361D01*
X0029398Y0095739D01*
X0028871Y0097011D01*
X0027897Y0097985D01*
X0026908Y0098395D01*
X0026908Y0101588D01*
X0027624Y0101588D01*
X0028897Y0102115D01*
X0029871Y0103089D01*
X0030398Y0104361D01*
X0030398Y0105739D01*
X0029871Y0107011D01*
X0028897Y0107985D01*
X0027624Y0108512D01*
X0026908Y0108512D01*
X0026908Y0111705D01*
X0027897Y0112115D01*
X0028871Y0113089D01*
X0029398Y0114361D01*
X0029398Y0115739D01*
X0029373Y0115800D01*
X0032038Y0118465D01*
X0036133Y0118465D01*
X0034975Y0117985D01*
X0034001Y0117011D01*
X0033473Y0115739D01*
X0033473Y0114361D01*
X0034001Y0113089D01*
X0034975Y0112115D01*
X0036247Y0111588D01*
X0037624Y0111588D01*
X0038897Y0112115D01*
X0039871Y0113089D01*
X0040398Y0114361D01*
X0040398Y0115739D01*
X0039871Y0117011D01*
X0038897Y0117985D01*
X0037738Y0118465D01*
X0040254Y0118465D01*
X0043010Y0121221D01*
X0044123Y0122334D01*
X0044123Y0153830D01*
X0046160Y0155867D01*
X0053640Y0155867D01*
X0056002Y0158229D01*
X0057115Y0159342D01*
X0057115Y0160013D01*
X0058033Y0160013D01*
X0058677Y0160657D01*
X0058677Y0160985D01*
X0065677Y0160985D01*
X0065920Y0160741D01*
X0072068Y0160741D01*
X0072712Y0161386D01*
X0072712Y0164384D01*
X0072068Y0165028D01*
X0065920Y0165028D01*
X0065677Y0164785D01*
X0058677Y0164785D01*
X0058677Y0167474D01*
X0058033Y0168118D01*
X0052004Y0168118D01*
X0051359Y0167474D01*
X0051359Y0160657D01*
X0052004Y0160013D01*
X0052412Y0160013D01*
X0052066Y0159667D01*
X0044586Y0159667D01*
X0043473Y0158554D01*
X0040398Y0155479D01*
X0040398Y0155739D01*
X0039871Y0157011D01*
X0038897Y0157985D01*
X0037624Y0158512D01*
X0036247Y0158512D01*
X0034975Y0157985D01*
X0034001Y0157011D01*
X0033473Y0155739D01*
X0033473Y0154361D01*
X0034001Y0153089D01*
X0034975Y0152115D01*
X0036247Y0151588D01*
X0037624Y0151588D01*
X0038897Y0152115D01*
X0039871Y0153089D01*
X0040323Y0154181D01*
X0040323Y0135919D01*
X0039871Y0137011D01*
X0038897Y0137985D01*
X0037624Y0138512D01*
X0036247Y0138512D01*
X0034975Y0137985D01*
X0034001Y0137011D01*
X0033473Y0135739D01*
X0033473Y0134361D01*
X0034001Y0133089D01*
X0034975Y0132115D01*
X0036247Y0131588D01*
X0037624Y0131588D01*
X0038897Y0132115D01*
X0039871Y0133089D01*
X0040323Y0134181D01*
X0040323Y0123908D01*
X0038680Y0122265D01*
X0038047Y0122265D01*
X0038871Y0123089D01*
X0039398Y0124361D01*
X0039398Y0125739D01*
X0038871Y0127011D01*
X0037897Y0127985D01*
X0036624Y0128512D01*
X0035247Y0128512D01*
X0033975Y0127985D01*
X0033001Y0127011D01*
X0032473Y0125739D01*
X0032473Y0124361D01*
X0033001Y0123089D01*
X0033824Y0122265D01*
X0030464Y0122265D01*
X0026908Y0118709D01*
X0026908Y0121588D01*
X0027624Y0121588D01*
X0028897Y0122115D01*
X0029871Y0123089D01*
X0030398Y0124361D01*
X0030398Y0125739D01*
X0029871Y0127011D01*
X0028897Y0127985D01*
X0027624Y0128512D01*
X0026908Y0128512D01*
X0026908Y0131705D01*
X0027897Y0132115D01*
X0028871Y0133089D01*
X0029398Y0134361D01*
X0029398Y0135739D01*
X0028871Y0137011D01*
X0027897Y0137985D01*
X0026908Y0138395D01*
X0026908Y0141588D01*
X0027624Y0141588D01*
X0028897Y0142115D01*
X0029871Y0143089D01*
X0030398Y0144361D01*
X0030398Y0145739D01*
X0029871Y0147011D01*
X0028897Y0147985D01*
X0027624Y0148512D01*
X0026908Y0148512D01*
X0026908Y0151705D01*
X0027897Y0152115D01*
X0028871Y0153089D01*
X0029398Y0154361D01*
X0029398Y0155739D01*
X0028871Y0157011D01*
X0027897Y0157985D01*
X0026908Y0158395D01*
X0026908Y0161588D01*
X0027624Y0161588D01*
X0028897Y0162115D01*
X0029871Y0163089D01*
X0030398Y0164361D01*
X0030398Y0165739D01*
X0029871Y0167011D01*
X0028897Y0167985D01*
X0027624Y0168512D01*
X0026908Y0168512D01*
X0026908Y0171391D01*
X0029834Y0168465D01*
X0035133Y0168465D01*
X0033975Y0167985D01*
X0033001Y0167011D01*
X0032473Y0165739D01*
X0032473Y0164361D01*
X0033001Y0163089D01*
X0033975Y0162115D01*
X0035247Y0161588D01*
X0036624Y0161588D01*
X0037897Y0162115D01*
X0038871Y0163089D01*
X0039398Y0164361D01*
X0039398Y0165739D01*
X0038871Y0167011D01*
X0037897Y0167985D01*
X0036738Y0168465D01*
X0040452Y0168465D01*
X0043879Y0165038D01*
X0043879Y0160657D01*
X0044523Y0160013D01*
X0050553Y0160013D01*
X0051197Y0160657D01*
X0051197Y0167474D01*
X0050553Y0168118D01*
X0046172Y0168118D01*
X0042026Y0172265D01*
X0039047Y0172265D01*
X0039871Y0173089D01*
X0040398Y0174361D01*
X0040398Y0175739D01*
X0039871Y0177011D01*
X0038897Y0177985D01*
X0037624Y0178512D01*
X0036247Y0178512D01*
X0034975Y0177985D01*
X0034001Y0177011D01*
X0033473Y0175739D01*
X0033473Y0174361D01*
X0034001Y0173089D01*
X0034824Y0172265D01*
X0031408Y0172265D01*
X0029373Y0174300D01*
X0029398Y0174361D01*
X0029398Y0175739D01*
X0028871Y0177011D01*
X0027897Y0177985D01*
X0026908Y0178395D01*
X0026908Y0181588D01*
X0027624Y0181588D01*
X0028897Y0182115D01*
X0029871Y0183089D01*
X0030398Y0184361D01*
X0030398Y0185739D01*
X0029871Y0187011D01*
X0028897Y0187985D01*
X0027624Y0188512D01*
X0026908Y0188512D01*
X0026908Y0191188D01*
X0028495Y0191188D01*
X0028877Y0191290D01*
X0029219Y0191487D01*
X0029498Y0191767D01*
X0029696Y0192109D01*
X0029798Y0192490D01*
X0029798Y0194763D01*
X0026908Y0194763D01*
X0026908Y0195337D01*
X0029798Y0195669D02*
X0033473Y0195669D01*
X0033473Y0194670D02*
X0029798Y0194670D01*
X0029798Y0193672D02*
X0033759Y0193672D01*
X0034416Y0192673D02*
X0029798Y0192673D01*
X0029406Y0191675D02*
X0036037Y0191675D01*
X0037835Y0191675D02*
X0113688Y0191675D01*
X0114095Y0190676D02*
X0026908Y0190676D01*
X0026908Y0189678D02*
X0114806Y0189678D01*
X0116106Y0188679D02*
X0037266Y0188679D01*
X0037062Y0188764D02*
X0036316Y0188912D01*
X0036223Y0188912D01*
X0036223Y0185337D01*
X0039798Y0185337D01*
X0039798Y0185430D01*
X0039649Y0186177D01*
X0039358Y0186879D01*
X0038936Y0187512D01*
X0038398Y0188050D01*
X0037765Y0188473D01*
X0037062Y0188764D01*
X0036223Y0188679D02*
X0035648Y0188679D01*
X0035648Y0188912D02*
X0035555Y0188912D01*
X0034809Y0188764D01*
X0034106Y0188473D01*
X0033474Y0188050D01*
X0032936Y0187512D01*
X0032513Y0186879D01*
X0032222Y0186177D01*
X0032073Y0185430D01*
X0032073Y0185337D01*
X0035648Y0185337D01*
X0035648Y0184763D01*
X0032073Y0184763D01*
X0032073Y0184670D01*
X0032222Y0183923D01*
X0032513Y0183221D01*
X0032936Y0182588D01*
X0033474Y0182050D01*
X0034106Y0181627D01*
X0034809Y0181336D01*
X0035555Y0181188D01*
X0035648Y0181188D01*
X0035648Y0184763D01*
X0036223Y0184763D01*
X0036223Y0185337D01*
X0035648Y0185337D01*
X0035648Y0188912D01*
X0034605Y0188679D02*
X0026908Y0188679D01*
X0029201Y0187681D02*
X0033105Y0187681D01*
X0032431Y0186682D02*
X0030007Y0186682D01*
X0030398Y0185684D02*
X0032124Y0185684D01*
X0032073Y0184685D02*
X0030398Y0184685D01*
X0030118Y0183687D02*
X0032320Y0183687D01*
X0032869Y0182688D02*
X0029470Y0182688D01*
X0027870Y0181690D02*
X0034013Y0181690D01*
X0035648Y0181690D02*
X0036223Y0181690D01*
X0036223Y0181188D02*
X0036316Y0181188D01*
X0037062Y0181336D01*
X0037765Y0181627D01*
X0038398Y0182050D01*
X0038936Y0182588D01*
X0039358Y0183221D01*
X0039649Y0183923D01*
X0039798Y0184670D01*
X0039798Y0184763D01*
X0036223Y0184763D01*
X0036223Y0181188D01*
X0036223Y0182688D02*
X0035648Y0182688D01*
X0035648Y0183687D02*
X0036223Y0183687D01*
X0036223Y0184685D02*
X0035648Y0184685D01*
X0035648Y0185684D02*
X0036223Y0185684D01*
X0036223Y0186682D02*
X0035648Y0186682D01*
X0035648Y0187681D02*
X0036223Y0187681D01*
X0038767Y0187681D02*
X0158033Y0187681D01*
X0159032Y0188679D02*
X0148262Y0188679D01*
X0149562Y0189678D02*
X0160030Y0189678D01*
X0160796Y0190443D02*
X0160796Y0190443D01*
X0161029Y0190676D02*
X0150272Y0190676D01*
X0150679Y0191675D02*
X0163465Y0191675D01*
X0163073Y0192673D02*
X0146463Y0192673D01*
X0146463Y0191675D02*
X0145463Y0191675D01*
X0145463Y0192673D02*
X0118904Y0192673D01*
X0118904Y0192503D02*
X0123282Y0192503D01*
X0123179Y0191856D01*
X0122941Y0191123D01*
X0122591Y0190437D01*
X0122138Y0189813D01*
X0121594Y0189269D01*
X0120970Y0188816D01*
X0120283Y0188466D01*
X0119551Y0188228D01*
X0118904Y0188125D01*
X0118904Y0192503D01*
X0118904Y0191675D02*
X0117904Y0191675D01*
X0117904Y0192673D02*
X0039455Y0192673D01*
X0040112Y0193672D02*
X0113553Y0193672D01*
X0113798Y0194670D02*
X0040398Y0194670D01*
X0040398Y0195669D02*
X0114290Y0195669D01*
X0117904Y0190676D02*
X0118904Y0190676D01*
X0118904Y0189678D02*
X0117904Y0189678D01*
X0117904Y0188679D02*
X0118904Y0188679D01*
X0120703Y0188679D02*
X0143665Y0188679D01*
X0142365Y0189678D02*
X0122003Y0189678D01*
X0122713Y0190676D02*
X0141654Y0190676D01*
X0141247Y0191675D02*
X0123120Y0191675D01*
X0123255Y0193672D02*
X0141113Y0193672D01*
X0141357Y0194670D02*
X0123010Y0194670D01*
X0122518Y0195669D02*
X0141849Y0195669D01*
X0145463Y0190676D02*
X0146463Y0190676D01*
X0146463Y0189678D02*
X0145463Y0189678D01*
X0145463Y0188679D02*
X0146463Y0188679D01*
X0144071Y0185728D02*
X0142744Y0186278D01*
X0141308Y0186278D01*
X0139981Y0185728D01*
X0138966Y0184713D01*
X0138416Y0183386D01*
X0138416Y0181950D01*
X0138966Y0180623D01*
X0139981Y0179608D01*
X0141308Y0179058D01*
X0142744Y0179058D01*
X0144071Y0179608D01*
X0145087Y0180623D01*
X0145636Y0181950D01*
X0145636Y0183386D01*
X0145087Y0184713D01*
X0144071Y0185728D01*
X0144116Y0185684D02*
X0156036Y0185684D01*
X0157035Y0186682D02*
X0039440Y0186682D01*
X0039747Y0185684D02*
X0120252Y0185684D01*
X0120296Y0185728D02*
X0119281Y0184713D01*
X0118731Y0183386D01*
X0118731Y0181950D01*
X0119281Y0180623D01*
X0120296Y0179608D01*
X0121623Y0179058D01*
X0123059Y0179058D01*
X0124386Y0179608D01*
X0125401Y0180623D01*
X0125951Y0181950D01*
X0125951Y0183386D01*
X0125401Y0184713D01*
X0124386Y0185728D01*
X0123059Y0186278D01*
X0121623Y0186278D01*
X0120296Y0185728D01*
X0119269Y0184685D02*
X0039798Y0184685D01*
X0039551Y0183687D02*
X0118856Y0183687D01*
X0118731Y0182688D02*
X0039003Y0182688D01*
X0037858Y0181690D02*
X0118839Y0181690D01*
X0119253Y0180691D02*
X0026908Y0180691D01*
X0026908Y0179693D02*
X0120212Y0179693D01*
X0124471Y0179693D02*
X0139897Y0179693D01*
X0138938Y0180691D02*
X0125430Y0180691D01*
X0125843Y0181690D02*
X0138524Y0181690D01*
X0138416Y0182688D02*
X0125951Y0182688D01*
X0125827Y0183687D02*
X0138541Y0183687D01*
X0138955Y0184685D02*
X0125413Y0184685D01*
X0124431Y0185684D02*
X0139937Y0185684D01*
X0145098Y0184685D02*
X0155038Y0184685D01*
X0154039Y0183687D02*
X0145512Y0183687D01*
X0145636Y0182688D02*
X0153041Y0182688D01*
X0152042Y0181690D02*
X0145528Y0181690D01*
X0145115Y0180691D02*
X0151043Y0180691D01*
X0150045Y0179693D02*
X0144156Y0179693D01*
X0147049Y0176697D02*
X0040001Y0176697D01*
X0040398Y0175699D02*
X0146051Y0175699D01*
X0145052Y0174700D02*
X0040398Y0174700D01*
X0040125Y0173702D02*
X0144054Y0173702D01*
X0143055Y0172703D02*
X0039485Y0172703D01*
X0042586Y0171705D02*
X0142057Y0171705D01*
X0141058Y0170706D02*
X0043585Y0170706D01*
X0044583Y0169708D02*
X0065600Y0169708D01*
X0065920Y0170028D02*
X0065276Y0169384D01*
X0065276Y0166386D01*
X0065920Y0165741D01*
X0072068Y0165741D01*
X0072712Y0166386D01*
X0072712Y0169384D01*
X0072068Y0170028D01*
X0065920Y0170028D01*
X0065276Y0168709D02*
X0045582Y0168709D01*
X0042205Y0166712D02*
X0038995Y0166712D01*
X0039398Y0165714D02*
X0043203Y0165714D01*
X0043879Y0164715D02*
X0039398Y0164715D01*
X0039131Y0163717D02*
X0043879Y0163717D01*
X0043879Y0162718D02*
X0038500Y0162718D01*
X0036942Y0161720D02*
X0043879Y0161720D01*
X0043879Y0160721D02*
X0026908Y0160721D01*
X0026908Y0159722D02*
X0052122Y0159722D01*
X0051359Y0160721D02*
X0051197Y0160721D01*
X0051197Y0161720D02*
X0051359Y0161720D01*
X0051359Y0162718D02*
X0051197Y0162718D01*
X0051197Y0163717D02*
X0051359Y0163717D01*
X0051359Y0164715D02*
X0051197Y0164715D01*
X0051197Y0165714D02*
X0051359Y0165714D01*
X0051359Y0166712D02*
X0051197Y0166712D01*
X0050961Y0167711D02*
X0051596Y0167711D01*
X0058441Y0167711D02*
X0065276Y0167711D01*
X0065276Y0166712D02*
X0058677Y0166712D01*
X0058677Y0165714D02*
X0123603Y0165714D01*
X0123603Y0166490D02*
X0123603Y0160460D01*
X0124248Y0159816D01*
X0131065Y0159816D01*
X0131709Y0160460D01*
X0131709Y0166103D01*
X0133390Y0166103D01*
X0133790Y0165703D01*
X0135695Y0165703D01*
X0137043Y0167050D01*
X0137043Y0168955D01*
X0135695Y0170303D01*
X0133790Y0170303D01*
X0133390Y0169903D01*
X0128444Y0169903D01*
X0127331Y0168790D01*
X0125756Y0167215D01*
X0125756Y0167134D01*
X0124248Y0167134D01*
X0123603Y0166490D01*
X0123826Y0166712D02*
X0085312Y0166712D01*
X0085312Y0166386D02*
X0085312Y0169384D01*
X0084668Y0170028D01*
X0078520Y0170028D01*
X0077876Y0169384D01*
X0077876Y0166386D01*
X0078520Y0165741D01*
X0084668Y0165741D01*
X0085312Y0166386D01*
X0085312Y0167711D02*
X0126252Y0167711D01*
X0127250Y0168709D02*
X0085312Y0168709D01*
X0084988Y0169708D02*
X0128249Y0169708D01*
X0131709Y0165714D02*
X0133779Y0165714D01*
X0135067Y0164715D02*
X0131709Y0164715D01*
X0131709Y0163717D02*
X0134069Y0163717D01*
X0133562Y0163210D02*
X0133562Y0163210D01*
X0133070Y0162718D02*
X0131709Y0162718D01*
X0131709Y0161720D02*
X0132449Y0161720D01*
X0132449Y0160721D02*
X0131709Y0160721D01*
X0132449Y0159722D02*
X0084973Y0159722D01*
X0084668Y0160028D02*
X0085312Y0159384D01*
X0085312Y0156386D01*
X0084668Y0155741D01*
X0078520Y0155741D01*
X0077876Y0156386D01*
X0077876Y0159384D01*
X0078520Y0160028D01*
X0084668Y0160028D01*
X0084668Y0160741D02*
X0085312Y0161386D01*
X0085312Y0164384D01*
X0084668Y0165028D01*
X0078520Y0165028D01*
X0077876Y0164384D01*
X0077876Y0161386D01*
X0078520Y0160741D01*
X0084668Y0160741D01*
X0085312Y0161720D02*
X0123603Y0161720D01*
X0123603Y0162718D02*
X0085312Y0162718D01*
X0085312Y0163717D02*
X0123603Y0163717D01*
X0123603Y0164715D02*
X0084981Y0164715D01*
X0085312Y0158724D02*
X0112386Y0158724D01*
X0112842Y0159180D02*
X0109708Y0156046D01*
X0109708Y0151613D01*
X0112842Y0148480D01*
X0117274Y0148480D01*
X0120408Y0151613D01*
X0120408Y0156046D01*
X0117274Y0159180D01*
X0112842Y0159180D01*
X0111388Y0157725D02*
X0085312Y0157725D01*
X0085312Y0156727D02*
X0110389Y0156727D01*
X0109708Y0155728D02*
X0074679Y0155728D01*
X0074278Y0156130D02*
X0072933Y0156130D01*
X0073010Y0156262D01*
X0073112Y0156644D01*
X0073112Y0157863D01*
X0069016Y0157863D01*
X0069016Y0157906D01*
X0073112Y0157906D01*
X0073112Y0159125D01*
X0073010Y0159507D01*
X0072812Y0159849D01*
X0072533Y0160128D01*
X0072191Y0160326D01*
X0071810Y0160428D01*
X0069016Y0160428D01*
X0069016Y0157906D01*
X0068972Y0157906D01*
X0068972Y0157863D01*
X0064876Y0157863D01*
X0064876Y0156644D01*
X0064978Y0156262D01*
X0065176Y0155920D01*
X0065455Y0155641D01*
X0065797Y0155444D01*
X0066178Y0155341D01*
X0068972Y0155341D01*
X0068972Y0157863D01*
X0069016Y0157863D01*
X0069016Y0155341D01*
X0071585Y0155341D01*
X0071025Y0154782D01*
X0071025Y0152877D01*
X0072373Y0151530D01*
X0072938Y0151530D01*
X0075756Y0148712D01*
X0075756Y0141162D01*
X0075491Y0140897D01*
X0075225Y0141162D01*
X0075225Y0146349D01*
X0074112Y0147462D01*
X0069720Y0151854D01*
X0069720Y0152420D01*
X0068373Y0153767D01*
X0066467Y0153767D01*
X0065120Y0152420D01*
X0065120Y0150515D01*
X0066467Y0149167D01*
X0067033Y0149167D01*
X0071425Y0144775D01*
X0071425Y0141162D01*
X0071160Y0140897D01*
X0070895Y0141162D01*
X0070895Y0143987D01*
X0069782Y0145100D01*
X0069326Y0145555D01*
X0069326Y0146121D01*
X0067979Y0147468D01*
X0066074Y0147468D01*
X0064726Y0146121D01*
X0064726Y0144215D01*
X0066074Y0142868D01*
X0066639Y0142868D01*
X0067095Y0142413D01*
X0067095Y0141162D01*
X0066517Y0140584D01*
X0066517Y0134161D01*
X0067161Y0133517D01*
X0070828Y0133517D01*
X0071160Y0133849D01*
X0071492Y0133517D01*
X0075159Y0133517D01*
X0075491Y0133849D01*
X0075823Y0133517D01*
X0079490Y0133517D01*
X0079822Y0133849D01*
X0080153Y0133517D01*
X0083820Y0133517D01*
X0084152Y0133849D01*
X0084484Y0133517D01*
X0088151Y0133517D01*
X0088200Y0133566D01*
X0088349Y0133417D01*
X0088691Y0133219D01*
X0089073Y0133117D01*
X0090459Y0133117D01*
X0090459Y0137184D01*
X0090837Y0137184D01*
X0090837Y0133117D01*
X0092224Y0133117D01*
X0092605Y0133219D01*
X0092947Y0133417D01*
X0093096Y0133566D01*
X0093145Y0133517D01*
X0096813Y0133517D01*
X0097144Y0133849D01*
X0097476Y0133517D01*
X0101143Y0133517D01*
X0101475Y0133849D01*
X0101807Y0133517D01*
X0105474Y0133517D01*
X0106118Y0134161D01*
X0106118Y0134448D01*
X0108495Y0134448D01*
X0108495Y0138204D01*
X0106278Y0138204D01*
X0106118Y0138161D01*
X0106118Y0139841D01*
X0110327Y0144049D01*
X0110892Y0144049D01*
X0112240Y0145397D01*
X0112240Y0147302D01*
X0110892Y0148649D01*
X0108987Y0148649D01*
X0107640Y0147302D01*
X0107640Y0146736D01*
X0102853Y0141950D01*
X0102132Y0141229D01*
X0101807Y0141229D01*
X0101475Y0140897D01*
X0101210Y0141162D01*
X0101210Y0143815D01*
X0102397Y0145003D01*
X0102397Y0146908D01*
X0101050Y0148255D01*
X0099144Y0148255D01*
X0097797Y0146908D01*
X0097797Y0146343D01*
X0097410Y0145955D01*
X0097410Y0141162D01*
X0097144Y0140897D01*
X0096879Y0141162D01*
X0096879Y0144774D01*
X0096098Y0145555D01*
X0096098Y0146121D01*
X0094751Y0147468D01*
X0092845Y0147468D01*
X0091498Y0146121D01*
X0091498Y0144215D01*
X0092845Y0142868D01*
X0093079Y0142868D01*
X0093079Y0141197D01*
X0092947Y0141329D01*
X0092605Y0141527D01*
X0092224Y0141629D01*
X0090837Y0141629D01*
X0090837Y0137562D01*
X0090459Y0137562D01*
X0090459Y0141629D01*
X0089073Y0141629D01*
X0088691Y0141527D01*
X0088349Y0141329D01*
X0088218Y0141197D01*
X0088218Y0149499D01*
X0089460Y0150742D01*
X0090026Y0150742D01*
X0091373Y0152089D01*
X0091373Y0153995D01*
X0090026Y0155342D01*
X0088121Y0155342D01*
X0086773Y0153995D01*
X0086773Y0153429D01*
X0085813Y0152469D01*
X0084514Y0153767D01*
X0082609Y0153767D01*
X0081262Y0152420D01*
X0081262Y0151854D01*
X0080087Y0150680D01*
X0080087Y0141162D01*
X0079822Y0140897D01*
X0079556Y0141162D01*
X0079556Y0150286D01*
X0078443Y0151399D01*
X0075625Y0154217D01*
X0075625Y0154782D01*
X0074278Y0156130D01*
X0073112Y0156727D02*
X0077876Y0156727D01*
X0077876Y0157725D02*
X0073112Y0157725D01*
X0073112Y0158724D02*
X0077876Y0158724D01*
X0078215Y0159722D02*
X0072885Y0159722D01*
X0072712Y0161720D02*
X0077876Y0161720D01*
X0077876Y0162718D02*
X0072712Y0162718D01*
X0072712Y0163717D02*
X0077876Y0163717D01*
X0078207Y0164715D02*
X0072381Y0164715D01*
X0072712Y0166712D02*
X0077876Y0166712D01*
X0077876Y0167711D02*
X0072712Y0167711D01*
X0072712Y0168709D02*
X0077876Y0168709D01*
X0078200Y0169708D02*
X0072388Y0169708D01*
X0068972Y0160428D02*
X0066178Y0160428D01*
X0065797Y0160326D01*
X0065455Y0160128D01*
X0065176Y0159849D01*
X0064978Y0159507D01*
X0064876Y0159125D01*
X0064876Y0157906D01*
X0068972Y0157906D01*
X0068972Y0160428D01*
X0068972Y0159722D02*
X0069016Y0159722D01*
X0068972Y0158724D02*
X0069016Y0158724D01*
X0068972Y0157725D02*
X0069016Y0157725D01*
X0068972Y0156727D02*
X0069016Y0156727D01*
X0068972Y0155728D02*
X0069016Y0155728D01*
X0068409Y0153731D02*
X0071025Y0153731D01*
X0071025Y0154730D02*
X0045023Y0154730D01*
X0044123Y0153731D02*
X0066431Y0153731D01*
X0065433Y0152733D02*
X0044123Y0152733D01*
X0044123Y0151734D02*
X0065120Y0151734D01*
X0065120Y0150736D02*
X0044123Y0150736D01*
X0044123Y0149737D02*
X0065897Y0149737D01*
X0067461Y0148739D02*
X0044123Y0148739D01*
X0044123Y0147740D02*
X0068460Y0147740D01*
X0068705Y0146742D02*
X0069458Y0146742D01*
X0069326Y0145743D02*
X0070457Y0145743D01*
X0070137Y0144745D02*
X0071425Y0144745D01*
X0071425Y0143746D02*
X0070895Y0143746D01*
X0070895Y0142748D02*
X0071425Y0142748D01*
X0071425Y0141749D02*
X0070895Y0141749D01*
X0067095Y0141749D02*
X0044123Y0141749D01*
X0044123Y0140751D02*
X0066683Y0140751D01*
X0066517Y0139752D02*
X0044123Y0139752D01*
X0044123Y0138754D02*
X0066517Y0138754D01*
X0066517Y0137755D02*
X0054907Y0137755D01*
X0055038Y0137625D02*
X0054758Y0137904D01*
X0054416Y0138101D01*
X0054035Y0138204D01*
X0050499Y0138204D01*
X0050499Y0134448D01*
X0049499Y0134448D01*
X0049499Y0138204D01*
X0045963Y0138204D01*
X0045581Y0138101D01*
X0045239Y0137904D01*
X0044960Y0137625D01*
X0044762Y0137283D01*
X0044660Y0136901D01*
X0044660Y0134448D01*
X0049499Y0134448D01*
X0049499Y0133448D01*
X0050499Y0133448D01*
X0050499Y0134448D01*
X0055337Y0134448D01*
X0055337Y0136901D01*
X0055235Y0137283D01*
X0055038Y0137625D01*
X0055337Y0136757D02*
X0066517Y0136757D01*
X0066517Y0135758D02*
X0055337Y0135758D01*
X0055337Y0134760D02*
X0066517Y0134760D01*
X0066917Y0133761D02*
X0050499Y0133761D01*
X0050499Y0133448D02*
X0055337Y0133448D01*
X0055337Y0130994D01*
X0055235Y0130613D01*
X0055038Y0130271D01*
X0054758Y0129991D01*
X0054416Y0129794D01*
X0054035Y0129692D01*
X0050499Y0129692D01*
X0050499Y0133448D01*
X0050499Y0132763D02*
X0049499Y0132763D01*
X0049499Y0133448D02*
X0049499Y0129692D01*
X0045963Y0129692D01*
X0045581Y0129794D01*
X0045239Y0129991D01*
X0044960Y0130271D01*
X0044762Y0130613D01*
X0044660Y0130994D01*
X0044660Y0133448D01*
X0049499Y0133448D01*
X0049499Y0133761D02*
X0044123Y0133761D01*
X0044123Y0132763D02*
X0044660Y0132763D01*
X0044660Y0131764D02*
X0044123Y0131764D01*
X0044123Y0130766D02*
X0044721Y0130766D01*
X0044123Y0129767D02*
X0045681Y0129767D01*
X0044123Y0128769D02*
X0117582Y0128769D01*
X0117582Y0129668D02*
X0117582Y0125236D01*
X0120716Y0122102D01*
X0125148Y0122102D01*
X0127725Y0124678D01*
X0127725Y0123514D01*
X0119395Y0115185D01*
X0118829Y0115185D01*
X0117482Y0113837D01*
X0117482Y0111932D01*
X0118829Y0110585D01*
X0120735Y0110585D01*
X0122082Y0111932D01*
X0122082Y0112498D01*
X0130412Y0120827D01*
X0131525Y0121940D01*
X0131525Y0132176D01*
X0129556Y0134144D01*
X0129556Y0135800D01*
X0131065Y0135800D01*
X0131709Y0136445D01*
X0131709Y0142474D01*
X0131065Y0143118D01*
X0124248Y0143118D01*
X0123603Y0142474D01*
X0123603Y0136445D01*
X0124248Y0135800D01*
X0125756Y0135800D01*
X0125756Y0132570D01*
X0126869Y0131457D01*
X0127725Y0130602D01*
X0127725Y0130225D01*
X0125148Y0132802D01*
X0120716Y0132802D01*
X0117582Y0129668D01*
X0117681Y0129767D02*
X0111993Y0129767D01*
X0112093Y0129794D02*
X0112435Y0129991D01*
X0112715Y0130271D01*
X0112912Y0130613D01*
X0113014Y0130994D01*
X0113014Y0133448D01*
X0109495Y0133448D01*
X0109495Y0134448D01*
X0108495Y0134448D01*
X0108495Y0133448D01*
X0104975Y0133448D01*
X0104975Y0130994D01*
X0105077Y0130613D01*
X0105275Y0130271D01*
X0105554Y0129991D01*
X0105896Y0129794D01*
X0106278Y0129692D01*
X0108495Y0129692D01*
X0108495Y0133448D01*
X0109495Y0133448D01*
X0109495Y0129692D01*
X0111712Y0129692D01*
X0112093Y0129794D01*
X0112953Y0130766D02*
X0118680Y0130766D01*
X0119678Y0131764D02*
X0113014Y0131764D01*
X0113014Y0132763D02*
X0120677Y0132763D01*
X0123603Y0136757D02*
X0113014Y0136757D01*
X0113014Y0136901D02*
X0112912Y0137283D01*
X0112715Y0137625D01*
X0112435Y0137904D01*
X0112093Y0138101D01*
X0111712Y0138204D01*
X0109495Y0138204D01*
X0109495Y0134448D01*
X0113014Y0134448D01*
X0113014Y0136901D01*
X0112584Y0137755D02*
X0123603Y0137755D01*
X0123603Y0138754D02*
X0106118Y0138754D01*
X0106118Y0139752D02*
X0123603Y0139752D01*
X0123603Y0140751D02*
X0107028Y0140751D01*
X0108027Y0141749D02*
X0123603Y0141749D01*
X0123877Y0142748D02*
X0109025Y0142748D01*
X0110024Y0143746D02*
X0123782Y0143746D01*
X0123603Y0143925D02*
X0124248Y0143281D01*
X0131065Y0143281D01*
X0131709Y0143925D01*
X0131709Y0149954D01*
X0131065Y0150599D01*
X0129556Y0150599D01*
X0129556Y0152336D01*
X0131065Y0152336D01*
X0131709Y0152980D01*
X0131709Y0159010D01*
X0131065Y0159654D01*
X0124248Y0159654D01*
X0123603Y0159010D01*
X0123603Y0152980D01*
X0124248Y0152336D01*
X0125756Y0152336D01*
X0125756Y0150599D01*
X0124248Y0150599D01*
X0123603Y0149954D01*
X0123603Y0143925D01*
X0123603Y0144745D02*
X0111588Y0144745D01*
X0112240Y0145743D02*
X0123603Y0145743D01*
X0123603Y0146742D02*
X0112240Y0146742D01*
X0111801Y0147740D02*
X0123603Y0147740D01*
X0123603Y0148739D02*
X0117533Y0148739D01*
X0118532Y0149737D02*
X0123603Y0149737D01*
X0125756Y0150736D02*
X0119530Y0150736D01*
X0120408Y0151734D02*
X0125756Y0151734D01*
X0123851Y0152733D02*
X0120408Y0152733D01*
X0120408Y0153731D02*
X0123603Y0153731D01*
X0123603Y0154730D02*
X0120408Y0154730D01*
X0120408Y0155728D02*
X0123603Y0155728D01*
X0123603Y0156727D02*
X0119726Y0156727D01*
X0118728Y0157725D02*
X0123603Y0157725D01*
X0123603Y0158724D02*
X0117729Y0158724D01*
X0123603Y0160721D02*
X0058677Y0160721D01*
X0057115Y0159722D02*
X0065103Y0159722D01*
X0064876Y0158724D02*
X0056497Y0158724D01*
X0055499Y0157725D02*
X0064876Y0157725D01*
X0064876Y0156727D02*
X0054500Y0156727D01*
X0046022Y0155728D02*
X0065367Y0155728D01*
X0069407Y0152733D02*
X0071169Y0152733D01*
X0072168Y0151734D02*
X0069840Y0151734D01*
X0070838Y0150736D02*
X0073732Y0150736D01*
X0074731Y0149737D02*
X0071837Y0149737D01*
X0072835Y0148739D02*
X0075729Y0148739D01*
X0075756Y0147740D02*
X0073834Y0147740D01*
X0074832Y0146742D02*
X0075756Y0146742D01*
X0075756Y0145743D02*
X0075225Y0145743D01*
X0075225Y0144745D02*
X0075756Y0144745D01*
X0075756Y0143746D02*
X0075225Y0143746D01*
X0075225Y0142748D02*
X0075756Y0142748D01*
X0075756Y0141749D02*
X0075225Y0141749D01*
X0079556Y0141749D02*
X0080087Y0141749D01*
X0080087Y0142748D02*
X0079556Y0142748D01*
X0079556Y0143746D02*
X0080087Y0143746D01*
X0080087Y0144745D02*
X0079556Y0144745D01*
X0079556Y0145743D02*
X0080087Y0145743D01*
X0080087Y0146742D02*
X0079556Y0146742D01*
X0079556Y0147740D02*
X0080087Y0147740D01*
X0080087Y0148739D02*
X0079556Y0148739D01*
X0079556Y0149737D02*
X0080087Y0149737D01*
X0080143Y0150736D02*
X0079106Y0150736D01*
X0078108Y0151734D02*
X0081142Y0151734D01*
X0081575Y0152733D02*
X0077109Y0152733D01*
X0076111Y0153731D02*
X0082573Y0153731D01*
X0084550Y0153731D02*
X0086773Y0153731D01*
X0086077Y0152733D02*
X0085549Y0152733D01*
X0087509Y0154730D02*
X0075625Y0154730D01*
X0083887Y0149106D02*
X0083949Y0149167D01*
X0084418Y0149167D01*
X0084418Y0141162D01*
X0084152Y0140897D01*
X0083887Y0141162D01*
X0083887Y0149106D01*
X0083887Y0148739D02*
X0084418Y0148739D01*
X0084418Y0147740D02*
X0083887Y0147740D01*
X0083887Y0146742D02*
X0084418Y0146742D01*
X0084418Y0145743D02*
X0083887Y0145743D01*
X0083887Y0144745D02*
X0084418Y0144745D01*
X0084418Y0143746D02*
X0083887Y0143746D01*
X0083887Y0142748D02*
X0084418Y0142748D01*
X0084418Y0141749D02*
X0083887Y0141749D01*
X0088218Y0141749D02*
X0093079Y0141749D01*
X0093079Y0142748D02*
X0088218Y0142748D01*
X0088218Y0143746D02*
X0091967Y0143746D01*
X0091498Y0144745D02*
X0088218Y0144745D01*
X0088218Y0145743D02*
X0091498Y0145743D01*
X0092119Y0146742D02*
X0088218Y0146742D01*
X0088218Y0147740D02*
X0098629Y0147740D01*
X0097797Y0146742D02*
X0095477Y0146742D01*
X0096098Y0145743D02*
X0097410Y0145743D01*
X0097410Y0144745D02*
X0096879Y0144745D01*
X0096879Y0143746D02*
X0097410Y0143746D01*
X0097410Y0142748D02*
X0096879Y0142748D01*
X0096879Y0141749D02*
X0097410Y0141749D01*
X0101210Y0141749D02*
X0102653Y0141749D01*
X0103651Y0142748D02*
X0101210Y0142748D01*
X0101210Y0143746D02*
X0104650Y0143746D01*
X0105648Y0144745D02*
X0102139Y0144745D01*
X0102397Y0145743D02*
X0106647Y0145743D01*
X0107640Y0146742D02*
X0102397Y0146742D01*
X0101565Y0147740D02*
X0108078Y0147740D01*
X0110585Y0150736D02*
X0089454Y0150736D01*
X0088456Y0149737D02*
X0111584Y0149737D01*
X0112582Y0148739D02*
X0088218Y0148739D01*
X0091018Y0151734D02*
X0109708Y0151734D01*
X0109708Y0152733D02*
X0091373Y0152733D01*
X0091373Y0153731D02*
X0109708Y0153731D01*
X0109708Y0154730D02*
X0090638Y0154730D01*
X0090459Y0140751D02*
X0090837Y0140751D01*
X0090837Y0139752D02*
X0090459Y0139752D01*
X0090459Y0138754D02*
X0090837Y0138754D01*
X0090837Y0137755D02*
X0090459Y0137755D01*
X0090459Y0136757D02*
X0090837Y0136757D01*
X0090837Y0135758D02*
X0090459Y0135758D01*
X0090459Y0134760D02*
X0090837Y0134760D01*
X0090837Y0133761D02*
X0090459Y0133761D01*
X0097057Y0133761D02*
X0097232Y0133761D01*
X0101388Y0133761D02*
X0101563Y0133761D01*
X0104975Y0132763D02*
X0055337Y0132763D01*
X0055337Y0131764D02*
X0104975Y0131764D01*
X0105036Y0130766D02*
X0055276Y0130766D01*
X0054316Y0129767D02*
X0105996Y0129767D01*
X0108495Y0129767D02*
X0109495Y0129767D01*
X0109495Y0130766D02*
X0108495Y0130766D01*
X0108495Y0131764D02*
X0109495Y0131764D01*
X0109495Y0132763D02*
X0108495Y0132763D01*
X0108495Y0133761D02*
X0105718Y0133761D01*
X0108495Y0134760D02*
X0109495Y0134760D01*
X0109495Y0135758D02*
X0108495Y0135758D01*
X0108495Y0136757D02*
X0109495Y0136757D01*
X0109495Y0137755D02*
X0108495Y0137755D01*
X0109495Y0133761D02*
X0125756Y0133761D01*
X0125756Y0132763D02*
X0125187Y0132763D01*
X0126185Y0131764D02*
X0126562Y0131764D01*
X0127184Y0130766D02*
X0127561Y0130766D01*
X0129939Y0133761D02*
X0132449Y0133761D01*
X0132449Y0132763D02*
X0130938Y0132763D01*
X0131525Y0131764D02*
X0132449Y0131764D01*
X0132449Y0130766D02*
X0131525Y0130766D01*
X0131525Y0129767D02*
X0132449Y0129767D01*
X0132449Y0128769D02*
X0131525Y0128769D01*
X0131525Y0127770D02*
X0132449Y0127770D01*
X0132449Y0126772D02*
X0131525Y0126772D01*
X0131525Y0125773D02*
X0132449Y0125773D01*
X0132449Y0124775D02*
X0131525Y0124775D01*
X0131525Y0123776D02*
X0132449Y0123776D01*
X0133186Y0122778D02*
X0131525Y0122778D01*
X0131364Y0121779D02*
X0134185Y0121779D01*
X0135184Y0120781D02*
X0130365Y0120781D01*
X0129367Y0119782D02*
X0136182Y0119782D01*
X0137181Y0118784D02*
X0128368Y0118784D01*
X0127370Y0117785D02*
X0138179Y0117785D01*
X0139178Y0116787D02*
X0126371Y0116787D01*
X0125372Y0115788D02*
X0140176Y0115788D01*
X0141110Y0114789D02*
X0124374Y0114789D01*
X0123375Y0113791D02*
X0141110Y0113791D01*
X0141110Y0112792D02*
X0122377Y0112792D01*
X0121944Y0111794D02*
X0141110Y0111794D01*
X0141110Y0110795D02*
X0120946Y0110795D01*
X0118619Y0110795D02*
X0103271Y0110795D01*
X0103483Y0111307D02*
X0102728Y0109484D01*
X0101332Y0108089D01*
X0099509Y0107333D01*
X0097536Y0107333D01*
X0095712Y0108089D01*
X0094317Y0109484D01*
X0093562Y0111307D01*
X0093562Y0113281D01*
X0094317Y0115104D01*
X0095712Y0116500D01*
X0097536Y0117255D01*
X0099509Y0117255D01*
X0101332Y0116500D01*
X0102728Y0115104D01*
X0103483Y0113281D01*
X0103483Y0111307D01*
X0103483Y0111794D02*
X0117620Y0111794D01*
X0117482Y0112792D02*
X0103483Y0112792D01*
X0103272Y0113791D02*
X0117482Y0113791D01*
X0118434Y0114789D02*
X0102858Y0114789D01*
X0102044Y0115788D02*
X0119998Y0115788D01*
X0120997Y0116787D02*
X0100639Y0116787D01*
X0096405Y0116787D02*
X0069143Y0116787D01*
X0069836Y0116500D02*
X0068013Y0117255D01*
X0066040Y0117255D01*
X0064216Y0116500D01*
X0062821Y0115104D01*
X0062066Y0113281D01*
X0062066Y0111307D01*
X0062821Y0109484D01*
X0064216Y0108089D01*
X0066040Y0107333D01*
X0068013Y0107333D01*
X0069836Y0108089D01*
X0071232Y0109484D01*
X0071987Y0111307D01*
X0071987Y0113281D01*
X0071232Y0115104D01*
X0069836Y0116500D01*
X0070548Y0115788D02*
X0095001Y0115788D01*
X0094187Y0114789D02*
X0071362Y0114789D01*
X0071776Y0113791D02*
X0093773Y0113791D01*
X0093562Y0112792D02*
X0071987Y0112792D01*
X0071987Y0111794D02*
X0093562Y0111794D01*
X0093774Y0110795D02*
X0071775Y0110795D01*
X0071361Y0109797D02*
X0094187Y0109797D01*
X0095003Y0108798D02*
X0070546Y0108798D01*
X0069139Y0107800D02*
X0096409Y0107800D01*
X0100635Y0107800D02*
X0123597Y0107800D01*
X0123597Y0106801D02*
X0038958Y0106801D01*
X0038871Y0107011D02*
X0039398Y0105739D01*
X0039398Y0104361D01*
X0038871Y0103089D01*
X0037897Y0102115D01*
X0036624Y0101588D01*
X0035247Y0101588D01*
X0033975Y0102115D01*
X0033001Y0103089D01*
X0032473Y0104361D01*
X0032473Y0105739D01*
X0033001Y0107011D01*
X0033975Y0107985D01*
X0035247Y0108512D01*
X0036624Y0108512D01*
X0037897Y0107985D01*
X0038871Y0107011D01*
X0038082Y0107800D02*
X0064913Y0107800D01*
X0063507Y0108798D02*
X0026908Y0108798D01*
X0026908Y0109797D02*
X0062691Y0109797D01*
X0062278Y0110795D02*
X0026908Y0110795D01*
X0027122Y0111794D02*
X0035749Y0111794D01*
X0034297Y0112792D02*
X0028574Y0112792D01*
X0029162Y0113791D02*
X0033710Y0113791D01*
X0033473Y0114789D02*
X0029398Y0114789D01*
X0029377Y0115788D02*
X0033494Y0115788D01*
X0033908Y0116787D02*
X0030359Y0116787D01*
X0031358Y0117785D02*
X0034774Y0117785D01*
X0033312Y0122778D02*
X0029560Y0122778D01*
X0029978Y0121779D02*
X0028086Y0121779D01*
X0028979Y0120781D02*
X0026908Y0120781D01*
X0026908Y0119782D02*
X0027981Y0119782D01*
X0026982Y0118784D02*
X0026908Y0118784D01*
X0030155Y0123776D02*
X0032716Y0123776D01*
X0032473Y0124775D02*
X0030398Y0124775D01*
X0030384Y0125773D02*
X0032488Y0125773D01*
X0032901Y0126772D02*
X0029970Y0126772D01*
X0029112Y0127770D02*
X0033760Y0127770D01*
X0038112Y0127770D02*
X0040323Y0127770D01*
X0040323Y0126772D02*
X0038970Y0126772D01*
X0039384Y0125773D02*
X0040323Y0125773D01*
X0040323Y0124775D02*
X0039398Y0124775D01*
X0039155Y0123776D02*
X0040191Y0123776D01*
X0039193Y0122778D02*
X0038560Y0122778D01*
X0041571Y0119782D02*
X0123993Y0119782D01*
X0124991Y0120781D02*
X0042570Y0120781D01*
X0043568Y0121779D02*
X0125990Y0121779D01*
X0125824Y0122778D02*
X0126988Y0122778D01*
X0126822Y0123776D02*
X0127725Y0123776D01*
X0122994Y0118784D02*
X0040573Y0118784D01*
X0039097Y0117785D02*
X0121996Y0117785D01*
X0120040Y0122778D02*
X0044123Y0122778D01*
X0044123Y0123776D02*
X0119041Y0123776D01*
X0118043Y0124775D02*
X0044123Y0124775D01*
X0044123Y0125773D02*
X0117582Y0125773D01*
X0117582Y0126772D02*
X0044123Y0126772D01*
X0044123Y0127770D02*
X0117582Y0127770D01*
X0113014Y0134760D02*
X0125756Y0134760D01*
X0125756Y0135758D02*
X0113014Y0135758D01*
X0129556Y0135758D02*
X0132449Y0135758D01*
X0132449Y0134760D02*
X0129556Y0134760D01*
X0131709Y0136757D02*
X0132449Y0136757D01*
X0132449Y0137755D02*
X0131709Y0137755D01*
X0131709Y0138754D02*
X0132449Y0138754D01*
X0132449Y0139752D02*
X0131709Y0139752D01*
X0131709Y0140751D02*
X0132449Y0140751D01*
X0132449Y0141749D02*
X0131709Y0141749D01*
X0131435Y0142748D02*
X0132449Y0142748D01*
X0132449Y0143746D02*
X0131530Y0143746D01*
X0131709Y0144745D02*
X0132449Y0144745D01*
X0132449Y0145743D02*
X0131709Y0145743D01*
X0131709Y0146742D02*
X0132449Y0146742D01*
X0132449Y0147740D02*
X0131709Y0147740D01*
X0131709Y0148739D02*
X0132449Y0148739D01*
X0132449Y0149737D02*
X0131709Y0149737D01*
X0132449Y0150736D02*
X0129556Y0150736D01*
X0129556Y0151734D02*
X0132449Y0151734D01*
X0132449Y0152733D02*
X0131462Y0152733D01*
X0131709Y0153731D02*
X0132449Y0153731D01*
X0132449Y0154730D02*
X0131709Y0154730D01*
X0131709Y0155728D02*
X0132449Y0155728D01*
X0132449Y0156727D02*
X0131709Y0156727D01*
X0131709Y0157725D02*
X0132449Y0157725D01*
X0132449Y0158724D02*
X0131709Y0158724D01*
X0136249Y0158724D02*
X0136989Y0158724D01*
X0136989Y0159722D02*
X0136249Y0159722D01*
X0136447Y0160721D02*
X0136989Y0160721D01*
X0137446Y0161720D02*
X0139142Y0161720D01*
X0139142Y0162718D02*
X0138444Y0162718D01*
X0139443Y0163717D02*
X0139974Y0163717D01*
X0140441Y0164715D02*
X0140973Y0164715D01*
X0141440Y0165714D02*
X0141971Y0165714D01*
X0142438Y0166712D02*
X0142970Y0166712D01*
X0143437Y0167711D02*
X0143968Y0167711D01*
X0144435Y0168709D02*
X0144967Y0168709D01*
X0145434Y0169708D02*
X0145965Y0169708D01*
X0146432Y0170706D02*
X0146964Y0170706D01*
X0147431Y0171705D02*
X0147962Y0171705D01*
X0148429Y0172703D02*
X0148961Y0172703D01*
X0149428Y0173702D02*
X0149959Y0173702D01*
X0150426Y0174700D02*
X0150958Y0174700D01*
X0151425Y0175699D02*
X0151956Y0175699D01*
X0152423Y0176697D02*
X0152955Y0176697D01*
X0153422Y0177696D02*
X0153953Y0177696D01*
X0154420Y0178694D02*
X0154952Y0178694D01*
X0155419Y0179693D02*
X0155950Y0179693D01*
X0156417Y0180691D02*
X0156949Y0180691D01*
X0157416Y0181690D02*
X0157947Y0181690D01*
X0158414Y0182688D02*
X0163401Y0182688D01*
X0162753Y0183687D02*
X0159413Y0183687D01*
X0160411Y0184685D02*
X0162473Y0184685D01*
X0162473Y0185684D02*
X0161410Y0185684D01*
X0162409Y0186682D02*
X0162864Y0186682D01*
X0163407Y0187681D02*
X0163670Y0187681D01*
X0168126Y0187756D02*
X0171329Y0187756D01*
X0175186Y0191613D01*
X0175247Y0191588D01*
X0176624Y0191588D01*
X0176908Y0191705D01*
X0176908Y0188512D01*
X0176247Y0188512D01*
X0174975Y0187985D01*
X0174001Y0187011D01*
X0173473Y0185739D01*
X0173473Y0184361D01*
X0173499Y0184300D01*
X0171306Y0182107D01*
X0167879Y0182107D01*
X0167897Y0182115D01*
X0168871Y0183089D01*
X0169398Y0184361D01*
X0169398Y0185739D01*
X0168871Y0187011D01*
X0168126Y0187756D01*
X0168201Y0187681D02*
X0174670Y0187681D01*
X0173864Y0186682D02*
X0169007Y0186682D01*
X0169398Y0185684D02*
X0173473Y0185684D01*
X0173473Y0184685D02*
X0169398Y0184685D01*
X0169118Y0183687D02*
X0172885Y0183687D01*
X0171887Y0182688D02*
X0168470Y0182688D01*
X0169186Y0177696D02*
X0173119Y0177696D01*
X0172936Y0177512D02*
X0172513Y0176879D01*
X0172222Y0176177D01*
X0172073Y0175430D01*
X0172073Y0175337D01*
X0175648Y0175337D01*
X0175648Y0178912D01*
X0175555Y0178912D01*
X0174809Y0178764D01*
X0174106Y0178473D01*
X0173474Y0178050D01*
X0172936Y0177512D01*
X0172438Y0176697D02*
X0170001Y0176697D01*
X0170398Y0175699D02*
X0172127Y0175699D01*
X0172073Y0174700D02*
X0170398Y0174700D01*
X0170125Y0173702D02*
X0172314Y0173702D01*
X0172859Y0172703D02*
X0169485Y0172703D01*
X0167906Y0171705D02*
X0173991Y0171705D01*
X0175648Y0171705D02*
X0176223Y0171705D01*
X0176223Y0172703D02*
X0175648Y0172703D01*
X0175648Y0173702D02*
X0176223Y0173702D01*
X0176223Y0174700D02*
X0175648Y0174700D01*
X0175648Y0175699D02*
X0176223Y0175699D01*
X0176223Y0176697D02*
X0175648Y0176697D01*
X0175648Y0177696D02*
X0176223Y0177696D01*
X0176223Y0178694D02*
X0175648Y0178694D01*
X0174641Y0178694D02*
X0173267Y0178694D01*
X0174265Y0179693D02*
X0176908Y0179693D01*
X0176908Y0180691D02*
X0175264Y0180691D01*
X0176908Y0188679D02*
X0172252Y0188679D01*
X0173251Y0189678D02*
X0176908Y0189678D01*
X0176908Y0190676D02*
X0174249Y0190676D01*
X0176835Y0191675D02*
X0176908Y0191675D01*
X0172499Y0194300D02*
X0170798Y0192599D01*
X0170798Y0194763D01*
X0167223Y0194763D01*
X0167223Y0195337D01*
X0170798Y0195337D01*
X0170798Y0195725D01*
X0172473Y0195725D01*
X0172473Y0194361D01*
X0172499Y0194300D01*
X0172473Y0194670D02*
X0170798Y0194670D01*
X0170798Y0193672D02*
X0171871Y0193672D01*
X0170872Y0192673D02*
X0170798Y0192673D01*
X0170798Y0195669D02*
X0172473Y0195669D01*
X0163073Y0195669D02*
X0150078Y0195669D01*
X0150569Y0194670D02*
X0163073Y0194670D01*
X0163073Y0193672D02*
X0150814Y0193672D01*
X0149046Y0178694D02*
X0026908Y0178694D01*
X0028186Y0177696D02*
X0034685Y0177696D01*
X0033871Y0176697D02*
X0029001Y0176697D01*
X0029398Y0175699D02*
X0033473Y0175699D01*
X0033473Y0174700D02*
X0029398Y0174700D01*
X0029971Y0173702D02*
X0033747Y0173702D01*
X0034386Y0172703D02*
X0030970Y0172703D01*
X0028591Y0169708D02*
X0026908Y0169708D01*
X0026908Y0170706D02*
X0027593Y0170706D01*
X0026908Y0168709D02*
X0029590Y0168709D01*
X0029171Y0167711D02*
X0033700Y0167711D01*
X0032877Y0166712D02*
X0029995Y0166712D01*
X0030398Y0165714D02*
X0032473Y0165714D01*
X0032473Y0164715D02*
X0030398Y0164715D01*
X0030131Y0163717D02*
X0032741Y0163717D01*
X0033371Y0162718D02*
X0029500Y0162718D01*
X0027942Y0161720D02*
X0034929Y0161720D01*
X0034715Y0157725D02*
X0028156Y0157725D01*
X0028989Y0156727D02*
X0033883Y0156727D01*
X0033473Y0155728D02*
X0029398Y0155728D01*
X0029398Y0154730D02*
X0033473Y0154730D01*
X0033734Y0153731D02*
X0029137Y0153731D01*
X0028515Y0152733D02*
X0034356Y0152733D01*
X0035893Y0151734D02*
X0026978Y0151734D01*
X0026908Y0150736D02*
X0040323Y0150736D01*
X0040323Y0151734D02*
X0037978Y0151734D01*
X0039515Y0152733D02*
X0040323Y0152733D01*
X0040323Y0153731D02*
X0040137Y0153731D01*
X0040398Y0155728D02*
X0040648Y0155728D01*
X0039989Y0156727D02*
X0041646Y0156727D01*
X0042645Y0157725D02*
X0039156Y0157725D01*
X0043643Y0158724D02*
X0026908Y0158724D01*
X0026908Y0149737D02*
X0040323Y0149737D01*
X0040323Y0148739D02*
X0037122Y0148739D01*
X0037062Y0148764D02*
X0036316Y0148912D01*
X0036223Y0148912D01*
X0036223Y0145337D01*
X0039798Y0145337D01*
X0039798Y0145430D01*
X0039649Y0146177D01*
X0039358Y0146879D01*
X0038936Y0147512D01*
X0038398Y0148050D01*
X0037765Y0148473D01*
X0037062Y0148764D01*
X0036223Y0148739D02*
X0035648Y0148739D01*
X0035648Y0148912D02*
X0035555Y0148912D01*
X0034809Y0148764D01*
X0034106Y0148473D01*
X0033474Y0148050D01*
X0032936Y0147512D01*
X0032513Y0146879D01*
X0032222Y0146177D01*
X0032073Y0145430D01*
X0032073Y0145337D01*
X0035648Y0145337D01*
X0035648Y0144763D01*
X0032073Y0144763D01*
X0032073Y0144670D01*
X0032222Y0143923D01*
X0032513Y0143221D01*
X0032936Y0142588D01*
X0033474Y0142050D01*
X0034106Y0141627D01*
X0034809Y0141336D01*
X0035555Y0141188D01*
X0035648Y0141188D01*
X0035648Y0144763D01*
X0036223Y0144763D01*
X0036223Y0145337D01*
X0035648Y0145337D01*
X0035648Y0148912D01*
X0034749Y0148739D02*
X0026908Y0148739D01*
X0029142Y0147740D02*
X0033164Y0147740D01*
X0032456Y0146742D02*
X0029982Y0146742D01*
X0030396Y0145743D02*
X0032136Y0145743D01*
X0032073Y0144745D02*
X0030398Y0144745D01*
X0030143Y0143746D02*
X0032295Y0143746D01*
X0032829Y0142748D02*
X0029530Y0142748D01*
X0028014Y0141749D02*
X0033924Y0141749D01*
X0035648Y0141749D02*
X0036223Y0141749D01*
X0036223Y0141188D02*
X0036316Y0141188D01*
X0037062Y0141336D01*
X0037765Y0141627D01*
X0038398Y0142050D01*
X0038936Y0142588D01*
X0039358Y0143221D01*
X0039649Y0143923D01*
X0039798Y0144670D01*
X0039798Y0144763D01*
X0036223Y0144763D01*
X0036223Y0141188D01*
X0036223Y0142748D02*
X0035648Y0142748D01*
X0035648Y0143746D02*
X0036223Y0143746D01*
X0036223Y0144745D02*
X0035648Y0144745D01*
X0035648Y0145743D02*
X0036223Y0145743D01*
X0036223Y0146742D02*
X0035648Y0146742D01*
X0035648Y0147740D02*
X0036223Y0147740D01*
X0038707Y0147740D02*
X0040323Y0147740D01*
X0040323Y0146742D02*
X0039415Y0146742D01*
X0039736Y0145743D02*
X0040323Y0145743D01*
X0040323Y0144745D02*
X0039798Y0144745D01*
X0039576Y0143746D02*
X0040323Y0143746D01*
X0040323Y0142748D02*
X0039042Y0142748D01*
X0037948Y0141749D02*
X0040323Y0141749D01*
X0040323Y0140751D02*
X0026908Y0140751D01*
X0026908Y0139752D02*
X0040323Y0139752D01*
X0040323Y0138754D02*
X0026908Y0138754D01*
X0028127Y0137755D02*
X0034745Y0137755D01*
X0033895Y0136757D02*
X0028976Y0136757D01*
X0029390Y0135758D02*
X0033482Y0135758D01*
X0033473Y0134760D02*
X0029398Y0134760D01*
X0029149Y0133761D02*
X0033722Y0133761D01*
X0034327Y0132763D02*
X0028545Y0132763D01*
X0027050Y0131764D02*
X0035821Y0131764D01*
X0038050Y0131764D02*
X0040323Y0131764D01*
X0040323Y0130766D02*
X0026908Y0130766D01*
X0026908Y0129767D02*
X0040323Y0129767D01*
X0040323Y0128769D02*
X0026908Y0128769D01*
X0039545Y0132763D02*
X0040323Y0132763D01*
X0040323Y0133761D02*
X0040149Y0133761D01*
X0039976Y0136757D02*
X0040323Y0136757D01*
X0040323Y0137755D02*
X0039127Y0137755D01*
X0044123Y0137755D02*
X0045090Y0137755D01*
X0044660Y0136757D02*
X0044123Y0136757D01*
X0044123Y0135758D02*
X0044660Y0135758D01*
X0044660Y0134760D02*
X0044123Y0134760D01*
X0049499Y0134760D02*
X0050499Y0134760D01*
X0050499Y0135758D02*
X0049499Y0135758D01*
X0049499Y0136757D02*
X0050499Y0136757D01*
X0050499Y0137755D02*
X0049499Y0137755D01*
X0049499Y0131764D02*
X0050499Y0131764D01*
X0050499Y0130766D02*
X0049499Y0130766D01*
X0049499Y0129767D02*
X0050499Y0129767D01*
X0044123Y0142748D02*
X0066760Y0142748D01*
X0065195Y0143746D02*
X0044123Y0143746D01*
X0044123Y0144745D02*
X0064726Y0144745D01*
X0064726Y0145743D02*
X0044123Y0145743D01*
X0044123Y0146742D02*
X0065347Y0146742D01*
X0071073Y0133761D02*
X0071248Y0133761D01*
X0075403Y0133761D02*
X0075578Y0133761D01*
X0079734Y0133761D02*
X0079909Y0133761D01*
X0084065Y0133761D02*
X0084240Y0133761D01*
X0064909Y0116787D02*
X0039964Y0116787D01*
X0040377Y0115788D02*
X0063505Y0115788D01*
X0062691Y0114789D02*
X0040398Y0114789D01*
X0040162Y0113791D02*
X0062277Y0113791D01*
X0062066Y0112792D02*
X0039574Y0112792D01*
X0038122Y0111794D02*
X0062066Y0111794D01*
X0064465Y0099538D02*
X0062641Y0098783D01*
X0061246Y0097388D01*
X0060491Y0095564D01*
X0060491Y0093591D01*
X0061246Y0091768D01*
X0062641Y0090372D01*
X0064465Y0089617D01*
X0066438Y0089617D01*
X0068261Y0090372D01*
X0069657Y0091768D01*
X0070412Y0093591D01*
X0070412Y0095564D01*
X0069657Y0097388D01*
X0068261Y0098783D01*
X0066438Y0099538D01*
X0064465Y0099538D01*
X0062715Y0098813D02*
X0050810Y0098813D01*
X0050810Y0097815D02*
X0061673Y0097815D01*
X0061009Y0096816D02*
X0050810Y0096816D01*
X0050810Y0096652D02*
X0050810Y0100287D01*
X0050707Y0100668D01*
X0050510Y0101010D01*
X0050231Y0101290D01*
X0049889Y0101487D01*
X0049507Y0101589D01*
X0047054Y0101589D01*
X0047054Y0096652D01*
X0050810Y0096652D01*
X0050810Y0095652D02*
X0047054Y0095652D01*
X0047054Y0090715D01*
X0049507Y0090715D01*
X0049889Y0090818D01*
X0050231Y0091015D01*
X0050510Y0091294D01*
X0050707Y0091636D01*
X0050810Y0092018D01*
X0050810Y0095652D01*
X0050810Y0094819D02*
X0060491Y0094819D01*
X0060491Y0093821D02*
X0050810Y0093821D01*
X0050810Y0092822D02*
X0060809Y0092822D01*
X0061223Y0091824D02*
X0050758Y0091824D01*
X0049902Y0090825D02*
X0062188Y0090825D01*
X0063958Y0089827D02*
X0026908Y0089827D01*
X0026908Y0090825D02*
X0043206Y0090825D01*
X0043219Y0090818D02*
X0043600Y0090715D01*
X0046054Y0090715D01*
X0046054Y0095652D01*
X0047054Y0095652D01*
X0047054Y0096652D01*
X0046054Y0096652D01*
X0046054Y0095652D01*
X0042298Y0095652D01*
X0042298Y0092018D01*
X0042400Y0091636D01*
X0042598Y0091294D01*
X0042877Y0091015D01*
X0043219Y0090818D01*
X0042350Y0091824D02*
X0038194Y0091824D01*
X0037624Y0091588D02*
X0038897Y0092115D01*
X0039871Y0093089D01*
X0040398Y0094361D01*
X0040398Y0095739D01*
X0039871Y0097011D01*
X0038897Y0097985D01*
X0037624Y0098512D01*
X0036247Y0098512D01*
X0034975Y0097985D01*
X0034001Y0097011D01*
X0033473Y0095739D01*
X0033473Y0094361D01*
X0034001Y0093089D01*
X0034975Y0092115D01*
X0036247Y0091588D01*
X0037624Y0091588D01*
X0035677Y0091824D02*
X0027194Y0091824D01*
X0028604Y0092822D02*
X0034267Y0092822D01*
X0033697Y0093821D02*
X0029174Y0093821D01*
X0029398Y0094819D02*
X0033473Y0094819D01*
X0033506Y0095818D02*
X0029365Y0095818D01*
X0028952Y0096816D02*
X0033920Y0096816D01*
X0034804Y0097815D02*
X0028067Y0097815D01*
X0026908Y0098813D02*
X0042298Y0098813D01*
X0042298Y0097815D02*
X0039067Y0097815D01*
X0039952Y0096816D02*
X0042298Y0096816D01*
X0042298Y0096652D02*
X0046054Y0096652D01*
X0046054Y0101589D01*
X0043600Y0101589D01*
X0043219Y0101487D01*
X0042877Y0101290D01*
X0042598Y0101010D01*
X0042400Y0100668D01*
X0042298Y0100287D01*
X0042298Y0096652D01*
X0042298Y0094819D02*
X0040398Y0094819D01*
X0040365Y0095818D02*
X0046054Y0095818D01*
X0046054Y0096816D02*
X0047054Y0096816D01*
X0047054Y0095818D02*
X0060596Y0095818D01*
X0066945Y0089827D02*
X0095454Y0089827D01*
X0095961Y0089617D02*
X0097934Y0089617D01*
X0099757Y0090372D01*
X0101153Y0091768D01*
X0101908Y0093591D01*
X0101908Y0095564D01*
X0101153Y0097388D01*
X0099757Y0098783D01*
X0097934Y0099538D01*
X0095961Y0099538D01*
X0094138Y0098783D01*
X0092742Y0097388D01*
X0091987Y0095564D01*
X0091987Y0093591D01*
X0092742Y0091768D01*
X0094138Y0090372D01*
X0095961Y0089617D01*
X0098441Y0089827D02*
X0118721Y0089827D01*
X0118663Y0090825D02*
X0112107Y0090825D01*
X0112093Y0090818D02*
X0112435Y0091015D01*
X0112715Y0091294D01*
X0112912Y0091636D01*
X0113014Y0092018D01*
X0113014Y0095652D01*
X0109259Y0095652D01*
X0109259Y0096652D01*
X0113014Y0096652D01*
X0113014Y0100287D01*
X0112912Y0100668D01*
X0112715Y0101010D01*
X0112435Y0101290D01*
X0112093Y0101487D01*
X0111712Y0101589D01*
X0109258Y0101589D01*
X0109258Y0096652D01*
X0108259Y0096652D01*
X0108259Y0101589D01*
X0105805Y0101589D01*
X0105424Y0101487D01*
X0105082Y0101290D01*
X0104802Y0101010D01*
X0104605Y0100668D01*
X0104503Y0100287D01*
X0104503Y0096652D01*
X0108258Y0096652D01*
X0108258Y0095652D01*
X0104503Y0095652D01*
X0104503Y0092018D01*
X0104605Y0091636D01*
X0104802Y0091294D01*
X0105082Y0091015D01*
X0105424Y0090818D01*
X0105805Y0090715D01*
X0108259Y0090715D01*
X0108259Y0095652D01*
X0109258Y0095652D01*
X0109258Y0090715D01*
X0111712Y0090715D01*
X0112093Y0090818D01*
X0112962Y0091824D02*
X0118697Y0091824D01*
X0119695Y0092822D02*
X0113014Y0092822D01*
X0113014Y0093821D02*
X0137623Y0093821D01*
X0137167Y0092822D02*
X0122231Y0092822D01*
X0123230Y0091824D02*
X0137167Y0091824D01*
X0137801Y0090825D02*
X0123269Y0090825D01*
X0124267Y0089827D02*
X0139366Y0089827D01*
X0140364Y0088828D02*
X0125266Y0088828D01*
X0126264Y0087830D02*
X0158404Y0087830D01*
X0157971Y0086831D02*
X0127263Y0086831D01*
X0128261Y0085833D02*
X0157646Y0085833D01*
X0157646Y0084834D02*
X0129260Y0084834D01*
X0130258Y0083836D02*
X0157646Y0083836D01*
X0157646Y0082837D02*
X0131257Y0082837D01*
X0132255Y0081839D02*
X0157646Y0081839D01*
X0157646Y0080840D02*
X0133254Y0080840D01*
X0133493Y0079842D02*
X0157646Y0079842D01*
X0157646Y0078843D02*
X0153927Y0078843D01*
X0154925Y0077845D02*
X0157646Y0077845D01*
X0157646Y0076846D02*
X0155153Y0076846D01*
X0155153Y0075848D02*
X0157646Y0075848D01*
X0157646Y0074849D02*
X0154291Y0074849D01*
X0153966Y0073851D02*
X0157646Y0073851D01*
X0157646Y0072852D02*
X0153966Y0072852D01*
X0153966Y0071853D02*
X0157646Y0071853D01*
X0157646Y0070855D02*
X0153966Y0070855D01*
X0153966Y0069856D02*
X0157646Y0069856D01*
X0157646Y0068858D02*
X0153966Y0068858D01*
X0153966Y0067859D02*
X0157646Y0067859D01*
X0157646Y0066861D02*
X0153966Y0066861D01*
X0153966Y0065862D02*
X0157646Y0065862D01*
X0157646Y0064864D02*
X0153966Y0064864D01*
X0153966Y0063865D02*
X0157646Y0063865D01*
X0157646Y0062867D02*
X0153966Y0062867D01*
X0153966Y0061868D02*
X0157646Y0061868D01*
X0157646Y0060870D02*
X0153966Y0060870D01*
X0153966Y0059871D02*
X0157646Y0059871D01*
X0157646Y0058873D02*
X0153966Y0058873D01*
X0153966Y0057874D02*
X0157646Y0057874D01*
X0157646Y0056876D02*
X0153966Y0056876D01*
X0153966Y0055877D02*
X0157646Y0055877D01*
X0157646Y0054879D02*
X0153966Y0054879D01*
X0153966Y0053880D02*
X0157646Y0053880D01*
X0157646Y0052882D02*
X0153966Y0052882D01*
X0153966Y0051883D02*
X0157646Y0051883D01*
X0157646Y0050885D02*
X0153966Y0050885D01*
X0153966Y0049886D02*
X0157646Y0049886D01*
X0157646Y0048888D02*
X0153966Y0048888D01*
X0153966Y0047889D02*
X0157646Y0047889D01*
X0157646Y0046891D02*
X0153966Y0046891D01*
X0153966Y0045892D02*
X0157646Y0045892D01*
X0157646Y0044894D02*
X0153966Y0044894D01*
X0153966Y0043895D02*
X0157646Y0043895D01*
X0157646Y0042897D02*
X0153966Y0042897D01*
X0153966Y0041898D02*
X0157646Y0041898D01*
X0157646Y0040900D02*
X0153966Y0040900D01*
X0153966Y0039901D02*
X0157646Y0039901D01*
X0157646Y0038903D02*
X0153966Y0038903D01*
X0153966Y0037904D02*
X0157646Y0037904D01*
X0157646Y0036906D02*
X0153966Y0036906D01*
X0153966Y0035907D02*
X0157646Y0035907D01*
X0157646Y0034909D02*
X0153966Y0034909D01*
X0153966Y0033910D02*
X0157646Y0033910D01*
X0157646Y0032912D02*
X0153966Y0032912D01*
X0153966Y0031913D02*
X0157646Y0031913D01*
X0157646Y0030915D02*
X0153966Y0030915D01*
X0153966Y0029916D02*
X0157646Y0029916D01*
X0157646Y0028918D02*
X0153966Y0028918D01*
X0153966Y0027919D02*
X0157646Y0027919D01*
X0157646Y0026920D02*
X0153966Y0026920D01*
X0153966Y0025922D02*
X0157646Y0025922D01*
X0157646Y0024923D02*
X0153966Y0024923D01*
X0153966Y0023925D02*
X0157646Y0023925D01*
X0157646Y0022926D02*
X0153966Y0022926D01*
X0153966Y0021928D02*
X0157646Y0021928D01*
X0157646Y0020929D02*
X0153966Y0020929D01*
X0153966Y0019931D02*
X0157646Y0019931D01*
X0157646Y0018932D02*
X0153714Y0018932D01*
X0152715Y0017934D02*
X0157646Y0017934D01*
X0157646Y0016935D02*
X0151717Y0016935D01*
X0152276Y0015937D02*
X0150718Y0015937D01*
X0151278Y0014938D02*
X0149720Y0014938D01*
X0150279Y0013940D02*
X0148721Y0013940D01*
X0148360Y0012941D02*
X0149472Y0012941D01*
X0149472Y0011943D02*
X0148360Y0011943D01*
X0148360Y0010944D02*
X0149472Y0010944D01*
X0149472Y0009946D02*
X0148360Y0009946D01*
X0148360Y0008947D02*
X0149472Y0008947D01*
X0150223Y0007949D02*
X0147609Y0007949D01*
X0146611Y0006950D02*
X0151221Y0006950D01*
X0157506Y0006034D02*
X0160172Y0008700D01*
X0160172Y0013132D01*
X0159948Y0013356D01*
X0160333Y0013741D01*
X0161446Y0014854D01*
X0161446Y0084367D01*
X0162473Y0085394D01*
X0162473Y0084361D01*
X0163001Y0083089D01*
X0163975Y0082115D01*
X0165247Y0081588D01*
X0166624Y0081588D01*
X0167897Y0082115D01*
X0168871Y0083089D01*
X0169398Y0084361D01*
X0169398Y0085739D01*
X0168871Y0087011D01*
X0167897Y0087985D01*
X0167499Y0088150D01*
X0168896Y0088150D01*
X0170897Y0088979D01*
X0172428Y0090510D01*
X0173186Y0092338D01*
X0173474Y0092050D01*
X0174106Y0091627D01*
X0174809Y0091336D01*
X0175555Y0091188D01*
X0175648Y0091188D01*
X0175648Y0094763D01*
X0176223Y0094763D01*
X0176223Y0091188D01*
X0176316Y0091188D01*
X0176908Y0091306D01*
X0176908Y0088512D01*
X0176247Y0088512D01*
X0174975Y0087985D01*
X0174001Y0087011D01*
X0173473Y0085739D01*
X0173473Y0084361D01*
X0174001Y0083089D01*
X0174975Y0082115D01*
X0176247Y0081588D01*
X0176908Y0081588D01*
X0176908Y0078395D01*
X0176624Y0078512D01*
X0175247Y0078512D01*
X0173975Y0077985D01*
X0173001Y0077011D01*
X0172473Y0075739D01*
X0172473Y0074361D01*
X0173001Y0073089D01*
X0173975Y0072115D01*
X0175247Y0071588D01*
X0176624Y0071588D01*
X0176908Y0071705D01*
X0176908Y0068512D01*
X0176247Y0068512D01*
X0174975Y0067985D01*
X0174001Y0067011D01*
X0173473Y0065739D01*
X0173473Y0064361D01*
X0174001Y0063089D01*
X0174975Y0062115D01*
X0176247Y0061588D01*
X0176908Y0061588D01*
X0176908Y0058395D01*
X0176624Y0058512D01*
X0175247Y0058512D01*
X0173975Y0057985D01*
X0173001Y0057011D01*
X0172473Y0055739D01*
X0172473Y0054361D01*
X0173001Y0053089D01*
X0173975Y0052115D01*
X0175247Y0051588D01*
X0176624Y0051588D01*
X0176908Y0051705D01*
X0176908Y0048512D01*
X0176247Y0048512D01*
X0174975Y0047985D01*
X0174001Y0047011D01*
X0173473Y0045739D01*
X0173473Y0044361D01*
X0174001Y0043089D01*
X0174975Y0042115D01*
X0176247Y0041588D01*
X0176908Y0041588D01*
X0176908Y0038395D01*
X0176624Y0038512D01*
X0175247Y0038512D01*
X0173975Y0037985D01*
X0173001Y0037011D01*
X0172473Y0035739D01*
X0172473Y0034361D01*
X0173001Y0033089D01*
X0173975Y0032115D01*
X0175247Y0031588D01*
X0176624Y0031588D01*
X0176908Y0031705D01*
X0176908Y0028512D01*
X0176247Y0028512D01*
X0174975Y0027985D01*
X0174001Y0027011D01*
X0173473Y0025739D01*
X0173473Y0024361D01*
X0174001Y0023089D01*
X0174975Y0022115D01*
X0176247Y0021588D01*
X0176908Y0021588D01*
X0176908Y0018395D01*
X0176624Y0018512D01*
X0175247Y0018512D01*
X0173975Y0017985D01*
X0173001Y0017011D01*
X0172473Y0015739D01*
X0172473Y0014361D01*
X0173001Y0013089D01*
X0173975Y0012115D01*
X0175247Y0011588D01*
X0176624Y0011588D01*
X0176908Y0011705D01*
X0176908Y0006034D01*
X0176648Y0006034D01*
X0176648Y0008912D01*
X0176555Y0008912D01*
X0175809Y0008764D01*
X0175106Y0008473D01*
X0174474Y0008050D01*
X0173936Y0007512D01*
X0173513Y0006879D01*
X0173222Y0006177D01*
X0173194Y0006034D01*
X0169678Y0006034D01*
X0169649Y0006177D01*
X0169358Y0006879D01*
X0168936Y0007512D01*
X0168398Y0008050D01*
X0167765Y0008473D01*
X0167062Y0008764D01*
X0166316Y0008912D01*
X0166223Y0008912D01*
X0166223Y0006034D01*
X0165648Y0006034D01*
X0165648Y0008912D01*
X0165555Y0008912D01*
X0164809Y0008764D01*
X0164106Y0008473D01*
X0163474Y0008050D01*
X0162936Y0007512D01*
X0162513Y0006879D01*
X0162222Y0006177D01*
X0162194Y0006034D01*
X0157506Y0006034D01*
X0158422Y0006950D02*
X0162560Y0006950D01*
X0163372Y0007949D02*
X0159420Y0007949D01*
X0160172Y0008947D02*
X0176908Y0008947D01*
X0176908Y0007949D02*
X0176648Y0007949D01*
X0176648Y0006950D02*
X0176908Y0006950D01*
X0174372Y0007949D02*
X0168499Y0007949D01*
X0169311Y0006950D02*
X0173560Y0006950D01*
X0176908Y0009946D02*
X0160172Y0009946D01*
X0160172Y0010944D02*
X0176908Y0010944D01*
X0174390Y0011943D02*
X0168481Y0011943D01*
X0168897Y0012115D02*
X0167624Y0011588D01*
X0166247Y0011588D01*
X0164975Y0012115D01*
X0164001Y0013089D01*
X0163473Y0014361D01*
X0163473Y0015739D01*
X0164001Y0017011D01*
X0164975Y0017985D01*
X0166247Y0018512D01*
X0167624Y0018512D01*
X0168897Y0017985D01*
X0169871Y0017011D01*
X0170398Y0015739D01*
X0170398Y0014361D01*
X0169871Y0013089D01*
X0168897Y0012115D01*
X0169723Y0012941D02*
X0173148Y0012941D01*
X0172648Y0013940D02*
X0170223Y0013940D01*
X0170398Y0014938D02*
X0172473Y0014938D01*
X0172556Y0015937D02*
X0170316Y0015937D01*
X0169902Y0016935D02*
X0172969Y0016935D01*
X0173923Y0017934D02*
X0168948Y0017934D01*
X0167445Y0021928D02*
X0175426Y0021928D01*
X0174163Y0022926D02*
X0168708Y0022926D01*
X0168871Y0023089D02*
X0167897Y0022115D01*
X0166624Y0021588D01*
X0165247Y0021588D01*
X0163975Y0022115D01*
X0163001Y0023089D01*
X0162473Y0024361D01*
X0162473Y0025739D01*
X0163001Y0027011D01*
X0163975Y0027985D01*
X0165247Y0028512D01*
X0166624Y0028512D01*
X0167897Y0027985D01*
X0168871Y0027011D01*
X0169398Y0025739D01*
X0169398Y0024361D01*
X0168871Y0023089D01*
X0169217Y0023925D02*
X0173654Y0023925D01*
X0173473Y0024923D02*
X0169398Y0024923D01*
X0169322Y0025922D02*
X0173549Y0025922D01*
X0173963Y0026920D02*
X0168908Y0026920D01*
X0167963Y0027919D02*
X0174908Y0027919D01*
X0176908Y0028918D02*
X0161446Y0028918D01*
X0161446Y0029916D02*
X0176908Y0029916D01*
X0176908Y0030915D02*
X0161446Y0030915D01*
X0161446Y0031913D02*
X0165462Y0031913D01*
X0164975Y0032115D02*
X0166247Y0031588D01*
X0167624Y0031588D01*
X0168897Y0032115D01*
X0169871Y0033089D01*
X0170398Y0034361D01*
X0170398Y0035739D01*
X0169871Y0037011D01*
X0168897Y0037985D01*
X0167624Y0038512D01*
X0166247Y0038512D01*
X0164975Y0037985D01*
X0164001Y0037011D01*
X0163473Y0035739D01*
X0163473Y0034361D01*
X0164001Y0033089D01*
X0164975Y0032115D01*
X0164178Y0032912D02*
X0161446Y0032912D01*
X0161446Y0033910D02*
X0163660Y0033910D01*
X0163473Y0034909D02*
X0161446Y0034909D01*
X0161446Y0035907D02*
X0163543Y0035907D01*
X0163957Y0036906D02*
X0161446Y0036906D01*
X0161446Y0037904D02*
X0164894Y0037904D01*
X0161446Y0038903D02*
X0176908Y0038903D01*
X0176908Y0039901D02*
X0161446Y0039901D01*
X0161446Y0040900D02*
X0176908Y0040900D01*
X0175498Y0041898D02*
X0167374Y0041898D01*
X0167897Y0042115D02*
X0168871Y0043089D01*
X0169398Y0044361D01*
X0169398Y0045739D01*
X0168871Y0047011D01*
X0167897Y0047985D01*
X0166624Y0048512D01*
X0165247Y0048512D01*
X0163975Y0047985D01*
X0163001Y0047011D01*
X0162473Y0045739D01*
X0162473Y0044361D01*
X0163001Y0043089D01*
X0163975Y0042115D01*
X0165247Y0041588D01*
X0166624Y0041588D01*
X0167897Y0042115D01*
X0168679Y0042897D02*
X0174193Y0042897D01*
X0173667Y0043895D02*
X0169205Y0043895D01*
X0169398Y0044894D02*
X0173473Y0044894D01*
X0173537Y0045892D02*
X0169334Y0045892D01*
X0168921Y0046891D02*
X0173951Y0046891D01*
X0174879Y0047889D02*
X0167993Y0047889D01*
X0167624Y0051588D02*
X0166247Y0051588D01*
X0164975Y0052115D01*
X0164001Y0053089D01*
X0163473Y0054361D01*
X0163473Y0055739D01*
X0164001Y0057011D01*
X0164975Y0057985D01*
X0166247Y0058512D01*
X0167624Y0058512D01*
X0168897Y0057985D01*
X0169871Y0057011D01*
X0170398Y0055739D01*
X0170398Y0054361D01*
X0169871Y0053089D01*
X0168897Y0052115D01*
X0167624Y0051588D01*
X0168338Y0051883D02*
X0174534Y0051883D01*
X0173208Y0052882D02*
X0169664Y0052882D01*
X0170199Y0053880D02*
X0172673Y0053880D01*
X0172473Y0054879D02*
X0170398Y0054879D01*
X0170340Y0055877D02*
X0172531Y0055877D01*
X0172945Y0056876D02*
X0169927Y0056876D01*
X0169008Y0057874D02*
X0173864Y0057874D01*
X0176908Y0058873D02*
X0161446Y0058873D01*
X0161446Y0059871D02*
X0176908Y0059871D01*
X0176908Y0060870D02*
X0161446Y0060870D01*
X0161446Y0061868D02*
X0164570Y0061868D01*
X0163975Y0062115D02*
X0165247Y0061588D01*
X0166624Y0061588D01*
X0167897Y0062115D01*
X0168871Y0063089D01*
X0169398Y0064361D01*
X0169398Y0065739D01*
X0168871Y0067011D01*
X0167897Y0067985D01*
X0166624Y0068512D01*
X0165247Y0068512D01*
X0163975Y0067985D01*
X0163001Y0067011D01*
X0162473Y0065739D01*
X0162473Y0064361D01*
X0163001Y0063089D01*
X0163975Y0062115D01*
X0163223Y0062867D02*
X0161446Y0062867D01*
X0161446Y0063865D02*
X0162679Y0063865D01*
X0162473Y0064864D02*
X0161446Y0064864D01*
X0161446Y0065862D02*
X0162525Y0065862D01*
X0162938Y0066861D02*
X0161446Y0066861D01*
X0161446Y0067859D02*
X0163849Y0067859D01*
X0161446Y0068858D02*
X0176908Y0068858D01*
X0176908Y0069856D02*
X0161446Y0069856D01*
X0161446Y0070855D02*
X0176908Y0070855D01*
X0174606Y0071853D02*
X0168266Y0071853D01*
X0168897Y0072115D02*
X0167624Y0071588D01*
X0166247Y0071588D01*
X0164975Y0072115D01*
X0164001Y0073089D01*
X0163473Y0074361D01*
X0163473Y0075739D01*
X0164001Y0077011D01*
X0164975Y0077985D01*
X0166247Y0078512D01*
X0167624Y0078512D01*
X0168897Y0077985D01*
X0169871Y0077011D01*
X0170398Y0075739D01*
X0170398Y0074361D01*
X0169871Y0073089D01*
X0168897Y0072115D01*
X0169634Y0072852D02*
X0173237Y0072852D01*
X0172685Y0073851D02*
X0170186Y0073851D01*
X0170398Y0074849D02*
X0172473Y0074849D01*
X0172519Y0075848D02*
X0170353Y0075848D01*
X0169939Y0076846D02*
X0172932Y0076846D01*
X0173834Y0077845D02*
X0169037Y0077845D01*
X0167230Y0081839D02*
X0175641Y0081839D01*
X0176908Y0080840D02*
X0161446Y0080840D01*
X0161446Y0079842D02*
X0176908Y0079842D01*
X0176908Y0078843D02*
X0161446Y0078843D01*
X0161446Y0077845D02*
X0164834Y0077845D01*
X0163932Y0076846D02*
X0161446Y0076846D01*
X0161446Y0075848D02*
X0163519Y0075848D01*
X0163473Y0074849D02*
X0161446Y0074849D01*
X0161446Y0073851D02*
X0163685Y0073851D01*
X0164237Y0072852D02*
X0161446Y0072852D01*
X0161446Y0071853D02*
X0165606Y0071853D01*
X0168023Y0067859D02*
X0174849Y0067859D01*
X0173938Y0066861D02*
X0168933Y0066861D01*
X0169347Y0065862D02*
X0173525Y0065862D01*
X0173473Y0064864D02*
X0169398Y0064864D01*
X0169192Y0063865D02*
X0173679Y0063865D01*
X0174223Y0062867D02*
X0168649Y0062867D01*
X0167302Y0061868D02*
X0175570Y0061868D01*
X0165534Y0051883D02*
X0161446Y0051883D01*
X0161446Y0050885D02*
X0176908Y0050885D01*
X0176908Y0049886D02*
X0161446Y0049886D01*
X0161446Y0048888D02*
X0176908Y0048888D01*
X0173894Y0037904D02*
X0168978Y0037904D01*
X0169915Y0036906D02*
X0172957Y0036906D01*
X0172543Y0035907D02*
X0170328Y0035907D01*
X0170398Y0034909D02*
X0172473Y0034909D01*
X0172660Y0033910D02*
X0170211Y0033910D01*
X0169694Y0032912D02*
X0173178Y0032912D01*
X0174462Y0031913D02*
X0168410Y0031913D01*
X0163908Y0027919D02*
X0161446Y0027919D01*
X0161446Y0026920D02*
X0162963Y0026920D01*
X0162549Y0025922D02*
X0161446Y0025922D01*
X0161446Y0024923D02*
X0162473Y0024923D01*
X0162654Y0023925D02*
X0161446Y0023925D01*
X0161446Y0022926D02*
X0163163Y0022926D01*
X0164426Y0021928D02*
X0161446Y0021928D01*
X0161446Y0020929D02*
X0176908Y0020929D01*
X0176908Y0019931D02*
X0161446Y0019931D01*
X0161446Y0018932D02*
X0176908Y0018932D01*
X0165390Y0011943D02*
X0160172Y0011943D01*
X0160172Y0012941D02*
X0164148Y0012941D01*
X0163648Y0013940D02*
X0160532Y0013940D01*
X0161446Y0014938D02*
X0163473Y0014938D01*
X0163556Y0015937D02*
X0161446Y0015937D01*
X0161446Y0016935D02*
X0163969Y0016935D01*
X0164923Y0017934D02*
X0161446Y0017934D01*
X0165648Y0007949D02*
X0166223Y0007949D01*
X0166223Y0006950D02*
X0165648Y0006950D01*
X0149338Y0019931D02*
X0132706Y0019931D01*
X0132706Y0020929D02*
X0150166Y0020929D01*
X0150166Y0021928D02*
X0132706Y0021928D01*
X0132706Y0022926D02*
X0150166Y0022926D01*
X0150166Y0023925D02*
X0132706Y0023925D01*
X0132706Y0024923D02*
X0150166Y0024923D01*
X0150166Y0025922D02*
X0132706Y0025922D01*
X0132706Y0026920D02*
X0150166Y0026920D01*
X0150166Y0027919D02*
X0132706Y0027919D01*
X0132706Y0028918D02*
X0150166Y0028918D01*
X0150166Y0029916D02*
X0132706Y0029916D01*
X0132706Y0030915D02*
X0150166Y0030915D01*
X0150166Y0031913D02*
X0132706Y0031913D01*
X0132706Y0032912D02*
X0150166Y0032912D01*
X0150166Y0033910D02*
X0132706Y0033910D01*
X0132706Y0034909D02*
X0150166Y0034909D01*
X0150166Y0035907D02*
X0132706Y0035907D01*
X0132706Y0036906D02*
X0150166Y0036906D01*
X0150166Y0037904D02*
X0132706Y0037904D01*
X0132706Y0038903D02*
X0150166Y0038903D01*
X0150166Y0039901D02*
X0132706Y0039901D01*
X0132706Y0040900D02*
X0150166Y0040900D01*
X0150166Y0041898D02*
X0132706Y0041898D01*
X0132706Y0042897D02*
X0150166Y0042897D01*
X0150166Y0043895D02*
X0132706Y0043895D01*
X0132706Y0044894D02*
X0150166Y0044894D01*
X0150166Y0045892D02*
X0132706Y0045892D01*
X0132706Y0046891D02*
X0150166Y0046891D01*
X0150166Y0047889D02*
X0132706Y0047889D01*
X0132706Y0048888D02*
X0150166Y0048888D01*
X0150166Y0049886D02*
X0132706Y0049886D01*
X0132706Y0050885D02*
X0150166Y0050885D01*
X0150166Y0051883D02*
X0132706Y0051883D01*
X0132706Y0052882D02*
X0150166Y0052882D01*
X0150166Y0053880D02*
X0132706Y0053880D01*
X0132706Y0054879D02*
X0150166Y0054879D01*
X0150166Y0055877D02*
X0132706Y0055877D01*
X0132706Y0056876D02*
X0150166Y0056876D01*
X0150166Y0057874D02*
X0132706Y0057874D01*
X0132706Y0058873D02*
X0138891Y0058873D01*
X0139054Y0058709D02*
X0140936Y0058709D01*
X0140936Y0063959D01*
X0141936Y0063959D01*
X0141936Y0064959D01*
X0147186Y0064959D01*
X0147186Y0066841D01*
X0143817Y0070209D01*
X0141936Y0070209D01*
X0141936Y0064959D01*
X0140936Y0064959D01*
X0140936Y0063959D01*
X0135686Y0063959D01*
X0135686Y0062078D01*
X0139054Y0058709D01*
X0137892Y0059871D02*
X0132706Y0059871D01*
X0132706Y0060870D02*
X0136894Y0060870D01*
X0135895Y0061868D02*
X0132706Y0061868D01*
X0132706Y0062867D02*
X0135686Y0062867D01*
X0135686Y0063865D02*
X0132706Y0063865D01*
X0132706Y0064864D02*
X0140936Y0064864D01*
X0140936Y0064959D02*
X0135686Y0064959D01*
X0135686Y0066841D01*
X0139054Y0070209D01*
X0140936Y0070209D01*
X0140936Y0064959D01*
X0140936Y0065862D02*
X0141936Y0065862D01*
X0141936Y0064864D02*
X0150166Y0064864D01*
X0150166Y0065862D02*
X0147186Y0065862D01*
X0147166Y0066861D02*
X0150166Y0066861D01*
X0150166Y0067859D02*
X0146167Y0067859D01*
X0145169Y0068858D02*
X0150166Y0068858D01*
X0150166Y0069856D02*
X0144170Y0069856D01*
X0141936Y0069856D02*
X0140936Y0069856D01*
X0140936Y0068858D02*
X0141936Y0068858D01*
X0141936Y0067859D02*
X0140936Y0067859D01*
X0140936Y0066861D02*
X0141936Y0066861D01*
X0141936Y0063959D02*
X0147186Y0063959D01*
X0147186Y0062078D01*
X0143817Y0058709D01*
X0141936Y0058709D01*
X0141936Y0063959D01*
X0141936Y0063865D02*
X0140936Y0063865D01*
X0140936Y0062867D02*
X0141936Y0062867D01*
X0141936Y0061868D02*
X0140936Y0061868D01*
X0140936Y0060870D02*
X0141936Y0060870D01*
X0141936Y0059871D02*
X0140936Y0059871D01*
X0140936Y0058873D02*
X0141936Y0058873D01*
X0143981Y0058873D02*
X0150166Y0058873D01*
X0150166Y0059871D02*
X0144979Y0059871D01*
X0145978Y0060870D02*
X0150166Y0060870D01*
X0150166Y0061868D02*
X0146976Y0061868D01*
X0147186Y0062867D02*
X0150166Y0062867D01*
X0150166Y0063865D02*
X0147186Y0063865D01*
X0150166Y0070855D02*
X0132706Y0070855D01*
X0132706Y0071853D02*
X0150166Y0071853D01*
X0150166Y0072852D02*
X0132706Y0072852D01*
X0132706Y0073851D02*
X0150166Y0073851D01*
X0150166Y0074849D02*
X0132706Y0074849D01*
X0132706Y0075848D02*
X0150166Y0075848D01*
X0150348Y0076846D02*
X0132706Y0076846D01*
X0132706Y0077845D02*
X0150781Y0077845D01*
X0151779Y0078843D02*
X0133309Y0078843D01*
X0128906Y0078843D02*
X0121643Y0078843D01*
X0121688Y0077845D02*
X0128906Y0077845D01*
X0128906Y0076846D02*
X0121642Y0076846D01*
X0121288Y0075848D02*
X0128906Y0075848D01*
X0128906Y0074849D02*
X0121288Y0074849D01*
X0121288Y0073851D02*
X0128906Y0073851D01*
X0128906Y0072852D02*
X0121288Y0072852D01*
X0121288Y0071853D02*
X0128906Y0071853D01*
X0128906Y0070855D02*
X0121288Y0070855D01*
X0121288Y0069856D02*
X0128906Y0069856D01*
X0128906Y0068858D02*
X0121288Y0068858D01*
X0121288Y0067859D02*
X0128906Y0067859D01*
X0128906Y0066861D02*
X0121288Y0066861D01*
X0121288Y0065862D02*
X0128906Y0065862D01*
X0128906Y0064864D02*
X0121288Y0064864D01*
X0121288Y0063865D02*
X0128906Y0063865D01*
X0128906Y0062867D02*
X0121288Y0062867D01*
X0121288Y0061868D02*
X0128906Y0061868D01*
X0128906Y0060870D02*
X0121288Y0060870D01*
X0121288Y0059871D02*
X0128906Y0059871D01*
X0128906Y0058873D02*
X0121288Y0058873D01*
X0121288Y0057874D02*
X0128906Y0057874D01*
X0128906Y0056876D02*
X0121288Y0056876D01*
X0121288Y0055877D02*
X0128906Y0055877D01*
X0128906Y0054879D02*
X0121288Y0054879D01*
X0121288Y0053880D02*
X0128906Y0053880D01*
X0128906Y0052882D02*
X0121288Y0052882D01*
X0121288Y0051883D02*
X0128906Y0051883D01*
X0128906Y0050885D02*
X0121288Y0050885D01*
X0121288Y0049886D02*
X0128906Y0049886D01*
X0128906Y0048888D02*
X0121288Y0048888D01*
X0121288Y0047889D02*
X0128906Y0047889D01*
X0128906Y0046891D02*
X0121288Y0046891D01*
X0121288Y0045892D02*
X0128906Y0045892D01*
X0128906Y0044894D02*
X0121288Y0044894D01*
X0121288Y0043895D02*
X0128906Y0043895D01*
X0128906Y0042897D02*
X0121288Y0042897D01*
X0121288Y0041898D02*
X0128906Y0041898D01*
X0128906Y0040900D02*
X0121288Y0040900D01*
X0121288Y0039901D02*
X0128906Y0039901D01*
X0128906Y0038903D02*
X0121288Y0038903D01*
X0121288Y0037904D02*
X0128906Y0037904D01*
X0128906Y0036906D02*
X0121288Y0036906D01*
X0121288Y0035907D02*
X0128906Y0035907D01*
X0128906Y0034909D02*
X0121288Y0034909D01*
X0121288Y0033910D02*
X0128906Y0033910D01*
X0128906Y0032912D02*
X0121288Y0032912D01*
X0121288Y0031913D02*
X0128906Y0031913D01*
X0128906Y0030915D02*
X0121288Y0030915D01*
X0121288Y0029916D02*
X0128906Y0029916D01*
X0128906Y0028918D02*
X0121288Y0028918D01*
X0121288Y0027919D02*
X0128906Y0027919D01*
X0128906Y0026920D02*
X0121288Y0026920D01*
X0121288Y0025922D02*
X0128906Y0025922D01*
X0128906Y0024923D02*
X0121288Y0024923D01*
X0121288Y0023925D02*
X0128906Y0023925D01*
X0128906Y0022926D02*
X0121288Y0022926D01*
X0121288Y0021928D02*
X0128906Y0021928D01*
X0128906Y0020929D02*
X0121288Y0020929D01*
X0121288Y0019931D02*
X0128906Y0019931D01*
X0128906Y0018932D02*
X0121288Y0018932D01*
X0121288Y0017934D02*
X0128906Y0017934D01*
X0128906Y0016935D02*
X0121288Y0016935D01*
X0121934Y0015937D02*
X0128654Y0015937D01*
X0127656Y0014938D02*
X0122932Y0014938D01*
X0123931Y0013940D02*
X0126657Y0013940D01*
X0125849Y0012941D02*
X0124738Y0012941D01*
X0124738Y0011943D02*
X0125849Y0011943D01*
X0125849Y0010944D02*
X0124738Y0010944D01*
X0124738Y0009946D02*
X0125849Y0009946D01*
X0125849Y0008947D02*
X0124738Y0008947D01*
X0123987Y0007949D02*
X0126601Y0007949D01*
X0127599Y0006950D02*
X0122989Y0006950D01*
X0115788Y0006950D02*
X0053802Y0006950D01*
X0054614Y0007949D02*
X0114790Y0007949D01*
X0114038Y0008947D02*
X0055044Y0008947D01*
X0055212Y0010747D02*
X0055124Y0011301D01*
X0054905Y0011974D01*
X0054584Y0012605D01*
X0054167Y0013178D01*
X0053666Y0013679D01*
X0053093Y0014096D01*
X0052462Y0014417D01*
X0051789Y0014636D01*
X0051089Y0014747D01*
X0048235Y0014747D01*
X0048235Y0010747D01*
X0055212Y0010747D01*
X0055181Y0010944D02*
X0114038Y0010944D01*
X0114038Y0009946D02*
X0048235Y0009946D01*
X0048235Y0010944D02*
X0047235Y0010944D01*
X0047235Y0009946D02*
X0026908Y0009946D01*
X0026908Y0010944D02*
X0040289Y0010944D01*
X0040554Y0011943D02*
X0038481Y0011943D01*
X0038897Y0012115D02*
X0037624Y0011588D01*
X0036247Y0011588D01*
X0034975Y0012115D01*
X0034001Y0013089D01*
X0033473Y0014361D01*
X0033473Y0015739D01*
X0034001Y0017011D01*
X0034975Y0017985D01*
X0036247Y0018512D01*
X0037624Y0018512D01*
X0038897Y0017985D01*
X0039871Y0017011D01*
X0040398Y0015739D01*
X0040398Y0014361D01*
X0039871Y0013089D01*
X0038897Y0012115D01*
X0039723Y0012941D02*
X0041130Y0012941D01*
X0040223Y0013940D02*
X0042162Y0013940D01*
X0040398Y0014938D02*
X0115845Y0014938D01*
X0116843Y0015937D02*
X0040316Y0015937D01*
X0039902Y0016935D02*
X0042248Y0016935D01*
X0042412Y0016771D02*
X0043919Y0016147D01*
X0051550Y0016147D01*
X0053057Y0016771D01*
X0054211Y0017924D01*
X0054835Y0019431D01*
X0054835Y0021062D01*
X0054211Y0022569D01*
X0053057Y0023723D01*
X0051550Y0024347D01*
X0043919Y0024347D01*
X0042412Y0023723D01*
X0041259Y0022569D01*
X0040635Y0021062D01*
X0040635Y0019431D01*
X0041259Y0017924D01*
X0042412Y0016771D01*
X0041255Y0017934D02*
X0038948Y0017934D01*
X0040842Y0018932D02*
X0026908Y0018932D01*
X0026908Y0019931D02*
X0040635Y0019931D01*
X0040635Y0020929D02*
X0026908Y0020929D01*
X0028445Y0021928D02*
X0034426Y0021928D01*
X0033975Y0022115D02*
X0035247Y0021588D01*
X0036624Y0021588D01*
X0037897Y0022115D01*
X0038871Y0023089D01*
X0039398Y0024361D01*
X0039398Y0025739D01*
X0038871Y0027011D01*
X0037897Y0027985D01*
X0036624Y0028512D01*
X0035247Y0028512D01*
X0033975Y0027985D01*
X0033001Y0027011D01*
X0032473Y0025739D01*
X0032473Y0024361D01*
X0033001Y0023089D01*
X0033975Y0022115D01*
X0033163Y0022926D02*
X0029708Y0022926D01*
X0030217Y0023925D02*
X0032654Y0023925D01*
X0032473Y0024923D02*
X0030398Y0024923D01*
X0030322Y0025922D02*
X0032549Y0025922D01*
X0032963Y0026920D02*
X0029908Y0026920D01*
X0028963Y0027919D02*
X0033908Y0027919D01*
X0037963Y0027919D02*
X0042017Y0027919D01*
X0041803Y0028074D02*
X0042376Y0027658D01*
X0043007Y0027336D01*
X0043681Y0027117D01*
X0044381Y0027007D01*
X0047235Y0027007D01*
X0047235Y0031007D01*
X0040258Y0031007D01*
X0040346Y0030453D01*
X0040565Y0029779D01*
X0040886Y0029148D01*
X0041302Y0028575D01*
X0041803Y0028074D01*
X0041054Y0028918D02*
X0026908Y0028918D01*
X0026908Y0029916D02*
X0040520Y0029916D01*
X0040273Y0030915D02*
X0026908Y0030915D01*
X0027410Y0031913D02*
X0035462Y0031913D01*
X0034975Y0032115D02*
X0036247Y0031588D01*
X0037624Y0031588D01*
X0038897Y0032115D01*
X0039871Y0033089D01*
X0040398Y0034361D01*
X0040398Y0035739D01*
X0039871Y0037011D01*
X0038897Y0037985D01*
X0037624Y0038512D01*
X0036247Y0038512D01*
X0034975Y0037985D01*
X0034001Y0037011D01*
X0033473Y0035739D01*
X0033473Y0034361D01*
X0034001Y0033089D01*
X0034975Y0032115D01*
X0034178Y0032912D02*
X0028694Y0032912D01*
X0029211Y0033910D02*
X0033660Y0033910D01*
X0033473Y0034909D02*
X0029398Y0034909D01*
X0029328Y0035907D02*
X0033543Y0035907D01*
X0033957Y0036906D02*
X0028915Y0036906D01*
X0027978Y0037904D02*
X0034894Y0037904D01*
X0035247Y0041588D02*
X0033975Y0042115D01*
X0033001Y0043089D01*
X0032473Y0044361D01*
X0032473Y0045739D01*
X0033001Y0047011D01*
X0033975Y0047985D01*
X0035247Y0048512D01*
X0036624Y0048512D01*
X0037897Y0047985D01*
X0038871Y0047011D01*
X0039398Y0045739D01*
X0039398Y0044361D01*
X0038871Y0043089D01*
X0037897Y0042115D01*
X0036624Y0041588D01*
X0035247Y0041588D01*
X0034498Y0041898D02*
X0028374Y0041898D01*
X0029679Y0042897D02*
X0033193Y0042897D01*
X0032667Y0043895D02*
X0030205Y0043895D01*
X0030398Y0044894D02*
X0032473Y0044894D01*
X0032537Y0045892D02*
X0030334Y0045892D01*
X0029921Y0046891D02*
X0032951Y0046891D01*
X0033879Y0047889D02*
X0028993Y0047889D01*
X0026908Y0048888D02*
X0117488Y0048888D01*
X0117488Y0049886D02*
X0026908Y0049886D01*
X0026908Y0050885D02*
X0117488Y0050885D01*
X0117488Y0051883D02*
X0038338Y0051883D01*
X0038897Y0052115D02*
X0037624Y0051588D01*
X0036247Y0051588D01*
X0034975Y0052115D01*
X0034001Y0053089D01*
X0033473Y0054361D01*
X0033473Y0055739D01*
X0034001Y0057011D01*
X0034975Y0057985D01*
X0036247Y0058512D01*
X0037624Y0058512D01*
X0038897Y0057985D01*
X0039871Y0057011D01*
X0040398Y0055739D01*
X0040398Y0054361D01*
X0039871Y0053089D01*
X0038897Y0052115D01*
X0039664Y0052882D02*
X0117488Y0052882D01*
X0117488Y0053880D02*
X0040199Y0053880D01*
X0040398Y0054879D02*
X0117488Y0054879D01*
X0117488Y0055877D02*
X0040340Y0055877D01*
X0039927Y0056876D02*
X0117488Y0056876D01*
X0117488Y0057874D02*
X0039008Y0057874D01*
X0034864Y0057874D02*
X0028008Y0057874D01*
X0028927Y0056876D02*
X0033945Y0056876D01*
X0033531Y0055877D02*
X0029340Y0055877D01*
X0029398Y0054879D02*
X0033473Y0054879D01*
X0033673Y0053880D02*
X0029199Y0053880D01*
X0028664Y0052882D02*
X0034208Y0052882D01*
X0035534Y0051883D02*
X0027338Y0051883D01*
X0026908Y0058873D02*
X0117488Y0058873D01*
X0117488Y0059871D02*
X0026908Y0059871D01*
X0026908Y0060870D02*
X0117488Y0060870D01*
X0117488Y0061868D02*
X0037302Y0061868D01*
X0037897Y0062115D02*
X0038871Y0063089D01*
X0039398Y0064361D01*
X0039398Y0065739D01*
X0038871Y0067011D01*
X0037897Y0067985D01*
X0036624Y0068512D01*
X0035247Y0068512D01*
X0033975Y0067985D01*
X0033001Y0067011D01*
X0032473Y0065739D01*
X0032473Y0064361D01*
X0033001Y0063089D01*
X0033975Y0062115D01*
X0035247Y0061588D01*
X0036624Y0061588D01*
X0037897Y0062115D01*
X0038649Y0062867D02*
X0117488Y0062867D01*
X0117488Y0063865D02*
X0039192Y0063865D01*
X0039398Y0064864D02*
X0117488Y0064864D01*
X0117488Y0065862D02*
X0039347Y0065862D01*
X0038933Y0066861D02*
X0117488Y0066861D01*
X0117488Y0067859D02*
X0038023Y0067859D01*
X0037624Y0071588D02*
X0036247Y0071588D01*
X0034975Y0072115D01*
X0034001Y0073089D01*
X0033473Y0074361D01*
X0033473Y0075739D01*
X0034001Y0077011D01*
X0034975Y0077985D01*
X0036247Y0078512D01*
X0037624Y0078512D01*
X0038897Y0077985D01*
X0039871Y0077011D01*
X0040398Y0075739D01*
X0040398Y0074361D01*
X0039871Y0073089D01*
X0038897Y0072115D01*
X0037624Y0071588D01*
X0038266Y0071853D02*
X0117488Y0071853D01*
X0117488Y0070855D02*
X0026908Y0070855D01*
X0026908Y0069856D02*
X0117488Y0069856D01*
X0117488Y0068858D02*
X0026908Y0068858D01*
X0029023Y0067859D02*
X0033849Y0067859D01*
X0032938Y0066861D02*
X0029933Y0066861D01*
X0030347Y0065862D02*
X0032525Y0065862D01*
X0032473Y0064864D02*
X0030398Y0064864D01*
X0030192Y0063865D02*
X0032679Y0063865D01*
X0033223Y0062867D02*
X0029649Y0062867D01*
X0028302Y0061868D02*
X0034570Y0061868D01*
X0035606Y0071853D02*
X0027266Y0071853D01*
X0028634Y0072852D02*
X0034237Y0072852D01*
X0033685Y0073851D02*
X0029186Y0073851D01*
X0029398Y0074849D02*
X0033473Y0074849D01*
X0033519Y0075848D02*
X0029353Y0075848D01*
X0028939Y0076846D02*
X0033932Y0076846D01*
X0034834Y0077845D02*
X0028037Y0077845D01*
X0026908Y0078843D02*
X0117134Y0078843D01*
X0117088Y0077845D02*
X0039037Y0077845D01*
X0039939Y0076846D02*
X0117135Y0076846D01*
X0117488Y0075848D02*
X0040353Y0075848D01*
X0040398Y0074849D02*
X0117488Y0074849D01*
X0117488Y0073851D02*
X0040186Y0073851D01*
X0039634Y0072852D02*
X0117488Y0072852D01*
X0118132Y0079842D02*
X0026908Y0079842D01*
X0026908Y0080840D02*
X0127880Y0080840D01*
X0128878Y0079842D02*
X0120645Y0079842D01*
X0124884Y0083836D02*
X0039180Y0083836D01*
X0039398Y0084361D02*
X0038871Y0083089D01*
X0037897Y0082115D01*
X0036624Y0081588D01*
X0035247Y0081588D01*
X0033975Y0082115D01*
X0033001Y0083089D01*
X0032473Y0084361D01*
X0032473Y0085739D01*
X0033001Y0087011D01*
X0033975Y0087985D01*
X0035247Y0088512D01*
X0036624Y0088512D01*
X0037897Y0087985D01*
X0038871Y0087011D01*
X0039398Y0085739D01*
X0039398Y0084361D01*
X0039398Y0084834D02*
X0123886Y0084834D01*
X0122887Y0085833D02*
X0039359Y0085833D01*
X0038945Y0086831D02*
X0121889Y0086831D01*
X0120890Y0087830D02*
X0038052Y0087830D01*
X0033819Y0087830D02*
X0029052Y0087830D01*
X0029945Y0086831D02*
X0032926Y0086831D01*
X0032512Y0085833D02*
X0030359Y0085833D01*
X0030398Y0084834D02*
X0032473Y0084834D01*
X0032691Y0083836D02*
X0030180Y0083836D01*
X0029619Y0082837D02*
X0033252Y0082837D01*
X0034641Y0081839D02*
X0028230Y0081839D01*
X0026908Y0088828D02*
X0119720Y0088828D01*
X0119423Y0095818D02*
X0109259Y0095818D01*
X0109258Y0096816D02*
X0108259Y0096816D01*
X0108258Y0095818D02*
X0101803Y0095818D01*
X0101908Y0094819D02*
X0104503Y0094819D01*
X0104503Y0093821D02*
X0101908Y0093821D01*
X0101590Y0092822D02*
X0104503Y0092822D01*
X0104555Y0091824D02*
X0101176Y0091824D01*
X0100211Y0090825D02*
X0105410Y0090825D01*
X0108259Y0090825D02*
X0109258Y0090825D01*
X0109258Y0091824D02*
X0108259Y0091824D01*
X0108259Y0092822D02*
X0109258Y0092822D01*
X0109258Y0093821D02*
X0108259Y0093821D01*
X0108259Y0094819D02*
X0109258Y0094819D01*
X0109258Y0097815D02*
X0108259Y0097815D01*
X0108259Y0098813D02*
X0109258Y0098813D01*
X0109258Y0099812D02*
X0108259Y0099812D01*
X0108259Y0100810D02*
X0109258Y0100810D01*
X0112830Y0100810D02*
X0124066Y0100810D01*
X0123850Y0101809D02*
X0037158Y0101809D01*
X0038589Y0102807D02*
X0123597Y0102807D01*
X0123597Y0103806D02*
X0039168Y0103806D01*
X0039398Y0104804D02*
X0127550Y0104804D01*
X0127550Y0105803D02*
X0128550Y0105803D01*
X0128550Y0106801D02*
X0127550Y0106801D01*
X0127550Y0107800D02*
X0128550Y0107800D01*
X0128550Y0108798D02*
X0127550Y0108798D01*
X0124008Y0108798D02*
X0102042Y0108798D01*
X0102857Y0109797D02*
X0141110Y0109797D01*
X0141110Y0108798D02*
X0132092Y0108798D01*
X0132503Y0107800D02*
X0141110Y0107800D01*
X0141110Y0106801D02*
X0132503Y0106801D01*
X0132503Y0105803D02*
X0141110Y0105803D01*
X0141110Y0104804D02*
X0128550Y0104804D01*
X0132034Y0100810D02*
X0139666Y0100810D01*
X0138668Y0099812D02*
X0132103Y0099812D01*
X0132250Y0101809D02*
X0140665Y0101809D01*
X0141110Y0102807D02*
X0132503Y0102807D01*
X0132503Y0103806D02*
X0141110Y0103806D01*
X0144910Y0103806D02*
X0146825Y0103806D01*
X0146825Y0102807D02*
X0144910Y0102807D01*
X0144910Y0101809D02*
X0147078Y0101809D01*
X0147294Y0100810D02*
X0145567Y0100810D01*
X0146566Y0099812D02*
X0147225Y0099812D01*
X0147225Y0095818D02*
X0132103Y0095818D01*
X0132103Y0094819D02*
X0147225Y0094819D01*
X0144187Y0096816D02*
X0141046Y0096816D01*
X0142045Y0097815D02*
X0143189Y0097815D01*
X0141311Y0093821D02*
X0163264Y0093821D01*
X0163779Y0092822D02*
X0141767Y0092822D01*
X0144910Y0104804D02*
X0150778Y0104804D01*
X0150778Y0105803D02*
X0151778Y0105803D01*
X0151778Y0106801D02*
X0150778Y0106801D01*
X0150778Y0107800D02*
X0151778Y0107800D01*
X0151778Y0108798D02*
X0150778Y0108798D01*
X0147236Y0108798D02*
X0144910Y0108798D01*
X0144910Y0107800D02*
X0146825Y0107800D01*
X0146825Y0106801D02*
X0144910Y0106801D01*
X0144910Y0105803D02*
X0146825Y0105803D01*
X0144910Y0109797D02*
X0158821Y0109797D01*
X0158161Y0110795D02*
X0155331Y0110795D01*
X0155320Y0108798D02*
X0159592Y0108798D01*
X0162649Y0108798D02*
X0169457Y0108798D01*
X0169457Y0107800D02*
X0168082Y0107800D01*
X0167897Y0107985D02*
X0166624Y0108512D01*
X0165247Y0108512D01*
X0163975Y0107985D01*
X0163001Y0107011D01*
X0162473Y0105739D01*
X0162473Y0104361D01*
X0163001Y0103089D01*
X0163975Y0102115D01*
X0165247Y0101588D01*
X0166624Y0101588D01*
X0167897Y0102115D01*
X0168871Y0103089D01*
X0169398Y0104361D01*
X0169398Y0105739D01*
X0168871Y0107011D01*
X0167897Y0107985D01*
X0168958Y0106801D02*
X0169457Y0106801D01*
X0169457Y0105803D02*
X0169371Y0105803D01*
X0169398Y0104804D02*
X0169457Y0104804D01*
X0169457Y0103806D02*
X0169168Y0103806D01*
X0169457Y0102807D02*
X0168589Y0102807D01*
X0169457Y0101809D02*
X0167158Y0101809D01*
X0169457Y0100810D02*
X0163814Y0100810D01*
X0163814Y0099812D02*
X0169457Y0099812D01*
X0169457Y0098813D02*
X0167813Y0098813D01*
X0167223Y0098813D02*
X0166648Y0098813D01*
X0166648Y0098912D02*
X0166555Y0098912D01*
X0165809Y0098764D01*
X0165106Y0098473D01*
X0164474Y0098050D01*
X0163936Y0097512D01*
X0163513Y0096879D01*
X0163222Y0096177D01*
X0163073Y0095430D01*
X0163073Y0095337D01*
X0166648Y0095337D01*
X0166648Y0098912D01*
X0166058Y0098813D02*
X0162900Y0098813D01*
X0164238Y0097815D02*
X0161336Y0097815D01*
X0160338Y0096816D02*
X0163487Y0096816D01*
X0163151Y0095818D02*
X0155331Y0095818D01*
X0155331Y0094819D02*
X0166648Y0094819D01*
X0166648Y0095818D02*
X0167223Y0095818D01*
X0167223Y0096816D02*
X0166648Y0096816D01*
X0166648Y0097815D02*
X0167223Y0097815D01*
X0164713Y0101809D02*
X0163638Y0101809D01*
X0163282Y0102807D02*
X0162640Y0102807D01*
X0162704Y0103806D02*
X0155731Y0103806D01*
X0155731Y0102807D02*
X0160389Y0102807D01*
X0159391Y0101809D02*
X0155478Y0101809D01*
X0155262Y0100810D02*
X0158958Y0100810D01*
X0157959Y0099812D02*
X0155331Y0099812D01*
X0151778Y0104804D02*
X0162473Y0104804D01*
X0162500Y0105803D02*
X0155731Y0105803D01*
X0155731Y0106801D02*
X0162914Y0106801D01*
X0163789Y0107800D02*
X0155731Y0107800D01*
X0155331Y0115788D02*
X0158821Y0115788D01*
X0159221Y0116787D02*
X0155034Y0116787D01*
X0155610Y0117785D02*
X0159221Y0117785D01*
X0158440Y0118784D02*
X0155731Y0118784D01*
X0155731Y0119782D02*
X0157442Y0119782D01*
X0156465Y0120781D02*
X0151778Y0120781D01*
X0151778Y0121779D02*
X0150778Y0121779D01*
X0150778Y0120781D02*
X0140557Y0120781D01*
X0139559Y0121779D02*
X0146825Y0121779D01*
X0146825Y0122778D02*
X0138560Y0122778D01*
X0137562Y0123776D02*
X0146843Y0123776D01*
X0147508Y0124775D02*
X0136563Y0124775D01*
X0136249Y0125773D02*
X0156465Y0125773D01*
X0156465Y0124775D02*
X0155049Y0124775D01*
X0155714Y0123776D02*
X0156465Y0123776D01*
X0156465Y0122778D02*
X0155731Y0122778D01*
X0155731Y0121779D02*
X0156465Y0121779D01*
X0160265Y0122778D02*
X0163312Y0122778D01*
X0163001Y0123089D02*
X0163975Y0122115D01*
X0165247Y0121588D01*
X0166624Y0121588D01*
X0167897Y0122115D01*
X0168871Y0123089D01*
X0169398Y0124361D01*
X0169398Y0125739D01*
X0168871Y0127011D01*
X0167897Y0127985D01*
X0166624Y0128512D01*
X0165247Y0128512D01*
X0163975Y0127985D01*
X0163001Y0127011D01*
X0162473Y0125739D01*
X0162473Y0124361D01*
X0163001Y0123089D01*
X0162716Y0123776D02*
X0160265Y0123776D01*
X0160265Y0124775D02*
X0162473Y0124775D01*
X0162488Y0125773D02*
X0160265Y0125773D01*
X0160265Y0126772D02*
X0162901Y0126772D01*
X0163760Y0127770D02*
X0160265Y0127770D01*
X0160265Y0128769D02*
X0176908Y0128769D01*
X0176908Y0129767D02*
X0159917Y0129767D01*
X0158919Y0130766D02*
X0176908Y0130766D01*
X0174821Y0131764D02*
X0168050Y0131764D01*
X0167624Y0131588D02*
X0166247Y0131588D01*
X0164975Y0132115D01*
X0164001Y0133089D01*
X0163473Y0134361D01*
X0163473Y0135739D01*
X0164001Y0137011D01*
X0164975Y0137985D01*
X0166247Y0138512D01*
X0167624Y0138512D01*
X0168897Y0137985D01*
X0169871Y0137011D01*
X0170398Y0135739D01*
X0170398Y0134361D01*
X0169871Y0133089D01*
X0168897Y0132115D01*
X0167624Y0131588D01*
X0165821Y0131764D02*
X0157920Y0131764D01*
X0156922Y0132763D02*
X0164327Y0132763D01*
X0163722Y0133761D02*
X0155923Y0133761D01*
X0156250Y0136275D02*
X0159384Y0139409D01*
X0159384Y0143841D01*
X0156250Y0146975D01*
X0151818Y0146975D01*
X0148684Y0143841D01*
X0148684Y0139409D01*
X0151818Y0136275D01*
X0156250Y0136275D01*
X0156732Y0136757D02*
X0163895Y0136757D01*
X0163482Y0135758D02*
X0145095Y0135758D01*
X0145095Y0134760D02*
X0163473Y0134760D01*
X0164745Y0137755D02*
X0157731Y0137755D01*
X0158729Y0138754D02*
X0176908Y0138754D01*
X0176908Y0139752D02*
X0159384Y0139752D01*
X0159384Y0140751D02*
X0176908Y0140751D01*
X0175857Y0141749D02*
X0167014Y0141749D01*
X0166624Y0141588D02*
X0167897Y0142115D01*
X0168871Y0143089D01*
X0169398Y0144361D01*
X0169398Y0145739D01*
X0168871Y0147011D01*
X0167897Y0147985D01*
X0166624Y0148512D01*
X0165247Y0148512D01*
X0163975Y0147985D01*
X0163001Y0147011D01*
X0162473Y0145739D01*
X0162473Y0144361D01*
X0163001Y0143089D01*
X0163975Y0142115D01*
X0165247Y0141588D01*
X0166624Y0141588D01*
X0164857Y0141749D02*
X0159384Y0141749D01*
X0159384Y0142748D02*
X0163342Y0142748D01*
X0162728Y0143746D02*
X0159384Y0143746D01*
X0158480Y0144745D02*
X0162473Y0144745D01*
X0162475Y0145743D02*
X0157482Y0145743D01*
X0156483Y0146742D02*
X0162889Y0146742D01*
X0163730Y0147740D02*
X0145095Y0147740D01*
X0145095Y0147468D02*
X0145095Y0153498D01*
X0144450Y0154142D01*
X0137634Y0154142D01*
X0136989Y0153498D01*
X0136989Y0147468D01*
X0137634Y0146824D01*
X0139142Y0146824D01*
X0139142Y0144300D01*
X0137634Y0144300D01*
X0136989Y0143655D01*
X0136989Y0137626D01*
X0137634Y0136981D01*
X0144450Y0136981D01*
X0145095Y0137626D01*
X0145095Y0143655D01*
X0144450Y0144300D01*
X0142942Y0144300D01*
X0142942Y0146824D01*
X0144450Y0146824D01*
X0145095Y0147468D01*
X0145095Y0148739D02*
X0151165Y0148739D01*
X0151818Y0148086D02*
X0156250Y0148086D01*
X0159384Y0151220D01*
X0159384Y0155652D01*
X0156250Y0158786D01*
X0151818Y0158786D01*
X0148684Y0155652D01*
X0148684Y0151220D01*
X0151818Y0148086D01*
X0151585Y0146742D02*
X0142942Y0146742D01*
X0142942Y0145743D02*
X0150587Y0145743D01*
X0149588Y0144745D02*
X0142942Y0144745D01*
X0145004Y0143746D02*
X0148684Y0143746D01*
X0148684Y0142748D02*
X0145095Y0142748D01*
X0145095Y0141749D02*
X0148684Y0141749D01*
X0148684Y0140751D02*
X0145095Y0140751D01*
X0145095Y0139752D02*
X0148684Y0139752D01*
X0149339Y0138754D02*
X0145095Y0138754D01*
X0145095Y0137755D02*
X0150338Y0137755D01*
X0151336Y0136757D02*
X0144513Y0136757D01*
X0137571Y0136757D02*
X0136249Y0136757D01*
X0136249Y0137755D02*
X0136989Y0137755D01*
X0136989Y0138754D02*
X0136249Y0138754D01*
X0136249Y0139752D02*
X0136989Y0139752D01*
X0136989Y0140751D02*
X0136249Y0140751D01*
X0136249Y0141749D02*
X0136989Y0141749D01*
X0136989Y0142748D02*
X0136249Y0142748D01*
X0136249Y0143746D02*
X0137080Y0143746D01*
X0136249Y0144745D02*
X0139142Y0144745D01*
X0139142Y0145743D02*
X0136249Y0145743D01*
X0136249Y0146742D02*
X0139142Y0146742D01*
X0136989Y0147740D02*
X0136249Y0147740D01*
X0136249Y0148739D02*
X0136989Y0148739D01*
X0136989Y0149737D02*
X0136249Y0149737D01*
X0136249Y0150736D02*
X0136989Y0150736D01*
X0136989Y0151734D02*
X0136249Y0151734D01*
X0136249Y0152733D02*
X0136989Y0152733D01*
X0137223Y0153731D02*
X0136249Y0153731D01*
X0136249Y0154730D02*
X0137208Y0154730D01*
X0136989Y0155728D02*
X0136249Y0155728D01*
X0136249Y0156727D02*
X0136989Y0156727D01*
X0136989Y0157725D02*
X0136249Y0157725D01*
X0136066Y0165714D02*
X0135706Y0165714D01*
X0136705Y0166712D02*
X0137064Y0166712D01*
X0137043Y0167711D02*
X0138063Y0167711D01*
X0139061Y0168709D02*
X0137043Y0168709D01*
X0136291Y0169708D02*
X0140060Y0169708D01*
X0145348Y0163717D02*
X0162741Y0163717D01*
X0163001Y0163089D02*
X0163975Y0162115D01*
X0165247Y0161588D01*
X0166624Y0161588D01*
X0167897Y0162115D01*
X0168871Y0163089D01*
X0169398Y0164361D01*
X0169398Y0165739D01*
X0168871Y0167011D01*
X0167897Y0167985D01*
X0166624Y0168512D01*
X0165247Y0168512D01*
X0163975Y0167985D01*
X0163001Y0167011D01*
X0162473Y0165739D01*
X0162473Y0164361D01*
X0163001Y0163089D01*
X0163371Y0162718D02*
X0144350Y0162718D01*
X0143351Y0161720D02*
X0164929Y0161720D01*
X0166247Y0158512D02*
X0164975Y0157985D01*
X0164001Y0157011D01*
X0163473Y0155739D01*
X0163473Y0154361D01*
X0164001Y0153089D01*
X0164975Y0152115D01*
X0166247Y0151588D01*
X0167624Y0151588D01*
X0168897Y0152115D01*
X0169871Y0153089D01*
X0170398Y0154361D01*
X0170398Y0155739D01*
X0169871Y0157011D01*
X0168897Y0157985D01*
X0167624Y0158512D01*
X0166247Y0158512D01*
X0164715Y0157725D02*
X0157310Y0157725D01*
X0156312Y0158724D02*
X0176908Y0158724D01*
X0176908Y0159722D02*
X0145095Y0159722D01*
X0145095Y0158724D02*
X0151756Y0158724D01*
X0150758Y0157725D02*
X0145095Y0157725D01*
X0145095Y0156727D02*
X0149759Y0156727D01*
X0148761Y0155728D02*
X0145095Y0155728D01*
X0144876Y0154730D02*
X0148684Y0154730D01*
X0148684Y0153731D02*
X0144861Y0153731D01*
X0145095Y0152733D02*
X0148684Y0152733D01*
X0148684Y0151734D02*
X0145095Y0151734D01*
X0145095Y0150736D02*
X0149168Y0150736D01*
X0150167Y0149737D02*
X0145095Y0149737D01*
X0145095Y0160721D02*
X0176908Y0160721D01*
X0175929Y0161720D02*
X0166942Y0161720D01*
X0168500Y0162718D02*
X0174371Y0162718D01*
X0173741Y0163717D02*
X0169131Y0163717D01*
X0169398Y0164715D02*
X0173473Y0164715D01*
X0173473Y0165714D02*
X0169398Y0165714D01*
X0168995Y0166712D02*
X0173877Y0166712D01*
X0174700Y0167711D02*
X0168171Y0167711D01*
X0163700Y0167711D02*
X0149342Y0167711D01*
X0150341Y0168709D02*
X0176908Y0168709D01*
X0176908Y0169708D02*
X0151339Y0169708D01*
X0152338Y0170706D02*
X0176908Y0170706D01*
X0165965Y0171705D02*
X0153336Y0171705D01*
X0154335Y0172703D02*
X0164386Y0172703D01*
X0163747Y0173702D02*
X0155333Y0173702D01*
X0156332Y0174700D02*
X0163473Y0174700D01*
X0163473Y0175699D02*
X0157330Y0175699D01*
X0158329Y0176697D02*
X0163871Y0176697D01*
X0164685Y0177696D02*
X0159327Y0177696D01*
X0162877Y0166712D02*
X0148344Y0166712D01*
X0147345Y0165714D02*
X0162473Y0165714D01*
X0162473Y0164715D02*
X0146347Y0164715D01*
X0148048Y0177696D02*
X0039186Y0177696D01*
X0038171Y0167711D02*
X0041206Y0167711D01*
X0033789Y0107800D02*
X0029082Y0107800D01*
X0029958Y0106801D02*
X0032914Y0106801D01*
X0032500Y0105803D02*
X0030371Y0105803D01*
X0030398Y0104804D02*
X0032473Y0104804D01*
X0032704Y0103806D02*
X0030168Y0103806D01*
X0029589Y0102807D02*
X0033282Y0102807D01*
X0034713Y0101809D02*
X0028158Y0101809D01*
X0026908Y0100810D02*
X0042482Y0100810D01*
X0042298Y0099812D02*
X0026908Y0099812D01*
X0039371Y0105803D02*
X0123597Y0105803D01*
X0119205Y0099812D02*
X0113014Y0099812D01*
X0113014Y0098813D02*
X0118270Y0098813D01*
X0118270Y0097815D02*
X0113014Y0097815D01*
X0113014Y0096816D02*
X0118425Y0096816D01*
X0121716Y0095818D02*
X0123997Y0095818D01*
X0123997Y0094819D02*
X0113014Y0094819D01*
X0104687Y0100810D02*
X0050626Y0100810D01*
X0050810Y0099812D02*
X0104503Y0099812D01*
X0104503Y0098813D02*
X0099684Y0098813D01*
X0100726Y0097815D02*
X0104503Y0097815D01*
X0104503Y0096816D02*
X0101390Y0096816D01*
X0094211Y0098813D02*
X0068188Y0098813D01*
X0069230Y0097815D02*
X0093169Y0097815D01*
X0092505Y0096816D02*
X0069893Y0096816D01*
X0070307Y0095818D02*
X0092092Y0095818D01*
X0091987Y0094819D02*
X0070412Y0094819D01*
X0070412Y0093821D02*
X0091987Y0093821D01*
X0092305Y0092822D02*
X0070094Y0092822D01*
X0069680Y0091824D02*
X0092719Y0091824D01*
X0093684Y0090825D02*
X0068714Y0090825D01*
X0047054Y0090825D02*
X0046054Y0090825D01*
X0046054Y0091824D02*
X0047054Y0091824D01*
X0047054Y0092822D02*
X0046054Y0092822D01*
X0046054Y0093821D02*
X0047054Y0093821D01*
X0047054Y0094819D02*
X0046054Y0094819D01*
X0046054Y0097815D02*
X0047054Y0097815D01*
X0047054Y0098813D02*
X0046054Y0098813D01*
X0046054Y0099812D02*
X0047054Y0099812D01*
X0047054Y0100810D02*
X0046054Y0100810D01*
X0042298Y0093821D02*
X0040174Y0093821D01*
X0039604Y0092822D02*
X0042298Y0092822D01*
X0038619Y0082837D02*
X0125883Y0082837D01*
X0126881Y0081839D02*
X0037230Y0081839D01*
X0037993Y0047889D02*
X0117488Y0047889D01*
X0117488Y0046891D02*
X0038921Y0046891D01*
X0039334Y0045892D02*
X0079852Y0045892D01*
X0080247Y0046287D02*
X0078899Y0044940D01*
X0078899Y0043034D01*
X0079299Y0042634D01*
X0079299Y0034145D01*
X0088781Y0024663D01*
X0088781Y0024097D01*
X0090129Y0022750D01*
X0092034Y0022750D01*
X0093381Y0024097D01*
X0093381Y0026003D01*
X0092034Y0027350D01*
X0091468Y0027350D01*
X0083099Y0035719D01*
X0083099Y0042634D01*
X0083499Y0043034D01*
X0083499Y0044940D01*
X0082152Y0046287D01*
X0080247Y0046287D01*
X0078899Y0044894D02*
X0053146Y0044894D01*
X0053057Y0044982D02*
X0051550Y0045607D01*
X0043919Y0045607D01*
X0042412Y0044982D01*
X0041259Y0043829D01*
X0040635Y0042322D01*
X0040635Y0040691D01*
X0041259Y0039184D01*
X0042412Y0038031D01*
X0043919Y0037407D01*
X0051550Y0037407D01*
X0053057Y0038031D01*
X0054211Y0039184D01*
X0054835Y0040691D01*
X0054835Y0042322D01*
X0054211Y0043829D01*
X0053057Y0044982D01*
X0054145Y0043895D02*
X0078899Y0043895D01*
X0079037Y0042897D02*
X0054597Y0042897D01*
X0054835Y0041898D02*
X0079299Y0041898D01*
X0079299Y0040900D02*
X0054835Y0040900D01*
X0054508Y0039901D02*
X0079299Y0039901D01*
X0079299Y0038903D02*
X0053929Y0038903D01*
X0052751Y0037904D02*
X0079299Y0037904D01*
X0079299Y0036906D02*
X0039915Y0036906D01*
X0040328Y0035907D02*
X0043752Y0035907D01*
X0043681Y0035896D02*
X0043007Y0035677D01*
X0042376Y0035355D01*
X0041803Y0034939D01*
X0041302Y0034438D01*
X0040886Y0033865D01*
X0040565Y0033234D01*
X0040346Y0032560D01*
X0040258Y0032007D01*
X0047235Y0032007D01*
X0047235Y0036007D01*
X0044381Y0036007D01*
X0043681Y0035896D01*
X0041773Y0034909D02*
X0040398Y0034909D01*
X0040211Y0033910D02*
X0040919Y0033910D01*
X0040460Y0032912D02*
X0039694Y0032912D01*
X0038410Y0031913D02*
X0047235Y0031913D01*
X0047235Y0032007D02*
X0047235Y0031007D01*
X0048235Y0031007D01*
X0048235Y0032007D01*
X0047235Y0032007D01*
X0047235Y0032912D02*
X0048235Y0032912D01*
X0048235Y0032007D02*
X0048235Y0036007D01*
X0051089Y0036007D01*
X0051789Y0035896D01*
X0052462Y0035677D01*
X0053093Y0035355D01*
X0053666Y0034939D01*
X0054167Y0034438D01*
X0054584Y0033865D01*
X0054905Y0033234D01*
X0055124Y0032560D01*
X0055212Y0032007D01*
X0048235Y0032007D01*
X0048235Y0031913D02*
X0081531Y0031913D01*
X0080533Y0032912D02*
X0055010Y0032912D01*
X0054551Y0033910D02*
X0079534Y0033910D01*
X0079299Y0034909D02*
X0053697Y0034909D01*
X0051718Y0035907D02*
X0079299Y0035907D01*
X0083099Y0035907D02*
X0086780Y0035907D01*
X0086780Y0034909D02*
X0083910Y0034909D01*
X0084908Y0033910D02*
X0086780Y0033910D01*
X0086780Y0033357D02*
X0090317Y0029820D01*
X0090317Y0029255D01*
X0091664Y0027907D01*
X0093569Y0027907D01*
X0094917Y0029255D01*
X0094917Y0031160D01*
X0093569Y0032507D01*
X0093004Y0032507D01*
X0090580Y0034931D01*
X0090580Y0042634D01*
X0090980Y0043034D01*
X0090980Y0044940D01*
X0089632Y0046287D01*
X0087727Y0046287D01*
X0086380Y0044940D01*
X0086380Y0043034D01*
X0086780Y0042634D01*
X0086780Y0033357D01*
X0087226Y0032912D02*
X0085907Y0032912D01*
X0086905Y0031913D02*
X0088224Y0031913D01*
X0087904Y0030915D02*
X0089223Y0030915D01*
X0088902Y0029916D02*
X0090221Y0029916D01*
X0089901Y0028918D02*
X0090654Y0028918D01*
X0090899Y0027919D02*
X0091653Y0027919D01*
X0092464Y0026920D02*
X0117488Y0026920D01*
X0117488Y0025922D02*
X0093381Y0025922D01*
X0093381Y0024923D02*
X0117488Y0024923D01*
X0117488Y0023925D02*
X0093209Y0023925D01*
X0092210Y0022926D02*
X0117488Y0022926D01*
X0117488Y0021928D02*
X0054476Y0021928D01*
X0054835Y0020929D02*
X0117488Y0020929D01*
X0117488Y0019931D02*
X0054835Y0019931D01*
X0054628Y0018932D02*
X0117488Y0018932D01*
X0117488Y0017934D02*
X0054215Y0017934D01*
X0053222Y0016935D02*
X0117488Y0016935D01*
X0114846Y0013940D02*
X0053308Y0013940D01*
X0054340Y0012941D02*
X0114038Y0012941D01*
X0114038Y0011943D02*
X0054915Y0011943D01*
X0048235Y0011943D02*
X0047235Y0011943D01*
X0047235Y0012941D02*
X0048235Y0012941D01*
X0048235Y0013940D02*
X0047235Y0013940D01*
X0040426Y0008947D02*
X0026908Y0008947D01*
X0026908Y0007949D02*
X0027223Y0007949D01*
X0027223Y0006950D02*
X0026908Y0006950D01*
X0029499Y0007949D02*
X0033938Y0007949D01*
X0032975Y0006950D02*
X0030311Y0006950D01*
X0027481Y0011943D02*
X0035390Y0011943D01*
X0034148Y0012941D02*
X0028723Y0012941D01*
X0029223Y0013940D02*
X0033648Y0013940D01*
X0033473Y0014938D02*
X0029398Y0014938D01*
X0029316Y0015937D02*
X0033556Y0015937D01*
X0033969Y0016935D02*
X0028902Y0016935D01*
X0027948Y0017934D02*
X0034923Y0017934D01*
X0037445Y0021928D02*
X0040993Y0021928D01*
X0041616Y0022926D02*
X0038708Y0022926D01*
X0039217Y0023925D02*
X0042901Y0023925D01*
X0039398Y0024923D02*
X0088521Y0024923D01*
X0088954Y0023925D02*
X0052569Y0023925D01*
X0053854Y0022926D02*
X0089952Y0022926D01*
X0087522Y0025922D02*
X0039322Y0025922D01*
X0038908Y0026920D02*
X0086524Y0026920D01*
X0085525Y0027919D02*
X0053453Y0027919D01*
X0053666Y0028074D02*
X0054167Y0028575D01*
X0054584Y0029148D01*
X0054905Y0029779D01*
X0055124Y0030453D01*
X0055212Y0031007D01*
X0048235Y0031007D01*
X0048235Y0027007D01*
X0051089Y0027007D01*
X0051789Y0027117D01*
X0052462Y0027336D01*
X0053093Y0027658D01*
X0053666Y0028074D01*
X0054416Y0028918D02*
X0084527Y0028918D01*
X0083528Y0029916D02*
X0054950Y0029916D01*
X0055197Y0030915D02*
X0082530Y0030915D01*
X0083099Y0036906D02*
X0086780Y0036906D01*
X0086780Y0037904D02*
X0083099Y0037904D01*
X0083099Y0038903D02*
X0086780Y0038903D01*
X0086780Y0039901D02*
X0083099Y0039901D01*
X0083099Y0040900D02*
X0086780Y0040900D01*
X0086780Y0041898D02*
X0083099Y0041898D01*
X0083362Y0042897D02*
X0086517Y0042897D01*
X0086380Y0043895D02*
X0083499Y0043895D01*
X0083499Y0044894D02*
X0086380Y0044894D01*
X0087332Y0045892D02*
X0082547Y0045892D01*
X0090027Y0045892D02*
X0117488Y0045892D01*
X0117488Y0044894D02*
X0090980Y0044894D01*
X0090980Y0043895D02*
X0117488Y0043895D01*
X0117488Y0042897D02*
X0090842Y0042897D01*
X0090580Y0041898D02*
X0117488Y0041898D01*
X0117488Y0040900D02*
X0090580Y0040900D01*
X0090580Y0039901D02*
X0117488Y0039901D01*
X0117488Y0038903D02*
X0090580Y0038903D01*
X0090580Y0037904D02*
X0117488Y0037904D01*
X0117488Y0036906D02*
X0090580Y0036906D01*
X0090580Y0035907D02*
X0117488Y0035907D01*
X0117488Y0034909D02*
X0090603Y0034909D01*
X0091601Y0033910D02*
X0117488Y0033910D01*
X0117488Y0032912D02*
X0092600Y0032912D01*
X0094164Y0031913D02*
X0117488Y0031913D01*
X0117488Y0030915D02*
X0094917Y0030915D01*
X0094917Y0029916D02*
X0117488Y0029916D01*
X0117488Y0028918D02*
X0094580Y0028918D01*
X0093581Y0027919D02*
X0117488Y0027919D01*
X0132706Y0018932D02*
X0148340Y0018932D01*
X0147341Y0017934D02*
X0132706Y0017934D01*
X0132706Y0016935D02*
X0146343Y0016935D01*
X0140465Y0015937D02*
X0133745Y0015937D01*
X0134743Y0014938D02*
X0139467Y0014938D01*
X0138468Y0013940D02*
X0135742Y0013940D01*
X0136549Y0012941D02*
X0137660Y0012941D01*
X0137660Y0011943D02*
X0136549Y0011943D01*
X0136549Y0010944D02*
X0137660Y0010944D01*
X0137660Y0009946D02*
X0136549Y0009946D01*
X0136549Y0008947D02*
X0137660Y0008947D01*
X0138412Y0007949D02*
X0135798Y0007949D01*
X0134800Y0006950D02*
X0139410Y0006950D01*
X0161446Y0041898D02*
X0164498Y0041898D01*
X0163193Y0042897D02*
X0161446Y0042897D01*
X0161446Y0043895D02*
X0162667Y0043895D01*
X0162473Y0044894D02*
X0161446Y0044894D01*
X0161446Y0045892D02*
X0162537Y0045892D01*
X0162951Y0046891D02*
X0161446Y0046891D01*
X0161446Y0047889D02*
X0163879Y0047889D01*
X0164208Y0052882D02*
X0161446Y0052882D01*
X0161446Y0053880D02*
X0163673Y0053880D01*
X0163473Y0054879D02*
X0161446Y0054879D01*
X0161446Y0055877D02*
X0163531Y0055877D01*
X0163945Y0056876D02*
X0161446Y0056876D01*
X0161446Y0057874D02*
X0164864Y0057874D01*
X0164641Y0081839D02*
X0161446Y0081839D01*
X0161446Y0082837D02*
X0163252Y0082837D01*
X0162691Y0083836D02*
X0161446Y0083836D01*
X0161913Y0084834D02*
X0162473Y0084834D01*
X0162633Y0086125D02*
X0162633Y0087459D01*
X0161943Y0088150D01*
X0164373Y0088150D01*
X0163975Y0087985D01*
X0163001Y0087011D01*
X0162633Y0086125D01*
X0162633Y0086831D02*
X0162926Y0086831D01*
X0162263Y0087830D02*
X0163819Y0087830D01*
X0168052Y0087830D02*
X0174819Y0087830D01*
X0173926Y0086831D02*
X0168945Y0086831D01*
X0169359Y0085833D02*
X0173512Y0085833D01*
X0173473Y0084834D02*
X0169398Y0084834D01*
X0169180Y0083836D02*
X0173691Y0083836D01*
X0174252Y0082837D02*
X0168619Y0082837D01*
X0170534Y0088828D02*
X0176908Y0088828D01*
X0176908Y0089827D02*
X0171745Y0089827D01*
X0172428Y0090510D02*
X0172428Y0090510D01*
X0172559Y0090825D02*
X0176908Y0090825D01*
X0176223Y0091824D02*
X0175648Y0091824D01*
X0175648Y0092822D02*
X0176223Y0092822D01*
X0176223Y0093821D02*
X0175648Y0093821D01*
X0175648Y0095818D02*
X0176223Y0095818D01*
X0176223Y0096816D02*
X0175648Y0096816D01*
X0175648Y0097815D02*
X0176223Y0097815D01*
X0176223Y0098813D02*
X0175648Y0098813D01*
X0175058Y0098813D02*
X0173257Y0098813D01*
X0173257Y0099812D02*
X0176908Y0099812D01*
X0176908Y0100810D02*
X0173257Y0100810D01*
X0173257Y0101809D02*
X0175713Y0101809D01*
X0174282Y0102807D02*
X0173257Y0102807D01*
X0173257Y0103806D02*
X0173704Y0103806D01*
X0173473Y0104804D02*
X0173257Y0104804D01*
X0173257Y0105803D02*
X0173500Y0105803D01*
X0173257Y0106801D02*
X0173914Y0106801D01*
X0173257Y0107800D02*
X0174789Y0107800D01*
X0173257Y0108798D02*
X0176908Y0108798D01*
X0176908Y0109797D02*
X0173257Y0109797D01*
X0173257Y0110795D02*
X0176908Y0110795D01*
X0174749Y0111794D02*
X0172879Y0111794D01*
X0173297Y0112792D02*
X0171880Y0112792D01*
X0172710Y0113791D02*
X0170882Y0113791D01*
X0170398Y0114789D02*
X0172473Y0114789D01*
X0172494Y0115788D02*
X0170377Y0115788D01*
X0169964Y0116787D02*
X0172908Y0116787D01*
X0173774Y0117785D02*
X0169097Y0117785D01*
X0167086Y0121779D02*
X0175785Y0121779D01*
X0176908Y0120781D02*
X0161817Y0120781D01*
X0160819Y0121779D02*
X0164785Y0121779D01*
X0162816Y0119782D02*
X0176908Y0119782D01*
X0176908Y0118784D02*
X0163021Y0118784D01*
X0163021Y0117785D02*
X0164774Y0117785D01*
X0163908Y0116787D02*
X0163021Y0116787D01*
X0163421Y0115788D02*
X0163494Y0115788D01*
X0163473Y0114789D02*
X0163421Y0114789D01*
X0163710Y0113791D02*
X0162918Y0113791D01*
X0162103Y0112792D02*
X0164297Y0112792D01*
X0163102Y0111794D02*
X0165749Y0111794D01*
X0163421Y0110795D02*
X0168503Y0110795D01*
X0169457Y0109797D02*
X0163421Y0109797D01*
X0168560Y0122778D02*
X0174312Y0122778D01*
X0173716Y0123776D02*
X0169155Y0123776D01*
X0169398Y0124775D02*
X0173473Y0124775D01*
X0173488Y0125773D02*
X0169384Y0125773D01*
X0168970Y0126772D02*
X0173901Y0126772D01*
X0174760Y0127770D02*
X0168112Y0127770D01*
X0169545Y0132763D02*
X0173327Y0132763D01*
X0172722Y0133761D02*
X0170149Y0133761D01*
X0170398Y0134760D02*
X0172473Y0134760D01*
X0172482Y0135758D02*
X0170390Y0135758D01*
X0169976Y0136757D02*
X0172895Y0136757D01*
X0173745Y0137755D02*
X0169127Y0137755D01*
X0168530Y0142748D02*
X0174342Y0142748D01*
X0173728Y0143746D02*
X0169143Y0143746D01*
X0169398Y0144745D02*
X0173473Y0144745D01*
X0173475Y0145743D02*
X0169396Y0145743D01*
X0168982Y0146742D02*
X0173889Y0146742D01*
X0174730Y0147740D02*
X0168142Y0147740D01*
X0167978Y0151734D02*
X0174893Y0151734D01*
X0173356Y0152733D02*
X0169515Y0152733D01*
X0170137Y0153731D02*
X0172734Y0153731D01*
X0172473Y0154730D02*
X0170398Y0154730D01*
X0170398Y0155728D02*
X0172473Y0155728D01*
X0172883Y0156727D02*
X0169989Y0156727D01*
X0169156Y0157725D02*
X0173715Y0157725D01*
X0176908Y0150736D02*
X0158900Y0150736D01*
X0159384Y0151734D02*
X0165893Y0151734D01*
X0164356Y0152733D02*
X0159384Y0152733D01*
X0159384Y0153731D02*
X0163734Y0153731D01*
X0163473Y0154730D02*
X0159384Y0154730D01*
X0159308Y0155728D02*
X0163473Y0155728D01*
X0163883Y0156727D02*
X0158309Y0156727D01*
X0157902Y0149737D02*
X0176908Y0149737D01*
X0176908Y0148739D02*
X0156903Y0148739D01*
X0154543Y0129767D02*
X0144716Y0129767D01*
X0137368Y0129767D02*
X0136249Y0129767D01*
X0136249Y0128769D02*
X0155542Y0128769D01*
X0156465Y0127770D02*
X0136249Y0127770D01*
X0136249Y0126772D02*
X0156465Y0126772D01*
X0151778Y0124775D02*
X0150778Y0124775D01*
X0150778Y0123776D02*
X0151778Y0123776D01*
X0151778Y0122778D02*
X0150778Y0122778D01*
X0146825Y0119782D02*
X0141556Y0119782D01*
X0142554Y0118784D02*
X0146825Y0118784D01*
X0146946Y0117785D02*
X0143553Y0117785D01*
X0143797Y0117541D02*
X0143797Y0117541D01*
X0144552Y0116787D02*
X0147522Y0116787D01*
X0147225Y0115788D02*
X0145550Y0115788D01*
X0144910Y0110795D02*
X0147225Y0110795D01*
X0136989Y0130766D02*
X0136249Y0130766D01*
X0136249Y0131764D02*
X0136989Y0131764D01*
X0136989Y0132763D02*
X0136249Y0132763D01*
X0136249Y0133761D02*
X0136989Y0133761D01*
X0136989Y0134760D02*
X0136249Y0134760D01*
X0136249Y0135758D02*
X0136989Y0135758D01*
X0176813Y0098813D02*
X0176908Y0098813D01*
X0173812Y0091824D02*
X0172972Y0091824D01*
X0170897Y0088979D02*
X0170897Y0088979D01*
X0138701Y0069856D02*
X0132706Y0069856D01*
X0132706Y0068858D02*
X0137702Y0068858D01*
X0136704Y0067859D02*
X0132706Y0067859D01*
X0132706Y0066861D02*
X0135705Y0066861D01*
X0135686Y0065862D02*
X0132706Y0065862D01*
X0048235Y0035907D02*
X0047235Y0035907D01*
X0047235Y0034909D02*
X0048235Y0034909D01*
X0048235Y0033910D02*
X0047235Y0033910D01*
X0047235Y0030915D02*
X0048235Y0030915D01*
X0048235Y0029916D02*
X0047235Y0029916D01*
X0047235Y0028918D02*
X0048235Y0028918D01*
X0048235Y0027919D02*
X0047235Y0027919D01*
X0042718Y0037904D02*
X0038978Y0037904D01*
X0041541Y0038903D02*
X0026908Y0038903D01*
X0026908Y0039901D02*
X0040962Y0039901D01*
X0040635Y0040900D02*
X0026908Y0040900D01*
X0037374Y0041898D02*
X0040635Y0041898D01*
X0040873Y0042897D02*
X0038679Y0042897D01*
X0039205Y0043895D02*
X0041325Y0043895D01*
X0042324Y0044894D02*
X0039398Y0044894D01*
X0040855Y0007949D02*
X0037933Y0007949D01*
X0038896Y0006950D02*
X0041668Y0006950D01*
D26*
X0081199Y0043987D03*
X0088680Y0043987D03*
X0092617Y0030207D03*
X0091081Y0025050D03*
X0092223Y0060916D03*
X0115058Y0065247D03*
X0119388Y0077845D03*
X0120963Y0090837D03*
X0120570Y0097924D03*
X0119782Y0112885D03*
X0111514Y0117609D03*
X0100097Y0145956D03*
X0093798Y0145168D03*
X0089073Y0153042D03*
X0083562Y0151467D03*
X0073325Y0153830D03*
X0067420Y0151467D03*
X0067026Y0145168D03*
X0109940Y0146349D03*
X0109743Y0168593D03*
X0134743Y0168003D03*
X0161121Y0115247D03*
X0161121Y0110522D03*
X0159152Y0104223D03*
X0161514Y0100680D03*
X0160333Y0086507D03*
X0152853Y0076664D03*
X0139467Y0092412D03*
D27*
X0141829Y0090050D01*
X0167814Y0090050D01*
X0167930Y0090052D01*
X0168046Y0090058D01*
X0168161Y0090067D01*
X0168276Y0090080D01*
X0168391Y0090097D01*
X0168505Y0090118D01*
X0168619Y0090143D01*
X0168731Y0090171D01*
X0168842Y0090203D01*
X0168953Y0090238D01*
X0169062Y0090277D01*
X0169170Y0090320D01*
X0169276Y0090366D01*
X0169381Y0090415D01*
X0169484Y0090468D01*
X0169586Y0090525D01*
X0169685Y0090584D01*
X0169782Y0090647D01*
X0169878Y0090713D01*
X0169971Y0090782D01*
X0170062Y0090854D01*
X0170150Y0090929D01*
X0170236Y0091007D01*
X0170319Y0091088D01*
X0170400Y0091171D01*
X0170478Y0091257D01*
X0170553Y0091345D01*
X0170625Y0091436D01*
X0170694Y0091529D01*
X0170760Y0091625D01*
X0170823Y0091722D01*
X0170882Y0091822D01*
X0170939Y0091923D01*
X0170992Y0092026D01*
X0171041Y0092131D01*
X0171087Y0092237D01*
X0171130Y0092345D01*
X0171169Y0092454D01*
X0171204Y0092565D01*
X0171236Y0092676D01*
X0171264Y0092788D01*
X0171289Y0092902D01*
X0171310Y0093016D01*
X0171327Y0093131D01*
X0171340Y0093246D01*
X0171349Y0093361D01*
X0171355Y0093477D01*
X0171357Y0093593D01*
X0171357Y0110629D01*
X0166936Y0115050D01*
X0161121Y0115247D02*
X0161121Y0118790D01*
X0158365Y0121546D01*
X0158365Y0128633D01*
X0154428Y0132570D01*
X0141633Y0132570D01*
X0141042Y0133160D01*
X0141042Y0140641D02*
X0141042Y0150483D01*
X0141042Y0157963D02*
X0141042Y0162097D01*
X0159152Y0180207D01*
X0172093Y0180207D01*
X0176936Y0185050D01*
X0170542Y0189656D02*
X0175936Y0195050D01*
X0170542Y0189656D02*
X0162696Y0189656D01*
X0134349Y0161310D01*
X0134349Y0124302D01*
X0143010Y0115641D01*
X0143010Y0101467D01*
X0139270Y0097727D01*
X0128050Y0097727D01*
X0127853Y0097924D01*
X0120570Y0097924D01*
X0120963Y0090837D02*
X0120963Y0090444D01*
X0130806Y0080601D01*
X0130806Y0011310D01*
X0131199Y0010916D01*
X0119388Y0010916D02*
X0119388Y0077845D01*
X0130806Y0080601D02*
X0131593Y0079814D01*
X0145963Y0097727D02*
X0143010Y0100680D01*
X0143010Y0101467D01*
X0145963Y0097727D02*
X0151278Y0097727D01*
X0158562Y0097727D01*
X0161514Y0100680D01*
X0161121Y0110522D02*
X0158168Y0113475D01*
X0151278Y0113475D01*
X0145176Y0113475D01*
X0143010Y0115641D01*
X0129625Y0122727D02*
X0129625Y0131389D01*
X0127656Y0133357D01*
X0127656Y0139459D01*
X0127656Y0146940D02*
X0127656Y0155995D01*
X0127656Y0163475D02*
X0127656Y0166428D01*
X0129231Y0168003D01*
X0134743Y0168003D01*
X0109940Y0146349D02*
X0103640Y0140050D01*
X0103640Y0137373D01*
X0099310Y0137373D02*
X0099310Y0145168D01*
X0100097Y0145956D01*
X0094979Y0143987D02*
X0094979Y0137373D01*
X0094979Y0143987D02*
X0093798Y0145168D01*
X0086318Y0150286D02*
X0086318Y0137373D01*
X0081987Y0137373D02*
X0081987Y0149893D01*
X0083562Y0151467D01*
X0086318Y0150286D02*
X0089073Y0153042D01*
X0077656Y0149499D02*
X0077656Y0137373D01*
X0073325Y0137373D02*
X0073325Y0145562D01*
X0067420Y0151467D01*
X0067026Y0145168D02*
X0068995Y0143200D01*
X0068995Y0137373D01*
X0077656Y0149499D02*
X0073325Y0153830D01*
X0068994Y0162885D02*
X0056199Y0162885D01*
X0055018Y0164066D01*
X0055215Y0163869D01*
X0055215Y0160129D01*
X0052853Y0157767D01*
X0045373Y0157767D01*
X0042223Y0154617D01*
X0042223Y0123121D01*
X0039467Y0120365D01*
X0031251Y0120365D01*
X0025936Y0115050D01*
X0047538Y0164066D02*
X0041239Y0170365D01*
X0030621Y0170365D01*
X0025936Y0175050D01*
X0119782Y0112885D02*
X0129625Y0122727D01*
X0160333Y0086507D02*
X0159546Y0085719D01*
X0159546Y0015641D01*
X0154822Y0010916D01*
X0152066Y0019971D02*
X0143010Y0010916D01*
X0152066Y0019971D02*
X0152066Y0075877D01*
X0152853Y0076664D01*
X0092617Y0030207D02*
X0088680Y0034144D01*
X0088680Y0043987D01*
X0081199Y0043987D02*
X0081199Y0034932D01*
X0091081Y0025050D01*
M02*
