G75*
%MOIN*%
%OFA0B0*%
%FSLAX25Y25*%
%IPPOS*%
%LPD*%
%AMOC8*
5,1,8,0,0,1.08239X$1,22.5*
%
%ADD10R,0.01575X0.05315*%
%ADD11R,0.05906X0.07480*%
%ADD12C,0.06791*%
%ADD13C,0.05020*%
%ADD14R,0.02756X0.05512*%
%ADD15R,0.05512X0.07874*%
%ADD16R,0.05039X0.05512*%
%ADD17R,0.07677X0.05512*%
%ADD18R,0.08000X0.02600*%
%ADD19OC8,0.08500*%
%ADD20R,0.05118X0.05906*%
%ADD21C,0.06000*%
%ADD22C,0.04724*%
%ADD23R,0.04724X0.04724*%
%ADD24C,0.01200*%
%ADD25C,0.02400*%
%ADD26C,0.01600*%
D10*
X0127066Y0182471D03*
X0129625Y0182471D03*
X0132184Y0182471D03*
X0134743Y0182471D03*
X0137302Y0182471D03*
D11*
X0136121Y0193003D03*
X0128247Y0192963D03*
D12*
X0118404Y0193003D03*
X0145963Y0193003D03*
D13*
X0142026Y0182668D03*
X0122341Y0182668D03*
D14*
X0105215Y0069499D03*
X0100885Y0069499D03*
X0096554Y0069499D03*
X0092223Y0069499D03*
X0087892Y0069499D03*
X0083562Y0069499D03*
X0079231Y0069499D03*
X0074900Y0069499D03*
X0070570Y0069499D03*
D15*
X0048129Y0110719D03*
X0110333Y0110719D03*
D16*
X0110570Y0072924D03*
D17*
X0051573Y0072924D03*
D18*
X0127761Y0081211D03*
X0127761Y0086211D03*
X0127761Y0091211D03*
X0127761Y0096211D03*
X0127761Y0101211D03*
X0127761Y0106211D03*
X0127761Y0111211D03*
X0127761Y0116211D03*
X0151961Y0116211D03*
X0151961Y0111211D03*
X0151961Y0106211D03*
X0151961Y0101211D03*
X0151961Y0096211D03*
X0151961Y0091211D03*
X0151961Y0086211D03*
X0151961Y0081211D03*
D19*
X0141436Y0064459D03*
X0143010Y0010916D03*
X0131199Y0010916D03*
X0119388Y0010916D03*
X0154822Y0010916D03*
X0122932Y0127452D03*
X0115058Y0153830D03*
X0154034Y0153436D03*
X0154034Y0141625D03*
D20*
X0143995Y0125089D03*
X0136514Y0125089D03*
D21*
X0050735Y0041507D02*
X0044735Y0041507D01*
X0044735Y0031507D02*
X0050735Y0031507D01*
X0050735Y0020247D02*
X0044735Y0020247D01*
X0044735Y0010247D02*
X0050735Y0010247D01*
D22*
X0036936Y0015050D03*
X0035936Y0005050D03*
X0026936Y0005050D03*
X0025936Y0015050D03*
X0026936Y0025050D03*
X0035936Y0025050D03*
X0036936Y0035050D03*
X0035936Y0045050D03*
X0026936Y0045050D03*
X0025936Y0035050D03*
X0025936Y0055050D03*
X0026936Y0065050D03*
X0035936Y0065050D03*
X0036936Y0055050D03*
X0036936Y0075050D03*
X0035936Y0085050D03*
X0026936Y0085050D03*
X0025936Y0075050D03*
X0025936Y0095050D03*
X0026936Y0105050D03*
X0025936Y0115050D03*
X0026936Y0125050D03*
X0035936Y0125050D03*
X0036936Y0115050D03*
X0035936Y0105050D03*
X0036936Y0095050D03*
X0036936Y0135050D03*
X0035936Y0145050D03*
X0026936Y0145050D03*
X0025936Y0135050D03*
X0025936Y0155050D03*
X0026936Y0165050D03*
X0035936Y0165050D03*
X0036936Y0155050D03*
X0036936Y0175050D03*
X0035936Y0185050D03*
X0026936Y0185050D03*
X0025936Y0175050D03*
X0036936Y0195050D03*
X0165936Y0185050D03*
X0166936Y0175050D03*
X0175936Y0175050D03*
X0176936Y0185050D03*
X0175936Y0195050D03*
X0176936Y0165050D03*
X0175936Y0155050D03*
X0166936Y0155050D03*
X0165936Y0145050D03*
X0166936Y0135050D03*
X0175936Y0135050D03*
X0176936Y0125050D03*
X0175936Y0115050D03*
X0166936Y0115050D03*
X0165936Y0105050D03*
X0166936Y0095050D03*
X0175936Y0095050D03*
X0176936Y0085050D03*
X0175936Y0075050D03*
X0166936Y0075050D03*
X0165936Y0065050D03*
X0166936Y0055050D03*
X0175936Y0055050D03*
X0176936Y0045050D03*
X0175936Y0035050D03*
X0166936Y0035050D03*
X0165936Y0045050D03*
X0165936Y0025050D03*
X0166936Y0015050D03*
X0175936Y0015050D03*
X0176936Y0005050D03*
X0165936Y0005050D03*
X0176936Y0025050D03*
X0176936Y0065050D03*
X0165936Y0085050D03*
X0176936Y0105050D03*
X0165936Y0125050D03*
X0176936Y0145050D03*
X0165936Y0165050D03*
D23*
X0166936Y0195050D03*
X0025936Y0195050D03*
D24*
X0026748Y0009012D02*
X0026748Y0005237D01*
X0027123Y0005237D01*
X0030898Y0005237D01*
X0030898Y0005440D01*
X0030746Y0006206D01*
X0030447Y0006927D01*
X0030013Y0007576D01*
X0029461Y0008128D01*
X0028812Y0008561D01*
X0028091Y0008860D01*
X0027326Y0009012D01*
X0027123Y0009012D01*
X0027123Y0005237D01*
X0027123Y0005050D01*
X0032373Y0005050D01*
X0032373Y0005759D01*
X0032916Y0007068D01*
X0033918Y0008070D01*
X0035227Y0008612D01*
X0036644Y0008612D01*
X0037954Y0008070D01*
X0038956Y0007068D01*
X0039498Y0005759D01*
X0039498Y0005050D01*
X0165748Y0005050D01*
X0165748Y0005237D01*
X0161973Y0005237D01*
X0161973Y0005440D01*
X0162126Y0006206D01*
X0162424Y0006927D01*
X0162858Y0007576D01*
X0163410Y0008128D01*
X0164059Y0008561D01*
X0164780Y0008860D01*
X0165545Y0009012D01*
X0165748Y0009012D01*
X0165748Y0005237D01*
X0166123Y0005237D01*
X0169898Y0005237D01*
X0169898Y0005440D01*
X0169746Y0006206D01*
X0169447Y0006927D01*
X0169013Y0007576D01*
X0168461Y0008128D01*
X0167812Y0008561D01*
X0167091Y0008860D01*
X0166326Y0009012D01*
X0166123Y0009012D01*
X0166123Y0005237D01*
X0166123Y0005050D01*
X0176436Y0005050D01*
X0176436Y0005237D01*
X0172973Y0005237D01*
X0172973Y0005440D01*
X0173126Y0006206D01*
X0173424Y0006927D01*
X0173858Y0007576D01*
X0174410Y0008128D01*
X0175059Y0008561D01*
X0175780Y0008860D01*
X0176436Y0008990D01*
X0176436Y0011488D01*
X0175227Y0011488D01*
X0173918Y0012030D01*
X0172916Y0013032D01*
X0172373Y0014341D01*
X0172373Y0015759D01*
X0172916Y0017068D01*
X0173918Y0018070D01*
X0175227Y0018612D01*
X0176436Y0018612D01*
X0176436Y0021488D01*
X0176227Y0021488D01*
X0174918Y0022030D01*
X0173916Y0023032D01*
X0173373Y0024341D01*
X0173373Y0025759D01*
X0173381Y0025776D01*
X0170950Y0028207D01*
X0167621Y0028207D01*
X0167954Y0028070D01*
X0168956Y0027068D01*
X0169498Y0025759D01*
X0169498Y0024341D01*
X0168956Y0023032D01*
X0167954Y0022030D01*
X0166644Y0021488D01*
X0165227Y0021488D01*
X0163918Y0022030D01*
X0162916Y0023032D01*
X0162908Y0023050D01*
X0092475Y0023050D01*
X0092441Y0023015D01*
X0091559Y0022650D01*
X0090604Y0022650D01*
X0089722Y0023015D01*
X0089047Y0023691D01*
X0088681Y0024573D01*
X0088681Y0025527D01*
X0089047Y0026409D01*
X0089722Y0027085D01*
X0090604Y0027450D01*
X0091559Y0027450D01*
X0092441Y0027085D01*
X0092475Y0027050D01*
X0162908Y0027050D01*
X0162916Y0027068D01*
X0163918Y0028070D01*
X0164250Y0028207D01*
X0094011Y0028207D01*
X0093976Y0028173D01*
X0093094Y0027807D01*
X0092139Y0027807D01*
X0091257Y0028173D01*
X0090582Y0028848D01*
X0090217Y0029730D01*
X0090217Y0030685D01*
X0090582Y0031567D01*
X0091257Y0032242D01*
X0092139Y0032607D01*
X0093094Y0032607D01*
X0093976Y0032242D01*
X0094011Y0032207D01*
X0164741Y0032207D01*
X0164016Y0032932D01*
X0074072Y0032932D01*
X0072900Y0034103D01*
X0068570Y0038434D01*
X0068570Y0056938D01*
X0066001Y0059507D01*
X0064829Y0060678D01*
X0064829Y0082726D01*
X0057152Y0090403D01*
X0057152Y0138123D01*
X0058324Y0139294D01*
X0064626Y0145597D01*
X0064626Y0145645D01*
X0064992Y0146528D01*
X0065667Y0147203D01*
X0066549Y0147568D01*
X0067504Y0147568D01*
X0068386Y0147203D01*
X0069061Y0146528D01*
X0069426Y0145645D01*
X0069426Y0144691D01*
X0069061Y0143809D01*
X0068386Y0143133D01*
X0067504Y0142768D01*
X0067455Y0142768D01*
X0061152Y0136466D01*
X0061152Y0097422D01*
X0061161Y0097444D01*
X0062585Y0098868D01*
X0064445Y0099638D01*
X0066458Y0099638D01*
X0068318Y0098868D01*
X0069742Y0097444D01*
X0070512Y0095584D01*
X0070512Y0093571D01*
X0069742Y0091711D01*
X0068318Y0090287D01*
X0066458Y0089517D01*
X0064445Y0089517D01*
X0063164Y0090047D01*
X0067658Y0085554D01*
X0068829Y0084382D01*
X0068829Y0073455D01*
X0072445Y0073455D01*
X0072735Y0073164D01*
X0072900Y0073330D01*
X0072900Y0143159D01*
X0066992Y0149067D01*
X0066943Y0149067D01*
X0066060Y0149433D01*
X0065385Y0150108D01*
X0065020Y0150990D01*
X0065020Y0151945D01*
X0065385Y0152827D01*
X0066060Y0153502D01*
X0066943Y0153867D01*
X0067897Y0153867D01*
X0068779Y0153502D01*
X0069455Y0152827D01*
X0069820Y0151945D01*
X0069820Y0151896D01*
X0076900Y0144815D01*
X0076900Y0073330D01*
X0077066Y0073164D01*
X0077231Y0073330D01*
X0077231Y0147096D01*
X0072897Y0151430D01*
X0072848Y0151430D01*
X0071966Y0151795D01*
X0071291Y0152470D01*
X0070925Y0153352D01*
X0070925Y0154307D01*
X0071291Y0155189D01*
X0071966Y0155864D01*
X0072848Y0156230D01*
X0073803Y0156230D01*
X0074685Y0155864D01*
X0075360Y0155189D01*
X0075725Y0154307D01*
X0075725Y0154258D01*
X0081231Y0148752D01*
X0081231Y0073330D01*
X0081396Y0073164D01*
X0081562Y0073330D01*
X0081562Y0150073D01*
X0081527Y0150108D01*
X0081162Y0150990D01*
X0081162Y0151945D01*
X0081527Y0152827D01*
X0082202Y0153502D01*
X0083084Y0153867D01*
X0083133Y0153867D01*
X0092969Y0163704D01*
X0161111Y0163704D01*
X0166209Y0158605D01*
X0166227Y0158612D01*
X0167644Y0158612D01*
X0168954Y0158070D01*
X0169956Y0157068D01*
X0170498Y0155759D01*
X0170498Y0154341D01*
X0169956Y0153032D01*
X0169210Y0152286D01*
X0170217Y0152286D01*
X0172579Y0149924D01*
X0173751Y0148752D01*
X0173751Y0146669D01*
X0173916Y0147068D01*
X0174918Y0148070D01*
X0176227Y0148612D01*
X0176436Y0148612D01*
X0176436Y0151488D01*
X0175227Y0151488D01*
X0173918Y0152030D01*
X0172916Y0153032D01*
X0172373Y0154341D01*
X0172373Y0155759D01*
X0172916Y0157068D01*
X0173918Y0158070D01*
X0175227Y0158612D01*
X0176436Y0158612D01*
X0176436Y0161488D01*
X0176227Y0161488D01*
X0174918Y0162030D01*
X0173916Y0163032D01*
X0173373Y0164341D01*
X0173373Y0165759D01*
X0173381Y0165776D01*
X0170792Y0168365D01*
X0167241Y0168365D01*
X0167954Y0168070D01*
X0168956Y0167068D01*
X0169498Y0165759D01*
X0169498Y0164341D01*
X0168956Y0163032D01*
X0167954Y0162030D01*
X0166644Y0161488D01*
X0165227Y0161488D01*
X0163918Y0162030D01*
X0162916Y0163032D01*
X0162373Y0164341D01*
X0162373Y0165759D01*
X0162916Y0167068D01*
X0163918Y0168070D01*
X0164630Y0168365D01*
X0137933Y0168365D01*
X0137143Y0167574D01*
X0137143Y0167525D01*
X0136777Y0166643D01*
X0136102Y0165968D01*
X0135220Y0165603D01*
X0134265Y0165603D01*
X0133383Y0165968D01*
X0132708Y0166643D01*
X0132343Y0167525D01*
X0132343Y0168480D01*
X0132708Y0169362D01*
X0133383Y0170037D01*
X0134265Y0170403D01*
X0134314Y0170403D01*
X0136277Y0172365D01*
X0164583Y0172365D01*
X0163916Y0173032D01*
X0163373Y0174341D01*
X0163373Y0175759D01*
X0163916Y0177068D01*
X0164918Y0178070D01*
X0166227Y0178612D01*
X0167644Y0178612D01*
X0168954Y0178070D01*
X0169956Y0177068D01*
X0170498Y0175759D01*
X0170498Y0174341D01*
X0169956Y0173032D01*
X0169288Y0172365D01*
X0172449Y0172365D01*
X0176209Y0168605D01*
X0176227Y0168612D01*
X0176436Y0168612D01*
X0176436Y0171110D01*
X0176326Y0171088D01*
X0176123Y0171088D01*
X0176123Y0174863D01*
X0175748Y0174863D01*
X0171973Y0174863D01*
X0171973Y0174660D01*
X0172126Y0173894D01*
X0172424Y0173173D01*
X0172858Y0172524D01*
X0173410Y0171972D01*
X0174059Y0171539D01*
X0174780Y0171240D01*
X0175545Y0171088D01*
X0175748Y0171088D01*
X0175748Y0174863D01*
X0175748Y0175237D01*
X0171973Y0175237D01*
X0171973Y0175440D01*
X0172126Y0176206D01*
X0172424Y0176927D01*
X0172858Y0177576D01*
X0173410Y0178128D01*
X0174059Y0178561D01*
X0174780Y0178860D01*
X0175545Y0179012D01*
X0175748Y0179012D01*
X0175748Y0175237D01*
X0176123Y0175237D01*
X0176123Y0179012D01*
X0176326Y0179012D01*
X0176436Y0178990D01*
X0176436Y0181488D01*
X0176227Y0181488D01*
X0174918Y0182030D01*
X0173916Y0183032D01*
X0173373Y0184341D01*
X0173373Y0185759D01*
X0173916Y0187068D01*
X0174918Y0188070D01*
X0176227Y0188612D01*
X0176436Y0188612D01*
X0176436Y0191488D01*
X0175227Y0191488D01*
X0173918Y0192030D01*
X0172916Y0193032D01*
X0172373Y0194341D01*
X0172373Y0195050D01*
X0167123Y0195050D01*
X0167123Y0194863D01*
X0170898Y0194863D01*
X0170898Y0192477D01*
X0170789Y0192070D01*
X0170578Y0191705D01*
X0170280Y0191407D01*
X0169915Y0191197D01*
X0169509Y0191088D01*
X0167123Y0191088D01*
X0167123Y0194863D01*
X0166748Y0194863D01*
X0162973Y0194863D01*
X0162973Y0192477D01*
X0163083Y0192070D01*
X0163293Y0191705D01*
X0163591Y0191407D01*
X0163956Y0191197D01*
X0164363Y0191088D01*
X0166748Y0191088D01*
X0166748Y0194863D01*
X0166748Y0195050D01*
X0150527Y0195050D01*
X0150593Y0194920D01*
X0150836Y0194173D01*
X0150937Y0193535D01*
X0146495Y0193535D01*
X0146495Y0192471D01*
X0150937Y0192471D01*
X0150836Y0191833D01*
X0150593Y0191085D01*
X0150236Y0190384D01*
X0149774Y0189748D01*
X0149218Y0189192D01*
X0148582Y0188730D01*
X0147881Y0188373D01*
X0147133Y0188130D01*
X0146495Y0188029D01*
X0146495Y0192471D01*
X0145431Y0192471D01*
X0140990Y0192471D01*
X0141091Y0191833D01*
X0141334Y0191085D01*
X0141691Y0190384D01*
X0142153Y0189748D01*
X0142709Y0189192D01*
X0143345Y0188730D01*
X0144046Y0188373D01*
X0144793Y0188130D01*
X0145431Y0188029D01*
X0145431Y0192471D01*
X0145431Y0193535D01*
X0140990Y0193535D01*
X0141091Y0194173D01*
X0141334Y0194920D01*
X0141400Y0195050D01*
X0140273Y0195050D01*
X0140273Y0188766D01*
X0139571Y0188063D01*
X0132671Y0188063D01*
X0132203Y0188530D01*
X0131697Y0188023D01*
X0124797Y0188023D01*
X0124094Y0188726D01*
X0124094Y0195050D01*
X0122968Y0195050D01*
X0123034Y0194920D01*
X0123277Y0194173D01*
X0123378Y0193535D01*
X0118936Y0193535D01*
X0118936Y0192471D01*
X0123378Y0192471D01*
X0123277Y0191833D01*
X0123034Y0191085D01*
X0122677Y0190384D01*
X0122215Y0189748D01*
X0121659Y0189192D01*
X0121022Y0188730D01*
X0120322Y0188373D01*
X0119574Y0188130D01*
X0118936Y0188029D01*
X0118936Y0192471D01*
X0117872Y0192471D01*
X0113430Y0192471D01*
X0113532Y0191833D01*
X0113775Y0191085D01*
X0114132Y0190384D01*
X0114594Y0189748D01*
X0115150Y0189192D01*
X0115786Y0188730D01*
X0116487Y0188373D01*
X0117234Y0188130D01*
X0117872Y0188029D01*
X0117872Y0192471D01*
X0117872Y0193535D01*
X0113430Y0193535D01*
X0113532Y0194173D01*
X0113775Y0194920D01*
X0113841Y0195050D01*
X0044382Y0195050D01*
X0063130Y0176302D01*
X0132340Y0176302D01*
X0134651Y0178614D01*
X0128916Y0178614D01*
X0128835Y0178533D01*
X0128471Y0178323D01*
X0128064Y0178214D01*
X0127066Y0178214D01*
X0127066Y0182471D01*
X0127066Y0182471D01*
X0127066Y0178214D01*
X0126068Y0178214D01*
X0125661Y0178323D01*
X0125296Y0178533D01*
X0124998Y0178831D01*
X0124787Y0179196D01*
X0124678Y0179603D01*
X0124678Y0179759D01*
X0124443Y0179523D01*
X0123079Y0178958D01*
X0121603Y0178958D01*
X0120240Y0179523D01*
X0119196Y0180567D01*
X0118631Y0181930D01*
X0118631Y0183406D01*
X0119196Y0184770D01*
X0120240Y0185813D01*
X0121603Y0186378D01*
X0123079Y0186378D01*
X0124443Y0185813D01*
X0124729Y0185527D01*
X0124787Y0185746D01*
X0124998Y0186111D01*
X0125296Y0186409D01*
X0125661Y0186620D01*
X0126068Y0186729D01*
X0127066Y0186729D01*
X0127066Y0182471D01*
X0127066Y0182471D01*
X0127066Y0186729D01*
X0128064Y0186729D01*
X0128471Y0186620D01*
X0128835Y0186409D01*
X0128916Y0186329D01*
X0138586Y0186329D01*
X0139289Y0185626D01*
X0139289Y0185178D01*
X0139925Y0185813D01*
X0141288Y0186378D01*
X0142764Y0186378D01*
X0144128Y0185813D01*
X0145171Y0184770D01*
X0145736Y0183406D01*
X0145736Y0181930D01*
X0145171Y0180567D01*
X0144128Y0179523D01*
X0142764Y0178958D01*
X0141288Y0178958D01*
X0139925Y0179523D01*
X0139302Y0180146D01*
X0139302Y0177607D01*
X0135168Y0173474D01*
X0135168Y0173474D01*
X0133996Y0172302D01*
X0061473Y0172302D01*
X0040725Y0193050D01*
X0039963Y0193050D01*
X0039956Y0193032D01*
X0038954Y0192030D01*
X0037644Y0191488D01*
X0036227Y0191488D01*
X0034918Y0192030D01*
X0033916Y0193032D01*
X0033373Y0194341D01*
X0033373Y0195050D01*
X0026436Y0195050D01*
X0026436Y0194863D01*
X0029898Y0194863D01*
X0029898Y0192477D01*
X0029789Y0192070D01*
X0029578Y0191705D01*
X0029280Y0191407D01*
X0028915Y0191197D01*
X0028509Y0191088D01*
X0026436Y0191088D01*
X0026436Y0188612D01*
X0027644Y0188612D01*
X0028954Y0188070D01*
X0029956Y0187068D01*
X0030498Y0185759D01*
X0030498Y0184341D01*
X0029956Y0183032D01*
X0028954Y0182030D01*
X0027644Y0181488D01*
X0026436Y0181488D01*
X0026436Y0178612D01*
X0026644Y0178612D01*
X0027954Y0178070D01*
X0028956Y0177068D01*
X0029498Y0175759D01*
X0029498Y0174341D01*
X0028956Y0173032D01*
X0027954Y0172030D01*
X0026644Y0171488D01*
X0026436Y0171488D01*
X0026436Y0168612D01*
X0027644Y0168612D01*
X0028954Y0168070D01*
X0029956Y0167068D01*
X0030498Y0165759D01*
X0030498Y0164341D01*
X0029956Y0163032D01*
X0028954Y0162030D01*
X0027644Y0161488D01*
X0026436Y0161488D01*
X0026436Y0158612D01*
X0026644Y0158612D01*
X0027954Y0158070D01*
X0028956Y0157068D01*
X0029498Y0155759D01*
X0029498Y0154341D01*
X0028956Y0153032D01*
X0027954Y0152030D01*
X0026644Y0151488D01*
X0026436Y0151488D01*
X0026436Y0148612D01*
X0027644Y0148612D01*
X0028954Y0148070D01*
X0029956Y0147068D01*
X0030498Y0145759D01*
X0030498Y0144341D01*
X0029956Y0143032D01*
X0028954Y0142030D01*
X0027644Y0141488D01*
X0026436Y0141488D01*
X0026436Y0138612D01*
X0026644Y0138612D01*
X0027954Y0138070D01*
X0028956Y0137068D01*
X0029498Y0135759D01*
X0029498Y0134341D01*
X0028956Y0133032D01*
X0027954Y0132030D01*
X0026644Y0131488D01*
X0026436Y0131488D01*
X0026436Y0128612D01*
X0027644Y0128612D01*
X0028954Y0128070D01*
X0029956Y0127068D01*
X0030498Y0125759D01*
X0030498Y0124341D01*
X0029956Y0123032D01*
X0028954Y0122030D01*
X0027644Y0121488D01*
X0026436Y0121488D01*
X0026436Y0118612D01*
X0026644Y0118612D01*
X0027954Y0118070D01*
X0028956Y0117068D01*
X0029498Y0115759D01*
X0029498Y0114341D01*
X0028956Y0113032D01*
X0027954Y0112030D01*
X0026644Y0111488D01*
X0026436Y0111488D01*
X0026436Y0108612D01*
X0027644Y0108612D01*
X0028954Y0108070D01*
X0029956Y0107068D01*
X0030498Y0105759D01*
X0030498Y0104341D01*
X0029956Y0103032D01*
X0028954Y0102030D01*
X0027644Y0101488D01*
X0026436Y0101488D01*
X0026436Y0098612D01*
X0026644Y0098612D01*
X0027954Y0098070D01*
X0028956Y0097068D01*
X0029498Y0095759D01*
X0029498Y0094341D01*
X0028956Y0093032D01*
X0027954Y0092030D01*
X0026644Y0091488D01*
X0026436Y0091488D01*
X0026436Y0088612D01*
X0027644Y0088612D01*
X0028954Y0088070D01*
X0029956Y0087068D01*
X0030498Y0085759D01*
X0030498Y0084341D01*
X0029956Y0083032D01*
X0028954Y0082030D01*
X0027644Y0081488D01*
X0026436Y0081488D01*
X0026436Y0078612D01*
X0026644Y0078612D01*
X0027954Y0078070D01*
X0028956Y0077068D01*
X0029498Y0075759D01*
X0029498Y0074341D01*
X0028956Y0073032D01*
X0027954Y0072030D01*
X0026644Y0071488D01*
X0026436Y0071488D01*
X0026436Y0068612D01*
X0027644Y0068612D01*
X0028954Y0068070D01*
X0029956Y0067068D01*
X0030498Y0065759D01*
X0030498Y0064341D01*
X0029956Y0063032D01*
X0028954Y0062030D01*
X0027644Y0061488D01*
X0026436Y0061488D01*
X0026436Y0058612D01*
X0026644Y0058612D01*
X0027954Y0058070D01*
X0028956Y0057068D01*
X0029498Y0055759D01*
X0029498Y0054341D01*
X0028956Y0053032D01*
X0027954Y0052030D01*
X0026644Y0051488D01*
X0026436Y0051488D01*
X0026436Y0048612D01*
X0027644Y0048612D01*
X0028954Y0048070D01*
X0029956Y0047068D01*
X0030498Y0045759D01*
X0030498Y0044341D01*
X0029956Y0043032D01*
X0028954Y0042030D01*
X0027644Y0041488D01*
X0026436Y0041488D01*
X0026436Y0038612D01*
X0026644Y0038612D01*
X0027954Y0038070D01*
X0028956Y0037068D01*
X0029498Y0035759D01*
X0029498Y0034341D01*
X0028956Y0033032D01*
X0027954Y0032030D01*
X0026644Y0031488D01*
X0026436Y0031488D01*
X0026436Y0028612D01*
X0027644Y0028612D01*
X0028954Y0028070D01*
X0029956Y0027068D01*
X0030498Y0025759D01*
X0030498Y0024341D01*
X0029956Y0023032D01*
X0028954Y0022030D01*
X0027644Y0021488D01*
X0026436Y0021488D01*
X0026436Y0018612D01*
X0026644Y0018612D01*
X0027954Y0018070D01*
X0028956Y0017068D01*
X0029498Y0015759D01*
X0029498Y0014341D01*
X0028956Y0013032D01*
X0027954Y0012030D01*
X0026644Y0011488D01*
X0026436Y0011488D01*
X0026436Y0008990D01*
X0026545Y0009012D01*
X0026748Y0009012D01*
X0026436Y0009564D02*
X0040186Y0009564D01*
X0040141Y0009847D02*
X0040248Y0009170D01*
X0040472Y0008481D01*
X0040801Y0007836D01*
X0041226Y0007250D01*
X0041738Y0006738D01*
X0042324Y0006313D01*
X0042969Y0005984D01*
X0043658Y0005760D01*
X0044373Y0005647D01*
X0047335Y0005647D01*
X0047335Y0009847D01*
X0040141Y0009847D01*
X0040141Y0010647D02*
X0047335Y0010647D01*
X0047335Y0014847D01*
X0044373Y0014847D01*
X0043658Y0014734D01*
X0042969Y0014510D01*
X0042324Y0014181D01*
X0041738Y0013756D01*
X0041226Y0013244D01*
X0040801Y0012658D01*
X0040472Y0012013D01*
X0040248Y0011324D01*
X0040141Y0010647D01*
X0040159Y0010762D02*
X0026436Y0010762D01*
X0027786Y0011961D02*
X0035085Y0011961D01*
X0034918Y0012030D02*
X0036227Y0011488D01*
X0037644Y0011488D01*
X0038954Y0012030D01*
X0039956Y0013032D01*
X0040498Y0014341D01*
X0040498Y0015759D01*
X0039956Y0017068D01*
X0038954Y0018070D01*
X0037644Y0018612D01*
X0036227Y0018612D01*
X0034918Y0018070D01*
X0033916Y0017068D01*
X0033373Y0015759D01*
X0033373Y0014341D01*
X0033916Y0013032D01*
X0034918Y0012030D01*
X0033863Y0013159D02*
X0029008Y0013159D01*
X0029498Y0014358D02*
X0033373Y0014358D01*
X0033373Y0015556D02*
X0029498Y0015556D01*
X0029085Y0016755D02*
X0033786Y0016755D01*
X0034801Y0017953D02*
X0028070Y0017953D01*
X0026436Y0019152D02*
X0040642Y0019152D01*
X0040535Y0019411D02*
X0041174Y0017868D01*
X0042356Y0016686D01*
X0043899Y0016047D01*
X0051570Y0016047D01*
X0053114Y0016686D01*
X0054295Y0017868D01*
X0054453Y0018247D01*
X0057894Y0018247D01*
X0059066Y0019418D01*
X0063514Y0023867D01*
X0063514Y0081430D01*
X0062343Y0082601D01*
X0056034Y0088910D01*
X0056034Y0117650D01*
X0054863Y0118822D01*
X0048947Y0124737D01*
X0048947Y0154867D01*
X0039490Y0164324D01*
X0039498Y0164341D01*
X0039498Y0165759D01*
X0038956Y0167068D01*
X0037954Y0168070D01*
X0036644Y0168612D01*
X0035227Y0168612D01*
X0033918Y0168070D01*
X0032916Y0167068D01*
X0032373Y0165759D01*
X0032373Y0164341D01*
X0032916Y0163032D01*
X0033918Y0162030D01*
X0035227Y0161488D01*
X0036644Y0161488D01*
X0036662Y0161495D01*
X0044948Y0153210D01*
X0044948Y0123080D01*
X0052034Y0115993D01*
X0052034Y0115769D01*
X0051867Y0115937D01*
X0051502Y0116147D01*
X0051095Y0116256D01*
X0048729Y0116256D01*
X0048729Y0111319D01*
X0047529Y0111319D01*
X0047529Y0116256D01*
X0045162Y0116256D01*
X0044755Y0116147D01*
X0044617Y0116067D01*
X0044617Y0150197D01*
X0040490Y0154324D01*
X0040498Y0154341D01*
X0040498Y0155759D01*
X0039956Y0157068D01*
X0038954Y0158070D01*
X0037644Y0158612D01*
X0036227Y0158612D01*
X0034918Y0158070D01*
X0033916Y0157068D01*
X0033373Y0155759D01*
X0033373Y0154341D01*
X0033916Y0153032D01*
X0034918Y0152030D01*
X0036227Y0151488D01*
X0037644Y0151488D01*
X0037662Y0151495D01*
X0040617Y0148540D01*
X0040617Y0045796D01*
X0041851Y0044562D01*
X0041174Y0043886D01*
X0040535Y0042342D01*
X0040535Y0040671D01*
X0041174Y0039128D01*
X0042356Y0037946D01*
X0043899Y0037307D01*
X0051570Y0037307D01*
X0053114Y0037946D01*
X0054295Y0039128D01*
X0054935Y0040671D01*
X0054935Y0042342D01*
X0054295Y0043886D01*
X0053114Y0045067D01*
X0051570Y0045707D01*
X0046363Y0045707D01*
X0044617Y0047453D01*
X0044617Y0105371D01*
X0044755Y0105291D01*
X0045162Y0105182D01*
X0047529Y0105182D01*
X0047529Y0110119D01*
X0048729Y0110119D01*
X0048729Y0105182D01*
X0051095Y0105182D01*
X0051502Y0105291D01*
X0051867Y0105502D01*
X0052034Y0105669D01*
X0052034Y0087253D01*
X0059514Y0079773D01*
X0059514Y0025524D01*
X0056237Y0022247D01*
X0054453Y0022247D01*
X0054295Y0022626D01*
X0053114Y0023807D01*
X0051570Y0024447D01*
X0043899Y0024447D01*
X0042356Y0023807D01*
X0041174Y0022626D01*
X0040535Y0021082D01*
X0040535Y0019411D01*
X0040535Y0020350D02*
X0026436Y0020350D01*
X0027791Y0021549D02*
X0035080Y0021549D01*
X0035227Y0021488D02*
X0036644Y0021488D01*
X0037954Y0022030D01*
X0038956Y0023032D01*
X0039498Y0024341D01*
X0039498Y0025759D01*
X0038956Y0027068D01*
X0037954Y0028070D01*
X0036644Y0028612D01*
X0035227Y0028612D01*
X0033918Y0028070D01*
X0032916Y0027068D01*
X0032373Y0025759D01*
X0032373Y0024341D01*
X0032916Y0023032D01*
X0033918Y0022030D01*
X0035227Y0021488D01*
X0036791Y0021549D02*
X0040728Y0021549D01*
X0041296Y0022747D02*
X0038671Y0022747D01*
X0039334Y0023946D02*
X0042690Y0023946D01*
X0043658Y0027020D02*
X0044373Y0026907D01*
X0047335Y0026907D01*
X0047335Y0031107D01*
X0040141Y0031107D01*
X0040248Y0030430D01*
X0040472Y0029741D01*
X0040801Y0029096D01*
X0041226Y0028510D01*
X0041738Y0027998D01*
X0042324Y0027572D01*
X0042969Y0027244D01*
X0043658Y0027020D01*
X0042385Y0027541D02*
X0038482Y0027541D01*
X0039256Y0026343D02*
X0059514Y0026343D01*
X0059514Y0027541D02*
X0053085Y0027541D01*
X0053146Y0027572D02*
X0053732Y0027998D01*
X0054244Y0028510D01*
X0054669Y0029096D01*
X0054998Y0029741D01*
X0055222Y0030430D01*
X0055329Y0031107D01*
X0048135Y0031107D01*
X0048135Y0031907D01*
X0047335Y0031907D01*
X0047335Y0036107D01*
X0044373Y0036107D01*
X0043658Y0035993D01*
X0042969Y0035770D01*
X0042324Y0035441D01*
X0041738Y0035015D01*
X0041226Y0034503D01*
X0040801Y0033918D01*
X0040472Y0033272D01*
X0040248Y0032584D01*
X0040141Y0031907D01*
X0047335Y0031907D01*
X0047335Y0031107D01*
X0048135Y0031107D01*
X0048135Y0026907D01*
X0051097Y0026907D01*
X0051812Y0027020D01*
X0052501Y0027244D01*
X0053146Y0027572D01*
X0054411Y0028740D02*
X0059514Y0028740D01*
X0059514Y0029938D02*
X0055062Y0029938D01*
X0055329Y0031907D02*
X0055222Y0032584D01*
X0054998Y0033272D01*
X0054669Y0033918D01*
X0054244Y0034503D01*
X0053732Y0035015D01*
X0053146Y0035441D01*
X0052501Y0035770D01*
X0051812Y0035993D01*
X0051097Y0036107D01*
X0048135Y0036107D01*
X0048135Y0031907D01*
X0055329Y0031907D01*
X0055261Y0032335D02*
X0059514Y0032335D01*
X0059514Y0031137D02*
X0048135Y0031137D01*
X0047335Y0031137D02*
X0026436Y0031137D01*
X0026436Y0029938D02*
X0040408Y0029938D01*
X0041059Y0028740D02*
X0026436Y0028740D01*
X0029482Y0027541D02*
X0033389Y0027541D01*
X0032616Y0026343D02*
X0030256Y0026343D01*
X0030498Y0025144D02*
X0032373Y0025144D01*
X0032537Y0023946D02*
X0030334Y0023946D01*
X0029671Y0022747D02*
X0033201Y0022747D01*
X0039498Y0025144D02*
X0059135Y0025144D01*
X0057936Y0023946D02*
X0052780Y0023946D01*
X0054174Y0022747D02*
X0056738Y0022747D01*
X0059997Y0020350D02*
X0176436Y0020350D01*
X0176436Y0019152D02*
X0058799Y0019152D01*
X0061196Y0021549D02*
X0165080Y0021549D01*
X0166791Y0021549D02*
X0176080Y0021549D01*
X0174201Y0022747D02*
X0168671Y0022747D01*
X0169334Y0023946D02*
X0173537Y0023946D01*
X0173373Y0025144D02*
X0169498Y0025144D01*
X0169256Y0026343D02*
X0172814Y0026343D01*
X0171616Y0027541D02*
X0168482Y0027541D01*
X0169131Y0032207D02*
X0170950Y0032207D01*
X0172607Y0032207D01*
X0176209Y0028605D01*
X0176227Y0028612D01*
X0176436Y0028612D01*
X0176436Y0031488D01*
X0175227Y0031488D01*
X0173918Y0032030D01*
X0172916Y0033032D01*
X0172373Y0034341D01*
X0172373Y0035759D01*
X0172381Y0035776D01*
X0170107Y0038050D01*
X0168973Y0038050D01*
X0169956Y0037068D01*
X0170498Y0035759D01*
X0170498Y0034341D01*
X0169956Y0033032D01*
X0169131Y0032207D01*
X0169259Y0032335D02*
X0173613Y0032335D01*
X0173677Y0031137D02*
X0176436Y0031137D01*
X0176436Y0029938D02*
X0174876Y0029938D01*
X0176074Y0028740D02*
X0176436Y0028740D01*
X0172708Y0033534D02*
X0170163Y0033534D01*
X0170498Y0034732D02*
X0172373Y0034732D01*
X0172226Y0035931D02*
X0170427Y0035931D01*
X0169894Y0037129D02*
X0171028Y0037129D01*
X0173723Y0040091D02*
X0173723Y0040119D01*
X0172963Y0040878D01*
X0171792Y0042050D01*
X0167973Y0042050D01*
X0168956Y0043032D01*
X0169498Y0044341D01*
X0169498Y0045759D01*
X0168956Y0047068D01*
X0167954Y0048070D01*
X0167431Y0048286D01*
X0170871Y0048286D01*
X0173381Y0045776D01*
X0173373Y0045759D01*
X0173373Y0044341D01*
X0173916Y0043032D01*
X0174918Y0042030D01*
X0176227Y0041488D01*
X0176436Y0041488D01*
X0176436Y0038612D01*
X0175227Y0038612D01*
X0175209Y0038605D01*
X0173723Y0040091D01*
X0174288Y0039526D02*
X0176436Y0039526D01*
X0176436Y0040725D02*
X0173117Y0040725D01*
X0171918Y0041923D02*
X0175175Y0041923D01*
X0173879Y0043122D02*
X0168993Y0043122D01*
X0169489Y0044320D02*
X0173382Y0044320D01*
X0173373Y0045519D02*
X0169498Y0045519D01*
X0169101Y0046718D02*
X0172440Y0046718D01*
X0171241Y0047916D02*
X0168107Y0047916D01*
X0164440Y0048286D02*
X0163918Y0048070D01*
X0162916Y0047068D01*
X0162631Y0046381D01*
X0099744Y0046381D01*
X0098554Y0047571D01*
X0098554Y0065668D01*
X0098719Y0065833D01*
X0098885Y0065668D01*
X0098885Y0051033D01*
X0100056Y0049861D01*
X0101631Y0048286D01*
X0164440Y0048286D01*
X0163764Y0047916D02*
X0098554Y0047916D01*
X0098554Y0049115D02*
X0100803Y0049115D01*
X0099604Y0050313D02*
X0098554Y0050313D01*
X0098554Y0051512D02*
X0098885Y0051512D01*
X0098885Y0052710D02*
X0098554Y0052710D01*
X0098554Y0053909D02*
X0098885Y0053909D01*
X0098885Y0055107D02*
X0098554Y0055107D01*
X0098554Y0056306D02*
X0098885Y0056306D01*
X0098885Y0057504D02*
X0098554Y0057504D01*
X0098554Y0058703D02*
X0098885Y0058703D01*
X0098885Y0059901D02*
X0098554Y0059901D01*
X0098554Y0061100D02*
X0098885Y0061100D01*
X0098885Y0062298D02*
X0098554Y0062298D01*
X0098554Y0063497D02*
X0098885Y0063497D01*
X0098885Y0064695D02*
X0098554Y0064695D01*
X0094554Y0064695D02*
X0089892Y0064695D01*
X0090228Y0065252D02*
X0090634Y0065143D01*
X0092134Y0065143D01*
X0092134Y0069410D01*
X0092312Y0069410D01*
X0092312Y0065143D01*
X0093812Y0065143D01*
X0094219Y0065252D01*
X0094554Y0065445D01*
X0094554Y0045914D01*
X0096916Y0043552D01*
X0098088Y0042381D01*
X0163567Y0042381D01*
X0163898Y0042050D01*
X0090137Y0042050D01*
X0090714Y0042628D01*
X0091080Y0043510D01*
X0091080Y0044464D01*
X0090714Y0045346D01*
X0090039Y0046022D01*
X0089892Y0046082D01*
X0089892Y0065445D01*
X0090228Y0065252D01*
X0089892Y0063497D02*
X0094554Y0063497D01*
X0094554Y0062298D02*
X0089892Y0062298D01*
X0089892Y0061100D02*
X0094554Y0061100D01*
X0094554Y0059901D02*
X0089892Y0059901D01*
X0089892Y0058703D02*
X0094554Y0058703D01*
X0094554Y0057504D02*
X0089892Y0057504D01*
X0089892Y0056306D02*
X0094554Y0056306D01*
X0094554Y0055107D02*
X0089892Y0055107D01*
X0089892Y0053909D02*
X0094554Y0053909D01*
X0094554Y0052710D02*
X0089892Y0052710D01*
X0089892Y0051512D02*
X0094554Y0051512D01*
X0094554Y0050313D02*
X0089892Y0050313D01*
X0089892Y0049115D02*
X0094554Y0049115D01*
X0094554Y0047916D02*
X0089892Y0047916D01*
X0089892Y0046718D02*
X0094554Y0046718D01*
X0094949Y0045519D02*
X0090542Y0045519D01*
X0091080Y0044320D02*
X0096148Y0044320D01*
X0097346Y0043122D02*
X0090919Y0043122D01*
X0087223Y0042050D02*
X0082657Y0042050D01*
X0083234Y0042628D01*
X0083599Y0043510D01*
X0083599Y0044464D01*
X0083234Y0045346D01*
X0082559Y0046022D01*
X0081677Y0046387D01*
X0081628Y0046387D01*
X0081231Y0046784D01*
X0081231Y0065668D01*
X0081396Y0065833D01*
X0081687Y0065543D01*
X0085437Y0065543D01*
X0085727Y0065833D01*
X0085892Y0065668D01*
X0085892Y0043946D01*
X0086280Y0043559D01*
X0086280Y0043510D01*
X0086645Y0042628D01*
X0087223Y0042050D01*
X0086440Y0043122D02*
X0083439Y0043122D01*
X0083599Y0044320D02*
X0085892Y0044320D01*
X0085892Y0045519D02*
X0083062Y0045519D01*
X0081297Y0046718D02*
X0085892Y0046718D01*
X0085892Y0047916D02*
X0081231Y0047916D01*
X0081231Y0049115D02*
X0085892Y0049115D01*
X0085892Y0050313D02*
X0081231Y0050313D01*
X0081231Y0051512D02*
X0085892Y0051512D01*
X0085892Y0052710D02*
X0081231Y0052710D01*
X0081231Y0053909D02*
X0085892Y0053909D01*
X0085892Y0055107D02*
X0081231Y0055107D01*
X0081231Y0056306D02*
X0085892Y0056306D01*
X0085892Y0057504D02*
X0081231Y0057504D01*
X0081231Y0058703D02*
X0085892Y0058703D01*
X0085892Y0059901D02*
X0081231Y0059901D01*
X0081231Y0061100D02*
X0085892Y0061100D01*
X0085892Y0062298D02*
X0081231Y0062298D01*
X0081231Y0063497D02*
X0085892Y0063497D01*
X0085892Y0064695D02*
X0081231Y0064695D01*
X0077231Y0064695D02*
X0076900Y0064695D01*
X0076900Y0065668D02*
X0077066Y0065833D01*
X0077231Y0065668D01*
X0077231Y0045127D01*
X0078799Y0043559D01*
X0078799Y0043510D01*
X0079165Y0042628D01*
X0079742Y0042050D01*
X0078485Y0042050D01*
X0076900Y0043634D01*
X0076900Y0065668D01*
X0076900Y0063497D02*
X0077231Y0063497D01*
X0077231Y0062298D02*
X0076900Y0062298D01*
X0076900Y0061100D02*
X0077231Y0061100D01*
X0077231Y0059901D02*
X0076900Y0059901D01*
X0076900Y0058703D02*
X0077231Y0058703D01*
X0077231Y0057504D02*
X0076900Y0057504D01*
X0076900Y0056306D02*
X0077231Y0056306D01*
X0077231Y0055107D02*
X0076900Y0055107D01*
X0076900Y0053909D02*
X0077231Y0053909D01*
X0077231Y0052710D02*
X0076900Y0052710D01*
X0076900Y0051512D02*
X0077231Y0051512D01*
X0077231Y0050313D02*
X0076900Y0050313D01*
X0076900Y0049115D02*
X0077231Y0049115D01*
X0077231Y0047916D02*
X0076900Y0047916D01*
X0076900Y0046718D02*
X0077231Y0046718D01*
X0077231Y0045519D02*
X0076900Y0045519D01*
X0076900Y0044320D02*
X0078038Y0044320D01*
X0077413Y0043122D02*
X0078960Y0043122D01*
X0075351Y0039526D02*
X0073134Y0039526D01*
X0072570Y0040091D02*
X0075729Y0036932D01*
X0163859Y0036932D01*
X0163916Y0037068D01*
X0164898Y0038050D01*
X0076828Y0038050D01*
X0075656Y0039222D01*
X0075656Y0039222D01*
X0072900Y0041977D01*
X0072900Y0065668D01*
X0072735Y0065833D01*
X0072570Y0065668D01*
X0072570Y0040091D01*
X0072570Y0040725D02*
X0074153Y0040725D01*
X0072954Y0041923D02*
X0072570Y0041923D01*
X0072570Y0043122D02*
X0072900Y0043122D01*
X0072900Y0044320D02*
X0072570Y0044320D01*
X0072570Y0045519D02*
X0072900Y0045519D01*
X0072900Y0046718D02*
X0072570Y0046718D01*
X0072570Y0047916D02*
X0072900Y0047916D01*
X0072900Y0049115D02*
X0072570Y0049115D01*
X0072570Y0050313D02*
X0072900Y0050313D01*
X0072900Y0051512D02*
X0072570Y0051512D01*
X0072570Y0052710D02*
X0072900Y0052710D01*
X0072900Y0053909D02*
X0072570Y0053909D01*
X0072570Y0055107D02*
X0072900Y0055107D01*
X0072900Y0056306D02*
X0072570Y0056306D01*
X0072570Y0057504D02*
X0072900Y0057504D01*
X0072900Y0058703D02*
X0072570Y0058703D01*
X0072570Y0059901D02*
X0072900Y0059901D01*
X0072900Y0061100D02*
X0072570Y0061100D01*
X0072570Y0062298D02*
X0072900Y0062298D01*
X0072900Y0063497D02*
X0072570Y0063497D01*
X0072570Y0064695D02*
X0072900Y0064695D01*
X0066805Y0058703D02*
X0063514Y0058703D01*
X0063514Y0059901D02*
X0065607Y0059901D01*
X0064829Y0061100D02*
X0063514Y0061100D01*
X0063514Y0062298D02*
X0064829Y0062298D01*
X0064829Y0063497D02*
X0063514Y0063497D01*
X0063514Y0064695D02*
X0064829Y0064695D01*
X0064829Y0065894D02*
X0063514Y0065894D01*
X0063514Y0067092D02*
X0064829Y0067092D01*
X0064829Y0068291D02*
X0063514Y0068291D01*
X0063514Y0069489D02*
X0064829Y0069489D01*
X0064829Y0070688D02*
X0063514Y0070688D01*
X0063514Y0071886D02*
X0064829Y0071886D01*
X0064829Y0073085D02*
X0063514Y0073085D01*
X0063514Y0074283D02*
X0064829Y0074283D01*
X0064829Y0075482D02*
X0063514Y0075482D01*
X0063514Y0076680D02*
X0064829Y0076680D01*
X0064829Y0077879D02*
X0063514Y0077879D01*
X0063514Y0079077D02*
X0064829Y0079077D01*
X0064829Y0080276D02*
X0063514Y0080276D01*
X0063470Y0081474D02*
X0064829Y0081474D01*
X0064829Y0082673D02*
X0062271Y0082673D01*
X0061073Y0083871D02*
X0063684Y0083871D01*
X0062485Y0085070D02*
X0059874Y0085070D01*
X0058676Y0086268D02*
X0061287Y0086268D01*
X0060088Y0087467D02*
X0057477Y0087467D01*
X0056279Y0088665D02*
X0058889Y0088665D01*
X0057691Y0089864D02*
X0056034Y0089864D01*
X0056034Y0091062D02*
X0057152Y0091062D01*
X0057152Y0092261D02*
X0056034Y0092261D01*
X0056034Y0093459D02*
X0057152Y0093459D01*
X0057152Y0094658D02*
X0056034Y0094658D01*
X0056034Y0095856D02*
X0057152Y0095856D01*
X0057152Y0097055D02*
X0056034Y0097055D01*
X0056034Y0098253D02*
X0057152Y0098253D01*
X0057152Y0099452D02*
X0056034Y0099452D01*
X0056034Y0100651D02*
X0057152Y0100651D01*
X0057152Y0101849D02*
X0056034Y0101849D01*
X0056034Y0103048D02*
X0057152Y0103048D01*
X0057152Y0104246D02*
X0056034Y0104246D01*
X0056034Y0105445D02*
X0057152Y0105445D01*
X0057152Y0106643D02*
X0056034Y0106643D01*
X0056034Y0107842D02*
X0057152Y0107842D01*
X0057152Y0109040D02*
X0056034Y0109040D01*
X0056034Y0110239D02*
X0057152Y0110239D01*
X0057152Y0111437D02*
X0056034Y0111437D01*
X0056034Y0112636D02*
X0057152Y0112636D01*
X0057152Y0113834D02*
X0056034Y0113834D01*
X0056034Y0115033D02*
X0057152Y0115033D01*
X0057152Y0116231D02*
X0056034Y0116231D01*
X0056034Y0117430D02*
X0057152Y0117430D01*
X0057152Y0118628D02*
X0055056Y0118628D01*
X0053857Y0119827D02*
X0057152Y0119827D01*
X0057152Y0121025D02*
X0052659Y0121025D01*
X0051460Y0122224D02*
X0057152Y0122224D01*
X0057152Y0123422D02*
X0050262Y0123422D01*
X0049063Y0124621D02*
X0057152Y0124621D01*
X0057152Y0125819D02*
X0048947Y0125819D01*
X0048947Y0127018D02*
X0057152Y0127018D01*
X0057152Y0128216D02*
X0048947Y0128216D01*
X0048947Y0129415D02*
X0057152Y0129415D01*
X0057152Y0130613D02*
X0048947Y0130613D01*
X0048947Y0131812D02*
X0057152Y0131812D01*
X0057152Y0133010D02*
X0048947Y0133010D01*
X0048947Y0134209D02*
X0057152Y0134209D01*
X0057152Y0135407D02*
X0048947Y0135407D01*
X0048947Y0136606D02*
X0057152Y0136606D01*
X0057152Y0137804D02*
X0048947Y0137804D01*
X0048947Y0139003D02*
X0058033Y0139003D01*
X0059231Y0140201D02*
X0048947Y0140201D01*
X0048947Y0141400D02*
X0060430Y0141400D01*
X0061628Y0142598D02*
X0048947Y0142598D01*
X0048947Y0143797D02*
X0062827Y0143797D01*
X0064025Y0144995D02*
X0048947Y0144995D01*
X0048947Y0146194D02*
X0064853Y0146194D01*
X0066125Y0147392D02*
X0048947Y0147392D01*
X0048947Y0148591D02*
X0067468Y0148591D01*
X0067928Y0147392D02*
X0068666Y0147392D01*
X0069199Y0146194D02*
X0069865Y0146194D01*
X0069426Y0144995D02*
X0071063Y0144995D01*
X0072262Y0143797D02*
X0069049Y0143797D01*
X0067285Y0142598D02*
X0072900Y0142598D01*
X0072900Y0141400D02*
X0066086Y0141400D01*
X0064888Y0140201D02*
X0072900Y0140201D01*
X0072900Y0139003D02*
X0063689Y0139003D01*
X0062491Y0137804D02*
X0072900Y0137804D01*
X0072900Y0136606D02*
X0061292Y0136606D01*
X0061152Y0135407D02*
X0072900Y0135407D01*
X0072900Y0134209D02*
X0061152Y0134209D01*
X0061152Y0133010D02*
X0072900Y0133010D01*
X0072900Y0131812D02*
X0061152Y0131812D01*
X0061152Y0130613D02*
X0072900Y0130613D01*
X0072900Y0129415D02*
X0061152Y0129415D01*
X0061152Y0128216D02*
X0072900Y0128216D01*
X0072900Y0127018D02*
X0061152Y0127018D01*
X0061152Y0125819D02*
X0072900Y0125819D01*
X0072900Y0124621D02*
X0061152Y0124621D01*
X0061152Y0123422D02*
X0072900Y0123422D01*
X0072900Y0122224D02*
X0061152Y0122224D01*
X0061152Y0121025D02*
X0072900Y0121025D01*
X0072900Y0119827D02*
X0061152Y0119827D01*
X0061152Y0118628D02*
X0072900Y0118628D01*
X0072900Y0117430D02*
X0061152Y0117430D01*
X0061152Y0116231D02*
X0063807Y0116231D01*
X0064160Y0116584D02*
X0062736Y0115161D01*
X0061966Y0113301D01*
X0061966Y0111287D01*
X0062736Y0109427D01*
X0064160Y0108004D01*
X0066020Y0107233D01*
X0068033Y0107233D01*
X0069893Y0108004D01*
X0071316Y0109427D01*
X0072087Y0111287D01*
X0072087Y0113301D01*
X0071316Y0115161D01*
X0069893Y0116584D01*
X0068033Y0117355D01*
X0066020Y0117355D01*
X0064160Y0116584D01*
X0062683Y0115033D02*
X0061152Y0115033D01*
X0061152Y0113834D02*
X0062187Y0113834D01*
X0061966Y0112636D02*
X0061152Y0112636D01*
X0061152Y0111437D02*
X0061966Y0111437D01*
X0062400Y0110239D02*
X0061152Y0110239D01*
X0061152Y0109040D02*
X0063123Y0109040D01*
X0064551Y0107842D02*
X0061152Y0107842D01*
X0061152Y0106643D02*
X0072900Y0106643D01*
X0072900Y0105445D02*
X0061152Y0105445D01*
X0061152Y0104246D02*
X0072900Y0104246D01*
X0072900Y0103048D02*
X0061152Y0103048D01*
X0061152Y0101849D02*
X0072900Y0101849D01*
X0072900Y0100651D02*
X0061152Y0100651D01*
X0061152Y0099452D02*
X0063995Y0099452D01*
X0061971Y0098253D02*
X0061152Y0098253D01*
X0066908Y0099452D02*
X0072900Y0099452D01*
X0072900Y0098253D02*
X0068932Y0098253D01*
X0069903Y0097055D02*
X0072900Y0097055D01*
X0072900Y0095856D02*
X0070399Y0095856D01*
X0070512Y0094658D02*
X0072900Y0094658D01*
X0072900Y0093459D02*
X0070466Y0093459D01*
X0069969Y0092261D02*
X0072900Y0092261D01*
X0072900Y0091062D02*
X0069093Y0091062D01*
X0067296Y0089864D02*
X0072900Y0089864D01*
X0072900Y0088665D02*
X0064546Y0088665D01*
X0063607Y0089864D02*
X0063348Y0089864D01*
X0065745Y0087467D02*
X0072900Y0087467D01*
X0072900Y0086268D02*
X0066943Y0086268D01*
X0068142Y0085070D02*
X0072900Y0085070D01*
X0072900Y0083871D02*
X0068829Y0083871D01*
X0068829Y0082673D02*
X0072900Y0082673D01*
X0072900Y0081474D02*
X0068829Y0081474D01*
X0068829Y0080276D02*
X0072900Y0080276D01*
X0072900Y0079077D02*
X0068829Y0079077D01*
X0068829Y0077879D02*
X0072900Y0077879D01*
X0072900Y0076680D02*
X0068829Y0076680D01*
X0068829Y0075482D02*
X0072900Y0075482D01*
X0072900Y0074283D02*
X0068829Y0074283D01*
X0076900Y0074283D02*
X0077231Y0074283D01*
X0077231Y0075482D02*
X0076900Y0075482D01*
X0076900Y0076680D02*
X0077231Y0076680D01*
X0077231Y0077879D02*
X0076900Y0077879D01*
X0076900Y0079077D02*
X0077231Y0079077D01*
X0077231Y0080276D02*
X0076900Y0080276D01*
X0076900Y0081474D02*
X0077231Y0081474D01*
X0077231Y0082673D02*
X0076900Y0082673D01*
X0076900Y0083871D02*
X0077231Y0083871D01*
X0077231Y0085070D02*
X0076900Y0085070D01*
X0076900Y0086268D02*
X0077231Y0086268D01*
X0077231Y0087467D02*
X0076900Y0087467D01*
X0076900Y0088665D02*
X0077231Y0088665D01*
X0077231Y0089864D02*
X0076900Y0089864D01*
X0076900Y0091062D02*
X0077231Y0091062D01*
X0077231Y0092261D02*
X0076900Y0092261D01*
X0076900Y0093459D02*
X0077231Y0093459D01*
X0077231Y0094658D02*
X0076900Y0094658D01*
X0076900Y0095856D02*
X0077231Y0095856D01*
X0077231Y0097055D02*
X0076900Y0097055D01*
X0076900Y0098253D02*
X0077231Y0098253D01*
X0077231Y0099452D02*
X0076900Y0099452D01*
X0076900Y0100651D02*
X0077231Y0100651D01*
X0077231Y0101849D02*
X0076900Y0101849D01*
X0076900Y0103048D02*
X0077231Y0103048D01*
X0077231Y0104246D02*
X0076900Y0104246D01*
X0076900Y0105445D02*
X0077231Y0105445D01*
X0077231Y0106643D02*
X0076900Y0106643D01*
X0076900Y0107842D02*
X0077231Y0107842D01*
X0077231Y0109040D02*
X0076900Y0109040D01*
X0076900Y0110239D02*
X0077231Y0110239D01*
X0077231Y0111437D02*
X0076900Y0111437D01*
X0076900Y0112636D02*
X0077231Y0112636D01*
X0077231Y0113834D02*
X0076900Y0113834D01*
X0076900Y0115033D02*
X0077231Y0115033D01*
X0077231Y0116231D02*
X0076900Y0116231D01*
X0076900Y0117430D02*
X0077231Y0117430D01*
X0077231Y0118628D02*
X0076900Y0118628D01*
X0076900Y0119827D02*
X0077231Y0119827D01*
X0077231Y0121025D02*
X0076900Y0121025D01*
X0076900Y0122224D02*
X0077231Y0122224D01*
X0077231Y0123422D02*
X0076900Y0123422D01*
X0076900Y0124621D02*
X0077231Y0124621D01*
X0077231Y0125819D02*
X0076900Y0125819D01*
X0076900Y0127018D02*
X0077231Y0127018D01*
X0077231Y0128216D02*
X0076900Y0128216D01*
X0076900Y0129415D02*
X0077231Y0129415D01*
X0077231Y0130613D02*
X0076900Y0130613D01*
X0076900Y0131812D02*
X0077231Y0131812D01*
X0077231Y0133010D02*
X0076900Y0133010D01*
X0076900Y0134209D02*
X0077231Y0134209D01*
X0077231Y0135407D02*
X0076900Y0135407D01*
X0076900Y0136606D02*
X0077231Y0136606D01*
X0077231Y0137804D02*
X0076900Y0137804D01*
X0076900Y0139003D02*
X0077231Y0139003D01*
X0077231Y0140201D02*
X0076900Y0140201D01*
X0076900Y0141400D02*
X0077231Y0141400D01*
X0077231Y0142598D02*
X0076900Y0142598D01*
X0076900Y0143797D02*
X0077231Y0143797D01*
X0077231Y0144995D02*
X0076720Y0144995D01*
X0077231Y0146194D02*
X0075522Y0146194D01*
X0074323Y0147392D02*
X0076934Y0147392D01*
X0075736Y0148591D02*
X0073125Y0148591D01*
X0071926Y0149789D02*
X0074537Y0149789D01*
X0073339Y0150988D02*
X0070728Y0150988D01*
X0071574Y0152187D02*
X0069720Y0152187D01*
X0068896Y0153385D02*
X0070925Y0153385D01*
X0071040Y0154584D02*
X0048947Y0154584D01*
X0048947Y0153385D02*
X0065944Y0153385D01*
X0065120Y0152187D02*
X0048947Y0152187D01*
X0048947Y0150988D02*
X0065021Y0150988D01*
X0065704Y0149789D02*
X0048947Y0149789D01*
X0044948Y0149789D02*
X0044617Y0149789D01*
X0044617Y0148591D02*
X0044948Y0148591D01*
X0044948Y0147392D02*
X0044617Y0147392D01*
X0044617Y0146194D02*
X0044948Y0146194D01*
X0044948Y0144995D02*
X0044617Y0144995D01*
X0044617Y0143797D02*
X0044948Y0143797D01*
X0044948Y0142598D02*
X0044617Y0142598D01*
X0044617Y0141400D02*
X0044948Y0141400D01*
X0044948Y0140201D02*
X0044617Y0140201D01*
X0044617Y0139003D02*
X0044948Y0139003D01*
X0044948Y0137804D02*
X0044617Y0137804D01*
X0044617Y0136606D02*
X0044948Y0136606D01*
X0044948Y0135407D02*
X0044617Y0135407D01*
X0044617Y0134209D02*
X0044948Y0134209D01*
X0044948Y0133010D02*
X0044617Y0133010D01*
X0044617Y0131812D02*
X0044948Y0131812D01*
X0044948Y0130613D02*
X0044617Y0130613D01*
X0044617Y0129415D02*
X0044948Y0129415D01*
X0044948Y0128216D02*
X0044617Y0128216D01*
X0044617Y0127018D02*
X0044948Y0127018D01*
X0044948Y0125819D02*
X0044617Y0125819D01*
X0044617Y0124621D02*
X0044948Y0124621D01*
X0044948Y0123422D02*
X0044617Y0123422D01*
X0044617Y0122224D02*
X0045804Y0122224D01*
X0044617Y0121025D02*
X0047002Y0121025D01*
X0048201Y0119827D02*
X0044617Y0119827D01*
X0044617Y0118628D02*
X0049399Y0118628D01*
X0050598Y0117430D02*
X0044617Y0117430D01*
X0044617Y0116231D02*
X0045068Y0116231D01*
X0047529Y0116231D02*
X0048729Y0116231D01*
X0048729Y0115033D02*
X0047529Y0115033D01*
X0047529Y0113834D02*
X0048729Y0113834D01*
X0048729Y0112636D02*
X0047529Y0112636D01*
X0047529Y0111437D02*
X0048729Y0111437D01*
X0048729Y0109040D02*
X0047529Y0109040D01*
X0047529Y0107842D02*
X0048729Y0107842D01*
X0048729Y0106643D02*
X0047529Y0106643D01*
X0047529Y0105445D02*
X0048729Y0105445D01*
X0051767Y0105445D02*
X0052034Y0105445D01*
X0052034Y0104246D02*
X0044617Y0104246D01*
X0044617Y0103048D02*
X0052034Y0103048D01*
X0052034Y0101849D02*
X0044617Y0101849D01*
X0044617Y0100651D02*
X0052034Y0100651D01*
X0052034Y0099452D02*
X0044617Y0099452D01*
X0044617Y0098253D02*
X0052034Y0098253D01*
X0052034Y0097055D02*
X0044617Y0097055D01*
X0044617Y0095856D02*
X0052034Y0095856D01*
X0052034Y0094658D02*
X0044617Y0094658D01*
X0044617Y0093459D02*
X0052034Y0093459D01*
X0052034Y0092261D02*
X0044617Y0092261D01*
X0044617Y0091062D02*
X0052034Y0091062D01*
X0052034Y0089864D02*
X0044617Y0089864D01*
X0044617Y0088665D02*
X0052034Y0088665D01*
X0052034Y0087467D02*
X0044617Y0087467D01*
X0044617Y0086268D02*
X0053019Y0086268D01*
X0054217Y0085070D02*
X0044617Y0085070D01*
X0044617Y0083871D02*
X0055416Y0083871D01*
X0056614Y0082673D02*
X0044617Y0082673D01*
X0044617Y0081474D02*
X0057813Y0081474D01*
X0059011Y0080276D02*
X0044617Y0080276D01*
X0044617Y0079077D02*
X0059514Y0079077D01*
X0059514Y0077879D02*
X0044617Y0077879D01*
X0044617Y0076680D02*
X0046473Y0076680D01*
X0046455Y0076662D02*
X0046244Y0076297D01*
X0046135Y0075891D01*
X0046135Y0073524D01*
X0050973Y0073524D01*
X0050973Y0072324D01*
X0046135Y0072324D01*
X0046135Y0069957D01*
X0046244Y0069551D01*
X0046455Y0069186D01*
X0046752Y0068888D01*
X0047117Y0068677D01*
X0047524Y0068568D01*
X0050973Y0068568D01*
X0050973Y0072324D01*
X0052173Y0072324D01*
X0052173Y0068568D01*
X0055623Y0068568D01*
X0056030Y0068677D01*
X0056394Y0068888D01*
X0056692Y0069186D01*
X0056903Y0069551D01*
X0057012Y0069957D01*
X0057012Y0072324D01*
X0052174Y0072324D01*
X0052174Y0073524D01*
X0057012Y0073524D01*
X0057012Y0075891D01*
X0056903Y0076297D01*
X0056692Y0076662D01*
X0056394Y0076960D01*
X0056030Y0077171D01*
X0055623Y0077280D01*
X0052173Y0077280D01*
X0052173Y0073524D01*
X0050973Y0073524D01*
X0050973Y0077280D01*
X0047524Y0077280D01*
X0047117Y0077171D01*
X0046752Y0076960D01*
X0046455Y0076662D01*
X0046135Y0075482D02*
X0044617Y0075482D01*
X0044617Y0074283D02*
X0046135Y0074283D01*
X0044617Y0073085D02*
X0050973Y0073085D01*
X0050973Y0074283D02*
X0052173Y0074283D01*
X0052174Y0073085D02*
X0059514Y0073085D01*
X0059514Y0074283D02*
X0057012Y0074283D01*
X0057012Y0075482D02*
X0059514Y0075482D01*
X0059514Y0076680D02*
X0056674Y0076680D01*
X0052173Y0076680D02*
X0050973Y0076680D01*
X0050973Y0075482D02*
X0052173Y0075482D01*
X0052173Y0071886D02*
X0050973Y0071886D01*
X0050973Y0070688D02*
X0052173Y0070688D01*
X0052173Y0069489D02*
X0050973Y0069489D01*
X0046279Y0069489D02*
X0044617Y0069489D01*
X0044617Y0068291D02*
X0059514Y0068291D01*
X0059514Y0069489D02*
X0056868Y0069489D01*
X0057012Y0070688D02*
X0059514Y0070688D01*
X0059514Y0071886D02*
X0057012Y0071886D01*
X0059514Y0067092D02*
X0044617Y0067092D01*
X0044617Y0065894D02*
X0059514Y0065894D01*
X0059514Y0064695D02*
X0044617Y0064695D01*
X0044617Y0063497D02*
X0059514Y0063497D01*
X0059514Y0062298D02*
X0044617Y0062298D01*
X0044617Y0061100D02*
X0059514Y0061100D01*
X0059514Y0059901D02*
X0044617Y0059901D01*
X0044617Y0058703D02*
X0059514Y0058703D01*
X0059514Y0057504D02*
X0044617Y0057504D01*
X0044617Y0056306D02*
X0059514Y0056306D01*
X0059514Y0055107D02*
X0044617Y0055107D01*
X0044617Y0053909D02*
X0059514Y0053909D01*
X0059514Y0052710D02*
X0044617Y0052710D01*
X0044617Y0051512D02*
X0059514Y0051512D01*
X0059514Y0050313D02*
X0044617Y0050313D01*
X0044617Y0049115D02*
X0059514Y0049115D01*
X0059514Y0047916D02*
X0044617Y0047916D01*
X0045352Y0046718D02*
X0059514Y0046718D01*
X0059514Y0045519D02*
X0052023Y0045519D01*
X0053861Y0044320D02*
X0059514Y0044320D01*
X0059514Y0043122D02*
X0054612Y0043122D01*
X0054935Y0041923D02*
X0059514Y0041923D01*
X0059514Y0040725D02*
X0054935Y0040725D01*
X0054461Y0039526D02*
X0059514Y0039526D01*
X0059514Y0038328D02*
X0053496Y0038328D01*
X0052004Y0035931D02*
X0059514Y0035931D01*
X0059514Y0037129D02*
X0039894Y0037129D01*
X0039956Y0037068D02*
X0038954Y0038070D01*
X0037644Y0038612D01*
X0036227Y0038612D01*
X0034918Y0038070D01*
X0033916Y0037068D01*
X0033373Y0035759D01*
X0033373Y0034341D01*
X0033916Y0033032D01*
X0034918Y0032030D01*
X0036227Y0031488D01*
X0037644Y0031488D01*
X0038954Y0032030D01*
X0039956Y0033032D01*
X0040498Y0034341D01*
X0040498Y0035759D01*
X0039956Y0037068D01*
X0040427Y0035931D02*
X0043465Y0035931D01*
X0041455Y0034732D02*
X0040498Y0034732D01*
X0040605Y0033534D02*
X0040163Y0033534D01*
X0040209Y0032335D02*
X0039259Y0032335D01*
X0034613Y0032335D02*
X0028259Y0032335D01*
X0029163Y0033534D02*
X0033708Y0033534D01*
X0033373Y0034732D02*
X0029498Y0034732D01*
X0029427Y0035931D02*
X0033445Y0035931D01*
X0033977Y0037129D02*
X0028894Y0037129D01*
X0027331Y0038328D02*
X0035541Y0038328D01*
X0038331Y0038328D02*
X0041974Y0038328D01*
X0041009Y0039526D02*
X0026436Y0039526D01*
X0026436Y0040725D02*
X0040535Y0040725D01*
X0040535Y0041923D02*
X0037696Y0041923D01*
X0037954Y0042030D02*
X0038956Y0043032D01*
X0039498Y0044341D01*
X0039498Y0045759D01*
X0038956Y0047068D01*
X0037954Y0048070D01*
X0036644Y0048612D01*
X0035227Y0048612D01*
X0033918Y0048070D01*
X0032916Y0047068D01*
X0032373Y0045759D01*
X0032373Y0044341D01*
X0032916Y0043032D01*
X0033918Y0042030D01*
X0035227Y0041488D01*
X0036644Y0041488D01*
X0037954Y0042030D01*
X0038993Y0043122D02*
X0040858Y0043122D01*
X0041609Y0044320D02*
X0039489Y0044320D01*
X0039498Y0045519D02*
X0040894Y0045519D01*
X0040617Y0046718D02*
X0039101Y0046718D01*
X0038107Y0047916D02*
X0040617Y0047916D01*
X0040617Y0049115D02*
X0026436Y0049115D01*
X0026436Y0050313D02*
X0040617Y0050313D01*
X0040617Y0051512D02*
X0037702Y0051512D01*
X0037644Y0051488D02*
X0038954Y0052030D01*
X0039956Y0053032D01*
X0040498Y0054341D01*
X0040498Y0055759D01*
X0039956Y0057068D01*
X0038954Y0058070D01*
X0037644Y0058612D01*
X0036227Y0058612D01*
X0034918Y0058070D01*
X0033916Y0057068D01*
X0033373Y0055759D01*
X0033373Y0054341D01*
X0033916Y0053032D01*
X0034918Y0052030D01*
X0036227Y0051488D01*
X0037644Y0051488D01*
X0036170Y0051512D02*
X0026702Y0051512D01*
X0028633Y0052710D02*
X0034238Y0052710D01*
X0033553Y0053909D02*
X0029319Y0053909D01*
X0029498Y0055107D02*
X0033373Y0055107D01*
X0033600Y0056306D02*
X0029271Y0056306D01*
X0028519Y0057504D02*
X0034352Y0057504D01*
X0035227Y0061488D02*
X0036644Y0061488D01*
X0037954Y0062030D01*
X0038956Y0063032D01*
X0039498Y0064341D01*
X0039498Y0065759D01*
X0038956Y0067068D01*
X0037954Y0068070D01*
X0036644Y0068612D01*
X0035227Y0068612D01*
X0033918Y0068070D01*
X0032916Y0067068D01*
X0032373Y0065759D01*
X0032373Y0064341D01*
X0032916Y0063032D01*
X0033918Y0062030D01*
X0035227Y0061488D01*
X0033650Y0062298D02*
X0029222Y0062298D01*
X0030148Y0063497D02*
X0032723Y0063497D01*
X0032373Y0064695D02*
X0030498Y0064695D01*
X0030442Y0065894D02*
X0032429Y0065894D01*
X0032940Y0067092D02*
X0029931Y0067092D01*
X0028420Y0068291D02*
X0034451Y0068291D01*
X0036227Y0071488D02*
X0037644Y0071488D01*
X0038954Y0072030D01*
X0039956Y0073032D01*
X0040498Y0074341D01*
X0040498Y0075759D01*
X0039956Y0077068D01*
X0038954Y0078070D01*
X0037644Y0078612D01*
X0036227Y0078612D01*
X0034918Y0078070D01*
X0033916Y0077068D01*
X0033373Y0075759D01*
X0033373Y0074341D01*
X0033916Y0073032D01*
X0034918Y0072030D01*
X0036227Y0071488D01*
X0035265Y0071886D02*
X0027606Y0071886D01*
X0026436Y0070688D02*
X0040617Y0070688D01*
X0040617Y0071886D02*
X0038606Y0071886D01*
X0039977Y0073085D02*
X0040617Y0073085D01*
X0040617Y0074283D02*
X0040474Y0074283D01*
X0040498Y0075482D02*
X0040617Y0075482D01*
X0040617Y0076680D02*
X0040116Y0076680D01*
X0040617Y0077879D02*
X0039145Y0077879D01*
X0040617Y0079077D02*
X0026436Y0079077D01*
X0026436Y0080276D02*
X0040617Y0080276D01*
X0040617Y0081474D02*
X0026436Y0081474D01*
X0029596Y0082673D02*
X0033275Y0082673D01*
X0032916Y0083032D02*
X0032373Y0084341D01*
X0032373Y0085759D01*
X0032916Y0087068D01*
X0033918Y0088070D01*
X0035227Y0088612D01*
X0036644Y0088612D01*
X0037954Y0088070D01*
X0038956Y0087068D01*
X0039498Y0085759D01*
X0039498Y0084341D01*
X0038956Y0083032D01*
X0037954Y0082030D01*
X0036644Y0081488D01*
X0035227Y0081488D01*
X0033918Y0082030D01*
X0032916Y0083032D01*
X0032568Y0083871D02*
X0030303Y0083871D01*
X0030498Y0085070D02*
X0032373Y0085070D01*
X0032585Y0086268D02*
X0030287Y0086268D01*
X0029556Y0087467D02*
X0033315Y0087467D01*
X0034918Y0092030D02*
X0036227Y0091488D01*
X0037644Y0091488D01*
X0038954Y0092030D01*
X0039956Y0093032D01*
X0040498Y0094341D01*
X0040498Y0095759D01*
X0039956Y0097068D01*
X0038954Y0098070D01*
X0037644Y0098612D01*
X0036227Y0098612D01*
X0034918Y0098070D01*
X0033916Y0097068D01*
X0033373Y0095759D01*
X0033373Y0094341D01*
X0033916Y0093032D01*
X0034918Y0092030D01*
X0034687Y0092261D02*
X0028184Y0092261D01*
X0029133Y0093459D02*
X0033739Y0093459D01*
X0033373Y0094658D02*
X0029498Y0094658D01*
X0029457Y0095856D02*
X0033414Y0095856D01*
X0033910Y0097055D02*
X0028961Y0097055D01*
X0027510Y0098253D02*
X0035361Y0098253D01*
X0038510Y0098253D02*
X0040617Y0098253D01*
X0040617Y0097055D02*
X0039961Y0097055D01*
X0040457Y0095856D02*
X0040617Y0095856D01*
X0040617Y0094658D02*
X0040498Y0094658D01*
X0040617Y0093459D02*
X0040133Y0093459D01*
X0040617Y0092261D02*
X0039184Y0092261D01*
X0040617Y0091062D02*
X0026436Y0091062D01*
X0026436Y0089864D02*
X0040617Y0089864D01*
X0040617Y0088665D02*
X0026436Y0088665D01*
X0026436Y0099452D02*
X0040617Y0099452D01*
X0040617Y0100651D02*
X0026436Y0100651D01*
X0028516Y0101849D02*
X0034355Y0101849D01*
X0033918Y0102030D02*
X0035227Y0101488D01*
X0036644Y0101488D01*
X0037954Y0102030D01*
X0038956Y0103032D01*
X0039498Y0104341D01*
X0039498Y0105759D01*
X0038956Y0107068D01*
X0037954Y0108070D01*
X0036644Y0108612D01*
X0035227Y0108612D01*
X0033918Y0108070D01*
X0032916Y0107068D01*
X0032373Y0105759D01*
X0032373Y0104341D01*
X0032916Y0103032D01*
X0033918Y0102030D01*
X0032909Y0103048D02*
X0029962Y0103048D01*
X0030458Y0104246D02*
X0032413Y0104246D01*
X0032373Y0105445D02*
X0030498Y0105445D01*
X0030132Y0106643D02*
X0032740Y0106643D01*
X0033690Y0107842D02*
X0029182Y0107842D01*
X0026436Y0109040D02*
X0040617Y0109040D01*
X0040617Y0107842D02*
X0038182Y0107842D01*
X0039132Y0106643D02*
X0040617Y0106643D01*
X0040617Y0105445D02*
X0039498Y0105445D01*
X0039458Y0104246D02*
X0040617Y0104246D01*
X0040617Y0103048D02*
X0038962Y0103048D01*
X0037516Y0101849D02*
X0040617Y0101849D01*
X0040617Y0110239D02*
X0026436Y0110239D01*
X0026436Y0111437D02*
X0040617Y0111437D01*
X0040617Y0112636D02*
X0039559Y0112636D01*
X0039956Y0113032D02*
X0040498Y0114341D01*
X0040498Y0115759D01*
X0039956Y0117068D01*
X0038954Y0118070D01*
X0037644Y0118612D01*
X0036227Y0118612D01*
X0034918Y0118070D01*
X0033916Y0117068D01*
X0033373Y0115759D01*
X0033373Y0114341D01*
X0033916Y0113032D01*
X0034918Y0112030D01*
X0036227Y0111488D01*
X0037644Y0111488D01*
X0038954Y0112030D01*
X0039956Y0113032D01*
X0040288Y0113834D02*
X0040617Y0113834D01*
X0040617Y0115033D02*
X0040498Y0115033D01*
X0040617Y0116231D02*
X0040302Y0116231D01*
X0040617Y0117430D02*
X0039594Y0117430D01*
X0040617Y0118628D02*
X0026436Y0118628D01*
X0026436Y0119827D02*
X0040617Y0119827D01*
X0040617Y0121025D02*
X0026436Y0121025D01*
X0029147Y0122224D02*
X0033724Y0122224D01*
X0033918Y0122030D02*
X0035227Y0121488D01*
X0036644Y0121488D01*
X0037954Y0122030D01*
X0038956Y0123032D01*
X0039498Y0124341D01*
X0039498Y0125759D01*
X0038956Y0127068D01*
X0037954Y0128070D01*
X0036644Y0128612D01*
X0035227Y0128612D01*
X0033918Y0128070D01*
X0032916Y0127068D01*
X0032373Y0125759D01*
X0032373Y0124341D01*
X0032916Y0123032D01*
X0033918Y0122030D01*
X0032754Y0123422D02*
X0030117Y0123422D01*
X0030498Y0124621D02*
X0032373Y0124621D01*
X0032399Y0125819D02*
X0030473Y0125819D01*
X0029976Y0127018D02*
X0032895Y0127018D01*
X0034271Y0128216D02*
X0028600Y0128216D01*
X0026436Y0129415D02*
X0040617Y0129415D01*
X0040617Y0130613D02*
X0026436Y0130613D01*
X0027426Y0131812D02*
X0035445Y0131812D01*
X0034918Y0132030D02*
X0036227Y0131488D01*
X0037644Y0131488D01*
X0038954Y0132030D01*
X0039956Y0133032D01*
X0040498Y0134341D01*
X0040498Y0135759D01*
X0039956Y0137068D01*
X0038954Y0138070D01*
X0037644Y0138612D01*
X0036227Y0138612D01*
X0034918Y0138070D01*
X0033916Y0137068D01*
X0033373Y0135759D01*
X0033373Y0134341D01*
X0033916Y0133032D01*
X0034918Y0132030D01*
X0033938Y0133010D02*
X0028934Y0133010D01*
X0029443Y0134209D02*
X0033428Y0134209D01*
X0033373Y0135407D02*
X0029498Y0135407D01*
X0029147Y0136606D02*
X0033724Y0136606D01*
X0034652Y0137804D02*
X0028219Y0137804D01*
X0026436Y0139003D02*
X0040617Y0139003D01*
X0040617Y0140201D02*
X0026436Y0140201D01*
X0026436Y0141400D02*
X0034394Y0141400D01*
X0034059Y0141539D02*
X0034780Y0141240D01*
X0035545Y0141088D01*
X0035748Y0141088D01*
X0035748Y0144863D01*
X0031973Y0144863D01*
X0031973Y0144660D01*
X0032126Y0143894D01*
X0032424Y0143173D01*
X0032858Y0142524D01*
X0033410Y0141972D01*
X0034059Y0141539D01*
X0032808Y0142598D02*
X0029522Y0142598D01*
X0030272Y0143797D02*
X0032166Y0143797D01*
X0031973Y0145237D02*
X0035748Y0145237D01*
X0035748Y0144863D01*
X0036123Y0144863D01*
X0036123Y0145237D01*
X0039898Y0145237D01*
X0039898Y0145440D01*
X0039746Y0146206D01*
X0039447Y0146927D01*
X0039013Y0147576D01*
X0038461Y0148128D01*
X0037812Y0148561D01*
X0037091Y0148860D01*
X0036326Y0149012D01*
X0036123Y0149012D01*
X0036123Y0145237D01*
X0035748Y0145237D01*
X0035748Y0149012D01*
X0035545Y0149012D01*
X0034780Y0148860D01*
X0034059Y0148561D01*
X0033410Y0148128D01*
X0032858Y0147576D01*
X0032424Y0146927D01*
X0032126Y0146206D01*
X0031973Y0145440D01*
X0031973Y0145237D01*
X0032123Y0146194D02*
X0030318Y0146194D01*
X0030498Y0144995D02*
X0035748Y0144995D01*
X0036123Y0144995D02*
X0040617Y0144995D01*
X0039898Y0144863D02*
X0036123Y0144863D01*
X0036123Y0141088D01*
X0036326Y0141088D01*
X0037091Y0141240D01*
X0037812Y0141539D01*
X0038461Y0141972D01*
X0039013Y0142524D01*
X0039447Y0143173D01*
X0039746Y0143894D01*
X0039898Y0144660D01*
X0039898Y0144863D01*
X0039705Y0143797D02*
X0040617Y0143797D01*
X0040617Y0142598D02*
X0039063Y0142598D01*
X0040617Y0141400D02*
X0037477Y0141400D01*
X0036123Y0141400D02*
X0035748Y0141400D01*
X0035748Y0142598D02*
X0036123Y0142598D01*
X0036123Y0143797D02*
X0035748Y0143797D01*
X0035748Y0146194D02*
X0036123Y0146194D01*
X0036123Y0147392D02*
X0035748Y0147392D01*
X0035748Y0148591D02*
X0036123Y0148591D01*
X0037741Y0148591D02*
X0040566Y0148591D01*
X0040617Y0147392D02*
X0039136Y0147392D01*
X0039748Y0146194D02*
X0040617Y0146194D01*
X0039368Y0149789D02*
X0026436Y0149789D01*
X0026436Y0150988D02*
X0038169Y0150988D01*
X0034761Y0152187D02*
X0028110Y0152187D01*
X0029102Y0153385D02*
X0033770Y0153385D01*
X0033373Y0154584D02*
X0029498Y0154584D01*
X0029488Y0155782D02*
X0033383Y0155782D01*
X0033880Y0156981D02*
X0028992Y0156981D01*
X0027690Y0158179D02*
X0035181Y0158179D01*
X0037581Y0160576D02*
X0026436Y0160576D01*
X0026436Y0159378D02*
X0038780Y0159378D01*
X0038690Y0158179D02*
X0039978Y0158179D01*
X0039992Y0156981D02*
X0041177Y0156981D01*
X0040488Y0155782D02*
X0042375Y0155782D01*
X0043574Y0154584D02*
X0040498Y0154584D01*
X0041429Y0153385D02*
X0044772Y0153385D01*
X0044948Y0152187D02*
X0042628Y0152187D01*
X0043826Y0150988D02*
X0044948Y0150988D01*
X0048032Y0155782D02*
X0071884Y0155782D01*
X0074767Y0155782D02*
X0085048Y0155782D01*
X0083849Y0154584D02*
X0075611Y0154584D01*
X0076598Y0153385D02*
X0082085Y0153385D01*
X0081262Y0152187D02*
X0077797Y0152187D01*
X0078995Y0150988D02*
X0081162Y0150988D01*
X0081562Y0149789D02*
X0080194Y0149789D01*
X0081231Y0148591D02*
X0081562Y0148591D01*
X0081562Y0147392D02*
X0081231Y0147392D01*
X0081231Y0146194D02*
X0081562Y0146194D01*
X0081562Y0144995D02*
X0081231Y0144995D01*
X0081231Y0143797D02*
X0081562Y0143797D01*
X0081562Y0142598D02*
X0081231Y0142598D01*
X0081231Y0141400D02*
X0081562Y0141400D01*
X0081562Y0140201D02*
X0081231Y0140201D01*
X0081231Y0139003D02*
X0081562Y0139003D01*
X0081562Y0137804D02*
X0081231Y0137804D01*
X0081231Y0136606D02*
X0081562Y0136606D01*
X0081562Y0135407D02*
X0081231Y0135407D01*
X0081231Y0134209D02*
X0081562Y0134209D01*
X0081562Y0133010D02*
X0081231Y0133010D01*
X0081231Y0131812D02*
X0081562Y0131812D01*
X0081562Y0130613D02*
X0081231Y0130613D01*
X0081231Y0129415D02*
X0081562Y0129415D01*
X0081562Y0128216D02*
X0081231Y0128216D01*
X0081231Y0127018D02*
X0081562Y0127018D01*
X0081562Y0125819D02*
X0081231Y0125819D01*
X0081231Y0124621D02*
X0081562Y0124621D01*
X0081562Y0123422D02*
X0081231Y0123422D01*
X0081231Y0122224D02*
X0081562Y0122224D01*
X0081562Y0121025D02*
X0081231Y0121025D01*
X0081231Y0119827D02*
X0081562Y0119827D01*
X0081562Y0118628D02*
X0081231Y0118628D01*
X0081231Y0117430D02*
X0081562Y0117430D01*
X0081562Y0116231D02*
X0081231Y0116231D01*
X0081231Y0115033D02*
X0081562Y0115033D01*
X0081562Y0113834D02*
X0081231Y0113834D01*
X0081231Y0112636D02*
X0081562Y0112636D01*
X0081562Y0111437D02*
X0081231Y0111437D01*
X0081231Y0110239D02*
X0081562Y0110239D01*
X0081562Y0109040D02*
X0081231Y0109040D01*
X0081231Y0107842D02*
X0081562Y0107842D01*
X0081562Y0106643D02*
X0081231Y0106643D01*
X0081231Y0105445D02*
X0081562Y0105445D01*
X0081562Y0104246D02*
X0081231Y0104246D01*
X0081231Y0103048D02*
X0081562Y0103048D01*
X0081562Y0101849D02*
X0081231Y0101849D01*
X0081231Y0100651D02*
X0081562Y0100651D01*
X0081562Y0099452D02*
X0081231Y0099452D01*
X0081231Y0098253D02*
X0081562Y0098253D01*
X0081562Y0097055D02*
X0081231Y0097055D01*
X0081231Y0095856D02*
X0081562Y0095856D01*
X0081562Y0094658D02*
X0081231Y0094658D01*
X0081231Y0093459D02*
X0081562Y0093459D01*
X0081562Y0092261D02*
X0081231Y0092261D01*
X0081231Y0091062D02*
X0081562Y0091062D01*
X0081562Y0089864D02*
X0081231Y0089864D01*
X0081231Y0088665D02*
X0081562Y0088665D01*
X0081562Y0087467D02*
X0081231Y0087467D01*
X0081231Y0086268D02*
X0081562Y0086268D01*
X0081562Y0085070D02*
X0081231Y0085070D01*
X0081231Y0083871D02*
X0081562Y0083871D01*
X0081562Y0082673D02*
X0081231Y0082673D01*
X0081231Y0081474D02*
X0081562Y0081474D01*
X0081562Y0080276D02*
X0081231Y0080276D01*
X0081231Y0079077D02*
X0081562Y0079077D01*
X0081562Y0077879D02*
X0081231Y0077879D01*
X0081231Y0076680D02*
X0081562Y0076680D01*
X0081562Y0075482D02*
X0081231Y0075482D01*
X0081231Y0074283D02*
X0081562Y0074283D01*
X0085562Y0074283D02*
X0085892Y0074283D01*
X0085892Y0073330D02*
X0085727Y0073164D01*
X0085562Y0073330D01*
X0085562Y0150073D01*
X0085596Y0150108D01*
X0085892Y0150823D01*
X0085892Y0073330D01*
X0085892Y0075482D02*
X0085562Y0075482D01*
X0085562Y0076680D02*
X0085892Y0076680D01*
X0085892Y0077879D02*
X0085562Y0077879D01*
X0085562Y0079077D02*
X0085892Y0079077D01*
X0085892Y0080276D02*
X0085562Y0080276D01*
X0085562Y0081474D02*
X0085892Y0081474D01*
X0085892Y0082673D02*
X0085562Y0082673D01*
X0085562Y0083871D02*
X0085892Y0083871D01*
X0085892Y0085070D02*
X0085562Y0085070D01*
X0085562Y0086268D02*
X0085892Y0086268D01*
X0085892Y0087467D02*
X0085562Y0087467D01*
X0085562Y0088665D02*
X0085892Y0088665D01*
X0085892Y0089864D02*
X0085562Y0089864D01*
X0085562Y0091062D02*
X0085892Y0091062D01*
X0085892Y0092261D02*
X0085562Y0092261D01*
X0085562Y0093459D02*
X0085892Y0093459D01*
X0085892Y0094658D02*
X0085562Y0094658D01*
X0085562Y0095856D02*
X0085892Y0095856D01*
X0085892Y0097055D02*
X0085562Y0097055D01*
X0085562Y0098253D02*
X0085892Y0098253D01*
X0085892Y0099452D02*
X0085562Y0099452D01*
X0085562Y0100651D02*
X0085892Y0100651D01*
X0085892Y0101849D02*
X0085562Y0101849D01*
X0085562Y0103048D02*
X0085892Y0103048D01*
X0085892Y0104246D02*
X0085562Y0104246D01*
X0085562Y0105445D02*
X0085892Y0105445D01*
X0085892Y0106643D02*
X0085562Y0106643D01*
X0085562Y0107842D02*
X0085892Y0107842D01*
X0085892Y0109040D02*
X0085562Y0109040D01*
X0085562Y0110239D02*
X0085892Y0110239D01*
X0085892Y0111437D02*
X0085562Y0111437D01*
X0085562Y0112636D02*
X0085892Y0112636D01*
X0085892Y0113834D02*
X0085562Y0113834D01*
X0085562Y0115033D02*
X0085892Y0115033D01*
X0085892Y0116231D02*
X0085562Y0116231D01*
X0085562Y0117430D02*
X0085892Y0117430D01*
X0085892Y0118628D02*
X0085562Y0118628D01*
X0085562Y0119827D02*
X0085892Y0119827D01*
X0085892Y0121025D02*
X0085562Y0121025D01*
X0085562Y0122224D02*
X0085892Y0122224D01*
X0085892Y0123422D02*
X0085562Y0123422D01*
X0085562Y0124621D02*
X0085892Y0124621D01*
X0085892Y0125819D02*
X0085562Y0125819D01*
X0085562Y0127018D02*
X0085892Y0127018D01*
X0085892Y0128216D02*
X0085562Y0128216D01*
X0085562Y0129415D02*
X0085892Y0129415D01*
X0085892Y0130613D02*
X0085562Y0130613D01*
X0085562Y0131812D02*
X0085892Y0131812D01*
X0085892Y0133010D02*
X0085562Y0133010D01*
X0085562Y0134209D02*
X0085892Y0134209D01*
X0085892Y0135407D02*
X0085562Y0135407D01*
X0085562Y0136606D02*
X0085892Y0136606D01*
X0085892Y0137804D02*
X0085562Y0137804D01*
X0085562Y0139003D02*
X0085892Y0139003D01*
X0085892Y0140201D02*
X0085562Y0140201D01*
X0085562Y0141400D02*
X0085892Y0141400D01*
X0085892Y0142598D02*
X0085562Y0142598D01*
X0085562Y0143797D02*
X0085892Y0143797D01*
X0085892Y0144995D02*
X0085562Y0144995D01*
X0085562Y0146194D02*
X0085892Y0146194D01*
X0085892Y0147392D02*
X0085562Y0147392D01*
X0085562Y0148591D02*
X0085892Y0148591D01*
X0085892Y0149789D02*
X0085562Y0149789D01*
X0089892Y0149789D02*
X0111390Y0149789D01*
X0110799Y0148591D02*
X0112589Y0148591D01*
X0112800Y0148380D02*
X0117315Y0148380D01*
X0120508Y0151572D01*
X0120508Y0151830D01*
X0141001Y0151830D01*
X0146129Y0146702D01*
X0146129Y0138434D01*
X0147300Y0137263D01*
X0150843Y0133719D01*
X0156749Y0133719D01*
X0157867Y0132601D01*
X0125490Y0132601D01*
X0125189Y0132902D01*
X0120674Y0132902D01*
X0117482Y0129709D01*
X0117482Y0125194D01*
X0120674Y0122002D01*
X0125189Y0122002D01*
X0128382Y0125194D01*
X0128382Y0128601D01*
X0132449Y0128601D01*
X0132355Y0128253D01*
X0132355Y0125689D01*
X0135914Y0125689D01*
X0135914Y0124489D01*
X0132355Y0124489D01*
X0132355Y0121926D01*
X0132464Y0121519D01*
X0132675Y0121154D01*
X0132973Y0120856D01*
X0133338Y0120646D01*
X0133745Y0120537D01*
X0135914Y0120537D01*
X0135914Y0124489D01*
X0137114Y0124489D01*
X0137114Y0120537D01*
X0139284Y0120537D01*
X0139691Y0120646D01*
X0140056Y0120856D01*
X0140354Y0121154D01*
X0140488Y0121387D01*
X0140939Y0120937D01*
X0147051Y0120937D01*
X0147754Y0121640D01*
X0147754Y0123089D01*
X0157536Y0123089D01*
X0157546Y0123080D01*
X0157546Y0119225D01*
X0156749Y0118428D01*
X0156741Y0118428D01*
X0156458Y0118711D01*
X0147464Y0118711D01*
X0146761Y0118008D01*
X0146761Y0114414D01*
X0147464Y0113711D01*
X0146761Y0113008D01*
X0146761Y0109414D01*
X0147464Y0108711D01*
X0146761Y0108008D01*
X0146761Y0104414D01*
X0147235Y0103940D01*
X0146978Y0103792D01*
X0146681Y0103494D01*
X0146470Y0103129D01*
X0146361Y0102722D01*
X0146361Y0101261D01*
X0151911Y0101261D01*
X0151911Y0101161D01*
X0146361Y0101161D01*
X0146361Y0099701D01*
X0146470Y0099294D01*
X0146681Y0098929D01*
X0146978Y0098631D01*
X0147235Y0098483D01*
X0146761Y0098008D01*
X0146761Y0094414D01*
X0147464Y0093711D01*
X0146761Y0093008D01*
X0146761Y0089414D01*
X0147235Y0088940D01*
X0146978Y0088792D01*
X0146681Y0088494D01*
X0146470Y0088129D01*
X0146361Y0087722D01*
X0146361Y0086261D01*
X0151911Y0086261D01*
X0151911Y0086161D01*
X0146361Y0086161D01*
X0146361Y0084701D01*
X0146470Y0084294D01*
X0146681Y0083929D01*
X0146978Y0083631D01*
X0147235Y0083483D01*
X0146761Y0083008D01*
X0146761Y0079414D01*
X0147464Y0078711D01*
X0151524Y0078711D01*
X0151494Y0078699D01*
X0150818Y0078024D01*
X0150453Y0077142D01*
X0150453Y0076187D01*
X0150818Y0075305D01*
X0151494Y0074630D01*
X0152376Y0074264D01*
X0153330Y0074264D01*
X0154213Y0074630D01*
X0154247Y0074664D01*
X0158012Y0074664D01*
X0159184Y0075836D01*
X0159514Y0076166D01*
X0159514Y0059776D01*
X0157536Y0057798D01*
X0107225Y0057798D01*
X0107215Y0057808D01*
X0107215Y0065668D01*
X0107793Y0066246D01*
X0107793Y0068580D01*
X0107839Y0068568D01*
X0109970Y0068568D01*
X0109970Y0072324D01*
X0111170Y0072324D01*
X0111170Y0073524D01*
X0114689Y0073524D01*
X0114689Y0075891D01*
X0114580Y0076297D01*
X0114370Y0076662D01*
X0114072Y0076960D01*
X0113707Y0077171D01*
X0113300Y0077280D01*
X0111170Y0077280D01*
X0111170Y0073524D01*
X0109970Y0073524D01*
X0109970Y0077280D01*
X0108266Y0077280D01*
X0117451Y0086466D01*
X0117451Y0112240D01*
X0117748Y0111525D01*
X0118423Y0110850D01*
X0119305Y0110485D01*
X0119354Y0110485D01*
X0120627Y0109211D01*
X0122764Y0109211D01*
X0123035Y0108940D01*
X0122778Y0108792D01*
X0122481Y0108494D01*
X0122270Y0108129D01*
X0122161Y0107722D01*
X0122161Y0106261D01*
X0127711Y0106261D01*
X0127711Y0106161D01*
X0122161Y0106161D01*
X0122161Y0104701D01*
X0122270Y0104294D01*
X0122481Y0103929D01*
X0122778Y0103631D01*
X0123035Y0103483D01*
X0122561Y0103008D01*
X0122561Y0099414D01*
X0123264Y0098711D01*
X0122965Y0098412D01*
X0122604Y0099284D01*
X0121929Y0099959D01*
X0121047Y0100324D01*
X0120092Y0100324D01*
X0119210Y0099959D01*
X0118535Y0099284D01*
X0118170Y0098401D01*
X0118170Y0097447D01*
X0118535Y0096565D01*
X0119210Y0095889D01*
X0120092Y0095524D01*
X0120141Y0095524D01*
X0121454Y0094211D01*
X0122764Y0094211D01*
X0123264Y0093711D01*
X0122764Y0093211D01*
X0121503Y0093211D01*
X0121441Y0093237D01*
X0120486Y0093237D01*
X0119604Y0092872D01*
X0118929Y0092197D01*
X0118563Y0091315D01*
X0118563Y0090360D01*
X0118929Y0089478D01*
X0119604Y0088803D01*
X0120486Y0088437D01*
X0121441Y0088437D01*
X0122323Y0088803D01*
X0122731Y0089211D01*
X0122764Y0089211D01*
X0123035Y0088940D01*
X0122778Y0088792D01*
X0122481Y0088494D01*
X0122270Y0088129D01*
X0122161Y0087722D01*
X0122161Y0086261D01*
X0127711Y0086261D01*
X0127711Y0086161D01*
X0122161Y0086161D01*
X0122161Y0084701D01*
X0122270Y0084294D01*
X0122481Y0083929D01*
X0122778Y0083631D01*
X0123035Y0083483D01*
X0122764Y0083211D01*
X0121926Y0083211D01*
X0120755Y0082040D01*
X0118960Y0080245D01*
X0118911Y0080245D01*
X0118029Y0079880D01*
X0117354Y0079205D01*
X0116988Y0078323D01*
X0116988Y0077368D01*
X0117354Y0076486D01*
X0118029Y0075811D01*
X0118911Y0075445D01*
X0119866Y0075445D01*
X0120748Y0075811D01*
X0121423Y0076486D01*
X0121788Y0077368D01*
X0121788Y0077417D01*
X0123173Y0078802D01*
X0123264Y0078711D01*
X0132258Y0078711D01*
X0132961Y0079414D01*
X0132961Y0083008D01*
X0132487Y0083483D01*
X0132743Y0083631D01*
X0133041Y0083929D01*
X0133252Y0084294D01*
X0133361Y0084701D01*
X0133361Y0086161D01*
X0127811Y0086161D01*
X0127811Y0086261D01*
X0133361Y0086261D01*
X0133361Y0087722D01*
X0133252Y0088129D01*
X0133041Y0088494D01*
X0132743Y0088792D01*
X0132487Y0088940D01*
X0132961Y0089414D01*
X0132961Y0093008D01*
X0132258Y0093711D01*
X0123264Y0093711D01*
X0132258Y0093711D01*
X0132961Y0094414D01*
X0132961Y0098008D01*
X0132258Y0098711D01*
X0123264Y0098711D01*
X0132258Y0098711D01*
X0132620Y0099074D01*
X0135883Y0099074D01*
X0137467Y0097489D01*
X0137467Y0093806D01*
X0137433Y0093772D01*
X0137067Y0092890D01*
X0137067Y0091935D01*
X0137433Y0091053D01*
X0138108Y0090378D01*
X0138990Y0090012D01*
X0139945Y0090012D01*
X0140827Y0090378D01*
X0141502Y0091053D01*
X0141867Y0091935D01*
X0141867Y0092890D01*
X0141502Y0093772D01*
X0141467Y0093806D01*
X0141467Y0099146D01*
X0140296Y0100318D01*
X0138711Y0101902D01*
X0137540Y0103074D01*
X0132896Y0103074D01*
X0132487Y0103483D01*
X0132743Y0103631D01*
X0133041Y0103929D01*
X0133252Y0104294D01*
X0133361Y0104701D01*
X0133361Y0106161D01*
X0127811Y0106161D01*
X0127811Y0106261D01*
X0133361Y0106261D01*
X0133361Y0107722D01*
X0133252Y0108129D01*
X0133041Y0108494D01*
X0132743Y0108792D01*
X0132486Y0108940D01*
X0132961Y0109414D01*
X0132961Y0113008D01*
X0132486Y0113483D01*
X0132743Y0113631D01*
X0133041Y0113929D01*
X0133252Y0114294D01*
X0133361Y0114701D01*
X0133361Y0116161D01*
X0127811Y0116161D01*
X0127811Y0116261D01*
X0133361Y0116261D01*
X0133361Y0117722D01*
X0133252Y0118129D01*
X0133041Y0118494D01*
X0132743Y0118792D01*
X0132378Y0119002D01*
X0131972Y0119111D01*
X0127811Y0119111D01*
X0127811Y0116261D01*
X0127711Y0116261D01*
X0127711Y0116161D01*
X0122161Y0116161D01*
X0122161Y0114701D01*
X0122270Y0114294D01*
X0122481Y0113929D01*
X0122778Y0113631D01*
X0123035Y0113483D01*
X0122764Y0113211D01*
X0122284Y0113211D01*
X0122182Y0113313D01*
X0122182Y0113362D01*
X0121817Y0114244D01*
X0121142Y0114919D01*
X0120260Y0115285D01*
X0119305Y0115285D01*
X0118423Y0114919D01*
X0117748Y0114244D01*
X0117451Y0113529D01*
X0117451Y0141666D01*
X0116280Y0142837D01*
X0112340Y0146778D01*
X0112340Y0146827D01*
X0111974Y0147709D01*
X0111299Y0148384D01*
X0110417Y0148749D01*
X0109462Y0148749D01*
X0108580Y0148384D01*
X0107905Y0147709D01*
X0107540Y0146827D01*
X0107540Y0145872D01*
X0107905Y0144990D01*
X0108580Y0144315D01*
X0109462Y0143949D01*
X0109511Y0143949D01*
X0113451Y0140009D01*
X0113451Y0116216D01*
X0113300Y0116256D01*
X0110933Y0116256D01*
X0110933Y0111319D01*
X0109733Y0111319D01*
X0109733Y0116256D01*
X0107367Y0116256D01*
X0106960Y0116147D01*
X0106595Y0115937D01*
X0106428Y0115769D01*
X0106428Y0142453D01*
X0105256Y0143625D01*
X0102497Y0146384D01*
X0102497Y0146433D01*
X0102132Y0147315D01*
X0101457Y0147990D01*
X0100574Y0148355D01*
X0099620Y0148355D01*
X0098738Y0147990D01*
X0098062Y0147315D01*
X0097697Y0146433D01*
X0097697Y0145478D01*
X0098062Y0144596D01*
X0098738Y0143921D01*
X0099620Y0143556D01*
X0099669Y0143556D01*
X0102428Y0140796D01*
X0102428Y0115545D01*
X0101389Y0116584D01*
X0099529Y0117355D01*
X0097516Y0117355D01*
X0095656Y0116584D01*
X0094232Y0115161D01*
X0093462Y0113301D01*
X0093462Y0111287D01*
X0094232Y0109427D01*
X0095656Y0108004D01*
X0097516Y0107233D01*
X0099529Y0107233D01*
X0101389Y0108004D01*
X0102428Y0109043D01*
X0102428Y0083004D01*
X0100056Y0080633D01*
X0098885Y0079461D01*
X0098885Y0073330D01*
X0098719Y0073164D01*
X0098554Y0073330D01*
X0098554Y0075130D01*
X0093436Y0080248D01*
X0093436Y0090933D01*
X0094081Y0090287D01*
X0095941Y0089517D01*
X0097954Y0089517D01*
X0099814Y0090287D01*
X0101238Y0091711D01*
X0102008Y0093571D01*
X0102008Y0095584D01*
X0101238Y0097444D01*
X0099814Y0098868D01*
X0097954Y0099638D01*
X0095941Y0099638D01*
X0094081Y0098868D01*
X0093436Y0098223D01*
X0093436Y0141977D01*
X0094226Y0142768D01*
X0094275Y0142768D01*
X0095157Y0143133D01*
X0095833Y0143809D01*
X0096198Y0144691D01*
X0096198Y0145645D01*
X0095833Y0146528D01*
X0095157Y0147203D01*
X0094275Y0147568D01*
X0093320Y0147568D01*
X0092438Y0147203D01*
X0091763Y0146528D01*
X0091398Y0145645D01*
X0091398Y0145597D01*
X0089892Y0144091D01*
X0089892Y0150784D01*
X0090433Y0151008D01*
X0091108Y0151683D01*
X0091473Y0152565D01*
X0091473Y0153520D01*
X0091108Y0154402D01*
X0090433Y0155077D01*
X0090126Y0155204D01*
X0094626Y0159704D01*
X0159454Y0159704D01*
X0163381Y0155776D01*
X0163373Y0155759D01*
X0163373Y0154341D01*
X0163916Y0153032D01*
X0164662Y0152286D01*
X0159484Y0152286D01*
X0159484Y0155693D01*
X0156292Y0158886D01*
X0151777Y0158886D01*
X0148584Y0155693D01*
X0148584Y0151178D01*
X0151777Y0147986D01*
X0156292Y0147986D01*
X0156592Y0148286D01*
X0164440Y0148286D01*
X0163918Y0148070D01*
X0162916Y0147068D01*
X0162373Y0145759D01*
X0162373Y0144341D01*
X0162916Y0143032D01*
X0163918Y0142030D01*
X0165227Y0141488D01*
X0166644Y0141488D01*
X0167954Y0142030D01*
X0168956Y0143032D01*
X0169498Y0144341D01*
X0169498Y0145759D01*
X0168956Y0147068D01*
X0167954Y0148070D01*
X0167431Y0148286D01*
X0168560Y0148286D01*
X0169751Y0147096D01*
X0169751Y0138407D01*
X0172381Y0135776D01*
X0172373Y0135759D01*
X0172373Y0134341D01*
X0172916Y0133032D01*
X0173918Y0132030D01*
X0175227Y0131488D01*
X0176436Y0131488D01*
X0176436Y0128612D01*
X0176227Y0128612D01*
X0176209Y0128605D01*
X0172607Y0132207D01*
X0169131Y0132207D01*
X0169956Y0133032D01*
X0170498Y0134341D01*
X0170498Y0135759D01*
X0169956Y0137068D01*
X0168954Y0138070D01*
X0167644Y0138612D01*
X0166227Y0138612D01*
X0166209Y0138605D01*
X0161189Y0143625D01*
X0159484Y0143625D01*
X0159484Y0143882D01*
X0156292Y0147075D01*
X0151777Y0147075D01*
X0150129Y0145427D01*
X0150129Y0148359D01*
X0143829Y0154658D01*
X0142658Y0155830D01*
X0120508Y0155830D01*
X0120508Y0156087D01*
X0117315Y0159280D01*
X0112800Y0159280D01*
X0109608Y0156087D01*
X0109608Y0151572D01*
X0112800Y0148380D01*
X0112105Y0147392D02*
X0145438Y0147392D01*
X0146129Y0146194D02*
X0112923Y0146194D01*
X0114122Y0144995D02*
X0146129Y0144995D01*
X0146129Y0143797D02*
X0115320Y0143797D01*
X0116519Y0142598D02*
X0146129Y0142598D01*
X0146129Y0141400D02*
X0117451Y0141400D01*
X0117451Y0140201D02*
X0146129Y0140201D01*
X0146129Y0139003D02*
X0117451Y0139003D01*
X0117451Y0137804D02*
X0146758Y0137804D01*
X0147957Y0136606D02*
X0117451Y0136606D01*
X0117451Y0135407D02*
X0149155Y0135407D01*
X0150354Y0134209D02*
X0117451Y0134209D01*
X0117451Y0133010D02*
X0157458Y0133010D01*
X0160718Y0135407D02*
X0163373Y0135407D01*
X0163373Y0135759D02*
X0163373Y0134341D01*
X0163916Y0133032D01*
X0164741Y0132207D01*
X0163918Y0132207D01*
X0159577Y0136548D01*
X0158406Y0137719D01*
X0157836Y0137719D01*
X0159484Y0139367D01*
X0159484Y0139625D01*
X0159532Y0139625D01*
X0163381Y0135776D01*
X0163373Y0135759D01*
X0162551Y0136606D02*
X0159519Y0136606D01*
X0157921Y0137804D02*
X0161353Y0137804D01*
X0160154Y0139003D02*
X0159120Y0139003D01*
X0162216Y0142598D02*
X0163350Y0142598D01*
X0163414Y0141400D02*
X0169751Y0141400D01*
X0169751Y0142598D02*
X0168522Y0142598D01*
X0169272Y0143797D02*
X0169751Y0143797D01*
X0169751Y0144995D02*
X0169498Y0144995D01*
X0169318Y0146194D02*
X0169751Y0146194D01*
X0169454Y0147392D02*
X0168631Y0147392D01*
X0171515Y0150988D02*
X0176436Y0150988D01*
X0176436Y0149789D02*
X0172714Y0149789D01*
X0173751Y0148591D02*
X0176176Y0148591D01*
X0174240Y0147392D02*
X0173751Y0147392D01*
X0173751Y0143431D02*
X0173751Y0140063D01*
X0175209Y0138605D01*
X0175227Y0138612D01*
X0176436Y0138612D01*
X0176436Y0141488D01*
X0176227Y0141488D01*
X0174918Y0142030D01*
X0173916Y0143032D01*
X0173751Y0143431D01*
X0173751Y0142598D02*
X0174350Y0142598D01*
X0173751Y0141400D02*
X0176436Y0141400D01*
X0176436Y0140201D02*
X0173751Y0140201D01*
X0174811Y0139003D02*
X0176436Y0139003D01*
X0172428Y0134209D02*
X0170443Y0134209D01*
X0170498Y0135407D02*
X0172373Y0135407D01*
X0171551Y0136606D02*
X0170147Y0136606D01*
X0170353Y0137804D02*
X0169219Y0137804D01*
X0169751Y0139003D02*
X0165811Y0139003D01*
X0164613Y0140201D02*
X0169751Y0140201D01*
X0163428Y0134209D02*
X0161916Y0134209D01*
X0163115Y0133010D02*
X0163938Y0133010D01*
X0163918Y0128207D02*
X0162800Y0128207D01*
X0163427Y0127580D01*
X0163918Y0128070D01*
X0164250Y0128207D01*
X0163918Y0128207D01*
X0167621Y0128207D02*
X0170950Y0128207D01*
X0173381Y0125776D01*
X0173373Y0125759D01*
X0173373Y0124341D01*
X0173916Y0123032D01*
X0174918Y0122030D01*
X0176227Y0121488D01*
X0176436Y0121488D01*
X0176436Y0118612D01*
X0175227Y0118612D01*
X0173918Y0118070D01*
X0172916Y0117068D01*
X0172373Y0115759D01*
X0172373Y0114341D01*
X0172916Y0113032D01*
X0173918Y0112030D01*
X0175227Y0111488D01*
X0176436Y0111488D01*
X0176436Y0108612D01*
X0176227Y0108612D01*
X0174918Y0108070D01*
X0173916Y0107068D01*
X0173373Y0105759D01*
X0173373Y0104341D01*
X0173916Y0103032D01*
X0174918Y0102030D01*
X0176227Y0101488D01*
X0176436Y0101488D01*
X0176436Y0098990D01*
X0176326Y0099012D01*
X0176123Y0099012D01*
X0176123Y0095237D01*
X0175748Y0095237D01*
X0175748Y0094863D01*
X0171973Y0094863D01*
X0171973Y0094660D01*
X0172126Y0093894D01*
X0172424Y0093173D01*
X0172858Y0092524D01*
X0173410Y0091972D01*
X0174059Y0091539D01*
X0174780Y0091240D01*
X0175545Y0091088D01*
X0175748Y0091088D01*
X0175748Y0094863D01*
X0176123Y0094863D01*
X0176123Y0091088D01*
X0176326Y0091088D01*
X0176436Y0091110D01*
X0176436Y0088612D01*
X0176227Y0088612D01*
X0174918Y0088070D01*
X0173916Y0087068D01*
X0173373Y0085759D01*
X0173373Y0084341D01*
X0173381Y0084324D01*
X0171265Y0082207D01*
X0168131Y0082207D01*
X0168956Y0083032D01*
X0169498Y0084341D01*
X0169498Y0085759D01*
X0168956Y0087068D01*
X0167954Y0088070D01*
X0166644Y0088612D01*
X0165227Y0088612D01*
X0163918Y0088070D01*
X0162916Y0087068D01*
X0162733Y0086627D01*
X0162733Y0086984D01*
X0162368Y0087866D01*
X0162333Y0087901D01*
X0162333Y0091272D01*
X0161546Y0092060D01*
X0160374Y0093231D01*
X0156938Y0093231D01*
X0156458Y0093711D01*
X0147464Y0093711D01*
X0156458Y0093711D01*
X0156958Y0094211D01*
X0157874Y0094211D01*
X0161943Y0098280D01*
X0161992Y0098280D01*
X0162874Y0098645D01*
X0163549Y0099320D01*
X0163914Y0100203D01*
X0163914Y0101157D01*
X0163549Y0102039D01*
X0162874Y0102715D01*
X0161992Y0103080D01*
X0161037Y0103080D01*
X0160155Y0102715D01*
X0159480Y0102039D01*
X0159114Y0101157D01*
X0159114Y0101108D01*
X0157507Y0099501D01*
X0157561Y0099701D01*
X0157561Y0101161D01*
X0152011Y0101161D01*
X0152011Y0101261D01*
X0157561Y0101261D01*
X0157561Y0102722D01*
X0157452Y0103129D01*
X0157241Y0103494D01*
X0156943Y0103792D01*
X0156686Y0103940D01*
X0156958Y0104211D01*
X0157638Y0104211D01*
X0161549Y0108122D01*
X0161598Y0108122D01*
X0162480Y0108488D01*
X0163155Y0109163D01*
X0163521Y0110045D01*
X0163521Y0111000D01*
X0163155Y0111882D01*
X0162480Y0112557D01*
X0161689Y0112885D01*
X0162480Y0113212D01*
X0163155Y0113887D01*
X0163373Y0114414D01*
X0163373Y0114341D01*
X0163916Y0113032D01*
X0164918Y0112030D01*
X0166227Y0111488D01*
X0167644Y0111488D01*
X0168954Y0112030D01*
X0169956Y0113032D01*
X0170498Y0114341D01*
X0170498Y0115759D01*
X0169956Y0117068D01*
X0168954Y0118070D01*
X0167644Y0118612D01*
X0166227Y0118612D01*
X0164918Y0118070D01*
X0163916Y0117068D01*
X0163440Y0115919D01*
X0163155Y0116606D01*
X0162480Y0117281D01*
X0161598Y0117647D01*
X0161546Y0117647D01*
X0161546Y0123804D01*
X0162300Y0123050D01*
X0162908Y0123050D01*
X0162916Y0123032D01*
X0163918Y0122030D01*
X0165227Y0121488D01*
X0166644Y0121488D01*
X0167954Y0122030D01*
X0168956Y0123032D01*
X0169498Y0124341D01*
X0169498Y0125759D01*
X0168956Y0127068D01*
X0167954Y0128070D01*
X0167621Y0128207D01*
X0168976Y0127018D02*
X0172139Y0127018D01*
X0173338Y0125819D02*
X0169473Y0125819D01*
X0169498Y0124621D02*
X0173373Y0124621D01*
X0173754Y0123422D02*
X0169117Y0123422D01*
X0168147Y0122224D02*
X0174724Y0122224D01*
X0176436Y0121025D02*
X0161546Y0121025D01*
X0161546Y0119827D02*
X0176436Y0119827D01*
X0176436Y0118628D02*
X0161546Y0118628D01*
X0162122Y0117430D02*
X0164278Y0117430D01*
X0163569Y0116231D02*
X0163311Y0116231D01*
X0163102Y0113834D02*
X0163584Y0113834D01*
X0164312Y0112636D02*
X0162291Y0112636D01*
X0163340Y0111437D02*
X0176436Y0111437D01*
X0176436Y0110239D02*
X0163521Y0110239D01*
X0163032Y0109040D02*
X0176436Y0109040D01*
X0174690Y0107842D02*
X0168182Y0107842D01*
X0167954Y0108070D02*
X0166644Y0108612D01*
X0165227Y0108612D01*
X0163918Y0108070D01*
X0162916Y0107068D01*
X0162373Y0105759D01*
X0162373Y0104341D01*
X0162916Y0103032D01*
X0163918Y0102030D01*
X0165227Y0101488D01*
X0166644Y0101488D01*
X0167954Y0102030D01*
X0168956Y0103032D01*
X0169498Y0104341D01*
X0169498Y0105759D01*
X0168956Y0107068D01*
X0167954Y0108070D01*
X0169132Y0106643D02*
X0173740Y0106643D01*
X0173373Y0105445D02*
X0169498Y0105445D01*
X0169458Y0104246D02*
X0173413Y0104246D01*
X0173909Y0103048D02*
X0168962Y0103048D01*
X0167516Y0101849D02*
X0175355Y0101849D01*
X0176436Y0100651D02*
X0163914Y0100651D01*
X0163628Y0101849D02*
X0164355Y0101849D01*
X0162909Y0103048D02*
X0162070Y0103048D01*
X0160959Y0103048D02*
X0157474Y0103048D01*
X0157561Y0101849D02*
X0159401Y0101849D01*
X0158657Y0100651D02*
X0157561Y0100651D01*
X0157673Y0104246D02*
X0162413Y0104246D01*
X0162373Y0105445D02*
X0158871Y0105445D01*
X0160070Y0106643D02*
X0162740Y0106643D01*
X0163690Y0107842D02*
X0161268Y0107842D01*
X0156981Y0109211D02*
X0156470Y0108700D01*
X0156458Y0108711D01*
X0147464Y0108711D01*
X0156458Y0108711D01*
X0156958Y0109211D01*
X0156981Y0109211D01*
X0156810Y0109040D02*
X0156787Y0109040D01*
X0156607Y0113562D02*
X0156458Y0113711D01*
X0147464Y0113711D01*
X0156458Y0113711D01*
X0157161Y0114414D01*
X0157161Y0114428D01*
X0157473Y0114428D01*
X0156607Y0113562D01*
X0156581Y0113834D02*
X0156880Y0113834D01*
X0156949Y0118628D02*
X0156541Y0118628D01*
X0157546Y0119827D02*
X0117451Y0119827D01*
X0117451Y0121025D02*
X0132804Y0121025D01*
X0132355Y0122224D02*
X0125411Y0122224D01*
X0126610Y0123422D02*
X0132355Y0123422D01*
X0132355Y0125819D02*
X0128382Y0125819D01*
X0128382Y0127018D02*
X0132355Y0127018D01*
X0132355Y0128216D02*
X0128382Y0128216D01*
X0127808Y0124621D02*
X0135914Y0124621D01*
X0135914Y0123422D02*
X0137114Y0123422D01*
X0137114Y0122224D02*
X0135914Y0122224D01*
X0135914Y0121025D02*
X0137114Y0121025D01*
X0140225Y0121025D02*
X0140850Y0121025D01*
X0147139Y0121025D02*
X0157546Y0121025D01*
X0157546Y0122224D02*
X0147754Y0122224D01*
X0147381Y0118628D02*
X0132907Y0118628D01*
X0133361Y0117430D02*
X0146761Y0117430D01*
X0146761Y0116231D02*
X0127811Y0116231D01*
X0127711Y0116231D02*
X0117451Y0116231D01*
X0117451Y0115033D02*
X0118696Y0115033D01*
X0117578Y0113834D02*
X0117451Y0113834D01*
X0117451Y0111437D02*
X0117836Y0111437D01*
X0117451Y0110239D02*
X0119600Y0110239D01*
X0117451Y0109040D02*
X0122935Y0109040D01*
X0122193Y0107842D02*
X0117451Y0107842D01*
X0117451Y0106643D02*
X0122161Y0106643D01*
X0122161Y0105445D02*
X0117451Y0105445D01*
X0117451Y0104246D02*
X0122298Y0104246D01*
X0122600Y0103048D02*
X0117451Y0103048D01*
X0117451Y0101849D02*
X0122561Y0101849D01*
X0122561Y0100651D02*
X0117451Y0100651D01*
X0117451Y0099452D02*
X0118703Y0099452D01*
X0118170Y0098253D02*
X0117451Y0098253D01*
X0117451Y0097055D02*
X0118332Y0097055D01*
X0117451Y0095856D02*
X0119290Y0095856D01*
X0121007Y0094658D02*
X0117451Y0094658D01*
X0117451Y0093459D02*
X0123012Y0093459D01*
X0122652Y0088665D02*
X0121991Y0088665D01*
X0122161Y0087467D02*
X0117451Y0087467D01*
X0117451Y0088665D02*
X0119935Y0088665D01*
X0118769Y0089864D02*
X0117451Y0089864D01*
X0117451Y0091062D02*
X0118563Y0091062D01*
X0118993Y0092261D02*
X0117451Y0092261D01*
X0113451Y0092261D02*
X0106428Y0092261D01*
X0106428Y0093459D02*
X0113451Y0093459D01*
X0113451Y0094658D02*
X0106428Y0094658D01*
X0106428Y0095856D02*
X0113451Y0095856D01*
X0113451Y0097055D02*
X0106428Y0097055D01*
X0106428Y0098253D02*
X0113451Y0098253D01*
X0113451Y0099452D02*
X0106428Y0099452D01*
X0106428Y0100651D02*
X0113451Y0100651D01*
X0113451Y0101849D02*
X0106428Y0101849D01*
X0106428Y0103048D02*
X0113451Y0103048D01*
X0113451Y0104246D02*
X0106428Y0104246D01*
X0106960Y0105291D02*
X0107367Y0105182D01*
X0109733Y0105182D01*
X0109733Y0110119D01*
X0110933Y0110119D01*
X0110933Y0105182D01*
X0113300Y0105182D01*
X0113451Y0105223D01*
X0113451Y0088123D01*
X0103215Y0077886D01*
X0103215Y0076229D01*
X0103215Y0073330D01*
X0103050Y0073164D01*
X0102884Y0073330D01*
X0102884Y0077804D01*
X0105256Y0080176D01*
X0105256Y0080176D01*
X0106428Y0081348D01*
X0106428Y0105669D01*
X0106595Y0105502D01*
X0106960Y0105291D01*
X0106694Y0105445D02*
X0106428Y0105445D01*
X0109733Y0105445D02*
X0110933Y0105445D01*
X0110933Y0106643D02*
X0109733Y0106643D01*
X0109733Y0107842D02*
X0110933Y0107842D01*
X0110933Y0109040D02*
X0109733Y0109040D01*
X0109733Y0111437D02*
X0110933Y0111437D01*
X0110933Y0112636D02*
X0109733Y0112636D01*
X0109733Y0113834D02*
X0110933Y0113834D01*
X0110933Y0115033D02*
X0109733Y0115033D01*
X0109733Y0116231D02*
X0110933Y0116231D01*
X0113394Y0116231D02*
X0113451Y0116231D01*
X0113451Y0117430D02*
X0106428Y0117430D01*
X0106428Y0118628D02*
X0113451Y0118628D01*
X0113451Y0119827D02*
X0106428Y0119827D01*
X0106428Y0121025D02*
X0113451Y0121025D01*
X0113451Y0122224D02*
X0106428Y0122224D01*
X0106428Y0123422D02*
X0113451Y0123422D01*
X0113451Y0124621D02*
X0106428Y0124621D01*
X0106428Y0125819D02*
X0113451Y0125819D01*
X0113451Y0127018D02*
X0106428Y0127018D01*
X0106428Y0128216D02*
X0113451Y0128216D01*
X0113451Y0129415D02*
X0106428Y0129415D01*
X0106428Y0130613D02*
X0113451Y0130613D01*
X0113451Y0131812D02*
X0106428Y0131812D01*
X0106428Y0133010D02*
X0113451Y0133010D01*
X0113451Y0134209D02*
X0106428Y0134209D01*
X0106428Y0135407D02*
X0113451Y0135407D01*
X0113451Y0136606D02*
X0106428Y0136606D01*
X0106428Y0137804D02*
X0113451Y0137804D01*
X0113451Y0139003D02*
X0106428Y0139003D01*
X0106428Y0140201D02*
X0113259Y0140201D01*
X0112061Y0141400D02*
X0106428Y0141400D01*
X0106283Y0142598D02*
X0110862Y0142598D01*
X0109663Y0143797D02*
X0105084Y0143797D01*
X0105256Y0143625D02*
X0105256Y0143625D01*
X0103886Y0144995D02*
X0107903Y0144995D01*
X0107540Y0146194D02*
X0102687Y0146194D01*
X0102054Y0147392D02*
X0107774Y0147392D01*
X0109080Y0148591D02*
X0089892Y0148591D01*
X0089892Y0147392D02*
X0092896Y0147392D01*
X0091625Y0146194D02*
X0089892Y0146194D01*
X0089892Y0144995D02*
X0090797Y0144995D01*
X0094057Y0142598D02*
X0100626Y0142598D01*
X0101824Y0141400D02*
X0093436Y0141400D01*
X0093436Y0140201D02*
X0102428Y0140201D01*
X0102428Y0139003D02*
X0093436Y0139003D01*
X0093436Y0137804D02*
X0102428Y0137804D01*
X0102428Y0136606D02*
X0093436Y0136606D01*
X0093436Y0135407D02*
X0102428Y0135407D01*
X0102428Y0134209D02*
X0093436Y0134209D01*
X0093436Y0133010D02*
X0102428Y0133010D01*
X0102428Y0131812D02*
X0093436Y0131812D01*
X0093436Y0130613D02*
X0102428Y0130613D01*
X0102428Y0129415D02*
X0093436Y0129415D01*
X0093436Y0128216D02*
X0102428Y0128216D01*
X0102428Y0127018D02*
X0093436Y0127018D01*
X0093436Y0125819D02*
X0102428Y0125819D01*
X0102428Y0124621D02*
X0093436Y0124621D01*
X0093436Y0123422D02*
X0102428Y0123422D01*
X0102428Y0122224D02*
X0093436Y0122224D01*
X0093436Y0121025D02*
X0102428Y0121025D01*
X0102428Y0119827D02*
X0093436Y0119827D01*
X0093436Y0118628D02*
X0102428Y0118628D01*
X0102428Y0117430D02*
X0093436Y0117430D01*
X0093436Y0116231D02*
X0095303Y0116231D01*
X0094179Y0115033D02*
X0093436Y0115033D01*
X0093436Y0113834D02*
X0093683Y0113834D01*
X0093462Y0112636D02*
X0093436Y0112636D01*
X0093436Y0111437D02*
X0093462Y0111437D01*
X0093436Y0110239D02*
X0093896Y0110239D01*
X0093436Y0109040D02*
X0094619Y0109040D01*
X0093436Y0107842D02*
X0096048Y0107842D01*
X0093436Y0106643D02*
X0102428Y0106643D01*
X0102428Y0105445D02*
X0093436Y0105445D01*
X0093436Y0104246D02*
X0102428Y0104246D01*
X0102428Y0103048D02*
X0093436Y0103048D01*
X0093436Y0101849D02*
X0102428Y0101849D01*
X0102428Y0100651D02*
X0093436Y0100651D01*
X0093436Y0099452D02*
X0095491Y0099452D01*
X0098404Y0099452D02*
X0102428Y0099452D01*
X0102428Y0098253D02*
X0100428Y0098253D01*
X0101399Y0097055D02*
X0102428Y0097055D01*
X0102428Y0095856D02*
X0101895Y0095856D01*
X0102008Y0094658D02*
X0102428Y0094658D01*
X0102428Y0093459D02*
X0101962Y0093459D01*
X0102428Y0092261D02*
X0101466Y0092261D01*
X0100589Y0091062D02*
X0102428Y0091062D01*
X0102428Y0089864D02*
X0098792Y0089864D01*
X0095103Y0089864D02*
X0093436Y0089864D01*
X0093436Y0088665D02*
X0102428Y0088665D01*
X0102428Y0087467D02*
X0093436Y0087467D01*
X0093436Y0086268D02*
X0102428Y0086268D01*
X0102428Y0085070D02*
X0093436Y0085070D01*
X0093436Y0083871D02*
X0102428Y0083871D01*
X0102096Y0082673D02*
X0093436Y0082673D01*
X0093436Y0081474D02*
X0100898Y0081474D01*
X0100056Y0080633D02*
X0100056Y0080633D01*
X0099699Y0080276D02*
X0093436Y0080276D01*
X0094607Y0079077D02*
X0098885Y0079077D01*
X0098885Y0077879D02*
X0095805Y0077879D01*
X0097004Y0076680D02*
X0098885Y0076680D01*
X0098885Y0075482D02*
X0098202Y0075482D01*
X0098554Y0074283D02*
X0098885Y0074283D01*
X0094368Y0073660D02*
X0094219Y0073746D01*
X0093812Y0073855D01*
X0092312Y0073855D01*
X0092312Y0069588D01*
X0092134Y0069588D01*
X0092134Y0073855D01*
X0090634Y0073855D01*
X0090228Y0073746D01*
X0089892Y0073552D01*
X0089892Y0078135D01*
X0090607Y0077420D01*
X0094368Y0073660D01*
X0093744Y0074283D02*
X0089892Y0074283D01*
X0089892Y0075482D02*
X0092546Y0075482D01*
X0091347Y0076680D02*
X0089892Y0076680D01*
X0089892Y0077879D02*
X0090149Y0077879D01*
X0092134Y0073085D02*
X0092312Y0073085D01*
X0092312Y0071886D02*
X0092134Y0071886D01*
X0092134Y0070688D02*
X0092312Y0070688D01*
X0092312Y0068291D02*
X0092134Y0068291D01*
X0092134Y0067092D02*
X0092312Y0067092D01*
X0092312Y0065894D02*
X0092134Y0065894D01*
X0102884Y0065668D02*
X0103050Y0065833D01*
X0103215Y0065668D01*
X0103215Y0056151D01*
X0104387Y0054979D01*
X0105568Y0053798D01*
X0159193Y0053798D01*
X0160365Y0054970D01*
X0162343Y0056948D01*
X0163514Y0058119D01*
X0163514Y0062434D01*
X0163918Y0062030D01*
X0165227Y0061488D01*
X0166644Y0061488D01*
X0167954Y0062030D01*
X0168956Y0063032D01*
X0169498Y0064341D01*
X0169498Y0065759D01*
X0168956Y0067068D01*
X0167954Y0068070D01*
X0166644Y0068612D01*
X0165227Y0068612D01*
X0163918Y0068070D01*
X0163514Y0067666D01*
X0163514Y0074001D01*
X0163916Y0073032D01*
X0164918Y0072030D01*
X0166227Y0071488D01*
X0167644Y0071488D01*
X0168954Y0072030D01*
X0169956Y0073032D01*
X0170498Y0074341D01*
X0170498Y0075759D01*
X0169956Y0077068D01*
X0168954Y0078070D01*
X0168621Y0078207D01*
X0172922Y0078207D01*
X0176209Y0081495D01*
X0176227Y0081488D01*
X0176436Y0081488D01*
X0176436Y0078612D01*
X0175227Y0078612D01*
X0173918Y0078070D01*
X0172916Y0077068D01*
X0172373Y0075759D01*
X0172373Y0074341D01*
X0172916Y0073032D01*
X0173918Y0072030D01*
X0175227Y0071488D01*
X0176436Y0071488D01*
X0176436Y0068612D01*
X0176227Y0068612D01*
X0174918Y0068070D01*
X0173916Y0067068D01*
X0173373Y0065759D01*
X0173373Y0064341D01*
X0173916Y0063032D01*
X0174918Y0062030D01*
X0176227Y0061488D01*
X0176436Y0061488D01*
X0176436Y0058612D01*
X0175227Y0058612D01*
X0173918Y0058070D01*
X0172916Y0057068D01*
X0172373Y0055759D01*
X0172373Y0054341D01*
X0172916Y0053032D01*
X0173918Y0052030D01*
X0175227Y0051488D01*
X0176436Y0051488D01*
X0176436Y0048612D01*
X0176227Y0048612D01*
X0176209Y0048605D01*
X0172528Y0052286D01*
X0169210Y0052286D01*
X0169956Y0053032D01*
X0170498Y0054341D01*
X0170498Y0055759D01*
X0169956Y0057068D01*
X0168954Y0058070D01*
X0167644Y0058612D01*
X0166227Y0058612D01*
X0164918Y0058070D01*
X0163916Y0057068D01*
X0163373Y0055759D01*
X0163373Y0054341D01*
X0163916Y0053032D01*
X0164662Y0052286D01*
X0103288Y0052286D01*
X0102884Y0052689D01*
X0102884Y0065668D01*
X0102884Y0064695D02*
X0103215Y0064695D01*
X0103215Y0063497D02*
X0102884Y0063497D01*
X0102884Y0062298D02*
X0103215Y0062298D01*
X0103215Y0061100D02*
X0102884Y0061100D01*
X0102884Y0059901D02*
X0103215Y0059901D01*
X0103215Y0058703D02*
X0102884Y0058703D01*
X0102884Y0057504D02*
X0103215Y0057504D01*
X0103215Y0056306D02*
X0102884Y0056306D01*
X0102884Y0055107D02*
X0104259Y0055107D01*
X0105457Y0053909D02*
X0102884Y0053909D01*
X0102884Y0052710D02*
X0164238Y0052710D01*
X0163553Y0053909D02*
X0159304Y0053909D01*
X0160502Y0055107D02*
X0163373Y0055107D01*
X0163600Y0056306D02*
X0161701Y0056306D01*
X0162343Y0056948D02*
X0162343Y0056948D01*
X0162899Y0057504D02*
X0164352Y0057504D01*
X0163514Y0058703D02*
X0176436Y0058703D01*
X0176436Y0059901D02*
X0163514Y0059901D01*
X0163514Y0061100D02*
X0176436Y0061100D01*
X0174650Y0062298D02*
X0168222Y0062298D01*
X0169148Y0063497D02*
X0173723Y0063497D01*
X0173373Y0064695D02*
X0169498Y0064695D01*
X0169442Y0065894D02*
X0173429Y0065894D01*
X0173940Y0067092D02*
X0168931Y0067092D01*
X0167420Y0068291D02*
X0175451Y0068291D01*
X0176436Y0069489D02*
X0163514Y0069489D01*
X0163514Y0068291D02*
X0164451Y0068291D01*
X0163514Y0070688D02*
X0176436Y0070688D01*
X0174265Y0071886D02*
X0168606Y0071886D01*
X0169977Y0073085D02*
X0172894Y0073085D01*
X0172398Y0074283D02*
X0170474Y0074283D01*
X0170498Y0075482D02*
X0172373Y0075482D01*
X0172755Y0076680D02*
X0170116Y0076680D01*
X0169145Y0077879D02*
X0173727Y0077879D01*
X0173791Y0079077D02*
X0176436Y0079077D01*
X0176436Y0080276D02*
X0174990Y0080276D01*
X0176188Y0081474D02*
X0176436Y0081474D01*
X0172929Y0083871D02*
X0169303Y0083871D01*
X0169498Y0085070D02*
X0173373Y0085070D01*
X0173585Y0086268D02*
X0169287Y0086268D01*
X0168556Y0087467D02*
X0174315Y0087467D01*
X0176436Y0088665D02*
X0162333Y0088665D01*
X0162333Y0089864D02*
X0176436Y0089864D01*
X0176436Y0091062D02*
X0162333Y0091062D01*
X0161345Y0092261D02*
X0164121Y0092261D01*
X0163858Y0092524D02*
X0164410Y0091972D01*
X0165059Y0091539D01*
X0165780Y0091240D01*
X0166545Y0091088D01*
X0166748Y0091088D01*
X0166748Y0094863D01*
X0162973Y0094863D01*
X0162973Y0094660D01*
X0163126Y0093894D01*
X0163424Y0093173D01*
X0163858Y0092524D01*
X0163306Y0093459D02*
X0156710Y0093459D01*
X0158321Y0094658D02*
X0162974Y0094658D01*
X0162973Y0095237D02*
X0166748Y0095237D01*
X0166748Y0094863D01*
X0167123Y0094863D01*
X0167123Y0095237D01*
X0170898Y0095237D01*
X0170898Y0095440D01*
X0170746Y0096206D01*
X0170447Y0096927D01*
X0170013Y0097576D01*
X0169461Y0098128D01*
X0168812Y0098561D01*
X0168091Y0098860D01*
X0167326Y0099012D01*
X0167123Y0099012D01*
X0167123Y0095237D01*
X0166748Y0095237D01*
X0166748Y0099012D01*
X0166545Y0099012D01*
X0165780Y0098860D01*
X0165059Y0098561D01*
X0164410Y0098128D01*
X0163858Y0097576D01*
X0163424Y0096927D01*
X0163126Y0096206D01*
X0162973Y0095440D01*
X0162973Y0095237D01*
X0163056Y0095856D02*
X0159519Y0095856D01*
X0160718Y0097055D02*
X0163510Y0097055D01*
X0164598Y0098253D02*
X0161916Y0098253D01*
X0163604Y0099452D02*
X0176436Y0099452D01*
X0175748Y0099012D02*
X0175545Y0099012D01*
X0174780Y0098860D01*
X0174059Y0098561D01*
X0173410Y0098128D01*
X0172858Y0097576D01*
X0172424Y0096927D01*
X0172126Y0096206D01*
X0171973Y0095440D01*
X0171973Y0095237D01*
X0175748Y0095237D01*
X0175748Y0099012D01*
X0175748Y0098253D02*
X0176123Y0098253D01*
X0176123Y0097055D02*
X0175748Y0097055D01*
X0175748Y0095856D02*
X0176123Y0095856D01*
X0176123Y0094658D02*
X0175748Y0094658D01*
X0175748Y0093459D02*
X0176123Y0093459D01*
X0176123Y0092261D02*
X0175748Y0092261D01*
X0173121Y0092261D02*
X0169750Y0092261D01*
X0170013Y0092524D02*
X0170447Y0093173D01*
X0170746Y0093894D01*
X0170898Y0094660D01*
X0170898Y0094863D01*
X0167123Y0094863D01*
X0167123Y0091088D01*
X0167326Y0091088D01*
X0168091Y0091240D01*
X0168812Y0091539D01*
X0169461Y0091972D01*
X0170013Y0092524D01*
X0170566Y0093459D02*
X0172306Y0093459D01*
X0171974Y0094658D02*
X0170898Y0094658D01*
X0170815Y0095856D02*
X0172056Y0095856D01*
X0172510Y0097055D02*
X0170361Y0097055D01*
X0169273Y0098253D02*
X0173598Y0098253D01*
X0167123Y0098253D02*
X0166748Y0098253D01*
X0166748Y0097055D02*
X0167123Y0097055D01*
X0167123Y0095856D02*
X0166748Y0095856D01*
X0166748Y0094658D02*
X0167123Y0094658D01*
X0167123Y0093459D02*
X0166748Y0093459D01*
X0166748Y0092261D02*
X0167123Y0092261D01*
X0163315Y0087467D02*
X0162533Y0087467D01*
X0162373Y0085161D02*
X0162373Y0084341D01*
X0162916Y0083032D01*
X0163918Y0082030D01*
X0164013Y0081991D01*
X0161152Y0079130D01*
X0161152Y0081036D01*
X0159981Y0082207D01*
X0158977Y0083211D01*
X0156958Y0083211D01*
X0156687Y0083483D01*
X0156943Y0083631D01*
X0157241Y0083929D01*
X0157452Y0084294D01*
X0157561Y0084701D01*
X0157561Y0086161D01*
X0152011Y0086161D01*
X0152011Y0086261D01*
X0157561Y0086261D01*
X0157561Y0087722D01*
X0157452Y0088129D01*
X0157241Y0088494D01*
X0156943Y0088792D01*
X0156687Y0088940D01*
X0156978Y0089231D01*
X0158333Y0089231D01*
X0158333Y0087901D01*
X0158299Y0087866D01*
X0157933Y0086984D01*
X0157933Y0086029D01*
X0158299Y0085147D01*
X0158974Y0084472D01*
X0159856Y0084107D01*
X0160811Y0084107D01*
X0161693Y0084472D01*
X0162368Y0085147D01*
X0162373Y0085161D01*
X0162373Y0085070D02*
X0162291Y0085070D01*
X0162568Y0083871D02*
X0157184Y0083871D01*
X0157561Y0085070D02*
X0158376Y0085070D01*
X0157933Y0086268D02*
X0157561Y0086268D01*
X0157561Y0087467D02*
X0158133Y0087467D01*
X0158333Y0088665D02*
X0157070Y0088665D01*
X0159515Y0082673D02*
X0163275Y0082673D01*
X0163496Y0081474D02*
X0160714Y0081474D01*
X0161152Y0080276D02*
X0162298Y0080276D01*
X0159514Y0075482D02*
X0158830Y0075482D01*
X0159514Y0074283D02*
X0153376Y0074283D01*
X0152330Y0074283D02*
X0114689Y0074283D01*
X0114689Y0075482D02*
X0118823Y0075482D01*
X0119954Y0075482D02*
X0150745Y0075482D01*
X0150453Y0076680D02*
X0121504Y0076680D01*
X0122250Y0077879D02*
X0150758Y0077879D01*
X0154182Y0078711D02*
X0156403Y0078711D01*
X0156355Y0078664D01*
X0154247Y0078664D01*
X0154213Y0078699D01*
X0154182Y0078711D01*
X0159514Y0073085D02*
X0111170Y0073085D01*
X0111170Y0072324D02*
X0114689Y0072324D01*
X0114689Y0069957D01*
X0114580Y0069551D01*
X0114370Y0069186D01*
X0114072Y0068888D01*
X0113707Y0068677D01*
X0113300Y0068568D01*
X0111170Y0068568D01*
X0111170Y0072324D01*
X0111170Y0071886D02*
X0109970Y0071886D01*
X0109970Y0070688D02*
X0111170Y0070688D01*
X0111170Y0069489D02*
X0109970Y0069489D01*
X0107793Y0068291D02*
X0136994Y0068291D01*
X0138192Y0069489D02*
X0114545Y0069489D01*
X0114689Y0070688D02*
X0159514Y0070688D01*
X0159514Y0071886D02*
X0114689Y0071886D01*
X0111170Y0074283D02*
X0109970Y0074283D01*
X0109970Y0075482D02*
X0111170Y0075482D01*
X0111170Y0076680D02*
X0109970Y0076680D01*
X0108865Y0077879D02*
X0116988Y0077879D01*
X0117273Y0076680D02*
X0114352Y0076680D01*
X0117301Y0079077D02*
X0110063Y0079077D01*
X0111262Y0080276D02*
X0118991Y0080276D01*
X0120189Y0081474D02*
X0112460Y0081474D01*
X0113659Y0082673D02*
X0121388Y0082673D01*
X0122538Y0083871D02*
X0114857Y0083871D01*
X0116056Y0085070D02*
X0122161Y0085070D01*
X0122161Y0086268D02*
X0117254Y0086268D01*
X0113451Y0088665D02*
X0106428Y0088665D01*
X0106428Y0087467D02*
X0112796Y0087467D01*
X0111597Y0086268D02*
X0106428Y0086268D01*
X0106428Y0085070D02*
X0110399Y0085070D01*
X0109200Y0083871D02*
X0106428Y0083871D01*
X0106428Y0082673D02*
X0108002Y0082673D01*
X0106803Y0081474D02*
X0106428Y0081474D01*
X0105605Y0080276D02*
X0105356Y0080276D01*
X0104406Y0079077D02*
X0104158Y0079077D01*
X0103215Y0077879D02*
X0102959Y0077879D01*
X0102884Y0076680D02*
X0103215Y0076680D01*
X0103215Y0075482D02*
X0102884Y0075482D01*
X0102884Y0074283D02*
X0103215Y0074283D01*
X0107793Y0067092D02*
X0135795Y0067092D01*
X0135586Y0066883D02*
X0135586Y0064959D01*
X0140936Y0064959D01*
X0140936Y0063959D01*
X0141936Y0063959D01*
X0141936Y0064959D01*
X0147286Y0064959D01*
X0147286Y0066883D01*
X0143859Y0070309D01*
X0141936Y0070309D01*
X0141936Y0064960D01*
X0140936Y0064960D01*
X0140936Y0070309D01*
X0139013Y0070309D01*
X0135586Y0066883D01*
X0135586Y0065894D02*
X0107441Y0065894D01*
X0107215Y0064695D02*
X0140936Y0064695D01*
X0140936Y0063959D02*
X0135586Y0063959D01*
X0135586Y0062036D01*
X0139013Y0058609D01*
X0140936Y0058609D01*
X0140936Y0063959D01*
X0140936Y0063497D02*
X0141936Y0063497D01*
X0141936Y0063959D02*
X0141936Y0058609D01*
X0143859Y0058609D01*
X0147286Y0062036D01*
X0147286Y0063959D01*
X0141936Y0063959D01*
X0141936Y0064695D02*
X0159514Y0064695D01*
X0159514Y0063497D02*
X0147286Y0063497D01*
X0147286Y0062298D02*
X0159514Y0062298D01*
X0159514Y0061100D02*
X0146349Y0061100D01*
X0145151Y0059901D02*
X0159514Y0059901D01*
X0158441Y0058703D02*
X0143952Y0058703D01*
X0141936Y0058703D02*
X0140936Y0058703D01*
X0140936Y0059901D02*
X0141936Y0059901D01*
X0141936Y0061100D02*
X0140936Y0061100D01*
X0140936Y0062298D02*
X0141936Y0062298D01*
X0141936Y0065894D02*
X0140936Y0065894D01*
X0140936Y0067092D02*
X0141936Y0067092D01*
X0141936Y0068291D02*
X0140936Y0068291D01*
X0140936Y0069489D02*
X0141936Y0069489D01*
X0144679Y0069489D02*
X0159514Y0069489D01*
X0159514Y0068291D02*
X0145878Y0068291D01*
X0147076Y0067092D02*
X0159514Y0067092D01*
X0159514Y0065894D02*
X0147286Y0065894D01*
X0138919Y0058703D02*
X0107215Y0058703D01*
X0107215Y0059901D02*
X0137721Y0059901D01*
X0136522Y0061100D02*
X0107215Y0061100D01*
X0107215Y0062298D02*
X0135586Y0062298D01*
X0135586Y0063497D02*
X0107215Y0063497D01*
X0099408Y0046718D02*
X0162771Y0046718D01*
X0169633Y0052710D02*
X0173238Y0052710D01*
X0173303Y0051512D02*
X0175170Y0051512D01*
X0174501Y0050313D02*
X0176436Y0050313D01*
X0176436Y0049115D02*
X0175700Y0049115D01*
X0172553Y0053909D02*
X0170319Y0053909D01*
X0170498Y0055107D02*
X0172373Y0055107D01*
X0172600Y0056306D02*
X0170271Y0056306D01*
X0169519Y0057504D02*
X0173352Y0057504D01*
X0163650Y0062298D02*
X0163514Y0062298D01*
X0163514Y0071886D02*
X0165265Y0071886D01*
X0163894Y0073085D02*
X0163514Y0073085D01*
X0168596Y0082673D02*
X0171730Y0082673D01*
X0147098Y0079077D02*
X0132624Y0079077D01*
X0132961Y0080276D02*
X0146761Y0080276D01*
X0146761Y0081474D02*
X0132961Y0081474D01*
X0132961Y0082673D02*
X0146761Y0082673D01*
X0146738Y0083871D02*
X0132984Y0083871D01*
X0133361Y0085070D02*
X0146361Y0085070D01*
X0146361Y0086268D02*
X0133361Y0086268D01*
X0133361Y0087467D02*
X0146361Y0087467D01*
X0146852Y0088665D02*
X0132870Y0088665D01*
X0132961Y0089864D02*
X0146761Y0089864D01*
X0146761Y0091062D02*
X0141506Y0091062D01*
X0141867Y0092261D02*
X0146761Y0092261D01*
X0147212Y0093459D02*
X0141631Y0093459D01*
X0141467Y0094658D02*
X0146761Y0094658D01*
X0146761Y0095856D02*
X0141467Y0095856D01*
X0141467Y0097055D02*
X0146761Y0097055D01*
X0147006Y0098253D02*
X0141467Y0098253D01*
X0141161Y0099452D02*
X0146428Y0099452D01*
X0146361Y0100651D02*
X0139963Y0100651D01*
X0140296Y0100318D02*
X0140296Y0100318D01*
X0138764Y0101849D02*
X0146361Y0101849D01*
X0146448Y0103048D02*
X0137566Y0103048D01*
X0138711Y0101902D02*
X0138711Y0101902D01*
X0136703Y0098253D02*
X0132716Y0098253D01*
X0132961Y0097055D02*
X0137467Y0097055D01*
X0137467Y0095856D02*
X0132961Y0095856D01*
X0132961Y0094658D02*
X0137467Y0094658D01*
X0137303Y0093459D02*
X0132510Y0093459D01*
X0132961Y0092261D02*
X0137067Y0092261D01*
X0137429Y0091062D02*
X0132961Y0091062D01*
X0133224Y0104246D02*
X0146929Y0104246D01*
X0146761Y0105445D02*
X0133361Y0105445D01*
X0133361Y0106643D02*
X0146761Y0106643D01*
X0146761Y0107842D02*
X0133329Y0107842D01*
X0132587Y0109040D02*
X0147135Y0109040D01*
X0146761Y0110239D02*
X0132961Y0110239D01*
X0132961Y0111437D02*
X0146761Y0111437D01*
X0146761Y0112636D02*
X0132961Y0112636D01*
X0132946Y0113834D02*
X0147341Y0113834D01*
X0146761Y0115033D02*
X0133361Y0115033D01*
X0127711Y0116261D02*
X0127711Y0119111D01*
X0123550Y0119111D01*
X0123143Y0119002D01*
X0122778Y0118792D01*
X0122481Y0118494D01*
X0122270Y0118129D01*
X0122161Y0117722D01*
X0122161Y0116261D01*
X0127711Y0116261D01*
X0127711Y0117430D02*
X0127811Y0117430D01*
X0127811Y0118628D02*
X0127711Y0118628D01*
X0122615Y0118628D02*
X0117451Y0118628D01*
X0117451Y0117430D02*
X0122161Y0117430D01*
X0122161Y0115033D02*
X0120868Y0115033D01*
X0121987Y0113834D02*
X0122575Y0113834D01*
X0120452Y0122224D02*
X0117451Y0122224D01*
X0117451Y0123422D02*
X0119254Y0123422D01*
X0118055Y0124621D02*
X0117451Y0124621D01*
X0117451Y0125819D02*
X0117482Y0125819D01*
X0117451Y0127018D02*
X0117482Y0127018D01*
X0117451Y0128216D02*
X0117482Y0128216D01*
X0117451Y0129415D02*
X0117482Y0129415D01*
X0117451Y0130613D02*
X0118386Y0130613D01*
X0117451Y0131812D02*
X0119585Y0131812D01*
X0117527Y0148591D02*
X0144240Y0148591D01*
X0143041Y0149789D02*
X0118725Y0149789D01*
X0119924Y0150988D02*
X0141842Y0150988D01*
X0145102Y0153385D02*
X0148584Y0153385D01*
X0148584Y0152187D02*
X0146301Y0152187D01*
X0147499Y0150988D02*
X0148774Y0150988D01*
X0148698Y0149789D02*
X0149973Y0149789D01*
X0149896Y0148591D02*
X0151172Y0148591D01*
X0150129Y0147392D02*
X0163240Y0147392D01*
X0162554Y0146194D02*
X0157172Y0146194D01*
X0158371Y0144995D02*
X0162373Y0144995D01*
X0162599Y0143797D02*
X0159484Y0143797D01*
X0150896Y0146194D02*
X0150129Y0146194D01*
X0148584Y0154584D02*
X0143904Y0154584D01*
X0142705Y0155782D02*
X0148673Y0155782D01*
X0149871Y0156981D02*
X0119614Y0156981D01*
X0118416Y0158179D02*
X0151070Y0158179D01*
X0156998Y0158179D02*
X0160978Y0158179D01*
X0159780Y0159378D02*
X0094300Y0159378D01*
X0093102Y0158179D02*
X0111700Y0158179D01*
X0110501Y0156981D02*
X0091903Y0156981D01*
X0090705Y0155782D02*
X0109608Y0155782D01*
X0109608Y0154584D02*
X0090926Y0154584D01*
X0091473Y0153385D02*
X0109608Y0153385D01*
X0109608Y0152187D02*
X0091317Y0152187D01*
X0090386Y0150988D02*
X0110192Y0150988D01*
X0099037Y0143797D02*
X0095821Y0143797D01*
X0096198Y0144995D02*
X0097897Y0144995D01*
X0097697Y0146194D02*
X0095971Y0146194D01*
X0094699Y0147392D02*
X0098140Y0147392D01*
X0087445Y0158179D02*
X0045635Y0158179D01*
X0046834Y0156981D02*
X0086246Y0156981D01*
X0088644Y0159378D02*
X0044437Y0159378D01*
X0043238Y0160576D02*
X0089842Y0160576D01*
X0091041Y0161775D02*
X0042040Y0161775D01*
X0040841Y0162973D02*
X0092239Y0162973D01*
X0115002Y0189340D02*
X0050092Y0189340D01*
X0051290Y0188142D02*
X0117198Y0188142D01*
X0117872Y0188142D02*
X0118936Y0188142D01*
X0119610Y0188142D02*
X0124678Y0188142D01*
X0124094Y0189340D02*
X0121807Y0189340D01*
X0122756Y0190539D02*
X0124094Y0190539D01*
X0124094Y0191737D02*
X0123246Y0191737D01*
X0124094Y0192936D02*
X0118936Y0192936D01*
X0117872Y0192936D02*
X0046496Y0192936D01*
X0045298Y0194134D02*
X0113525Y0194134D01*
X0113563Y0191737D02*
X0047695Y0191737D01*
X0048893Y0190539D02*
X0114053Y0190539D01*
X0117872Y0190539D02*
X0118936Y0190539D01*
X0118936Y0191737D02*
X0117872Y0191737D01*
X0117872Y0189340D02*
X0118936Y0189340D01*
X0120171Y0185745D02*
X0053687Y0185745D01*
X0052489Y0186943D02*
X0162864Y0186943D01*
X0162916Y0187068D02*
X0162373Y0185759D01*
X0162373Y0184341D01*
X0162916Y0183032D01*
X0163918Y0182030D01*
X0165227Y0181488D01*
X0166644Y0181488D01*
X0167954Y0182030D01*
X0168956Y0183032D01*
X0169498Y0184341D01*
X0169498Y0185759D01*
X0168956Y0187068D01*
X0167954Y0188070D01*
X0166644Y0188612D01*
X0165227Y0188612D01*
X0163918Y0188070D01*
X0162916Y0187068D01*
X0162373Y0185745D02*
X0144196Y0185745D01*
X0145264Y0184546D02*
X0162373Y0184546D01*
X0162785Y0183348D02*
X0145736Y0183348D01*
X0145736Y0182149D02*
X0163799Y0182149D01*
X0166086Y0178554D02*
X0139302Y0178554D01*
X0139302Y0179752D02*
X0139696Y0179752D01*
X0139050Y0177355D02*
X0164203Y0177355D01*
X0163538Y0176157D02*
X0137851Y0176157D01*
X0136653Y0174958D02*
X0163373Y0174958D01*
X0163614Y0173760D02*
X0135454Y0173760D01*
X0134256Y0172561D02*
X0164387Y0172561D01*
X0163615Y0167767D02*
X0137336Y0167767D01*
X0136703Y0166569D02*
X0162709Y0166569D01*
X0162373Y0165370D02*
X0039498Y0165370D01*
X0039642Y0164172D02*
X0162444Y0164172D01*
X0162975Y0162973D02*
X0161841Y0162973D01*
X0163040Y0161775D02*
X0164535Y0161775D01*
X0164238Y0160576D02*
X0176436Y0160576D01*
X0176436Y0159378D02*
X0165437Y0159378D01*
X0167337Y0161775D02*
X0175535Y0161775D01*
X0173975Y0162973D02*
X0168897Y0162973D01*
X0169428Y0164172D02*
X0173444Y0164172D01*
X0173373Y0165370D02*
X0169498Y0165370D01*
X0169162Y0166569D02*
X0172589Y0166569D01*
X0171390Y0167767D02*
X0168256Y0167767D01*
X0169485Y0172561D02*
X0172833Y0172561D01*
X0173451Y0171363D02*
X0174484Y0171363D01*
X0174650Y0170164D02*
X0176436Y0170164D01*
X0176436Y0168966D02*
X0175848Y0168966D01*
X0175748Y0171363D02*
X0176123Y0171363D01*
X0176123Y0172561D02*
X0175748Y0172561D01*
X0175748Y0173760D02*
X0176123Y0173760D01*
X0175748Y0174958D02*
X0170498Y0174958D01*
X0170333Y0176157D02*
X0172116Y0176157D01*
X0172711Y0177355D02*
X0169668Y0177355D01*
X0167785Y0178554D02*
X0174048Y0178554D01*
X0175748Y0178554D02*
X0176123Y0178554D01*
X0176123Y0177355D02*
X0175748Y0177355D01*
X0175748Y0176157D02*
X0176123Y0176157D01*
X0176436Y0179752D02*
X0144357Y0179752D01*
X0145330Y0180951D02*
X0176436Y0180951D01*
X0174799Y0182149D02*
X0168073Y0182149D01*
X0169086Y0183348D02*
X0173785Y0183348D01*
X0173373Y0184546D02*
X0169498Y0184546D01*
X0169498Y0185745D02*
X0173373Y0185745D01*
X0173864Y0186943D02*
X0169007Y0186943D01*
X0167780Y0188142D02*
X0175092Y0188142D01*
X0176436Y0189340D02*
X0149366Y0189340D01*
X0150315Y0190539D02*
X0176436Y0190539D01*
X0174625Y0191737D02*
X0170597Y0191737D01*
X0170898Y0192936D02*
X0173012Y0192936D01*
X0172459Y0194134D02*
X0170898Y0194134D01*
X0167123Y0194134D02*
X0166748Y0194134D01*
X0166748Y0192936D02*
X0167123Y0192936D01*
X0167123Y0191737D02*
X0166748Y0191737D01*
X0163275Y0191737D02*
X0150805Y0191737D01*
X0150842Y0194134D02*
X0162973Y0194134D01*
X0162973Y0192936D02*
X0146495Y0192936D01*
X0145431Y0192936D02*
X0140273Y0192936D01*
X0140273Y0194134D02*
X0141085Y0194134D01*
X0141122Y0191737D02*
X0140273Y0191737D01*
X0140273Y0190539D02*
X0141612Y0190539D01*
X0142561Y0189340D02*
X0140273Y0189340D01*
X0139650Y0188142D02*
X0144757Y0188142D01*
X0145431Y0188142D02*
X0146495Y0188142D01*
X0147169Y0188142D02*
X0164092Y0188142D01*
X0170257Y0173760D02*
X0172181Y0173760D01*
X0174181Y0158179D02*
X0168690Y0158179D01*
X0169992Y0156981D02*
X0172880Y0156981D01*
X0172383Y0155782D02*
X0170488Y0155782D01*
X0170498Y0154584D02*
X0172373Y0154584D01*
X0172770Y0153385D02*
X0170102Y0153385D01*
X0170317Y0152187D02*
X0173761Y0152187D01*
X0163770Y0153385D02*
X0159484Y0153385D01*
X0159484Y0154584D02*
X0163373Y0154584D01*
X0163375Y0155782D02*
X0159395Y0155782D01*
X0158197Y0156981D02*
X0162177Y0156981D01*
X0169934Y0133010D02*
X0172938Y0133010D01*
X0173002Y0131812D02*
X0174445Y0131812D01*
X0174201Y0130613D02*
X0176436Y0130613D01*
X0176436Y0129415D02*
X0175399Y0129415D01*
X0173278Y0117430D02*
X0169594Y0117430D01*
X0170302Y0116231D02*
X0172569Y0116231D01*
X0172373Y0115033D02*
X0170498Y0115033D01*
X0170288Y0113834D02*
X0172584Y0113834D01*
X0173312Y0112636D02*
X0169559Y0112636D01*
X0163724Y0122224D02*
X0161546Y0122224D01*
X0161546Y0123422D02*
X0161928Y0123422D01*
X0158261Y0127089D02*
X0156749Y0128601D01*
X0147692Y0128601D01*
X0147754Y0128539D01*
X0147754Y0127089D01*
X0158261Y0127089D01*
X0157134Y0128216D02*
X0147754Y0128216D01*
X0122561Y0099452D02*
X0122436Y0099452D01*
X0113451Y0091062D02*
X0106428Y0091062D01*
X0106428Y0089864D02*
X0113451Y0089864D01*
X0102428Y0107842D02*
X0100997Y0107842D01*
X0102425Y0109040D02*
X0102428Y0109040D01*
X0102428Y0116231D02*
X0101742Y0116231D01*
X0106428Y0116231D02*
X0107273Y0116231D01*
X0093467Y0098253D02*
X0093436Y0098253D01*
X0072900Y0107842D02*
X0069501Y0107842D01*
X0070929Y0109040D02*
X0072900Y0109040D01*
X0072900Y0110239D02*
X0071652Y0110239D01*
X0072087Y0111437D02*
X0072900Y0111437D01*
X0072900Y0112636D02*
X0072087Y0112636D01*
X0071866Y0113834D02*
X0072900Y0113834D01*
X0072900Y0115033D02*
X0071369Y0115033D01*
X0070246Y0116231D02*
X0072900Y0116231D01*
X0051796Y0116231D02*
X0051189Y0116231D01*
X0040617Y0122224D02*
X0038147Y0122224D01*
X0039117Y0123422D02*
X0040617Y0123422D01*
X0040617Y0124621D02*
X0039498Y0124621D01*
X0039473Y0125819D02*
X0040617Y0125819D01*
X0040617Y0127018D02*
X0038976Y0127018D01*
X0037600Y0128216D02*
X0040617Y0128216D01*
X0040617Y0131812D02*
X0038426Y0131812D01*
X0039934Y0133010D02*
X0040617Y0133010D01*
X0040617Y0134209D02*
X0040443Y0134209D01*
X0040498Y0135407D02*
X0040617Y0135407D01*
X0040617Y0136606D02*
X0040147Y0136606D01*
X0040617Y0137804D02*
X0039219Y0137804D01*
X0032736Y0147392D02*
X0029631Y0147392D01*
X0027695Y0148591D02*
X0034131Y0148591D01*
X0034535Y0161775D02*
X0028337Y0161775D01*
X0029897Y0162973D02*
X0032975Y0162973D01*
X0032444Y0164172D02*
X0030428Y0164172D01*
X0030498Y0165370D02*
X0032373Y0165370D01*
X0032709Y0166569D02*
X0030162Y0166569D01*
X0029256Y0167767D02*
X0033615Y0167767D01*
X0034918Y0172030D02*
X0036227Y0171488D01*
X0037644Y0171488D01*
X0038954Y0172030D01*
X0039956Y0173032D01*
X0040498Y0174341D01*
X0040498Y0175759D01*
X0039956Y0177068D01*
X0038954Y0178070D01*
X0037644Y0178612D01*
X0036227Y0178612D01*
X0034918Y0178070D01*
X0033916Y0177068D01*
X0033373Y0175759D01*
X0033373Y0174341D01*
X0033916Y0173032D01*
X0034918Y0172030D01*
X0034387Y0172561D02*
X0028485Y0172561D01*
X0029257Y0173760D02*
X0033614Y0173760D01*
X0033373Y0174958D02*
X0029498Y0174958D01*
X0029333Y0176157D02*
X0033538Y0176157D01*
X0034203Y0177355D02*
X0028668Y0177355D01*
X0026785Y0178554D02*
X0036086Y0178554D01*
X0037785Y0178554D02*
X0055222Y0178554D01*
X0056420Y0177355D02*
X0039668Y0177355D01*
X0040333Y0176157D02*
X0057619Y0176157D01*
X0058817Y0174958D02*
X0040498Y0174958D01*
X0040257Y0173760D02*
X0060016Y0173760D01*
X0061214Y0172561D02*
X0039485Y0172561D01*
X0038256Y0167767D02*
X0132343Y0167767D01*
X0132544Y0168966D02*
X0026436Y0168966D01*
X0026436Y0170164D02*
X0133689Y0170164D01*
X0135274Y0171363D02*
X0026436Y0171363D01*
X0026436Y0179752D02*
X0054023Y0179752D01*
X0052825Y0180951D02*
X0026436Y0180951D01*
X0029073Y0182149D02*
X0033233Y0182149D01*
X0033410Y0181972D02*
X0034059Y0181539D01*
X0034780Y0181240D01*
X0035545Y0181088D01*
X0035748Y0181088D01*
X0035748Y0184863D01*
X0031973Y0184863D01*
X0031973Y0184660D01*
X0032126Y0183894D01*
X0032424Y0183173D01*
X0032858Y0182524D01*
X0033410Y0181972D01*
X0032352Y0183348D02*
X0030086Y0183348D01*
X0030498Y0184546D02*
X0031996Y0184546D01*
X0031973Y0185237D02*
X0035748Y0185237D01*
X0035748Y0184863D01*
X0036123Y0184863D01*
X0036123Y0185237D01*
X0039898Y0185237D01*
X0039898Y0185440D01*
X0039746Y0186206D01*
X0039447Y0186927D01*
X0039013Y0187576D01*
X0038461Y0188128D01*
X0037812Y0188561D01*
X0037091Y0188860D01*
X0036326Y0189012D01*
X0036123Y0189012D01*
X0036123Y0185237D01*
X0035748Y0185237D01*
X0035748Y0189012D01*
X0035545Y0189012D01*
X0034780Y0188860D01*
X0034059Y0188561D01*
X0033410Y0188128D01*
X0032858Y0187576D01*
X0032424Y0186927D01*
X0032126Y0186206D01*
X0031973Y0185440D01*
X0031973Y0185237D01*
X0032034Y0185745D02*
X0030498Y0185745D01*
X0030007Y0186943D02*
X0032435Y0186943D01*
X0033431Y0188142D02*
X0028780Y0188142D01*
X0026436Y0189340D02*
X0044435Y0189340D01*
X0045634Y0188142D02*
X0038440Y0188142D01*
X0039436Y0186943D02*
X0046832Y0186943D01*
X0048031Y0185745D02*
X0039837Y0185745D01*
X0039898Y0184863D02*
X0036123Y0184863D01*
X0036123Y0181088D01*
X0036326Y0181088D01*
X0037091Y0181240D01*
X0037812Y0181539D01*
X0038461Y0181972D01*
X0039013Y0182524D01*
X0039447Y0183173D01*
X0039746Y0183894D01*
X0039898Y0184660D01*
X0039898Y0184863D01*
X0039875Y0184546D02*
X0049229Y0184546D01*
X0050428Y0183348D02*
X0039519Y0183348D01*
X0038638Y0182149D02*
X0051626Y0182149D01*
X0054886Y0184546D02*
X0119104Y0184546D01*
X0118631Y0183348D02*
X0056084Y0183348D01*
X0057283Y0182149D02*
X0118631Y0182149D01*
X0119037Y0180951D02*
X0058481Y0180951D01*
X0059680Y0179752D02*
X0120011Y0179752D01*
X0124672Y0179752D02*
X0124678Y0179752D01*
X0125275Y0178554D02*
X0060878Y0178554D01*
X0062077Y0177355D02*
X0133393Y0177355D01*
X0134591Y0178554D02*
X0128856Y0178554D01*
X0127066Y0178554D02*
X0127066Y0178554D01*
X0127066Y0179752D02*
X0127066Y0179752D01*
X0127066Y0180951D02*
X0127066Y0180951D01*
X0127066Y0182149D02*
X0127066Y0182149D01*
X0127066Y0183348D02*
X0127066Y0183348D01*
X0127066Y0184546D02*
X0127066Y0184546D01*
X0127066Y0185745D02*
X0127066Y0185745D01*
X0124787Y0185745D02*
X0124511Y0185745D01*
X0131815Y0188142D02*
X0132592Y0188142D01*
X0139170Y0185745D02*
X0139856Y0185745D01*
X0145431Y0189340D02*
X0146495Y0189340D01*
X0146495Y0190539D02*
X0145431Y0190539D01*
X0145431Y0191737D02*
X0146495Y0191737D01*
X0124094Y0194134D02*
X0123283Y0194134D01*
X0132783Y0166569D02*
X0039162Y0166569D01*
X0036123Y0182149D02*
X0035748Y0182149D01*
X0035748Y0183348D02*
X0036123Y0183348D01*
X0036123Y0184546D02*
X0035748Y0184546D01*
X0035748Y0185745D02*
X0036123Y0185745D01*
X0036123Y0186943D02*
X0035748Y0186943D01*
X0035748Y0188142D02*
X0036123Y0188142D01*
X0035625Y0191737D02*
X0029597Y0191737D01*
X0029898Y0192936D02*
X0034012Y0192936D01*
X0033459Y0194134D02*
X0029898Y0194134D01*
X0026436Y0190539D02*
X0043237Y0190539D01*
X0042038Y0191737D02*
X0038247Y0191737D01*
X0039859Y0192936D02*
X0040839Y0192936D01*
X0034278Y0117430D02*
X0028594Y0117430D01*
X0029302Y0116231D02*
X0033569Y0116231D01*
X0033373Y0115033D02*
X0029498Y0115033D01*
X0029288Y0113834D02*
X0033584Y0113834D01*
X0034312Y0112636D02*
X0028559Y0112636D01*
X0038556Y0087467D02*
X0040617Y0087467D01*
X0040617Y0086268D02*
X0039287Y0086268D01*
X0039498Y0085070D02*
X0040617Y0085070D01*
X0040617Y0083871D02*
X0039303Y0083871D01*
X0038596Y0082673D02*
X0040617Y0082673D01*
X0034727Y0077879D02*
X0028145Y0077879D01*
X0029116Y0076680D02*
X0033755Y0076680D01*
X0033373Y0075482D02*
X0029498Y0075482D01*
X0029474Y0074283D02*
X0033398Y0074283D01*
X0033894Y0073085D02*
X0028977Y0073085D01*
X0026436Y0069489D02*
X0040617Y0069489D01*
X0040617Y0068291D02*
X0037420Y0068291D01*
X0038931Y0067092D02*
X0040617Y0067092D01*
X0040617Y0065894D02*
X0039442Y0065894D01*
X0039498Y0064695D02*
X0040617Y0064695D01*
X0040617Y0063497D02*
X0039148Y0063497D01*
X0038222Y0062298D02*
X0040617Y0062298D01*
X0040617Y0061100D02*
X0026436Y0061100D01*
X0026436Y0059901D02*
X0040617Y0059901D01*
X0040617Y0058703D02*
X0026436Y0058703D01*
X0029107Y0047916D02*
X0033764Y0047916D01*
X0032771Y0046718D02*
X0030101Y0046718D01*
X0030498Y0045519D02*
X0032373Y0045519D01*
X0032382Y0044320D02*
X0030489Y0044320D01*
X0029993Y0043122D02*
X0032879Y0043122D01*
X0034175Y0041923D02*
X0028696Y0041923D01*
X0039633Y0052710D02*
X0040617Y0052710D01*
X0040617Y0053909D02*
X0040319Y0053909D01*
X0040498Y0055107D02*
X0040617Y0055107D01*
X0040617Y0056306D02*
X0040271Y0056306D01*
X0040617Y0057504D02*
X0039519Y0057504D01*
X0044617Y0070688D02*
X0046135Y0070688D01*
X0046135Y0071886D02*
X0044617Y0071886D01*
X0063514Y0057504D02*
X0068004Y0057504D01*
X0068570Y0056306D02*
X0063514Y0056306D01*
X0063514Y0055107D02*
X0068570Y0055107D01*
X0068570Y0053909D02*
X0063514Y0053909D01*
X0063514Y0052710D02*
X0068570Y0052710D01*
X0068570Y0051512D02*
X0063514Y0051512D01*
X0063514Y0050313D02*
X0068570Y0050313D01*
X0068570Y0049115D02*
X0063514Y0049115D01*
X0063514Y0047916D02*
X0068570Y0047916D01*
X0068570Y0046718D02*
X0063514Y0046718D01*
X0063514Y0045519D02*
X0068570Y0045519D01*
X0068570Y0044320D02*
X0063514Y0044320D01*
X0063514Y0043122D02*
X0068570Y0043122D01*
X0068570Y0041923D02*
X0063514Y0041923D01*
X0063514Y0040725D02*
X0068570Y0040725D01*
X0068570Y0039526D02*
X0063514Y0039526D01*
X0063514Y0038328D02*
X0068676Y0038328D01*
X0069874Y0037129D02*
X0063514Y0037129D01*
X0063514Y0035931D02*
X0071073Y0035931D01*
X0072271Y0034732D02*
X0063514Y0034732D01*
X0063514Y0033534D02*
X0073470Y0033534D01*
X0075531Y0037129D02*
X0163977Y0037129D01*
X0164613Y0032335D02*
X0093751Y0032335D01*
X0091483Y0032335D02*
X0063514Y0032335D01*
X0063514Y0031137D02*
X0090404Y0031137D01*
X0090217Y0029938D02*
X0063514Y0029938D01*
X0063514Y0028740D02*
X0090690Y0028740D01*
X0089019Y0026343D02*
X0063514Y0026343D01*
X0063514Y0027541D02*
X0163389Y0027541D01*
X0163201Y0022747D02*
X0091794Y0022747D01*
X0090369Y0022747D02*
X0062394Y0022747D01*
X0063514Y0023946D02*
X0088941Y0023946D01*
X0088681Y0025144D02*
X0063514Y0025144D01*
X0059514Y0033534D02*
X0054865Y0033534D01*
X0054015Y0034732D02*
X0059514Y0034732D01*
X0048135Y0034732D02*
X0047335Y0034732D01*
X0047335Y0033534D02*
X0048135Y0033534D01*
X0048135Y0032335D02*
X0047335Y0032335D01*
X0047335Y0029938D02*
X0048135Y0029938D01*
X0048135Y0028740D02*
X0047335Y0028740D01*
X0047335Y0027541D02*
X0048135Y0027541D01*
X0048135Y0035931D02*
X0047335Y0035931D01*
X0041139Y0017953D02*
X0039070Y0017953D01*
X0040085Y0016755D02*
X0042287Y0016755D01*
X0040498Y0015556D02*
X0116321Y0015556D01*
X0117131Y0016366D02*
X0113938Y0013174D01*
X0113938Y0008659D01*
X0117131Y0005466D01*
X0121646Y0005466D01*
X0124838Y0008659D01*
X0124838Y0013174D01*
X0121646Y0016366D01*
X0117131Y0016366D01*
X0115123Y0014358D02*
X0052799Y0014358D01*
X0052501Y0014510D02*
X0053146Y0014181D01*
X0053732Y0013756D01*
X0054244Y0013244D01*
X0054669Y0012658D01*
X0054998Y0012013D01*
X0055222Y0011324D01*
X0055329Y0010647D01*
X0048135Y0010647D01*
X0047335Y0010647D01*
X0047335Y0009847D01*
X0048135Y0009847D01*
X0048135Y0010647D01*
X0048135Y0014847D01*
X0051097Y0014847D01*
X0051812Y0014734D01*
X0052501Y0014510D01*
X0054305Y0013159D02*
X0113938Y0013159D01*
X0113938Y0011961D02*
X0055015Y0011961D01*
X0055311Y0010762D02*
X0113938Y0010762D01*
X0113938Y0009564D02*
X0055284Y0009564D01*
X0055329Y0009847D02*
X0048135Y0009847D01*
X0048135Y0005647D01*
X0051097Y0005647D01*
X0051812Y0005760D01*
X0052501Y0005984D01*
X0053146Y0006313D01*
X0053732Y0006738D01*
X0054244Y0007250D01*
X0054669Y0007836D01*
X0054998Y0008481D01*
X0055222Y0009170D01*
X0055329Y0009847D01*
X0054939Y0008365D02*
X0114232Y0008365D01*
X0115430Y0007167D02*
X0054160Y0007167D01*
X0052452Y0005968D02*
X0116629Y0005968D01*
X0122148Y0005968D02*
X0128440Y0005968D01*
X0128942Y0005466D02*
X0133457Y0005466D01*
X0136649Y0008659D01*
X0136649Y0013174D01*
X0133457Y0016366D01*
X0128942Y0016366D01*
X0125749Y0013174D01*
X0125749Y0008659D01*
X0128942Y0005466D01*
X0127242Y0007167D02*
X0123346Y0007167D01*
X0124545Y0008365D02*
X0126043Y0008365D01*
X0125749Y0009564D02*
X0124838Y0009564D01*
X0124838Y0010762D02*
X0125749Y0010762D01*
X0125749Y0011961D02*
X0124838Y0011961D01*
X0124838Y0013159D02*
X0125749Y0013159D01*
X0126934Y0014358D02*
X0123654Y0014358D01*
X0122456Y0015556D02*
X0128132Y0015556D01*
X0134267Y0015556D02*
X0139943Y0015556D01*
X0140753Y0016366D02*
X0137560Y0013174D01*
X0137560Y0008659D01*
X0140753Y0005466D01*
X0145268Y0005466D01*
X0148460Y0008659D01*
X0148460Y0013174D01*
X0145268Y0016366D01*
X0140753Y0016366D01*
X0138745Y0014358D02*
X0135465Y0014358D01*
X0136649Y0013159D02*
X0137560Y0013159D01*
X0137560Y0011961D02*
X0136649Y0011961D01*
X0136649Y0010762D02*
X0137560Y0010762D01*
X0137560Y0009564D02*
X0136649Y0009564D01*
X0136356Y0008365D02*
X0137854Y0008365D01*
X0139053Y0007167D02*
X0135157Y0007167D01*
X0133959Y0005968D02*
X0140251Y0005968D01*
X0145770Y0005968D02*
X0152062Y0005968D01*
X0152564Y0005466D02*
X0157079Y0005466D01*
X0160272Y0008659D01*
X0160272Y0013174D01*
X0157079Y0016366D01*
X0152564Y0016366D01*
X0149372Y0013174D01*
X0149372Y0008659D01*
X0152564Y0005466D01*
X0150864Y0007167D02*
X0146968Y0007167D01*
X0148167Y0008365D02*
X0149665Y0008365D01*
X0149372Y0009564D02*
X0148460Y0009564D01*
X0148460Y0010762D02*
X0149372Y0010762D01*
X0149372Y0011961D02*
X0148460Y0011961D01*
X0148460Y0013159D02*
X0149372Y0013159D01*
X0150556Y0014358D02*
X0147276Y0014358D01*
X0146078Y0015556D02*
X0151754Y0015556D01*
X0157889Y0015556D02*
X0163373Y0015556D01*
X0163373Y0015759D02*
X0163373Y0014341D01*
X0163916Y0013032D01*
X0164918Y0012030D01*
X0166227Y0011488D01*
X0167644Y0011488D01*
X0168954Y0012030D01*
X0169956Y0013032D01*
X0170498Y0014341D01*
X0170498Y0015759D01*
X0169956Y0017068D01*
X0168954Y0018070D01*
X0167644Y0018612D01*
X0166227Y0018612D01*
X0164918Y0018070D01*
X0163916Y0017068D01*
X0163373Y0015759D01*
X0163786Y0016755D02*
X0053182Y0016755D01*
X0054331Y0017953D02*
X0164801Y0017953D01*
X0163373Y0014358D02*
X0159087Y0014358D01*
X0160272Y0013159D02*
X0163863Y0013159D01*
X0165085Y0011961D02*
X0160272Y0011961D01*
X0160272Y0010762D02*
X0176436Y0010762D01*
X0176436Y0009564D02*
X0160272Y0009564D01*
X0159978Y0008365D02*
X0163765Y0008365D01*
X0162585Y0007167D02*
X0158779Y0007167D01*
X0157581Y0005968D02*
X0162078Y0005968D01*
X0165748Y0005968D02*
X0166123Y0005968D01*
X0166123Y0007167D02*
X0165748Y0007167D01*
X0165748Y0008365D02*
X0166123Y0008365D01*
X0168106Y0008365D02*
X0174765Y0008365D01*
X0173585Y0007167D02*
X0169287Y0007167D01*
X0169793Y0005968D02*
X0173078Y0005968D01*
X0174085Y0011961D02*
X0168786Y0011961D01*
X0170008Y0013159D02*
X0172863Y0013159D01*
X0172373Y0014358D02*
X0170498Y0014358D01*
X0170498Y0015556D02*
X0172373Y0015556D01*
X0172786Y0016755D02*
X0170085Y0016755D01*
X0169070Y0017953D02*
X0173801Y0017953D01*
X0076550Y0038328D02*
X0074333Y0038328D01*
X0048135Y0014358D02*
X0047335Y0014358D01*
X0047335Y0013159D02*
X0048135Y0013159D01*
X0048135Y0011961D02*
X0047335Y0011961D01*
X0047335Y0010762D02*
X0048135Y0010762D01*
X0048135Y0009564D02*
X0047335Y0009564D01*
X0047335Y0008365D02*
X0048135Y0008365D01*
X0048135Y0007167D02*
X0047335Y0007167D01*
X0047335Y0005968D02*
X0048135Y0005968D01*
X0043018Y0005968D02*
X0039411Y0005968D01*
X0038857Y0007167D02*
X0041310Y0007167D01*
X0040531Y0008365D02*
X0037241Y0008365D01*
X0038786Y0011961D02*
X0040455Y0011961D01*
X0040008Y0013159D02*
X0041165Y0013159D01*
X0040498Y0014358D02*
X0042671Y0014358D01*
X0034631Y0008365D02*
X0029106Y0008365D01*
X0030287Y0007167D02*
X0033015Y0007167D01*
X0032460Y0005968D02*
X0030793Y0005968D01*
X0027123Y0005968D02*
X0026748Y0005968D01*
X0026748Y0007167D02*
X0027123Y0007167D01*
X0027123Y0008365D02*
X0026748Y0008365D01*
D25*
X0081199Y0043987D03*
X0088680Y0043987D03*
X0092617Y0030207D03*
X0091081Y0025050D03*
X0092223Y0060916D03*
X0115058Y0065247D03*
X0119388Y0077845D03*
X0120963Y0090837D03*
X0120570Y0097924D03*
X0119782Y0112885D03*
X0111514Y0117609D03*
X0100097Y0145956D03*
X0093798Y0145168D03*
X0089073Y0153042D03*
X0083562Y0151467D03*
X0073325Y0153830D03*
X0067420Y0151467D03*
X0067026Y0145168D03*
X0109940Y0146349D03*
X0109743Y0168593D03*
X0134743Y0168003D03*
X0161121Y0115247D03*
X0161121Y0110522D03*
X0159152Y0104223D03*
X0161514Y0100680D03*
X0160333Y0086507D03*
X0152853Y0076664D03*
X0139467Y0092412D03*
D26*
X0139467Y0098318D01*
X0136711Y0101074D01*
X0127899Y0101074D01*
X0127761Y0101211D01*
X0127761Y0096211D02*
X0122282Y0096211D01*
X0120570Y0097924D01*
X0121337Y0091211D02*
X0120963Y0090837D01*
X0121337Y0091211D02*
X0127761Y0091211D01*
X0127761Y0081211D02*
X0122755Y0081211D01*
X0119388Y0077845D01*
X0115451Y0087294D02*
X0105215Y0077058D01*
X0105215Y0069499D01*
X0105215Y0056979D01*
X0106396Y0055798D01*
X0158365Y0055798D01*
X0161514Y0058948D01*
X0161514Y0076664D01*
X0165058Y0080207D01*
X0172093Y0080207D01*
X0176936Y0085050D01*
X0161514Y0100680D02*
X0157046Y0096211D01*
X0151961Y0096211D01*
X0151981Y0091231D02*
X0151961Y0091211D01*
X0151981Y0091231D02*
X0159546Y0091231D01*
X0160333Y0090444D01*
X0160333Y0086507D01*
X0158148Y0081211D02*
X0159152Y0080207D01*
X0159152Y0078633D01*
X0157184Y0076664D01*
X0152853Y0076664D01*
X0151961Y0081211D02*
X0158148Y0081211D01*
X0156810Y0106211D02*
X0151961Y0106211D01*
X0156810Y0106211D02*
X0161121Y0110522D01*
X0157085Y0111211D02*
X0161121Y0115247D01*
X0159546Y0118396D02*
X0157577Y0116428D01*
X0152177Y0116428D01*
X0151961Y0116211D01*
X0151961Y0111211D02*
X0157085Y0111211D01*
X0159546Y0118396D02*
X0159546Y0123908D01*
X0158365Y0125089D01*
X0143995Y0125089D01*
X0151672Y0135719D02*
X0148129Y0139263D01*
X0148129Y0147530D01*
X0141829Y0153830D01*
X0115058Y0153830D01*
X0109940Y0146349D02*
X0115451Y0140837D01*
X0115451Y0087294D01*
X0104428Y0082176D02*
X0104428Y0141625D01*
X0100097Y0145956D01*
X0093798Y0145168D02*
X0091436Y0142806D01*
X0091436Y0079420D01*
X0096554Y0074302D01*
X0096554Y0069499D01*
X0096554Y0046743D01*
X0098916Y0044381D01*
X0165266Y0044381D01*
X0165936Y0045050D01*
X0170963Y0040050D02*
X0077656Y0040050D01*
X0074900Y0042806D01*
X0074900Y0069499D01*
X0074900Y0143987D01*
X0067420Y0151467D01*
X0067026Y0145168D02*
X0059152Y0137294D01*
X0059152Y0091231D01*
X0066829Y0083554D01*
X0066829Y0061507D01*
X0070570Y0057767D01*
X0070570Y0039263D01*
X0074900Y0034932D01*
X0166818Y0034932D01*
X0171723Y0039263D02*
X0175936Y0035050D01*
X0171723Y0039263D02*
X0171723Y0039290D01*
X0170963Y0040050D01*
X0176936Y0045050D02*
X0171699Y0050286D01*
X0102459Y0050286D01*
X0100885Y0051861D01*
X0100885Y0069499D01*
X0100885Y0078633D01*
X0104428Y0082176D01*
X0087892Y0069499D02*
X0087892Y0151861D01*
X0089073Y0153042D01*
X0083562Y0151467D02*
X0093798Y0161704D01*
X0160282Y0161704D01*
X0166936Y0155050D01*
X0169388Y0150286D02*
X0171751Y0147924D01*
X0171751Y0139235D01*
X0175936Y0135050D01*
X0171778Y0130207D02*
X0176936Y0125050D01*
X0171778Y0130207D02*
X0163089Y0130207D01*
X0157577Y0135719D01*
X0151672Y0135719D01*
X0154034Y0141625D02*
X0160361Y0141625D01*
X0166936Y0135050D01*
X0165936Y0125050D02*
X0163129Y0125050D01*
X0157577Y0130601D01*
X0126081Y0130601D01*
X0122932Y0127452D01*
X0119782Y0112885D02*
X0121455Y0111211D01*
X0127761Y0111211D01*
X0157184Y0150286D02*
X0169388Y0150286D01*
X0157184Y0150286D02*
X0154034Y0153436D01*
X0137105Y0170365D02*
X0134743Y0168003D01*
X0137105Y0170365D02*
X0171621Y0170365D01*
X0176936Y0165050D01*
X0137302Y0178436D02*
X0133168Y0174302D01*
X0062302Y0174302D01*
X0041554Y0195050D01*
X0036936Y0195050D01*
X0035936Y0165050D02*
X0046948Y0154038D01*
X0046948Y0123908D01*
X0054034Y0116822D01*
X0054034Y0088081D01*
X0061514Y0080601D01*
X0061514Y0024696D01*
X0057066Y0020247D01*
X0047735Y0020247D01*
X0047735Y0041507D02*
X0042617Y0046625D01*
X0042617Y0149369D01*
X0036936Y0155050D01*
X0073325Y0153830D02*
X0079231Y0147924D01*
X0079231Y0069499D01*
X0079231Y0045956D01*
X0081199Y0043987D01*
X0087892Y0044774D02*
X0088680Y0043987D01*
X0087892Y0044774D02*
X0087892Y0069499D01*
X0083562Y0069499D02*
X0083562Y0151467D01*
X0137302Y0178436D02*
X0137302Y0182471D01*
X0070570Y0069499D02*
X0070570Y0057767D01*
X0092617Y0030207D02*
X0171778Y0030207D01*
X0176936Y0025050D01*
X0165936Y0025050D02*
X0091081Y0025050D01*
M02*
