%
M48
M72
T01C0.01200
T02C0.03150
T03C0.03346
T04C0.04000
T05C0.04400
T06C0.04528
T07C0.04921
%
T01
X81199Y43987
X88680Y43987
X92617Y30207
X91081Y25050
X92223Y60916
X115058Y65247
X119388Y77845
X120963Y90837
X120570Y97924
X119782Y112885
X111514Y117609
X100097Y145956
X93798Y145168
X89073Y153042
X83562Y151467
X73325Y153830
X67420Y151467
X67026Y145168
X109940Y146349
X109743Y168593
X134743Y168003
X161121Y115247
X161121Y110522
X159152Y104223
X161514Y100680
X160333Y86507
X152853Y76664
X139467Y92412
T02
X26936Y5050
X35936Y5050
X36936Y15050
X35936Y25050
X26936Y25050
X25936Y15050
X25936Y35050
X26936Y45050
X35936Y45050
X36936Y35050
X36936Y55050
X35936Y65050
X26936Y65050
X25936Y55050
X25936Y75050
X26936Y85050
X35936Y85050
X36936Y75050
X36936Y95050
X35936Y105050
X36936Y115050
X35936Y125050
X26936Y125050
X25936Y115050
X26936Y105050
X25936Y95050
X25936Y135050
X26936Y145050
X35936Y145050
X36936Y135050
X36936Y155050
X35936Y165050
X26936Y165050
X25936Y155050
X25936Y175050
X26936Y185050
X35936Y185050
X36936Y175050
X36936Y195050
X25936Y195050
X165936Y185050
X166936Y175050
X175936Y175050
X176936Y185050
X175936Y195050
X166936Y195050
X165936Y165050
X166936Y155050
X175936Y155050
X176936Y145050
X175936Y135050
X166936Y135050
X165936Y125050
X166936Y115050
X175936Y115050
X176936Y105050
X175936Y95050
X166936Y95050
X165936Y85050
X166936Y75050
X175936Y75050
X176936Y65050
X175936Y55050
X166936Y55050
X165936Y45050
X166936Y35050
X175936Y35050
X176936Y45050
X176936Y25050
X175936Y15050
X166936Y15050
X165936Y5050
X176936Y5050
X165936Y25050
X165936Y65050
X176936Y85050
X165936Y105050
X176936Y125050
X165936Y145050
X176936Y165050
T03
X142026Y182668
X122341Y182668
T04
X47735Y41507
X47735Y31507
X47735Y20247
X47735Y10247
T05
X119388Y10916
X131199Y10916
X143010Y10916
X154822Y10916
X141436Y64459
X122932Y127452
X115058Y153830
X154034Y153436
X154034Y141625
T06
X145963Y193003
X118404Y193003
T07
X98522Y112294
X96948Y94578
X67026Y112294
X65451Y94578
M30
