G75*
%MOIN*%
%OFA0B0*%
%FSLAX25Y25*%
%IPPOS*%
%LPD*%
%AMOC8*
5,1,8,0,0,1.08239X$1,22.5*
%
%ADD10C,0.06000*%
%ADD11R,0.06000X0.06000*%
%ADD12C,0.00500*%
%ADD13C,0.06791*%
%ADD14C,0.05020*%
%ADD15R,0.05512X0.07874*%
%ADD16R,0.05039X0.05512*%
%ADD17R,0.07677X0.05512*%
%ADD18R,0.02756X0.05512*%
%ADD19C,0.00000*%
%ADD20R,0.05906X0.05118*%
%ADD21R,0.05236X0.02087*%
%ADD22C,0.01000*%
%ADD23C,0.02400*%
%ADD24C,0.01200*%
%ADD25C,0.01600*%
D10*
X0026936Y0005050D03*
X0035936Y0005050D03*
X0036936Y0015050D03*
X0035936Y0025050D03*
X0026936Y0025050D03*
X0025936Y0015050D03*
X0025936Y0035050D03*
X0026936Y0045050D03*
X0035936Y0045050D03*
X0036936Y0035050D03*
X0036936Y0055050D03*
X0035936Y0065050D03*
X0026936Y0065050D03*
X0025936Y0055050D03*
X0025936Y0075050D03*
X0026936Y0085050D03*
X0035936Y0085050D03*
X0036936Y0075050D03*
X0036936Y0095050D03*
X0035936Y0105050D03*
X0036936Y0115050D03*
X0035936Y0125050D03*
X0026936Y0125050D03*
X0025936Y0115050D03*
X0026936Y0105050D03*
X0025936Y0095050D03*
X0025936Y0135050D03*
X0026936Y0145050D03*
X0035936Y0145050D03*
X0036936Y0135050D03*
X0036936Y0155050D03*
X0035936Y0165050D03*
X0026936Y0165050D03*
X0025936Y0155050D03*
X0025936Y0175050D03*
X0026936Y0185050D03*
X0035936Y0185050D03*
X0036936Y0175050D03*
X0036936Y0195050D03*
X0165936Y0185050D03*
X0166936Y0175050D03*
X0175936Y0175050D03*
X0176936Y0185050D03*
X0175936Y0195050D03*
X0176936Y0165050D03*
X0175936Y0155050D03*
X0166936Y0155050D03*
X0165936Y0145050D03*
X0166936Y0135050D03*
X0175936Y0135050D03*
X0176936Y0125050D03*
X0175936Y0115050D03*
X0166936Y0115050D03*
X0165936Y0105050D03*
X0166936Y0095050D03*
X0175936Y0095050D03*
X0176936Y0085050D03*
X0175936Y0075050D03*
X0166936Y0075050D03*
X0165936Y0065050D03*
X0166936Y0055050D03*
X0175936Y0055050D03*
X0176936Y0045050D03*
X0175936Y0035050D03*
X0166936Y0035050D03*
X0165936Y0045050D03*
X0165936Y0025050D03*
X0166936Y0015050D03*
X0175936Y0015050D03*
X0176936Y0005050D03*
X0165936Y0005050D03*
X0176936Y0025050D03*
X0176936Y0065050D03*
X0165936Y0085050D03*
X0176936Y0105050D03*
X0165936Y0125050D03*
X0176936Y0145050D03*
X0165936Y0165050D03*
D11*
X0166936Y0195050D03*
X0025936Y0195050D03*
D12*
X0020727Y0198475D02*
X0020727Y0001625D01*
X0041869Y0001625D01*
X0159192Y0001625D01*
X0182144Y0001625D01*
X0182144Y0198475D01*
X0159192Y0198475D01*
X0041869Y0198475D01*
X0020727Y0198475D01*
D13*
X0118404Y0193003D03*
X0145963Y0193003D03*
D14*
X0142026Y0182668D03*
X0122341Y0182668D03*
D15*
X0110333Y0172924D03*
X0048129Y0172924D03*
D16*
X0047892Y0135129D03*
D17*
X0106888Y0135129D03*
D18*
X0087892Y0131704D03*
X0083562Y0131704D03*
X0079231Y0131704D03*
X0074900Y0131704D03*
X0070570Y0131704D03*
X0066239Y0131704D03*
X0061908Y0131704D03*
X0057577Y0131704D03*
X0053247Y0131704D03*
D19*
X0062990Y0165444D02*
X0062992Y0165543D01*
X0062998Y0165642D01*
X0063008Y0165741D01*
X0063022Y0165839D01*
X0063040Y0165936D01*
X0063062Y0166033D01*
X0063087Y0166129D01*
X0063117Y0166223D01*
X0063150Y0166317D01*
X0063187Y0166409D01*
X0063228Y0166499D01*
X0063272Y0166588D01*
X0063320Y0166674D01*
X0063371Y0166759D01*
X0063426Y0166842D01*
X0063484Y0166922D01*
X0063545Y0167000D01*
X0063609Y0167076D01*
X0063676Y0167149D01*
X0063746Y0167219D01*
X0063819Y0167286D01*
X0063895Y0167350D01*
X0063973Y0167411D01*
X0064053Y0167469D01*
X0064136Y0167524D01*
X0064220Y0167575D01*
X0064307Y0167623D01*
X0064396Y0167667D01*
X0064486Y0167708D01*
X0064578Y0167745D01*
X0064672Y0167778D01*
X0064766Y0167808D01*
X0064862Y0167833D01*
X0064959Y0167855D01*
X0065056Y0167873D01*
X0065154Y0167887D01*
X0065253Y0167897D01*
X0065352Y0167903D01*
X0065451Y0167905D01*
X0065550Y0167903D01*
X0065649Y0167897D01*
X0065748Y0167887D01*
X0065846Y0167873D01*
X0065943Y0167855D01*
X0066040Y0167833D01*
X0066136Y0167808D01*
X0066230Y0167778D01*
X0066324Y0167745D01*
X0066416Y0167708D01*
X0066506Y0167667D01*
X0066595Y0167623D01*
X0066681Y0167575D01*
X0066766Y0167524D01*
X0066849Y0167469D01*
X0066929Y0167411D01*
X0067007Y0167350D01*
X0067083Y0167286D01*
X0067156Y0167219D01*
X0067226Y0167149D01*
X0067293Y0167076D01*
X0067357Y0167000D01*
X0067418Y0166922D01*
X0067476Y0166842D01*
X0067531Y0166759D01*
X0067582Y0166675D01*
X0067630Y0166588D01*
X0067674Y0166499D01*
X0067715Y0166409D01*
X0067752Y0166317D01*
X0067785Y0166223D01*
X0067815Y0166129D01*
X0067840Y0166033D01*
X0067862Y0165936D01*
X0067880Y0165839D01*
X0067894Y0165741D01*
X0067904Y0165642D01*
X0067910Y0165543D01*
X0067912Y0165444D01*
X0067910Y0165345D01*
X0067904Y0165246D01*
X0067894Y0165147D01*
X0067880Y0165049D01*
X0067862Y0164952D01*
X0067840Y0164855D01*
X0067815Y0164759D01*
X0067785Y0164665D01*
X0067752Y0164571D01*
X0067715Y0164479D01*
X0067674Y0164389D01*
X0067630Y0164300D01*
X0067582Y0164214D01*
X0067531Y0164129D01*
X0067476Y0164046D01*
X0067418Y0163966D01*
X0067357Y0163888D01*
X0067293Y0163812D01*
X0067226Y0163739D01*
X0067156Y0163669D01*
X0067083Y0163602D01*
X0067007Y0163538D01*
X0066929Y0163477D01*
X0066849Y0163419D01*
X0066766Y0163364D01*
X0066682Y0163313D01*
X0066595Y0163265D01*
X0066506Y0163221D01*
X0066416Y0163180D01*
X0066324Y0163143D01*
X0066230Y0163110D01*
X0066136Y0163080D01*
X0066040Y0163055D01*
X0065943Y0163033D01*
X0065846Y0163015D01*
X0065748Y0163001D01*
X0065649Y0162991D01*
X0065550Y0162985D01*
X0065451Y0162983D01*
X0065352Y0162985D01*
X0065253Y0162991D01*
X0065154Y0163001D01*
X0065056Y0163015D01*
X0064959Y0163033D01*
X0064862Y0163055D01*
X0064766Y0163080D01*
X0064672Y0163110D01*
X0064578Y0163143D01*
X0064486Y0163180D01*
X0064396Y0163221D01*
X0064307Y0163265D01*
X0064221Y0163313D01*
X0064136Y0163364D01*
X0064053Y0163419D01*
X0063973Y0163477D01*
X0063895Y0163538D01*
X0063819Y0163602D01*
X0063746Y0163669D01*
X0063676Y0163739D01*
X0063609Y0163812D01*
X0063545Y0163888D01*
X0063484Y0163966D01*
X0063426Y0164046D01*
X0063371Y0164129D01*
X0063320Y0164213D01*
X0063272Y0164300D01*
X0063228Y0164389D01*
X0063187Y0164479D01*
X0063150Y0164571D01*
X0063117Y0164665D01*
X0063087Y0164759D01*
X0063062Y0164855D01*
X0063040Y0164952D01*
X0063022Y0165049D01*
X0063008Y0165147D01*
X0062998Y0165246D01*
X0062992Y0165345D01*
X0062990Y0165444D01*
X0057479Y0174499D02*
X0057481Y0174598D01*
X0057487Y0174697D01*
X0057497Y0174796D01*
X0057511Y0174894D01*
X0057529Y0174991D01*
X0057551Y0175088D01*
X0057576Y0175184D01*
X0057606Y0175278D01*
X0057639Y0175372D01*
X0057676Y0175464D01*
X0057717Y0175554D01*
X0057761Y0175643D01*
X0057809Y0175729D01*
X0057860Y0175814D01*
X0057915Y0175897D01*
X0057973Y0175977D01*
X0058034Y0176055D01*
X0058098Y0176131D01*
X0058165Y0176204D01*
X0058235Y0176274D01*
X0058308Y0176341D01*
X0058384Y0176405D01*
X0058462Y0176466D01*
X0058542Y0176524D01*
X0058625Y0176579D01*
X0058709Y0176630D01*
X0058796Y0176678D01*
X0058885Y0176722D01*
X0058975Y0176763D01*
X0059067Y0176800D01*
X0059161Y0176833D01*
X0059255Y0176863D01*
X0059351Y0176888D01*
X0059448Y0176910D01*
X0059545Y0176928D01*
X0059643Y0176942D01*
X0059742Y0176952D01*
X0059841Y0176958D01*
X0059940Y0176960D01*
X0060039Y0176958D01*
X0060138Y0176952D01*
X0060237Y0176942D01*
X0060335Y0176928D01*
X0060432Y0176910D01*
X0060529Y0176888D01*
X0060625Y0176863D01*
X0060719Y0176833D01*
X0060813Y0176800D01*
X0060905Y0176763D01*
X0060995Y0176722D01*
X0061084Y0176678D01*
X0061170Y0176630D01*
X0061255Y0176579D01*
X0061338Y0176524D01*
X0061418Y0176466D01*
X0061496Y0176405D01*
X0061572Y0176341D01*
X0061645Y0176274D01*
X0061715Y0176204D01*
X0061782Y0176131D01*
X0061846Y0176055D01*
X0061907Y0175977D01*
X0061965Y0175897D01*
X0062020Y0175814D01*
X0062071Y0175730D01*
X0062119Y0175643D01*
X0062163Y0175554D01*
X0062204Y0175464D01*
X0062241Y0175372D01*
X0062274Y0175278D01*
X0062304Y0175184D01*
X0062329Y0175088D01*
X0062351Y0174991D01*
X0062369Y0174894D01*
X0062383Y0174796D01*
X0062393Y0174697D01*
X0062399Y0174598D01*
X0062401Y0174499D01*
X0062399Y0174400D01*
X0062393Y0174301D01*
X0062383Y0174202D01*
X0062369Y0174104D01*
X0062351Y0174007D01*
X0062329Y0173910D01*
X0062304Y0173814D01*
X0062274Y0173720D01*
X0062241Y0173626D01*
X0062204Y0173534D01*
X0062163Y0173444D01*
X0062119Y0173355D01*
X0062071Y0173269D01*
X0062020Y0173184D01*
X0061965Y0173101D01*
X0061907Y0173021D01*
X0061846Y0172943D01*
X0061782Y0172867D01*
X0061715Y0172794D01*
X0061645Y0172724D01*
X0061572Y0172657D01*
X0061496Y0172593D01*
X0061418Y0172532D01*
X0061338Y0172474D01*
X0061255Y0172419D01*
X0061171Y0172368D01*
X0061084Y0172320D01*
X0060995Y0172276D01*
X0060905Y0172235D01*
X0060813Y0172198D01*
X0060719Y0172165D01*
X0060625Y0172135D01*
X0060529Y0172110D01*
X0060432Y0172088D01*
X0060335Y0172070D01*
X0060237Y0172056D01*
X0060138Y0172046D01*
X0060039Y0172040D01*
X0059940Y0172038D01*
X0059841Y0172040D01*
X0059742Y0172046D01*
X0059643Y0172056D01*
X0059545Y0172070D01*
X0059448Y0172088D01*
X0059351Y0172110D01*
X0059255Y0172135D01*
X0059161Y0172165D01*
X0059067Y0172198D01*
X0058975Y0172235D01*
X0058885Y0172276D01*
X0058796Y0172320D01*
X0058710Y0172368D01*
X0058625Y0172419D01*
X0058542Y0172474D01*
X0058462Y0172532D01*
X0058384Y0172593D01*
X0058308Y0172657D01*
X0058235Y0172724D01*
X0058165Y0172794D01*
X0058098Y0172867D01*
X0058034Y0172943D01*
X0057973Y0173021D01*
X0057915Y0173101D01*
X0057860Y0173184D01*
X0057809Y0173268D01*
X0057761Y0173355D01*
X0057717Y0173444D01*
X0057676Y0173534D01*
X0057639Y0173626D01*
X0057606Y0173720D01*
X0057576Y0173814D01*
X0057551Y0173910D01*
X0057529Y0174007D01*
X0057511Y0174104D01*
X0057497Y0174202D01*
X0057487Y0174301D01*
X0057481Y0174400D01*
X0057479Y0174499D01*
X0088975Y0174499D02*
X0088977Y0174598D01*
X0088983Y0174697D01*
X0088993Y0174796D01*
X0089007Y0174894D01*
X0089025Y0174991D01*
X0089047Y0175088D01*
X0089072Y0175184D01*
X0089102Y0175278D01*
X0089135Y0175372D01*
X0089172Y0175464D01*
X0089213Y0175554D01*
X0089257Y0175643D01*
X0089305Y0175729D01*
X0089356Y0175814D01*
X0089411Y0175897D01*
X0089469Y0175977D01*
X0089530Y0176055D01*
X0089594Y0176131D01*
X0089661Y0176204D01*
X0089731Y0176274D01*
X0089804Y0176341D01*
X0089880Y0176405D01*
X0089958Y0176466D01*
X0090038Y0176524D01*
X0090121Y0176579D01*
X0090205Y0176630D01*
X0090292Y0176678D01*
X0090381Y0176722D01*
X0090471Y0176763D01*
X0090563Y0176800D01*
X0090657Y0176833D01*
X0090751Y0176863D01*
X0090847Y0176888D01*
X0090944Y0176910D01*
X0091041Y0176928D01*
X0091139Y0176942D01*
X0091238Y0176952D01*
X0091337Y0176958D01*
X0091436Y0176960D01*
X0091535Y0176958D01*
X0091634Y0176952D01*
X0091733Y0176942D01*
X0091831Y0176928D01*
X0091928Y0176910D01*
X0092025Y0176888D01*
X0092121Y0176863D01*
X0092215Y0176833D01*
X0092309Y0176800D01*
X0092401Y0176763D01*
X0092491Y0176722D01*
X0092580Y0176678D01*
X0092666Y0176630D01*
X0092751Y0176579D01*
X0092834Y0176524D01*
X0092914Y0176466D01*
X0092992Y0176405D01*
X0093068Y0176341D01*
X0093141Y0176274D01*
X0093211Y0176204D01*
X0093278Y0176131D01*
X0093342Y0176055D01*
X0093403Y0175977D01*
X0093461Y0175897D01*
X0093516Y0175814D01*
X0093567Y0175730D01*
X0093615Y0175643D01*
X0093659Y0175554D01*
X0093700Y0175464D01*
X0093737Y0175372D01*
X0093770Y0175278D01*
X0093800Y0175184D01*
X0093825Y0175088D01*
X0093847Y0174991D01*
X0093865Y0174894D01*
X0093879Y0174796D01*
X0093889Y0174697D01*
X0093895Y0174598D01*
X0093897Y0174499D01*
X0093895Y0174400D01*
X0093889Y0174301D01*
X0093879Y0174202D01*
X0093865Y0174104D01*
X0093847Y0174007D01*
X0093825Y0173910D01*
X0093800Y0173814D01*
X0093770Y0173720D01*
X0093737Y0173626D01*
X0093700Y0173534D01*
X0093659Y0173444D01*
X0093615Y0173355D01*
X0093567Y0173269D01*
X0093516Y0173184D01*
X0093461Y0173101D01*
X0093403Y0173021D01*
X0093342Y0172943D01*
X0093278Y0172867D01*
X0093211Y0172794D01*
X0093141Y0172724D01*
X0093068Y0172657D01*
X0092992Y0172593D01*
X0092914Y0172532D01*
X0092834Y0172474D01*
X0092751Y0172419D01*
X0092667Y0172368D01*
X0092580Y0172320D01*
X0092491Y0172276D01*
X0092401Y0172235D01*
X0092309Y0172198D01*
X0092215Y0172165D01*
X0092121Y0172135D01*
X0092025Y0172110D01*
X0091928Y0172088D01*
X0091831Y0172070D01*
X0091733Y0172056D01*
X0091634Y0172046D01*
X0091535Y0172040D01*
X0091436Y0172038D01*
X0091337Y0172040D01*
X0091238Y0172046D01*
X0091139Y0172056D01*
X0091041Y0172070D01*
X0090944Y0172088D01*
X0090847Y0172110D01*
X0090751Y0172135D01*
X0090657Y0172165D01*
X0090563Y0172198D01*
X0090471Y0172235D01*
X0090381Y0172276D01*
X0090292Y0172320D01*
X0090206Y0172368D01*
X0090121Y0172419D01*
X0090038Y0172474D01*
X0089958Y0172532D01*
X0089880Y0172593D01*
X0089804Y0172657D01*
X0089731Y0172724D01*
X0089661Y0172794D01*
X0089594Y0172867D01*
X0089530Y0172943D01*
X0089469Y0173021D01*
X0089411Y0173101D01*
X0089356Y0173184D01*
X0089305Y0173268D01*
X0089257Y0173355D01*
X0089213Y0173444D01*
X0089172Y0173534D01*
X0089135Y0173626D01*
X0089102Y0173720D01*
X0089072Y0173814D01*
X0089047Y0173910D01*
X0089025Y0174007D01*
X0089007Y0174104D01*
X0088993Y0174202D01*
X0088983Y0174301D01*
X0088977Y0174400D01*
X0088975Y0174499D01*
X0094487Y0165444D02*
X0094489Y0165543D01*
X0094495Y0165642D01*
X0094505Y0165741D01*
X0094519Y0165839D01*
X0094537Y0165936D01*
X0094559Y0166033D01*
X0094584Y0166129D01*
X0094614Y0166223D01*
X0094647Y0166317D01*
X0094684Y0166409D01*
X0094725Y0166499D01*
X0094769Y0166588D01*
X0094817Y0166674D01*
X0094868Y0166759D01*
X0094923Y0166842D01*
X0094981Y0166922D01*
X0095042Y0167000D01*
X0095106Y0167076D01*
X0095173Y0167149D01*
X0095243Y0167219D01*
X0095316Y0167286D01*
X0095392Y0167350D01*
X0095470Y0167411D01*
X0095550Y0167469D01*
X0095633Y0167524D01*
X0095717Y0167575D01*
X0095804Y0167623D01*
X0095893Y0167667D01*
X0095983Y0167708D01*
X0096075Y0167745D01*
X0096169Y0167778D01*
X0096263Y0167808D01*
X0096359Y0167833D01*
X0096456Y0167855D01*
X0096553Y0167873D01*
X0096651Y0167887D01*
X0096750Y0167897D01*
X0096849Y0167903D01*
X0096948Y0167905D01*
X0097047Y0167903D01*
X0097146Y0167897D01*
X0097245Y0167887D01*
X0097343Y0167873D01*
X0097440Y0167855D01*
X0097537Y0167833D01*
X0097633Y0167808D01*
X0097727Y0167778D01*
X0097821Y0167745D01*
X0097913Y0167708D01*
X0098003Y0167667D01*
X0098092Y0167623D01*
X0098178Y0167575D01*
X0098263Y0167524D01*
X0098346Y0167469D01*
X0098426Y0167411D01*
X0098504Y0167350D01*
X0098580Y0167286D01*
X0098653Y0167219D01*
X0098723Y0167149D01*
X0098790Y0167076D01*
X0098854Y0167000D01*
X0098915Y0166922D01*
X0098973Y0166842D01*
X0099028Y0166759D01*
X0099079Y0166675D01*
X0099127Y0166588D01*
X0099171Y0166499D01*
X0099212Y0166409D01*
X0099249Y0166317D01*
X0099282Y0166223D01*
X0099312Y0166129D01*
X0099337Y0166033D01*
X0099359Y0165936D01*
X0099377Y0165839D01*
X0099391Y0165741D01*
X0099401Y0165642D01*
X0099407Y0165543D01*
X0099409Y0165444D01*
X0099407Y0165345D01*
X0099401Y0165246D01*
X0099391Y0165147D01*
X0099377Y0165049D01*
X0099359Y0164952D01*
X0099337Y0164855D01*
X0099312Y0164759D01*
X0099282Y0164665D01*
X0099249Y0164571D01*
X0099212Y0164479D01*
X0099171Y0164389D01*
X0099127Y0164300D01*
X0099079Y0164214D01*
X0099028Y0164129D01*
X0098973Y0164046D01*
X0098915Y0163966D01*
X0098854Y0163888D01*
X0098790Y0163812D01*
X0098723Y0163739D01*
X0098653Y0163669D01*
X0098580Y0163602D01*
X0098504Y0163538D01*
X0098426Y0163477D01*
X0098346Y0163419D01*
X0098263Y0163364D01*
X0098179Y0163313D01*
X0098092Y0163265D01*
X0098003Y0163221D01*
X0097913Y0163180D01*
X0097821Y0163143D01*
X0097727Y0163110D01*
X0097633Y0163080D01*
X0097537Y0163055D01*
X0097440Y0163033D01*
X0097343Y0163015D01*
X0097245Y0163001D01*
X0097146Y0162991D01*
X0097047Y0162985D01*
X0096948Y0162983D01*
X0096849Y0162985D01*
X0096750Y0162991D01*
X0096651Y0163001D01*
X0096553Y0163015D01*
X0096456Y0163033D01*
X0096359Y0163055D01*
X0096263Y0163080D01*
X0096169Y0163110D01*
X0096075Y0163143D01*
X0095983Y0163180D01*
X0095893Y0163221D01*
X0095804Y0163265D01*
X0095718Y0163313D01*
X0095633Y0163364D01*
X0095550Y0163419D01*
X0095470Y0163477D01*
X0095392Y0163538D01*
X0095316Y0163602D01*
X0095243Y0163669D01*
X0095173Y0163739D01*
X0095106Y0163812D01*
X0095042Y0163888D01*
X0094981Y0163966D01*
X0094923Y0164046D01*
X0094868Y0164129D01*
X0094817Y0164213D01*
X0094769Y0164300D01*
X0094725Y0164389D01*
X0094684Y0164479D01*
X0094647Y0164571D01*
X0094614Y0164665D01*
X0094584Y0164759D01*
X0094559Y0164855D01*
X0094537Y0164952D01*
X0094519Y0165049D01*
X0094505Y0165147D01*
X0094495Y0165246D01*
X0094489Y0165345D01*
X0094487Y0165444D01*
D20*
X0046948Y0105601D03*
X0046948Y0098121D03*
D21*
X0054821Y0078515D03*
X0054821Y0073515D03*
X0054821Y0068515D03*
X0067421Y0068515D03*
X0067421Y0073515D03*
X0067421Y0078515D03*
D22*
X0070494Y0080658D02*
X0064347Y0080658D01*
X0063703Y0080014D01*
X0063703Y0077016D01*
X0064347Y0076371D01*
X0070494Y0076371D01*
X0071139Y0077016D01*
X0071139Y0080014D01*
X0070494Y0080658D01*
X0071139Y0079842D02*
X0086192Y0079842D01*
X0086192Y0080840D02*
X0049435Y0080840D01*
X0049435Y0079842D02*
X0051103Y0079842D01*
X0051103Y0080014D02*
X0051103Y0077016D01*
X0051747Y0076371D01*
X0057894Y0076371D01*
X0058539Y0077016D01*
X0058539Y0080014D01*
X0057894Y0080658D01*
X0051747Y0080658D01*
X0051103Y0080014D01*
X0051103Y0078843D02*
X0049435Y0078843D01*
X0049435Y0077845D02*
X0051103Y0077845D01*
X0051272Y0076846D02*
X0049435Y0076846D01*
X0049435Y0075848D02*
X0085792Y0075848D01*
X0085592Y0075648D02*
X0085592Y0073743D01*
X0086940Y0072396D01*
X0088845Y0072396D01*
X0090192Y0073743D01*
X0090192Y0075648D01*
X0089592Y0076248D01*
X0089592Y0127848D01*
X0089726Y0127848D01*
X0090370Y0128492D01*
X0090370Y0134915D01*
X0089986Y0135299D01*
X0089986Y0154534D01*
X0088990Y0155530D01*
X0070547Y0155530D01*
X0069947Y0156130D01*
X0068042Y0156130D01*
X0066695Y0154782D01*
X0066695Y0152877D01*
X0068042Y0151530D01*
X0069947Y0151530D01*
X0070547Y0152130D01*
X0071916Y0152130D01*
X0071025Y0151239D01*
X0071025Y0149334D01*
X0072373Y0147986D01*
X0074278Y0147986D01*
X0074878Y0148586D01*
X0081862Y0148586D01*
X0081862Y0135559D01*
X0081728Y0135559D01*
X0081396Y0135228D01*
X0081065Y0135559D01*
X0080144Y0135559D01*
X0080144Y0139678D01*
X0080744Y0140278D01*
X0080744Y0142184D01*
X0079396Y0143531D01*
X0077491Y0143531D01*
X0076144Y0142184D01*
X0076144Y0140278D01*
X0076744Y0139678D01*
X0076744Y0135550D01*
X0076734Y0135559D01*
X0073067Y0135559D01*
X0072735Y0135228D01*
X0072403Y0135559D01*
X0068736Y0135559D01*
X0068687Y0135511D01*
X0068538Y0135660D01*
X0068196Y0135857D01*
X0067814Y0135959D01*
X0066428Y0135959D01*
X0066428Y0131893D01*
X0066050Y0131893D01*
X0066050Y0135959D01*
X0064663Y0135959D01*
X0064282Y0135857D01*
X0063940Y0135660D01*
X0063791Y0135511D01*
X0063742Y0135559D01*
X0060075Y0135559D01*
X0059743Y0135228D01*
X0059411Y0135559D01*
X0055744Y0135559D01*
X0055412Y0135228D01*
X0055080Y0135559D01*
X0051413Y0135559D01*
X0050769Y0134915D01*
X0050769Y0134629D01*
X0048392Y0134629D01*
X0048392Y0130873D01*
X0050610Y0130873D01*
X0050769Y0130916D01*
X0050769Y0128492D01*
X0051413Y0127848D01*
X0051547Y0127848D01*
X0051547Y0089240D01*
X0051340Y0089034D01*
X0051340Y0087129D01*
X0052688Y0085781D01*
X0054593Y0085781D01*
X0055940Y0087129D01*
X0055940Y0089034D01*
X0054947Y0090028D01*
X0054947Y0127848D01*
X0055080Y0127848D01*
X0055412Y0128179D01*
X0055744Y0127848D01*
X0055877Y0127848D01*
X0055877Y0095540D01*
X0055277Y0094940D01*
X0055277Y0093034D01*
X0056625Y0091687D01*
X0058530Y0091687D01*
X0059877Y0093034D01*
X0059877Y0094940D01*
X0059277Y0095540D01*
X0059277Y0127848D01*
X0059411Y0127848D01*
X0059743Y0128179D01*
X0060075Y0127848D01*
X0060208Y0127848D01*
X0060208Y0100264D01*
X0059608Y0099664D01*
X0059608Y0097759D01*
X0060955Y0096411D01*
X0062861Y0096411D01*
X0064208Y0097759D01*
X0064208Y0099664D01*
X0063608Y0100264D01*
X0063608Y0127848D01*
X0063742Y0127848D01*
X0063791Y0127897D01*
X0063940Y0127747D01*
X0064282Y0127550D01*
X0064663Y0127448D01*
X0066050Y0127448D01*
X0066050Y0131514D01*
X0066428Y0131514D01*
X0066428Y0127448D01*
X0067814Y0127448D01*
X0068196Y0127550D01*
X0068538Y0127747D01*
X0068687Y0127897D01*
X0068736Y0127848D01*
X0068870Y0127848D01*
X0068870Y0108138D01*
X0068270Y0107538D01*
X0068270Y0105633D01*
X0069617Y0104285D01*
X0071522Y0104285D01*
X0072870Y0105633D01*
X0072870Y0107538D01*
X0072270Y0108138D01*
X0072270Y0127848D01*
X0072403Y0127848D01*
X0072735Y0128179D01*
X0073067Y0127848D01*
X0073200Y0127848D01*
X0073200Y0112075D01*
X0072600Y0111475D01*
X0072600Y0109570D01*
X0073948Y0108222D01*
X0075853Y0108222D01*
X0077200Y0109570D01*
X0077200Y0111475D01*
X0076600Y0112075D01*
X0076600Y0127848D01*
X0076734Y0127848D01*
X0077066Y0128179D01*
X0077397Y0127848D01*
X0077531Y0127848D01*
X0077531Y0116012D01*
X0076931Y0115412D01*
X0076931Y0113507D01*
X0078278Y0112159D01*
X0080184Y0112159D01*
X0081531Y0113507D01*
X0081531Y0115412D01*
X0080931Y0116012D01*
X0080931Y0127848D01*
X0081065Y0127848D01*
X0081396Y0128179D01*
X0081728Y0127848D01*
X0081862Y0127848D01*
X0081862Y0091996D01*
X0081262Y0091396D01*
X0081262Y0089491D01*
X0082609Y0088144D01*
X0084514Y0088144D01*
X0085862Y0089491D01*
X0085862Y0091396D01*
X0085262Y0091996D01*
X0085262Y0127848D01*
X0085395Y0127848D01*
X0085727Y0128179D01*
X0086059Y0127848D01*
X0086192Y0127848D01*
X0086192Y0076248D01*
X0085592Y0075648D01*
X0085592Y0074849D02*
X0071139Y0074849D01*
X0071139Y0075014D02*
X0070494Y0075658D01*
X0064347Y0075658D01*
X0063703Y0075014D01*
X0063703Y0072016D01*
X0064347Y0071371D01*
X0070494Y0071371D01*
X0071139Y0072016D01*
X0071139Y0075014D01*
X0071139Y0073851D02*
X0085592Y0073851D01*
X0086483Y0072852D02*
X0071139Y0072852D01*
X0070977Y0071853D02*
X0135011Y0071853D01*
X0135011Y0070855D02*
X0058192Y0070855D01*
X0058360Y0070758D02*
X0058018Y0070956D01*
X0057636Y0071058D01*
X0054842Y0071058D01*
X0054842Y0068536D01*
X0054799Y0068536D01*
X0054799Y0068493D01*
X0050703Y0068493D01*
X0050703Y0067274D01*
X0050805Y0066892D01*
X0051002Y0066550D01*
X0051282Y0066271D01*
X0051624Y0066073D01*
X0052005Y0065971D01*
X0054799Y0065971D01*
X0054799Y0068493D01*
X0054842Y0068493D01*
X0054842Y0065971D01*
X0057636Y0065971D01*
X0058018Y0066073D01*
X0058360Y0066271D01*
X0058639Y0066550D01*
X0058837Y0066892D01*
X0058939Y0067274D01*
X0058939Y0068493D01*
X0054842Y0068493D01*
X0054842Y0068536D01*
X0058939Y0068536D01*
X0058939Y0069755D01*
X0058837Y0070137D01*
X0058639Y0070479D01*
X0058360Y0070758D01*
X0057894Y0071371D02*
X0058539Y0072016D01*
X0058539Y0075014D01*
X0057894Y0075658D01*
X0051747Y0075658D01*
X0051304Y0075215D01*
X0049620Y0075215D01*
X0049435Y0075400D01*
X0049435Y0094462D01*
X0050356Y0094462D01*
X0051000Y0095106D01*
X0051000Y0101136D01*
X0050356Y0101780D01*
X0044317Y0101780D01*
X0044317Y0101942D01*
X0050356Y0101942D01*
X0051000Y0102586D01*
X0051000Y0108616D01*
X0050356Y0109260D01*
X0045693Y0109260D01*
X0043923Y0111030D01*
X0043923Y0131987D01*
X0043975Y0131794D01*
X0044172Y0131452D01*
X0044452Y0131173D01*
X0044794Y0130975D01*
X0045175Y0130873D01*
X0047392Y0130873D01*
X0047392Y0134629D01*
X0048392Y0134629D01*
X0048392Y0135629D01*
X0047392Y0135629D01*
X0047392Y0139385D01*
X0045175Y0139385D01*
X0044794Y0139282D01*
X0044452Y0139085D01*
X0044172Y0138806D01*
X0043975Y0138464D01*
X0043923Y0138270D01*
X0043923Y0164722D01*
X0044120Y0165995D01*
X0044120Y0165995D01*
X0043343Y0168725D01*
X0041496Y0170879D01*
X0041496Y0170879D01*
X0041496Y0170879D01*
X0039487Y0171803D01*
X0040411Y0172728D01*
X0041036Y0174234D01*
X0041036Y0175866D01*
X0040411Y0177372D01*
X0039258Y0178526D01*
X0037751Y0179150D01*
X0036120Y0179150D01*
X0034613Y0178526D01*
X0033460Y0177372D01*
X0032836Y0175866D01*
X0032836Y0174234D01*
X0033460Y0172728D01*
X0034122Y0172065D01*
X0030723Y0172065D01*
X0029601Y0173186D01*
X0030036Y0174234D01*
X0030036Y0175866D01*
X0029411Y0177372D01*
X0028258Y0178526D01*
X0026908Y0179085D01*
X0026908Y0180950D01*
X0027751Y0180950D01*
X0029258Y0181574D01*
X0030411Y0182728D01*
X0031036Y0184234D01*
X0031036Y0185866D01*
X0030411Y0187372D01*
X0029258Y0188526D01*
X0027751Y0189150D01*
X0026908Y0189150D01*
X0026908Y0190550D01*
X0029133Y0190550D01*
X0029515Y0190652D01*
X0029857Y0190850D01*
X0030136Y0191129D01*
X0030333Y0191471D01*
X0030436Y0191853D01*
X0030436Y0194550D01*
X0026908Y0194550D01*
X0026908Y0195550D01*
X0030436Y0195550D01*
X0030436Y0195725D01*
X0032836Y0195725D01*
X0032836Y0194234D01*
X0033460Y0192728D01*
X0034613Y0191574D01*
X0036120Y0190950D01*
X0037751Y0190950D01*
X0039258Y0191574D01*
X0040411Y0192728D01*
X0041036Y0194234D01*
X0041036Y0195725D01*
X0114331Y0195725D01*
X0114217Y0195569D01*
X0113867Y0194882D01*
X0113629Y0194149D01*
X0113527Y0193503D01*
X0117904Y0193503D01*
X0117904Y0192503D01*
X0113527Y0192503D01*
X0113629Y0191856D01*
X0113867Y0191123D01*
X0114217Y0190437D01*
X0114670Y0189813D01*
X0115215Y0189269D01*
X0115838Y0188816D01*
X0116525Y0188466D01*
X0117258Y0188228D01*
X0117904Y0188125D01*
X0117904Y0192503D01*
X0118904Y0192503D01*
X0118904Y0193503D01*
X0123282Y0193503D01*
X0123179Y0194149D01*
X0122941Y0194882D01*
X0122591Y0195569D01*
X0122478Y0195725D01*
X0141890Y0195725D01*
X0141776Y0195569D01*
X0141426Y0194882D01*
X0141188Y0194149D01*
X0141086Y0193503D01*
X0145463Y0193503D01*
X0145463Y0192503D01*
X0141086Y0192503D01*
X0141188Y0191856D01*
X0141426Y0191123D01*
X0141776Y0190437D01*
X0142229Y0189813D01*
X0142774Y0189269D01*
X0143397Y0188816D01*
X0144084Y0188466D01*
X0144817Y0188228D01*
X0145463Y0188125D01*
X0145463Y0192503D01*
X0146463Y0192503D01*
X0146463Y0188125D01*
X0147110Y0188228D01*
X0147843Y0188466D01*
X0148529Y0188816D01*
X0149153Y0189269D01*
X0149697Y0189813D01*
X0150150Y0190437D01*
X0150500Y0191123D01*
X0150738Y0191856D01*
X0150841Y0192503D01*
X0146463Y0192503D01*
X0146463Y0193503D01*
X0150841Y0193503D01*
X0150738Y0194149D01*
X0150500Y0194882D01*
X0150150Y0195569D01*
X0150037Y0195725D01*
X0162436Y0195725D01*
X0162436Y0195550D01*
X0166436Y0195550D01*
X0166436Y0194550D01*
X0167436Y0194550D01*
X0167436Y0195550D01*
X0171436Y0195550D01*
X0171436Y0195725D01*
X0171836Y0195725D01*
X0171836Y0194234D01*
X0172460Y0192728D01*
X0173613Y0191574D01*
X0175120Y0190950D01*
X0176751Y0190950D01*
X0176908Y0191015D01*
X0176908Y0189150D01*
X0176120Y0189150D01*
X0174613Y0188526D01*
X0173460Y0187372D01*
X0172836Y0185866D01*
X0172836Y0184234D01*
X0173460Y0182728D01*
X0174613Y0181574D01*
X0176120Y0180950D01*
X0176908Y0180950D01*
X0176908Y0179085D01*
X0176751Y0179150D01*
X0175120Y0179150D01*
X0173613Y0178526D01*
X0172460Y0177372D01*
X0171836Y0175866D01*
X0171836Y0174234D01*
X0172460Y0172728D01*
X0173613Y0171574D01*
X0175120Y0170950D01*
X0176751Y0170950D01*
X0176908Y0171015D01*
X0176908Y0169150D01*
X0176120Y0169150D01*
X0174613Y0168526D01*
X0173460Y0167372D01*
X0172836Y0165866D01*
X0172836Y0164234D01*
X0173460Y0162728D01*
X0174613Y0161574D01*
X0176120Y0160950D01*
X0176908Y0160950D01*
X0176908Y0159085D01*
X0176751Y0159150D01*
X0175120Y0159150D01*
X0173613Y0158526D01*
X0172460Y0157372D01*
X0171836Y0155866D01*
X0171836Y0154234D01*
X0172460Y0152728D01*
X0173613Y0151574D01*
X0175120Y0150950D01*
X0176751Y0150950D01*
X0176908Y0151015D01*
X0176908Y0149150D01*
X0176120Y0149150D01*
X0174613Y0148526D01*
X0173460Y0147372D01*
X0172836Y0145866D01*
X0172836Y0144234D01*
X0173460Y0142728D01*
X0174613Y0141574D01*
X0176120Y0140950D01*
X0176908Y0140950D01*
X0176908Y0139085D01*
X0176751Y0139150D01*
X0175120Y0139150D01*
X0173613Y0138526D01*
X0172460Y0137372D01*
X0171836Y0135866D01*
X0171836Y0134234D01*
X0172460Y0132728D01*
X0173613Y0131574D01*
X0175120Y0130950D01*
X0176751Y0130950D01*
X0176908Y0131015D01*
X0176908Y0129150D01*
X0176120Y0129150D01*
X0174613Y0128526D01*
X0173460Y0127372D01*
X0172836Y0125866D01*
X0172836Y0124234D01*
X0173460Y0122728D01*
X0174613Y0121574D01*
X0176120Y0120950D01*
X0176908Y0120950D01*
X0176908Y0119085D01*
X0176751Y0119150D01*
X0175120Y0119150D01*
X0173613Y0118526D01*
X0172460Y0117372D01*
X0171836Y0115866D01*
X0171836Y0114234D01*
X0172460Y0112728D01*
X0173613Y0111574D01*
X0175120Y0110950D01*
X0176751Y0110950D01*
X0176908Y0111015D01*
X0176908Y0109150D01*
X0176120Y0109150D01*
X0174613Y0108526D01*
X0173460Y0107372D01*
X0172836Y0105866D01*
X0172836Y0104234D01*
X0173460Y0102728D01*
X0174613Y0101574D01*
X0176120Y0100950D01*
X0176908Y0100950D01*
X0176908Y0099452D01*
X0176436Y0099527D01*
X0176436Y0095550D01*
X0175436Y0095550D01*
X0175436Y0099527D01*
X0174882Y0099439D01*
X0174208Y0099220D01*
X0173577Y0098899D01*
X0173004Y0098482D01*
X0172503Y0097982D01*
X0172087Y0097409D01*
X0171765Y0096777D01*
X0171546Y0096104D01*
X0171459Y0095550D01*
X0175436Y0095550D01*
X0175436Y0094550D01*
X0176436Y0094550D01*
X0176436Y0090573D01*
X0176908Y0090648D01*
X0176908Y0089150D01*
X0176120Y0089150D01*
X0174613Y0088526D01*
X0173460Y0087372D01*
X0172836Y0085866D01*
X0172836Y0084234D01*
X0173460Y0082728D01*
X0174613Y0081574D01*
X0176120Y0080950D01*
X0176908Y0080950D01*
X0176908Y0079085D01*
X0176751Y0079150D01*
X0175120Y0079150D01*
X0173613Y0078526D01*
X0172460Y0077372D01*
X0171836Y0075866D01*
X0171836Y0074234D01*
X0172460Y0072728D01*
X0173613Y0071574D01*
X0175120Y0070950D01*
X0176751Y0070950D01*
X0176908Y0071015D01*
X0176908Y0069150D01*
X0176120Y0069150D01*
X0174613Y0068526D01*
X0173460Y0067372D01*
X0172836Y0065866D01*
X0172836Y0064234D01*
X0173460Y0062728D01*
X0174613Y0061574D01*
X0176120Y0060950D01*
X0176908Y0060950D01*
X0176908Y0059085D01*
X0176751Y0059150D01*
X0175120Y0059150D01*
X0173613Y0058526D01*
X0172460Y0057372D01*
X0171836Y0055866D01*
X0171836Y0054234D01*
X0172460Y0052728D01*
X0173613Y0051574D01*
X0175120Y0050950D01*
X0176751Y0050950D01*
X0176908Y0051015D01*
X0176908Y0049150D01*
X0176120Y0049150D01*
X0174613Y0048526D01*
X0173460Y0047372D01*
X0172836Y0045866D01*
X0172836Y0044234D01*
X0173460Y0042728D01*
X0174613Y0041574D01*
X0176120Y0040950D01*
X0176908Y0040950D01*
X0176908Y0039085D01*
X0176751Y0039150D01*
X0175120Y0039150D01*
X0173613Y0038526D01*
X0172460Y0037372D01*
X0171836Y0035866D01*
X0171836Y0034234D01*
X0172460Y0032728D01*
X0173613Y0031574D01*
X0175120Y0030950D01*
X0176751Y0030950D01*
X0176908Y0031015D01*
X0176908Y0029150D01*
X0176120Y0029150D01*
X0174613Y0028526D01*
X0173460Y0027372D01*
X0172836Y0025866D01*
X0172836Y0024234D01*
X0173460Y0022728D01*
X0174613Y0021574D01*
X0176120Y0020950D01*
X0176908Y0020950D01*
X0176908Y0019085D01*
X0176751Y0019150D01*
X0175120Y0019150D01*
X0173613Y0018526D01*
X0172460Y0017372D01*
X0171836Y0015866D01*
X0171836Y0014234D01*
X0172460Y0012728D01*
X0173613Y0011574D01*
X0175120Y0010950D01*
X0176751Y0010950D01*
X0176908Y0011015D01*
X0176908Y0006034D01*
X0176436Y0006034D01*
X0176436Y0009527D01*
X0175882Y0009439D01*
X0175208Y0009220D01*
X0174577Y0008899D01*
X0174004Y0008482D01*
X0173503Y0007982D01*
X0173087Y0007409D01*
X0172765Y0006777D01*
X0172546Y0006104D01*
X0172535Y0006034D01*
X0170336Y0006034D01*
X0170325Y0006104D01*
X0170106Y0006777D01*
X0169784Y0007409D01*
X0169368Y0007982D01*
X0168867Y0008482D01*
X0168294Y0008899D01*
X0167663Y0009220D01*
X0166989Y0009439D01*
X0166436Y0009527D01*
X0166436Y0006034D01*
X0165436Y0006034D01*
X0165436Y0009527D01*
X0164882Y0009439D01*
X0164208Y0009220D01*
X0163577Y0008899D01*
X0163004Y0008482D01*
X0162503Y0007982D01*
X0162087Y0007409D01*
X0161765Y0006777D01*
X0161546Y0006104D01*
X0161535Y0006034D01*
X0039966Y0006034D01*
X0039411Y0007372D01*
X0038258Y0008526D01*
X0036751Y0009150D01*
X0035120Y0009150D01*
X0033613Y0008526D01*
X0032460Y0007372D01*
X0031906Y0006034D01*
X0031336Y0006034D01*
X0031325Y0006104D01*
X0031106Y0006777D01*
X0030784Y0007409D01*
X0030368Y0007982D01*
X0029867Y0008482D01*
X0029294Y0008899D01*
X0028663Y0009220D01*
X0027989Y0009439D01*
X0027436Y0009527D01*
X0027436Y0006034D01*
X0026908Y0006034D01*
X0026908Y0011015D01*
X0028258Y0011574D01*
X0029411Y0012728D01*
X0030036Y0014234D01*
X0030036Y0015866D01*
X0029411Y0017372D01*
X0028258Y0018526D01*
X0026908Y0019085D01*
X0026908Y0020950D01*
X0027751Y0020950D01*
X0029258Y0021574D01*
X0030411Y0022728D01*
X0031036Y0024234D01*
X0031036Y0025866D01*
X0030411Y0027372D01*
X0029258Y0028526D01*
X0027751Y0029150D01*
X0026908Y0029150D01*
X0026908Y0031015D01*
X0028258Y0031574D01*
X0029411Y0032728D01*
X0030036Y0034234D01*
X0030036Y0035866D01*
X0029411Y0037372D01*
X0028258Y0038526D01*
X0026908Y0039085D01*
X0026908Y0040950D01*
X0027751Y0040950D01*
X0029258Y0041574D01*
X0030411Y0042728D01*
X0031036Y0044234D01*
X0031036Y0045866D01*
X0030411Y0047372D01*
X0029258Y0048526D01*
X0027751Y0049150D01*
X0026908Y0049150D01*
X0026908Y0051015D01*
X0028258Y0051574D01*
X0029411Y0052728D01*
X0030036Y0054234D01*
X0030036Y0055866D01*
X0029411Y0057372D01*
X0028258Y0058526D01*
X0026908Y0059085D01*
X0026908Y0060950D01*
X0027751Y0060950D01*
X0029258Y0061574D01*
X0030411Y0062728D01*
X0031036Y0064234D01*
X0031036Y0065866D01*
X0030411Y0067372D01*
X0029258Y0068526D01*
X0027751Y0069150D01*
X0026908Y0069150D01*
X0026908Y0071015D01*
X0028258Y0071574D01*
X0029411Y0072728D01*
X0030036Y0074234D01*
X0030036Y0075866D01*
X0029411Y0077372D01*
X0028258Y0078526D01*
X0026908Y0079085D01*
X0026908Y0080950D01*
X0027751Y0080950D01*
X0029258Y0081574D01*
X0030411Y0082728D01*
X0031036Y0084234D01*
X0031036Y0085866D01*
X0030411Y0087372D01*
X0029258Y0088526D01*
X0027751Y0089150D01*
X0026908Y0089150D01*
X0026908Y0091015D01*
X0028258Y0091574D01*
X0029411Y0092728D01*
X0030036Y0094234D01*
X0030036Y0095866D01*
X0029411Y0097372D01*
X0028258Y0098526D01*
X0026908Y0099085D01*
X0026908Y0100950D01*
X0027751Y0100950D01*
X0029258Y0101574D01*
X0030411Y0102728D01*
X0031036Y0104234D01*
X0031036Y0105866D01*
X0030411Y0107372D01*
X0029258Y0108526D01*
X0027751Y0109150D01*
X0026908Y0109150D01*
X0026908Y0111015D01*
X0027374Y0111208D01*
X0029157Y0109425D01*
X0030153Y0108429D01*
X0033516Y0108429D01*
X0032460Y0107372D01*
X0031836Y0105866D01*
X0031836Y0104234D01*
X0032460Y0102728D01*
X0033613Y0101574D01*
X0035120Y0100950D01*
X0036751Y0100950D01*
X0038258Y0101574D01*
X0039411Y0102728D01*
X0040036Y0104234D01*
X0040036Y0105866D01*
X0039411Y0107372D01*
X0038355Y0108429D01*
X0038763Y0108429D01*
X0040917Y0106275D01*
X0040917Y0098401D01*
X0041704Y0097614D01*
X0042700Y0096618D01*
X0042895Y0096618D01*
X0042895Y0095106D01*
X0043539Y0094462D01*
X0046035Y0094462D01*
X0046035Y0073991D01*
X0047031Y0072996D01*
X0048212Y0071815D01*
X0051304Y0071815D01*
X0051747Y0071371D01*
X0057894Y0071371D01*
X0058377Y0071853D02*
X0063865Y0071853D01*
X0063703Y0072852D02*
X0058539Y0072852D01*
X0058539Y0073851D02*
X0063703Y0073851D01*
X0063703Y0074849D02*
X0058539Y0074849D01*
X0058369Y0076846D02*
X0063872Y0076846D01*
X0063703Y0077845D02*
X0058539Y0077845D01*
X0058539Y0078843D02*
X0063703Y0078843D01*
X0063703Y0079842D02*
X0058539Y0079842D01*
X0054644Y0085833D02*
X0086192Y0085833D01*
X0086192Y0086831D02*
X0055643Y0086831D01*
X0055940Y0087830D02*
X0086192Y0087830D01*
X0086192Y0088828D02*
X0085199Y0088828D01*
X0085862Y0089827D02*
X0086192Y0089827D01*
X0086192Y0090825D02*
X0085862Y0090825D01*
X0086192Y0091824D02*
X0085434Y0091824D01*
X0085262Y0092822D02*
X0086192Y0092822D01*
X0086192Y0093821D02*
X0085262Y0093821D01*
X0085262Y0094819D02*
X0086192Y0094819D01*
X0086192Y0095818D02*
X0085262Y0095818D01*
X0085262Y0096816D02*
X0086192Y0096816D01*
X0086192Y0097815D02*
X0085262Y0097815D01*
X0085262Y0098813D02*
X0086192Y0098813D01*
X0086192Y0099812D02*
X0085262Y0099812D01*
X0085262Y0100810D02*
X0086192Y0100810D01*
X0086192Y0101809D02*
X0085262Y0101809D01*
X0085262Y0102807D02*
X0086192Y0102807D01*
X0086192Y0103806D02*
X0085262Y0103806D01*
X0085262Y0104804D02*
X0086192Y0104804D01*
X0086192Y0105803D02*
X0085262Y0105803D01*
X0085262Y0106801D02*
X0086192Y0106801D01*
X0086192Y0107800D02*
X0085262Y0107800D01*
X0085262Y0108798D02*
X0086192Y0108798D01*
X0086192Y0109797D02*
X0085262Y0109797D01*
X0085262Y0110795D02*
X0086192Y0110795D01*
X0086192Y0111794D02*
X0085262Y0111794D01*
X0085262Y0112792D02*
X0086192Y0112792D01*
X0086192Y0113791D02*
X0085262Y0113791D01*
X0085262Y0114789D02*
X0086192Y0114789D01*
X0086192Y0115788D02*
X0085262Y0115788D01*
X0085262Y0116787D02*
X0086192Y0116787D01*
X0086192Y0117785D02*
X0085262Y0117785D01*
X0085262Y0118784D02*
X0086192Y0118784D01*
X0086192Y0119782D02*
X0085262Y0119782D01*
X0085262Y0120781D02*
X0086192Y0120781D01*
X0086192Y0121779D02*
X0085262Y0121779D01*
X0085262Y0122778D02*
X0086192Y0122778D01*
X0086192Y0123776D02*
X0085262Y0123776D01*
X0085262Y0124775D02*
X0086192Y0124775D01*
X0086192Y0125773D02*
X0085262Y0125773D01*
X0085262Y0126772D02*
X0086192Y0126772D01*
X0086192Y0127770D02*
X0085262Y0127770D01*
X0081862Y0127770D02*
X0080931Y0127770D01*
X0080931Y0126772D02*
X0081862Y0126772D01*
X0081862Y0125773D02*
X0080931Y0125773D01*
X0080931Y0124775D02*
X0081862Y0124775D01*
X0081862Y0123776D02*
X0080931Y0123776D01*
X0080931Y0122778D02*
X0081862Y0122778D01*
X0081862Y0121779D02*
X0080931Y0121779D01*
X0080931Y0120781D02*
X0081862Y0120781D01*
X0081862Y0119782D02*
X0080931Y0119782D01*
X0080931Y0118784D02*
X0081862Y0118784D01*
X0081862Y0117785D02*
X0080931Y0117785D01*
X0080931Y0116787D02*
X0081862Y0116787D01*
X0081862Y0115788D02*
X0081155Y0115788D01*
X0081531Y0114789D02*
X0081862Y0114789D01*
X0081862Y0113791D02*
X0081531Y0113791D01*
X0081862Y0112792D02*
X0080817Y0112792D01*
X0081862Y0111794D02*
X0076881Y0111794D01*
X0076600Y0112792D02*
X0077645Y0112792D01*
X0076931Y0113791D02*
X0076600Y0113791D01*
X0076600Y0114789D02*
X0076931Y0114789D01*
X0076600Y0115788D02*
X0077307Y0115788D01*
X0077531Y0116787D02*
X0076600Y0116787D01*
X0076600Y0117785D02*
X0077531Y0117785D01*
X0077531Y0118784D02*
X0076600Y0118784D01*
X0076600Y0119782D02*
X0077531Y0119782D01*
X0077531Y0120781D02*
X0076600Y0120781D01*
X0076600Y0121779D02*
X0077531Y0121779D01*
X0077531Y0122778D02*
X0076600Y0122778D01*
X0076600Y0123776D02*
X0077531Y0123776D01*
X0077531Y0124775D02*
X0076600Y0124775D01*
X0076600Y0125773D02*
X0077531Y0125773D01*
X0077531Y0126772D02*
X0076600Y0126772D01*
X0076600Y0127770D02*
X0077531Y0127770D01*
X0073200Y0127770D02*
X0072270Y0127770D01*
X0072270Y0126772D02*
X0073200Y0126772D01*
X0073200Y0125773D02*
X0072270Y0125773D01*
X0072270Y0124775D02*
X0073200Y0124775D01*
X0073200Y0123776D02*
X0072270Y0123776D01*
X0072270Y0122778D02*
X0073200Y0122778D01*
X0073200Y0121779D02*
X0072270Y0121779D01*
X0072270Y0120781D02*
X0073200Y0120781D01*
X0073200Y0119782D02*
X0072270Y0119782D01*
X0072270Y0118784D02*
X0073200Y0118784D01*
X0073200Y0117785D02*
X0072270Y0117785D01*
X0072270Y0116787D02*
X0073200Y0116787D01*
X0073200Y0115788D02*
X0072270Y0115788D01*
X0072270Y0114789D02*
X0073200Y0114789D01*
X0073200Y0113791D02*
X0072270Y0113791D01*
X0072270Y0112792D02*
X0073200Y0112792D01*
X0072919Y0111794D02*
X0072270Y0111794D01*
X0072270Y0110795D02*
X0072600Y0110795D01*
X0072600Y0109797D02*
X0072270Y0109797D01*
X0072270Y0108798D02*
X0073372Y0108798D01*
X0072608Y0107800D02*
X0081862Y0107800D01*
X0081862Y0108798D02*
X0076429Y0108798D01*
X0077200Y0109797D02*
X0081862Y0109797D01*
X0081862Y0110795D02*
X0077200Y0110795D01*
X0072870Y0106801D02*
X0081862Y0106801D01*
X0081862Y0105803D02*
X0072870Y0105803D01*
X0072041Y0104804D02*
X0081862Y0104804D01*
X0081862Y0103806D02*
X0063608Y0103806D01*
X0063608Y0104804D02*
X0069098Y0104804D01*
X0068270Y0105803D02*
X0063608Y0105803D01*
X0063608Y0106801D02*
X0068270Y0106801D01*
X0068531Y0107800D02*
X0063608Y0107800D01*
X0063608Y0108798D02*
X0068870Y0108798D01*
X0068870Y0109797D02*
X0063608Y0109797D01*
X0063608Y0110795D02*
X0068870Y0110795D01*
X0068870Y0111794D02*
X0063608Y0111794D01*
X0063608Y0112792D02*
X0068870Y0112792D01*
X0068870Y0113791D02*
X0063608Y0113791D01*
X0063608Y0114789D02*
X0068870Y0114789D01*
X0068870Y0115788D02*
X0063608Y0115788D01*
X0063608Y0116787D02*
X0068870Y0116787D01*
X0068870Y0117785D02*
X0063608Y0117785D01*
X0063608Y0118784D02*
X0068870Y0118784D01*
X0068870Y0119782D02*
X0063608Y0119782D01*
X0063608Y0120781D02*
X0068870Y0120781D01*
X0068870Y0121779D02*
X0063608Y0121779D01*
X0063608Y0122778D02*
X0068870Y0122778D01*
X0068870Y0123776D02*
X0063608Y0123776D01*
X0063608Y0124775D02*
X0068870Y0124775D01*
X0068870Y0125773D02*
X0063608Y0125773D01*
X0063608Y0126772D02*
X0068870Y0126772D01*
X0068870Y0127770D02*
X0068561Y0127770D01*
X0066428Y0127770D02*
X0066050Y0127770D01*
X0066050Y0128769D02*
X0066428Y0128769D01*
X0066428Y0129767D02*
X0066050Y0129767D01*
X0066050Y0130766D02*
X0066428Y0130766D01*
X0066428Y0132763D02*
X0066050Y0132763D01*
X0066050Y0133761D02*
X0066428Y0133761D01*
X0066428Y0134760D02*
X0066050Y0134760D01*
X0066050Y0135758D02*
X0066428Y0135758D01*
X0068367Y0135758D02*
X0076744Y0135758D01*
X0076744Y0136757D02*
X0051912Y0136757D01*
X0051912Y0137755D02*
X0076744Y0137755D01*
X0076744Y0138754D02*
X0051642Y0138754D01*
X0051612Y0138806D02*
X0051333Y0139085D01*
X0050991Y0139282D01*
X0050610Y0139385D01*
X0048392Y0139385D01*
X0048392Y0135629D01*
X0051912Y0135629D01*
X0051912Y0138082D01*
X0051810Y0138464D01*
X0051612Y0138806D01*
X0051912Y0135758D02*
X0064110Y0135758D01*
X0063917Y0127770D02*
X0063608Y0127770D01*
X0060208Y0127770D02*
X0059277Y0127770D01*
X0059277Y0126772D02*
X0060208Y0126772D01*
X0060208Y0125773D02*
X0059277Y0125773D01*
X0059277Y0124775D02*
X0060208Y0124775D01*
X0060208Y0123776D02*
X0059277Y0123776D01*
X0059277Y0122778D02*
X0060208Y0122778D01*
X0060208Y0121779D02*
X0059277Y0121779D01*
X0059277Y0120781D02*
X0060208Y0120781D01*
X0060208Y0119782D02*
X0059277Y0119782D01*
X0059277Y0118784D02*
X0060208Y0118784D01*
X0060208Y0117785D02*
X0059277Y0117785D01*
X0059277Y0116787D02*
X0060208Y0116787D01*
X0060208Y0115788D02*
X0059277Y0115788D01*
X0059277Y0114789D02*
X0060208Y0114789D01*
X0060208Y0113791D02*
X0059277Y0113791D01*
X0059277Y0112792D02*
X0060208Y0112792D01*
X0060208Y0111794D02*
X0059277Y0111794D01*
X0059277Y0110795D02*
X0060208Y0110795D01*
X0060208Y0109797D02*
X0059277Y0109797D01*
X0059277Y0108798D02*
X0060208Y0108798D01*
X0060208Y0107800D02*
X0059277Y0107800D01*
X0059277Y0106801D02*
X0060208Y0106801D01*
X0060208Y0105803D02*
X0059277Y0105803D01*
X0059277Y0104804D02*
X0060208Y0104804D01*
X0060208Y0103806D02*
X0059277Y0103806D01*
X0059277Y0102807D02*
X0060208Y0102807D01*
X0060208Y0101809D02*
X0059277Y0101809D01*
X0059277Y0100810D02*
X0060208Y0100810D01*
X0059756Y0099812D02*
X0059277Y0099812D01*
X0059277Y0098813D02*
X0059608Y0098813D01*
X0059608Y0097815D02*
X0059277Y0097815D01*
X0059277Y0096816D02*
X0060551Y0096816D01*
X0059277Y0095818D02*
X0081862Y0095818D01*
X0081862Y0096816D02*
X0063266Y0096816D01*
X0064208Y0097815D02*
X0081862Y0097815D01*
X0081862Y0098813D02*
X0064208Y0098813D01*
X0064060Y0099812D02*
X0081862Y0099812D01*
X0081862Y0100810D02*
X0063608Y0100810D01*
X0063608Y0101809D02*
X0081862Y0101809D01*
X0081862Y0102807D02*
X0063608Y0102807D01*
X0059877Y0094819D02*
X0081862Y0094819D01*
X0081862Y0093821D02*
X0059877Y0093821D01*
X0059665Y0092822D02*
X0081862Y0092822D01*
X0081689Y0091824D02*
X0058667Y0091824D01*
X0056488Y0091824D02*
X0054947Y0091824D01*
X0054947Y0092822D02*
X0055490Y0092822D01*
X0055277Y0093821D02*
X0054947Y0093821D01*
X0054947Y0094819D02*
X0055277Y0094819D01*
X0054947Y0095818D02*
X0055877Y0095818D01*
X0055877Y0096816D02*
X0054947Y0096816D01*
X0054947Y0097815D02*
X0055877Y0097815D01*
X0055877Y0098813D02*
X0054947Y0098813D01*
X0054947Y0099812D02*
X0055877Y0099812D01*
X0055877Y0100810D02*
X0054947Y0100810D01*
X0054947Y0101809D02*
X0055877Y0101809D01*
X0055877Y0102807D02*
X0054947Y0102807D01*
X0054947Y0103806D02*
X0055877Y0103806D01*
X0055877Y0104804D02*
X0054947Y0104804D01*
X0054947Y0105803D02*
X0055877Y0105803D01*
X0055877Y0106801D02*
X0054947Y0106801D01*
X0054947Y0107800D02*
X0055877Y0107800D01*
X0055877Y0108798D02*
X0054947Y0108798D01*
X0054947Y0109797D02*
X0055877Y0109797D01*
X0055877Y0110795D02*
X0054947Y0110795D01*
X0054947Y0111794D02*
X0055877Y0111794D01*
X0055877Y0112792D02*
X0054947Y0112792D01*
X0054947Y0113791D02*
X0055877Y0113791D01*
X0055877Y0114789D02*
X0054947Y0114789D01*
X0054947Y0115788D02*
X0055877Y0115788D01*
X0055877Y0116787D02*
X0054947Y0116787D01*
X0054947Y0117785D02*
X0055877Y0117785D01*
X0055877Y0118784D02*
X0054947Y0118784D01*
X0054947Y0119782D02*
X0055877Y0119782D01*
X0055877Y0120781D02*
X0054947Y0120781D01*
X0054947Y0121779D02*
X0055877Y0121779D01*
X0055877Y0122778D02*
X0054947Y0122778D01*
X0054947Y0123776D02*
X0055877Y0123776D01*
X0055877Y0124775D02*
X0054947Y0124775D01*
X0054947Y0125773D02*
X0055877Y0125773D01*
X0055877Y0126772D02*
X0054947Y0126772D01*
X0054947Y0127770D02*
X0055877Y0127770D01*
X0051547Y0127770D02*
X0043923Y0127770D01*
X0043923Y0126772D02*
X0051547Y0126772D01*
X0051547Y0125773D02*
X0043923Y0125773D01*
X0043923Y0124775D02*
X0051547Y0124775D01*
X0051547Y0123776D02*
X0043923Y0123776D01*
X0043923Y0122778D02*
X0051547Y0122778D01*
X0051547Y0121779D02*
X0043923Y0121779D01*
X0043923Y0120781D02*
X0051547Y0120781D01*
X0051547Y0119782D02*
X0043923Y0119782D01*
X0043923Y0118784D02*
X0051547Y0118784D01*
X0051547Y0117785D02*
X0043923Y0117785D01*
X0043923Y0116787D02*
X0051547Y0116787D01*
X0051547Y0115788D02*
X0043923Y0115788D01*
X0043923Y0114789D02*
X0051547Y0114789D01*
X0051547Y0113791D02*
X0043923Y0113791D01*
X0043923Y0112792D02*
X0051547Y0112792D01*
X0051547Y0111794D02*
X0043923Y0111794D01*
X0044157Y0110795D02*
X0051547Y0110795D01*
X0051547Y0109797D02*
X0045156Y0109797D01*
X0040523Y0111477D02*
X0040171Y0111829D01*
X0039513Y0111829D01*
X0040411Y0112728D01*
X0040523Y0112997D01*
X0040523Y0111477D01*
X0040523Y0111794D02*
X0040206Y0111794D01*
X0040438Y0112792D02*
X0040523Y0112792D01*
X0040523Y0117103D02*
X0040411Y0117372D01*
X0039258Y0118526D01*
X0037751Y0119150D01*
X0036120Y0119150D01*
X0034613Y0118526D01*
X0033460Y0117372D01*
X0032836Y0115866D01*
X0032836Y0114234D01*
X0033460Y0112728D01*
X0034359Y0111829D01*
X0031561Y0111829D01*
X0029778Y0113612D01*
X0030036Y0114234D01*
X0030036Y0115866D01*
X0029411Y0117372D01*
X0028258Y0118526D01*
X0026908Y0119085D01*
X0026908Y0120950D01*
X0027751Y0120950D01*
X0029258Y0121574D01*
X0030411Y0122728D01*
X0031036Y0124234D01*
X0031036Y0125866D01*
X0030411Y0127372D01*
X0029258Y0128526D01*
X0027751Y0129150D01*
X0026908Y0129150D01*
X0026908Y0131015D01*
X0028258Y0131574D01*
X0029411Y0132728D01*
X0030036Y0134234D01*
X0030036Y0135866D01*
X0029411Y0137372D01*
X0028258Y0138526D01*
X0026908Y0139085D01*
X0026908Y0140950D01*
X0027751Y0140950D01*
X0029258Y0141574D01*
X0030411Y0142728D01*
X0031036Y0144234D01*
X0031036Y0145866D01*
X0030411Y0147372D01*
X0029258Y0148526D01*
X0027751Y0149150D01*
X0026908Y0149150D01*
X0026908Y0151015D01*
X0028258Y0151574D01*
X0029411Y0152728D01*
X0030036Y0154234D01*
X0030036Y0155866D01*
X0029411Y0157372D01*
X0028258Y0158526D01*
X0026908Y0159085D01*
X0026908Y0160950D01*
X0027751Y0160950D01*
X0029258Y0161574D01*
X0030411Y0162728D01*
X0031036Y0164234D01*
X0031036Y0165866D01*
X0030411Y0167372D01*
X0029258Y0168526D01*
X0027751Y0169150D01*
X0026908Y0169150D01*
X0026908Y0171015D01*
X0026948Y0171031D01*
X0029314Y0168665D01*
X0033949Y0168665D01*
X0033613Y0168526D01*
X0032460Y0167372D01*
X0031836Y0165866D01*
X0031836Y0164234D01*
X0032460Y0162728D01*
X0033613Y0161574D01*
X0035120Y0160950D01*
X0036751Y0160950D01*
X0038258Y0161574D01*
X0039411Y0162728D01*
X0040036Y0164234D01*
X0040036Y0165866D01*
X0039411Y0167372D01*
X0038258Y0168526D01*
X0038072Y0168603D01*
X0038158Y0168594D01*
X0039355Y0168043D01*
X0040212Y0167043D01*
X0040573Y0165775D01*
X0040565Y0165600D01*
X0040523Y0165557D01*
X0040523Y0164984D01*
X0040435Y0164417D01*
X0040523Y0164297D01*
X0040523Y0157103D01*
X0040411Y0157372D01*
X0039258Y0158526D01*
X0037751Y0159150D01*
X0036120Y0159150D01*
X0034613Y0158526D01*
X0033460Y0157372D01*
X0032836Y0155866D01*
X0032836Y0154234D01*
X0033460Y0152728D01*
X0034613Y0151574D01*
X0036120Y0150950D01*
X0037751Y0150950D01*
X0039258Y0151574D01*
X0040411Y0152728D01*
X0040523Y0152997D01*
X0040523Y0137103D01*
X0040411Y0137372D01*
X0039258Y0138526D01*
X0037751Y0139150D01*
X0036120Y0139150D01*
X0034613Y0138526D01*
X0033460Y0137372D01*
X0032836Y0135866D01*
X0032836Y0134234D01*
X0033460Y0132728D01*
X0034613Y0131574D01*
X0036120Y0130950D01*
X0037751Y0130950D01*
X0039258Y0131574D01*
X0040411Y0132728D01*
X0040523Y0132997D01*
X0040523Y0117103D01*
X0040523Y0117785D02*
X0039999Y0117785D01*
X0040523Y0118784D02*
X0038636Y0118784D01*
X0040523Y0119782D02*
X0026908Y0119782D01*
X0026908Y0120781D02*
X0040523Y0120781D01*
X0040523Y0121779D02*
X0038463Y0121779D01*
X0038258Y0121574D02*
X0039411Y0122728D01*
X0040036Y0124234D01*
X0040036Y0125866D01*
X0039411Y0127372D01*
X0038258Y0128526D01*
X0036751Y0129150D01*
X0035120Y0129150D01*
X0033613Y0128526D01*
X0032460Y0127372D01*
X0031836Y0125866D01*
X0031836Y0124234D01*
X0032460Y0122728D01*
X0033613Y0121574D01*
X0035120Y0120950D01*
X0036751Y0120950D01*
X0038258Y0121574D01*
X0039432Y0122778D02*
X0040523Y0122778D01*
X0040523Y0123776D02*
X0039846Y0123776D01*
X0040036Y0124775D02*
X0040523Y0124775D01*
X0040523Y0125773D02*
X0040036Y0125773D01*
X0039660Y0126772D02*
X0040523Y0126772D01*
X0040523Y0127770D02*
X0039014Y0127770D01*
X0037672Y0128769D02*
X0040523Y0128769D01*
X0040523Y0129767D02*
X0026908Y0129767D01*
X0026908Y0130766D02*
X0040523Y0130766D01*
X0040523Y0131764D02*
X0039448Y0131764D01*
X0040426Y0132763D02*
X0040523Y0132763D01*
X0043923Y0131764D02*
X0043992Y0131764D01*
X0043923Y0130766D02*
X0050769Y0130766D01*
X0050769Y0129767D02*
X0043923Y0129767D01*
X0043923Y0128769D02*
X0050769Y0128769D01*
X0048392Y0131764D02*
X0047392Y0131764D01*
X0047392Y0132763D02*
X0048392Y0132763D01*
X0048392Y0133761D02*
X0047392Y0133761D01*
X0048392Y0134760D02*
X0050769Y0134760D01*
X0048392Y0135758D02*
X0047392Y0135758D01*
X0047392Y0136757D02*
X0048392Y0136757D01*
X0048392Y0137755D02*
X0047392Y0137755D01*
X0047392Y0138754D02*
X0048392Y0138754D01*
X0044142Y0138754D02*
X0043923Y0138754D01*
X0043923Y0139752D02*
X0076670Y0139752D01*
X0076144Y0140751D02*
X0043923Y0140751D01*
X0043923Y0141749D02*
X0076144Y0141749D01*
X0076708Y0142748D02*
X0043923Y0142748D01*
X0043923Y0143746D02*
X0081862Y0143746D01*
X0081862Y0142748D02*
X0080180Y0142748D01*
X0080744Y0141749D02*
X0081862Y0141749D01*
X0081862Y0140751D02*
X0080744Y0140751D01*
X0080217Y0139752D02*
X0081862Y0139752D01*
X0081862Y0138754D02*
X0080144Y0138754D01*
X0080144Y0137755D02*
X0081862Y0137755D01*
X0081862Y0136757D02*
X0080144Y0136757D01*
X0080144Y0135758D02*
X0081862Y0135758D01*
X0085262Y0135758D02*
X0086586Y0135758D01*
X0086586Y0135559D02*
X0086059Y0135559D01*
X0085727Y0135228D01*
X0085395Y0135559D01*
X0085262Y0135559D01*
X0085262Y0150203D01*
X0084266Y0151199D01*
X0083478Y0151986D01*
X0074878Y0151986D01*
X0074735Y0152130D01*
X0086586Y0152130D01*
X0086586Y0135559D01*
X0086586Y0136757D02*
X0085262Y0136757D01*
X0085262Y0137755D02*
X0086586Y0137755D01*
X0086586Y0138754D02*
X0085262Y0138754D01*
X0085262Y0139752D02*
X0086586Y0139752D01*
X0086586Y0140751D02*
X0085262Y0140751D01*
X0085262Y0141749D02*
X0086586Y0141749D01*
X0086586Y0142748D02*
X0085262Y0142748D01*
X0085262Y0143746D02*
X0086586Y0143746D01*
X0086586Y0144745D02*
X0085262Y0144745D01*
X0085262Y0145743D02*
X0086586Y0145743D01*
X0086586Y0146742D02*
X0085262Y0146742D01*
X0085262Y0147740D02*
X0086586Y0147740D01*
X0086586Y0148739D02*
X0085262Y0148739D01*
X0085262Y0149737D02*
X0086586Y0149737D01*
X0086586Y0150736D02*
X0084729Y0150736D01*
X0083730Y0151734D02*
X0086586Y0151734D01*
X0089986Y0151734D02*
X0161216Y0151734D01*
X0160217Y0150736D02*
X0089986Y0150736D01*
X0089986Y0149737D02*
X0159219Y0149737D01*
X0158448Y0148967D02*
X0158448Y0148967D01*
X0157740Y0148258D01*
X0156562Y0149437D01*
X0154656Y0149437D01*
X0153309Y0148089D01*
X0153309Y0146184D01*
X0153909Y0145584D01*
X0153909Y0108754D01*
X0153709Y0108554D01*
X0153709Y0106980D01*
X0154490Y0106198D01*
X0154490Y0105633D01*
X0155090Y0105033D01*
X0155090Y0032154D01*
X0154490Y0031554D01*
X0154490Y0029648D01*
X0155837Y0028301D01*
X0157743Y0028301D01*
X0159090Y0029648D01*
X0159090Y0031554D01*
X0158490Y0032154D01*
X0158490Y0105033D01*
X0159090Y0105633D01*
X0159090Y0107538D01*
X0158406Y0108222D01*
X0160105Y0108222D01*
X0161452Y0109570D01*
X0161452Y0111475D01*
X0160852Y0112075D01*
X0160852Y0146562D01*
X0165498Y0151208D01*
X0166120Y0150950D01*
X0167751Y0150950D01*
X0169258Y0151574D01*
X0170411Y0152728D01*
X0171036Y0154234D01*
X0171036Y0155866D01*
X0170411Y0157372D01*
X0169258Y0158526D01*
X0167751Y0159150D01*
X0166120Y0159150D01*
X0164613Y0158526D01*
X0163460Y0157372D01*
X0162836Y0155866D01*
X0162836Y0154234D01*
X0163094Y0153612D01*
X0158448Y0148967D01*
X0158220Y0148739D02*
X0157259Y0148739D01*
X0157452Y0145727D02*
X0157309Y0145584D01*
X0157309Y0111932D01*
X0157452Y0112075D01*
X0157452Y0145727D01*
X0157452Y0144745D02*
X0157309Y0144745D01*
X0157309Y0143746D02*
X0157452Y0143746D01*
X0157452Y0142748D02*
X0157309Y0142748D01*
X0157309Y0141749D02*
X0157452Y0141749D01*
X0157452Y0140751D02*
X0157309Y0140751D01*
X0157309Y0139752D02*
X0157452Y0139752D01*
X0157452Y0138754D02*
X0157309Y0138754D01*
X0157309Y0137755D02*
X0157452Y0137755D01*
X0157452Y0136757D02*
X0157309Y0136757D01*
X0157309Y0135758D02*
X0157452Y0135758D01*
X0157452Y0134760D02*
X0157309Y0134760D01*
X0157309Y0133761D02*
X0157452Y0133761D01*
X0157452Y0132763D02*
X0157309Y0132763D01*
X0157309Y0131764D02*
X0157452Y0131764D01*
X0157452Y0130766D02*
X0157309Y0130766D01*
X0157309Y0129767D02*
X0157452Y0129767D01*
X0157452Y0128769D02*
X0157309Y0128769D01*
X0157309Y0127770D02*
X0157452Y0127770D01*
X0157452Y0126772D02*
X0157309Y0126772D01*
X0157309Y0125773D02*
X0157452Y0125773D01*
X0157452Y0124775D02*
X0157309Y0124775D01*
X0157309Y0123776D02*
X0157452Y0123776D01*
X0157452Y0122778D02*
X0157309Y0122778D01*
X0157309Y0121779D02*
X0157452Y0121779D01*
X0157452Y0120781D02*
X0157309Y0120781D01*
X0157309Y0119782D02*
X0157452Y0119782D01*
X0157452Y0118784D02*
X0157309Y0118784D01*
X0157309Y0117785D02*
X0157452Y0117785D01*
X0157452Y0116787D02*
X0157309Y0116787D01*
X0157309Y0115788D02*
X0157452Y0115788D01*
X0157452Y0114789D02*
X0157309Y0114789D01*
X0157309Y0113791D02*
X0157452Y0113791D01*
X0157452Y0112792D02*
X0157309Y0112792D01*
X0157309Y0109113D02*
X0157537Y0108885D01*
X0157309Y0108885D01*
X0157309Y0109113D01*
X0158828Y0107800D02*
X0162887Y0107800D01*
X0162460Y0107372D02*
X0161836Y0105866D01*
X0161836Y0104234D01*
X0162460Y0102728D01*
X0163613Y0101574D01*
X0165120Y0100950D01*
X0166751Y0100950D01*
X0168258Y0101574D01*
X0169411Y0102728D01*
X0170036Y0104234D01*
X0170036Y0105866D01*
X0169411Y0107372D01*
X0168258Y0108526D01*
X0166751Y0109150D01*
X0165120Y0109150D01*
X0163613Y0108526D01*
X0162460Y0107372D01*
X0162223Y0106801D02*
X0159090Y0106801D01*
X0159090Y0105803D02*
X0161836Y0105803D01*
X0161836Y0104804D02*
X0158490Y0104804D01*
X0158490Y0103806D02*
X0162013Y0103806D01*
X0162427Y0102807D02*
X0158490Y0102807D01*
X0158490Y0101809D02*
X0163379Y0101809D01*
X0164577Y0098899D02*
X0164004Y0098482D01*
X0163503Y0097982D01*
X0163087Y0097409D01*
X0162765Y0096777D01*
X0162546Y0096104D01*
X0162459Y0095550D01*
X0166436Y0095550D01*
X0166436Y0099527D01*
X0165882Y0099439D01*
X0165208Y0099220D01*
X0164577Y0098899D01*
X0164460Y0098813D02*
X0158490Y0098813D01*
X0158490Y0097815D02*
X0163382Y0097815D01*
X0162785Y0096816D02*
X0158490Y0096816D01*
X0158490Y0095818D02*
X0162501Y0095818D01*
X0162459Y0094550D02*
X0162546Y0093996D01*
X0162765Y0093323D01*
X0163087Y0092691D01*
X0163503Y0092118D01*
X0164004Y0091618D01*
X0164577Y0091201D01*
X0165208Y0090880D01*
X0165882Y0090661D01*
X0166436Y0090573D01*
X0166436Y0094550D01*
X0167436Y0094550D01*
X0167436Y0095550D01*
X0171413Y0095550D01*
X0171325Y0096104D01*
X0171106Y0096777D01*
X0170784Y0097409D01*
X0170368Y0097982D01*
X0169867Y0098482D01*
X0169294Y0098899D01*
X0168663Y0099220D01*
X0167989Y0099439D01*
X0167436Y0099527D01*
X0167436Y0095550D01*
X0166436Y0095550D01*
X0166436Y0094550D01*
X0162459Y0094550D01*
X0162604Y0093821D02*
X0158490Y0093821D01*
X0158490Y0094819D02*
X0166436Y0094819D01*
X0166436Y0093821D02*
X0167436Y0093821D01*
X0167436Y0094550D02*
X0167436Y0090573D01*
X0167989Y0090661D01*
X0168663Y0090880D01*
X0169294Y0091201D01*
X0169867Y0091618D01*
X0170368Y0092118D01*
X0170784Y0092691D01*
X0171106Y0093323D01*
X0171325Y0093996D01*
X0171413Y0094550D01*
X0167436Y0094550D01*
X0167436Y0094819D02*
X0175436Y0094819D01*
X0175436Y0094550D02*
X0171459Y0094550D01*
X0171546Y0093996D01*
X0171765Y0093323D01*
X0172087Y0092691D01*
X0172503Y0092118D01*
X0173004Y0091618D01*
X0173577Y0091201D01*
X0174208Y0090880D01*
X0174882Y0090661D01*
X0175436Y0090573D01*
X0175436Y0094550D01*
X0175436Y0093821D02*
X0176436Y0093821D01*
X0176436Y0092822D02*
X0175436Y0092822D01*
X0175436Y0091824D02*
X0176436Y0091824D01*
X0176436Y0090825D02*
X0175436Y0090825D01*
X0174376Y0090825D02*
X0168495Y0090825D01*
X0167436Y0090825D02*
X0166436Y0090825D01*
X0166436Y0091824D02*
X0167436Y0091824D01*
X0167436Y0092822D02*
X0166436Y0092822D01*
X0165376Y0090825D02*
X0158490Y0090825D01*
X0158490Y0089827D02*
X0176908Y0089827D01*
X0175343Y0088828D02*
X0167528Y0088828D01*
X0168258Y0088526D02*
X0166751Y0089150D01*
X0165120Y0089150D01*
X0163613Y0088526D01*
X0162460Y0087372D01*
X0161836Y0085866D01*
X0161836Y0084234D01*
X0162460Y0082728D01*
X0163613Y0081574D01*
X0165120Y0080950D01*
X0166751Y0080950D01*
X0168258Y0081574D01*
X0169411Y0082728D01*
X0170036Y0084234D01*
X0170036Y0085866D01*
X0169411Y0087372D01*
X0168258Y0088526D01*
X0168954Y0087830D02*
X0173917Y0087830D01*
X0173236Y0086831D02*
X0169636Y0086831D01*
X0170036Y0085833D02*
X0172836Y0085833D01*
X0172836Y0084834D02*
X0170036Y0084834D01*
X0169870Y0083836D02*
X0173001Y0083836D01*
X0173414Y0082837D02*
X0169457Y0082837D01*
X0168523Y0081839D02*
X0174349Y0081839D01*
X0176908Y0080840D02*
X0158490Y0080840D01*
X0158490Y0079842D02*
X0176908Y0079842D01*
X0174379Y0078843D02*
X0168492Y0078843D01*
X0167751Y0079150D02*
X0166120Y0079150D01*
X0164613Y0078526D01*
X0163460Y0077372D01*
X0162836Y0075866D01*
X0162836Y0074234D01*
X0163460Y0072728D01*
X0164613Y0071574D01*
X0166120Y0070950D01*
X0167751Y0070950D01*
X0169258Y0071574D01*
X0170411Y0072728D01*
X0171036Y0074234D01*
X0171036Y0075866D01*
X0170411Y0077372D01*
X0169258Y0078526D01*
X0167751Y0079150D01*
X0165379Y0078843D02*
X0158490Y0078843D01*
X0158490Y0077845D02*
X0163932Y0077845D01*
X0163242Y0076846D02*
X0158490Y0076846D01*
X0158490Y0075848D02*
X0162836Y0075848D01*
X0162836Y0074849D02*
X0158490Y0074849D01*
X0158490Y0073851D02*
X0162995Y0073851D01*
X0163408Y0072852D02*
X0158490Y0072852D01*
X0158490Y0071853D02*
X0164334Y0071853D01*
X0165120Y0069150D02*
X0163613Y0068526D01*
X0162460Y0067372D01*
X0161836Y0065866D01*
X0161836Y0064234D01*
X0162460Y0062728D01*
X0163613Y0061574D01*
X0165120Y0060950D01*
X0166751Y0060950D01*
X0168258Y0061574D01*
X0169411Y0062728D01*
X0170036Y0064234D01*
X0170036Y0065866D01*
X0169411Y0067372D01*
X0168258Y0068526D01*
X0166751Y0069150D01*
X0165120Y0069150D01*
X0164415Y0068858D02*
X0158490Y0068858D01*
X0158490Y0069856D02*
X0176908Y0069856D01*
X0176908Y0070855D02*
X0158490Y0070855D01*
X0158490Y0067859D02*
X0162947Y0067859D01*
X0162248Y0066861D02*
X0158490Y0066861D01*
X0158490Y0065862D02*
X0161836Y0065862D01*
X0161836Y0064864D02*
X0158490Y0064864D01*
X0158490Y0063865D02*
X0161989Y0063865D01*
X0162402Y0062867D02*
X0158490Y0062867D01*
X0158490Y0061868D02*
X0163319Y0061868D01*
X0164613Y0058526D02*
X0163460Y0057372D01*
X0162836Y0055866D01*
X0162836Y0054234D01*
X0163460Y0052728D01*
X0164613Y0051574D01*
X0166120Y0050950D01*
X0167751Y0050950D01*
X0169258Y0051574D01*
X0170411Y0052728D01*
X0171036Y0054234D01*
X0171036Y0055866D01*
X0170411Y0057372D01*
X0169258Y0058526D01*
X0167751Y0059150D01*
X0166120Y0059150D01*
X0164613Y0058526D01*
X0165451Y0058873D02*
X0158490Y0058873D01*
X0158490Y0059871D02*
X0176908Y0059871D01*
X0176908Y0060870D02*
X0158490Y0060870D01*
X0158490Y0057874D02*
X0163962Y0057874D01*
X0163254Y0056876D02*
X0158490Y0056876D01*
X0158490Y0055877D02*
X0162841Y0055877D01*
X0162836Y0054879D02*
X0158490Y0054879D01*
X0158490Y0053880D02*
X0162982Y0053880D01*
X0163396Y0052882D02*
X0158490Y0052882D01*
X0158490Y0051883D02*
X0164304Y0051883D01*
X0165120Y0049150D02*
X0163613Y0048526D01*
X0162460Y0047372D01*
X0161836Y0045866D01*
X0161836Y0044234D01*
X0162460Y0042728D01*
X0163613Y0041574D01*
X0165120Y0040950D01*
X0166751Y0040950D01*
X0168258Y0041574D01*
X0169411Y0042728D01*
X0170036Y0044234D01*
X0170036Y0045866D01*
X0169411Y0047372D01*
X0168258Y0048526D01*
X0166751Y0049150D01*
X0165120Y0049150D01*
X0164487Y0048888D02*
X0158490Y0048888D01*
X0158490Y0049886D02*
X0176908Y0049886D01*
X0176908Y0050885D02*
X0158490Y0050885D01*
X0158490Y0047889D02*
X0162977Y0047889D01*
X0162260Y0046891D02*
X0158490Y0046891D01*
X0158490Y0045892D02*
X0161847Y0045892D01*
X0161836Y0044894D02*
X0158490Y0044894D01*
X0158490Y0043895D02*
X0161976Y0043895D01*
X0162390Y0042897D02*
X0158490Y0042897D01*
X0158490Y0041898D02*
X0163289Y0041898D01*
X0164613Y0038526D02*
X0166120Y0039150D01*
X0167751Y0039150D01*
X0169258Y0038526D01*
X0170411Y0037372D01*
X0171036Y0035866D01*
X0171036Y0034234D01*
X0170411Y0032728D01*
X0169258Y0031574D01*
X0167751Y0030950D01*
X0166120Y0030950D01*
X0164613Y0031574D01*
X0163460Y0032728D01*
X0162836Y0034234D01*
X0162836Y0035866D01*
X0163460Y0037372D01*
X0164613Y0038526D01*
X0163992Y0037904D02*
X0158490Y0037904D01*
X0158490Y0036906D02*
X0163267Y0036906D01*
X0162853Y0035907D02*
X0158490Y0035907D01*
X0158490Y0034909D02*
X0162836Y0034909D01*
X0162970Y0033910D02*
X0158490Y0033910D01*
X0158490Y0032912D02*
X0163384Y0032912D01*
X0164274Y0031913D02*
X0158731Y0031913D01*
X0159090Y0030915D02*
X0176908Y0030915D01*
X0176908Y0029916D02*
X0159090Y0029916D01*
X0158359Y0028918D02*
X0164559Y0028918D01*
X0165120Y0029150D02*
X0163613Y0028526D01*
X0162460Y0027372D01*
X0161836Y0025866D01*
X0161836Y0024234D01*
X0162460Y0022728D01*
X0163613Y0021574D01*
X0165120Y0020950D01*
X0166751Y0020950D01*
X0168258Y0021574D01*
X0169411Y0022728D01*
X0170036Y0024234D01*
X0170036Y0025866D01*
X0169411Y0027372D01*
X0168258Y0028526D01*
X0166751Y0029150D01*
X0165120Y0029150D01*
X0167312Y0028918D02*
X0175559Y0028918D01*
X0174006Y0027919D02*
X0168865Y0027919D01*
X0169599Y0026920D02*
X0173273Y0026920D01*
X0172859Y0025922D02*
X0170012Y0025922D01*
X0170036Y0024923D02*
X0172836Y0024923D01*
X0172964Y0023925D02*
X0169907Y0023925D01*
X0169494Y0022926D02*
X0173377Y0022926D01*
X0174259Y0021928D02*
X0168612Y0021928D01*
X0167751Y0019150D02*
X0166120Y0019150D01*
X0164613Y0018526D01*
X0163460Y0017372D01*
X0162836Y0015866D01*
X0162836Y0014234D01*
X0163460Y0012728D01*
X0164613Y0011574D01*
X0166120Y0010950D01*
X0167751Y0010950D01*
X0169258Y0011574D01*
X0170411Y0012728D01*
X0171036Y0014234D01*
X0171036Y0015866D01*
X0170411Y0017372D01*
X0169258Y0018526D01*
X0167751Y0019150D01*
X0168277Y0018932D02*
X0174595Y0018932D01*
X0173021Y0017934D02*
X0169850Y0017934D01*
X0170593Y0016935D02*
X0172279Y0016935D01*
X0171865Y0015937D02*
X0171006Y0015937D01*
X0171036Y0014938D02*
X0171836Y0014938D01*
X0171958Y0013940D02*
X0170914Y0013940D01*
X0170500Y0012941D02*
X0172371Y0012941D01*
X0173245Y0011943D02*
X0169627Y0011943D01*
X0168199Y0008947D02*
X0174672Y0008947D01*
X0173479Y0007949D02*
X0169392Y0007949D01*
X0170018Y0006950D02*
X0172853Y0006950D01*
X0176436Y0006950D02*
X0176908Y0006950D01*
X0176908Y0007949D02*
X0176436Y0007949D01*
X0176436Y0008947D02*
X0176908Y0008947D01*
X0176908Y0009946D02*
X0026908Y0009946D01*
X0026908Y0010944D02*
X0176908Y0010944D01*
X0176908Y0019931D02*
X0026908Y0019931D01*
X0026908Y0020929D02*
X0176908Y0020929D01*
X0173274Y0031913D02*
X0169597Y0031913D01*
X0170488Y0032912D02*
X0172384Y0032912D01*
X0171970Y0033910D02*
X0170901Y0033910D01*
X0171036Y0034909D02*
X0171836Y0034909D01*
X0171853Y0035907D02*
X0171018Y0035907D01*
X0170605Y0036906D02*
X0172267Y0036906D01*
X0172992Y0037904D02*
X0169880Y0037904D01*
X0168348Y0038903D02*
X0174523Y0038903D01*
X0176908Y0039901D02*
X0158490Y0039901D01*
X0158490Y0038903D02*
X0165523Y0038903D01*
X0168582Y0041898D02*
X0174289Y0041898D01*
X0173390Y0042897D02*
X0169482Y0042897D01*
X0169895Y0043895D02*
X0172976Y0043895D01*
X0172836Y0044894D02*
X0170036Y0044894D01*
X0170025Y0045892D02*
X0172847Y0045892D01*
X0173260Y0046891D02*
X0169611Y0046891D01*
X0168895Y0047889D02*
X0173977Y0047889D01*
X0175487Y0048888D02*
X0167384Y0048888D01*
X0169567Y0051883D02*
X0173304Y0051883D01*
X0172396Y0052882D02*
X0170475Y0052882D01*
X0170889Y0053880D02*
X0171982Y0053880D01*
X0171836Y0054879D02*
X0171036Y0054879D01*
X0171031Y0055877D02*
X0171841Y0055877D01*
X0172254Y0056876D02*
X0170617Y0056876D01*
X0169910Y0057874D02*
X0172962Y0057874D01*
X0174451Y0058873D02*
X0168420Y0058873D01*
X0168552Y0061868D02*
X0174319Y0061868D01*
X0173402Y0062867D02*
X0169469Y0062867D01*
X0169883Y0063865D02*
X0172989Y0063865D01*
X0172836Y0064864D02*
X0170036Y0064864D01*
X0170036Y0065862D02*
X0172836Y0065862D01*
X0173248Y0066861D02*
X0169623Y0066861D01*
X0168924Y0067859D02*
X0173947Y0067859D01*
X0175415Y0068858D02*
X0167456Y0068858D01*
X0169537Y0071853D02*
X0173334Y0071853D01*
X0172408Y0072852D02*
X0170463Y0072852D01*
X0170877Y0073851D02*
X0171995Y0073851D01*
X0171836Y0074849D02*
X0171036Y0074849D01*
X0171036Y0075848D02*
X0171836Y0075848D01*
X0172242Y0076846D02*
X0170630Y0076846D01*
X0169939Y0077845D02*
X0172932Y0077845D01*
X0163349Y0081839D02*
X0158490Y0081839D01*
X0158490Y0082837D02*
X0162414Y0082837D01*
X0162001Y0083836D02*
X0158490Y0083836D01*
X0158490Y0084834D02*
X0161836Y0084834D01*
X0161836Y0085833D02*
X0158490Y0085833D01*
X0158490Y0086831D02*
X0162236Y0086831D01*
X0162917Y0087830D02*
X0158490Y0087830D01*
X0158490Y0088828D02*
X0164343Y0088828D01*
X0163798Y0091824D02*
X0158490Y0091824D01*
X0158490Y0092822D02*
X0163020Y0092822D01*
X0166436Y0095818D02*
X0167436Y0095818D01*
X0167436Y0096816D02*
X0166436Y0096816D01*
X0166436Y0097815D02*
X0167436Y0097815D01*
X0167436Y0098813D02*
X0166436Y0098813D01*
X0168493Y0101809D02*
X0174379Y0101809D01*
X0173427Y0102807D02*
X0169445Y0102807D01*
X0169858Y0103806D02*
X0173013Y0103806D01*
X0172836Y0104804D02*
X0170036Y0104804D01*
X0170036Y0105803D02*
X0172836Y0105803D01*
X0173223Y0106801D02*
X0169648Y0106801D01*
X0168984Y0107800D02*
X0173887Y0107800D01*
X0175271Y0108798D02*
X0167600Y0108798D01*
X0167751Y0110950D02*
X0166120Y0110950D01*
X0164613Y0111574D01*
X0163460Y0112728D01*
X0162836Y0114234D01*
X0162836Y0115866D01*
X0163460Y0117372D01*
X0164613Y0118526D01*
X0166120Y0119150D01*
X0167751Y0119150D01*
X0169258Y0118526D01*
X0170411Y0117372D01*
X0171036Y0115866D01*
X0171036Y0114234D01*
X0170411Y0112728D01*
X0169258Y0111574D01*
X0167751Y0110950D01*
X0169478Y0111794D02*
X0173393Y0111794D01*
X0172433Y0112792D02*
X0170438Y0112792D01*
X0170852Y0113791D02*
X0172019Y0113791D01*
X0171836Y0114789D02*
X0171036Y0114789D01*
X0171036Y0115788D02*
X0171836Y0115788D01*
X0172217Y0116787D02*
X0170654Y0116787D01*
X0169999Y0117785D02*
X0172872Y0117785D01*
X0174235Y0118784D02*
X0168636Y0118784D01*
X0168258Y0121574D02*
X0166751Y0120950D01*
X0165120Y0120950D01*
X0163613Y0121574D01*
X0162460Y0122728D01*
X0161836Y0124234D01*
X0161836Y0125866D01*
X0162460Y0127372D01*
X0163613Y0128526D01*
X0165120Y0129150D01*
X0166751Y0129150D01*
X0168258Y0128526D01*
X0169411Y0127372D01*
X0170036Y0125866D01*
X0170036Y0124234D01*
X0169411Y0122728D01*
X0168258Y0121574D01*
X0168463Y0121779D02*
X0174408Y0121779D01*
X0173439Y0122778D02*
X0169432Y0122778D01*
X0169846Y0123776D02*
X0173026Y0123776D01*
X0172836Y0124775D02*
X0170036Y0124775D01*
X0170036Y0125773D02*
X0172836Y0125773D01*
X0173211Y0126772D02*
X0169660Y0126772D01*
X0169014Y0127770D02*
X0173858Y0127770D01*
X0175199Y0128769D02*
X0167672Y0128769D01*
X0167751Y0130950D02*
X0166120Y0130950D01*
X0164613Y0131574D01*
X0163460Y0132728D01*
X0162836Y0134234D01*
X0162836Y0135866D01*
X0163460Y0137372D01*
X0164613Y0138526D01*
X0166120Y0139150D01*
X0167751Y0139150D01*
X0169258Y0138526D01*
X0170411Y0137372D01*
X0171036Y0135866D01*
X0171036Y0134234D01*
X0170411Y0132728D01*
X0169258Y0131574D01*
X0167751Y0130950D01*
X0169448Y0131764D02*
X0173423Y0131764D01*
X0172445Y0132763D02*
X0170426Y0132763D01*
X0170840Y0133761D02*
X0172032Y0133761D01*
X0171836Y0134760D02*
X0171036Y0134760D01*
X0171036Y0135758D02*
X0171836Y0135758D01*
X0172205Y0136757D02*
X0170667Y0136757D01*
X0170029Y0137755D02*
X0172843Y0137755D01*
X0174164Y0138754D02*
X0168708Y0138754D01*
X0168258Y0141574D02*
X0166751Y0140950D01*
X0165120Y0140950D01*
X0163613Y0141574D01*
X0162460Y0142728D01*
X0161836Y0144234D01*
X0161836Y0145866D01*
X0162460Y0147372D01*
X0163613Y0148526D01*
X0165120Y0149150D01*
X0166751Y0149150D01*
X0168258Y0148526D01*
X0169411Y0147372D01*
X0170036Y0145866D01*
X0170036Y0144234D01*
X0169411Y0142728D01*
X0168258Y0141574D01*
X0168433Y0141749D02*
X0174438Y0141749D01*
X0173451Y0142748D02*
X0169420Y0142748D01*
X0169833Y0143746D02*
X0173038Y0143746D01*
X0172836Y0144745D02*
X0170036Y0144745D01*
X0170036Y0145743D02*
X0172836Y0145743D01*
X0173199Y0146742D02*
X0169673Y0146742D01*
X0169044Y0147740D02*
X0173828Y0147740D01*
X0175128Y0148739D02*
X0167744Y0148739D01*
X0169418Y0151734D02*
X0173453Y0151734D01*
X0172458Y0152733D02*
X0170414Y0152733D01*
X0170827Y0153731D02*
X0172044Y0153731D01*
X0171836Y0154730D02*
X0171036Y0154730D01*
X0171036Y0155728D02*
X0171836Y0155728D01*
X0172193Y0156727D02*
X0170679Y0156727D01*
X0170058Y0157725D02*
X0172813Y0157725D01*
X0174092Y0158724D02*
X0168780Y0158724D01*
X0168258Y0161574D02*
X0169411Y0162728D01*
X0170036Y0164234D01*
X0170036Y0165866D01*
X0169411Y0167372D01*
X0168258Y0168526D01*
X0166751Y0169150D01*
X0165120Y0169150D01*
X0163613Y0168526D01*
X0162460Y0167372D01*
X0161836Y0165866D01*
X0161836Y0164234D01*
X0162460Y0162728D01*
X0163613Y0161574D01*
X0165120Y0160950D01*
X0166751Y0160950D01*
X0168258Y0161574D01*
X0168403Y0161720D02*
X0174468Y0161720D01*
X0173469Y0162718D02*
X0169402Y0162718D01*
X0169821Y0163717D02*
X0173050Y0163717D01*
X0172836Y0164715D02*
X0170036Y0164715D01*
X0170036Y0165714D02*
X0172836Y0165714D01*
X0173186Y0166712D02*
X0169685Y0166712D01*
X0169073Y0167711D02*
X0173798Y0167711D01*
X0175056Y0168709D02*
X0167816Y0168709D01*
X0167751Y0170950D02*
X0166120Y0170950D01*
X0164613Y0171574D01*
X0163460Y0172728D01*
X0162836Y0174234D01*
X0162836Y0175866D01*
X0163460Y0177372D01*
X0164613Y0178526D01*
X0166120Y0179150D01*
X0167751Y0179150D01*
X0169258Y0178526D01*
X0170411Y0177372D01*
X0171036Y0175866D01*
X0171036Y0174234D01*
X0170411Y0172728D01*
X0169258Y0171574D01*
X0167751Y0170950D01*
X0169389Y0171705D02*
X0173483Y0171705D01*
X0172484Y0172703D02*
X0170387Y0172703D01*
X0170815Y0173702D02*
X0172056Y0173702D01*
X0171836Y0174700D02*
X0171036Y0174700D01*
X0171036Y0175699D02*
X0171836Y0175699D01*
X0172180Y0176697D02*
X0170691Y0176697D01*
X0170088Y0177696D02*
X0172783Y0177696D01*
X0174020Y0178694D02*
X0168852Y0178694D01*
X0168258Y0181574D02*
X0169411Y0182728D01*
X0170036Y0184234D01*
X0170036Y0185866D01*
X0169411Y0187372D01*
X0168258Y0188526D01*
X0166751Y0189150D01*
X0165120Y0189150D01*
X0163613Y0188526D01*
X0162460Y0187372D01*
X0161836Y0185866D01*
X0161836Y0184234D01*
X0162460Y0182728D01*
X0163613Y0181574D01*
X0165120Y0180950D01*
X0166751Y0180950D01*
X0168258Y0181574D01*
X0168374Y0181690D02*
X0174498Y0181690D01*
X0173499Y0182688D02*
X0169372Y0182688D01*
X0169809Y0183687D02*
X0173063Y0183687D01*
X0172836Y0184685D02*
X0170036Y0184685D01*
X0170036Y0185684D02*
X0172836Y0185684D01*
X0173174Y0186682D02*
X0169697Y0186682D01*
X0169103Y0187681D02*
X0173768Y0187681D01*
X0174984Y0188679D02*
X0167888Y0188679D01*
X0167436Y0190550D02*
X0170133Y0190550D01*
X0170515Y0190652D01*
X0170857Y0190850D01*
X0171136Y0191129D01*
X0171333Y0191471D01*
X0171436Y0191853D01*
X0171436Y0194550D01*
X0167436Y0194550D01*
X0167436Y0190550D01*
X0167436Y0190676D02*
X0166436Y0190676D01*
X0166436Y0190550D02*
X0166436Y0194550D01*
X0162436Y0194550D01*
X0162436Y0191853D01*
X0162538Y0191471D01*
X0162735Y0191129D01*
X0163015Y0190850D01*
X0163357Y0190652D01*
X0163738Y0190550D01*
X0166436Y0190550D01*
X0166436Y0191675D02*
X0167436Y0191675D01*
X0167436Y0192673D02*
X0166436Y0192673D01*
X0166436Y0193672D02*
X0167436Y0193672D01*
X0167436Y0194670D02*
X0171836Y0194670D01*
X0171836Y0195669D02*
X0171436Y0195669D01*
X0171436Y0193672D02*
X0172069Y0193672D01*
X0172514Y0192673D02*
X0171436Y0192673D01*
X0171388Y0191675D02*
X0173513Y0191675D01*
X0170556Y0190676D02*
X0176908Y0190676D01*
X0176908Y0189678D02*
X0149562Y0189678D01*
X0150272Y0190676D02*
X0163315Y0190676D01*
X0162483Y0191675D02*
X0150679Y0191675D01*
X0150814Y0193672D02*
X0162436Y0193672D01*
X0162436Y0192673D02*
X0146463Y0192673D01*
X0146463Y0191675D02*
X0145463Y0191675D01*
X0145463Y0192673D02*
X0118904Y0192673D01*
X0118904Y0192503D02*
X0123282Y0192503D01*
X0123179Y0191856D01*
X0122941Y0191123D01*
X0122591Y0190437D01*
X0122138Y0189813D01*
X0121594Y0189269D01*
X0120970Y0188816D01*
X0120283Y0188466D01*
X0119551Y0188228D01*
X0118904Y0188125D01*
X0118904Y0192503D01*
X0118904Y0191675D02*
X0117904Y0191675D01*
X0117904Y0192673D02*
X0040357Y0192673D01*
X0040803Y0193672D02*
X0113553Y0193672D01*
X0113798Y0194670D02*
X0041036Y0194670D01*
X0041036Y0195669D02*
X0114290Y0195669D01*
X0113688Y0191675D02*
X0039359Y0191675D01*
X0038294Y0188899D02*
X0037663Y0189220D01*
X0036989Y0189439D01*
X0036436Y0189527D01*
X0036436Y0185550D01*
X0040413Y0185550D01*
X0040325Y0186104D01*
X0040106Y0186777D01*
X0039784Y0187409D01*
X0039368Y0187982D01*
X0038867Y0188482D01*
X0038294Y0188899D01*
X0038596Y0188679D02*
X0116106Y0188679D01*
X0114806Y0189678D02*
X0026908Y0189678D01*
X0028888Y0188679D02*
X0033275Y0188679D01*
X0033004Y0188482D02*
X0033577Y0188899D01*
X0034208Y0189220D01*
X0034882Y0189439D01*
X0035436Y0189527D01*
X0035436Y0185550D01*
X0036436Y0185550D01*
X0036436Y0184550D01*
X0040413Y0184550D01*
X0040325Y0183996D01*
X0040106Y0183323D01*
X0039784Y0182691D01*
X0039368Y0182118D01*
X0038867Y0181618D01*
X0038294Y0181201D01*
X0037663Y0180880D01*
X0036989Y0180661D01*
X0036436Y0180573D01*
X0036436Y0184550D01*
X0035436Y0184550D01*
X0035436Y0180573D01*
X0034882Y0180661D01*
X0034208Y0180880D01*
X0033577Y0181201D01*
X0033004Y0181618D01*
X0032503Y0182118D01*
X0032087Y0182691D01*
X0031765Y0183323D01*
X0031546Y0183996D01*
X0031459Y0184550D01*
X0035436Y0184550D01*
X0035436Y0185550D01*
X0031459Y0185550D01*
X0031546Y0186104D01*
X0031765Y0186777D01*
X0032087Y0187409D01*
X0032503Y0187982D01*
X0033004Y0188482D01*
X0032285Y0187681D02*
X0030103Y0187681D01*
X0030697Y0186682D02*
X0031734Y0186682D01*
X0031480Y0185684D02*
X0031036Y0185684D01*
X0031036Y0184685D02*
X0035436Y0184685D01*
X0035436Y0183687D02*
X0036436Y0183687D01*
X0036436Y0184685D02*
X0119269Y0184685D01*
X0119281Y0184713D02*
X0118731Y0183386D01*
X0118731Y0181950D01*
X0119281Y0180623D01*
X0120296Y0179608D01*
X0121623Y0179058D01*
X0123059Y0179058D01*
X0124386Y0179608D01*
X0125401Y0180623D01*
X0125951Y0181950D01*
X0125951Y0183386D01*
X0125401Y0184713D01*
X0124386Y0185728D01*
X0123059Y0186278D01*
X0121623Y0186278D01*
X0120296Y0185728D01*
X0119281Y0184713D01*
X0118856Y0183687D02*
X0040224Y0183687D01*
X0039782Y0182688D02*
X0118731Y0182688D01*
X0118839Y0181690D02*
X0038939Y0181690D01*
X0037083Y0180691D02*
X0119253Y0180691D01*
X0120212Y0179693D02*
X0026908Y0179693D01*
X0026908Y0180691D02*
X0034788Y0180691D01*
X0035436Y0180691D02*
X0036436Y0180691D01*
X0036436Y0181690D02*
X0035436Y0181690D01*
X0035436Y0182688D02*
X0036436Y0182688D01*
X0036436Y0185684D02*
X0035436Y0185684D01*
X0035436Y0186682D02*
X0036436Y0186682D01*
X0036436Y0187681D02*
X0035436Y0187681D01*
X0035436Y0188679D02*
X0036436Y0188679D01*
X0039587Y0187681D02*
X0162768Y0187681D01*
X0162174Y0186682D02*
X0040137Y0186682D01*
X0040391Y0185684D02*
X0120252Y0185684D01*
X0120703Y0188679D02*
X0143665Y0188679D01*
X0142365Y0189678D02*
X0122003Y0189678D01*
X0122713Y0190676D02*
X0141654Y0190676D01*
X0141247Y0191675D02*
X0123120Y0191675D01*
X0123255Y0193672D02*
X0141113Y0193672D01*
X0141357Y0194670D02*
X0123010Y0194670D01*
X0122518Y0195669D02*
X0141849Y0195669D01*
X0145463Y0190676D02*
X0146463Y0190676D01*
X0146463Y0189678D02*
X0145463Y0189678D01*
X0145463Y0188679D02*
X0146463Y0188679D01*
X0148262Y0188679D02*
X0163984Y0188679D01*
X0161836Y0185684D02*
X0144116Y0185684D01*
X0144071Y0185728D02*
X0142744Y0186278D01*
X0141308Y0186278D01*
X0139981Y0185728D01*
X0138966Y0184713D01*
X0138416Y0183386D01*
X0138416Y0181950D01*
X0138966Y0180623D01*
X0139981Y0179608D01*
X0141308Y0179058D01*
X0142744Y0179058D01*
X0144071Y0179608D01*
X0145087Y0180623D01*
X0145636Y0181950D01*
X0145636Y0183386D01*
X0145087Y0184713D01*
X0144071Y0185728D01*
X0145098Y0184685D02*
X0161836Y0184685D01*
X0162063Y0183687D02*
X0145512Y0183687D01*
X0145636Y0182688D02*
X0162499Y0182688D01*
X0163498Y0181690D02*
X0145528Y0181690D01*
X0145115Y0180691D02*
X0176908Y0180691D01*
X0176908Y0179693D02*
X0144156Y0179693D01*
X0139897Y0179693D02*
X0124471Y0179693D01*
X0125430Y0180691D02*
X0138938Y0180691D01*
X0138524Y0181690D02*
X0125843Y0181690D01*
X0125951Y0182688D02*
X0138416Y0182688D01*
X0138541Y0183687D02*
X0125827Y0183687D01*
X0125413Y0184685D02*
X0138955Y0184685D01*
X0139937Y0185684D02*
X0124431Y0185684D01*
X0118904Y0188679D02*
X0117904Y0188679D01*
X0117904Y0189678D02*
X0118904Y0189678D01*
X0118904Y0190676D02*
X0117904Y0190676D01*
X0114095Y0190676D02*
X0029556Y0190676D01*
X0030388Y0191675D02*
X0034513Y0191675D01*
X0033514Y0192673D02*
X0030436Y0192673D01*
X0030436Y0193672D02*
X0033069Y0193672D01*
X0032836Y0194670D02*
X0026908Y0194670D01*
X0030436Y0195669D02*
X0032836Y0195669D01*
X0031647Y0183687D02*
X0030809Y0183687D01*
X0030372Y0182688D02*
X0032089Y0182688D01*
X0032932Y0181690D02*
X0029374Y0181690D01*
X0027852Y0178694D02*
X0035020Y0178694D01*
X0033783Y0177696D02*
X0029088Y0177696D01*
X0029691Y0176697D02*
X0033180Y0176697D01*
X0032836Y0175699D02*
X0030036Y0175699D01*
X0030036Y0174700D02*
X0032836Y0174700D01*
X0033056Y0173702D02*
X0029815Y0173702D01*
X0030084Y0172703D02*
X0033484Y0172703D01*
X0032798Y0167711D02*
X0030073Y0167711D01*
X0030685Y0166712D02*
X0032186Y0166712D01*
X0031836Y0165714D02*
X0031036Y0165714D01*
X0031036Y0164715D02*
X0031836Y0164715D01*
X0032050Y0163717D02*
X0030821Y0163717D01*
X0030402Y0162718D02*
X0032469Y0162718D01*
X0033468Y0161720D02*
X0029403Y0161720D01*
X0027780Y0158724D02*
X0035092Y0158724D01*
X0033813Y0157725D02*
X0029058Y0157725D01*
X0029679Y0156727D02*
X0033193Y0156727D01*
X0032836Y0155728D02*
X0030036Y0155728D01*
X0030036Y0154730D02*
X0032836Y0154730D01*
X0033044Y0153731D02*
X0029827Y0153731D01*
X0029414Y0152733D02*
X0033458Y0152733D01*
X0034453Y0151734D02*
X0028418Y0151734D01*
X0026908Y0150736D02*
X0040523Y0150736D01*
X0040523Y0151734D02*
X0039418Y0151734D01*
X0040414Y0152733D02*
X0040523Y0152733D01*
X0043923Y0152733D02*
X0066839Y0152733D01*
X0066695Y0153731D02*
X0043923Y0153731D01*
X0043923Y0154730D02*
X0066695Y0154730D01*
X0067641Y0155728D02*
X0043923Y0155728D01*
X0043923Y0156727D02*
X0163193Y0156727D01*
X0162836Y0155728D02*
X0070348Y0155728D01*
X0070152Y0151734D02*
X0071521Y0151734D01*
X0071025Y0150736D02*
X0043923Y0150736D01*
X0043923Y0151734D02*
X0067837Y0151734D01*
X0071025Y0149737D02*
X0043923Y0149737D01*
X0043923Y0148739D02*
X0071620Y0148739D01*
X0081862Y0147740D02*
X0043923Y0147740D01*
X0043923Y0146742D02*
X0081862Y0146742D01*
X0081862Y0145743D02*
X0043923Y0145743D01*
X0043923Y0144745D02*
X0081862Y0144745D01*
X0089986Y0144745D02*
X0153909Y0144745D01*
X0153909Y0143746D02*
X0089986Y0143746D01*
X0089986Y0142748D02*
X0153909Y0142748D01*
X0153909Y0141749D02*
X0150076Y0141749D01*
X0150429Y0141396D02*
X0149081Y0142744D01*
X0147176Y0142744D01*
X0145829Y0141396D01*
X0145829Y0139491D01*
X0146429Y0138891D01*
X0146429Y0116262D01*
X0145932Y0116759D01*
X0144026Y0116759D01*
X0142679Y0115412D01*
X0142679Y0113507D01*
X0143279Y0112907D01*
X0143279Y0027429D01*
X0142679Y0026829D01*
X0142679Y0024924D01*
X0144026Y0023577D01*
X0145932Y0023577D01*
X0147279Y0024924D01*
X0147279Y0026829D01*
X0146679Y0027429D01*
X0146679Y0048877D01*
X0147176Y0048380D01*
X0149081Y0048380D01*
X0150366Y0049664D01*
X0150366Y0046155D01*
X0150166Y0045955D01*
X0150166Y0045733D01*
X0150159Y0045727D01*
X0150159Y0043822D01*
X0151507Y0042474D01*
X0153412Y0042474D01*
X0154759Y0043822D01*
X0154759Y0045727D01*
X0153766Y0046721D01*
X0153766Y0097159D01*
X0154366Y0097759D01*
X0154366Y0099664D01*
X0153018Y0101011D01*
X0151113Y0101011D01*
X0150713Y0100611D01*
X0150097Y0100611D01*
X0149829Y0100880D01*
X0149829Y0138891D01*
X0150429Y0139491D01*
X0150429Y0141396D01*
X0150429Y0140751D02*
X0153909Y0140751D01*
X0153909Y0139752D02*
X0150429Y0139752D01*
X0149829Y0138754D02*
X0153909Y0138754D01*
X0153909Y0137755D02*
X0149829Y0137755D01*
X0149829Y0136757D02*
X0153909Y0136757D01*
X0153909Y0135758D02*
X0149829Y0135758D01*
X0149829Y0134760D02*
X0153909Y0134760D01*
X0153909Y0133761D02*
X0149829Y0133761D01*
X0149829Y0132763D02*
X0153909Y0132763D01*
X0153909Y0131764D02*
X0149829Y0131764D01*
X0149829Y0130766D02*
X0153909Y0130766D01*
X0153909Y0129767D02*
X0149829Y0129767D01*
X0149829Y0128769D02*
X0153909Y0128769D01*
X0153909Y0127770D02*
X0149829Y0127770D01*
X0149829Y0126772D02*
X0153909Y0126772D01*
X0153909Y0125773D02*
X0149829Y0125773D01*
X0149829Y0124775D02*
X0153909Y0124775D01*
X0153909Y0123776D02*
X0149829Y0123776D01*
X0149829Y0122778D02*
X0153909Y0122778D01*
X0153909Y0121779D02*
X0149829Y0121779D01*
X0149829Y0120781D02*
X0153909Y0120781D01*
X0153909Y0119782D02*
X0149829Y0119782D01*
X0149829Y0118784D02*
X0153909Y0118784D01*
X0153909Y0117785D02*
X0149829Y0117785D01*
X0149829Y0116787D02*
X0153909Y0116787D01*
X0153909Y0115788D02*
X0149829Y0115788D01*
X0149829Y0114789D02*
X0153909Y0114789D01*
X0153909Y0113791D02*
X0149829Y0113791D01*
X0149829Y0112792D02*
X0153909Y0112792D01*
X0153909Y0111794D02*
X0149829Y0111794D01*
X0149829Y0110795D02*
X0153909Y0110795D01*
X0153909Y0109797D02*
X0149829Y0109797D01*
X0149829Y0108798D02*
X0153909Y0108798D01*
X0153709Y0107800D02*
X0149829Y0107800D01*
X0149829Y0106801D02*
X0153887Y0106801D01*
X0154490Y0105803D02*
X0149829Y0105803D01*
X0149829Y0104804D02*
X0155090Y0104804D01*
X0155090Y0103806D02*
X0149829Y0103806D01*
X0149829Y0102807D02*
X0155090Y0102807D01*
X0155090Y0101809D02*
X0149829Y0101809D01*
X0149898Y0100810D02*
X0150912Y0100810D01*
X0153219Y0100810D02*
X0155090Y0100810D01*
X0155090Y0099812D02*
X0154218Y0099812D01*
X0154366Y0098813D02*
X0155090Y0098813D01*
X0155090Y0097815D02*
X0154366Y0097815D01*
X0153766Y0096816D02*
X0155090Y0096816D01*
X0155090Y0095818D02*
X0153766Y0095818D01*
X0153766Y0094819D02*
X0155090Y0094819D01*
X0155090Y0093821D02*
X0153766Y0093821D01*
X0153766Y0092822D02*
X0155090Y0092822D01*
X0155090Y0091824D02*
X0153766Y0091824D01*
X0153766Y0090825D02*
X0155090Y0090825D01*
X0155090Y0089827D02*
X0153766Y0089827D01*
X0153766Y0088828D02*
X0155090Y0088828D01*
X0155090Y0087830D02*
X0153766Y0087830D01*
X0153766Y0086831D02*
X0155090Y0086831D01*
X0155090Y0085833D02*
X0153766Y0085833D01*
X0153766Y0084834D02*
X0155090Y0084834D01*
X0155090Y0083836D02*
X0153766Y0083836D01*
X0153766Y0082837D02*
X0155090Y0082837D01*
X0155090Y0081839D02*
X0153766Y0081839D01*
X0153766Y0080840D02*
X0155090Y0080840D01*
X0155090Y0079842D02*
X0153766Y0079842D01*
X0153766Y0078843D02*
X0155090Y0078843D01*
X0155090Y0077845D02*
X0153766Y0077845D01*
X0153766Y0076846D02*
X0155090Y0076846D01*
X0155090Y0075848D02*
X0153766Y0075848D01*
X0153766Y0074849D02*
X0155090Y0074849D01*
X0155090Y0073851D02*
X0153766Y0073851D01*
X0153766Y0072852D02*
X0155090Y0072852D01*
X0155090Y0071853D02*
X0153766Y0071853D01*
X0153766Y0070855D02*
X0155090Y0070855D01*
X0155090Y0069856D02*
X0153766Y0069856D01*
X0153766Y0068858D02*
X0155090Y0068858D01*
X0155090Y0067859D02*
X0153766Y0067859D01*
X0153766Y0066861D02*
X0155090Y0066861D01*
X0155090Y0065862D02*
X0153766Y0065862D01*
X0153766Y0064864D02*
X0155090Y0064864D01*
X0155090Y0063865D02*
X0153766Y0063865D01*
X0153766Y0062867D02*
X0155090Y0062867D01*
X0155090Y0061868D02*
X0153766Y0061868D01*
X0153766Y0060870D02*
X0155090Y0060870D01*
X0155090Y0059871D02*
X0153766Y0059871D01*
X0153766Y0058873D02*
X0155090Y0058873D01*
X0155090Y0057874D02*
X0153766Y0057874D01*
X0153766Y0056876D02*
X0155090Y0056876D01*
X0155090Y0055877D02*
X0153766Y0055877D01*
X0153766Y0054879D02*
X0155090Y0054879D01*
X0155090Y0053880D02*
X0153766Y0053880D01*
X0153766Y0052882D02*
X0155090Y0052882D01*
X0155090Y0051883D02*
X0153766Y0051883D01*
X0153766Y0050885D02*
X0155090Y0050885D01*
X0155090Y0049886D02*
X0153766Y0049886D01*
X0153766Y0048888D02*
X0155090Y0048888D01*
X0155090Y0047889D02*
X0153766Y0047889D01*
X0153766Y0046891D02*
X0155090Y0046891D01*
X0155090Y0045892D02*
X0154594Y0045892D01*
X0154759Y0044894D02*
X0155090Y0044894D01*
X0155090Y0043895D02*
X0154759Y0043895D01*
X0155090Y0042897D02*
X0153834Y0042897D01*
X0155090Y0041898D02*
X0146679Y0041898D01*
X0146679Y0040900D02*
X0155090Y0040900D01*
X0155090Y0039901D02*
X0146679Y0039901D01*
X0146679Y0038903D02*
X0155090Y0038903D01*
X0155090Y0037904D02*
X0146679Y0037904D01*
X0146679Y0036906D02*
X0155090Y0036906D01*
X0155090Y0035907D02*
X0146679Y0035907D01*
X0146679Y0034909D02*
X0155090Y0034909D01*
X0155090Y0033910D02*
X0146679Y0033910D01*
X0146679Y0032912D02*
X0155090Y0032912D01*
X0154849Y0031913D02*
X0146679Y0031913D01*
X0146679Y0030915D02*
X0154490Y0030915D01*
X0154490Y0029916D02*
X0146679Y0029916D01*
X0146679Y0028918D02*
X0155221Y0028918D01*
X0161859Y0025922D02*
X0147279Y0025922D01*
X0147278Y0024923D02*
X0161836Y0024923D01*
X0161964Y0023925D02*
X0146280Y0023925D01*
X0143678Y0023925D02*
X0039907Y0023925D01*
X0040036Y0024234D02*
X0039411Y0022728D01*
X0038258Y0021574D01*
X0036751Y0020950D01*
X0035120Y0020950D01*
X0033613Y0021574D01*
X0032460Y0022728D01*
X0031836Y0024234D01*
X0031836Y0025866D01*
X0032460Y0027372D01*
X0033613Y0028526D01*
X0035120Y0029150D01*
X0036751Y0029150D01*
X0038258Y0028526D01*
X0039411Y0027372D01*
X0040036Y0025866D01*
X0040036Y0024234D01*
X0040036Y0024923D02*
X0142680Y0024923D01*
X0142679Y0025922D02*
X0040012Y0025922D01*
X0039599Y0026920D02*
X0142770Y0026920D01*
X0143279Y0027919D02*
X0038865Y0027919D01*
X0037312Y0028918D02*
X0143279Y0028918D01*
X0143279Y0029916D02*
X0026908Y0029916D01*
X0026908Y0030915D02*
X0143279Y0030915D01*
X0143279Y0031913D02*
X0039597Y0031913D01*
X0039258Y0031574D02*
X0040411Y0032728D01*
X0041036Y0034234D01*
X0041036Y0035866D01*
X0040411Y0037372D01*
X0039258Y0038526D01*
X0037751Y0039150D01*
X0036120Y0039150D01*
X0034613Y0038526D01*
X0033460Y0037372D01*
X0032836Y0035866D01*
X0032836Y0034234D01*
X0033460Y0032728D01*
X0034613Y0031574D01*
X0036120Y0030950D01*
X0037751Y0030950D01*
X0039258Y0031574D01*
X0040488Y0032912D02*
X0135479Y0032912D01*
X0135759Y0032632D02*
X0134411Y0033979D01*
X0134411Y0035885D01*
X0135011Y0036485D01*
X0135011Y0073143D01*
X0134411Y0073743D01*
X0134411Y0075648D01*
X0135759Y0076996D01*
X0137664Y0076996D01*
X0138555Y0076105D01*
X0138555Y0088891D01*
X0137955Y0089491D01*
X0137955Y0091396D01*
X0138774Y0092215D01*
X0137955Y0093034D01*
X0137955Y0093600D01*
X0137567Y0093987D01*
X0137567Y0095561D01*
X0137767Y0095761D01*
X0137767Y0134954D01*
X0137167Y0135554D01*
X0137167Y0137459D01*
X0138514Y0138807D01*
X0140420Y0138807D01*
X0141767Y0137459D01*
X0141767Y0135554D01*
X0141167Y0134954D01*
X0141167Y0096287D01*
X0141207Y0096287D01*
X0142555Y0094940D01*
X0142555Y0093034D01*
X0141736Y0092215D01*
X0142555Y0091396D01*
X0142555Y0089491D01*
X0141955Y0088891D01*
X0141955Y0041996D01*
X0142555Y0041396D01*
X0142555Y0039491D01*
X0141207Y0038144D01*
X0139302Y0038144D01*
X0138411Y0039034D01*
X0138411Y0036485D01*
X0139011Y0035885D01*
X0139011Y0033979D01*
X0137664Y0032632D01*
X0135759Y0032632D01*
X0134480Y0033910D02*
X0040901Y0033910D01*
X0041036Y0034909D02*
X0134411Y0034909D01*
X0134434Y0035907D02*
X0041018Y0035907D01*
X0040605Y0036906D02*
X0135011Y0036906D01*
X0135011Y0037904D02*
X0039880Y0037904D01*
X0038348Y0038903D02*
X0135011Y0038903D01*
X0135011Y0039901D02*
X0026908Y0039901D01*
X0026908Y0040900D02*
X0135011Y0040900D01*
X0135011Y0041898D02*
X0038582Y0041898D01*
X0038258Y0041574D02*
X0039411Y0042728D01*
X0040036Y0044234D01*
X0040036Y0045866D01*
X0039411Y0047372D01*
X0038258Y0048526D01*
X0036751Y0049150D01*
X0035120Y0049150D01*
X0033613Y0048526D01*
X0032460Y0047372D01*
X0031836Y0045866D01*
X0031836Y0044234D01*
X0032460Y0042728D01*
X0033613Y0041574D01*
X0035120Y0040950D01*
X0036751Y0040950D01*
X0038258Y0041574D01*
X0039482Y0042897D02*
X0135011Y0042897D01*
X0135011Y0043895D02*
X0039895Y0043895D01*
X0040036Y0044894D02*
X0135011Y0044894D01*
X0135011Y0045892D02*
X0040025Y0045892D01*
X0039611Y0046891D02*
X0135011Y0046891D01*
X0135011Y0047889D02*
X0038895Y0047889D01*
X0037384Y0048888D02*
X0135011Y0048888D01*
X0135011Y0049886D02*
X0026908Y0049886D01*
X0026908Y0050885D02*
X0135011Y0050885D01*
X0135011Y0051883D02*
X0039567Y0051883D01*
X0039258Y0051574D02*
X0040411Y0052728D01*
X0041036Y0054234D01*
X0041036Y0055866D01*
X0040411Y0057372D01*
X0039258Y0058526D01*
X0037751Y0059150D01*
X0036120Y0059150D01*
X0034613Y0058526D01*
X0033460Y0057372D01*
X0032836Y0055866D01*
X0032836Y0054234D01*
X0033460Y0052728D01*
X0034613Y0051574D01*
X0036120Y0050950D01*
X0037751Y0050950D01*
X0039258Y0051574D01*
X0040475Y0052882D02*
X0135011Y0052882D01*
X0135011Y0053880D02*
X0040889Y0053880D01*
X0041036Y0054879D02*
X0135011Y0054879D01*
X0135011Y0055877D02*
X0041031Y0055877D01*
X0040617Y0056876D02*
X0135011Y0056876D01*
X0135011Y0057874D02*
X0039910Y0057874D01*
X0038420Y0058873D02*
X0135011Y0058873D01*
X0135011Y0059871D02*
X0026908Y0059871D01*
X0026908Y0060870D02*
X0135011Y0060870D01*
X0135011Y0061868D02*
X0038552Y0061868D01*
X0038258Y0061574D02*
X0039411Y0062728D01*
X0040036Y0064234D01*
X0040036Y0065866D01*
X0039411Y0067372D01*
X0038258Y0068526D01*
X0036751Y0069150D01*
X0035120Y0069150D01*
X0033613Y0068526D01*
X0032460Y0067372D01*
X0031836Y0065866D01*
X0031836Y0064234D01*
X0032460Y0062728D01*
X0033613Y0061574D01*
X0035120Y0060950D01*
X0036751Y0060950D01*
X0038258Y0061574D01*
X0039469Y0062867D02*
X0135011Y0062867D01*
X0135011Y0063865D02*
X0039883Y0063865D01*
X0040036Y0064864D02*
X0135011Y0064864D01*
X0135011Y0065862D02*
X0040036Y0065862D01*
X0039623Y0066861D02*
X0050823Y0066861D01*
X0050703Y0067859D02*
X0038924Y0067859D01*
X0037456Y0068858D02*
X0050703Y0068858D01*
X0050703Y0068536D02*
X0050703Y0069755D01*
X0050805Y0070137D01*
X0051002Y0070479D01*
X0051282Y0070758D01*
X0051624Y0070956D01*
X0052005Y0071058D01*
X0054799Y0071058D01*
X0054799Y0068536D01*
X0050703Y0068536D01*
X0050730Y0069856D02*
X0026908Y0069856D01*
X0026908Y0070855D02*
X0051449Y0070855D01*
X0054799Y0070855D02*
X0054842Y0070855D01*
X0054799Y0069856D02*
X0054842Y0069856D01*
X0054799Y0068858D02*
X0054842Y0068858D01*
X0054799Y0067859D02*
X0054842Y0067859D01*
X0054799Y0066861D02*
X0054842Y0066861D01*
X0058819Y0066861D02*
X0063857Y0066861D01*
X0063703Y0067016D02*
X0064347Y0066371D01*
X0070494Y0066371D01*
X0071139Y0067016D01*
X0071139Y0070014D01*
X0070494Y0070658D01*
X0064347Y0070658D01*
X0063703Y0070014D01*
X0063703Y0067016D01*
X0063703Y0067859D02*
X0058939Y0067859D01*
X0058939Y0068858D02*
X0063703Y0068858D01*
X0063703Y0069856D02*
X0058912Y0069856D01*
X0048173Y0071853D02*
X0039537Y0071853D01*
X0039258Y0071574D02*
X0040411Y0072728D01*
X0041036Y0074234D01*
X0041036Y0075866D01*
X0040411Y0077372D01*
X0039258Y0078526D01*
X0037751Y0079150D01*
X0036120Y0079150D01*
X0034613Y0078526D01*
X0033460Y0077372D01*
X0032836Y0075866D01*
X0032836Y0074234D01*
X0033460Y0072728D01*
X0034613Y0071574D01*
X0036120Y0070950D01*
X0037751Y0070950D01*
X0039258Y0071574D01*
X0040463Y0072852D02*
X0047174Y0072852D01*
X0046176Y0073851D02*
X0040877Y0073851D01*
X0041036Y0074849D02*
X0046035Y0074849D01*
X0046035Y0075848D02*
X0041036Y0075848D01*
X0040630Y0076846D02*
X0046035Y0076846D01*
X0046035Y0077845D02*
X0039939Y0077845D01*
X0038492Y0078843D02*
X0046035Y0078843D01*
X0046035Y0079842D02*
X0026908Y0079842D01*
X0026908Y0080840D02*
X0046035Y0080840D01*
X0046035Y0081839D02*
X0038523Y0081839D01*
X0038258Y0081574D02*
X0039411Y0082728D01*
X0040036Y0084234D01*
X0040036Y0085866D01*
X0039411Y0087372D01*
X0038258Y0088526D01*
X0036751Y0089150D01*
X0035120Y0089150D01*
X0033613Y0088526D01*
X0032460Y0087372D01*
X0031836Y0085866D01*
X0031836Y0084234D01*
X0032460Y0082728D01*
X0033613Y0081574D01*
X0035120Y0080950D01*
X0036751Y0080950D01*
X0038258Y0081574D01*
X0039457Y0082837D02*
X0046035Y0082837D01*
X0046035Y0083836D02*
X0039870Y0083836D01*
X0040036Y0084834D02*
X0046035Y0084834D01*
X0046035Y0085833D02*
X0040036Y0085833D01*
X0039636Y0086831D02*
X0046035Y0086831D01*
X0046035Y0087830D02*
X0038954Y0087830D01*
X0037528Y0088828D02*
X0046035Y0088828D01*
X0046035Y0089827D02*
X0026908Y0089827D01*
X0026908Y0090825D02*
X0046035Y0090825D01*
X0046035Y0091824D02*
X0039508Y0091824D01*
X0039258Y0091574D02*
X0040411Y0092728D01*
X0041036Y0094234D01*
X0041036Y0095866D01*
X0040411Y0097372D01*
X0039258Y0098526D01*
X0037751Y0099150D01*
X0036120Y0099150D01*
X0034613Y0098526D01*
X0033460Y0097372D01*
X0032836Y0095866D01*
X0032836Y0094234D01*
X0033460Y0092728D01*
X0034613Y0091574D01*
X0036120Y0090950D01*
X0037751Y0090950D01*
X0039258Y0091574D01*
X0040451Y0092822D02*
X0046035Y0092822D01*
X0046035Y0093821D02*
X0040864Y0093821D01*
X0041036Y0094819D02*
X0043182Y0094819D01*
X0042895Y0095818D02*
X0041036Y0095818D01*
X0040642Y0096816D02*
X0042501Y0096816D01*
X0041503Y0097815D02*
X0039969Y0097815D01*
X0040917Y0098813D02*
X0038564Y0098813D01*
X0040917Y0099812D02*
X0026908Y0099812D01*
X0026908Y0100810D02*
X0040917Y0100810D01*
X0040917Y0101809D02*
X0038493Y0101809D01*
X0039445Y0102807D02*
X0040917Y0102807D01*
X0040917Y0103806D02*
X0039858Y0103806D01*
X0040036Y0104804D02*
X0040917Y0104804D01*
X0040917Y0105803D02*
X0040036Y0105803D01*
X0040390Y0106801D02*
X0039648Y0106801D01*
X0039392Y0107800D02*
X0038984Y0107800D01*
X0033433Y0112792D02*
X0030597Y0112792D01*
X0029852Y0113791D02*
X0033019Y0113791D01*
X0032836Y0114789D02*
X0030036Y0114789D01*
X0030036Y0115788D02*
X0032836Y0115788D01*
X0033217Y0116787D02*
X0029654Y0116787D01*
X0028999Y0117785D02*
X0033872Y0117785D01*
X0035235Y0118784D02*
X0027636Y0118784D01*
X0029463Y0121779D02*
X0033408Y0121779D01*
X0032439Y0122778D02*
X0030432Y0122778D01*
X0030846Y0123776D02*
X0032026Y0123776D01*
X0031836Y0124775D02*
X0031036Y0124775D01*
X0031036Y0125773D02*
X0031836Y0125773D01*
X0032211Y0126772D02*
X0030660Y0126772D01*
X0030014Y0127770D02*
X0032858Y0127770D01*
X0034199Y0128769D02*
X0028672Y0128769D01*
X0028448Y0131764D02*
X0034423Y0131764D01*
X0033445Y0132763D02*
X0029426Y0132763D01*
X0029840Y0133761D02*
X0033032Y0133761D01*
X0032836Y0134760D02*
X0030036Y0134760D01*
X0030036Y0135758D02*
X0032836Y0135758D01*
X0033205Y0136757D02*
X0029667Y0136757D01*
X0029029Y0137755D02*
X0033843Y0137755D01*
X0035164Y0138754D02*
X0027708Y0138754D01*
X0026908Y0139752D02*
X0040523Y0139752D01*
X0040523Y0138754D02*
X0038708Y0138754D01*
X0040029Y0137755D02*
X0040523Y0137755D01*
X0040523Y0140751D02*
X0037266Y0140751D01*
X0036989Y0140661D02*
X0037663Y0140880D01*
X0038294Y0141201D01*
X0038867Y0141618D01*
X0039368Y0142118D01*
X0039784Y0142691D01*
X0040106Y0143323D01*
X0040325Y0143996D01*
X0040413Y0144550D01*
X0036436Y0144550D01*
X0036436Y0145550D01*
X0040413Y0145550D01*
X0040325Y0146104D01*
X0040106Y0146777D01*
X0039784Y0147409D01*
X0039368Y0147982D01*
X0038867Y0148482D01*
X0038294Y0148899D01*
X0037663Y0149220D01*
X0036989Y0149439D01*
X0036436Y0149527D01*
X0036436Y0145550D01*
X0035436Y0145550D01*
X0035436Y0149527D01*
X0034882Y0149439D01*
X0034208Y0149220D01*
X0033577Y0148899D01*
X0033004Y0148482D01*
X0032503Y0147982D01*
X0032087Y0147409D01*
X0031765Y0146777D01*
X0031546Y0146104D01*
X0031459Y0145550D01*
X0035436Y0145550D01*
X0035436Y0144550D01*
X0036436Y0144550D01*
X0036436Y0140573D01*
X0036989Y0140661D01*
X0036436Y0140751D02*
X0035436Y0140751D01*
X0035436Y0140573D02*
X0035436Y0144550D01*
X0031459Y0144550D01*
X0031546Y0143996D01*
X0031765Y0143323D01*
X0032087Y0142691D01*
X0032503Y0142118D01*
X0033004Y0141618D01*
X0033577Y0141201D01*
X0034208Y0140880D01*
X0034882Y0140661D01*
X0035436Y0140573D01*
X0034605Y0140751D02*
X0026908Y0140751D01*
X0029433Y0141749D02*
X0032872Y0141749D01*
X0032058Y0142748D02*
X0030420Y0142748D01*
X0030833Y0143746D02*
X0031628Y0143746D01*
X0031036Y0144745D02*
X0035436Y0144745D01*
X0035436Y0145743D02*
X0036436Y0145743D01*
X0036436Y0144745D02*
X0040523Y0144745D01*
X0040523Y0145743D02*
X0040382Y0145743D01*
X0040523Y0146742D02*
X0040118Y0146742D01*
X0040523Y0147740D02*
X0039543Y0147740D01*
X0040523Y0148739D02*
X0038514Y0148739D01*
X0040523Y0149737D02*
X0026908Y0149737D01*
X0028744Y0148739D02*
X0033357Y0148739D01*
X0032328Y0147740D02*
X0030044Y0147740D01*
X0030673Y0146742D02*
X0031754Y0146742D01*
X0031489Y0145743D02*
X0031036Y0145743D01*
X0035436Y0146742D02*
X0036436Y0146742D01*
X0036436Y0147740D02*
X0035436Y0147740D01*
X0035436Y0148739D02*
X0036436Y0148739D01*
X0036436Y0143746D02*
X0035436Y0143746D01*
X0035436Y0142748D02*
X0036436Y0142748D01*
X0036436Y0141749D02*
X0035436Y0141749D01*
X0038999Y0141749D02*
X0040523Y0141749D01*
X0040523Y0142748D02*
X0039813Y0142748D01*
X0040244Y0143746D02*
X0040523Y0143746D01*
X0040523Y0157725D02*
X0040058Y0157725D01*
X0040523Y0158724D02*
X0038780Y0158724D01*
X0040523Y0159722D02*
X0026908Y0159722D01*
X0026908Y0160721D02*
X0040523Y0160721D01*
X0040523Y0161720D02*
X0038403Y0161720D01*
X0039402Y0162718D02*
X0040523Y0162718D01*
X0040523Y0163717D02*
X0039821Y0163717D01*
X0040036Y0164715D02*
X0040481Y0164715D01*
X0040571Y0165714D02*
X0040036Y0165714D01*
X0040306Y0166712D02*
X0039685Y0166712D01*
X0039640Y0167711D02*
X0039073Y0167711D01*
X0041644Y0170706D02*
X0043873Y0170706D01*
X0043873Y0169708D02*
X0042500Y0169708D01*
X0043343Y0168725D02*
X0043343Y0168725D01*
X0043347Y0168709D02*
X0043894Y0168709D01*
X0043873Y0168790D02*
X0043975Y0168408D01*
X0044172Y0168066D01*
X0044452Y0167787D01*
X0044794Y0167589D01*
X0045175Y0167487D01*
X0047629Y0167487D01*
X0047629Y0172424D01*
X0048629Y0172424D01*
X0048629Y0173424D01*
X0052384Y0173424D01*
X0052384Y0177059D01*
X0052282Y0177440D01*
X0052085Y0177782D01*
X0051806Y0178061D01*
X0051463Y0178259D01*
X0051082Y0178361D01*
X0048629Y0178361D01*
X0048629Y0173424D01*
X0047629Y0173424D01*
X0047629Y0178361D01*
X0045175Y0178361D01*
X0044794Y0178259D01*
X0044452Y0178061D01*
X0044172Y0177782D01*
X0043975Y0177440D01*
X0043873Y0177059D01*
X0043873Y0173424D01*
X0047629Y0173424D01*
X0047629Y0172424D01*
X0043873Y0172424D01*
X0043873Y0168790D01*
X0043631Y0167711D02*
X0044584Y0167711D01*
X0043916Y0166712D02*
X0060607Y0166712D01*
X0060491Y0166430D02*
X0061246Y0168254D01*
X0062641Y0169649D01*
X0064465Y0170404D01*
X0066438Y0170404D01*
X0068261Y0169649D01*
X0069657Y0168254D01*
X0070412Y0166430D01*
X0070412Y0164457D01*
X0069657Y0162634D01*
X0068261Y0161238D01*
X0066438Y0160483D01*
X0064465Y0160483D01*
X0062641Y0161238D01*
X0061246Y0162634D01*
X0060491Y0164457D01*
X0060491Y0166430D01*
X0060491Y0165714D02*
X0044076Y0165714D01*
X0043923Y0164715D02*
X0060491Y0164715D01*
X0060797Y0163717D02*
X0043923Y0163717D01*
X0043923Y0162718D02*
X0061211Y0162718D01*
X0062160Y0161720D02*
X0043923Y0161720D01*
X0043923Y0160721D02*
X0063890Y0160721D01*
X0067013Y0160721D02*
X0095386Y0160721D01*
X0095961Y0160483D02*
X0097934Y0160483D01*
X0099757Y0161238D01*
X0101153Y0162634D01*
X0101908Y0164457D01*
X0101908Y0166430D01*
X0101153Y0168254D01*
X0099757Y0169649D01*
X0097934Y0170404D01*
X0095961Y0170404D01*
X0094138Y0169649D01*
X0092742Y0168254D01*
X0091987Y0166430D01*
X0091987Y0164457D01*
X0092742Y0162634D01*
X0094138Y0161238D01*
X0095961Y0160483D01*
X0098509Y0160721D02*
X0176908Y0160721D01*
X0176908Y0159722D02*
X0043923Y0159722D01*
X0043923Y0158724D02*
X0165092Y0158724D01*
X0163813Y0157725D02*
X0043923Y0157725D01*
X0047629Y0167711D02*
X0048629Y0167711D01*
X0048629Y0167487D02*
X0051082Y0167487D01*
X0051463Y0167589D01*
X0051806Y0167787D01*
X0052085Y0168066D01*
X0052282Y0168408D01*
X0052384Y0168790D01*
X0052384Y0172424D01*
X0048629Y0172424D01*
X0048629Y0167487D01*
X0048629Y0168709D02*
X0047629Y0168709D01*
X0047629Y0169708D02*
X0048629Y0169708D01*
X0048629Y0170706D02*
X0047629Y0170706D01*
X0047629Y0171705D02*
X0048629Y0171705D01*
X0048629Y0172703D02*
X0055314Y0172703D01*
X0054979Y0173512D02*
X0055734Y0171689D01*
X0057130Y0170293D01*
X0058953Y0169538D01*
X0060926Y0169538D01*
X0062750Y0170293D01*
X0064145Y0171689D01*
X0064900Y0173512D01*
X0064900Y0175486D01*
X0064145Y0177309D01*
X0062750Y0178704D01*
X0060926Y0179459D01*
X0058953Y0179459D01*
X0057130Y0178704D01*
X0055734Y0177309D01*
X0054979Y0175486D01*
X0054979Y0173512D01*
X0054979Y0173702D02*
X0052384Y0173702D01*
X0052384Y0174700D02*
X0054979Y0174700D01*
X0055067Y0175699D02*
X0052384Y0175699D01*
X0052384Y0176697D02*
X0055481Y0176697D01*
X0056121Y0177696D02*
X0052135Y0177696D01*
X0048629Y0177696D02*
X0047629Y0177696D01*
X0047629Y0176697D02*
X0048629Y0176697D01*
X0048629Y0175699D02*
X0047629Y0175699D01*
X0047629Y0174700D02*
X0048629Y0174700D01*
X0048629Y0173702D02*
X0047629Y0173702D01*
X0047629Y0172703D02*
X0040387Y0172703D01*
X0040815Y0173702D02*
X0043873Y0173702D01*
X0043873Y0174700D02*
X0041036Y0174700D01*
X0041036Y0175699D02*
X0043873Y0175699D01*
X0043873Y0176697D02*
X0040691Y0176697D01*
X0040088Y0177696D02*
X0044123Y0177696D01*
X0038852Y0178694D02*
X0057120Y0178694D01*
X0062760Y0178694D02*
X0088616Y0178694D01*
X0088626Y0178704D02*
X0087230Y0177309D01*
X0086475Y0175486D01*
X0086475Y0173512D01*
X0087230Y0171689D01*
X0088626Y0170293D01*
X0090449Y0169538D01*
X0092422Y0169538D01*
X0094246Y0170293D01*
X0095641Y0171689D01*
X0096396Y0173512D01*
X0096396Y0175486D01*
X0095641Y0177309D01*
X0094246Y0178704D01*
X0092422Y0179459D01*
X0090449Y0179459D01*
X0088626Y0178704D01*
X0087617Y0177696D02*
X0063758Y0177696D01*
X0064398Y0176697D02*
X0086977Y0176697D01*
X0086563Y0175699D02*
X0064812Y0175699D01*
X0064900Y0174700D02*
X0086475Y0174700D01*
X0086475Y0173702D02*
X0064900Y0173702D01*
X0064565Y0172703D02*
X0086810Y0172703D01*
X0087224Y0171705D02*
X0064152Y0171705D01*
X0063162Y0170706D02*
X0088213Y0170706D01*
X0090040Y0169708D02*
X0068120Y0169708D01*
X0069201Y0168709D02*
X0093198Y0168709D01*
X0092831Y0169708D02*
X0094279Y0169708D01*
X0094658Y0170706D02*
X0106077Y0170706D01*
X0106077Y0169708D02*
X0099616Y0169708D01*
X0100697Y0168709D02*
X0106099Y0168709D01*
X0106077Y0168790D02*
X0106180Y0168408D01*
X0106377Y0168066D01*
X0106656Y0167787D01*
X0106998Y0167589D01*
X0107380Y0167487D01*
X0109833Y0167487D01*
X0109833Y0172424D01*
X0106077Y0172424D01*
X0106077Y0168790D01*
X0106788Y0167711D02*
X0101378Y0167711D01*
X0101791Y0166712D02*
X0162186Y0166712D01*
X0161836Y0165714D02*
X0101908Y0165714D01*
X0101908Y0164715D02*
X0161836Y0164715D01*
X0162050Y0163717D02*
X0101601Y0163717D01*
X0101188Y0162718D02*
X0162469Y0162718D01*
X0163468Y0161720D02*
X0100239Y0161720D01*
X0093656Y0161720D02*
X0068743Y0161720D01*
X0069692Y0162718D02*
X0092707Y0162718D01*
X0092294Y0163717D02*
X0070105Y0163717D01*
X0070412Y0164715D02*
X0091987Y0164715D01*
X0091987Y0165714D02*
X0070412Y0165714D01*
X0070295Y0166712D02*
X0092104Y0166712D01*
X0092517Y0167711D02*
X0069882Y0167711D01*
X0062783Y0169708D02*
X0061335Y0169708D01*
X0061701Y0168709D02*
X0052363Y0168709D01*
X0052384Y0169708D02*
X0058544Y0169708D01*
X0056717Y0170706D02*
X0052384Y0170706D01*
X0052384Y0171705D02*
X0055728Y0171705D01*
X0051674Y0167711D02*
X0061021Y0167711D01*
X0043873Y0171705D02*
X0039701Y0171705D01*
X0029270Y0168709D02*
X0028816Y0168709D01*
X0028272Y0169708D02*
X0026908Y0169708D01*
X0026908Y0170706D02*
X0027273Y0170706D01*
X0026908Y0110795D02*
X0027786Y0110795D01*
X0026908Y0109797D02*
X0028785Y0109797D01*
X0028600Y0108798D02*
X0029783Y0108798D01*
X0029984Y0107800D02*
X0032887Y0107800D01*
X0032223Y0106801D02*
X0030648Y0106801D01*
X0031036Y0105803D02*
X0031836Y0105803D01*
X0031836Y0104804D02*
X0031036Y0104804D01*
X0030858Y0103806D02*
X0032013Y0103806D01*
X0032427Y0102807D02*
X0030445Y0102807D01*
X0029493Y0101809D02*
X0033379Y0101809D01*
X0035307Y0098813D02*
X0027564Y0098813D01*
X0028969Y0097815D02*
X0033902Y0097815D01*
X0033230Y0096816D02*
X0029642Y0096816D01*
X0030036Y0095818D02*
X0032836Y0095818D01*
X0032836Y0094819D02*
X0030036Y0094819D01*
X0029864Y0093821D02*
X0033007Y0093821D01*
X0033421Y0092822D02*
X0029451Y0092822D01*
X0028508Y0091824D02*
X0034364Y0091824D01*
X0034343Y0088828D02*
X0028528Y0088828D01*
X0029954Y0087830D02*
X0032917Y0087830D01*
X0032236Y0086831D02*
X0030636Y0086831D01*
X0031036Y0085833D02*
X0031836Y0085833D01*
X0031836Y0084834D02*
X0031036Y0084834D01*
X0030870Y0083836D02*
X0032001Y0083836D01*
X0032414Y0082837D02*
X0030457Y0082837D01*
X0029523Y0081839D02*
X0033349Y0081839D01*
X0035379Y0078843D02*
X0027492Y0078843D01*
X0028939Y0077845D02*
X0033932Y0077845D01*
X0033242Y0076846D02*
X0029630Y0076846D01*
X0030036Y0075848D02*
X0032836Y0075848D01*
X0032836Y0074849D02*
X0030036Y0074849D01*
X0029877Y0073851D02*
X0032995Y0073851D01*
X0033408Y0072852D02*
X0029463Y0072852D01*
X0028537Y0071853D02*
X0034334Y0071853D01*
X0034415Y0068858D02*
X0028456Y0068858D01*
X0029924Y0067859D02*
X0032947Y0067859D01*
X0032248Y0066861D02*
X0030623Y0066861D01*
X0031036Y0065862D02*
X0031836Y0065862D01*
X0031836Y0064864D02*
X0031036Y0064864D01*
X0030883Y0063865D02*
X0031989Y0063865D01*
X0032402Y0062867D02*
X0030469Y0062867D01*
X0029552Y0061868D02*
X0033319Y0061868D01*
X0035451Y0058873D02*
X0027420Y0058873D01*
X0028910Y0057874D02*
X0033962Y0057874D01*
X0033254Y0056876D02*
X0029617Y0056876D01*
X0030031Y0055877D02*
X0032841Y0055877D01*
X0032836Y0054879D02*
X0030036Y0054879D01*
X0029889Y0053880D02*
X0032982Y0053880D01*
X0033396Y0052882D02*
X0029475Y0052882D01*
X0028567Y0051883D02*
X0034304Y0051883D01*
X0034487Y0048888D02*
X0028384Y0048888D01*
X0029895Y0047889D02*
X0032977Y0047889D01*
X0032260Y0046891D02*
X0030611Y0046891D01*
X0031025Y0045892D02*
X0031847Y0045892D01*
X0031836Y0044894D02*
X0031036Y0044894D01*
X0030895Y0043895D02*
X0031976Y0043895D01*
X0032390Y0042897D02*
X0030482Y0042897D01*
X0029582Y0041898D02*
X0033289Y0041898D01*
X0035523Y0038903D02*
X0027348Y0038903D01*
X0028880Y0037904D02*
X0033992Y0037904D01*
X0033267Y0036906D02*
X0029605Y0036906D01*
X0030018Y0035907D02*
X0032853Y0035907D01*
X0032836Y0034909D02*
X0030036Y0034909D01*
X0029901Y0033910D02*
X0032970Y0033910D01*
X0033384Y0032912D02*
X0029488Y0032912D01*
X0028597Y0031913D02*
X0034274Y0031913D01*
X0034559Y0028918D02*
X0028312Y0028918D01*
X0029865Y0027919D02*
X0033006Y0027919D01*
X0032273Y0026920D02*
X0030599Y0026920D01*
X0031012Y0025922D02*
X0031859Y0025922D01*
X0031836Y0024923D02*
X0031036Y0024923D01*
X0030907Y0023925D02*
X0031964Y0023925D01*
X0032377Y0022926D02*
X0030494Y0022926D01*
X0029612Y0021928D02*
X0033259Y0021928D01*
X0034613Y0018526D02*
X0033460Y0017372D01*
X0032836Y0015866D01*
X0032836Y0014234D01*
X0033460Y0012728D01*
X0034613Y0011574D01*
X0036120Y0010950D01*
X0037751Y0010950D01*
X0039258Y0011574D01*
X0040411Y0012728D01*
X0041036Y0014234D01*
X0041036Y0015866D01*
X0040411Y0017372D01*
X0039258Y0018526D01*
X0037751Y0019150D01*
X0036120Y0019150D01*
X0034613Y0018526D01*
X0034021Y0017934D02*
X0028850Y0017934D01*
X0029593Y0016935D02*
X0033279Y0016935D01*
X0032865Y0015937D02*
X0030006Y0015937D01*
X0030036Y0014938D02*
X0032836Y0014938D01*
X0032958Y0013940D02*
X0029914Y0013940D01*
X0029500Y0012941D02*
X0033371Y0012941D01*
X0034245Y0011943D02*
X0028627Y0011943D01*
X0029199Y0008947D02*
X0034631Y0008947D01*
X0033036Y0007949D02*
X0030392Y0007949D01*
X0031018Y0006950D02*
X0032285Y0006950D01*
X0027436Y0006950D02*
X0026908Y0006950D01*
X0026908Y0007949D02*
X0027436Y0007949D01*
X0027436Y0008947D02*
X0026908Y0008947D01*
X0027277Y0018932D02*
X0035595Y0018932D01*
X0038277Y0018932D02*
X0165595Y0018932D01*
X0164021Y0017934D02*
X0039850Y0017934D01*
X0040593Y0016935D02*
X0163279Y0016935D01*
X0162865Y0015937D02*
X0041006Y0015937D01*
X0041036Y0014938D02*
X0162836Y0014938D01*
X0162958Y0013940D02*
X0040914Y0013940D01*
X0040500Y0012941D02*
X0163371Y0012941D01*
X0164245Y0011943D02*
X0039627Y0011943D01*
X0037241Y0008947D02*
X0163672Y0008947D01*
X0162479Y0007949D02*
X0038835Y0007949D01*
X0039586Y0006950D02*
X0161853Y0006950D01*
X0165436Y0006950D02*
X0166436Y0006950D01*
X0166436Y0007949D02*
X0165436Y0007949D01*
X0165436Y0008947D02*
X0166436Y0008947D01*
X0163259Y0021928D02*
X0038612Y0021928D01*
X0039494Y0022926D02*
X0162377Y0022926D01*
X0162273Y0026920D02*
X0147188Y0026920D01*
X0146679Y0027919D02*
X0163006Y0027919D01*
X0158490Y0040900D02*
X0176908Y0040900D01*
X0151084Y0042897D02*
X0146679Y0042897D01*
X0146679Y0043895D02*
X0150159Y0043895D01*
X0150159Y0044894D02*
X0146679Y0044894D01*
X0146679Y0045892D02*
X0150166Y0045892D01*
X0150366Y0046891D02*
X0146679Y0046891D01*
X0146679Y0047889D02*
X0150366Y0047889D01*
X0150366Y0048888D02*
X0149589Y0048888D01*
X0150366Y0051696D02*
X0149829Y0052233D01*
X0149829Y0092434D01*
X0150366Y0092971D01*
X0150366Y0051696D01*
X0150366Y0051883D02*
X0150178Y0051883D01*
X0150366Y0052882D02*
X0149829Y0052882D01*
X0149829Y0053880D02*
X0150366Y0053880D01*
X0150366Y0054879D02*
X0149829Y0054879D01*
X0149829Y0055877D02*
X0150366Y0055877D01*
X0150366Y0056876D02*
X0149829Y0056876D01*
X0149829Y0057874D02*
X0150366Y0057874D01*
X0150366Y0058873D02*
X0149829Y0058873D01*
X0149829Y0059871D02*
X0150366Y0059871D01*
X0150366Y0060870D02*
X0149829Y0060870D01*
X0149829Y0061868D02*
X0150366Y0061868D01*
X0150366Y0062867D02*
X0149829Y0062867D01*
X0149829Y0063865D02*
X0150366Y0063865D01*
X0150366Y0064864D02*
X0149829Y0064864D01*
X0149829Y0065862D02*
X0150366Y0065862D01*
X0150366Y0066861D02*
X0149829Y0066861D01*
X0149829Y0067859D02*
X0150366Y0067859D01*
X0150366Y0068858D02*
X0149829Y0068858D01*
X0149829Y0069856D02*
X0150366Y0069856D01*
X0150366Y0070855D02*
X0149829Y0070855D01*
X0149829Y0071853D02*
X0150366Y0071853D01*
X0150366Y0072852D02*
X0149829Y0072852D01*
X0149829Y0073851D02*
X0150366Y0073851D01*
X0150366Y0074849D02*
X0149829Y0074849D01*
X0149829Y0075848D02*
X0150366Y0075848D01*
X0150366Y0076846D02*
X0149829Y0076846D01*
X0149829Y0077845D02*
X0150366Y0077845D01*
X0150366Y0078843D02*
X0149829Y0078843D01*
X0149829Y0079842D02*
X0150366Y0079842D01*
X0150366Y0080840D02*
X0149829Y0080840D01*
X0149829Y0081839D02*
X0150366Y0081839D01*
X0150366Y0082837D02*
X0149829Y0082837D01*
X0149829Y0083836D02*
X0150366Y0083836D01*
X0150366Y0084834D02*
X0149829Y0084834D01*
X0149829Y0085833D02*
X0150366Y0085833D01*
X0150366Y0086831D02*
X0149829Y0086831D01*
X0149829Y0087830D02*
X0150366Y0087830D01*
X0150366Y0088828D02*
X0149829Y0088828D01*
X0149829Y0089827D02*
X0150366Y0089827D01*
X0150366Y0090825D02*
X0149829Y0090825D01*
X0149829Y0091824D02*
X0150366Y0091824D01*
X0150366Y0092822D02*
X0150216Y0092822D01*
X0150366Y0095003D02*
X0149081Y0096287D01*
X0147176Y0096287D01*
X0146679Y0095790D01*
X0146679Y0098655D01*
X0147410Y0097924D01*
X0148523Y0096811D01*
X0150366Y0096811D01*
X0150366Y0095003D01*
X0150366Y0095818D02*
X0149551Y0095818D01*
X0148518Y0096816D02*
X0146679Y0096816D01*
X0146679Y0095818D02*
X0146707Y0095818D01*
X0146679Y0097815D02*
X0147519Y0097815D01*
X0143279Y0097815D02*
X0141167Y0097815D01*
X0141167Y0098813D02*
X0143279Y0098813D01*
X0143279Y0099812D02*
X0141167Y0099812D01*
X0141167Y0100810D02*
X0143279Y0100810D01*
X0143279Y0101809D02*
X0141167Y0101809D01*
X0141167Y0102807D02*
X0143279Y0102807D01*
X0143279Y0103806D02*
X0141167Y0103806D01*
X0141167Y0104804D02*
X0143279Y0104804D01*
X0143279Y0105803D02*
X0141167Y0105803D01*
X0141167Y0106801D02*
X0143279Y0106801D01*
X0143279Y0107800D02*
X0141167Y0107800D01*
X0141167Y0108798D02*
X0143279Y0108798D01*
X0143279Y0109797D02*
X0141167Y0109797D01*
X0141167Y0110795D02*
X0143279Y0110795D01*
X0143279Y0111794D02*
X0141167Y0111794D01*
X0141167Y0112792D02*
X0143279Y0112792D01*
X0142679Y0113791D02*
X0141167Y0113791D01*
X0141167Y0114789D02*
X0142679Y0114789D01*
X0143055Y0115788D02*
X0141167Y0115788D01*
X0141167Y0116787D02*
X0146429Y0116787D01*
X0146429Y0117785D02*
X0141167Y0117785D01*
X0141167Y0118784D02*
X0146429Y0118784D01*
X0146429Y0119782D02*
X0141167Y0119782D01*
X0141167Y0120781D02*
X0146429Y0120781D01*
X0146429Y0121779D02*
X0141167Y0121779D01*
X0141167Y0122778D02*
X0146429Y0122778D01*
X0146429Y0123776D02*
X0141167Y0123776D01*
X0141167Y0124775D02*
X0146429Y0124775D01*
X0146429Y0125773D02*
X0141167Y0125773D01*
X0141167Y0126772D02*
X0146429Y0126772D01*
X0146429Y0127770D02*
X0141167Y0127770D01*
X0141167Y0128769D02*
X0146429Y0128769D01*
X0146429Y0129767D02*
X0141167Y0129767D01*
X0141167Y0130766D02*
X0146429Y0130766D01*
X0146429Y0131764D02*
X0141167Y0131764D01*
X0141167Y0132763D02*
X0146429Y0132763D01*
X0146429Y0133761D02*
X0141167Y0133761D01*
X0141167Y0134760D02*
X0146429Y0134760D01*
X0146429Y0135758D02*
X0141767Y0135758D01*
X0141767Y0136757D02*
X0146429Y0136757D01*
X0146429Y0137755D02*
X0141471Y0137755D01*
X0140473Y0138754D02*
X0146429Y0138754D01*
X0145829Y0139752D02*
X0089986Y0139752D01*
X0089986Y0138754D02*
X0101820Y0138754D01*
X0101850Y0138806D02*
X0101652Y0138464D01*
X0101550Y0138082D01*
X0101550Y0135629D01*
X0106388Y0135629D01*
X0106388Y0134629D01*
X0101550Y0134629D01*
X0101550Y0132175D01*
X0101652Y0131794D01*
X0101850Y0131452D01*
X0102129Y0131173D01*
X0102471Y0130975D01*
X0102675Y0130920D01*
X0101340Y0129585D01*
X0101340Y0127680D01*
X0102688Y0126333D01*
X0102728Y0126333D01*
X0102728Y0081760D01*
X0102128Y0081160D01*
X0102128Y0079255D01*
X0103475Y0077907D01*
X0105380Y0077907D01*
X0106728Y0079255D01*
X0106728Y0081160D01*
X0106128Y0081760D01*
X0106128Y0128549D01*
X0105940Y0128737D01*
X0105940Y0129585D01*
X0104653Y0130873D01*
X0106388Y0130873D01*
X0106388Y0134629D01*
X0107388Y0134629D01*
X0107388Y0130873D01*
X0110925Y0130873D01*
X0111306Y0130975D01*
X0111648Y0131173D01*
X0111927Y0131452D01*
X0112125Y0131794D01*
X0112227Y0132175D01*
X0112227Y0134629D01*
X0107388Y0134629D01*
X0107388Y0135629D01*
X0106388Y0135629D01*
X0106388Y0139385D01*
X0102852Y0139385D01*
X0102471Y0139282D01*
X0102129Y0139085D01*
X0101850Y0138806D01*
X0101550Y0137755D02*
X0089986Y0137755D01*
X0089986Y0136757D02*
X0101550Y0136757D01*
X0101550Y0135758D02*
X0089986Y0135758D01*
X0090370Y0134760D02*
X0106388Y0134760D01*
X0106388Y0135758D02*
X0107388Y0135758D01*
X0107388Y0135629D02*
X0107388Y0139385D01*
X0110925Y0139385D01*
X0111306Y0139282D01*
X0111648Y0139085D01*
X0111927Y0138806D01*
X0112125Y0138464D01*
X0112227Y0138082D01*
X0112227Y0135629D01*
X0107388Y0135629D01*
X0107388Y0134760D02*
X0137767Y0134760D01*
X0137767Y0133761D02*
X0112227Y0133761D01*
X0112227Y0132763D02*
X0137767Y0132763D01*
X0137767Y0131764D02*
X0112108Y0131764D01*
X0112227Y0135758D02*
X0137167Y0135758D01*
X0137167Y0136757D02*
X0112227Y0136757D01*
X0112227Y0137755D02*
X0137463Y0137755D01*
X0138462Y0138754D02*
X0111957Y0138754D01*
X0107388Y0138754D02*
X0106388Y0138754D01*
X0106388Y0137755D02*
X0107388Y0137755D01*
X0107388Y0136757D02*
X0106388Y0136757D01*
X0106388Y0133761D02*
X0107388Y0133761D01*
X0107388Y0132763D02*
X0106388Y0132763D01*
X0106388Y0131764D02*
X0107388Y0131764D01*
X0105759Y0129767D02*
X0137767Y0129767D01*
X0137767Y0128769D02*
X0105940Y0128769D01*
X0106128Y0127770D02*
X0137767Y0127770D01*
X0137767Y0126772D02*
X0106128Y0126772D01*
X0106128Y0125773D02*
X0137767Y0125773D01*
X0137767Y0124775D02*
X0106128Y0124775D01*
X0106128Y0123776D02*
X0137767Y0123776D01*
X0137767Y0122778D02*
X0106128Y0122778D01*
X0106128Y0121779D02*
X0137767Y0121779D01*
X0137767Y0120781D02*
X0106128Y0120781D01*
X0106128Y0119782D02*
X0137767Y0119782D01*
X0137767Y0118784D02*
X0106128Y0118784D01*
X0106128Y0117785D02*
X0137767Y0117785D01*
X0137767Y0116787D02*
X0106128Y0116787D01*
X0106128Y0115788D02*
X0137767Y0115788D01*
X0137767Y0114789D02*
X0106128Y0114789D01*
X0106128Y0113791D02*
X0137767Y0113791D01*
X0137767Y0112792D02*
X0106128Y0112792D01*
X0106128Y0111794D02*
X0137767Y0111794D01*
X0137767Y0110795D02*
X0106128Y0110795D01*
X0106128Y0109797D02*
X0137767Y0109797D01*
X0137767Y0108798D02*
X0106128Y0108798D01*
X0106128Y0107800D02*
X0137767Y0107800D01*
X0137767Y0106801D02*
X0106128Y0106801D01*
X0106128Y0105803D02*
X0137767Y0105803D01*
X0137767Y0104804D02*
X0106128Y0104804D01*
X0106128Y0103806D02*
X0137767Y0103806D01*
X0137767Y0102807D02*
X0106128Y0102807D01*
X0106128Y0101809D02*
X0137767Y0101809D01*
X0137767Y0100810D02*
X0106128Y0100810D01*
X0106128Y0099812D02*
X0137767Y0099812D01*
X0137767Y0098813D02*
X0106128Y0098813D01*
X0106128Y0097815D02*
X0137767Y0097815D01*
X0137767Y0096816D02*
X0106128Y0096816D01*
X0106128Y0095818D02*
X0137767Y0095818D01*
X0137567Y0094819D02*
X0106128Y0094819D01*
X0106128Y0093821D02*
X0137734Y0093821D01*
X0138167Y0092822D02*
X0106128Y0092822D01*
X0106128Y0091824D02*
X0138382Y0091824D01*
X0137955Y0090825D02*
X0106128Y0090825D01*
X0106128Y0089827D02*
X0137955Y0089827D01*
X0138555Y0088828D02*
X0106128Y0088828D01*
X0106128Y0087830D02*
X0138555Y0087830D01*
X0138555Y0086831D02*
X0106128Y0086831D01*
X0106128Y0085833D02*
X0138555Y0085833D01*
X0138555Y0084834D02*
X0106128Y0084834D01*
X0106128Y0083836D02*
X0138555Y0083836D01*
X0138555Y0082837D02*
X0106128Y0082837D01*
X0106128Y0081839D02*
X0138555Y0081839D01*
X0138555Y0080840D02*
X0106728Y0080840D01*
X0106728Y0079842D02*
X0138555Y0079842D01*
X0138555Y0078843D02*
X0106316Y0078843D01*
X0102728Y0081839D02*
X0089592Y0081839D01*
X0089592Y0082837D02*
X0102728Y0082837D01*
X0102728Y0083836D02*
X0089592Y0083836D01*
X0089592Y0084834D02*
X0102728Y0084834D01*
X0102728Y0085833D02*
X0089592Y0085833D01*
X0089592Y0086831D02*
X0102728Y0086831D01*
X0102728Y0087830D02*
X0089592Y0087830D01*
X0089592Y0088828D02*
X0102728Y0088828D01*
X0102728Y0089827D02*
X0089592Y0089827D01*
X0089592Y0090825D02*
X0102728Y0090825D01*
X0102728Y0091824D02*
X0089592Y0091824D01*
X0089592Y0092822D02*
X0102728Y0092822D01*
X0102728Y0093821D02*
X0089592Y0093821D01*
X0089592Y0094819D02*
X0102728Y0094819D01*
X0102728Y0095818D02*
X0089592Y0095818D01*
X0089592Y0096816D02*
X0102728Y0096816D01*
X0102728Y0097815D02*
X0089592Y0097815D01*
X0089592Y0098813D02*
X0102728Y0098813D01*
X0102728Y0099812D02*
X0089592Y0099812D01*
X0089592Y0100810D02*
X0102728Y0100810D01*
X0102728Y0101809D02*
X0089592Y0101809D01*
X0089592Y0102807D02*
X0102728Y0102807D01*
X0102728Y0103806D02*
X0089592Y0103806D01*
X0089592Y0104804D02*
X0102728Y0104804D01*
X0102728Y0105803D02*
X0089592Y0105803D01*
X0089592Y0106801D02*
X0102728Y0106801D01*
X0102728Y0107800D02*
X0089592Y0107800D01*
X0089592Y0108798D02*
X0102728Y0108798D01*
X0102728Y0109797D02*
X0089592Y0109797D01*
X0089592Y0110795D02*
X0102728Y0110795D01*
X0102728Y0111794D02*
X0089592Y0111794D01*
X0089592Y0112792D02*
X0102728Y0112792D01*
X0102728Y0113791D02*
X0089592Y0113791D01*
X0089592Y0114789D02*
X0102728Y0114789D01*
X0102728Y0115788D02*
X0089592Y0115788D01*
X0089592Y0116787D02*
X0102728Y0116787D01*
X0102728Y0117785D02*
X0089592Y0117785D01*
X0089592Y0118784D02*
X0102728Y0118784D01*
X0102728Y0119782D02*
X0089592Y0119782D01*
X0089592Y0120781D02*
X0102728Y0120781D01*
X0102728Y0121779D02*
X0089592Y0121779D01*
X0089592Y0122778D02*
X0102728Y0122778D01*
X0102728Y0123776D02*
X0089592Y0123776D01*
X0089592Y0124775D02*
X0102728Y0124775D01*
X0102728Y0125773D02*
X0089592Y0125773D01*
X0089592Y0126772D02*
X0102249Y0126772D01*
X0101340Y0127770D02*
X0089592Y0127770D01*
X0090370Y0128769D02*
X0101340Y0128769D01*
X0101522Y0129767D02*
X0090370Y0129767D01*
X0090370Y0130766D02*
X0102521Y0130766D01*
X0101669Y0131764D02*
X0090370Y0131764D01*
X0090370Y0132763D02*
X0101550Y0132763D01*
X0101550Y0133761D02*
X0090370Y0133761D01*
X0089986Y0140751D02*
X0145829Y0140751D01*
X0146182Y0141749D02*
X0089986Y0141749D01*
X0089986Y0145743D02*
X0153750Y0145743D01*
X0153309Y0146742D02*
X0089986Y0146742D01*
X0089986Y0147740D02*
X0153309Y0147740D01*
X0153958Y0148739D02*
X0089986Y0148739D01*
X0089986Y0152733D02*
X0162214Y0152733D01*
X0163044Y0153731D02*
X0089986Y0153731D01*
X0089790Y0154730D02*
X0162836Y0154730D01*
X0165026Y0150736D02*
X0176908Y0150736D01*
X0176908Y0149737D02*
X0164027Y0149737D01*
X0164128Y0148739D02*
X0163029Y0148739D01*
X0162828Y0147740D02*
X0162030Y0147740D01*
X0162199Y0146742D02*
X0161032Y0146742D01*
X0160852Y0145743D02*
X0161836Y0145743D01*
X0161836Y0144745D02*
X0160852Y0144745D01*
X0160852Y0143746D02*
X0162038Y0143746D01*
X0162451Y0142748D02*
X0160852Y0142748D01*
X0160852Y0141749D02*
X0163438Y0141749D01*
X0165164Y0138754D02*
X0160852Y0138754D01*
X0160852Y0139752D02*
X0176908Y0139752D01*
X0176908Y0140751D02*
X0160852Y0140751D01*
X0160852Y0137755D02*
X0163843Y0137755D01*
X0163205Y0136757D02*
X0160852Y0136757D01*
X0160852Y0135758D02*
X0162836Y0135758D01*
X0162836Y0134760D02*
X0160852Y0134760D01*
X0160852Y0133761D02*
X0163032Y0133761D01*
X0163445Y0132763D02*
X0160852Y0132763D01*
X0160852Y0131764D02*
X0164423Y0131764D01*
X0164199Y0128769D02*
X0160852Y0128769D01*
X0160852Y0129767D02*
X0176908Y0129767D01*
X0176908Y0130766D02*
X0160852Y0130766D01*
X0160852Y0127770D02*
X0162858Y0127770D01*
X0162211Y0126772D02*
X0160852Y0126772D01*
X0160852Y0125773D02*
X0161836Y0125773D01*
X0161836Y0124775D02*
X0160852Y0124775D01*
X0160852Y0123776D02*
X0162026Y0123776D01*
X0162439Y0122778D02*
X0160852Y0122778D01*
X0160852Y0121779D02*
X0163408Y0121779D01*
X0160852Y0120781D02*
X0176908Y0120781D01*
X0176908Y0119782D02*
X0160852Y0119782D01*
X0160852Y0118784D02*
X0165235Y0118784D01*
X0163872Y0117785D02*
X0160852Y0117785D01*
X0160852Y0116787D02*
X0163217Y0116787D01*
X0162836Y0115788D02*
X0160852Y0115788D01*
X0160852Y0114789D02*
X0162836Y0114789D01*
X0163019Y0113791D02*
X0160852Y0113791D01*
X0160852Y0112792D02*
X0163433Y0112792D01*
X0164393Y0111794D02*
X0161133Y0111794D01*
X0161452Y0110795D02*
X0176908Y0110795D01*
X0176908Y0109797D02*
X0161452Y0109797D01*
X0160681Y0108798D02*
X0164271Y0108798D01*
X0158490Y0100810D02*
X0176908Y0100810D01*
X0176908Y0099812D02*
X0158490Y0099812D01*
X0169412Y0098813D02*
X0173460Y0098813D01*
X0172382Y0097815D02*
X0170489Y0097815D01*
X0171086Y0096816D02*
X0171785Y0096816D01*
X0171501Y0095818D02*
X0171370Y0095818D01*
X0171268Y0093821D02*
X0171604Y0093821D01*
X0172020Y0092822D02*
X0170851Y0092822D01*
X0170073Y0091824D02*
X0172798Y0091824D01*
X0175436Y0095818D02*
X0176436Y0095818D01*
X0176436Y0096816D02*
X0175436Y0096816D01*
X0175436Y0097815D02*
X0176436Y0097815D01*
X0176436Y0098813D02*
X0175436Y0098813D01*
X0143279Y0096816D02*
X0141167Y0096816D01*
X0141677Y0095818D02*
X0143279Y0095818D01*
X0143279Y0094819D02*
X0142555Y0094819D01*
X0142555Y0093821D02*
X0143279Y0093821D01*
X0143279Y0092822D02*
X0142342Y0092822D01*
X0142127Y0091824D02*
X0143279Y0091824D01*
X0143279Y0090825D02*
X0142555Y0090825D01*
X0142555Y0089827D02*
X0143279Y0089827D01*
X0143279Y0088828D02*
X0141955Y0088828D01*
X0141955Y0087830D02*
X0143279Y0087830D01*
X0143279Y0086831D02*
X0141955Y0086831D01*
X0141955Y0085833D02*
X0143279Y0085833D01*
X0143279Y0084834D02*
X0141955Y0084834D01*
X0141955Y0083836D02*
X0143279Y0083836D01*
X0143279Y0082837D02*
X0141955Y0082837D01*
X0141955Y0081839D02*
X0143279Y0081839D01*
X0143279Y0080840D02*
X0141955Y0080840D01*
X0141955Y0079842D02*
X0143279Y0079842D01*
X0143279Y0078843D02*
X0141955Y0078843D01*
X0141955Y0077845D02*
X0143279Y0077845D01*
X0143279Y0076846D02*
X0141955Y0076846D01*
X0141955Y0075848D02*
X0143279Y0075848D01*
X0143279Y0074849D02*
X0141955Y0074849D01*
X0141955Y0073851D02*
X0143279Y0073851D01*
X0143279Y0072852D02*
X0141955Y0072852D01*
X0141955Y0071853D02*
X0143279Y0071853D01*
X0143279Y0070855D02*
X0141955Y0070855D01*
X0141955Y0069856D02*
X0143279Y0069856D01*
X0143279Y0068858D02*
X0141955Y0068858D01*
X0141955Y0067859D02*
X0143279Y0067859D01*
X0143279Y0066861D02*
X0141955Y0066861D01*
X0141955Y0065862D02*
X0143279Y0065862D01*
X0143279Y0064864D02*
X0141955Y0064864D01*
X0141955Y0063865D02*
X0143279Y0063865D01*
X0143279Y0062867D02*
X0141955Y0062867D01*
X0141955Y0061868D02*
X0143279Y0061868D01*
X0143279Y0060870D02*
X0141955Y0060870D01*
X0141955Y0059871D02*
X0143279Y0059871D01*
X0143279Y0058873D02*
X0141955Y0058873D01*
X0141955Y0057874D02*
X0143279Y0057874D01*
X0143279Y0056876D02*
X0141955Y0056876D01*
X0141955Y0055877D02*
X0143279Y0055877D01*
X0143279Y0054879D02*
X0141955Y0054879D01*
X0141955Y0053880D02*
X0143279Y0053880D01*
X0143279Y0052882D02*
X0141955Y0052882D01*
X0141955Y0051883D02*
X0143279Y0051883D01*
X0143279Y0050885D02*
X0141955Y0050885D01*
X0141955Y0049886D02*
X0143279Y0049886D01*
X0143279Y0048888D02*
X0141955Y0048888D01*
X0141955Y0047889D02*
X0143279Y0047889D01*
X0143279Y0046891D02*
X0141955Y0046891D01*
X0141955Y0045892D02*
X0143279Y0045892D01*
X0143279Y0044894D02*
X0141955Y0044894D01*
X0141955Y0043895D02*
X0143279Y0043895D01*
X0143279Y0042897D02*
X0141955Y0042897D01*
X0142053Y0041898D02*
X0143279Y0041898D01*
X0143279Y0040900D02*
X0142555Y0040900D01*
X0142555Y0039901D02*
X0143279Y0039901D01*
X0143279Y0038903D02*
X0141966Y0038903D01*
X0143279Y0037904D02*
X0138411Y0037904D01*
X0138411Y0036906D02*
X0143279Y0036906D01*
X0143279Y0035907D02*
X0138989Y0035907D01*
X0139011Y0034909D02*
X0143279Y0034909D01*
X0143279Y0033910D02*
X0138942Y0033910D01*
X0137944Y0032912D02*
X0143279Y0032912D01*
X0138543Y0038903D02*
X0138411Y0038903D01*
X0138411Y0041853D02*
X0138411Y0073143D01*
X0138555Y0073286D01*
X0138555Y0041996D01*
X0138411Y0041853D01*
X0138411Y0041898D02*
X0138456Y0041898D01*
X0138411Y0042897D02*
X0138555Y0042897D01*
X0138555Y0043895D02*
X0138411Y0043895D01*
X0138411Y0044894D02*
X0138555Y0044894D01*
X0138555Y0045892D02*
X0138411Y0045892D01*
X0138411Y0046891D02*
X0138555Y0046891D01*
X0138555Y0047889D02*
X0138411Y0047889D01*
X0138411Y0048888D02*
X0138555Y0048888D01*
X0138555Y0049886D02*
X0138411Y0049886D01*
X0138411Y0050885D02*
X0138555Y0050885D01*
X0138555Y0051883D02*
X0138411Y0051883D01*
X0138411Y0052882D02*
X0138555Y0052882D01*
X0138555Y0053880D02*
X0138411Y0053880D01*
X0138411Y0054879D02*
X0138555Y0054879D01*
X0138555Y0055877D02*
X0138411Y0055877D01*
X0138411Y0056876D02*
X0138555Y0056876D01*
X0138555Y0057874D02*
X0138411Y0057874D01*
X0138411Y0058873D02*
X0138555Y0058873D01*
X0138555Y0059871D02*
X0138411Y0059871D01*
X0138411Y0060870D02*
X0138555Y0060870D01*
X0138555Y0061868D02*
X0138411Y0061868D01*
X0138411Y0062867D02*
X0138555Y0062867D01*
X0138555Y0063865D02*
X0138411Y0063865D01*
X0138411Y0064864D02*
X0138555Y0064864D01*
X0138555Y0065862D02*
X0138411Y0065862D01*
X0138411Y0066861D02*
X0138555Y0066861D01*
X0138555Y0067859D02*
X0138411Y0067859D01*
X0138411Y0068858D02*
X0138555Y0068858D01*
X0138555Y0069856D02*
X0138411Y0069856D01*
X0138411Y0070855D02*
X0138555Y0070855D01*
X0138555Y0071853D02*
X0138411Y0071853D01*
X0138411Y0072852D02*
X0138555Y0072852D01*
X0135011Y0072852D02*
X0089301Y0072852D01*
X0090192Y0073851D02*
X0134411Y0073851D01*
X0134411Y0074849D02*
X0090192Y0074849D01*
X0089993Y0075848D02*
X0134610Y0075848D01*
X0135609Y0076846D02*
X0089592Y0076846D01*
X0089592Y0077845D02*
X0138555Y0077845D01*
X0138555Y0076846D02*
X0137814Y0076846D01*
X0135011Y0069856D02*
X0071139Y0069856D01*
X0071139Y0068858D02*
X0135011Y0068858D01*
X0135011Y0067859D02*
X0071139Y0067859D01*
X0070984Y0066861D02*
X0135011Y0066861D01*
X0102540Y0078843D02*
X0089592Y0078843D01*
X0089592Y0079842D02*
X0102128Y0079842D01*
X0102128Y0080840D02*
X0089592Y0080840D01*
X0086192Y0081839D02*
X0049435Y0081839D01*
X0049435Y0082837D02*
X0086192Y0082837D01*
X0086192Y0083836D02*
X0049435Y0083836D01*
X0049435Y0084834D02*
X0086192Y0084834D01*
X0081924Y0088828D02*
X0055940Y0088828D01*
X0055148Y0089827D02*
X0081262Y0089827D01*
X0081262Y0090825D02*
X0054947Y0090825D01*
X0051547Y0090825D02*
X0049435Y0090825D01*
X0049435Y0089827D02*
X0051547Y0089827D01*
X0051340Y0088828D02*
X0049435Y0088828D01*
X0049435Y0087830D02*
X0051340Y0087830D01*
X0051638Y0086831D02*
X0049435Y0086831D01*
X0049435Y0085833D02*
X0052637Y0085833D01*
X0051547Y0091824D02*
X0049435Y0091824D01*
X0049435Y0092822D02*
X0051547Y0092822D01*
X0051547Y0093821D02*
X0049435Y0093821D01*
X0050713Y0094819D02*
X0051547Y0094819D01*
X0051547Y0095818D02*
X0051000Y0095818D01*
X0051000Y0096816D02*
X0051547Y0096816D01*
X0051547Y0097815D02*
X0051000Y0097815D01*
X0051000Y0098813D02*
X0051547Y0098813D01*
X0051547Y0099812D02*
X0051000Y0099812D01*
X0051000Y0100810D02*
X0051547Y0100810D01*
X0051547Y0101809D02*
X0044317Y0101809D01*
X0051000Y0102807D02*
X0051547Y0102807D01*
X0051547Y0103806D02*
X0051000Y0103806D01*
X0051000Y0104804D02*
X0051547Y0104804D01*
X0051547Y0105803D02*
X0051000Y0105803D01*
X0051000Y0106801D02*
X0051547Y0106801D01*
X0051547Y0107800D02*
X0051000Y0107800D01*
X0050818Y0108798D02*
X0051547Y0108798D01*
X0071139Y0078843D02*
X0086192Y0078843D01*
X0086192Y0077845D02*
X0071139Y0077845D01*
X0070969Y0076846D02*
X0086192Y0076846D01*
X0104760Y0130766D02*
X0137767Y0130766D01*
X0114010Y0167787D02*
X0113668Y0167589D01*
X0113287Y0167487D01*
X0110833Y0167487D01*
X0110833Y0172424D01*
X0109833Y0172424D01*
X0109833Y0173424D01*
X0106077Y0173424D01*
X0106077Y0177059D01*
X0106180Y0177440D01*
X0106377Y0177782D01*
X0106656Y0178061D01*
X0106998Y0178259D01*
X0107380Y0178361D01*
X0109833Y0178361D01*
X0109833Y0173424D01*
X0110833Y0173424D01*
X0110833Y0178361D01*
X0113287Y0178361D01*
X0113668Y0178259D01*
X0114010Y0178061D01*
X0114290Y0177782D01*
X0114487Y0177440D01*
X0114589Y0177059D01*
X0114589Y0173424D01*
X0110833Y0173424D01*
X0110833Y0172424D01*
X0114589Y0172424D01*
X0114589Y0168790D01*
X0114487Y0168408D01*
X0114290Y0168066D01*
X0114010Y0167787D01*
X0113878Y0167711D02*
X0162798Y0167711D01*
X0164056Y0168709D02*
X0114568Y0168709D01*
X0114589Y0169708D02*
X0176908Y0169708D01*
X0176908Y0170706D02*
X0114589Y0170706D01*
X0114589Y0171705D02*
X0164483Y0171705D01*
X0163484Y0172703D02*
X0110833Y0172703D01*
X0110833Y0171705D02*
X0109833Y0171705D01*
X0109833Y0172703D02*
X0096061Y0172703D01*
X0096396Y0173702D02*
X0106077Y0173702D01*
X0106077Y0174700D02*
X0096396Y0174700D01*
X0096308Y0175699D02*
X0106077Y0175699D01*
X0106077Y0176697D02*
X0095894Y0176697D01*
X0095254Y0177696D02*
X0106327Y0177696D01*
X0109833Y0177696D02*
X0110833Y0177696D01*
X0110833Y0176697D02*
X0109833Y0176697D01*
X0109833Y0175699D02*
X0110833Y0175699D01*
X0110833Y0174700D02*
X0109833Y0174700D01*
X0109833Y0173702D02*
X0110833Y0173702D01*
X0110833Y0170706D02*
X0109833Y0170706D01*
X0109833Y0169708D02*
X0110833Y0169708D01*
X0110833Y0168709D02*
X0109833Y0168709D01*
X0109833Y0167711D02*
X0110833Y0167711D01*
X0106077Y0171705D02*
X0095648Y0171705D01*
X0094256Y0178694D02*
X0165020Y0178694D01*
X0163783Y0177696D02*
X0114339Y0177696D01*
X0114589Y0176697D02*
X0163180Y0176697D01*
X0162836Y0175699D02*
X0114589Y0175699D01*
X0114589Y0174700D02*
X0162836Y0174700D01*
X0163056Y0173702D02*
X0114589Y0173702D01*
X0150078Y0195669D02*
X0162436Y0195669D01*
X0166436Y0194670D02*
X0150569Y0194670D01*
D23*
X0140058Y0167412D03*
X0155609Y0147137D03*
X0151278Y0143593D03*
X0148129Y0140444D03*
X0139467Y0136507D03*
X0144979Y0114459D03*
X0152066Y0102648D03*
X0152066Y0098711D03*
X0148129Y0093987D03*
X0140255Y0093987D03*
X0140255Y0090444D03*
X0136711Y0074696D03*
X0148129Y0050680D03*
X0152459Y0044774D03*
X0140255Y0040444D03*
X0136711Y0034932D03*
X0144979Y0025877D03*
X0156790Y0030601D03*
X0104428Y0080207D03*
X0087892Y0074696D03*
X0083562Y0090444D03*
X0070570Y0106585D03*
X0074900Y0110522D03*
X0079231Y0114459D03*
X0066239Y0102648D03*
X0061908Y0098711D03*
X0057577Y0093987D03*
X0053640Y0088081D03*
X0078444Y0141231D03*
X0073325Y0150286D03*
X0068995Y0153830D03*
X0103640Y0128633D03*
X0156790Y0106585D03*
X0159152Y0110522D03*
D24*
X0159152Y0147267D01*
X0166936Y0155050D01*
X0155609Y0147137D02*
X0155609Y0107767D01*
X0156790Y0106585D02*
X0156790Y0030601D01*
X0144979Y0025877D02*
X0144979Y0114459D01*
X0151278Y0103436D02*
X0151278Y0143593D01*
X0148129Y0140444D02*
X0148129Y0099893D01*
X0152066Y0098711D02*
X0152066Y0045168D01*
X0148129Y0050680D02*
X0148129Y0093987D01*
X0140255Y0090444D02*
X0140255Y0040444D01*
X0136711Y0034932D02*
X0136711Y0074696D01*
X0139467Y0094774D02*
X0139467Y0136507D01*
X0104428Y0127845D02*
X0104428Y0080207D01*
X0087892Y0074696D02*
X0087892Y0131704D01*
X0088286Y0132097D02*
X0088286Y0153830D01*
X0068995Y0153830D01*
X0073325Y0150286D02*
X0082774Y0150286D01*
X0083562Y0149499D01*
X0083562Y0131704D01*
X0083562Y0090444D01*
X0070570Y0106585D02*
X0070570Y0131704D01*
X0074900Y0131704D02*
X0074900Y0110522D01*
X0079231Y0114459D02*
X0079231Y0131704D01*
X0078444Y0132491D02*
X0078444Y0141231D01*
X0066239Y0131704D02*
X0066239Y0102648D01*
X0061908Y0098711D02*
X0061908Y0131704D01*
X0057577Y0131704D02*
X0057577Y0093987D01*
X0053247Y0088475D02*
X0053247Y0131704D01*
X0042223Y0110326D02*
X0046948Y0105601D01*
X0042617Y0106979D02*
X0042617Y0099105D01*
X0043404Y0098318D01*
X0046751Y0098318D01*
X0046948Y0098121D01*
X0047735Y0097333D01*
X0047735Y0074696D01*
X0048916Y0073515D01*
X0054821Y0073515D01*
X0053640Y0088081D02*
X0053247Y0088475D01*
X0042617Y0106979D02*
X0039467Y0110129D01*
X0030857Y0110129D01*
X0025936Y0115050D01*
X0042223Y0110326D02*
X0042223Y0164853D01*
X0042224Y0164853D02*
X0042243Y0164989D01*
X0042258Y0165125D01*
X0042269Y0165262D01*
X0042276Y0165400D01*
X0042280Y0165537D01*
X0042279Y0165674D01*
X0042275Y0165812D01*
X0042266Y0165949D01*
X0042254Y0166086D01*
X0042237Y0166222D01*
X0042217Y0166358D01*
X0042193Y0166493D01*
X0042165Y0166628D01*
X0042133Y0166761D01*
X0042097Y0166894D01*
X0042058Y0167026D01*
X0042014Y0167156D01*
X0041967Y0167285D01*
X0041916Y0167413D01*
X0041862Y0167539D01*
X0041804Y0167663D01*
X0041743Y0167786D01*
X0041678Y0167907D01*
X0041609Y0168026D01*
X0041537Y0168144D01*
X0041462Y0168259D01*
X0041383Y0168371D01*
X0041302Y0168482D01*
X0041217Y0168590D01*
X0041129Y0168695D01*
X0041038Y0168798D01*
X0040944Y0168899D01*
X0040848Y0168996D01*
X0040748Y0169091D01*
X0040646Y0169183D01*
X0040541Y0169272D01*
X0040434Y0169358D01*
X0040324Y0169441D01*
X0040212Y0169520D01*
X0040098Y0169597D01*
X0039982Y0169670D01*
X0039863Y0169739D01*
X0039743Y0169806D01*
X0039621Y0169868D01*
X0039497Y0169928D01*
X0039371Y0169983D01*
X0039244Y0170035D01*
X0039115Y0170083D01*
X0038985Y0170128D01*
X0038854Y0170169D01*
X0038722Y0170206D01*
X0038589Y0170239D01*
X0038454Y0170269D01*
X0038319Y0170294D01*
X0038184Y0170316D01*
X0038047Y0170333D01*
X0037911Y0170347D01*
X0037774Y0170357D01*
X0037636Y0170363D01*
X0037499Y0170365D01*
X0030018Y0170365D01*
X0025936Y0174448D01*
X0025936Y0175050D01*
X0103640Y0128633D02*
X0104428Y0127845D01*
D25*
X0088286Y0132097D02*
X0087892Y0131704D01*
X0079231Y0131704D02*
X0078444Y0132491D01*
X0139467Y0094774D02*
X0140255Y0093987D01*
X0148129Y0099893D02*
X0149310Y0098711D01*
X0152066Y0098711D01*
X0152066Y0102648D02*
X0151278Y0103436D01*
X0155609Y0107767D02*
X0156790Y0106585D01*
X0166936Y0155050D02*
X0166385Y0155601D01*
X0152066Y0045168D02*
X0152459Y0044774D01*
M02*
