G75*
%MOIN*%
%OFA0B0*%
%FSLAX25Y25*%
%IPPOS*%
%LPD*%
%AMOC8*
5,1,8,0,0,1.08239X$1,22.5*
%
%ADD10C,0.01200*%
%ADD11C,0.00300*%
%ADD12C,0.01600*%
%ADD13C,0.00500*%
%ADD14R,0.14552X0.00131*%
%ADD15R,0.15732X0.00131*%
%ADD16R,0.16650X0.00131*%
%ADD17R,0.17306X0.00131*%
%ADD18R,0.17961X0.00131*%
%ADD19R,0.18485X0.00131*%
%ADD20R,0.18879X0.00131*%
%ADD21R,0.19272X0.00131*%
%ADD22R,0.19665X0.00131*%
%ADD23R,0.20059X0.00131*%
%ADD24R,0.20452X0.00131*%
%ADD25R,0.20714X0.00131*%
%ADD26R,0.20976X0.00131*%
%ADD27R,0.21370X0.00131*%
%ADD28R,0.21501X0.00131*%
%ADD29R,0.21763X0.00131*%
%ADD30R,0.22025X0.00131*%
%ADD31R,0.22287X0.00131*%
%ADD32R,0.22419X0.00131*%
%ADD33R,0.22681X0.00131*%
%ADD34R,0.22812X0.00131*%
%ADD35R,0.23074X0.00131*%
%ADD36R,0.23205X0.00131*%
%ADD37R,0.23336X0.00131*%
%ADD38R,0.23598X0.00131*%
%ADD39R,0.23730X0.00131*%
%ADD40R,0.23861X0.00131*%
%ADD41R,0.23992X0.00131*%
%ADD42R,0.24123X0.00131*%
%ADD43R,0.24385X0.00131*%
%ADD44R,0.24516X0.00131*%
%ADD45R,0.24647X0.00131*%
%ADD46R,0.24778X0.00131*%
%ADD47R,0.24909X0.00131*%
%ADD48R,0.25041X0.00131*%
%ADD49R,0.25172X0.00131*%
%ADD50R,0.25303X0.00131*%
%ADD51R,0.25434X0.00131*%
%ADD52R,0.25565X0.00131*%
%ADD53R,0.25696X0.00131*%
%ADD54R,0.25827X0.00131*%
%ADD55R,0.25958X0.00131*%
%ADD56R,0.26089X0.00131*%
%ADD57R,0.26220X0.00131*%
%ADD58R,0.26352X0.00131*%
%ADD59R,0.26483X0.00131*%
%ADD60R,0.26614X0.00131*%
%ADD61R,0.26745X0.00131*%
%ADD62R,0.26876X0.00131*%
%ADD63R,0.27007X0.00131*%
%ADD64R,0.27138X0.00131*%
%ADD65R,0.27269X0.00131*%
%ADD66R,0.27400X0.00131*%
%ADD67R,0.27531X0.00131*%
%ADD68R,0.27663X0.00131*%
%ADD69R,0.27794X0.00131*%
%ADD70R,0.27925X0.00131*%
%ADD71R,0.28056X0.00131*%
%ADD72R,0.30809X0.00131*%
%ADD73R,0.31465X0.00131*%
%ADD74R,0.31858X0.00131*%
%ADD75R,0.32251X0.00131*%
%ADD76R,0.32513X0.00131*%
%ADD77R,0.32644X0.00131*%
%ADD78R,0.32776X0.00131*%
%ADD79R,0.32382X0.00131*%
%ADD80R,0.31989X0.00131*%
%ADD81R,0.31596X0.00131*%
%ADD82R,0.31071X0.00131*%
%ADD83R,0.07735X0.00131*%
%ADD84R,0.07604X0.00131*%
%ADD85R,0.18223X0.00131*%
%ADD86R,0.07473X0.00131*%
%ADD87R,0.07342X0.00131*%
%ADD88R,0.17830X0.00131*%
%ADD89R,0.17699X0.00131*%
%ADD90R,0.17568X0.00131*%
%ADD91R,0.17043X0.00131*%
%ADD92R,0.16781X0.00131*%
%ADD93R,0.16388X0.00131*%
%ADD94R,0.16126X0.00131*%
%ADD95R,0.15863X0.00131*%
%ADD96R,0.15601X0.00131*%
%ADD97R,0.15077X0.00131*%
%ADD98R,0.12324X0.00131*%
%ADD99R,0.01835X0.00131*%
%ADD100R,0.11930X0.00131*%
%ADD101R,0.11799X0.00131*%
%ADD102R,0.11406X0.00131*%
%ADD103R,0.11013X0.00131*%
%ADD104R,0.10750X0.00131*%
%ADD105R,0.10357X0.00131*%
%ADD106R,0.10226X0.00131*%
%ADD107R,0.10095X0.00131*%
%ADD108R,0.02491X0.00131*%
%ADD109R,0.04457X0.00131*%
%ADD110R,0.14946X0.00131*%
%ADD111R,0.14815X0.00131*%
%ADD112R,0.14683X0.00131*%
%ADD113R,0.14421X0.00131*%
%ADD114R,0.12061X0.00131*%
%ADD115R,0.01967X0.00131*%
%ADD116R,0.01180X0.00131*%
%ADD117R,0.00524X0.00131*%
%ADD118R,0.11537X0.00131*%
%ADD119R,0.02098X0.00131*%
%ADD120R,0.06162X0.00131*%
%ADD121R,0.01442X0.00131*%
%ADD122R,0.05637X0.00131*%
%ADD123R,0.00262X0.00131*%
%ADD124R,0.04982X0.00131*%
%ADD125R,0.01704X0.00131*%
%ADD126R,0.04195X0.00131*%
%ADD127R,0.03409X0.00131*%
%ADD128R,0.01049X0.00131*%
%ADD129R,0.00656X0.00131*%
%ADD130R,0.00393X0.00131*%
%ADD131R,0.00131X0.00131*%
%ADD132R,0.00918X0.00131*%
%ADD133R,0.02229X0.00131*%
%ADD134R,0.02753X0.00131*%
%ADD135R,0.03015X0.00131*%
%ADD136R,0.03278X0.00131*%
%ADD137R,0.03540X0.00131*%
%ADD138R,0.03671X0.00131*%
%ADD139R,0.03802X0.00131*%
%ADD140R,0.04064X0.00131*%
%ADD141R,0.04326X0.00131*%
%ADD142R,0.04589X0.00131*%
%ADD143R,0.04851X0.00131*%
%ADD144R,0.05113X0.00131*%
%ADD145R,0.05375X0.00131*%
%ADD146R,0.05900X0.00131*%
%ADD147R,0.06424X0.00131*%
%ADD148R,0.06686X0.00131*%
%ADD149R,0.06948X0.00131*%
%ADD150R,0.07211X0.00131*%
%ADD151R,0.07997X0.00131*%
%ADD152R,0.08128X0.00131*%
%ADD153R,0.08259X0.00131*%
%ADD154R,0.08522X0.00131*%
%ADD155R,0.08784X0.00131*%
%ADD156R,0.08915X0.00131*%
%ADD157R,0.09046X0.00131*%
%ADD158R,0.09308X0.00131*%
%ADD159R,0.09570X0.00131*%
%ADD160R,0.09702X0.00131*%
%ADD161R,0.09833X0.00131*%
%ADD162R,0.05506X0.00131*%
%ADD163R,0.05244X0.00131*%
%ADD164R,0.04720X0.00131*%
%ADD165R,0.06293X0.00131*%
%ADD166R,0.12193X0.00131*%
%ADD167R,0.12455X0.00131*%
%ADD168R,0.12586X0.00131*%
%ADD169R,0.12717X0.00131*%
%ADD170R,0.12979X0.00131*%
%ADD171R,0.13241X0.00131*%
%ADD172R,0.13372X0.00131*%
%ADD173R,0.13504X0.00131*%
%ADD174R,0.13766X0.00131*%
%ADD175R,0.14028X0.00131*%
%ADD176R,0.14159X0.00131*%
%ADD177R,0.14290X0.00131*%
%ADD178R,0.15339X0.00131*%
%ADD179R,0.15470X0.00131*%
%ADD180R,0.16257X0.00131*%
%ADD181R,0.16519X0.00131*%
%ADD182R,0.16912X0.00131*%
%ADD183R,0.17437X0.00131*%
%ADD184R,0.18092X0.00131*%
%ADD185R,0.18617X0.00131*%
%ADD186R,0.19010X0.00131*%
%ADD187R,0.19403X0.00131*%
%ADD188R,0.13635X0.00131*%
%ADD189R,0.05769X0.00131*%
%ADD190R,0.06031X0.00131*%
%ADD191R,0.21107X0.00131*%
%ADD192R,0.21894X0.00131*%
%ADD193R,0.22156X0.00131*%
%ADD194R,0.22550X0.00131*%
%ADD195R,0.22943X0.00131*%
%ADD196R,0.15208X0.00131*%
%ADD197R,0.08391X0.00131*%
%ADD198R,0.24254X0.00131*%
%ADD199R,0.03146X0.00131*%
%ADD200R,0.20845X0.00131*%
%ADD201R,0.07866X0.00131*%
%ADD202R,0.21632X0.00131*%
%ADD203R,0.21239X0.00131*%
%ADD204R,0.20190X0.00131*%
%ADD205R,0.19534X0.00131*%
%ADD206R,0.17174X0.00131*%
%ADD207R,0.15994X0.00131*%
%ADD208R,0.11144X0.00131*%
%ADD209C,0.00800*%
%ADD210C,0.00200*%
%ADD211C,0.00000*%
%ADD212C,0.00700*%
D10*
X0138441Y0069587D02*
X0138441Y0078795D01*
X0138441Y0083399D02*
X0138441Y0092607D01*
X0140743Y0092607D01*
X0149951Y0083399D01*
X0152253Y0083399D01*
X0152253Y0092607D01*
X0152253Y0097211D02*
X0143045Y0097211D01*
X0138441Y0101815D01*
X0143045Y0106418D01*
X0152253Y0106418D01*
X0145347Y0106418D02*
X0145347Y0097211D01*
X0138441Y0111022D02*
X0138441Y0120230D01*
X0138441Y0115626D02*
X0152253Y0115626D01*
X0152253Y0124834D02*
X0149951Y0124834D01*
X0140743Y0134042D01*
X0138441Y0134042D01*
X0138441Y0124834D01*
X0138441Y0138646D02*
X0138441Y0143250D01*
X0138441Y0140948D02*
X0152253Y0140948D01*
X0152253Y0138646D02*
X0152253Y0143250D01*
X0152253Y0147854D02*
X0138441Y0147854D01*
X0145347Y0150156D02*
X0152253Y0157062D01*
X0152253Y0161666D02*
X0152253Y0166270D01*
X0152253Y0163968D02*
X0138441Y0163968D01*
X0138441Y0161666D02*
X0138441Y0166270D01*
X0138441Y0157062D02*
X0147649Y0147854D01*
X0152253Y0134042D02*
X0152253Y0124834D01*
X0152253Y0074191D02*
X0138441Y0074191D01*
X0171750Y0034932D02*
X0171752Y0035063D01*
X0171758Y0035195D01*
X0171768Y0035326D01*
X0171782Y0035457D01*
X0171800Y0035587D01*
X0171822Y0035716D01*
X0171847Y0035845D01*
X0171877Y0035973D01*
X0171911Y0036100D01*
X0171948Y0036227D01*
X0171989Y0036351D01*
X0172034Y0036475D01*
X0172083Y0036597D01*
X0172135Y0036718D01*
X0172191Y0036836D01*
X0172251Y0036954D01*
X0172314Y0037069D01*
X0172381Y0037182D01*
X0172451Y0037294D01*
X0172524Y0037403D01*
X0172600Y0037509D01*
X0172680Y0037614D01*
X0172763Y0037716D01*
X0172849Y0037815D01*
X0172938Y0037912D01*
X0173030Y0038006D01*
X0173125Y0038097D01*
X0173222Y0038186D01*
X0173322Y0038271D01*
X0173425Y0038353D01*
X0173530Y0038432D01*
X0173637Y0038508D01*
X0173747Y0038580D01*
X0173859Y0038649D01*
X0173973Y0038715D01*
X0174088Y0038777D01*
X0174206Y0038836D01*
X0174325Y0038891D01*
X0174446Y0038943D01*
X0174569Y0038990D01*
X0174693Y0039034D01*
X0174818Y0039075D01*
X0174944Y0039111D01*
X0175072Y0039144D01*
X0175200Y0039172D01*
X0175329Y0039197D01*
X0175459Y0039218D01*
X0175589Y0039235D01*
X0175720Y0039248D01*
X0175851Y0039257D01*
X0175982Y0039262D01*
X0176114Y0039263D01*
X0176245Y0039260D01*
X0176377Y0039253D01*
X0176508Y0039242D01*
X0176638Y0039227D01*
X0176768Y0039208D01*
X0176898Y0039185D01*
X0177026Y0039159D01*
X0177154Y0039128D01*
X0177281Y0039093D01*
X0177407Y0039055D01*
X0177531Y0039013D01*
X0177655Y0038967D01*
X0177776Y0038917D01*
X0177896Y0038864D01*
X0178015Y0038807D01*
X0178132Y0038747D01*
X0178246Y0038683D01*
X0178359Y0038615D01*
X0178470Y0038544D01*
X0178579Y0038470D01*
X0178685Y0038393D01*
X0178789Y0038312D01*
X0178890Y0038229D01*
X0178989Y0038142D01*
X0179085Y0038052D01*
X0179178Y0037959D01*
X0179269Y0037864D01*
X0179356Y0037766D01*
X0179441Y0037665D01*
X0179522Y0037562D01*
X0179600Y0037456D01*
X0179675Y0037348D01*
X0179747Y0037238D01*
X0179815Y0037126D01*
X0179880Y0037012D01*
X0179941Y0036895D01*
X0179999Y0036777D01*
X0180053Y0036657D01*
X0180104Y0036536D01*
X0180151Y0036413D01*
X0180194Y0036289D01*
X0180233Y0036164D01*
X0180269Y0036037D01*
X0180300Y0035909D01*
X0180328Y0035781D01*
X0180352Y0035652D01*
X0180372Y0035522D01*
X0180388Y0035391D01*
X0180400Y0035260D01*
X0180408Y0035129D01*
X0180412Y0034998D01*
X0180412Y0034866D01*
X0180408Y0034735D01*
X0180400Y0034604D01*
X0180388Y0034473D01*
X0180372Y0034342D01*
X0180352Y0034212D01*
X0180328Y0034083D01*
X0180300Y0033955D01*
X0180269Y0033827D01*
X0180233Y0033700D01*
X0180194Y0033575D01*
X0180151Y0033451D01*
X0180104Y0033328D01*
X0180053Y0033207D01*
X0179999Y0033087D01*
X0179941Y0032969D01*
X0179880Y0032852D01*
X0179815Y0032738D01*
X0179747Y0032626D01*
X0179675Y0032516D01*
X0179600Y0032408D01*
X0179522Y0032302D01*
X0179441Y0032199D01*
X0179356Y0032098D01*
X0179269Y0032000D01*
X0179178Y0031905D01*
X0179085Y0031812D01*
X0178989Y0031722D01*
X0178890Y0031635D01*
X0178789Y0031552D01*
X0178685Y0031471D01*
X0178579Y0031394D01*
X0178470Y0031320D01*
X0178359Y0031249D01*
X0178247Y0031181D01*
X0178132Y0031117D01*
X0178015Y0031057D01*
X0177896Y0031000D01*
X0177776Y0030947D01*
X0177655Y0030897D01*
X0177531Y0030851D01*
X0177407Y0030809D01*
X0177281Y0030771D01*
X0177154Y0030736D01*
X0177026Y0030705D01*
X0176898Y0030679D01*
X0176768Y0030656D01*
X0176638Y0030637D01*
X0176508Y0030622D01*
X0176377Y0030611D01*
X0176245Y0030604D01*
X0176114Y0030601D01*
X0175982Y0030602D01*
X0175851Y0030607D01*
X0175720Y0030616D01*
X0175589Y0030629D01*
X0175459Y0030646D01*
X0175329Y0030667D01*
X0175200Y0030692D01*
X0175072Y0030720D01*
X0174944Y0030753D01*
X0174818Y0030789D01*
X0174693Y0030830D01*
X0174569Y0030874D01*
X0174446Y0030921D01*
X0174325Y0030973D01*
X0174206Y0031028D01*
X0174088Y0031087D01*
X0173973Y0031149D01*
X0173859Y0031215D01*
X0173747Y0031284D01*
X0173637Y0031356D01*
X0173530Y0031432D01*
X0173425Y0031511D01*
X0173322Y0031593D01*
X0173222Y0031678D01*
X0173125Y0031767D01*
X0173030Y0031858D01*
X0172938Y0031952D01*
X0172849Y0032049D01*
X0172763Y0032148D01*
X0172680Y0032250D01*
X0172600Y0032355D01*
X0172524Y0032461D01*
X0172451Y0032570D01*
X0172381Y0032682D01*
X0172314Y0032795D01*
X0172251Y0032910D01*
X0172191Y0033028D01*
X0172135Y0033146D01*
X0172083Y0033267D01*
X0172034Y0033389D01*
X0171989Y0033513D01*
X0171948Y0033637D01*
X0171911Y0033764D01*
X0171877Y0033891D01*
X0171847Y0034019D01*
X0171822Y0034148D01*
X0171800Y0034277D01*
X0171782Y0034407D01*
X0171768Y0034538D01*
X0171758Y0034669D01*
X0171752Y0034801D01*
X0171750Y0034932D01*
D11*
X0063175Y0023628D02*
X0061940Y0023010D01*
X0060706Y0021776D01*
X0062558Y0021776D01*
X0063175Y0021159D01*
X0063175Y0020542D01*
X0062558Y0019924D01*
X0061323Y0019924D01*
X0060706Y0020542D01*
X0060706Y0021776D01*
X0059492Y0019924D02*
X0057023Y0019924D01*
X0058257Y0019924D02*
X0058257Y0023628D01*
X0057023Y0022393D01*
X0055808Y0023010D02*
X0055808Y0020542D01*
X0055191Y0019924D01*
X0053957Y0019924D01*
X0053340Y0020542D01*
X0055808Y0023010D01*
X0055191Y0023628D01*
X0053957Y0023628D01*
X0053340Y0023010D01*
X0053340Y0020542D01*
X0052125Y0019924D02*
X0049657Y0019924D01*
X0052125Y0022393D01*
X0052125Y0023010D01*
X0051508Y0023628D01*
X0050274Y0023628D01*
X0049657Y0023010D01*
X0050891Y0025924D02*
X0052125Y0028393D01*
X0053340Y0029010D02*
X0053340Y0026542D01*
X0055808Y0029010D01*
X0055808Y0026542D01*
X0055191Y0025924D01*
X0053957Y0025924D01*
X0053340Y0026542D01*
X0053340Y0029010D02*
X0053957Y0029628D01*
X0055191Y0029628D01*
X0055808Y0029010D01*
X0055808Y0031924D02*
X0053957Y0033776D01*
X0053340Y0033159D02*
X0055808Y0035628D01*
X0057023Y0035628D02*
X0057023Y0031924D01*
X0058257Y0033159D01*
X0059492Y0031924D01*
X0059492Y0035628D01*
X0058864Y0029628D02*
X0058864Y0027776D01*
X0060099Y0028393D01*
X0060716Y0028393D01*
X0061333Y0027776D01*
X0061333Y0026542D01*
X0060716Y0025924D01*
X0059482Y0025924D01*
X0058864Y0026542D01*
X0057640Y0026542D02*
X0057640Y0025924D01*
X0057023Y0025924D01*
X0057023Y0026542D01*
X0057640Y0026542D01*
X0058864Y0029628D02*
X0061333Y0029628D01*
X0053340Y0031924D02*
X0053340Y0035628D01*
X0052125Y0035628D02*
X0050891Y0035628D01*
X0051508Y0035628D02*
X0051508Y0032542D01*
X0050891Y0031924D01*
X0050274Y0031924D01*
X0049657Y0032542D01*
X0049657Y0028393D02*
X0050891Y0025924D01*
D12*
X0161514Y0025089D02*
X0161516Y0025220D01*
X0161522Y0025352D01*
X0161532Y0025483D01*
X0161546Y0025614D01*
X0161564Y0025744D01*
X0161586Y0025873D01*
X0161611Y0026002D01*
X0161641Y0026130D01*
X0161675Y0026257D01*
X0161712Y0026384D01*
X0161753Y0026508D01*
X0161798Y0026632D01*
X0161847Y0026754D01*
X0161899Y0026875D01*
X0161955Y0026993D01*
X0162015Y0027111D01*
X0162078Y0027226D01*
X0162145Y0027339D01*
X0162215Y0027451D01*
X0162288Y0027560D01*
X0162364Y0027666D01*
X0162444Y0027771D01*
X0162527Y0027873D01*
X0162613Y0027972D01*
X0162702Y0028069D01*
X0162794Y0028163D01*
X0162889Y0028254D01*
X0162986Y0028343D01*
X0163086Y0028428D01*
X0163189Y0028510D01*
X0163294Y0028589D01*
X0163401Y0028665D01*
X0163511Y0028737D01*
X0163623Y0028806D01*
X0163737Y0028872D01*
X0163852Y0028934D01*
X0163970Y0028993D01*
X0164089Y0029048D01*
X0164210Y0029100D01*
X0164333Y0029147D01*
X0164457Y0029191D01*
X0164582Y0029232D01*
X0164708Y0029268D01*
X0164836Y0029301D01*
X0164964Y0029329D01*
X0165093Y0029354D01*
X0165223Y0029375D01*
X0165353Y0029392D01*
X0165484Y0029405D01*
X0165615Y0029414D01*
X0165746Y0029419D01*
X0165878Y0029420D01*
X0166009Y0029417D01*
X0166141Y0029410D01*
X0166272Y0029399D01*
X0166402Y0029384D01*
X0166532Y0029365D01*
X0166662Y0029342D01*
X0166790Y0029316D01*
X0166918Y0029285D01*
X0167045Y0029250D01*
X0167171Y0029212D01*
X0167295Y0029170D01*
X0167419Y0029124D01*
X0167540Y0029074D01*
X0167660Y0029021D01*
X0167779Y0028964D01*
X0167896Y0028904D01*
X0168010Y0028840D01*
X0168123Y0028772D01*
X0168234Y0028701D01*
X0168343Y0028627D01*
X0168449Y0028550D01*
X0168553Y0028469D01*
X0168654Y0028386D01*
X0168753Y0028299D01*
X0168849Y0028209D01*
X0168942Y0028116D01*
X0169033Y0028021D01*
X0169120Y0027923D01*
X0169205Y0027822D01*
X0169286Y0027719D01*
X0169364Y0027613D01*
X0169439Y0027505D01*
X0169511Y0027395D01*
X0169579Y0027283D01*
X0169644Y0027169D01*
X0169705Y0027052D01*
X0169763Y0026934D01*
X0169817Y0026814D01*
X0169868Y0026693D01*
X0169915Y0026570D01*
X0169958Y0026446D01*
X0169997Y0026321D01*
X0170033Y0026194D01*
X0170064Y0026066D01*
X0170092Y0025938D01*
X0170116Y0025809D01*
X0170136Y0025679D01*
X0170152Y0025548D01*
X0170164Y0025417D01*
X0170172Y0025286D01*
X0170176Y0025155D01*
X0170176Y0025023D01*
X0170172Y0024892D01*
X0170164Y0024761D01*
X0170152Y0024630D01*
X0170136Y0024499D01*
X0170116Y0024369D01*
X0170092Y0024240D01*
X0170064Y0024112D01*
X0170033Y0023984D01*
X0169997Y0023857D01*
X0169958Y0023732D01*
X0169915Y0023608D01*
X0169868Y0023485D01*
X0169817Y0023364D01*
X0169763Y0023244D01*
X0169705Y0023126D01*
X0169644Y0023009D01*
X0169579Y0022895D01*
X0169511Y0022783D01*
X0169439Y0022673D01*
X0169364Y0022565D01*
X0169286Y0022459D01*
X0169205Y0022356D01*
X0169120Y0022255D01*
X0169033Y0022157D01*
X0168942Y0022062D01*
X0168849Y0021969D01*
X0168753Y0021879D01*
X0168654Y0021792D01*
X0168553Y0021709D01*
X0168449Y0021628D01*
X0168343Y0021551D01*
X0168234Y0021477D01*
X0168123Y0021406D01*
X0168011Y0021338D01*
X0167896Y0021274D01*
X0167779Y0021214D01*
X0167660Y0021157D01*
X0167540Y0021104D01*
X0167419Y0021054D01*
X0167295Y0021008D01*
X0167171Y0020966D01*
X0167045Y0020928D01*
X0166918Y0020893D01*
X0166790Y0020862D01*
X0166662Y0020836D01*
X0166532Y0020813D01*
X0166402Y0020794D01*
X0166272Y0020779D01*
X0166141Y0020768D01*
X0166009Y0020761D01*
X0165878Y0020758D01*
X0165746Y0020759D01*
X0165615Y0020764D01*
X0165484Y0020773D01*
X0165353Y0020786D01*
X0165223Y0020803D01*
X0165093Y0020824D01*
X0164964Y0020849D01*
X0164836Y0020877D01*
X0164708Y0020910D01*
X0164582Y0020946D01*
X0164457Y0020987D01*
X0164333Y0021031D01*
X0164210Y0021078D01*
X0164089Y0021130D01*
X0163970Y0021185D01*
X0163852Y0021244D01*
X0163737Y0021306D01*
X0163623Y0021372D01*
X0163511Y0021441D01*
X0163401Y0021513D01*
X0163294Y0021589D01*
X0163189Y0021668D01*
X0163086Y0021750D01*
X0162986Y0021835D01*
X0162889Y0021924D01*
X0162794Y0022015D01*
X0162702Y0022109D01*
X0162613Y0022206D01*
X0162527Y0022305D01*
X0162444Y0022407D01*
X0162364Y0022512D01*
X0162288Y0022618D01*
X0162215Y0022727D01*
X0162145Y0022839D01*
X0162078Y0022952D01*
X0162015Y0023067D01*
X0161955Y0023185D01*
X0161899Y0023303D01*
X0161847Y0023424D01*
X0161798Y0023546D01*
X0161753Y0023670D01*
X0161712Y0023794D01*
X0161675Y0023921D01*
X0161641Y0024048D01*
X0161611Y0024176D01*
X0161586Y0024305D01*
X0161564Y0024434D01*
X0161546Y0024564D01*
X0161532Y0024695D01*
X0161522Y0024826D01*
X0161516Y0024958D01*
X0161514Y0025089D01*
X0162695Y0034932D02*
X0162697Y0035063D01*
X0162703Y0035195D01*
X0162713Y0035326D01*
X0162727Y0035457D01*
X0162745Y0035587D01*
X0162767Y0035716D01*
X0162792Y0035845D01*
X0162822Y0035973D01*
X0162856Y0036100D01*
X0162893Y0036227D01*
X0162934Y0036351D01*
X0162979Y0036475D01*
X0163028Y0036597D01*
X0163080Y0036718D01*
X0163136Y0036836D01*
X0163196Y0036954D01*
X0163259Y0037069D01*
X0163326Y0037182D01*
X0163396Y0037294D01*
X0163469Y0037403D01*
X0163545Y0037509D01*
X0163625Y0037614D01*
X0163708Y0037716D01*
X0163794Y0037815D01*
X0163883Y0037912D01*
X0163975Y0038006D01*
X0164070Y0038097D01*
X0164167Y0038186D01*
X0164267Y0038271D01*
X0164370Y0038353D01*
X0164475Y0038432D01*
X0164582Y0038508D01*
X0164692Y0038580D01*
X0164804Y0038649D01*
X0164918Y0038715D01*
X0165033Y0038777D01*
X0165151Y0038836D01*
X0165270Y0038891D01*
X0165391Y0038943D01*
X0165514Y0038990D01*
X0165638Y0039034D01*
X0165763Y0039075D01*
X0165889Y0039111D01*
X0166017Y0039144D01*
X0166145Y0039172D01*
X0166274Y0039197D01*
X0166404Y0039218D01*
X0166534Y0039235D01*
X0166665Y0039248D01*
X0166796Y0039257D01*
X0166927Y0039262D01*
X0167059Y0039263D01*
X0167190Y0039260D01*
X0167322Y0039253D01*
X0167453Y0039242D01*
X0167583Y0039227D01*
X0167713Y0039208D01*
X0167843Y0039185D01*
X0167971Y0039159D01*
X0168099Y0039128D01*
X0168226Y0039093D01*
X0168352Y0039055D01*
X0168476Y0039013D01*
X0168600Y0038967D01*
X0168721Y0038917D01*
X0168841Y0038864D01*
X0168960Y0038807D01*
X0169077Y0038747D01*
X0169191Y0038683D01*
X0169304Y0038615D01*
X0169415Y0038544D01*
X0169524Y0038470D01*
X0169630Y0038393D01*
X0169734Y0038312D01*
X0169835Y0038229D01*
X0169934Y0038142D01*
X0170030Y0038052D01*
X0170123Y0037959D01*
X0170214Y0037864D01*
X0170301Y0037766D01*
X0170386Y0037665D01*
X0170467Y0037562D01*
X0170545Y0037456D01*
X0170620Y0037348D01*
X0170692Y0037238D01*
X0170760Y0037126D01*
X0170825Y0037012D01*
X0170886Y0036895D01*
X0170944Y0036777D01*
X0170998Y0036657D01*
X0171049Y0036536D01*
X0171096Y0036413D01*
X0171139Y0036289D01*
X0171178Y0036164D01*
X0171214Y0036037D01*
X0171245Y0035909D01*
X0171273Y0035781D01*
X0171297Y0035652D01*
X0171317Y0035522D01*
X0171333Y0035391D01*
X0171345Y0035260D01*
X0171353Y0035129D01*
X0171357Y0034998D01*
X0171357Y0034866D01*
X0171353Y0034735D01*
X0171345Y0034604D01*
X0171333Y0034473D01*
X0171317Y0034342D01*
X0171297Y0034212D01*
X0171273Y0034083D01*
X0171245Y0033955D01*
X0171214Y0033827D01*
X0171178Y0033700D01*
X0171139Y0033575D01*
X0171096Y0033451D01*
X0171049Y0033328D01*
X0170998Y0033207D01*
X0170944Y0033087D01*
X0170886Y0032969D01*
X0170825Y0032852D01*
X0170760Y0032738D01*
X0170692Y0032626D01*
X0170620Y0032516D01*
X0170545Y0032408D01*
X0170467Y0032302D01*
X0170386Y0032199D01*
X0170301Y0032098D01*
X0170214Y0032000D01*
X0170123Y0031905D01*
X0170030Y0031812D01*
X0169934Y0031722D01*
X0169835Y0031635D01*
X0169734Y0031552D01*
X0169630Y0031471D01*
X0169524Y0031394D01*
X0169415Y0031320D01*
X0169304Y0031249D01*
X0169192Y0031181D01*
X0169077Y0031117D01*
X0168960Y0031057D01*
X0168841Y0031000D01*
X0168721Y0030947D01*
X0168600Y0030897D01*
X0168476Y0030851D01*
X0168352Y0030809D01*
X0168226Y0030771D01*
X0168099Y0030736D01*
X0167971Y0030705D01*
X0167843Y0030679D01*
X0167713Y0030656D01*
X0167583Y0030637D01*
X0167453Y0030622D01*
X0167322Y0030611D01*
X0167190Y0030604D01*
X0167059Y0030601D01*
X0166927Y0030602D01*
X0166796Y0030607D01*
X0166665Y0030616D01*
X0166534Y0030629D01*
X0166404Y0030646D01*
X0166274Y0030667D01*
X0166145Y0030692D01*
X0166017Y0030720D01*
X0165889Y0030753D01*
X0165763Y0030789D01*
X0165638Y0030830D01*
X0165514Y0030874D01*
X0165391Y0030921D01*
X0165270Y0030973D01*
X0165151Y0031028D01*
X0165033Y0031087D01*
X0164918Y0031149D01*
X0164804Y0031215D01*
X0164692Y0031284D01*
X0164582Y0031356D01*
X0164475Y0031432D01*
X0164370Y0031511D01*
X0164267Y0031593D01*
X0164167Y0031678D01*
X0164070Y0031767D01*
X0163975Y0031858D01*
X0163883Y0031952D01*
X0163794Y0032049D01*
X0163708Y0032148D01*
X0163625Y0032250D01*
X0163545Y0032355D01*
X0163469Y0032461D01*
X0163396Y0032570D01*
X0163326Y0032682D01*
X0163259Y0032795D01*
X0163196Y0032910D01*
X0163136Y0033028D01*
X0163080Y0033146D01*
X0163028Y0033267D01*
X0162979Y0033389D01*
X0162934Y0033513D01*
X0162893Y0033637D01*
X0162856Y0033764D01*
X0162822Y0033891D01*
X0162792Y0034019D01*
X0162767Y0034148D01*
X0162745Y0034277D01*
X0162727Y0034407D01*
X0162713Y0034538D01*
X0162703Y0034669D01*
X0162697Y0034801D01*
X0162695Y0034932D01*
X0161514Y0044774D02*
X0161516Y0044905D01*
X0161522Y0045037D01*
X0161532Y0045168D01*
X0161546Y0045299D01*
X0161564Y0045429D01*
X0161586Y0045558D01*
X0161611Y0045687D01*
X0161641Y0045815D01*
X0161675Y0045942D01*
X0161712Y0046069D01*
X0161753Y0046193D01*
X0161798Y0046317D01*
X0161847Y0046439D01*
X0161899Y0046560D01*
X0161955Y0046678D01*
X0162015Y0046796D01*
X0162078Y0046911D01*
X0162145Y0047024D01*
X0162215Y0047136D01*
X0162288Y0047245D01*
X0162364Y0047351D01*
X0162444Y0047456D01*
X0162527Y0047558D01*
X0162613Y0047657D01*
X0162702Y0047754D01*
X0162794Y0047848D01*
X0162889Y0047939D01*
X0162986Y0048028D01*
X0163086Y0048113D01*
X0163189Y0048195D01*
X0163294Y0048274D01*
X0163401Y0048350D01*
X0163511Y0048422D01*
X0163623Y0048491D01*
X0163737Y0048557D01*
X0163852Y0048619D01*
X0163970Y0048678D01*
X0164089Y0048733D01*
X0164210Y0048785D01*
X0164333Y0048832D01*
X0164457Y0048876D01*
X0164582Y0048917D01*
X0164708Y0048953D01*
X0164836Y0048986D01*
X0164964Y0049014D01*
X0165093Y0049039D01*
X0165223Y0049060D01*
X0165353Y0049077D01*
X0165484Y0049090D01*
X0165615Y0049099D01*
X0165746Y0049104D01*
X0165878Y0049105D01*
X0166009Y0049102D01*
X0166141Y0049095D01*
X0166272Y0049084D01*
X0166402Y0049069D01*
X0166532Y0049050D01*
X0166662Y0049027D01*
X0166790Y0049001D01*
X0166918Y0048970D01*
X0167045Y0048935D01*
X0167171Y0048897D01*
X0167295Y0048855D01*
X0167419Y0048809D01*
X0167540Y0048759D01*
X0167660Y0048706D01*
X0167779Y0048649D01*
X0167896Y0048589D01*
X0168010Y0048525D01*
X0168123Y0048457D01*
X0168234Y0048386D01*
X0168343Y0048312D01*
X0168449Y0048235D01*
X0168553Y0048154D01*
X0168654Y0048071D01*
X0168753Y0047984D01*
X0168849Y0047894D01*
X0168942Y0047801D01*
X0169033Y0047706D01*
X0169120Y0047608D01*
X0169205Y0047507D01*
X0169286Y0047404D01*
X0169364Y0047298D01*
X0169439Y0047190D01*
X0169511Y0047080D01*
X0169579Y0046968D01*
X0169644Y0046854D01*
X0169705Y0046737D01*
X0169763Y0046619D01*
X0169817Y0046499D01*
X0169868Y0046378D01*
X0169915Y0046255D01*
X0169958Y0046131D01*
X0169997Y0046006D01*
X0170033Y0045879D01*
X0170064Y0045751D01*
X0170092Y0045623D01*
X0170116Y0045494D01*
X0170136Y0045364D01*
X0170152Y0045233D01*
X0170164Y0045102D01*
X0170172Y0044971D01*
X0170176Y0044840D01*
X0170176Y0044708D01*
X0170172Y0044577D01*
X0170164Y0044446D01*
X0170152Y0044315D01*
X0170136Y0044184D01*
X0170116Y0044054D01*
X0170092Y0043925D01*
X0170064Y0043797D01*
X0170033Y0043669D01*
X0169997Y0043542D01*
X0169958Y0043417D01*
X0169915Y0043293D01*
X0169868Y0043170D01*
X0169817Y0043049D01*
X0169763Y0042929D01*
X0169705Y0042811D01*
X0169644Y0042694D01*
X0169579Y0042580D01*
X0169511Y0042468D01*
X0169439Y0042358D01*
X0169364Y0042250D01*
X0169286Y0042144D01*
X0169205Y0042041D01*
X0169120Y0041940D01*
X0169033Y0041842D01*
X0168942Y0041747D01*
X0168849Y0041654D01*
X0168753Y0041564D01*
X0168654Y0041477D01*
X0168553Y0041394D01*
X0168449Y0041313D01*
X0168343Y0041236D01*
X0168234Y0041162D01*
X0168123Y0041091D01*
X0168011Y0041023D01*
X0167896Y0040959D01*
X0167779Y0040899D01*
X0167660Y0040842D01*
X0167540Y0040789D01*
X0167419Y0040739D01*
X0167295Y0040693D01*
X0167171Y0040651D01*
X0167045Y0040613D01*
X0166918Y0040578D01*
X0166790Y0040547D01*
X0166662Y0040521D01*
X0166532Y0040498D01*
X0166402Y0040479D01*
X0166272Y0040464D01*
X0166141Y0040453D01*
X0166009Y0040446D01*
X0165878Y0040443D01*
X0165746Y0040444D01*
X0165615Y0040449D01*
X0165484Y0040458D01*
X0165353Y0040471D01*
X0165223Y0040488D01*
X0165093Y0040509D01*
X0164964Y0040534D01*
X0164836Y0040562D01*
X0164708Y0040595D01*
X0164582Y0040631D01*
X0164457Y0040672D01*
X0164333Y0040716D01*
X0164210Y0040763D01*
X0164089Y0040815D01*
X0163970Y0040870D01*
X0163852Y0040929D01*
X0163737Y0040991D01*
X0163623Y0041057D01*
X0163511Y0041126D01*
X0163401Y0041198D01*
X0163294Y0041274D01*
X0163189Y0041353D01*
X0163086Y0041435D01*
X0162986Y0041520D01*
X0162889Y0041609D01*
X0162794Y0041700D01*
X0162702Y0041794D01*
X0162613Y0041891D01*
X0162527Y0041990D01*
X0162444Y0042092D01*
X0162364Y0042197D01*
X0162288Y0042303D01*
X0162215Y0042412D01*
X0162145Y0042524D01*
X0162078Y0042637D01*
X0162015Y0042752D01*
X0161955Y0042870D01*
X0161899Y0042988D01*
X0161847Y0043109D01*
X0161798Y0043231D01*
X0161753Y0043355D01*
X0161712Y0043479D01*
X0161675Y0043606D01*
X0161641Y0043733D01*
X0161611Y0043861D01*
X0161586Y0043990D01*
X0161564Y0044119D01*
X0161546Y0044249D01*
X0161532Y0044380D01*
X0161522Y0044511D01*
X0161516Y0044643D01*
X0161514Y0044774D01*
X0172538Y0044774D02*
X0172540Y0044905D01*
X0172546Y0045037D01*
X0172556Y0045168D01*
X0172570Y0045299D01*
X0172588Y0045429D01*
X0172610Y0045558D01*
X0172635Y0045687D01*
X0172665Y0045815D01*
X0172699Y0045942D01*
X0172736Y0046069D01*
X0172777Y0046193D01*
X0172822Y0046317D01*
X0172871Y0046439D01*
X0172923Y0046560D01*
X0172979Y0046678D01*
X0173039Y0046796D01*
X0173102Y0046911D01*
X0173169Y0047024D01*
X0173239Y0047136D01*
X0173312Y0047245D01*
X0173388Y0047351D01*
X0173468Y0047456D01*
X0173551Y0047558D01*
X0173637Y0047657D01*
X0173726Y0047754D01*
X0173818Y0047848D01*
X0173913Y0047939D01*
X0174010Y0048028D01*
X0174110Y0048113D01*
X0174213Y0048195D01*
X0174318Y0048274D01*
X0174425Y0048350D01*
X0174535Y0048422D01*
X0174647Y0048491D01*
X0174761Y0048557D01*
X0174876Y0048619D01*
X0174994Y0048678D01*
X0175113Y0048733D01*
X0175234Y0048785D01*
X0175357Y0048832D01*
X0175481Y0048876D01*
X0175606Y0048917D01*
X0175732Y0048953D01*
X0175860Y0048986D01*
X0175988Y0049014D01*
X0176117Y0049039D01*
X0176247Y0049060D01*
X0176377Y0049077D01*
X0176508Y0049090D01*
X0176639Y0049099D01*
X0176770Y0049104D01*
X0176902Y0049105D01*
X0177033Y0049102D01*
X0177165Y0049095D01*
X0177296Y0049084D01*
X0177426Y0049069D01*
X0177556Y0049050D01*
X0177686Y0049027D01*
X0177814Y0049001D01*
X0177942Y0048970D01*
X0178069Y0048935D01*
X0178195Y0048897D01*
X0178319Y0048855D01*
X0178443Y0048809D01*
X0178564Y0048759D01*
X0178684Y0048706D01*
X0178803Y0048649D01*
X0178920Y0048589D01*
X0179034Y0048525D01*
X0179147Y0048457D01*
X0179258Y0048386D01*
X0179367Y0048312D01*
X0179473Y0048235D01*
X0179577Y0048154D01*
X0179678Y0048071D01*
X0179777Y0047984D01*
X0179873Y0047894D01*
X0179966Y0047801D01*
X0180057Y0047706D01*
X0180144Y0047608D01*
X0180229Y0047507D01*
X0180310Y0047404D01*
X0180388Y0047298D01*
X0180463Y0047190D01*
X0180535Y0047080D01*
X0180603Y0046968D01*
X0180668Y0046854D01*
X0180729Y0046737D01*
X0180787Y0046619D01*
X0180841Y0046499D01*
X0180892Y0046378D01*
X0180939Y0046255D01*
X0180982Y0046131D01*
X0181021Y0046006D01*
X0181057Y0045879D01*
X0181088Y0045751D01*
X0181116Y0045623D01*
X0181140Y0045494D01*
X0181160Y0045364D01*
X0181176Y0045233D01*
X0181188Y0045102D01*
X0181196Y0044971D01*
X0181200Y0044840D01*
X0181200Y0044708D01*
X0181196Y0044577D01*
X0181188Y0044446D01*
X0181176Y0044315D01*
X0181160Y0044184D01*
X0181140Y0044054D01*
X0181116Y0043925D01*
X0181088Y0043797D01*
X0181057Y0043669D01*
X0181021Y0043542D01*
X0180982Y0043417D01*
X0180939Y0043293D01*
X0180892Y0043170D01*
X0180841Y0043049D01*
X0180787Y0042929D01*
X0180729Y0042811D01*
X0180668Y0042694D01*
X0180603Y0042580D01*
X0180535Y0042468D01*
X0180463Y0042358D01*
X0180388Y0042250D01*
X0180310Y0042144D01*
X0180229Y0042041D01*
X0180144Y0041940D01*
X0180057Y0041842D01*
X0179966Y0041747D01*
X0179873Y0041654D01*
X0179777Y0041564D01*
X0179678Y0041477D01*
X0179577Y0041394D01*
X0179473Y0041313D01*
X0179367Y0041236D01*
X0179258Y0041162D01*
X0179147Y0041091D01*
X0179035Y0041023D01*
X0178920Y0040959D01*
X0178803Y0040899D01*
X0178684Y0040842D01*
X0178564Y0040789D01*
X0178443Y0040739D01*
X0178319Y0040693D01*
X0178195Y0040651D01*
X0178069Y0040613D01*
X0177942Y0040578D01*
X0177814Y0040547D01*
X0177686Y0040521D01*
X0177556Y0040498D01*
X0177426Y0040479D01*
X0177296Y0040464D01*
X0177165Y0040453D01*
X0177033Y0040446D01*
X0176902Y0040443D01*
X0176770Y0040444D01*
X0176639Y0040449D01*
X0176508Y0040458D01*
X0176377Y0040471D01*
X0176247Y0040488D01*
X0176117Y0040509D01*
X0175988Y0040534D01*
X0175860Y0040562D01*
X0175732Y0040595D01*
X0175606Y0040631D01*
X0175481Y0040672D01*
X0175357Y0040716D01*
X0175234Y0040763D01*
X0175113Y0040815D01*
X0174994Y0040870D01*
X0174876Y0040929D01*
X0174761Y0040991D01*
X0174647Y0041057D01*
X0174535Y0041126D01*
X0174425Y0041198D01*
X0174318Y0041274D01*
X0174213Y0041353D01*
X0174110Y0041435D01*
X0174010Y0041520D01*
X0173913Y0041609D01*
X0173818Y0041700D01*
X0173726Y0041794D01*
X0173637Y0041891D01*
X0173551Y0041990D01*
X0173468Y0042092D01*
X0173388Y0042197D01*
X0173312Y0042303D01*
X0173239Y0042412D01*
X0173169Y0042524D01*
X0173102Y0042637D01*
X0173039Y0042752D01*
X0172979Y0042870D01*
X0172923Y0042988D01*
X0172871Y0043109D01*
X0172822Y0043231D01*
X0172777Y0043355D01*
X0172736Y0043479D01*
X0172699Y0043606D01*
X0172665Y0043733D01*
X0172635Y0043861D01*
X0172610Y0043990D01*
X0172588Y0044119D01*
X0172570Y0044249D01*
X0172556Y0044380D01*
X0172546Y0044511D01*
X0172540Y0044643D01*
X0172538Y0044774D01*
X0172538Y0025089D02*
X0172540Y0025220D01*
X0172546Y0025352D01*
X0172556Y0025483D01*
X0172570Y0025614D01*
X0172588Y0025744D01*
X0172610Y0025873D01*
X0172635Y0026002D01*
X0172665Y0026130D01*
X0172699Y0026257D01*
X0172736Y0026384D01*
X0172777Y0026508D01*
X0172822Y0026632D01*
X0172871Y0026754D01*
X0172923Y0026875D01*
X0172979Y0026993D01*
X0173039Y0027111D01*
X0173102Y0027226D01*
X0173169Y0027339D01*
X0173239Y0027451D01*
X0173312Y0027560D01*
X0173388Y0027666D01*
X0173468Y0027771D01*
X0173551Y0027873D01*
X0173637Y0027972D01*
X0173726Y0028069D01*
X0173818Y0028163D01*
X0173913Y0028254D01*
X0174010Y0028343D01*
X0174110Y0028428D01*
X0174213Y0028510D01*
X0174318Y0028589D01*
X0174425Y0028665D01*
X0174535Y0028737D01*
X0174647Y0028806D01*
X0174761Y0028872D01*
X0174876Y0028934D01*
X0174994Y0028993D01*
X0175113Y0029048D01*
X0175234Y0029100D01*
X0175357Y0029147D01*
X0175481Y0029191D01*
X0175606Y0029232D01*
X0175732Y0029268D01*
X0175860Y0029301D01*
X0175988Y0029329D01*
X0176117Y0029354D01*
X0176247Y0029375D01*
X0176377Y0029392D01*
X0176508Y0029405D01*
X0176639Y0029414D01*
X0176770Y0029419D01*
X0176902Y0029420D01*
X0177033Y0029417D01*
X0177165Y0029410D01*
X0177296Y0029399D01*
X0177426Y0029384D01*
X0177556Y0029365D01*
X0177686Y0029342D01*
X0177814Y0029316D01*
X0177942Y0029285D01*
X0178069Y0029250D01*
X0178195Y0029212D01*
X0178319Y0029170D01*
X0178443Y0029124D01*
X0178564Y0029074D01*
X0178684Y0029021D01*
X0178803Y0028964D01*
X0178920Y0028904D01*
X0179034Y0028840D01*
X0179147Y0028772D01*
X0179258Y0028701D01*
X0179367Y0028627D01*
X0179473Y0028550D01*
X0179577Y0028469D01*
X0179678Y0028386D01*
X0179777Y0028299D01*
X0179873Y0028209D01*
X0179966Y0028116D01*
X0180057Y0028021D01*
X0180144Y0027923D01*
X0180229Y0027822D01*
X0180310Y0027719D01*
X0180388Y0027613D01*
X0180463Y0027505D01*
X0180535Y0027395D01*
X0180603Y0027283D01*
X0180668Y0027169D01*
X0180729Y0027052D01*
X0180787Y0026934D01*
X0180841Y0026814D01*
X0180892Y0026693D01*
X0180939Y0026570D01*
X0180982Y0026446D01*
X0181021Y0026321D01*
X0181057Y0026194D01*
X0181088Y0026066D01*
X0181116Y0025938D01*
X0181140Y0025809D01*
X0181160Y0025679D01*
X0181176Y0025548D01*
X0181188Y0025417D01*
X0181196Y0025286D01*
X0181200Y0025155D01*
X0181200Y0025023D01*
X0181196Y0024892D01*
X0181188Y0024761D01*
X0181176Y0024630D01*
X0181160Y0024499D01*
X0181140Y0024369D01*
X0181116Y0024240D01*
X0181088Y0024112D01*
X0181057Y0023984D01*
X0181021Y0023857D01*
X0180982Y0023732D01*
X0180939Y0023608D01*
X0180892Y0023485D01*
X0180841Y0023364D01*
X0180787Y0023244D01*
X0180729Y0023126D01*
X0180668Y0023009D01*
X0180603Y0022895D01*
X0180535Y0022783D01*
X0180463Y0022673D01*
X0180388Y0022565D01*
X0180310Y0022459D01*
X0180229Y0022356D01*
X0180144Y0022255D01*
X0180057Y0022157D01*
X0179966Y0022062D01*
X0179873Y0021969D01*
X0179777Y0021879D01*
X0179678Y0021792D01*
X0179577Y0021709D01*
X0179473Y0021628D01*
X0179367Y0021551D01*
X0179258Y0021477D01*
X0179147Y0021406D01*
X0179035Y0021338D01*
X0178920Y0021274D01*
X0178803Y0021214D01*
X0178684Y0021157D01*
X0178564Y0021104D01*
X0178443Y0021054D01*
X0178319Y0021008D01*
X0178195Y0020966D01*
X0178069Y0020928D01*
X0177942Y0020893D01*
X0177814Y0020862D01*
X0177686Y0020836D01*
X0177556Y0020813D01*
X0177426Y0020794D01*
X0177296Y0020779D01*
X0177165Y0020768D01*
X0177033Y0020761D01*
X0176902Y0020758D01*
X0176770Y0020759D01*
X0176639Y0020764D01*
X0176508Y0020773D01*
X0176377Y0020786D01*
X0176247Y0020803D01*
X0176117Y0020824D01*
X0175988Y0020849D01*
X0175860Y0020877D01*
X0175732Y0020910D01*
X0175606Y0020946D01*
X0175481Y0020987D01*
X0175357Y0021031D01*
X0175234Y0021078D01*
X0175113Y0021130D01*
X0174994Y0021185D01*
X0174876Y0021244D01*
X0174761Y0021306D01*
X0174647Y0021372D01*
X0174535Y0021441D01*
X0174425Y0021513D01*
X0174318Y0021589D01*
X0174213Y0021668D01*
X0174110Y0021750D01*
X0174010Y0021835D01*
X0173913Y0021924D01*
X0173818Y0022015D01*
X0173726Y0022109D01*
X0173637Y0022206D01*
X0173551Y0022305D01*
X0173468Y0022407D01*
X0173388Y0022512D01*
X0173312Y0022618D01*
X0173239Y0022727D01*
X0173169Y0022839D01*
X0173102Y0022952D01*
X0173039Y0023067D01*
X0172979Y0023185D01*
X0172923Y0023303D01*
X0172871Y0023424D01*
X0172822Y0023546D01*
X0172777Y0023670D01*
X0172736Y0023794D01*
X0172699Y0023921D01*
X0172665Y0024048D01*
X0172635Y0024176D01*
X0172610Y0024305D01*
X0172588Y0024434D01*
X0172570Y0024564D01*
X0172556Y0024695D01*
X0172546Y0024826D01*
X0172540Y0024958D01*
X0172538Y0025089D01*
X0172538Y0084932D02*
X0172540Y0085063D01*
X0172546Y0085195D01*
X0172556Y0085326D01*
X0172570Y0085457D01*
X0172588Y0085587D01*
X0172610Y0085716D01*
X0172635Y0085845D01*
X0172665Y0085973D01*
X0172699Y0086100D01*
X0172736Y0086227D01*
X0172777Y0086351D01*
X0172822Y0086475D01*
X0172871Y0086597D01*
X0172923Y0086718D01*
X0172979Y0086836D01*
X0173039Y0086954D01*
X0173102Y0087069D01*
X0173169Y0087182D01*
X0173239Y0087294D01*
X0173312Y0087403D01*
X0173388Y0087509D01*
X0173468Y0087614D01*
X0173551Y0087716D01*
X0173637Y0087815D01*
X0173726Y0087912D01*
X0173818Y0088006D01*
X0173913Y0088097D01*
X0174010Y0088186D01*
X0174110Y0088271D01*
X0174213Y0088353D01*
X0174318Y0088432D01*
X0174425Y0088508D01*
X0174535Y0088580D01*
X0174647Y0088649D01*
X0174761Y0088715D01*
X0174876Y0088777D01*
X0174994Y0088836D01*
X0175113Y0088891D01*
X0175234Y0088943D01*
X0175357Y0088990D01*
X0175481Y0089034D01*
X0175606Y0089075D01*
X0175732Y0089111D01*
X0175860Y0089144D01*
X0175988Y0089172D01*
X0176117Y0089197D01*
X0176247Y0089218D01*
X0176377Y0089235D01*
X0176508Y0089248D01*
X0176639Y0089257D01*
X0176770Y0089262D01*
X0176902Y0089263D01*
X0177033Y0089260D01*
X0177165Y0089253D01*
X0177296Y0089242D01*
X0177426Y0089227D01*
X0177556Y0089208D01*
X0177686Y0089185D01*
X0177814Y0089159D01*
X0177942Y0089128D01*
X0178069Y0089093D01*
X0178195Y0089055D01*
X0178319Y0089013D01*
X0178443Y0088967D01*
X0178564Y0088917D01*
X0178684Y0088864D01*
X0178803Y0088807D01*
X0178920Y0088747D01*
X0179034Y0088683D01*
X0179147Y0088615D01*
X0179258Y0088544D01*
X0179367Y0088470D01*
X0179473Y0088393D01*
X0179577Y0088312D01*
X0179678Y0088229D01*
X0179777Y0088142D01*
X0179873Y0088052D01*
X0179966Y0087959D01*
X0180057Y0087864D01*
X0180144Y0087766D01*
X0180229Y0087665D01*
X0180310Y0087562D01*
X0180388Y0087456D01*
X0180463Y0087348D01*
X0180535Y0087238D01*
X0180603Y0087126D01*
X0180668Y0087012D01*
X0180729Y0086895D01*
X0180787Y0086777D01*
X0180841Y0086657D01*
X0180892Y0086536D01*
X0180939Y0086413D01*
X0180982Y0086289D01*
X0181021Y0086164D01*
X0181057Y0086037D01*
X0181088Y0085909D01*
X0181116Y0085781D01*
X0181140Y0085652D01*
X0181160Y0085522D01*
X0181176Y0085391D01*
X0181188Y0085260D01*
X0181196Y0085129D01*
X0181200Y0084998D01*
X0181200Y0084866D01*
X0181196Y0084735D01*
X0181188Y0084604D01*
X0181176Y0084473D01*
X0181160Y0084342D01*
X0181140Y0084212D01*
X0181116Y0084083D01*
X0181088Y0083955D01*
X0181057Y0083827D01*
X0181021Y0083700D01*
X0180982Y0083575D01*
X0180939Y0083451D01*
X0180892Y0083328D01*
X0180841Y0083207D01*
X0180787Y0083087D01*
X0180729Y0082969D01*
X0180668Y0082852D01*
X0180603Y0082738D01*
X0180535Y0082626D01*
X0180463Y0082516D01*
X0180388Y0082408D01*
X0180310Y0082302D01*
X0180229Y0082199D01*
X0180144Y0082098D01*
X0180057Y0082000D01*
X0179966Y0081905D01*
X0179873Y0081812D01*
X0179777Y0081722D01*
X0179678Y0081635D01*
X0179577Y0081552D01*
X0179473Y0081471D01*
X0179367Y0081394D01*
X0179258Y0081320D01*
X0179147Y0081249D01*
X0179035Y0081181D01*
X0178920Y0081117D01*
X0178803Y0081057D01*
X0178684Y0081000D01*
X0178564Y0080947D01*
X0178443Y0080897D01*
X0178319Y0080851D01*
X0178195Y0080809D01*
X0178069Y0080771D01*
X0177942Y0080736D01*
X0177814Y0080705D01*
X0177686Y0080679D01*
X0177556Y0080656D01*
X0177426Y0080637D01*
X0177296Y0080622D01*
X0177165Y0080611D01*
X0177033Y0080604D01*
X0176902Y0080601D01*
X0176770Y0080602D01*
X0176639Y0080607D01*
X0176508Y0080616D01*
X0176377Y0080629D01*
X0176247Y0080646D01*
X0176117Y0080667D01*
X0175988Y0080692D01*
X0175860Y0080720D01*
X0175732Y0080753D01*
X0175606Y0080789D01*
X0175481Y0080830D01*
X0175357Y0080874D01*
X0175234Y0080921D01*
X0175113Y0080973D01*
X0174994Y0081028D01*
X0174876Y0081087D01*
X0174761Y0081149D01*
X0174647Y0081215D01*
X0174535Y0081284D01*
X0174425Y0081356D01*
X0174318Y0081432D01*
X0174213Y0081511D01*
X0174110Y0081593D01*
X0174010Y0081678D01*
X0173913Y0081767D01*
X0173818Y0081858D01*
X0173726Y0081952D01*
X0173637Y0082049D01*
X0173551Y0082148D01*
X0173468Y0082250D01*
X0173388Y0082355D01*
X0173312Y0082461D01*
X0173239Y0082570D01*
X0173169Y0082682D01*
X0173102Y0082795D01*
X0173039Y0082910D01*
X0172979Y0083028D01*
X0172923Y0083146D01*
X0172871Y0083267D01*
X0172822Y0083389D01*
X0172777Y0083513D01*
X0172736Y0083637D01*
X0172699Y0083764D01*
X0172665Y0083891D01*
X0172635Y0084019D01*
X0172610Y0084148D01*
X0172588Y0084277D01*
X0172570Y0084407D01*
X0172556Y0084538D01*
X0172546Y0084669D01*
X0172540Y0084801D01*
X0172538Y0084932D01*
X0171750Y0095168D02*
X0171752Y0095299D01*
X0171758Y0095431D01*
X0171768Y0095562D01*
X0171782Y0095693D01*
X0171800Y0095823D01*
X0171822Y0095952D01*
X0171847Y0096081D01*
X0171877Y0096209D01*
X0171911Y0096336D01*
X0171948Y0096463D01*
X0171989Y0096587D01*
X0172034Y0096711D01*
X0172083Y0096833D01*
X0172135Y0096954D01*
X0172191Y0097072D01*
X0172251Y0097190D01*
X0172314Y0097305D01*
X0172381Y0097418D01*
X0172451Y0097530D01*
X0172524Y0097639D01*
X0172600Y0097745D01*
X0172680Y0097850D01*
X0172763Y0097952D01*
X0172849Y0098051D01*
X0172938Y0098148D01*
X0173030Y0098242D01*
X0173125Y0098333D01*
X0173222Y0098422D01*
X0173322Y0098507D01*
X0173425Y0098589D01*
X0173530Y0098668D01*
X0173637Y0098744D01*
X0173747Y0098816D01*
X0173859Y0098885D01*
X0173973Y0098951D01*
X0174088Y0099013D01*
X0174206Y0099072D01*
X0174325Y0099127D01*
X0174446Y0099179D01*
X0174569Y0099226D01*
X0174693Y0099270D01*
X0174818Y0099311D01*
X0174944Y0099347D01*
X0175072Y0099380D01*
X0175200Y0099408D01*
X0175329Y0099433D01*
X0175459Y0099454D01*
X0175589Y0099471D01*
X0175720Y0099484D01*
X0175851Y0099493D01*
X0175982Y0099498D01*
X0176114Y0099499D01*
X0176245Y0099496D01*
X0176377Y0099489D01*
X0176508Y0099478D01*
X0176638Y0099463D01*
X0176768Y0099444D01*
X0176898Y0099421D01*
X0177026Y0099395D01*
X0177154Y0099364D01*
X0177281Y0099329D01*
X0177407Y0099291D01*
X0177531Y0099249D01*
X0177655Y0099203D01*
X0177776Y0099153D01*
X0177896Y0099100D01*
X0178015Y0099043D01*
X0178132Y0098983D01*
X0178246Y0098919D01*
X0178359Y0098851D01*
X0178470Y0098780D01*
X0178579Y0098706D01*
X0178685Y0098629D01*
X0178789Y0098548D01*
X0178890Y0098465D01*
X0178989Y0098378D01*
X0179085Y0098288D01*
X0179178Y0098195D01*
X0179269Y0098100D01*
X0179356Y0098002D01*
X0179441Y0097901D01*
X0179522Y0097798D01*
X0179600Y0097692D01*
X0179675Y0097584D01*
X0179747Y0097474D01*
X0179815Y0097362D01*
X0179880Y0097248D01*
X0179941Y0097131D01*
X0179999Y0097013D01*
X0180053Y0096893D01*
X0180104Y0096772D01*
X0180151Y0096649D01*
X0180194Y0096525D01*
X0180233Y0096400D01*
X0180269Y0096273D01*
X0180300Y0096145D01*
X0180328Y0096017D01*
X0180352Y0095888D01*
X0180372Y0095758D01*
X0180388Y0095627D01*
X0180400Y0095496D01*
X0180408Y0095365D01*
X0180412Y0095234D01*
X0180412Y0095102D01*
X0180408Y0094971D01*
X0180400Y0094840D01*
X0180388Y0094709D01*
X0180372Y0094578D01*
X0180352Y0094448D01*
X0180328Y0094319D01*
X0180300Y0094191D01*
X0180269Y0094063D01*
X0180233Y0093936D01*
X0180194Y0093811D01*
X0180151Y0093687D01*
X0180104Y0093564D01*
X0180053Y0093443D01*
X0179999Y0093323D01*
X0179941Y0093205D01*
X0179880Y0093088D01*
X0179815Y0092974D01*
X0179747Y0092862D01*
X0179675Y0092752D01*
X0179600Y0092644D01*
X0179522Y0092538D01*
X0179441Y0092435D01*
X0179356Y0092334D01*
X0179269Y0092236D01*
X0179178Y0092141D01*
X0179085Y0092048D01*
X0178989Y0091958D01*
X0178890Y0091871D01*
X0178789Y0091788D01*
X0178685Y0091707D01*
X0178579Y0091630D01*
X0178470Y0091556D01*
X0178359Y0091485D01*
X0178247Y0091417D01*
X0178132Y0091353D01*
X0178015Y0091293D01*
X0177896Y0091236D01*
X0177776Y0091183D01*
X0177655Y0091133D01*
X0177531Y0091087D01*
X0177407Y0091045D01*
X0177281Y0091007D01*
X0177154Y0090972D01*
X0177026Y0090941D01*
X0176898Y0090915D01*
X0176768Y0090892D01*
X0176638Y0090873D01*
X0176508Y0090858D01*
X0176377Y0090847D01*
X0176245Y0090840D01*
X0176114Y0090837D01*
X0175982Y0090838D01*
X0175851Y0090843D01*
X0175720Y0090852D01*
X0175589Y0090865D01*
X0175459Y0090882D01*
X0175329Y0090903D01*
X0175200Y0090928D01*
X0175072Y0090956D01*
X0174944Y0090989D01*
X0174818Y0091025D01*
X0174693Y0091066D01*
X0174569Y0091110D01*
X0174446Y0091157D01*
X0174325Y0091209D01*
X0174206Y0091264D01*
X0174088Y0091323D01*
X0173973Y0091385D01*
X0173859Y0091451D01*
X0173747Y0091520D01*
X0173637Y0091592D01*
X0173530Y0091668D01*
X0173425Y0091747D01*
X0173322Y0091829D01*
X0173222Y0091914D01*
X0173125Y0092003D01*
X0173030Y0092094D01*
X0172938Y0092188D01*
X0172849Y0092285D01*
X0172763Y0092384D01*
X0172680Y0092486D01*
X0172600Y0092591D01*
X0172524Y0092697D01*
X0172451Y0092806D01*
X0172381Y0092918D01*
X0172314Y0093031D01*
X0172251Y0093146D01*
X0172191Y0093264D01*
X0172135Y0093382D01*
X0172083Y0093503D01*
X0172034Y0093625D01*
X0171989Y0093749D01*
X0171948Y0093873D01*
X0171911Y0094000D01*
X0171877Y0094127D01*
X0171847Y0094255D01*
X0171822Y0094384D01*
X0171800Y0094513D01*
X0171782Y0094643D01*
X0171768Y0094774D01*
X0171758Y0094905D01*
X0171752Y0095037D01*
X0171750Y0095168D01*
X0162302Y0155011D02*
X0162304Y0155142D01*
X0162310Y0155274D01*
X0162320Y0155405D01*
X0162334Y0155536D01*
X0162352Y0155666D01*
X0162374Y0155795D01*
X0162399Y0155924D01*
X0162429Y0156052D01*
X0162463Y0156179D01*
X0162500Y0156306D01*
X0162541Y0156430D01*
X0162586Y0156554D01*
X0162635Y0156676D01*
X0162687Y0156797D01*
X0162743Y0156915D01*
X0162803Y0157033D01*
X0162866Y0157148D01*
X0162933Y0157261D01*
X0163003Y0157373D01*
X0163076Y0157482D01*
X0163152Y0157588D01*
X0163232Y0157693D01*
X0163315Y0157795D01*
X0163401Y0157894D01*
X0163490Y0157991D01*
X0163582Y0158085D01*
X0163677Y0158176D01*
X0163774Y0158265D01*
X0163874Y0158350D01*
X0163977Y0158432D01*
X0164082Y0158511D01*
X0164189Y0158587D01*
X0164299Y0158659D01*
X0164411Y0158728D01*
X0164525Y0158794D01*
X0164640Y0158856D01*
X0164758Y0158915D01*
X0164877Y0158970D01*
X0164998Y0159022D01*
X0165121Y0159069D01*
X0165245Y0159113D01*
X0165370Y0159154D01*
X0165496Y0159190D01*
X0165624Y0159223D01*
X0165752Y0159251D01*
X0165881Y0159276D01*
X0166011Y0159297D01*
X0166141Y0159314D01*
X0166272Y0159327D01*
X0166403Y0159336D01*
X0166534Y0159341D01*
X0166666Y0159342D01*
X0166797Y0159339D01*
X0166929Y0159332D01*
X0167060Y0159321D01*
X0167190Y0159306D01*
X0167320Y0159287D01*
X0167450Y0159264D01*
X0167578Y0159238D01*
X0167706Y0159207D01*
X0167833Y0159172D01*
X0167959Y0159134D01*
X0168083Y0159092D01*
X0168207Y0159046D01*
X0168328Y0158996D01*
X0168448Y0158943D01*
X0168567Y0158886D01*
X0168684Y0158826D01*
X0168798Y0158762D01*
X0168911Y0158694D01*
X0169022Y0158623D01*
X0169131Y0158549D01*
X0169237Y0158472D01*
X0169341Y0158391D01*
X0169442Y0158308D01*
X0169541Y0158221D01*
X0169637Y0158131D01*
X0169730Y0158038D01*
X0169821Y0157943D01*
X0169908Y0157845D01*
X0169993Y0157744D01*
X0170074Y0157641D01*
X0170152Y0157535D01*
X0170227Y0157427D01*
X0170299Y0157317D01*
X0170367Y0157205D01*
X0170432Y0157091D01*
X0170493Y0156974D01*
X0170551Y0156856D01*
X0170605Y0156736D01*
X0170656Y0156615D01*
X0170703Y0156492D01*
X0170746Y0156368D01*
X0170785Y0156243D01*
X0170821Y0156116D01*
X0170852Y0155988D01*
X0170880Y0155860D01*
X0170904Y0155731D01*
X0170924Y0155601D01*
X0170940Y0155470D01*
X0170952Y0155339D01*
X0170960Y0155208D01*
X0170964Y0155077D01*
X0170964Y0154945D01*
X0170960Y0154814D01*
X0170952Y0154683D01*
X0170940Y0154552D01*
X0170924Y0154421D01*
X0170904Y0154291D01*
X0170880Y0154162D01*
X0170852Y0154034D01*
X0170821Y0153906D01*
X0170785Y0153779D01*
X0170746Y0153654D01*
X0170703Y0153530D01*
X0170656Y0153407D01*
X0170605Y0153286D01*
X0170551Y0153166D01*
X0170493Y0153048D01*
X0170432Y0152931D01*
X0170367Y0152817D01*
X0170299Y0152705D01*
X0170227Y0152595D01*
X0170152Y0152487D01*
X0170074Y0152381D01*
X0169993Y0152278D01*
X0169908Y0152177D01*
X0169821Y0152079D01*
X0169730Y0151984D01*
X0169637Y0151891D01*
X0169541Y0151801D01*
X0169442Y0151714D01*
X0169341Y0151631D01*
X0169237Y0151550D01*
X0169131Y0151473D01*
X0169022Y0151399D01*
X0168911Y0151328D01*
X0168799Y0151260D01*
X0168684Y0151196D01*
X0168567Y0151136D01*
X0168448Y0151079D01*
X0168328Y0151026D01*
X0168207Y0150976D01*
X0168083Y0150930D01*
X0167959Y0150888D01*
X0167833Y0150850D01*
X0167706Y0150815D01*
X0167578Y0150784D01*
X0167450Y0150758D01*
X0167320Y0150735D01*
X0167190Y0150716D01*
X0167060Y0150701D01*
X0166929Y0150690D01*
X0166797Y0150683D01*
X0166666Y0150680D01*
X0166534Y0150681D01*
X0166403Y0150686D01*
X0166272Y0150695D01*
X0166141Y0150708D01*
X0166011Y0150725D01*
X0165881Y0150746D01*
X0165752Y0150771D01*
X0165624Y0150799D01*
X0165496Y0150832D01*
X0165370Y0150868D01*
X0165245Y0150909D01*
X0165121Y0150953D01*
X0164998Y0151000D01*
X0164877Y0151052D01*
X0164758Y0151107D01*
X0164640Y0151166D01*
X0164525Y0151228D01*
X0164411Y0151294D01*
X0164299Y0151363D01*
X0164189Y0151435D01*
X0164082Y0151511D01*
X0163977Y0151590D01*
X0163874Y0151672D01*
X0163774Y0151757D01*
X0163677Y0151846D01*
X0163582Y0151937D01*
X0163490Y0152031D01*
X0163401Y0152128D01*
X0163315Y0152227D01*
X0163232Y0152329D01*
X0163152Y0152434D01*
X0163076Y0152540D01*
X0163003Y0152649D01*
X0162933Y0152761D01*
X0162866Y0152874D01*
X0162803Y0152989D01*
X0162743Y0153107D01*
X0162687Y0153225D01*
X0162635Y0153346D01*
X0162586Y0153468D01*
X0162541Y0153592D01*
X0162500Y0153716D01*
X0162463Y0153843D01*
X0162429Y0153970D01*
X0162399Y0154098D01*
X0162374Y0154227D01*
X0162352Y0154356D01*
X0162334Y0154486D01*
X0162320Y0154617D01*
X0162310Y0154748D01*
X0162304Y0154880D01*
X0162302Y0155011D01*
X0032774Y0194774D02*
X0032776Y0194905D01*
X0032782Y0195037D01*
X0032792Y0195168D01*
X0032806Y0195299D01*
X0032824Y0195429D01*
X0032846Y0195558D01*
X0032871Y0195687D01*
X0032901Y0195815D01*
X0032935Y0195942D01*
X0032972Y0196069D01*
X0033013Y0196193D01*
X0033058Y0196317D01*
X0033107Y0196439D01*
X0033159Y0196560D01*
X0033215Y0196678D01*
X0033275Y0196796D01*
X0033338Y0196911D01*
X0033405Y0197024D01*
X0033475Y0197136D01*
X0033548Y0197245D01*
X0033624Y0197351D01*
X0033704Y0197456D01*
X0033787Y0197558D01*
X0033873Y0197657D01*
X0033962Y0197754D01*
X0034054Y0197848D01*
X0034149Y0197939D01*
X0034246Y0198028D01*
X0034346Y0198113D01*
X0034449Y0198195D01*
X0034554Y0198274D01*
X0034661Y0198350D01*
X0034771Y0198422D01*
X0034883Y0198491D01*
X0034997Y0198557D01*
X0035112Y0198619D01*
X0035230Y0198678D01*
X0035349Y0198733D01*
X0035470Y0198785D01*
X0035593Y0198832D01*
X0035717Y0198876D01*
X0035842Y0198917D01*
X0035968Y0198953D01*
X0036096Y0198986D01*
X0036224Y0199014D01*
X0036353Y0199039D01*
X0036483Y0199060D01*
X0036613Y0199077D01*
X0036744Y0199090D01*
X0036875Y0199099D01*
X0037006Y0199104D01*
X0037138Y0199105D01*
X0037269Y0199102D01*
X0037401Y0199095D01*
X0037532Y0199084D01*
X0037662Y0199069D01*
X0037792Y0199050D01*
X0037922Y0199027D01*
X0038050Y0199001D01*
X0038178Y0198970D01*
X0038305Y0198935D01*
X0038431Y0198897D01*
X0038555Y0198855D01*
X0038679Y0198809D01*
X0038800Y0198759D01*
X0038920Y0198706D01*
X0039039Y0198649D01*
X0039156Y0198589D01*
X0039270Y0198525D01*
X0039383Y0198457D01*
X0039494Y0198386D01*
X0039603Y0198312D01*
X0039709Y0198235D01*
X0039813Y0198154D01*
X0039914Y0198071D01*
X0040013Y0197984D01*
X0040109Y0197894D01*
X0040202Y0197801D01*
X0040293Y0197706D01*
X0040380Y0197608D01*
X0040465Y0197507D01*
X0040546Y0197404D01*
X0040624Y0197298D01*
X0040699Y0197190D01*
X0040771Y0197080D01*
X0040839Y0196968D01*
X0040904Y0196854D01*
X0040965Y0196737D01*
X0041023Y0196619D01*
X0041077Y0196499D01*
X0041128Y0196378D01*
X0041175Y0196255D01*
X0041218Y0196131D01*
X0041257Y0196006D01*
X0041293Y0195879D01*
X0041324Y0195751D01*
X0041352Y0195623D01*
X0041376Y0195494D01*
X0041396Y0195364D01*
X0041412Y0195233D01*
X0041424Y0195102D01*
X0041432Y0194971D01*
X0041436Y0194840D01*
X0041436Y0194708D01*
X0041432Y0194577D01*
X0041424Y0194446D01*
X0041412Y0194315D01*
X0041396Y0194184D01*
X0041376Y0194054D01*
X0041352Y0193925D01*
X0041324Y0193797D01*
X0041293Y0193669D01*
X0041257Y0193542D01*
X0041218Y0193417D01*
X0041175Y0193293D01*
X0041128Y0193170D01*
X0041077Y0193049D01*
X0041023Y0192929D01*
X0040965Y0192811D01*
X0040904Y0192694D01*
X0040839Y0192580D01*
X0040771Y0192468D01*
X0040699Y0192358D01*
X0040624Y0192250D01*
X0040546Y0192144D01*
X0040465Y0192041D01*
X0040380Y0191940D01*
X0040293Y0191842D01*
X0040202Y0191747D01*
X0040109Y0191654D01*
X0040013Y0191564D01*
X0039914Y0191477D01*
X0039813Y0191394D01*
X0039709Y0191313D01*
X0039603Y0191236D01*
X0039494Y0191162D01*
X0039383Y0191091D01*
X0039271Y0191023D01*
X0039156Y0190959D01*
X0039039Y0190899D01*
X0038920Y0190842D01*
X0038800Y0190789D01*
X0038679Y0190739D01*
X0038555Y0190693D01*
X0038431Y0190651D01*
X0038305Y0190613D01*
X0038178Y0190578D01*
X0038050Y0190547D01*
X0037922Y0190521D01*
X0037792Y0190498D01*
X0037662Y0190479D01*
X0037532Y0190464D01*
X0037401Y0190453D01*
X0037269Y0190446D01*
X0037138Y0190443D01*
X0037006Y0190444D01*
X0036875Y0190449D01*
X0036744Y0190458D01*
X0036613Y0190471D01*
X0036483Y0190488D01*
X0036353Y0190509D01*
X0036224Y0190534D01*
X0036096Y0190562D01*
X0035968Y0190595D01*
X0035842Y0190631D01*
X0035717Y0190672D01*
X0035593Y0190716D01*
X0035470Y0190763D01*
X0035349Y0190815D01*
X0035230Y0190870D01*
X0035112Y0190929D01*
X0034997Y0190991D01*
X0034883Y0191057D01*
X0034771Y0191126D01*
X0034661Y0191198D01*
X0034554Y0191274D01*
X0034449Y0191353D01*
X0034346Y0191435D01*
X0034246Y0191520D01*
X0034149Y0191609D01*
X0034054Y0191700D01*
X0033962Y0191794D01*
X0033873Y0191891D01*
X0033787Y0191990D01*
X0033704Y0192092D01*
X0033624Y0192197D01*
X0033548Y0192303D01*
X0033475Y0192412D01*
X0033405Y0192524D01*
X0033338Y0192637D01*
X0033275Y0192752D01*
X0033215Y0192870D01*
X0033159Y0192988D01*
X0033107Y0193109D01*
X0033058Y0193231D01*
X0033013Y0193355D01*
X0032972Y0193479D01*
X0032935Y0193606D01*
X0032901Y0193733D01*
X0032871Y0193861D01*
X0032846Y0193990D01*
X0032824Y0194119D01*
X0032806Y0194249D01*
X0032792Y0194380D01*
X0032782Y0194511D01*
X0032776Y0194643D01*
X0032774Y0194774D01*
X0021357Y0175089D02*
X0021359Y0175220D01*
X0021365Y0175352D01*
X0021375Y0175483D01*
X0021389Y0175614D01*
X0021407Y0175744D01*
X0021429Y0175873D01*
X0021454Y0176002D01*
X0021484Y0176130D01*
X0021518Y0176257D01*
X0021555Y0176384D01*
X0021596Y0176508D01*
X0021641Y0176632D01*
X0021690Y0176754D01*
X0021742Y0176875D01*
X0021798Y0176993D01*
X0021858Y0177111D01*
X0021921Y0177226D01*
X0021988Y0177339D01*
X0022058Y0177451D01*
X0022131Y0177560D01*
X0022207Y0177666D01*
X0022287Y0177771D01*
X0022370Y0177873D01*
X0022456Y0177972D01*
X0022545Y0178069D01*
X0022637Y0178163D01*
X0022732Y0178254D01*
X0022829Y0178343D01*
X0022929Y0178428D01*
X0023032Y0178510D01*
X0023137Y0178589D01*
X0023244Y0178665D01*
X0023354Y0178737D01*
X0023466Y0178806D01*
X0023580Y0178872D01*
X0023695Y0178934D01*
X0023813Y0178993D01*
X0023932Y0179048D01*
X0024053Y0179100D01*
X0024176Y0179147D01*
X0024300Y0179191D01*
X0024425Y0179232D01*
X0024551Y0179268D01*
X0024679Y0179301D01*
X0024807Y0179329D01*
X0024936Y0179354D01*
X0025066Y0179375D01*
X0025196Y0179392D01*
X0025327Y0179405D01*
X0025458Y0179414D01*
X0025589Y0179419D01*
X0025721Y0179420D01*
X0025852Y0179417D01*
X0025984Y0179410D01*
X0026115Y0179399D01*
X0026245Y0179384D01*
X0026375Y0179365D01*
X0026505Y0179342D01*
X0026633Y0179316D01*
X0026761Y0179285D01*
X0026888Y0179250D01*
X0027014Y0179212D01*
X0027138Y0179170D01*
X0027262Y0179124D01*
X0027383Y0179074D01*
X0027503Y0179021D01*
X0027622Y0178964D01*
X0027739Y0178904D01*
X0027853Y0178840D01*
X0027966Y0178772D01*
X0028077Y0178701D01*
X0028186Y0178627D01*
X0028292Y0178550D01*
X0028396Y0178469D01*
X0028497Y0178386D01*
X0028596Y0178299D01*
X0028692Y0178209D01*
X0028785Y0178116D01*
X0028876Y0178021D01*
X0028963Y0177923D01*
X0029048Y0177822D01*
X0029129Y0177719D01*
X0029207Y0177613D01*
X0029282Y0177505D01*
X0029354Y0177395D01*
X0029422Y0177283D01*
X0029487Y0177169D01*
X0029548Y0177052D01*
X0029606Y0176934D01*
X0029660Y0176814D01*
X0029711Y0176693D01*
X0029758Y0176570D01*
X0029801Y0176446D01*
X0029840Y0176321D01*
X0029876Y0176194D01*
X0029907Y0176066D01*
X0029935Y0175938D01*
X0029959Y0175809D01*
X0029979Y0175679D01*
X0029995Y0175548D01*
X0030007Y0175417D01*
X0030015Y0175286D01*
X0030019Y0175155D01*
X0030019Y0175023D01*
X0030015Y0174892D01*
X0030007Y0174761D01*
X0029995Y0174630D01*
X0029979Y0174499D01*
X0029959Y0174369D01*
X0029935Y0174240D01*
X0029907Y0174112D01*
X0029876Y0173984D01*
X0029840Y0173857D01*
X0029801Y0173732D01*
X0029758Y0173608D01*
X0029711Y0173485D01*
X0029660Y0173364D01*
X0029606Y0173244D01*
X0029548Y0173126D01*
X0029487Y0173009D01*
X0029422Y0172895D01*
X0029354Y0172783D01*
X0029282Y0172673D01*
X0029207Y0172565D01*
X0029129Y0172459D01*
X0029048Y0172356D01*
X0028963Y0172255D01*
X0028876Y0172157D01*
X0028785Y0172062D01*
X0028692Y0171969D01*
X0028596Y0171879D01*
X0028497Y0171792D01*
X0028396Y0171709D01*
X0028292Y0171628D01*
X0028186Y0171551D01*
X0028077Y0171477D01*
X0027966Y0171406D01*
X0027854Y0171338D01*
X0027739Y0171274D01*
X0027622Y0171214D01*
X0027503Y0171157D01*
X0027383Y0171104D01*
X0027262Y0171054D01*
X0027138Y0171008D01*
X0027014Y0170966D01*
X0026888Y0170928D01*
X0026761Y0170893D01*
X0026633Y0170862D01*
X0026505Y0170836D01*
X0026375Y0170813D01*
X0026245Y0170794D01*
X0026115Y0170779D01*
X0025984Y0170768D01*
X0025852Y0170761D01*
X0025721Y0170758D01*
X0025589Y0170759D01*
X0025458Y0170764D01*
X0025327Y0170773D01*
X0025196Y0170786D01*
X0025066Y0170803D01*
X0024936Y0170824D01*
X0024807Y0170849D01*
X0024679Y0170877D01*
X0024551Y0170910D01*
X0024425Y0170946D01*
X0024300Y0170987D01*
X0024176Y0171031D01*
X0024053Y0171078D01*
X0023932Y0171130D01*
X0023813Y0171185D01*
X0023695Y0171244D01*
X0023580Y0171306D01*
X0023466Y0171372D01*
X0023354Y0171441D01*
X0023244Y0171513D01*
X0023137Y0171589D01*
X0023032Y0171668D01*
X0022929Y0171750D01*
X0022829Y0171835D01*
X0022732Y0171924D01*
X0022637Y0172015D01*
X0022545Y0172109D01*
X0022456Y0172206D01*
X0022370Y0172305D01*
X0022287Y0172407D01*
X0022207Y0172512D01*
X0022131Y0172618D01*
X0022058Y0172727D01*
X0021988Y0172839D01*
X0021921Y0172952D01*
X0021858Y0173067D01*
X0021798Y0173185D01*
X0021742Y0173303D01*
X0021690Y0173424D01*
X0021641Y0173546D01*
X0021596Y0173670D01*
X0021555Y0173794D01*
X0021518Y0173921D01*
X0021484Y0174048D01*
X0021454Y0174176D01*
X0021429Y0174305D01*
X0021407Y0174434D01*
X0021389Y0174564D01*
X0021375Y0174695D01*
X0021365Y0174826D01*
X0021359Y0174958D01*
X0021357Y0175089D01*
D13*
X0020727Y0198475D02*
X0020727Y0001625D01*
X0041869Y0001625D01*
X0159192Y0001625D01*
X0182144Y0001625D01*
X0182144Y0198475D01*
X0159192Y0198475D01*
X0041869Y0198475D01*
X0020727Y0198475D01*
X0048522Y0182373D02*
X0048522Y0129814D01*
X0053640Y0129814D01*
X0053640Y0124105D01*
X0106790Y0124105D01*
X0106790Y0179223D01*
X0072144Y0179223D01*
X0060333Y0182373D01*
X0048522Y0182373D01*
D14*
X0112942Y0057185D03*
X0112942Y0047091D03*
X0112942Y0014315D03*
D15*
X0112876Y0014446D03*
X0113007Y0047877D03*
D16*
X0112942Y0048533D03*
X0112942Y0056792D03*
X0112942Y0014577D03*
D17*
X0112876Y0014708D03*
X0116940Y0030703D03*
X0113007Y0048926D03*
D18*
X0112942Y0056530D03*
X0117006Y0030178D03*
X0112942Y0014839D03*
D19*
X0112942Y0014970D03*
X0116875Y0029785D03*
X0112942Y0049713D03*
X0112942Y0056399D03*
D20*
X0113007Y0049975D03*
X0112876Y0015102D03*
D21*
X0112942Y0015233D03*
X0112942Y0050237D03*
D22*
X0112876Y0015364D03*
D23*
X0112942Y0015495D03*
D24*
X0112876Y0015626D03*
D25*
X0112876Y0015757D03*
X0114843Y0053777D03*
X0114974Y0053908D03*
X0115105Y0054039D03*
X0115105Y0054170D03*
X0113007Y0055874D03*
D26*
X0114974Y0054694D03*
X0115105Y0054563D03*
X0115236Y0054432D03*
X0113007Y0051417D03*
X0112876Y0015888D03*
D27*
X0112942Y0016019D03*
X0112942Y0051679D03*
D28*
X0113007Y0051810D03*
X0112876Y0016150D03*
D29*
X0112876Y0016281D03*
X0113007Y0051941D03*
D30*
X0112876Y0016413D03*
D31*
X0112876Y0016544D03*
X0113007Y0052335D03*
D32*
X0112942Y0016675D03*
D33*
X0112942Y0016806D03*
X0112942Y0052597D03*
X0112942Y0055350D03*
D34*
X0112876Y0016937D03*
D35*
X0112876Y0017068D03*
X0113007Y0052859D03*
D36*
X0112942Y0017199D03*
D37*
X0112876Y0017330D03*
X0113007Y0052990D03*
D38*
X0112876Y0017461D03*
D39*
X0112942Y0017593D03*
D40*
X0112876Y0017724D03*
D41*
X0112942Y0017855D03*
D42*
X0112876Y0017986D03*
D43*
X0112876Y0018117D03*
D44*
X0112942Y0018248D03*
D45*
X0112876Y0018379D03*
D46*
X0112942Y0018510D03*
D47*
X0112876Y0018641D03*
D48*
X0112942Y0018772D03*
D49*
X0112876Y0018904D03*
X0112876Y0019035D03*
D50*
X0112942Y0019166D03*
D51*
X0112876Y0019297D03*
D52*
X0112942Y0019428D03*
D53*
X0112876Y0019559D03*
X0112876Y0019690D03*
D54*
X0112942Y0019821D03*
D55*
X0112876Y0019952D03*
D56*
X0112942Y0020083D03*
X0112942Y0020215D03*
D57*
X0112876Y0020346D03*
D58*
X0112942Y0020477D03*
X0112942Y0020608D03*
D59*
X0112876Y0020739D03*
X0112876Y0020870D03*
X0113007Y0029654D03*
D60*
X0112942Y0029523D03*
X0112942Y0029392D03*
X0112942Y0021001D03*
D61*
X0112876Y0021132D03*
X0112876Y0021263D03*
X0113007Y0029130D03*
X0113007Y0029261D03*
D62*
X0112942Y0028998D03*
X0112942Y0028867D03*
X0112942Y0028736D03*
X0112942Y0028605D03*
X0112942Y0021394D03*
D63*
X0112876Y0021526D03*
X0112876Y0021657D03*
D64*
X0112942Y0021788D03*
X0112942Y0021919D03*
D65*
X0112876Y0022050D03*
X0112876Y0022181D03*
D66*
X0112942Y0022312D03*
X0112942Y0022443D03*
D67*
X0112876Y0022574D03*
X0112876Y0022706D03*
X0112876Y0022837D03*
D68*
X0112942Y0022968D03*
X0112942Y0023099D03*
D69*
X0112876Y0023230D03*
X0112876Y0023361D03*
D70*
X0112942Y0023492D03*
X0112942Y0023623D03*
D71*
X0112876Y0023754D03*
D72*
X0112942Y0023885D03*
D73*
X0113007Y0024017D03*
D74*
X0112942Y0024148D03*
D75*
X0113007Y0024279D03*
X0113007Y0024410D03*
X0113007Y0027163D03*
D76*
X0113007Y0026901D03*
X0113007Y0024541D03*
D77*
X0112942Y0024672D03*
X0112942Y0026770D03*
D78*
X0113007Y0026639D03*
X0113007Y0026507D03*
X0113007Y0026376D03*
X0113007Y0026245D03*
X0113007Y0026114D03*
X0113007Y0025983D03*
X0113007Y0025852D03*
X0113007Y0025721D03*
X0113007Y0025590D03*
X0113007Y0025459D03*
X0113007Y0025328D03*
X0113007Y0025196D03*
X0113007Y0025065D03*
X0113007Y0024934D03*
X0113007Y0024803D03*
D79*
X0112942Y0027032D03*
D80*
X0113007Y0027294D03*
D81*
X0112942Y0027425D03*
D82*
X0112942Y0027556D03*
D83*
X0105993Y0032669D03*
X0105731Y0032538D03*
X0105600Y0032407D03*
X0105338Y0032276D03*
X0105207Y0032145D03*
X0105076Y0032014D03*
X0104813Y0031883D03*
X0103634Y0029785D03*
X0112942Y0042502D03*
D84*
X0106321Y0032800D03*
X0104617Y0031752D03*
X0103568Y0029916D03*
D85*
X0117006Y0029916D03*
X0117006Y0030047D03*
X0112942Y0049581D03*
D86*
X0112942Y0042371D03*
X0104551Y0031620D03*
X0104420Y0031489D03*
X0104289Y0031358D03*
X0104158Y0031227D03*
X0104158Y0031096D03*
X0104027Y0030965D03*
X0103896Y0030703D03*
X0103765Y0030572D03*
X0103765Y0030441D03*
X0103634Y0030178D03*
X0103634Y0030047D03*
D87*
X0103699Y0030309D03*
X0103961Y0030834D03*
X0113007Y0042240D03*
D88*
X0113007Y0049319D03*
X0116940Y0030309D03*
D89*
X0117006Y0030441D03*
X0112942Y0049188D03*
D90*
X0116940Y0030572D03*
D91*
X0116940Y0030834D03*
X0113007Y0048795D03*
D92*
X0117072Y0030965D03*
D93*
X0117137Y0031096D03*
D94*
X0117006Y0031227D03*
X0112942Y0048139D03*
D95*
X0112942Y0048008D03*
X0117006Y0031358D03*
D96*
X0117006Y0031489D03*
X0108615Y0054826D03*
D97*
X0108747Y0055088D03*
X0112942Y0047484D03*
X0117137Y0053121D03*
X0117268Y0053252D03*
X0117006Y0031620D03*
D98*
X0115760Y0031752D03*
D99*
X0123233Y0031752D03*
D100*
X0115826Y0031883D03*
D101*
X0115892Y0032014D03*
X0112221Y0033718D03*
X0112221Y0033849D03*
X0112221Y0033980D03*
D102*
X0112286Y0034243D03*
X0115957Y0032145D03*
D103*
X0116023Y0032276D03*
D104*
X0116154Y0032407D03*
D105*
X0116219Y0032538D03*
X0115957Y0032931D03*
X0112942Y0057841D03*
D106*
X0116154Y0032669D03*
D107*
X0116088Y0032800D03*
X0112942Y0044075D03*
D108*
X0112942Y0038962D03*
X0104289Y0032931D03*
D109*
X0108157Y0032931D03*
X0116416Y0044862D03*
X0116416Y0044993D03*
D110*
X0113007Y0047353D03*
X0108943Y0055219D03*
X0113532Y0033063D03*
D111*
X0113466Y0033194D03*
X0112942Y0047222D03*
D112*
X0113401Y0033325D03*
D113*
X0113401Y0033456D03*
D114*
X0112221Y0033587D03*
D115*
X0116875Y0034505D03*
X0119497Y0033587D03*
X0112942Y0038569D03*
D116*
X0112942Y0038044D03*
X0117006Y0034898D03*
X0119628Y0033718D03*
D117*
X0119694Y0033849D03*
D118*
X0112221Y0034111D03*
D119*
X0112745Y0035029D03*
X0116809Y0034374D03*
X0107632Y0034374D03*
D120*
X0112417Y0034374D03*
X0112942Y0041453D03*
D121*
X0112942Y0038307D03*
X0112942Y0038176D03*
X0117006Y0034767D03*
X0107435Y0034505D03*
D122*
X0112417Y0034505D03*
X0112942Y0041060D03*
X0110058Y0044993D03*
X0120415Y0051024D03*
D123*
X0107239Y0034636D03*
D124*
X0112483Y0034636D03*
D125*
X0112942Y0038438D03*
X0116875Y0034636D03*
D126*
X0112614Y0034767D03*
X0116154Y0044337D03*
X0116154Y0044469D03*
X0116285Y0044600D03*
D127*
X0112614Y0034898D03*
X0101995Y0054432D03*
X0102257Y0054694D03*
D128*
X0117072Y0035029D03*
D129*
X0117137Y0035160D03*
X0112942Y0037651D03*
X0112942Y0037782D03*
D130*
X0112942Y0037520D03*
X0117137Y0035291D03*
D131*
X0112942Y0037389D03*
D132*
X0112942Y0037913D03*
D133*
X0112942Y0038700D03*
X0112942Y0038831D03*
D134*
X0112942Y0039093D03*
D135*
X0112942Y0039224D03*
X0112942Y0039356D03*
D136*
X0112942Y0039487D03*
X0102060Y0054170D03*
X0102060Y0054301D03*
D137*
X0102060Y0054563D03*
X0112942Y0039618D03*
D138*
X0113007Y0039749D03*
D139*
X0112942Y0039880D03*
D140*
X0112942Y0040011D03*
D141*
X0112942Y0040142D03*
X0112942Y0040273D03*
X0115957Y0044206D03*
X0116350Y0044731D03*
X0112942Y0058365D03*
D142*
X0112942Y0040404D03*
D143*
X0112942Y0040535D03*
X0116482Y0045255D03*
D144*
X0112942Y0040798D03*
X0112942Y0040667D03*
D145*
X0112942Y0040929D03*
X0110320Y0044469D03*
X0110189Y0044600D03*
X0120152Y0050630D03*
X0120284Y0050761D03*
D146*
X0112942Y0041322D03*
X0112942Y0041191D03*
X0110058Y0045124D03*
X0110058Y0045255D03*
D147*
X0112942Y0041584D03*
X0112942Y0058234D03*
D148*
X0112942Y0041846D03*
X0112942Y0041715D03*
D149*
X0112942Y0041978D03*
D150*
X0112942Y0042109D03*
D151*
X0112942Y0042633D03*
X0105207Y0053252D03*
X0120808Y0055088D03*
D152*
X0120873Y0054957D03*
X0113007Y0042764D03*
X0105272Y0053121D03*
X0105141Y0053383D03*
D153*
X0112942Y0042895D03*
D154*
X0112942Y0043026D03*
X0120939Y0054826D03*
D155*
X0112942Y0043157D03*
D156*
X0113007Y0043289D03*
D157*
X0112942Y0043420D03*
X0112942Y0057972D03*
D158*
X0112942Y0043551D03*
D159*
X0112942Y0043682D03*
D160*
X0113007Y0043813D03*
D161*
X0112942Y0043944D03*
D162*
X0110516Y0044206D03*
X0110123Y0044731D03*
X0110123Y0044862D03*
X0120087Y0050499D03*
X0120349Y0050893D03*
D163*
X0116416Y0045386D03*
X0110385Y0044337D03*
D164*
X0116416Y0045124D03*
D165*
X0110123Y0045386D03*
D166*
X0112942Y0045517D03*
X0112942Y0057579D03*
D167*
X0112942Y0045648D03*
D168*
X0113007Y0045780D03*
D169*
X0112942Y0045911D03*
D170*
X0112942Y0046042D03*
X0112942Y0057448D03*
D171*
X0112942Y0046173D03*
D172*
X0113007Y0046304D03*
D173*
X0112942Y0046435D03*
X0109795Y0050761D03*
D174*
X0109664Y0051024D03*
X0112942Y0046566D03*
X0112942Y0057317D03*
D175*
X0109664Y0051155D03*
X0112942Y0046697D03*
D176*
X0113007Y0046828D03*
X0109730Y0051286D03*
D177*
X0112942Y0046959D03*
D178*
X0112942Y0047615D03*
X0108615Y0054957D03*
X0112942Y0057054D03*
D179*
X0117334Y0053515D03*
X0113007Y0047746D03*
D180*
X0113007Y0048270D03*
D181*
X0113007Y0048402D03*
D182*
X0112942Y0048664D03*
D183*
X0112942Y0049057D03*
D184*
X0113007Y0049450D03*
D185*
X0113007Y0049844D03*
D186*
X0112942Y0050106D03*
X0112942Y0056268D03*
D187*
X0113007Y0050368D03*
D188*
X0109992Y0050499D03*
X0109861Y0050630D03*
X0109730Y0050893D03*
D189*
X0120349Y0051155D03*
D190*
X0120349Y0051286D03*
D191*
X0112942Y0051548D03*
D192*
X0112942Y0052072D03*
D193*
X0112942Y0052204D03*
X0112942Y0055481D03*
D194*
X0113007Y0052466D03*
D195*
X0112942Y0052728D03*
D196*
X0117334Y0053383D03*
D197*
X0105141Y0053515D03*
D198*
X0112942Y0053646D03*
D199*
X0102388Y0053777D03*
X0102257Y0053908D03*
X0102126Y0054039D03*
D200*
X0115171Y0054301D03*
D201*
X0112876Y0058103D03*
X0120611Y0055219D03*
D202*
X0112942Y0055612D03*
D203*
X0113007Y0055743D03*
D204*
X0113007Y0056006D03*
D205*
X0112942Y0056137D03*
D206*
X0112942Y0056661D03*
D207*
X0113007Y0056923D03*
D208*
X0112942Y0057710D03*
D209*
X0118798Y0182176D02*
X0145570Y0182176D01*
X0145570Y0188475D01*
X0145570Y0198711D02*
X0118798Y0198711D01*
X0118798Y0188475D02*
X0118798Y0182176D01*
D210*
X0109145Y0187420D02*
X0108678Y0186953D01*
X0107277Y0186953D01*
X0107277Y0189756D01*
X0108678Y0189756D01*
X0109145Y0189288D01*
X0109145Y0188821D01*
X0108678Y0188354D01*
X0107277Y0188354D01*
X0106383Y0187887D02*
X0106383Y0187420D01*
X0105916Y0186953D01*
X0104982Y0186953D01*
X0104515Y0187420D01*
X0103621Y0187420D02*
X0103621Y0189756D01*
X0104515Y0189288D02*
X0104515Y0188821D01*
X0104982Y0188354D01*
X0105916Y0188354D01*
X0106383Y0187887D01*
X0106383Y0189288D02*
X0105916Y0189756D01*
X0104982Y0189756D01*
X0104515Y0189288D01*
X0103621Y0187420D02*
X0103154Y0186953D01*
X0102220Y0186953D01*
X0101752Y0187420D01*
X0101752Y0189756D01*
X0100858Y0186486D02*
X0098990Y0186486D01*
X0098096Y0186953D02*
X0097162Y0187887D01*
X0097629Y0187887D02*
X0096228Y0187887D01*
X0096228Y0186953D02*
X0096228Y0189756D01*
X0097629Y0189756D01*
X0098096Y0189288D01*
X0098096Y0188354D01*
X0097629Y0187887D01*
X0095334Y0186953D02*
X0093465Y0186953D01*
X0093465Y0189756D01*
X0095334Y0189756D01*
X0094400Y0188354D02*
X0093465Y0188354D01*
X0092571Y0186953D02*
X0092571Y0189756D01*
X0090703Y0189756D02*
X0090703Y0186953D01*
X0091637Y0187887D01*
X0092571Y0186953D01*
X0089809Y0187420D02*
X0089809Y0189288D01*
X0089342Y0189756D01*
X0088408Y0189756D01*
X0087941Y0189288D01*
X0087941Y0187420D01*
X0088408Y0186953D01*
X0089342Y0186953D01*
X0089809Y0187420D01*
X0087047Y0188354D02*
X0087047Y0189288D01*
X0086580Y0189756D01*
X0085178Y0189756D01*
X0085178Y0186953D01*
X0085178Y0187887D02*
X0086580Y0187887D01*
X0087047Y0188354D01*
X0108678Y0188354D02*
X0109145Y0187887D01*
X0109145Y0187420D01*
D211*
X0088975Y0174499D02*
X0088977Y0174598D01*
X0088983Y0174697D01*
X0088993Y0174796D01*
X0089007Y0174894D01*
X0089025Y0174991D01*
X0089047Y0175088D01*
X0089072Y0175184D01*
X0089102Y0175278D01*
X0089135Y0175372D01*
X0089172Y0175464D01*
X0089213Y0175554D01*
X0089257Y0175643D01*
X0089305Y0175729D01*
X0089356Y0175814D01*
X0089411Y0175897D01*
X0089469Y0175977D01*
X0089530Y0176055D01*
X0089594Y0176131D01*
X0089661Y0176204D01*
X0089731Y0176274D01*
X0089804Y0176341D01*
X0089880Y0176405D01*
X0089958Y0176466D01*
X0090038Y0176524D01*
X0090121Y0176579D01*
X0090205Y0176630D01*
X0090292Y0176678D01*
X0090381Y0176722D01*
X0090471Y0176763D01*
X0090563Y0176800D01*
X0090657Y0176833D01*
X0090751Y0176863D01*
X0090847Y0176888D01*
X0090944Y0176910D01*
X0091041Y0176928D01*
X0091139Y0176942D01*
X0091238Y0176952D01*
X0091337Y0176958D01*
X0091436Y0176960D01*
X0091535Y0176958D01*
X0091634Y0176952D01*
X0091733Y0176942D01*
X0091831Y0176928D01*
X0091928Y0176910D01*
X0092025Y0176888D01*
X0092121Y0176863D01*
X0092215Y0176833D01*
X0092309Y0176800D01*
X0092401Y0176763D01*
X0092491Y0176722D01*
X0092580Y0176678D01*
X0092666Y0176630D01*
X0092751Y0176579D01*
X0092834Y0176524D01*
X0092914Y0176466D01*
X0092992Y0176405D01*
X0093068Y0176341D01*
X0093141Y0176274D01*
X0093211Y0176204D01*
X0093278Y0176131D01*
X0093342Y0176055D01*
X0093403Y0175977D01*
X0093461Y0175897D01*
X0093516Y0175814D01*
X0093567Y0175730D01*
X0093615Y0175643D01*
X0093659Y0175554D01*
X0093700Y0175464D01*
X0093737Y0175372D01*
X0093770Y0175278D01*
X0093800Y0175184D01*
X0093825Y0175088D01*
X0093847Y0174991D01*
X0093865Y0174894D01*
X0093879Y0174796D01*
X0093889Y0174697D01*
X0093895Y0174598D01*
X0093897Y0174499D01*
X0093895Y0174400D01*
X0093889Y0174301D01*
X0093879Y0174202D01*
X0093865Y0174104D01*
X0093847Y0174007D01*
X0093825Y0173910D01*
X0093800Y0173814D01*
X0093770Y0173720D01*
X0093737Y0173626D01*
X0093700Y0173534D01*
X0093659Y0173444D01*
X0093615Y0173355D01*
X0093567Y0173269D01*
X0093516Y0173184D01*
X0093461Y0173101D01*
X0093403Y0173021D01*
X0093342Y0172943D01*
X0093278Y0172867D01*
X0093211Y0172794D01*
X0093141Y0172724D01*
X0093068Y0172657D01*
X0092992Y0172593D01*
X0092914Y0172532D01*
X0092834Y0172474D01*
X0092751Y0172419D01*
X0092667Y0172368D01*
X0092580Y0172320D01*
X0092491Y0172276D01*
X0092401Y0172235D01*
X0092309Y0172198D01*
X0092215Y0172165D01*
X0092121Y0172135D01*
X0092025Y0172110D01*
X0091928Y0172088D01*
X0091831Y0172070D01*
X0091733Y0172056D01*
X0091634Y0172046D01*
X0091535Y0172040D01*
X0091436Y0172038D01*
X0091337Y0172040D01*
X0091238Y0172046D01*
X0091139Y0172056D01*
X0091041Y0172070D01*
X0090944Y0172088D01*
X0090847Y0172110D01*
X0090751Y0172135D01*
X0090657Y0172165D01*
X0090563Y0172198D01*
X0090471Y0172235D01*
X0090381Y0172276D01*
X0090292Y0172320D01*
X0090206Y0172368D01*
X0090121Y0172419D01*
X0090038Y0172474D01*
X0089958Y0172532D01*
X0089880Y0172593D01*
X0089804Y0172657D01*
X0089731Y0172724D01*
X0089661Y0172794D01*
X0089594Y0172867D01*
X0089530Y0172943D01*
X0089469Y0173021D01*
X0089411Y0173101D01*
X0089356Y0173184D01*
X0089305Y0173268D01*
X0089257Y0173355D01*
X0089213Y0173444D01*
X0089172Y0173534D01*
X0089135Y0173626D01*
X0089102Y0173720D01*
X0089072Y0173814D01*
X0089047Y0173910D01*
X0089025Y0174007D01*
X0089007Y0174104D01*
X0088993Y0174202D01*
X0088983Y0174301D01*
X0088977Y0174400D01*
X0088975Y0174499D01*
X0094487Y0165444D02*
X0094489Y0165543D01*
X0094495Y0165642D01*
X0094505Y0165741D01*
X0094519Y0165839D01*
X0094537Y0165936D01*
X0094559Y0166033D01*
X0094584Y0166129D01*
X0094614Y0166223D01*
X0094647Y0166317D01*
X0094684Y0166409D01*
X0094725Y0166499D01*
X0094769Y0166588D01*
X0094817Y0166674D01*
X0094868Y0166759D01*
X0094923Y0166842D01*
X0094981Y0166922D01*
X0095042Y0167000D01*
X0095106Y0167076D01*
X0095173Y0167149D01*
X0095243Y0167219D01*
X0095316Y0167286D01*
X0095392Y0167350D01*
X0095470Y0167411D01*
X0095550Y0167469D01*
X0095633Y0167524D01*
X0095717Y0167575D01*
X0095804Y0167623D01*
X0095893Y0167667D01*
X0095983Y0167708D01*
X0096075Y0167745D01*
X0096169Y0167778D01*
X0096263Y0167808D01*
X0096359Y0167833D01*
X0096456Y0167855D01*
X0096553Y0167873D01*
X0096651Y0167887D01*
X0096750Y0167897D01*
X0096849Y0167903D01*
X0096948Y0167905D01*
X0097047Y0167903D01*
X0097146Y0167897D01*
X0097245Y0167887D01*
X0097343Y0167873D01*
X0097440Y0167855D01*
X0097537Y0167833D01*
X0097633Y0167808D01*
X0097727Y0167778D01*
X0097821Y0167745D01*
X0097913Y0167708D01*
X0098003Y0167667D01*
X0098092Y0167623D01*
X0098178Y0167575D01*
X0098263Y0167524D01*
X0098346Y0167469D01*
X0098426Y0167411D01*
X0098504Y0167350D01*
X0098580Y0167286D01*
X0098653Y0167219D01*
X0098723Y0167149D01*
X0098790Y0167076D01*
X0098854Y0167000D01*
X0098915Y0166922D01*
X0098973Y0166842D01*
X0099028Y0166759D01*
X0099079Y0166675D01*
X0099127Y0166588D01*
X0099171Y0166499D01*
X0099212Y0166409D01*
X0099249Y0166317D01*
X0099282Y0166223D01*
X0099312Y0166129D01*
X0099337Y0166033D01*
X0099359Y0165936D01*
X0099377Y0165839D01*
X0099391Y0165741D01*
X0099401Y0165642D01*
X0099407Y0165543D01*
X0099409Y0165444D01*
X0099407Y0165345D01*
X0099401Y0165246D01*
X0099391Y0165147D01*
X0099377Y0165049D01*
X0099359Y0164952D01*
X0099337Y0164855D01*
X0099312Y0164759D01*
X0099282Y0164665D01*
X0099249Y0164571D01*
X0099212Y0164479D01*
X0099171Y0164389D01*
X0099127Y0164300D01*
X0099079Y0164214D01*
X0099028Y0164129D01*
X0098973Y0164046D01*
X0098915Y0163966D01*
X0098854Y0163888D01*
X0098790Y0163812D01*
X0098723Y0163739D01*
X0098653Y0163669D01*
X0098580Y0163602D01*
X0098504Y0163538D01*
X0098426Y0163477D01*
X0098346Y0163419D01*
X0098263Y0163364D01*
X0098179Y0163313D01*
X0098092Y0163265D01*
X0098003Y0163221D01*
X0097913Y0163180D01*
X0097821Y0163143D01*
X0097727Y0163110D01*
X0097633Y0163080D01*
X0097537Y0163055D01*
X0097440Y0163033D01*
X0097343Y0163015D01*
X0097245Y0163001D01*
X0097146Y0162991D01*
X0097047Y0162985D01*
X0096948Y0162983D01*
X0096849Y0162985D01*
X0096750Y0162991D01*
X0096651Y0163001D01*
X0096553Y0163015D01*
X0096456Y0163033D01*
X0096359Y0163055D01*
X0096263Y0163080D01*
X0096169Y0163110D01*
X0096075Y0163143D01*
X0095983Y0163180D01*
X0095893Y0163221D01*
X0095804Y0163265D01*
X0095718Y0163313D01*
X0095633Y0163364D01*
X0095550Y0163419D01*
X0095470Y0163477D01*
X0095392Y0163538D01*
X0095316Y0163602D01*
X0095243Y0163669D01*
X0095173Y0163739D01*
X0095106Y0163812D01*
X0095042Y0163888D01*
X0094981Y0163966D01*
X0094923Y0164046D01*
X0094868Y0164129D01*
X0094817Y0164213D01*
X0094769Y0164300D01*
X0094725Y0164389D01*
X0094684Y0164479D01*
X0094647Y0164571D01*
X0094614Y0164665D01*
X0094584Y0164759D01*
X0094559Y0164855D01*
X0094537Y0164952D01*
X0094519Y0165049D01*
X0094505Y0165147D01*
X0094495Y0165246D01*
X0094489Y0165345D01*
X0094487Y0165444D01*
X0062990Y0165444D02*
X0062992Y0165543D01*
X0062998Y0165642D01*
X0063008Y0165741D01*
X0063022Y0165839D01*
X0063040Y0165936D01*
X0063062Y0166033D01*
X0063087Y0166129D01*
X0063117Y0166223D01*
X0063150Y0166317D01*
X0063187Y0166409D01*
X0063228Y0166499D01*
X0063272Y0166588D01*
X0063320Y0166674D01*
X0063371Y0166759D01*
X0063426Y0166842D01*
X0063484Y0166922D01*
X0063545Y0167000D01*
X0063609Y0167076D01*
X0063676Y0167149D01*
X0063746Y0167219D01*
X0063819Y0167286D01*
X0063895Y0167350D01*
X0063973Y0167411D01*
X0064053Y0167469D01*
X0064136Y0167524D01*
X0064220Y0167575D01*
X0064307Y0167623D01*
X0064396Y0167667D01*
X0064486Y0167708D01*
X0064578Y0167745D01*
X0064672Y0167778D01*
X0064766Y0167808D01*
X0064862Y0167833D01*
X0064959Y0167855D01*
X0065056Y0167873D01*
X0065154Y0167887D01*
X0065253Y0167897D01*
X0065352Y0167903D01*
X0065451Y0167905D01*
X0065550Y0167903D01*
X0065649Y0167897D01*
X0065748Y0167887D01*
X0065846Y0167873D01*
X0065943Y0167855D01*
X0066040Y0167833D01*
X0066136Y0167808D01*
X0066230Y0167778D01*
X0066324Y0167745D01*
X0066416Y0167708D01*
X0066506Y0167667D01*
X0066595Y0167623D01*
X0066681Y0167575D01*
X0066766Y0167524D01*
X0066849Y0167469D01*
X0066929Y0167411D01*
X0067007Y0167350D01*
X0067083Y0167286D01*
X0067156Y0167219D01*
X0067226Y0167149D01*
X0067293Y0167076D01*
X0067357Y0167000D01*
X0067418Y0166922D01*
X0067476Y0166842D01*
X0067531Y0166759D01*
X0067582Y0166675D01*
X0067630Y0166588D01*
X0067674Y0166499D01*
X0067715Y0166409D01*
X0067752Y0166317D01*
X0067785Y0166223D01*
X0067815Y0166129D01*
X0067840Y0166033D01*
X0067862Y0165936D01*
X0067880Y0165839D01*
X0067894Y0165741D01*
X0067904Y0165642D01*
X0067910Y0165543D01*
X0067912Y0165444D01*
X0067910Y0165345D01*
X0067904Y0165246D01*
X0067894Y0165147D01*
X0067880Y0165049D01*
X0067862Y0164952D01*
X0067840Y0164855D01*
X0067815Y0164759D01*
X0067785Y0164665D01*
X0067752Y0164571D01*
X0067715Y0164479D01*
X0067674Y0164389D01*
X0067630Y0164300D01*
X0067582Y0164214D01*
X0067531Y0164129D01*
X0067476Y0164046D01*
X0067418Y0163966D01*
X0067357Y0163888D01*
X0067293Y0163812D01*
X0067226Y0163739D01*
X0067156Y0163669D01*
X0067083Y0163602D01*
X0067007Y0163538D01*
X0066929Y0163477D01*
X0066849Y0163419D01*
X0066766Y0163364D01*
X0066682Y0163313D01*
X0066595Y0163265D01*
X0066506Y0163221D01*
X0066416Y0163180D01*
X0066324Y0163143D01*
X0066230Y0163110D01*
X0066136Y0163080D01*
X0066040Y0163055D01*
X0065943Y0163033D01*
X0065846Y0163015D01*
X0065748Y0163001D01*
X0065649Y0162991D01*
X0065550Y0162985D01*
X0065451Y0162983D01*
X0065352Y0162985D01*
X0065253Y0162991D01*
X0065154Y0163001D01*
X0065056Y0163015D01*
X0064959Y0163033D01*
X0064862Y0163055D01*
X0064766Y0163080D01*
X0064672Y0163110D01*
X0064578Y0163143D01*
X0064486Y0163180D01*
X0064396Y0163221D01*
X0064307Y0163265D01*
X0064221Y0163313D01*
X0064136Y0163364D01*
X0064053Y0163419D01*
X0063973Y0163477D01*
X0063895Y0163538D01*
X0063819Y0163602D01*
X0063746Y0163669D01*
X0063676Y0163739D01*
X0063609Y0163812D01*
X0063545Y0163888D01*
X0063484Y0163966D01*
X0063426Y0164046D01*
X0063371Y0164129D01*
X0063320Y0164213D01*
X0063272Y0164300D01*
X0063228Y0164389D01*
X0063187Y0164479D01*
X0063150Y0164571D01*
X0063117Y0164665D01*
X0063087Y0164759D01*
X0063062Y0164855D01*
X0063040Y0164952D01*
X0063022Y0165049D01*
X0063008Y0165147D01*
X0062998Y0165246D01*
X0062992Y0165345D01*
X0062990Y0165444D01*
X0057479Y0174499D02*
X0057481Y0174598D01*
X0057487Y0174697D01*
X0057497Y0174796D01*
X0057511Y0174894D01*
X0057529Y0174991D01*
X0057551Y0175088D01*
X0057576Y0175184D01*
X0057606Y0175278D01*
X0057639Y0175372D01*
X0057676Y0175464D01*
X0057717Y0175554D01*
X0057761Y0175643D01*
X0057809Y0175729D01*
X0057860Y0175814D01*
X0057915Y0175897D01*
X0057973Y0175977D01*
X0058034Y0176055D01*
X0058098Y0176131D01*
X0058165Y0176204D01*
X0058235Y0176274D01*
X0058308Y0176341D01*
X0058384Y0176405D01*
X0058462Y0176466D01*
X0058542Y0176524D01*
X0058625Y0176579D01*
X0058709Y0176630D01*
X0058796Y0176678D01*
X0058885Y0176722D01*
X0058975Y0176763D01*
X0059067Y0176800D01*
X0059161Y0176833D01*
X0059255Y0176863D01*
X0059351Y0176888D01*
X0059448Y0176910D01*
X0059545Y0176928D01*
X0059643Y0176942D01*
X0059742Y0176952D01*
X0059841Y0176958D01*
X0059940Y0176960D01*
X0060039Y0176958D01*
X0060138Y0176952D01*
X0060237Y0176942D01*
X0060335Y0176928D01*
X0060432Y0176910D01*
X0060529Y0176888D01*
X0060625Y0176863D01*
X0060719Y0176833D01*
X0060813Y0176800D01*
X0060905Y0176763D01*
X0060995Y0176722D01*
X0061084Y0176678D01*
X0061170Y0176630D01*
X0061255Y0176579D01*
X0061338Y0176524D01*
X0061418Y0176466D01*
X0061496Y0176405D01*
X0061572Y0176341D01*
X0061645Y0176274D01*
X0061715Y0176204D01*
X0061782Y0176131D01*
X0061846Y0176055D01*
X0061907Y0175977D01*
X0061965Y0175897D01*
X0062020Y0175814D01*
X0062071Y0175730D01*
X0062119Y0175643D01*
X0062163Y0175554D01*
X0062204Y0175464D01*
X0062241Y0175372D01*
X0062274Y0175278D01*
X0062304Y0175184D01*
X0062329Y0175088D01*
X0062351Y0174991D01*
X0062369Y0174894D01*
X0062383Y0174796D01*
X0062393Y0174697D01*
X0062399Y0174598D01*
X0062401Y0174499D01*
X0062399Y0174400D01*
X0062393Y0174301D01*
X0062383Y0174202D01*
X0062369Y0174104D01*
X0062351Y0174007D01*
X0062329Y0173910D01*
X0062304Y0173814D01*
X0062274Y0173720D01*
X0062241Y0173626D01*
X0062204Y0173534D01*
X0062163Y0173444D01*
X0062119Y0173355D01*
X0062071Y0173269D01*
X0062020Y0173184D01*
X0061965Y0173101D01*
X0061907Y0173021D01*
X0061846Y0172943D01*
X0061782Y0172867D01*
X0061715Y0172794D01*
X0061645Y0172724D01*
X0061572Y0172657D01*
X0061496Y0172593D01*
X0061418Y0172532D01*
X0061338Y0172474D01*
X0061255Y0172419D01*
X0061171Y0172368D01*
X0061084Y0172320D01*
X0060995Y0172276D01*
X0060905Y0172235D01*
X0060813Y0172198D01*
X0060719Y0172165D01*
X0060625Y0172135D01*
X0060529Y0172110D01*
X0060432Y0172088D01*
X0060335Y0172070D01*
X0060237Y0172056D01*
X0060138Y0172046D01*
X0060039Y0172040D01*
X0059940Y0172038D01*
X0059841Y0172040D01*
X0059742Y0172046D01*
X0059643Y0172056D01*
X0059545Y0172070D01*
X0059448Y0172088D01*
X0059351Y0172110D01*
X0059255Y0172135D01*
X0059161Y0172165D01*
X0059067Y0172198D01*
X0058975Y0172235D01*
X0058885Y0172276D01*
X0058796Y0172320D01*
X0058710Y0172368D01*
X0058625Y0172419D01*
X0058542Y0172474D01*
X0058462Y0172532D01*
X0058384Y0172593D01*
X0058308Y0172657D01*
X0058235Y0172724D01*
X0058165Y0172794D01*
X0058098Y0172867D01*
X0058034Y0172943D01*
X0057973Y0173021D01*
X0057915Y0173101D01*
X0057860Y0173184D01*
X0057809Y0173268D01*
X0057761Y0173355D01*
X0057717Y0173444D01*
X0057676Y0173534D01*
X0057639Y0173626D01*
X0057606Y0173720D01*
X0057576Y0173814D01*
X0057551Y0173910D01*
X0057529Y0174007D01*
X0057511Y0174104D01*
X0057497Y0174202D01*
X0057487Y0174301D01*
X0057481Y0174400D01*
X0057479Y0174499D01*
D212*
X0108318Y0155297D02*
X0108318Y0153646D01*
X0111621Y0153646D01*
X0110520Y0153646D02*
X0110520Y0155297D01*
X0109970Y0155848D01*
X0108869Y0155848D01*
X0108318Y0155297D01*
X0108869Y0152165D02*
X0108318Y0151614D01*
X0108318Y0150513D01*
X0108869Y0149963D01*
X0111071Y0149963D01*
X0111621Y0150513D01*
X0111621Y0151614D01*
X0111071Y0152165D01*
X0108869Y0152165D01*
X0108318Y0148482D02*
X0108318Y0146280D01*
X0108318Y0147381D02*
X0111621Y0147381D01*
X0112172Y0144798D02*
X0112172Y0142597D01*
X0111071Y0141115D02*
X0108869Y0141115D01*
X0108318Y0140565D01*
X0108318Y0139464D01*
X0108869Y0138913D01*
X0111071Y0138913D01*
X0111621Y0139464D01*
X0111621Y0140565D01*
X0111071Y0141115D01*
X0111621Y0137559D02*
X0111621Y0136458D01*
X0111621Y0137008D02*
X0108318Y0137008D01*
X0108318Y0136458D02*
X0108318Y0137559D01*
X0108869Y0134977D02*
X0108318Y0134426D01*
X0108318Y0132775D01*
X0111621Y0132775D01*
X0111621Y0134426D01*
X0111071Y0134977D01*
X0108869Y0134977D01*
X0108869Y0131294D02*
X0108318Y0130743D01*
X0108318Y0129642D01*
X0108869Y0129092D01*
X0109419Y0129092D01*
X0109970Y0129642D01*
X0109970Y0130743D01*
X0110520Y0131294D01*
X0111071Y0131294D01*
X0111621Y0130743D01*
X0111621Y0129642D01*
X0111071Y0129092D01*
M02*
