G75*
%MOIN*%
%OFA0B0*%
%FSLAX25Y25*%
%IPPOS*%
%LPD*%
%AMOC8*
5,1,8,0,0,1.08239X$1,22.5*
%
%ADD10C,0.06000*%
%ADD11R,0.06000X0.06000*%
%ADD12C,0.00500*%
%ADD13R,0.01575X0.05315*%
%ADD14R,0.05906X0.07480*%
%ADD15C,0.06791*%
%ADD16C,0.05020*%
%ADD17C,0.00000*%
%ADD18R,0.05512X0.07874*%
%ADD19R,0.05039X0.05512*%
%ADD20R,0.07677X0.05512*%
%ADD21R,0.02756X0.05512*%
%ADD22C,0.01200*%
%ADD23C,0.01600*%
%ADD24C,0.02400*%
D10*
X0026936Y0005050D03*
X0035936Y0005050D03*
X0036936Y0015050D03*
X0035936Y0025050D03*
X0026936Y0025050D03*
X0025936Y0015050D03*
X0025936Y0035050D03*
X0026936Y0045050D03*
X0035936Y0045050D03*
X0036936Y0035050D03*
X0036936Y0055050D03*
X0035936Y0065050D03*
X0026936Y0065050D03*
X0025936Y0055050D03*
X0025936Y0075050D03*
X0026936Y0085050D03*
X0035936Y0085050D03*
X0036936Y0075050D03*
X0036936Y0095050D03*
X0035936Y0105050D03*
X0036936Y0115050D03*
X0035936Y0125050D03*
X0026936Y0125050D03*
X0025936Y0115050D03*
X0026936Y0105050D03*
X0025936Y0095050D03*
X0025936Y0135050D03*
X0026936Y0145050D03*
X0035936Y0145050D03*
X0036936Y0135050D03*
X0036936Y0155050D03*
X0035936Y0165050D03*
X0026936Y0165050D03*
X0025936Y0155050D03*
X0025936Y0175050D03*
X0026936Y0185050D03*
X0035936Y0185050D03*
X0036936Y0175050D03*
X0036936Y0195050D03*
X0165936Y0185050D03*
X0166936Y0175050D03*
X0175936Y0175050D03*
X0176936Y0185050D03*
X0175936Y0195050D03*
X0176936Y0165050D03*
X0175936Y0155050D03*
X0166936Y0155050D03*
X0165936Y0145050D03*
X0166936Y0135050D03*
X0175936Y0135050D03*
X0176936Y0125050D03*
X0175936Y0115050D03*
X0166936Y0115050D03*
X0165936Y0105050D03*
X0166936Y0095050D03*
X0175936Y0095050D03*
X0176936Y0085050D03*
X0175936Y0075050D03*
X0166936Y0075050D03*
X0165936Y0065050D03*
X0166936Y0055050D03*
X0175936Y0055050D03*
X0176936Y0045050D03*
X0175936Y0035050D03*
X0166936Y0035050D03*
X0165936Y0045050D03*
X0165936Y0025050D03*
X0166936Y0015050D03*
X0175936Y0015050D03*
X0176936Y0005050D03*
X0165936Y0005050D03*
X0176936Y0025050D03*
X0176936Y0065050D03*
X0165936Y0085050D03*
X0176936Y0105050D03*
X0165936Y0125050D03*
X0176936Y0145050D03*
X0165936Y0165050D03*
D11*
X0166936Y0195050D03*
X0025936Y0195050D03*
D12*
X0020727Y0198475D02*
X0020727Y0001625D01*
X0041869Y0001625D01*
X0159192Y0001625D01*
X0182144Y0001625D01*
X0182144Y0198475D01*
X0159192Y0198475D01*
X0041869Y0198475D01*
X0020727Y0198475D01*
D13*
X0127066Y0182471D03*
X0129625Y0182471D03*
X0132184Y0182471D03*
X0134743Y0182471D03*
X0137302Y0182471D03*
D14*
X0136121Y0193003D03*
X0128247Y0192963D03*
D15*
X0118404Y0193003D03*
X0145963Y0193003D03*
D16*
X0142026Y0182668D03*
X0122341Y0182668D03*
D17*
X0094487Y0165444D02*
X0094489Y0165543D01*
X0094495Y0165642D01*
X0094505Y0165741D01*
X0094519Y0165839D01*
X0094537Y0165936D01*
X0094559Y0166033D01*
X0094584Y0166129D01*
X0094614Y0166223D01*
X0094647Y0166317D01*
X0094684Y0166409D01*
X0094725Y0166499D01*
X0094769Y0166588D01*
X0094817Y0166674D01*
X0094868Y0166759D01*
X0094923Y0166842D01*
X0094981Y0166922D01*
X0095042Y0167000D01*
X0095106Y0167076D01*
X0095173Y0167149D01*
X0095243Y0167219D01*
X0095316Y0167286D01*
X0095392Y0167350D01*
X0095470Y0167411D01*
X0095550Y0167469D01*
X0095633Y0167524D01*
X0095717Y0167575D01*
X0095804Y0167623D01*
X0095893Y0167667D01*
X0095983Y0167708D01*
X0096075Y0167745D01*
X0096169Y0167778D01*
X0096263Y0167808D01*
X0096359Y0167833D01*
X0096456Y0167855D01*
X0096553Y0167873D01*
X0096651Y0167887D01*
X0096750Y0167897D01*
X0096849Y0167903D01*
X0096948Y0167905D01*
X0097047Y0167903D01*
X0097146Y0167897D01*
X0097245Y0167887D01*
X0097343Y0167873D01*
X0097440Y0167855D01*
X0097537Y0167833D01*
X0097633Y0167808D01*
X0097727Y0167778D01*
X0097821Y0167745D01*
X0097913Y0167708D01*
X0098003Y0167667D01*
X0098092Y0167623D01*
X0098178Y0167575D01*
X0098263Y0167524D01*
X0098346Y0167469D01*
X0098426Y0167411D01*
X0098504Y0167350D01*
X0098580Y0167286D01*
X0098653Y0167219D01*
X0098723Y0167149D01*
X0098790Y0167076D01*
X0098854Y0167000D01*
X0098915Y0166922D01*
X0098973Y0166842D01*
X0099028Y0166759D01*
X0099079Y0166675D01*
X0099127Y0166588D01*
X0099171Y0166499D01*
X0099212Y0166409D01*
X0099249Y0166317D01*
X0099282Y0166223D01*
X0099312Y0166129D01*
X0099337Y0166033D01*
X0099359Y0165936D01*
X0099377Y0165839D01*
X0099391Y0165741D01*
X0099401Y0165642D01*
X0099407Y0165543D01*
X0099409Y0165444D01*
X0099407Y0165345D01*
X0099401Y0165246D01*
X0099391Y0165147D01*
X0099377Y0165049D01*
X0099359Y0164952D01*
X0099337Y0164855D01*
X0099312Y0164759D01*
X0099282Y0164665D01*
X0099249Y0164571D01*
X0099212Y0164479D01*
X0099171Y0164389D01*
X0099127Y0164300D01*
X0099079Y0164214D01*
X0099028Y0164129D01*
X0098973Y0164046D01*
X0098915Y0163966D01*
X0098854Y0163888D01*
X0098790Y0163812D01*
X0098723Y0163739D01*
X0098653Y0163669D01*
X0098580Y0163602D01*
X0098504Y0163538D01*
X0098426Y0163477D01*
X0098346Y0163419D01*
X0098263Y0163364D01*
X0098179Y0163313D01*
X0098092Y0163265D01*
X0098003Y0163221D01*
X0097913Y0163180D01*
X0097821Y0163143D01*
X0097727Y0163110D01*
X0097633Y0163080D01*
X0097537Y0163055D01*
X0097440Y0163033D01*
X0097343Y0163015D01*
X0097245Y0163001D01*
X0097146Y0162991D01*
X0097047Y0162985D01*
X0096948Y0162983D01*
X0096849Y0162985D01*
X0096750Y0162991D01*
X0096651Y0163001D01*
X0096553Y0163015D01*
X0096456Y0163033D01*
X0096359Y0163055D01*
X0096263Y0163080D01*
X0096169Y0163110D01*
X0096075Y0163143D01*
X0095983Y0163180D01*
X0095893Y0163221D01*
X0095804Y0163265D01*
X0095718Y0163313D01*
X0095633Y0163364D01*
X0095550Y0163419D01*
X0095470Y0163477D01*
X0095392Y0163538D01*
X0095316Y0163602D01*
X0095243Y0163669D01*
X0095173Y0163739D01*
X0095106Y0163812D01*
X0095042Y0163888D01*
X0094981Y0163966D01*
X0094923Y0164046D01*
X0094868Y0164129D01*
X0094817Y0164213D01*
X0094769Y0164300D01*
X0094725Y0164389D01*
X0094684Y0164479D01*
X0094647Y0164571D01*
X0094614Y0164665D01*
X0094584Y0164759D01*
X0094559Y0164855D01*
X0094537Y0164952D01*
X0094519Y0165049D01*
X0094505Y0165147D01*
X0094495Y0165246D01*
X0094489Y0165345D01*
X0094487Y0165444D01*
X0088975Y0174499D02*
X0088977Y0174598D01*
X0088983Y0174697D01*
X0088993Y0174796D01*
X0089007Y0174894D01*
X0089025Y0174991D01*
X0089047Y0175088D01*
X0089072Y0175184D01*
X0089102Y0175278D01*
X0089135Y0175372D01*
X0089172Y0175464D01*
X0089213Y0175554D01*
X0089257Y0175643D01*
X0089305Y0175729D01*
X0089356Y0175814D01*
X0089411Y0175897D01*
X0089469Y0175977D01*
X0089530Y0176055D01*
X0089594Y0176131D01*
X0089661Y0176204D01*
X0089731Y0176274D01*
X0089804Y0176341D01*
X0089880Y0176405D01*
X0089958Y0176466D01*
X0090038Y0176524D01*
X0090121Y0176579D01*
X0090205Y0176630D01*
X0090292Y0176678D01*
X0090381Y0176722D01*
X0090471Y0176763D01*
X0090563Y0176800D01*
X0090657Y0176833D01*
X0090751Y0176863D01*
X0090847Y0176888D01*
X0090944Y0176910D01*
X0091041Y0176928D01*
X0091139Y0176942D01*
X0091238Y0176952D01*
X0091337Y0176958D01*
X0091436Y0176960D01*
X0091535Y0176958D01*
X0091634Y0176952D01*
X0091733Y0176942D01*
X0091831Y0176928D01*
X0091928Y0176910D01*
X0092025Y0176888D01*
X0092121Y0176863D01*
X0092215Y0176833D01*
X0092309Y0176800D01*
X0092401Y0176763D01*
X0092491Y0176722D01*
X0092580Y0176678D01*
X0092666Y0176630D01*
X0092751Y0176579D01*
X0092834Y0176524D01*
X0092914Y0176466D01*
X0092992Y0176405D01*
X0093068Y0176341D01*
X0093141Y0176274D01*
X0093211Y0176204D01*
X0093278Y0176131D01*
X0093342Y0176055D01*
X0093403Y0175977D01*
X0093461Y0175897D01*
X0093516Y0175814D01*
X0093567Y0175730D01*
X0093615Y0175643D01*
X0093659Y0175554D01*
X0093700Y0175464D01*
X0093737Y0175372D01*
X0093770Y0175278D01*
X0093800Y0175184D01*
X0093825Y0175088D01*
X0093847Y0174991D01*
X0093865Y0174894D01*
X0093879Y0174796D01*
X0093889Y0174697D01*
X0093895Y0174598D01*
X0093897Y0174499D01*
X0093895Y0174400D01*
X0093889Y0174301D01*
X0093879Y0174202D01*
X0093865Y0174104D01*
X0093847Y0174007D01*
X0093825Y0173910D01*
X0093800Y0173814D01*
X0093770Y0173720D01*
X0093737Y0173626D01*
X0093700Y0173534D01*
X0093659Y0173444D01*
X0093615Y0173355D01*
X0093567Y0173269D01*
X0093516Y0173184D01*
X0093461Y0173101D01*
X0093403Y0173021D01*
X0093342Y0172943D01*
X0093278Y0172867D01*
X0093211Y0172794D01*
X0093141Y0172724D01*
X0093068Y0172657D01*
X0092992Y0172593D01*
X0092914Y0172532D01*
X0092834Y0172474D01*
X0092751Y0172419D01*
X0092667Y0172368D01*
X0092580Y0172320D01*
X0092491Y0172276D01*
X0092401Y0172235D01*
X0092309Y0172198D01*
X0092215Y0172165D01*
X0092121Y0172135D01*
X0092025Y0172110D01*
X0091928Y0172088D01*
X0091831Y0172070D01*
X0091733Y0172056D01*
X0091634Y0172046D01*
X0091535Y0172040D01*
X0091436Y0172038D01*
X0091337Y0172040D01*
X0091238Y0172046D01*
X0091139Y0172056D01*
X0091041Y0172070D01*
X0090944Y0172088D01*
X0090847Y0172110D01*
X0090751Y0172135D01*
X0090657Y0172165D01*
X0090563Y0172198D01*
X0090471Y0172235D01*
X0090381Y0172276D01*
X0090292Y0172320D01*
X0090206Y0172368D01*
X0090121Y0172419D01*
X0090038Y0172474D01*
X0089958Y0172532D01*
X0089880Y0172593D01*
X0089804Y0172657D01*
X0089731Y0172724D01*
X0089661Y0172794D01*
X0089594Y0172867D01*
X0089530Y0172943D01*
X0089469Y0173021D01*
X0089411Y0173101D01*
X0089356Y0173184D01*
X0089305Y0173268D01*
X0089257Y0173355D01*
X0089213Y0173444D01*
X0089172Y0173534D01*
X0089135Y0173626D01*
X0089102Y0173720D01*
X0089072Y0173814D01*
X0089047Y0173910D01*
X0089025Y0174007D01*
X0089007Y0174104D01*
X0088993Y0174202D01*
X0088983Y0174301D01*
X0088977Y0174400D01*
X0088975Y0174499D01*
X0062990Y0165444D02*
X0062992Y0165543D01*
X0062998Y0165642D01*
X0063008Y0165741D01*
X0063022Y0165839D01*
X0063040Y0165936D01*
X0063062Y0166033D01*
X0063087Y0166129D01*
X0063117Y0166223D01*
X0063150Y0166317D01*
X0063187Y0166409D01*
X0063228Y0166499D01*
X0063272Y0166588D01*
X0063320Y0166674D01*
X0063371Y0166759D01*
X0063426Y0166842D01*
X0063484Y0166922D01*
X0063545Y0167000D01*
X0063609Y0167076D01*
X0063676Y0167149D01*
X0063746Y0167219D01*
X0063819Y0167286D01*
X0063895Y0167350D01*
X0063973Y0167411D01*
X0064053Y0167469D01*
X0064136Y0167524D01*
X0064220Y0167575D01*
X0064307Y0167623D01*
X0064396Y0167667D01*
X0064486Y0167708D01*
X0064578Y0167745D01*
X0064672Y0167778D01*
X0064766Y0167808D01*
X0064862Y0167833D01*
X0064959Y0167855D01*
X0065056Y0167873D01*
X0065154Y0167887D01*
X0065253Y0167897D01*
X0065352Y0167903D01*
X0065451Y0167905D01*
X0065550Y0167903D01*
X0065649Y0167897D01*
X0065748Y0167887D01*
X0065846Y0167873D01*
X0065943Y0167855D01*
X0066040Y0167833D01*
X0066136Y0167808D01*
X0066230Y0167778D01*
X0066324Y0167745D01*
X0066416Y0167708D01*
X0066506Y0167667D01*
X0066595Y0167623D01*
X0066681Y0167575D01*
X0066766Y0167524D01*
X0066849Y0167469D01*
X0066929Y0167411D01*
X0067007Y0167350D01*
X0067083Y0167286D01*
X0067156Y0167219D01*
X0067226Y0167149D01*
X0067293Y0167076D01*
X0067357Y0167000D01*
X0067418Y0166922D01*
X0067476Y0166842D01*
X0067531Y0166759D01*
X0067582Y0166675D01*
X0067630Y0166588D01*
X0067674Y0166499D01*
X0067715Y0166409D01*
X0067752Y0166317D01*
X0067785Y0166223D01*
X0067815Y0166129D01*
X0067840Y0166033D01*
X0067862Y0165936D01*
X0067880Y0165839D01*
X0067894Y0165741D01*
X0067904Y0165642D01*
X0067910Y0165543D01*
X0067912Y0165444D01*
X0067910Y0165345D01*
X0067904Y0165246D01*
X0067894Y0165147D01*
X0067880Y0165049D01*
X0067862Y0164952D01*
X0067840Y0164855D01*
X0067815Y0164759D01*
X0067785Y0164665D01*
X0067752Y0164571D01*
X0067715Y0164479D01*
X0067674Y0164389D01*
X0067630Y0164300D01*
X0067582Y0164214D01*
X0067531Y0164129D01*
X0067476Y0164046D01*
X0067418Y0163966D01*
X0067357Y0163888D01*
X0067293Y0163812D01*
X0067226Y0163739D01*
X0067156Y0163669D01*
X0067083Y0163602D01*
X0067007Y0163538D01*
X0066929Y0163477D01*
X0066849Y0163419D01*
X0066766Y0163364D01*
X0066682Y0163313D01*
X0066595Y0163265D01*
X0066506Y0163221D01*
X0066416Y0163180D01*
X0066324Y0163143D01*
X0066230Y0163110D01*
X0066136Y0163080D01*
X0066040Y0163055D01*
X0065943Y0163033D01*
X0065846Y0163015D01*
X0065748Y0163001D01*
X0065649Y0162991D01*
X0065550Y0162985D01*
X0065451Y0162983D01*
X0065352Y0162985D01*
X0065253Y0162991D01*
X0065154Y0163001D01*
X0065056Y0163015D01*
X0064959Y0163033D01*
X0064862Y0163055D01*
X0064766Y0163080D01*
X0064672Y0163110D01*
X0064578Y0163143D01*
X0064486Y0163180D01*
X0064396Y0163221D01*
X0064307Y0163265D01*
X0064221Y0163313D01*
X0064136Y0163364D01*
X0064053Y0163419D01*
X0063973Y0163477D01*
X0063895Y0163538D01*
X0063819Y0163602D01*
X0063746Y0163669D01*
X0063676Y0163739D01*
X0063609Y0163812D01*
X0063545Y0163888D01*
X0063484Y0163966D01*
X0063426Y0164046D01*
X0063371Y0164129D01*
X0063320Y0164213D01*
X0063272Y0164300D01*
X0063228Y0164389D01*
X0063187Y0164479D01*
X0063150Y0164571D01*
X0063117Y0164665D01*
X0063087Y0164759D01*
X0063062Y0164855D01*
X0063040Y0164952D01*
X0063022Y0165049D01*
X0063008Y0165147D01*
X0062998Y0165246D01*
X0062992Y0165345D01*
X0062990Y0165444D01*
X0057479Y0174499D02*
X0057481Y0174598D01*
X0057487Y0174697D01*
X0057497Y0174796D01*
X0057511Y0174894D01*
X0057529Y0174991D01*
X0057551Y0175088D01*
X0057576Y0175184D01*
X0057606Y0175278D01*
X0057639Y0175372D01*
X0057676Y0175464D01*
X0057717Y0175554D01*
X0057761Y0175643D01*
X0057809Y0175729D01*
X0057860Y0175814D01*
X0057915Y0175897D01*
X0057973Y0175977D01*
X0058034Y0176055D01*
X0058098Y0176131D01*
X0058165Y0176204D01*
X0058235Y0176274D01*
X0058308Y0176341D01*
X0058384Y0176405D01*
X0058462Y0176466D01*
X0058542Y0176524D01*
X0058625Y0176579D01*
X0058709Y0176630D01*
X0058796Y0176678D01*
X0058885Y0176722D01*
X0058975Y0176763D01*
X0059067Y0176800D01*
X0059161Y0176833D01*
X0059255Y0176863D01*
X0059351Y0176888D01*
X0059448Y0176910D01*
X0059545Y0176928D01*
X0059643Y0176942D01*
X0059742Y0176952D01*
X0059841Y0176958D01*
X0059940Y0176960D01*
X0060039Y0176958D01*
X0060138Y0176952D01*
X0060237Y0176942D01*
X0060335Y0176928D01*
X0060432Y0176910D01*
X0060529Y0176888D01*
X0060625Y0176863D01*
X0060719Y0176833D01*
X0060813Y0176800D01*
X0060905Y0176763D01*
X0060995Y0176722D01*
X0061084Y0176678D01*
X0061170Y0176630D01*
X0061255Y0176579D01*
X0061338Y0176524D01*
X0061418Y0176466D01*
X0061496Y0176405D01*
X0061572Y0176341D01*
X0061645Y0176274D01*
X0061715Y0176204D01*
X0061782Y0176131D01*
X0061846Y0176055D01*
X0061907Y0175977D01*
X0061965Y0175897D01*
X0062020Y0175814D01*
X0062071Y0175730D01*
X0062119Y0175643D01*
X0062163Y0175554D01*
X0062204Y0175464D01*
X0062241Y0175372D01*
X0062274Y0175278D01*
X0062304Y0175184D01*
X0062329Y0175088D01*
X0062351Y0174991D01*
X0062369Y0174894D01*
X0062383Y0174796D01*
X0062393Y0174697D01*
X0062399Y0174598D01*
X0062401Y0174499D01*
X0062399Y0174400D01*
X0062393Y0174301D01*
X0062383Y0174202D01*
X0062369Y0174104D01*
X0062351Y0174007D01*
X0062329Y0173910D01*
X0062304Y0173814D01*
X0062274Y0173720D01*
X0062241Y0173626D01*
X0062204Y0173534D01*
X0062163Y0173444D01*
X0062119Y0173355D01*
X0062071Y0173269D01*
X0062020Y0173184D01*
X0061965Y0173101D01*
X0061907Y0173021D01*
X0061846Y0172943D01*
X0061782Y0172867D01*
X0061715Y0172794D01*
X0061645Y0172724D01*
X0061572Y0172657D01*
X0061496Y0172593D01*
X0061418Y0172532D01*
X0061338Y0172474D01*
X0061255Y0172419D01*
X0061171Y0172368D01*
X0061084Y0172320D01*
X0060995Y0172276D01*
X0060905Y0172235D01*
X0060813Y0172198D01*
X0060719Y0172165D01*
X0060625Y0172135D01*
X0060529Y0172110D01*
X0060432Y0172088D01*
X0060335Y0172070D01*
X0060237Y0172056D01*
X0060138Y0172046D01*
X0060039Y0172040D01*
X0059940Y0172038D01*
X0059841Y0172040D01*
X0059742Y0172046D01*
X0059643Y0172056D01*
X0059545Y0172070D01*
X0059448Y0172088D01*
X0059351Y0172110D01*
X0059255Y0172135D01*
X0059161Y0172165D01*
X0059067Y0172198D01*
X0058975Y0172235D01*
X0058885Y0172276D01*
X0058796Y0172320D01*
X0058710Y0172368D01*
X0058625Y0172419D01*
X0058542Y0172474D01*
X0058462Y0172532D01*
X0058384Y0172593D01*
X0058308Y0172657D01*
X0058235Y0172724D01*
X0058165Y0172794D01*
X0058098Y0172867D01*
X0058034Y0172943D01*
X0057973Y0173021D01*
X0057915Y0173101D01*
X0057860Y0173184D01*
X0057809Y0173268D01*
X0057761Y0173355D01*
X0057717Y0173444D01*
X0057676Y0173534D01*
X0057639Y0173626D01*
X0057606Y0173720D01*
X0057576Y0173814D01*
X0057551Y0173910D01*
X0057529Y0174007D01*
X0057511Y0174104D01*
X0057497Y0174202D01*
X0057487Y0174301D01*
X0057481Y0174400D01*
X0057479Y0174499D01*
D18*
X0046554Y0163869D03*
X0108759Y0163869D03*
D19*
X0108995Y0126074D03*
D20*
X0049999Y0126074D03*
D21*
X0068995Y0122648D03*
X0073325Y0122648D03*
X0077656Y0122648D03*
X0081987Y0122648D03*
X0086318Y0122648D03*
X0090648Y0122648D03*
X0094979Y0122648D03*
X0099310Y0122648D03*
X0103640Y0122648D03*
D22*
X0103640Y0128633D01*
X0101367Y0129415D02*
X0101110Y0129415D01*
X0101240Y0129110D02*
X0101240Y0128155D01*
X0101606Y0127273D01*
X0101840Y0127039D01*
X0101840Y0126604D01*
X0101765Y0126604D01*
X0101475Y0126314D01*
X0101185Y0126604D01*
X0101110Y0126604D01*
X0101110Y0134974D01*
X0101236Y0135100D01*
X0137479Y0135100D01*
X0138108Y0134472D01*
X0138990Y0134107D01*
X0139945Y0134107D01*
X0140827Y0134472D01*
X0141502Y0135147D01*
X0141867Y0136029D01*
X0141867Y0136984D01*
X0141502Y0137866D01*
X0140827Y0138541D01*
X0139945Y0138907D01*
X0138990Y0138907D01*
X0138975Y0138900D01*
X0138245Y0138900D01*
X0138045Y0138700D01*
X0099745Y0138700D01*
X0098691Y0137646D01*
X0097510Y0136465D01*
X0097510Y0126604D01*
X0097435Y0126604D01*
X0097144Y0126314D01*
X0096854Y0126604D01*
X0096779Y0126604D01*
X0096779Y0138911D01*
X0096906Y0139037D01*
X0146141Y0139037D01*
X0146769Y0138409D01*
X0147651Y0138044D01*
X0148606Y0138044D01*
X0149488Y0138409D01*
X0150163Y0139084D01*
X0150529Y0139966D01*
X0150529Y0140921D01*
X0150163Y0141803D01*
X0149488Y0142478D01*
X0148606Y0142844D01*
X0147651Y0142844D01*
X0147636Y0142837D01*
X0146906Y0142837D01*
X0146706Y0142637D01*
X0095415Y0142637D01*
X0094360Y0141583D01*
X0093179Y0140402D01*
X0093179Y0126604D01*
X0093104Y0126604D01*
X0093096Y0126597D01*
X0093009Y0126685D01*
X0092644Y0126895D01*
X0092237Y0127004D01*
X0090737Y0127004D01*
X0090737Y0122737D01*
X0090559Y0122737D01*
X0090559Y0127004D01*
X0089060Y0127004D01*
X0088653Y0126895D01*
X0088288Y0126685D01*
X0088200Y0126597D01*
X0088193Y0126604D01*
X0088118Y0126604D01*
X0088118Y0145997D01*
X0088638Y0146518D01*
X0153268Y0146518D01*
X0153574Y0145777D01*
X0154249Y0145102D01*
X0155132Y0144737D01*
X0156086Y0144737D01*
X0156968Y0145102D01*
X0157644Y0145777D01*
X0158009Y0146659D01*
X0158009Y0147614D01*
X0157644Y0148496D01*
X0156968Y0149171D01*
X0156086Y0149537D01*
X0156037Y0149537D01*
X0155256Y0150318D01*
X0153599Y0150318D01*
X0153399Y0150118D01*
X0087147Y0150118D01*
X0086092Y0149063D01*
X0084518Y0147488D01*
X0084518Y0126604D01*
X0084443Y0126604D01*
X0084152Y0126314D01*
X0083862Y0126604D01*
X0083787Y0126604D01*
X0083787Y0150722D01*
X0083914Y0150848D01*
X0163506Y0150848D01*
X0163706Y0150648D01*
X0165363Y0150648D01*
X0165721Y0151007D01*
X0166100Y0150850D01*
X0167771Y0150850D01*
X0169315Y0151489D01*
X0170496Y0152671D01*
X0171136Y0154215D01*
X0171136Y0155885D01*
X0170496Y0157429D01*
X0169315Y0158611D01*
X0167771Y0159250D01*
X0166100Y0159250D01*
X0164557Y0158611D01*
X0163375Y0157429D01*
X0162736Y0155885D01*
X0162736Y0154448D01*
X0082422Y0154448D01*
X0080187Y0152213D01*
X0080187Y0142882D01*
X0079803Y0143266D01*
X0078921Y0143631D01*
X0077966Y0143631D01*
X0077084Y0143266D01*
X0076409Y0142591D01*
X0076044Y0141708D01*
X0076044Y0141660D01*
X0075656Y0141272D01*
X0075656Y0139615D01*
X0075856Y0139415D01*
X0075856Y0126604D01*
X0075781Y0126604D01*
X0075491Y0126314D01*
X0075200Y0126604D01*
X0075125Y0126604D01*
X0075125Y0148692D01*
X0075360Y0148927D01*
X0075725Y0149809D01*
X0075725Y0150764D01*
X0075360Y0151646D01*
X0074685Y0152321D01*
X0073803Y0152686D01*
X0072848Y0152686D01*
X0071966Y0152321D01*
X0071291Y0151646D01*
X0070925Y0150764D01*
X0070925Y0149809D01*
X0071291Y0148927D01*
X0071525Y0148692D01*
X0071525Y0126604D01*
X0071450Y0126604D01*
X0071160Y0126314D01*
X0070870Y0126604D01*
X0070795Y0126604D01*
X0070795Y0152235D01*
X0071029Y0152470D01*
X0071395Y0153352D01*
X0071395Y0154307D01*
X0071029Y0155189D01*
X0070354Y0155864D01*
X0069472Y0156230D01*
X0068517Y0156230D01*
X0067635Y0155864D01*
X0066960Y0155189D01*
X0066595Y0154307D01*
X0066595Y0153352D01*
X0066960Y0152470D01*
X0067195Y0152235D01*
X0067195Y0126604D01*
X0067120Y0126604D01*
X0066417Y0125901D01*
X0066417Y0119395D01*
X0067120Y0118693D01*
X0070870Y0118693D01*
X0071160Y0118983D01*
X0071450Y0118693D01*
X0075200Y0118693D01*
X0075491Y0118983D01*
X0075781Y0118693D01*
X0079531Y0118693D01*
X0079822Y0118983D01*
X0080112Y0118693D01*
X0083862Y0118693D01*
X0084152Y0118983D01*
X0084443Y0118693D01*
X0088193Y0118693D01*
X0088200Y0118700D01*
X0088288Y0118612D01*
X0088653Y0118402D01*
X0089060Y0118293D01*
X0090559Y0118293D01*
X0090559Y0122559D01*
X0090737Y0122559D01*
X0090737Y0118293D01*
X0092237Y0118293D01*
X0092644Y0118402D01*
X0093009Y0118612D01*
X0093096Y0118700D01*
X0093104Y0118693D01*
X0096854Y0118693D01*
X0097144Y0118983D01*
X0097435Y0118693D01*
X0101185Y0118693D01*
X0101475Y0118983D01*
X0101765Y0118693D01*
X0105515Y0118693D01*
X0106218Y0119395D01*
X0106218Y0121730D01*
X0106264Y0121718D01*
X0108395Y0121718D01*
X0108395Y0125474D01*
X0109595Y0125474D01*
X0109595Y0126674D01*
X0108395Y0126674D01*
X0108395Y0130430D01*
X0106264Y0130430D01*
X0105857Y0130320D01*
X0105534Y0130134D01*
X0105000Y0130667D01*
X0104118Y0131033D01*
X0103163Y0131033D01*
X0102281Y0130667D01*
X0101606Y0129992D01*
X0101240Y0129110D01*
X0101240Y0128216D02*
X0101110Y0128216D01*
X0101110Y0127018D02*
X0101840Y0127018D01*
X0102227Y0130613D02*
X0101110Y0130613D01*
X0101110Y0131812D02*
X0164234Y0131812D01*
X0164557Y0131489D02*
X0163375Y0132671D01*
X0162736Y0134215D01*
X0162736Y0135885D01*
X0163375Y0137429D01*
X0164557Y0138611D01*
X0166100Y0139250D01*
X0167771Y0139250D01*
X0169315Y0138611D01*
X0170496Y0137429D01*
X0171136Y0135885D01*
X0171136Y0134215D01*
X0170496Y0132671D01*
X0169315Y0131489D01*
X0167771Y0130850D01*
X0166100Y0130850D01*
X0164557Y0131489D01*
X0163234Y0133010D02*
X0101110Y0133010D01*
X0101110Y0134209D02*
X0138743Y0134209D01*
X0140191Y0134209D02*
X0162738Y0134209D01*
X0162736Y0135407D02*
X0141610Y0135407D01*
X0141867Y0136606D02*
X0163034Y0136606D01*
X0163750Y0137804D02*
X0141527Y0137804D01*
X0139073Y0136900D02*
X0100491Y0136900D01*
X0099310Y0135719D01*
X0099310Y0122648D01*
X0097510Y0127018D02*
X0096779Y0127018D01*
X0096779Y0128216D02*
X0097510Y0128216D01*
X0097510Y0129415D02*
X0096779Y0129415D01*
X0096779Y0130613D02*
X0097510Y0130613D01*
X0097510Y0131812D02*
X0096779Y0131812D01*
X0096779Y0133010D02*
X0097510Y0133010D01*
X0097510Y0134209D02*
X0096779Y0134209D01*
X0096779Y0135407D02*
X0097510Y0135407D01*
X0097651Y0136606D02*
X0096779Y0136606D01*
X0096779Y0137804D02*
X0098849Y0137804D01*
X0096871Y0139003D02*
X0146175Y0139003D01*
X0147735Y0140837D02*
X0096160Y0140837D01*
X0094979Y0139656D01*
X0094979Y0122648D01*
X0090737Y0122224D02*
X0090559Y0122224D01*
X0090648Y0122648D02*
X0090648Y0143200D01*
X0092223Y0144774D01*
X0150097Y0144774D01*
X0149198Y0142598D02*
X0162448Y0142598D01*
X0162375Y0142671D02*
X0163557Y0141489D01*
X0165100Y0140850D01*
X0166771Y0140850D01*
X0168315Y0141489D01*
X0169496Y0142671D01*
X0170136Y0144215D01*
X0170136Y0145885D01*
X0169496Y0147429D01*
X0168315Y0148611D01*
X0166771Y0149250D01*
X0165100Y0149250D01*
X0163557Y0148611D01*
X0162375Y0147429D01*
X0161736Y0145885D01*
X0161736Y0144215D01*
X0162375Y0142671D01*
X0161909Y0143797D02*
X0088118Y0143797D01*
X0088118Y0144995D02*
X0154507Y0144995D01*
X0153402Y0146194D02*
X0088314Y0146194D01*
X0086318Y0146743D02*
X0087892Y0148318D01*
X0154428Y0148318D01*
X0155784Y0149789D02*
X0176436Y0149789D01*
X0176436Y0149250D02*
X0176100Y0149250D01*
X0174557Y0148611D01*
X0173375Y0147429D01*
X0172736Y0145885D01*
X0172736Y0144215D01*
X0173375Y0142671D01*
X0174557Y0141489D01*
X0176100Y0140850D01*
X0176436Y0140850D01*
X0176436Y0139250D01*
X0175100Y0139250D01*
X0173557Y0138611D01*
X0172375Y0137429D01*
X0171736Y0135885D01*
X0171736Y0134215D01*
X0172375Y0132671D01*
X0173557Y0131489D01*
X0175100Y0130850D01*
X0176436Y0130850D01*
X0176436Y0129250D01*
X0176100Y0129250D01*
X0174557Y0128611D01*
X0173375Y0127429D01*
X0172736Y0125885D01*
X0172736Y0124215D01*
X0173375Y0122671D01*
X0174557Y0121489D01*
X0176100Y0120850D01*
X0176436Y0120850D01*
X0176436Y0119250D01*
X0175100Y0119250D01*
X0173557Y0118611D01*
X0172375Y0117429D01*
X0171736Y0115885D01*
X0171736Y0114215D01*
X0172375Y0112671D01*
X0173557Y0111489D01*
X0175100Y0110850D01*
X0176436Y0110850D01*
X0176436Y0109250D01*
X0176100Y0109250D01*
X0174557Y0108611D01*
X0173375Y0107429D01*
X0172736Y0105885D01*
X0172736Y0104215D01*
X0173375Y0102671D01*
X0174557Y0101489D01*
X0176100Y0100850D01*
X0176436Y0100850D01*
X0176436Y0099628D01*
X0176336Y0099644D01*
X0176336Y0095450D01*
X0175536Y0095450D01*
X0175536Y0099644D01*
X0174859Y0099537D01*
X0174170Y0099313D01*
X0173525Y0098984D01*
X0172939Y0098559D01*
X0172427Y0098047D01*
X0172001Y0097461D01*
X0171673Y0096816D01*
X0171449Y0096127D01*
X0171436Y0096043D01*
X0171422Y0096127D01*
X0171199Y0096816D01*
X0170870Y0097461D01*
X0170444Y0098047D01*
X0169932Y0098559D01*
X0169347Y0098984D01*
X0168701Y0099313D01*
X0168013Y0099537D01*
X0167336Y0099644D01*
X0167336Y0095450D01*
X0171342Y0095450D01*
X0175536Y0095450D01*
X0175536Y0094650D01*
X0176336Y0094650D01*
X0176336Y0090456D01*
X0176436Y0090472D01*
X0176436Y0089250D01*
X0176100Y0089250D01*
X0174557Y0088611D01*
X0173375Y0087429D01*
X0172736Y0085885D01*
X0172736Y0084215D01*
X0172976Y0083635D01*
X0171348Y0082007D01*
X0168833Y0082007D01*
X0169496Y0082671D01*
X0170136Y0084215D01*
X0170136Y0085885D01*
X0169496Y0087429D01*
X0168315Y0088611D01*
X0166771Y0089250D01*
X0165100Y0089250D01*
X0163557Y0088611D01*
X0162375Y0087429D01*
X0161736Y0085885D01*
X0161736Y0084215D01*
X0162375Y0082671D01*
X0163039Y0082007D01*
X0106022Y0082007D01*
X0105787Y0082242D01*
X0104905Y0082607D01*
X0103950Y0082607D01*
X0103068Y0082242D01*
X0102834Y0082007D01*
X0083520Y0082007D01*
X0077881Y0087646D01*
X0076827Y0088700D01*
X0055982Y0088700D01*
X0055675Y0089441D01*
X0055000Y0090116D01*
X0054118Y0090481D01*
X0053163Y0090481D01*
X0052281Y0090116D01*
X0051606Y0089441D01*
X0051240Y0088559D01*
X0051240Y0087604D01*
X0051606Y0086722D01*
X0052281Y0086047D01*
X0053163Y0085681D01*
X0053495Y0085681D01*
X0054076Y0085100D01*
X0075336Y0085100D01*
X0082029Y0078407D01*
X0102834Y0078407D01*
X0103068Y0078173D01*
X0103950Y0077807D01*
X0104905Y0077807D01*
X0105787Y0078173D01*
X0106022Y0078407D01*
X0164353Y0078407D01*
X0163375Y0077429D01*
X0162736Y0075885D01*
X0162736Y0074215D01*
X0163375Y0072671D01*
X0164557Y0071489D01*
X0166100Y0070850D01*
X0167771Y0070850D01*
X0169315Y0071489D01*
X0170496Y0072671D01*
X0171136Y0074215D01*
X0171136Y0075885D01*
X0170496Y0077429D01*
X0169518Y0078407D01*
X0172839Y0078407D01*
X0173893Y0079462D01*
X0175521Y0081090D01*
X0176100Y0080850D01*
X0176436Y0080850D01*
X0176436Y0079250D01*
X0175100Y0079250D01*
X0173557Y0078611D01*
X0172375Y0077429D01*
X0171736Y0075885D01*
X0171736Y0074215D01*
X0172375Y0072671D01*
X0173557Y0071489D01*
X0175100Y0070850D01*
X0176436Y0070850D01*
X0176436Y0069250D01*
X0176100Y0069250D01*
X0174557Y0068611D01*
X0173375Y0067429D01*
X0172736Y0065885D01*
X0172736Y0064215D01*
X0173375Y0062671D01*
X0174557Y0061489D01*
X0176100Y0060850D01*
X0176436Y0060850D01*
X0176436Y0059250D01*
X0175100Y0059250D01*
X0173557Y0058611D01*
X0172375Y0057429D01*
X0171736Y0055885D01*
X0171736Y0054215D01*
X0172375Y0052671D01*
X0173557Y0051489D01*
X0175100Y0050850D01*
X0176436Y0050850D01*
X0176436Y0049250D01*
X0176100Y0049250D01*
X0175521Y0049010D01*
X0172445Y0052086D01*
X0169912Y0052086D01*
X0170496Y0052671D01*
X0171136Y0054215D01*
X0171136Y0055885D01*
X0170496Y0057429D01*
X0169315Y0058611D01*
X0167771Y0059250D01*
X0166100Y0059250D01*
X0164557Y0058611D01*
X0163375Y0057429D01*
X0162736Y0055885D01*
X0162736Y0054215D01*
X0163375Y0052671D01*
X0163960Y0052086D01*
X0150116Y0052086D01*
X0149488Y0052715D01*
X0148606Y0053080D01*
X0147651Y0053080D01*
X0146769Y0052715D01*
X0146094Y0052039D01*
X0145729Y0051157D01*
X0145729Y0050203D01*
X0146094Y0049320D01*
X0146769Y0048645D01*
X0147651Y0048280D01*
X0148606Y0048280D01*
X0148621Y0048286D01*
X0149351Y0048286D01*
X0149551Y0048486D01*
X0163432Y0048486D01*
X0162375Y0047429D01*
X0162021Y0046574D01*
X0154053Y0046574D01*
X0153819Y0046809D01*
X0152937Y0047174D01*
X0151982Y0047174D01*
X0151100Y0046809D01*
X0150425Y0046134D01*
X0150059Y0045252D01*
X0150059Y0044297D01*
X0150425Y0043415D01*
X0151100Y0042740D01*
X0151982Y0042374D01*
X0152937Y0042374D01*
X0153819Y0042740D01*
X0154053Y0042974D01*
X0162249Y0042974D01*
X0162375Y0042671D01*
X0162802Y0042244D01*
X0141849Y0042244D01*
X0141614Y0042478D01*
X0140732Y0042844D01*
X0139777Y0042844D01*
X0138895Y0042478D01*
X0138220Y0041803D01*
X0137855Y0040921D01*
X0137855Y0039966D01*
X0138220Y0039084D01*
X0138895Y0038409D01*
X0139777Y0038044D01*
X0140732Y0038044D01*
X0141614Y0038409D01*
X0141849Y0038644D01*
X0164637Y0038644D01*
X0164557Y0038611D01*
X0163375Y0037429D01*
X0163086Y0036732D01*
X0138305Y0036732D01*
X0138071Y0036966D01*
X0137189Y0037332D01*
X0136234Y0037332D01*
X0135352Y0036966D01*
X0134677Y0036291D01*
X0134311Y0035409D01*
X0134311Y0034454D01*
X0134677Y0033572D01*
X0135352Y0032897D01*
X0136234Y0032532D01*
X0137189Y0032532D01*
X0138071Y0032897D01*
X0138305Y0033132D01*
X0163184Y0033132D01*
X0163375Y0032671D01*
X0164039Y0032007D01*
X0158778Y0032007D01*
X0158150Y0032636D01*
X0157267Y0033001D01*
X0156313Y0033001D01*
X0155431Y0032636D01*
X0154755Y0031961D01*
X0154390Y0031079D01*
X0154390Y0030124D01*
X0154755Y0029242D01*
X0155431Y0028567D01*
X0156313Y0028201D01*
X0157267Y0028201D01*
X0157283Y0028207D01*
X0158012Y0028207D01*
X0158212Y0028407D01*
X0163353Y0028407D01*
X0162623Y0027677D01*
X0146573Y0027677D01*
X0146338Y0027911D01*
X0145456Y0028277D01*
X0144502Y0028277D01*
X0143620Y0027911D01*
X0142944Y0027236D01*
X0142579Y0026354D01*
X0142579Y0025399D01*
X0142944Y0024517D01*
X0143620Y0023842D01*
X0144502Y0023477D01*
X0145456Y0023477D01*
X0146338Y0023842D01*
X0146573Y0024077D01*
X0161793Y0024077D01*
X0162375Y0022671D01*
X0163557Y0021489D01*
X0165100Y0020850D01*
X0166771Y0020850D01*
X0168315Y0021489D01*
X0169496Y0022671D01*
X0170136Y0024215D01*
X0170136Y0025885D01*
X0169496Y0027429D01*
X0168518Y0028407D01*
X0171033Y0028407D01*
X0172976Y0026465D01*
X0172736Y0025885D01*
X0172736Y0024215D01*
X0173375Y0022671D01*
X0174557Y0021489D01*
X0176100Y0020850D01*
X0176436Y0020850D01*
X0176436Y0019250D01*
X0175100Y0019250D01*
X0173557Y0018611D01*
X0172375Y0017429D01*
X0171736Y0015885D01*
X0171736Y0014215D01*
X0172375Y0012671D01*
X0173557Y0011489D01*
X0175100Y0010850D01*
X0176436Y0010850D01*
X0176436Y0009628D01*
X0175859Y0009537D01*
X0175170Y0009313D01*
X0174525Y0008984D01*
X0173939Y0008559D01*
X0173427Y0008047D01*
X0173001Y0007461D01*
X0172673Y0006816D01*
X0172449Y0006127D01*
X0172342Y0005450D01*
X0176436Y0005450D01*
X0176436Y0005050D01*
X0166336Y0005050D01*
X0166336Y0005450D01*
X0170530Y0005450D01*
X0170422Y0006127D01*
X0170199Y0006816D01*
X0169870Y0007461D01*
X0169444Y0008047D01*
X0168932Y0008559D01*
X0168347Y0008984D01*
X0167701Y0009313D01*
X0167013Y0009537D01*
X0166336Y0009644D01*
X0166336Y0005450D01*
X0165536Y0005450D01*
X0165536Y0009644D01*
X0164859Y0009537D01*
X0164170Y0009313D01*
X0163525Y0008984D01*
X0162939Y0008559D01*
X0162427Y0008047D01*
X0162001Y0007461D01*
X0161673Y0006816D01*
X0161449Y0006127D01*
X0161342Y0005450D01*
X0165536Y0005450D01*
X0165536Y0005050D01*
X0040136Y0005050D01*
X0040136Y0005885D01*
X0039496Y0007429D01*
X0038315Y0008611D01*
X0036771Y0009250D01*
X0035100Y0009250D01*
X0033557Y0008611D01*
X0032375Y0007429D01*
X0031736Y0005885D01*
X0031736Y0005050D01*
X0027336Y0005050D01*
X0027336Y0005450D01*
X0031530Y0005450D01*
X0031422Y0006127D01*
X0031199Y0006816D01*
X0030870Y0007461D01*
X0030444Y0008047D01*
X0029932Y0008559D01*
X0029347Y0008984D01*
X0028701Y0009313D01*
X0028013Y0009537D01*
X0027336Y0009644D01*
X0027336Y0005450D01*
X0026536Y0005450D01*
X0026536Y0009644D01*
X0026436Y0009628D01*
X0026436Y0010850D01*
X0026771Y0010850D01*
X0028315Y0011489D01*
X0029496Y0012671D01*
X0030136Y0014215D01*
X0030136Y0015885D01*
X0029496Y0017429D01*
X0028315Y0018611D01*
X0026771Y0019250D01*
X0026436Y0019250D01*
X0026436Y0020850D01*
X0027771Y0020850D01*
X0029315Y0021489D01*
X0030496Y0022671D01*
X0031136Y0024215D01*
X0031136Y0025885D01*
X0030496Y0027429D01*
X0029315Y0028611D01*
X0027771Y0029250D01*
X0026436Y0029250D01*
X0026436Y0030850D01*
X0026771Y0030850D01*
X0028315Y0031489D01*
X0029496Y0032671D01*
X0030136Y0034215D01*
X0030136Y0035885D01*
X0029496Y0037429D01*
X0028315Y0038611D01*
X0026771Y0039250D01*
X0026436Y0039250D01*
X0026436Y0040850D01*
X0027771Y0040850D01*
X0029315Y0041489D01*
X0030496Y0042671D01*
X0031136Y0044215D01*
X0031136Y0045885D01*
X0030496Y0047429D01*
X0029315Y0048611D01*
X0027771Y0049250D01*
X0026436Y0049250D01*
X0026436Y0050850D01*
X0026771Y0050850D01*
X0028315Y0051489D01*
X0029496Y0052671D01*
X0030136Y0054215D01*
X0030136Y0055885D01*
X0029496Y0057429D01*
X0028315Y0058611D01*
X0026771Y0059250D01*
X0026436Y0059250D01*
X0026436Y0060850D01*
X0027771Y0060850D01*
X0029315Y0061489D01*
X0030496Y0062671D01*
X0031136Y0064215D01*
X0031136Y0065885D01*
X0030496Y0067429D01*
X0029315Y0068611D01*
X0027771Y0069250D01*
X0026436Y0069250D01*
X0026436Y0070850D01*
X0026771Y0070850D01*
X0028315Y0071489D01*
X0029496Y0072671D01*
X0030136Y0074215D01*
X0030136Y0075885D01*
X0029496Y0077429D01*
X0028315Y0078611D01*
X0026771Y0079250D01*
X0026436Y0079250D01*
X0026436Y0080850D01*
X0027771Y0080850D01*
X0029315Y0081489D01*
X0030496Y0082671D01*
X0031136Y0084215D01*
X0031136Y0085885D01*
X0030496Y0087429D01*
X0029315Y0088611D01*
X0027771Y0089250D01*
X0026436Y0089250D01*
X0026436Y0090850D01*
X0026771Y0090850D01*
X0028315Y0091489D01*
X0029496Y0092671D01*
X0030136Y0094215D01*
X0030136Y0095885D01*
X0029496Y0097429D01*
X0028315Y0098611D01*
X0026771Y0099250D01*
X0026436Y0099250D01*
X0026436Y0100850D01*
X0027771Y0100850D01*
X0029315Y0101489D01*
X0030496Y0102671D01*
X0031136Y0104215D01*
X0031136Y0105885D01*
X0030496Y0107429D01*
X0029315Y0108611D01*
X0027771Y0109250D01*
X0026436Y0109250D01*
X0026436Y0110850D01*
X0026771Y0110850D01*
X0028315Y0111489D01*
X0029496Y0112671D01*
X0030136Y0114215D01*
X0030136Y0115885D01*
X0029496Y0117429D01*
X0028315Y0118611D01*
X0026771Y0119250D01*
X0026436Y0119250D01*
X0026436Y0120850D01*
X0027771Y0120850D01*
X0029315Y0121489D01*
X0030496Y0122671D01*
X0031136Y0124215D01*
X0031136Y0125885D01*
X0030496Y0127429D01*
X0029315Y0128611D01*
X0027771Y0129250D01*
X0026436Y0129250D01*
X0026436Y0130850D01*
X0026771Y0130850D01*
X0028315Y0131489D01*
X0029496Y0132671D01*
X0030136Y0134215D01*
X0030136Y0135885D01*
X0029496Y0137429D01*
X0028315Y0138611D01*
X0026771Y0139250D01*
X0026436Y0139250D01*
X0026436Y0140850D01*
X0027771Y0140850D01*
X0029315Y0141489D01*
X0030496Y0142671D01*
X0031136Y0144215D01*
X0031136Y0145885D01*
X0030496Y0147429D01*
X0029315Y0148611D01*
X0027771Y0149250D01*
X0026436Y0149250D01*
X0026436Y0150850D01*
X0026771Y0150850D01*
X0028315Y0151489D01*
X0029496Y0152671D01*
X0030136Y0154215D01*
X0030136Y0155885D01*
X0029496Y0157429D01*
X0028315Y0158611D01*
X0026771Y0159250D01*
X0026436Y0159250D01*
X0026436Y0160850D01*
X0027771Y0160850D01*
X0029315Y0161489D01*
X0030496Y0162671D01*
X0031136Y0164215D01*
X0031136Y0165885D01*
X0030496Y0167429D01*
X0029315Y0168611D01*
X0027771Y0169250D01*
X0026436Y0169250D01*
X0026436Y0170850D01*
X0026771Y0170850D01*
X0028315Y0171489D01*
X0029496Y0172671D01*
X0030136Y0174215D01*
X0030136Y0175885D01*
X0029496Y0177429D01*
X0028315Y0178611D01*
X0026771Y0179250D01*
X0026436Y0179250D01*
X0026436Y0180850D01*
X0027771Y0180850D01*
X0029315Y0181489D01*
X0030496Y0182671D01*
X0031136Y0184215D01*
X0031136Y0185885D01*
X0030496Y0187429D01*
X0029315Y0188611D01*
X0027771Y0189250D01*
X0026436Y0189250D01*
X0026436Y0190450D01*
X0029146Y0190450D01*
X0029553Y0190559D01*
X0029918Y0190770D01*
X0030216Y0191068D01*
X0030427Y0191432D01*
X0030536Y0191839D01*
X0030536Y0194650D01*
X0026436Y0194650D01*
X0026436Y0195050D01*
X0032736Y0195050D01*
X0032736Y0194215D01*
X0033375Y0192671D01*
X0034557Y0191489D01*
X0036100Y0190850D01*
X0037771Y0190850D01*
X0039315Y0191489D01*
X0040496Y0192671D01*
X0040653Y0193050D01*
X0040725Y0193050D01*
X0047703Y0186072D01*
X0048875Y0184900D01*
X0108718Y0184900D01*
X0114633Y0178985D01*
X0114633Y0176229D01*
X0117388Y0173474D01*
X0118560Y0172302D01*
X0133996Y0172302D01*
X0139302Y0177607D01*
X0139302Y0180146D01*
X0139925Y0179523D01*
X0141288Y0178958D01*
X0142764Y0178958D01*
X0144128Y0179523D01*
X0145171Y0180567D01*
X0145736Y0181930D01*
X0145736Y0183406D01*
X0145171Y0184770D01*
X0144128Y0185813D01*
X0142764Y0186378D01*
X0141288Y0186378D01*
X0139925Y0185813D01*
X0139289Y0185178D01*
X0139289Y0185626D01*
X0138586Y0186329D01*
X0128916Y0186329D01*
X0128835Y0186409D01*
X0128471Y0186620D01*
X0128064Y0186729D01*
X0127066Y0186729D01*
X0127066Y0182471D01*
X0127066Y0178214D01*
X0128064Y0178214D01*
X0128471Y0178323D01*
X0128835Y0178533D01*
X0128916Y0178614D01*
X0134651Y0178614D01*
X0132340Y0176302D01*
X0120217Y0176302D01*
X0118633Y0177886D01*
X0118633Y0180642D01*
X0117461Y0181814D01*
X0111546Y0187729D01*
X0110374Y0188900D01*
X0050532Y0188900D01*
X0044382Y0195050D01*
X0113841Y0195050D01*
X0113775Y0194920D01*
X0113532Y0194173D01*
X0113430Y0193535D01*
X0117872Y0193535D01*
X0117872Y0192471D01*
X0113430Y0192471D01*
X0113532Y0191833D01*
X0113775Y0191085D01*
X0114132Y0190384D01*
X0114594Y0189748D01*
X0115150Y0189192D01*
X0115786Y0188730D01*
X0116487Y0188373D01*
X0117234Y0188130D01*
X0117872Y0188029D01*
X0117872Y0192471D01*
X0118936Y0192471D01*
X0118936Y0193535D01*
X0123378Y0193535D01*
X0123277Y0194173D01*
X0123034Y0194920D01*
X0122968Y0195050D01*
X0124094Y0195050D01*
X0124094Y0188726D01*
X0124797Y0188023D01*
X0131697Y0188023D01*
X0132203Y0188530D01*
X0132671Y0188063D01*
X0139571Y0188063D01*
X0140273Y0188766D01*
X0140273Y0195050D01*
X0141400Y0195050D01*
X0141334Y0194920D01*
X0141091Y0194173D01*
X0140990Y0193535D01*
X0145431Y0193535D01*
X0145431Y0192471D01*
X0140990Y0192471D01*
X0141091Y0191833D01*
X0141334Y0191085D01*
X0141691Y0190384D01*
X0142153Y0189748D01*
X0142709Y0189192D01*
X0143345Y0188730D01*
X0144046Y0188373D01*
X0144793Y0188130D01*
X0145431Y0188029D01*
X0145431Y0192471D01*
X0146495Y0192471D01*
X0146495Y0193535D01*
X0150937Y0193535D01*
X0150836Y0194173D01*
X0150593Y0194920D01*
X0150527Y0195050D01*
X0166536Y0195050D01*
X0166536Y0194650D01*
X0167336Y0194650D01*
X0167336Y0195050D01*
X0171736Y0195050D01*
X0171736Y0194215D01*
X0172375Y0192671D01*
X0173557Y0191489D01*
X0175100Y0190850D01*
X0176436Y0190850D01*
X0176436Y0189250D01*
X0176100Y0189250D01*
X0174557Y0188611D01*
X0173375Y0187429D01*
X0172736Y0185885D01*
X0172736Y0184215D01*
X0173375Y0182671D01*
X0174557Y0181489D01*
X0176100Y0180850D01*
X0176436Y0180850D01*
X0176436Y0179250D01*
X0175100Y0179250D01*
X0173557Y0178611D01*
X0172375Y0177429D01*
X0171736Y0175885D01*
X0171736Y0174215D01*
X0172375Y0172671D01*
X0173557Y0171489D01*
X0175100Y0170850D01*
X0176436Y0170850D01*
X0176436Y0169250D01*
X0176100Y0169250D01*
X0174557Y0168611D01*
X0173375Y0167429D01*
X0172736Y0165885D01*
X0172736Y0164215D01*
X0173375Y0162671D01*
X0174557Y0161489D01*
X0176100Y0160850D01*
X0176436Y0160850D01*
X0176436Y0159250D01*
X0175100Y0159250D01*
X0173557Y0158611D01*
X0172375Y0157429D01*
X0171736Y0155885D01*
X0171736Y0154215D01*
X0172375Y0152671D01*
X0173557Y0151489D01*
X0175100Y0150850D01*
X0176436Y0150850D01*
X0176436Y0149250D01*
X0174537Y0148591D02*
X0168334Y0148591D01*
X0169511Y0147392D02*
X0173360Y0147392D01*
X0172863Y0146194D02*
X0170008Y0146194D01*
X0170136Y0144995D02*
X0172736Y0144995D01*
X0172909Y0143797D02*
X0169963Y0143797D01*
X0169424Y0142598D02*
X0173448Y0142598D01*
X0174773Y0141400D02*
X0168099Y0141400D01*
X0168368Y0139003D02*
X0174504Y0139003D01*
X0172750Y0137804D02*
X0170121Y0137804D01*
X0170837Y0136606D02*
X0172034Y0136606D01*
X0171736Y0135407D02*
X0171136Y0135407D01*
X0171133Y0134209D02*
X0171738Y0134209D01*
X0172234Y0133010D02*
X0170637Y0133010D01*
X0169637Y0131812D02*
X0173234Y0131812D01*
X0176436Y0130613D02*
X0105054Y0130613D01*
X0108395Y0129415D02*
X0109595Y0129415D01*
X0109595Y0130430D02*
X0109595Y0126674D01*
X0113114Y0126674D01*
X0113114Y0129040D01*
X0113005Y0129447D01*
X0112795Y0129812D01*
X0112497Y0130110D01*
X0112132Y0130320D01*
X0111725Y0130430D01*
X0109595Y0130430D01*
X0109595Y0128216D02*
X0108395Y0128216D01*
X0108395Y0127018D02*
X0109595Y0127018D01*
X0109595Y0125819D02*
X0161736Y0125819D01*
X0161736Y0125885D02*
X0161736Y0124215D01*
X0162375Y0122671D01*
X0163557Y0121489D01*
X0165100Y0120850D01*
X0166771Y0120850D01*
X0168315Y0121489D01*
X0169496Y0122671D01*
X0170136Y0124215D01*
X0170136Y0125885D01*
X0169496Y0127429D01*
X0168315Y0128611D01*
X0166771Y0129250D01*
X0165100Y0129250D01*
X0163557Y0128611D01*
X0162375Y0127429D01*
X0161736Y0125885D01*
X0162205Y0127018D02*
X0113114Y0127018D01*
X0113114Y0128216D02*
X0163162Y0128216D01*
X0161736Y0124621D02*
X0113114Y0124621D01*
X0113114Y0125474D02*
X0113114Y0123107D01*
X0113005Y0122700D01*
X0112795Y0122335D01*
X0112497Y0122037D01*
X0112132Y0121827D01*
X0111725Y0121718D01*
X0109595Y0121718D01*
X0109595Y0125474D01*
X0113114Y0125474D01*
X0113114Y0123422D02*
X0162064Y0123422D01*
X0162822Y0122224D02*
X0112683Y0122224D01*
X0109595Y0122224D02*
X0108395Y0122224D01*
X0108395Y0123422D02*
X0109595Y0123422D01*
X0109595Y0124621D02*
X0108395Y0124621D01*
X0106218Y0121025D02*
X0164677Y0121025D01*
X0166100Y0119250D02*
X0164557Y0118611D01*
X0163375Y0117429D01*
X0162736Y0115885D01*
X0162736Y0114215D01*
X0163375Y0112671D01*
X0164557Y0111489D01*
X0166100Y0110850D01*
X0167771Y0110850D01*
X0169315Y0111489D01*
X0170496Y0112671D01*
X0171136Y0114215D01*
X0171136Y0115885D01*
X0170496Y0117429D01*
X0169315Y0118611D01*
X0167771Y0119250D01*
X0166100Y0119250D01*
X0164599Y0118628D02*
X0093025Y0118628D01*
X0090737Y0118628D02*
X0090559Y0118628D01*
X0090559Y0119827D02*
X0090737Y0119827D01*
X0090737Y0121025D02*
X0090559Y0121025D01*
X0088272Y0118628D02*
X0039272Y0118628D01*
X0039315Y0118611D02*
X0037771Y0119250D01*
X0036100Y0119250D01*
X0034557Y0118611D01*
X0033375Y0117429D01*
X0032736Y0115885D01*
X0032736Y0114215D01*
X0033375Y0112671D01*
X0034557Y0111489D01*
X0036100Y0110850D01*
X0037771Y0110850D01*
X0039315Y0111489D01*
X0040496Y0112671D01*
X0041136Y0114215D01*
X0041136Y0115885D01*
X0040496Y0117429D01*
X0039315Y0118611D01*
X0040496Y0117430D02*
X0163376Y0117430D01*
X0162879Y0116231D02*
X0146601Y0116231D01*
X0146338Y0116494D02*
X0145456Y0116859D01*
X0144502Y0116859D01*
X0143620Y0116494D01*
X0143385Y0116259D01*
X0080825Y0116259D01*
X0080590Y0116494D01*
X0079708Y0116859D01*
X0078754Y0116859D01*
X0077871Y0116494D01*
X0077196Y0115819D01*
X0076831Y0114937D01*
X0076831Y0113982D01*
X0077196Y0113100D01*
X0077871Y0112425D01*
X0078119Y0112322D01*
X0076494Y0112322D01*
X0076260Y0112557D01*
X0075378Y0112922D01*
X0074423Y0112922D01*
X0073541Y0112557D01*
X0072866Y0111882D01*
X0072500Y0111000D01*
X0072500Y0110045D01*
X0072866Y0109163D01*
X0073541Y0108488D01*
X0073788Y0108385D01*
X0072164Y0108385D01*
X0071929Y0108620D01*
X0071047Y0108985D01*
X0070092Y0108985D01*
X0069210Y0108620D01*
X0068535Y0107945D01*
X0068170Y0107063D01*
X0068170Y0106108D01*
X0068535Y0105226D01*
X0069210Y0104551D01*
X0070092Y0104185D01*
X0071047Y0104185D01*
X0071929Y0104551D01*
X0072164Y0104785D01*
X0155196Y0104785D01*
X0155431Y0104551D01*
X0156313Y0104185D01*
X0157267Y0104185D01*
X0158150Y0104551D01*
X0158825Y0105226D01*
X0159190Y0106108D01*
X0159190Y0107063D01*
X0158825Y0107945D01*
X0158627Y0108142D01*
X0158675Y0108122D01*
X0159630Y0108122D01*
X0160512Y0108488D01*
X0161187Y0109163D01*
X0161552Y0110045D01*
X0161552Y0111000D01*
X0161187Y0111882D01*
X0160512Y0112557D01*
X0159630Y0112922D01*
X0158675Y0112922D01*
X0157793Y0112557D01*
X0157558Y0112322D01*
X0146091Y0112322D01*
X0146338Y0112425D01*
X0147014Y0113100D01*
X0147379Y0113982D01*
X0147379Y0114937D01*
X0147014Y0115819D01*
X0146338Y0116494D01*
X0147339Y0115033D02*
X0162736Y0115033D01*
X0162893Y0113834D02*
X0147318Y0113834D01*
X0146549Y0112636D02*
X0157982Y0112636D01*
X0160322Y0112636D02*
X0163410Y0112636D01*
X0164683Y0111437D02*
X0161371Y0111437D01*
X0161552Y0110239D02*
X0176436Y0110239D01*
X0175594Y0109040D02*
X0167278Y0109040D01*
X0166771Y0109250D02*
X0168315Y0108611D01*
X0169496Y0107429D01*
X0170136Y0105885D01*
X0170136Y0104215D01*
X0169496Y0102671D01*
X0168315Y0101489D01*
X0166771Y0100850D01*
X0165100Y0100850D01*
X0163557Y0101489D01*
X0162375Y0102671D01*
X0161736Y0104215D01*
X0161736Y0105885D01*
X0162375Y0107429D01*
X0163557Y0108611D01*
X0165100Y0109250D01*
X0166771Y0109250D01*
X0164594Y0109040D02*
X0161064Y0109040D01*
X0162788Y0107842D02*
X0158867Y0107842D01*
X0159190Y0106643D02*
X0162050Y0106643D01*
X0161736Y0105445D02*
X0158915Y0105445D01*
X0157414Y0104246D02*
X0161736Y0104246D01*
X0162219Y0103048D02*
X0039652Y0103048D01*
X0039496Y0102671D02*
X0040136Y0104215D01*
X0040136Y0105885D01*
X0039496Y0107429D01*
X0038315Y0108611D01*
X0036771Y0109250D01*
X0035100Y0109250D01*
X0033557Y0108611D01*
X0032375Y0107429D01*
X0031736Y0105885D01*
X0031736Y0104215D01*
X0032375Y0102671D01*
X0033557Y0101489D01*
X0035100Y0100850D01*
X0036771Y0100850D01*
X0038315Y0101489D01*
X0039496Y0102671D01*
X0038674Y0101849D02*
X0163197Y0101849D01*
X0164525Y0098984D02*
X0163939Y0098559D01*
X0163427Y0098047D01*
X0163001Y0097461D01*
X0162673Y0096816D01*
X0162449Y0096127D01*
X0162342Y0095450D01*
X0166536Y0095450D01*
X0166536Y0099644D01*
X0165859Y0099537D01*
X0165170Y0099313D01*
X0164525Y0098984D01*
X0163634Y0098253D02*
X0154466Y0098253D01*
X0154466Y0098234D02*
X0154466Y0099189D01*
X0154100Y0100071D01*
X0153425Y0100746D01*
X0152543Y0101111D01*
X0151588Y0101111D01*
X0150706Y0100746D01*
X0150471Y0100511D01*
X0063502Y0100511D01*
X0063268Y0100746D01*
X0062386Y0101111D01*
X0061431Y0101111D01*
X0060549Y0100746D01*
X0059874Y0100071D01*
X0059508Y0099189D01*
X0059508Y0098234D01*
X0059874Y0097352D01*
X0060549Y0096677D01*
X0061431Y0096311D01*
X0062386Y0096311D01*
X0063268Y0096677D01*
X0063502Y0096911D01*
X0150471Y0096911D01*
X0150706Y0096677D01*
X0151588Y0096311D01*
X0152543Y0096311D01*
X0153425Y0096677D01*
X0154100Y0097352D01*
X0154466Y0098234D01*
X0154357Y0099452D02*
X0165598Y0099452D01*
X0166536Y0099452D02*
X0167336Y0099452D01*
X0168274Y0099452D02*
X0174598Y0099452D01*
X0175536Y0099452D02*
X0176336Y0099452D01*
X0176336Y0098253D02*
X0175536Y0098253D01*
X0175536Y0097055D02*
X0176336Y0097055D01*
X0176336Y0095856D02*
X0175536Y0095856D01*
X0175536Y0094658D02*
X0167336Y0094658D01*
X0167336Y0094650D02*
X0167336Y0095450D01*
X0166536Y0095450D01*
X0166536Y0094650D01*
X0167336Y0094650D01*
X0175536Y0094650D01*
X0175536Y0090456D01*
X0174859Y0090563D01*
X0174170Y0090787D01*
X0173525Y0091116D01*
X0172939Y0091541D01*
X0172427Y0092053D01*
X0172001Y0092639D01*
X0171673Y0093284D01*
X0171449Y0093973D01*
X0171436Y0094057D01*
X0171422Y0093973D01*
X0171199Y0093284D01*
X0170870Y0092639D01*
X0170444Y0092053D01*
X0169932Y0091541D01*
X0169347Y0091116D01*
X0168701Y0090787D01*
X0168013Y0090563D01*
X0167336Y0090456D01*
X0167336Y0094650D01*
X0166936Y0095050D02*
X0159337Y0102648D01*
X0152066Y0102648D01*
X0066239Y0102648D01*
X0063363Y0100651D02*
X0150611Y0100651D01*
X0152066Y0098711D02*
X0061908Y0098711D01*
X0060170Y0097055D02*
X0040651Y0097055D01*
X0040496Y0097429D02*
X0039315Y0098611D01*
X0037771Y0099250D01*
X0036100Y0099250D01*
X0034557Y0098611D01*
X0033375Y0097429D01*
X0032736Y0095885D01*
X0032736Y0094215D01*
X0033375Y0092671D01*
X0034557Y0091489D01*
X0036100Y0090850D01*
X0037771Y0090850D01*
X0039315Y0091489D01*
X0040496Y0092671D01*
X0041136Y0094215D01*
X0041136Y0095885D01*
X0040496Y0097429D01*
X0039672Y0098253D02*
X0059508Y0098253D01*
X0059617Y0099452D02*
X0026436Y0099452D01*
X0026436Y0100651D02*
X0060453Y0100651D01*
X0058937Y0096022D02*
X0058055Y0096387D01*
X0057100Y0096387D01*
X0056218Y0096022D01*
X0055543Y0095346D01*
X0055177Y0094464D01*
X0055177Y0093510D01*
X0055543Y0092628D01*
X0056218Y0091952D01*
X0057100Y0091587D01*
X0058055Y0091587D01*
X0058937Y0091952D01*
X0059172Y0092187D01*
X0081911Y0092187D01*
X0081527Y0091803D01*
X0081162Y0090921D01*
X0081162Y0089966D01*
X0081527Y0089084D01*
X0082202Y0088409D01*
X0083084Y0088044D01*
X0084039Y0088044D01*
X0084921Y0088409D01*
X0085156Y0088644D01*
X0138660Y0088644D01*
X0138895Y0088409D01*
X0139777Y0088044D01*
X0140732Y0088044D01*
X0141614Y0088409D01*
X0142289Y0089084D01*
X0142655Y0089966D01*
X0142655Y0090921D01*
X0142289Y0091803D01*
X0142105Y0091987D01*
X0145020Y0091987D01*
X0145220Y0092187D01*
X0146534Y0092187D01*
X0146769Y0091952D01*
X0147651Y0091587D01*
X0148606Y0091587D01*
X0149488Y0091952D01*
X0150163Y0092628D01*
X0150529Y0093510D01*
X0150529Y0094464D01*
X0150163Y0095346D01*
X0149488Y0096022D01*
X0148606Y0096387D01*
X0147651Y0096387D01*
X0146769Y0096022D01*
X0146534Y0095787D01*
X0145220Y0095787D01*
X0145020Y0095987D01*
X0141649Y0095987D01*
X0141614Y0096022D01*
X0140732Y0096387D01*
X0139777Y0096387D01*
X0138895Y0096022D01*
X0138660Y0095787D01*
X0059172Y0095787D01*
X0058937Y0096022D01*
X0059102Y0095856D02*
X0138730Y0095856D01*
X0140255Y0093987D02*
X0057577Y0093987D01*
X0055909Y0092261D02*
X0040086Y0092261D01*
X0040823Y0093459D02*
X0055198Y0093459D01*
X0055258Y0094658D02*
X0041136Y0094658D01*
X0041136Y0095856D02*
X0056053Y0095856D01*
X0055252Y0089864D02*
X0081204Y0089864D01*
X0081220Y0091062D02*
X0038284Y0091062D01*
X0036771Y0089250D02*
X0035100Y0089250D01*
X0033557Y0088611D01*
X0032375Y0087429D01*
X0031736Y0085885D01*
X0031736Y0084215D01*
X0032375Y0082671D01*
X0033557Y0081489D01*
X0035100Y0080850D01*
X0036771Y0080850D01*
X0038315Y0081489D01*
X0039496Y0082671D01*
X0040136Y0084215D01*
X0040136Y0085885D01*
X0039496Y0087429D01*
X0038315Y0088611D01*
X0036771Y0089250D01*
X0038182Y0088665D02*
X0051285Y0088665D01*
X0051297Y0087467D02*
X0039458Y0087467D01*
X0039977Y0086268D02*
X0052059Y0086268D01*
X0053640Y0088081D02*
X0054822Y0086900D01*
X0076081Y0086900D01*
X0082774Y0080207D01*
X0104428Y0080207D01*
X0108365Y0080207D01*
X0172093Y0080207D01*
X0176936Y0085050D01*
X0172736Y0085070D02*
X0170136Y0085070D01*
X0169994Y0083871D02*
X0172878Y0083871D01*
X0172013Y0082673D02*
X0169497Y0082673D01*
X0169977Y0086268D02*
X0172894Y0086268D01*
X0173413Y0087467D02*
X0169458Y0087467D01*
X0168182Y0088665D02*
X0174689Y0088665D01*
X0176436Y0089864D02*
X0142612Y0089864D01*
X0142596Y0091062D02*
X0164629Y0091062D01*
X0164525Y0091116D02*
X0165170Y0090787D01*
X0165859Y0090563D01*
X0166536Y0090456D01*
X0166536Y0094650D01*
X0162342Y0094650D01*
X0162449Y0093973D01*
X0162673Y0093284D01*
X0163001Y0092639D01*
X0163427Y0092053D01*
X0163939Y0091541D01*
X0164525Y0091116D01*
X0163276Y0092261D02*
X0149797Y0092261D01*
X0150508Y0093459D02*
X0162616Y0093459D01*
X0162406Y0095856D02*
X0149653Y0095856D01*
X0150448Y0094658D02*
X0166536Y0094658D01*
X0166536Y0095856D02*
X0167336Y0095856D01*
X0167336Y0097055D02*
X0166536Y0097055D01*
X0166536Y0098253D02*
X0167336Y0098253D01*
X0170238Y0098253D02*
X0172634Y0098253D01*
X0171795Y0097055D02*
X0171077Y0097055D01*
X0171256Y0093459D02*
X0171616Y0093459D01*
X0172276Y0092261D02*
X0170595Y0092261D01*
X0169242Y0091062D02*
X0173629Y0091062D01*
X0175536Y0091062D02*
X0176336Y0091062D01*
X0176336Y0092261D02*
X0175536Y0092261D01*
X0175536Y0093459D02*
X0176336Y0093459D01*
X0176436Y0100651D02*
X0153521Y0100651D01*
X0153803Y0097055D02*
X0162795Y0097055D01*
X0166536Y0093459D02*
X0167336Y0093459D01*
X0167336Y0092261D02*
X0166536Y0092261D01*
X0166536Y0091062D02*
X0167336Y0091062D01*
X0163689Y0088665D02*
X0141870Y0088665D01*
X0140255Y0090444D02*
X0083562Y0090444D01*
X0081946Y0088665D02*
X0076862Y0088665D01*
X0078060Y0087467D02*
X0162413Y0087467D01*
X0161894Y0086268D02*
X0079259Y0086268D01*
X0080457Y0085070D02*
X0161736Y0085070D01*
X0161878Y0083871D02*
X0081656Y0083871D01*
X0082854Y0082673D02*
X0162374Y0082673D01*
X0163825Y0077879D02*
X0105077Y0077879D01*
X0103778Y0077879D02*
X0040047Y0077879D01*
X0040496Y0077429D02*
X0039315Y0078611D01*
X0037771Y0079250D01*
X0036100Y0079250D01*
X0034557Y0078611D01*
X0033375Y0077429D01*
X0032736Y0075885D01*
X0032736Y0074215D01*
X0033375Y0072671D01*
X0034557Y0071489D01*
X0036100Y0070850D01*
X0037771Y0070850D01*
X0039315Y0071489D01*
X0040496Y0072671D01*
X0041136Y0074215D01*
X0041136Y0075885D01*
X0040496Y0077429D01*
X0040806Y0076680D02*
X0086483Y0076680D01*
X0086533Y0076730D02*
X0085858Y0076055D01*
X0085492Y0075173D01*
X0085492Y0074218D01*
X0085858Y0073336D01*
X0086533Y0072661D01*
X0087415Y0072296D01*
X0088370Y0072296D01*
X0089252Y0072661D01*
X0089486Y0072896D01*
X0135117Y0072896D01*
X0135352Y0072661D01*
X0136234Y0072296D01*
X0137189Y0072296D01*
X0138071Y0072661D01*
X0138746Y0073336D01*
X0139111Y0074218D01*
X0139111Y0075173D01*
X0138746Y0076055D01*
X0138071Y0076730D01*
X0137189Y0077096D01*
X0136234Y0077096D01*
X0135352Y0076730D01*
X0135117Y0076496D01*
X0089486Y0076496D01*
X0089252Y0076730D01*
X0088370Y0077096D01*
X0087415Y0077096D01*
X0086533Y0076730D01*
X0085620Y0075482D02*
X0041136Y0075482D01*
X0041136Y0074283D02*
X0085492Y0074283D01*
X0086109Y0073085D02*
X0040668Y0073085D01*
X0039712Y0071886D02*
X0164160Y0071886D01*
X0163204Y0073085D02*
X0138494Y0073085D01*
X0139111Y0074283D02*
X0162736Y0074283D01*
X0162736Y0075482D02*
X0138983Y0075482D01*
X0138121Y0076680D02*
X0163065Y0076680D01*
X0170047Y0077879D02*
X0172825Y0077879D01*
X0173509Y0079077D02*
X0174683Y0079077D01*
X0174707Y0080276D02*
X0176436Y0080276D01*
X0172065Y0076680D02*
X0170806Y0076680D01*
X0171136Y0075482D02*
X0171736Y0075482D01*
X0171736Y0074283D02*
X0171136Y0074283D01*
X0170668Y0073085D02*
X0172204Y0073085D01*
X0173160Y0071886D02*
X0169712Y0071886D01*
X0168315Y0068611D02*
X0166771Y0069250D01*
X0165100Y0069250D01*
X0163557Y0068611D01*
X0162375Y0067429D01*
X0161736Y0065885D01*
X0161736Y0064215D01*
X0162375Y0062671D01*
X0163557Y0061489D01*
X0165100Y0060850D01*
X0166771Y0060850D01*
X0168315Y0061489D01*
X0169496Y0062671D01*
X0170136Y0064215D01*
X0170136Y0065885D01*
X0169496Y0067429D01*
X0168315Y0068611D01*
X0168635Y0068291D02*
X0174237Y0068291D01*
X0173236Y0067092D02*
X0169636Y0067092D01*
X0170132Y0065894D02*
X0172739Y0065894D01*
X0172736Y0064695D02*
X0170136Y0064695D01*
X0169838Y0063497D02*
X0173033Y0063497D01*
X0173748Y0062298D02*
X0169124Y0062298D01*
X0167374Y0061100D02*
X0175498Y0061100D01*
X0176436Y0059901D02*
X0026436Y0059901D01*
X0028093Y0058703D02*
X0034779Y0058703D01*
X0034557Y0058611D02*
X0033375Y0057429D01*
X0032736Y0055885D01*
X0032736Y0054215D01*
X0033375Y0052671D01*
X0034557Y0051489D01*
X0036100Y0050850D01*
X0037771Y0050850D01*
X0039315Y0051489D01*
X0040496Y0052671D01*
X0041136Y0054215D01*
X0041136Y0055885D01*
X0040496Y0057429D01*
X0039315Y0058611D01*
X0037771Y0059250D01*
X0036100Y0059250D01*
X0034557Y0058611D01*
X0033450Y0057504D02*
X0029421Y0057504D01*
X0029962Y0056306D02*
X0032910Y0056306D01*
X0032736Y0055107D02*
X0030136Y0055107D01*
X0030009Y0053909D02*
X0032862Y0053909D01*
X0033359Y0052710D02*
X0029512Y0052710D01*
X0028337Y0051512D02*
X0034534Y0051512D01*
X0035100Y0049250D02*
X0033557Y0048611D01*
X0032375Y0047429D01*
X0031736Y0045885D01*
X0031736Y0044215D01*
X0032375Y0042671D01*
X0033557Y0041489D01*
X0035100Y0040850D01*
X0036771Y0040850D01*
X0038315Y0041489D01*
X0039496Y0042671D01*
X0040136Y0044215D01*
X0040136Y0045885D01*
X0039496Y0047429D01*
X0038315Y0048611D01*
X0036771Y0049250D01*
X0035100Y0049250D01*
X0034773Y0049115D02*
X0028098Y0049115D01*
X0026436Y0050313D02*
X0145729Y0050313D01*
X0145875Y0051512D02*
X0039337Y0051512D01*
X0040512Y0052710D02*
X0146765Y0052710D01*
X0149493Y0052710D02*
X0163359Y0052710D01*
X0162862Y0053909D02*
X0041009Y0053909D01*
X0041136Y0055107D02*
X0162736Y0055107D01*
X0162910Y0056306D02*
X0040962Y0056306D01*
X0040421Y0057504D02*
X0163450Y0057504D01*
X0164779Y0058703D02*
X0039093Y0058703D01*
X0038315Y0061489D02*
X0039496Y0062671D01*
X0040136Y0064215D01*
X0040136Y0065885D01*
X0039496Y0067429D01*
X0038315Y0068611D01*
X0036771Y0069250D01*
X0035100Y0069250D01*
X0033557Y0068611D01*
X0032375Y0067429D01*
X0031736Y0065885D01*
X0031736Y0064215D01*
X0032375Y0062671D01*
X0033557Y0061489D01*
X0035100Y0060850D01*
X0036771Y0060850D01*
X0038315Y0061489D01*
X0037374Y0061100D02*
X0164498Y0061100D01*
X0162748Y0062298D02*
X0039124Y0062298D01*
X0039838Y0063497D02*
X0162033Y0063497D01*
X0161736Y0064695D02*
X0040136Y0064695D01*
X0040132Y0065894D02*
X0161739Y0065894D01*
X0162236Y0067092D02*
X0039636Y0067092D01*
X0038635Y0068291D02*
X0163237Y0068291D01*
X0169093Y0058703D02*
X0173779Y0058703D01*
X0172450Y0057504D02*
X0170421Y0057504D01*
X0170962Y0056306D02*
X0171910Y0056306D01*
X0171736Y0055107D02*
X0171136Y0055107D01*
X0171009Y0053909D02*
X0171862Y0053909D01*
X0172359Y0052710D02*
X0170512Y0052710D01*
X0171699Y0050286D02*
X0176936Y0045050D01*
X0174557Y0041489D02*
X0176100Y0040850D01*
X0176436Y0040850D01*
X0176436Y0039250D01*
X0175100Y0039250D01*
X0174521Y0039010D01*
X0171288Y0042244D01*
X0169069Y0042244D01*
X0169496Y0042671D01*
X0170136Y0044215D01*
X0170136Y0045885D01*
X0169496Y0047429D01*
X0168439Y0048486D01*
X0170954Y0048486D01*
X0172976Y0046465D01*
X0172736Y0045885D01*
X0172736Y0044215D01*
X0173375Y0042671D01*
X0174557Y0041489D01*
X0174123Y0041923D02*
X0171608Y0041923D01*
X0172806Y0040725D02*
X0176436Y0040725D01*
X0176436Y0039526D02*
X0174005Y0039526D01*
X0171311Y0037129D02*
X0170620Y0037129D01*
X0170496Y0037429D02*
X0171136Y0035885D01*
X0171136Y0034215D01*
X0170496Y0032671D01*
X0169833Y0032007D01*
X0171033Y0032007D01*
X0172524Y0032007D01*
X0175521Y0029010D01*
X0176100Y0029250D01*
X0176436Y0029250D01*
X0176436Y0030850D01*
X0175100Y0030850D01*
X0173557Y0031489D01*
X0172375Y0032671D01*
X0171736Y0034215D01*
X0171736Y0035885D01*
X0171976Y0036465D01*
X0169796Y0038644D01*
X0169235Y0038644D01*
X0169315Y0038611D01*
X0170496Y0037429D01*
X0170112Y0038328D02*
X0169597Y0038328D01*
X0170542Y0040444D02*
X0175936Y0035050D01*
X0174408Y0031137D02*
X0173394Y0031137D01*
X0172711Y0032335D02*
X0170161Y0032335D01*
X0170854Y0033534D02*
X0172018Y0033534D01*
X0171736Y0034732D02*
X0171136Y0034732D01*
X0171117Y0035931D02*
X0171755Y0035931D01*
X0170542Y0040444D02*
X0140255Y0040444D01*
X0138037Y0039526D02*
X0026436Y0039526D01*
X0026436Y0040725D02*
X0137855Y0040725D01*
X0138340Y0041923D02*
X0038749Y0041923D01*
X0039683Y0043122D02*
X0150718Y0043122D01*
X0150059Y0044320D02*
X0040136Y0044320D01*
X0040136Y0045519D02*
X0150170Y0045519D01*
X0151008Y0046718D02*
X0039791Y0046718D01*
X0039009Y0047916D02*
X0162862Y0047916D01*
X0162080Y0046718D02*
X0153910Y0046718D01*
X0152459Y0044774D02*
X0165660Y0044774D01*
X0169683Y0043122D02*
X0173188Y0043122D01*
X0172736Y0044320D02*
X0170136Y0044320D01*
X0170136Y0045519D02*
X0172736Y0045519D01*
X0172723Y0046718D02*
X0169791Y0046718D01*
X0169009Y0047916D02*
X0171524Y0047916D01*
X0171699Y0050286D02*
X0148522Y0050286D01*
X0146300Y0049115D02*
X0037098Y0049115D01*
X0032862Y0047916D02*
X0030009Y0047916D01*
X0030791Y0046718D02*
X0032080Y0046718D01*
X0031736Y0045519D02*
X0031136Y0045519D01*
X0031136Y0044320D02*
X0031736Y0044320D01*
X0032188Y0043122D02*
X0030683Y0043122D01*
X0029749Y0041923D02*
X0033123Y0041923D01*
X0034557Y0038611D02*
X0036100Y0039250D01*
X0037771Y0039250D01*
X0039315Y0038611D01*
X0040496Y0037429D01*
X0041136Y0035885D01*
X0041136Y0034215D01*
X0040496Y0032671D01*
X0039315Y0031489D01*
X0037771Y0030850D01*
X0036100Y0030850D01*
X0034557Y0031489D01*
X0033375Y0032671D01*
X0032736Y0034215D01*
X0032736Y0035885D01*
X0033375Y0037429D01*
X0034557Y0038611D01*
X0034274Y0038328D02*
X0028597Y0038328D01*
X0029620Y0037129D02*
X0033251Y0037129D01*
X0032755Y0035931D02*
X0030117Y0035931D01*
X0030136Y0034732D02*
X0032736Y0034732D01*
X0033018Y0033534D02*
X0029854Y0033534D01*
X0029161Y0032335D02*
X0033711Y0032335D01*
X0035408Y0031137D02*
X0027464Y0031137D01*
X0026436Y0029938D02*
X0154467Y0029938D01*
X0154414Y0031137D02*
X0038464Y0031137D01*
X0040161Y0032335D02*
X0155130Y0032335D01*
X0157184Y0030207D02*
X0171778Y0030207D01*
X0176936Y0025050D01*
X0172736Y0025144D02*
X0170136Y0025144D01*
X0170024Y0023946D02*
X0172847Y0023946D01*
X0173343Y0022747D02*
X0169528Y0022747D01*
X0168374Y0021549D02*
X0174497Y0021549D01*
X0176436Y0020350D02*
X0026436Y0020350D01*
X0027008Y0019152D02*
X0035863Y0019152D01*
X0036100Y0019250D02*
X0034557Y0018611D01*
X0033375Y0017429D01*
X0032736Y0015885D01*
X0032736Y0014215D01*
X0033375Y0012671D01*
X0034557Y0011489D01*
X0036100Y0010850D01*
X0037771Y0010850D01*
X0039315Y0011489D01*
X0040496Y0012671D01*
X0041136Y0014215D01*
X0041136Y0015885D01*
X0040496Y0017429D01*
X0039315Y0018611D01*
X0037771Y0019250D01*
X0036100Y0019250D01*
X0036771Y0020850D02*
X0035100Y0020850D01*
X0033557Y0021489D01*
X0032375Y0022671D01*
X0031736Y0024215D01*
X0031736Y0025885D01*
X0032375Y0027429D01*
X0033557Y0028611D01*
X0035100Y0029250D01*
X0036771Y0029250D01*
X0038315Y0028611D01*
X0039496Y0027429D01*
X0040136Y0025885D01*
X0040136Y0024215D01*
X0039496Y0022671D01*
X0038315Y0021489D01*
X0036771Y0020850D01*
X0038374Y0021549D02*
X0163497Y0021549D01*
X0162343Y0022747D02*
X0039528Y0022747D01*
X0040024Y0023946D02*
X0143516Y0023946D01*
X0142685Y0025144D02*
X0040136Y0025144D01*
X0039946Y0026343D02*
X0142579Y0026343D01*
X0143249Y0027541D02*
X0039384Y0027541D01*
X0038003Y0028740D02*
X0155257Y0028740D01*
X0158450Y0032335D02*
X0163711Y0032335D01*
X0166818Y0034932D02*
X0136711Y0034932D01*
X0134527Y0035931D02*
X0041117Y0035931D01*
X0041136Y0034732D02*
X0134311Y0034732D01*
X0134715Y0033534D02*
X0040854Y0033534D01*
X0040620Y0037129D02*
X0135745Y0037129D01*
X0137677Y0037129D02*
X0163251Y0037129D01*
X0164274Y0038328D02*
X0141418Y0038328D01*
X0139091Y0038328D02*
X0039597Y0038328D01*
X0033869Y0028740D02*
X0029003Y0028740D01*
X0030384Y0027541D02*
X0032487Y0027541D01*
X0031925Y0026343D02*
X0030946Y0026343D01*
X0031136Y0025144D02*
X0031736Y0025144D01*
X0031847Y0023946D02*
X0031024Y0023946D01*
X0030528Y0022747D02*
X0032343Y0022747D01*
X0033497Y0021549D02*
X0029374Y0021549D01*
X0028972Y0017953D02*
X0033899Y0017953D01*
X0033096Y0016755D02*
X0029776Y0016755D01*
X0030136Y0015556D02*
X0032736Y0015556D01*
X0032736Y0014358D02*
X0030136Y0014358D01*
X0029699Y0013159D02*
X0033173Y0013159D01*
X0034085Y0011961D02*
X0028786Y0011961D01*
X0027843Y0009564D02*
X0165029Y0009564D01*
X0165536Y0009564D02*
X0166336Y0009564D01*
X0166843Y0009564D02*
X0176029Y0009564D01*
X0176436Y0010762D02*
X0026436Y0010762D01*
X0026536Y0009564D02*
X0027336Y0009564D01*
X0027336Y0008365D02*
X0026536Y0008365D01*
X0026536Y0007167D02*
X0027336Y0007167D01*
X0027336Y0005968D02*
X0026536Y0005968D01*
X0030126Y0008365D02*
X0033311Y0008365D01*
X0032266Y0007167D02*
X0031020Y0007167D01*
X0031448Y0005968D02*
X0031770Y0005968D01*
X0038560Y0008365D02*
X0162745Y0008365D01*
X0161851Y0007167D02*
X0039605Y0007167D01*
X0040101Y0005968D02*
X0161424Y0005968D01*
X0165536Y0005968D02*
X0166336Y0005968D01*
X0166336Y0007167D02*
X0165536Y0007167D01*
X0165536Y0008365D02*
X0166336Y0008365D01*
X0166100Y0010850D02*
X0164557Y0011489D01*
X0163375Y0012671D01*
X0162736Y0014215D01*
X0162736Y0015885D01*
X0163375Y0017429D01*
X0164557Y0018611D01*
X0166100Y0019250D01*
X0167771Y0019250D01*
X0169315Y0018611D01*
X0170496Y0017429D01*
X0171136Y0015885D01*
X0171136Y0014215D01*
X0170496Y0012671D01*
X0169315Y0011489D01*
X0167771Y0010850D01*
X0166100Y0010850D01*
X0164085Y0011961D02*
X0039786Y0011961D01*
X0040699Y0013159D02*
X0163173Y0013159D01*
X0162736Y0014358D02*
X0041136Y0014358D01*
X0041136Y0015556D02*
X0162736Y0015556D01*
X0163096Y0016755D02*
X0040776Y0016755D01*
X0039972Y0017953D02*
X0163899Y0017953D01*
X0165863Y0019152D02*
X0038008Y0019152D01*
X0034498Y0061100D02*
X0028374Y0061100D01*
X0030124Y0062298D02*
X0032748Y0062298D01*
X0032033Y0063497D02*
X0030838Y0063497D01*
X0031136Y0064695D02*
X0031736Y0064695D01*
X0031739Y0065894D02*
X0031132Y0065894D01*
X0030636Y0067092D02*
X0032236Y0067092D01*
X0033237Y0068291D02*
X0029635Y0068291D01*
X0028712Y0071886D02*
X0034160Y0071886D01*
X0033204Y0073085D02*
X0029668Y0073085D01*
X0030136Y0074283D02*
X0032736Y0074283D01*
X0032736Y0075482D02*
X0030136Y0075482D01*
X0029806Y0076680D02*
X0033065Y0076680D01*
X0033825Y0077879D02*
X0029047Y0077879D01*
X0027188Y0079077D02*
X0035683Y0079077D01*
X0038188Y0079077D02*
X0081359Y0079077D01*
X0080160Y0080276D02*
X0026436Y0080276D01*
X0029278Y0081474D02*
X0033593Y0081474D01*
X0032374Y0082673D02*
X0030497Y0082673D01*
X0030994Y0083871D02*
X0031878Y0083871D01*
X0031736Y0085070D02*
X0031136Y0085070D01*
X0030977Y0086268D02*
X0031894Y0086268D01*
X0032413Y0087467D02*
X0030458Y0087467D01*
X0029182Y0088665D02*
X0033689Y0088665D01*
X0035587Y0091062D02*
X0027284Y0091062D01*
X0026436Y0089864D02*
X0052029Y0089864D01*
X0040136Y0085070D02*
X0075366Y0085070D01*
X0076565Y0083871D02*
X0039994Y0083871D01*
X0039497Y0082673D02*
X0077763Y0082673D01*
X0078962Y0081474D02*
X0038278Y0081474D01*
X0033785Y0092261D02*
X0029086Y0092261D01*
X0029823Y0093459D02*
X0033048Y0093459D01*
X0032736Y0094658D02*
X0030136Y0094658D01*
X0030136Y0095856D02*
X0032736Y0095856D01*
X0033220Y0097055D02*
X0029651Y0097055D01*
X0028672Y0098253D02*
X0034199Y0098253D01*
X0033197Y0101849D02*
X0029674Y0101849D01*
X0030652Y0103048D02*
X0032219Y0103048D01*
X0031736Y0104246D02*
X0031136Y0104246D01*
X0031136Y0105445D02*
X0031736Y0105445D01*
X0032050Y0106643D02*
X0030822Y0106643D01*
X0030084Y0107842D02*
X0032788Y0107842D01*
X0034594Y0109040D02*
X0028278Y0109040D01*
X0026436Y0110239D02*
X0072500Y0110239D01*
X0072681Y0111437D02*
X0039189Y0111437D01*
X0040461Y0112636D02*
X0073730Y0112636D01*
X0076070Y0112636D02*
X0077661Y0112636D01*
X0076892Y0113834D02*
X0040978Y0113834D01*
X0041136Y0115033D02*
X0076871Y0115033D01*
X0077609Y0116231D02*
X0040992Y0116231D01*
X0038315Y0121489D02*
X0036771Y0120850D01*
X0035100Y0120850D01*
X0033557Y0121489D01*
X0032375Y0122671D01*
X0031736Y0124215D01*
X0031736Y0125885D01*
X0032375Y0127429D01*
X0033557Y0128611D01*
X0035100Y0129250D01*
X0036771Y0129250D01*
X0038315Y0128611D01*
X0039496Y0127429D01*
X0040136Y0125885D01*
X0040136Y0124215D01*
X0039496Y0122671D01*
X0038315Y0121489D01*
X0039049Y0122224D02*
X0044991Y0122224D01*
X0044880Y0122335D02*
X0045178Y0122037D01*
X0045543Y0121827D01*
X0045949Y0121718D01*
X0049399Y0121718D01*
X0049399Y0125474D01*
X0044560Y0125474D01*
X0044560Y0123107D01*
X0044669Y0122700D01*
X0044880Y0122335D01*
X0044560Y0123422D02*
X0039807Y0123422D01*
X0040136Y0124621D02*
X0044560Y0124621D01*
X0044560Y0126674D02*
X0049399Y0126674D01*
X0049399Y0130430D01*
X0045949Y0130430D01*
X0045543Y0130320D01*
X0045178Y0130110D01*
X0044880Y0129812D01*
X0044669Y0129447D01*
X0044560Y0129040D01*
X0044560Y0126674D01*
X0044560Y0127018D02*
X0039667Y0127018D01*
X0040136Y0125819D02*
X0049399Y0125819D01*
X0049399Y0125474D02*
X0049399Y0126674D01*
X0050599Y0126674D01*
X0050599Y0130430D01*
X0054048Y0130430D01*
X0054455Y0130320D01*
X0054820Y0130110D01*
X0055118Y0129812D01*
X0055328Y0129447D01*
X0055437Y0129040D01*
X0055437Y0126674D01*
X0050599Y0126674D01*
X0050599Y0125474D01*
X0055437Y0125474D01*
X0055437Y0123107D01*
X0055328Y0122700D01*
X0055118Y0122335D01*
X0054820Y0122037D01*
X0054455Y0121827D01*
X0054048Y0121718D01*
X0050599Y0121718D01*
X0050599Y0125474D01*
X0049399Y0125474D01*
X0049399Y0124621D02*
X0050599Y0124621D01*
X0050599Y0125819D02*
X0066417Y0125819D01*
X0066417Y0124621D02*
X0055437Y0124621D01*
X0055437Y0123422D02*
X0066417Y0123422D01*
X0066417Y0122224D02*
X0055006Y0122224D01*
X0050599Y0122224D02*
X0049399Y0122224D01*
X0049399Y0123422D02*
X0050599Y0123422D01*
X0050599Y0127018D02*
X0049399Y0127018D01*
X0049399Y0128216D02*
X0050599Y0128216D01*
X0050599Y0129415D02*
X0049399Y0129415D01*
X0044660Y0129415D02*
X0026436Y0129415D01*
X0026436Y0130613D02*
X0067195Y0130613D01*
X0067195Y0129415D02*
X0055337Y0129415D01*
X0055437Y0128216D02*
X0067195Y0128216D01*
X0067195Y0127018D02*
X0055437Y0127018D01*
X0044560Y0128216D02*
X0038709Y0128216D01*
X0037771Y0130850D02*
X0039315Y0131489D01*
X0040496Y0132671D01*
X0041136Y0134215D01*
X0041136Y0135885D01*
X0040496Y0137429D01*
X0039315Y0138611D01*
X0037771Y0139250D01*
X0036100Y0139250D01*
X0034557Y0138611D01*
X0033375Y0137429D01*
X0032736Y0135885D01*
X0032736Y0134215D01*
X0033375Y0132671D01*
X0034557Y0131489D01*
X0036100Y0130850D01*
X0037771Y0130850D01*
X0039637Y0131812D02*
X0067195Y0131812D01*
X0067195Y0133010D02*
X0040637Y0133010D01*
X0041133Y0134209D02*
X0067195Y0134209D01*
X0067195Y0135407D02*
X0041136Y0135407D01*
X0040837Y0136606D02*
X0067195Y0136606D01*
X0067195Y0137804D02*
X0040121Y0137804D01*
X0038368Y0139003D02*
X0067195Y0139003D01*
X0067195Y0140201D02*
X0026436Y0140201D01*
X0027368Y0139003D02*
X0035504Y0139003D01*
X0035536Y0140456D02*
X0035536Y0144650D01*
X0036336Y0144650D01*
X0036336Y0145450D01*
X0040530Y0145450D01*
X0040422Y0146127D01*
X0040199Y0146816D01*
X0039870Y0147461D01*
X0039444Y0148047D01*
X0038932Y0148559D01*
X0038347Y0148984D01*
X0037701Y0149313D01*
X0037013Y0149537D01*
X0036336Y0149644D01*
X0036336Y0145450D01*
X0035536Y0145450D01*
X0035536Y0149644D01*
X0034859Y0149537D01*
X0034170Y0149313D01*
X0033525Y0148984D01*
X0032939Y0148559D01*
X0032427Y0148047D01*
X0032001Y0147461D01*
X0031673Y0146816D01*
X0031449Y0146127D01*
X0031342Y0145450D01*
X0035536Y0145450D01*
X0035536Y0144650D01*
X0031342Y0144650D01*
X0031449Y0143973D01*
X0031673Y0143284D01*
X0032001Y0142639D01*
X0032427Y0142053D01*
X0032939Y0141541D01*
X0033525Y0141116D01*
X0034170Y0140787D01*
X0034859Y0140563D01*
X0035536Y0140456D01*
X0036336Y0140456D02*
X0037013Y0140563D01*
X0037701Y0140787D01*
X0038347Y0141116D01*
X0038932Y0141541D01*
X0039444Y0142053D01*
X0039870Y0142639D01*
X0040199Y0143284D01*
X0040422Y0143973D01*
X0040530Y0144650D01*
X0036336Y0144650D01*
X0036336Y0140456D01*
X0036336Y0141400D02*
X0035536Y0141400D01*
X0035536Y0142598D02*
X0036336Y0142598D01*
X0036336Y0143797D02*
X0035536Y0143797D01*
X0035536Y0144995D02*
X0031136Y0144995D01*
X0031008Y0146194D02*
X0031471Y0146194D01*
X0031967Y0147392D02*
X0030511Y0147392D01*
X0029334Y0148591D02*
X0032983Y0148591D01*
X0034557Y0151489D02*
X0036100Y0150850D01*
X0037771Y0150850D01*
X0039315Y0151489D01*
X0040496Y0152671D01*
X0041136Y0154215D01*
X0041136Y0155885D01*
X0040496Y0157429D01*
X0039315Y0158611D01*
X0037771Y0159250D01*
X0036100Y0159250D01*
X0034557Y0158611D01*
X0033375Y0157429D01*
X0032736Y0155885D01*
X0032736Y0154215D01*
X0033375Y0152671D01*
X0034557Y0151489D01*
X0033859Y0152187D02*
X0029012Y0152187D01*
X0029792Y0153385D02*
X0033079Y0153385D01*
X0032736Y0154584D02*
X0030136Y0154584D01*
X0030136Y0155782D02*
X0032736Y0155782D01*
X0033189Y0156981D02*
X0029682Y0156981D01*
X0028746Y0158179D02*
X0034125Y0158179D01*
X0035100Y0160850D02*
X0033557Y0161489D01*
X0032375Y0162671D01*
X0031736Y0164215D01*
X0031736Y0165885D01*
X0032375Y0167429D01*
X0033557Y0168611D01*
X0035100Y0169250D01*
X0036771Y0169250D01*
X0038315Y0168611D01*
X0039496Y0167429D01*
X0040136Y0165885D01*
X0040136Y0164215D01*
X0039496Y0162671D01*
X0038315Y0161489D01*
X0036771Y0160850D01*
X0035100Y0160850D01*
X0033271Y0161775D02*
X0029600Y0161775D01*
X0030621Y0162973D02*
X0032250Y0162973D01*
X0031753Y0164172D02*
X0031118Y0164172D01*
X0031136Y0165370D02*
X0031736Y0165370D01*
X0032019Y0166569D02*
X0030853Y0166569D01*
X0030158Y0167767D02*
X0032713Y0167767D01*
X0034414Y0168966D02*
X0028458Y0168966D01*
X0026436Y0170164D02*
X0057180Y0170164D01*
X0057073Y0170209D02*
X0058933Y0169438D01*
X0060946Y0169438D01*
X0062806Y0170209D01*
X0064230Y0171632D01*
X0065000Y0173492D01*
X0065000Y0175505D01*
X0064230Y0177365D01*
X0062806Y0178789D01*
X0060946Y0179559D01*
X0058933Y0179559D01*
X0057073Y0178789D01*
X0055649Y0177365D01*
X0054879Y0175505D01*
X0054879Y0173492D01*
X0055649Y0171632D01*
X0057073Y0170209D01*
X0055919Y0171363D02*
X0039009Y0171363D01*
X0039315Y0171489D02*
X0040496Y0172671D01*
X0041136Y0174215D01*
X0041136Y0175885D01*
X0040496Y0177429D01*
X0039315Y0178611D01*
X0037771Y0179250D01*
X0036100Y0179250D01*
X0034557Y0178611D01*
X0033375Y0177429D01*
X0032736Y0175885D01*
X0032736Y0174215D01*
X0033375Y0172671D01*
X0034557Y0171489D01*
X0036100Y0170850D01*
X0037771Y0170850D01*
X0039315Y0171489D01*
X0040387Y0172561D02*
X0055265Y0172561D01*
X0054879Y0173760D02*
X0040947Y0173760D01*
X0041136Y0174958D02*
X0054879Y0174958D01*
X0055149Y0176157D02*
X0041023Y0176157D01*
X0040527Y0177355D02*
X0055645Y0177355D01*
X0056838Y0178554D02*
X0039372Y0178554D01*
X0038023Y0180951D02*
X0112667Y0180951D01*
X0111469Y0182149D02*
X0039514Y0182149D01*
X0039444Y0182053D02*
X0039870Y0182639D01*
X0040199Y0183284D01*
X0040422Y0183973D01*
X0040530Y0184650D01*
X0036336Y0184650D01*
X0036336Y0185450D01*
X0040530Y0185450D01*
X0040422Y0186127D01*
X0040199Y0186816D01*
X0039870Y0187461D01*
X0039444Y0188047D01*
X0038932Y0188559D01*
X0038347Y0188984D01*
X0037701Y0189313D01*
X0037013Y0189537D01*
X0036336Y0189644D01*
X0036336Y0185450D01*
X0035536Y0185450D01*
X0035536Y0189644D01*
X0034859Y0189537D01*
X0034170Y0189313D01*
X0033525Y0188984D01*
X0032939Y0188559D01*
X0032427Y0188047D01*
X0032001Y0187461D01*
X0031673Y0186816D01*
X0031449Y0186127D01*
X0031342Y0185450D01*
X0035536Y0185450D01*
X0035536Y0184650D01*
X0036336Y0184650D01*
X0036336Y0180456D01*
X0037013Y0180563D01*
X0037701Y0180787D01*
X0038347Y0181116D01*
X0038932Y0181541D01*
X0039444Y0182053D01*
X0040219Y0183348D02*
X0110270Y0183348D01*
X0109072Y0184546D02*
X0040513Y0184546D01*
X0040483Y0185745D02*
X0048031Y0185745D01*
X0047703Y0186072D02*
X0047703Y0186072D01*
X0046832Y0186943D02*
X0040134Y0186943D01*
X0039349Y0188142D02*
X0045634Y0188142D01*
X0044435Y0189340D02*
X0037617Y0189340D01*
X0036336Y0189340D02*
X0035536Y0189340D01*
X0035536Y0188142D02*
X0036336Y0188142D01*
X0036336Y0186943D02*
X0035536Y0186943D01*
X0035536Y0185745D02*
X0036336Y0185745D01*
X0036336Y0184546D02*
X0035536Y0184546D01*
X0035536Y0184650D02*
X0035536Y0180456D01*
X0034859Y0180563D01*
X0034170Y0180787D01*
X0033525Y0181116D01*
X0032939Y0181541D01*
X0032427Y0182053D01*
X0032001Y0182639D01*
X0031673Y0183284D01*
X0031449Y0183973D01*
X0031342Y0184650D01*
X0035536Y0184650D01*
X0035536Y0183348D02*
X0036336Y0183348D01*
X0036336Y0182149D02*
X0035536Y0182149D01*
X0035536Y0180951D02*
X0036336Y0180951D01*
X0033848Y0180951D02*
X0028014Y0180951D01*
X0026436Y0179752D02*
X0113866Y0179752D01*
X0114633Y0178554D02*
X0094538Y0178554D01*
X0094302Y0178789D02*
X0092442Y0179559D01*
X0090429Y0179559D01*
X0088569Y0178789D01*
X0087145Y0177365D01*
X0086375Y0175505D01*
X0086375Y0173492D01*
X0087145Y0171632D01*
X0088569Y0170209D01*
X0090429Y0169438D01*
X0092442Y0169438D01*
X0094302Y0170209D01*
X0095726Y0171632D01*
X0096496Y0173492D01*
X0096496Y0175505D01*
X0095726Y0177365D01*
X0094302Y0178789D01*
X0095730Y0177355D02*
X0114633Y0177355D01*
X0114705Y0176157D02*
X0096227Y0176157D01*
X0096496Y0174958D02*
X0115904Y0174958D01*
X0117102Y0173760D02*
X0096496Y0173760D01*
X0096111Y0172561D02*
X0118301Y0172561D01*
X0119164Y0177355D02*
X0133393Y0177355D01*
X0134591Y0178554D02*
X0128856Y0178554D01*
X0127066Y0178554D02*
X0127066Y0178554D01*
X0127066Y0178214D02*
X0127066Y0182471D01*
X0127066Y0182471D01*
X0127066Y0182471D01*
X0127066Y0186729D01*
X0126068Y0186729D01*
X0125661Y0186620D01*
X0125296Y0186409D01*
X0124998Y0186111D01*
X0124787Y0185746D01*
X0124729Y0185527D01*
X0124443Y0185813D01*
X0123079Y0186378D01*
X0121603Y0186378D01*
X0120240Y0185813D01*
X0119196Y0184770D01*
X0118631Y0183406D01*
X0118631Y0181930D01*
X0119196Y0180567D01*
X0120240Y0179523D01*
X0121603Y0178958D01*
X0123079Y0178958D01*
X0124443Y0179523D01*
X0124678Y0179759D01*
X0124678Y0179603D01*
X0124787Y0179196D01*
X0124998Y0178831D01*
X0125296Y0178533D01*
X0125661Y0178323D01*
X0126068Y0178214D01*
X0127066Y0178214D01*
X0127066Y0179752D02*
X0127066Y0179752D01*
X0127066Y0180951D02*
X0127066Y0180951D01*
X0127066Y0182149D02*
X0127066Y0182149D01*
X0127066Y0183348D02*
X0127066Y0183348D01*
X0127066Y0184546D02*
X0127066Y0184546D01*
X0127066Y0185745D02*
X0127066Y0185745D01*
X0124787Y0185745D02*
X0124511Y0185745D01*
X0124678Y0188142D02*
X0119610Y0188142D01*
X0119574Y0188130D02*
X0120322Y0188373D01*
X0121022Y0188730D01*
X0121659Y0189192D01*
X0122215Y0189748D01*
X0122677Y0190384D01*
X0123034Y0191085D01*
X0123277Y0191833D01*
X0123378Y0192471D01*
X0118936Y0192471D01*
X0118936Y0188029D01*
X0119574Y0188130D01*
X0118936Y0188142D02*
X0117872Y0188142D01*
X0117198Y0188142D02*
X0111133Y0188142D01*
X0111546Y0187729D02*
X0111546Y0187729D01*
X0112331Y0186943D02*
X0162174Y0186943D01*
X0162375Y0187429D02*
X0161736Y0185885D01*
X0161736Y0184215D01*
X0162375Y0182671D01*
X0163557Y0181489D01*
X0165100Y0180850D01*
X0166771Y0180850D01*
X0168315Y0181489D01*
X0169496Y0182671D01*
X0170136Y0184215D01*
X0170136Y0185885D01*
X0169496Y0187429D01*
X0168315Y0188611D01*
X0166771Y0189250D01*
X0165100Y0189250D01*
X0163557Y0188611D01*
X0162375Y0187429D01*
X0163088Y0188142D02*
X0147169Y0188142D01*
X0147133Y0188130D02*
X0147881Y0188373D01*
X0148582Y0188730D01*
X0149218Y0189192D01*
X0149774Y0189748D01*
X0150236Y0190384D01*
X0150593Y0191085D01*
X0150836Y0191833D01*
X0150937Y0192471D01*
X0146495Y0192471D01*
X0146495Y0188029D01*
X0147133Y0188130D01*
X0146495Y0188142D02*
X0145431Y0188142D01*
X0144757Y0188142D02*
X0139650Y0188142D01*
X0140273Y0189340D02*
X0142561Y0189340D01*
X0141612Y0190539D02*
X0140273Y0190539D01*
X0140273Y0191737D02*
X0141122Y0191737D01*
X0140273Y0192936D02*
X0145431Y0192936D01*
X0146495Y0192936D02*
X0162336Y0192936D01*
X0162336Y0191839D02*
X0162445Y0191432D01*
X0162655Y0191068D01*
X0162953Y0190770D01*
X0163318Y0190559D01*
X0163725Y0190450D01*
X0166536Y0190450D01*
X0166536Y0194650D01*
X0162336Y0194650D01*
X0162336Y0191839D01*
X0162363Y0191737D02*
X0150805Y0191737D01*
X0150315Y0190539D02*
X0163393Y0190539D01*
X0166536Y0190539D02*
X0167336Y0190539D01*
X0167336Y0190450D02*
X0170146Y0190450D01*
X0170553Y0190559D01*
X0170918Y0190770D01*
X0171216Y0191068D01*
X0171427Y0191432D01*
X0171536Y0191839D01*
X0171536Y0194650D01*
X0167336Y0194650D01*
X0167336Y0190450D01*
X0167336Y0191737D02*
X0166536Y0191737D01*
X0166536Y0192936D02*
X0167336Y0192936D01*
X0167336Y0194134D02*
X0166536Y0194134D01*
X0162336Y0194134D02*
X0150842Y0194134D01*
X0149366Y0189340D02*
X0176436Y0189340D01*
X0176436Y0190539D02*
X0170478Y0190539D01*
X0171508Y0191737D02*
X0173309Y0191737D01*
X0172265Y0192936D02*
X0171536Y0192936D01*
X0171536Y0194134D02*
X0171769Y0194134D01*
X0174088Y0188142D02*
X0168784Y0188142D01*
X0169697Y0186943D02*
X0173174Y0186943D01*
X0172736Y0185745D02*
X0170136Y0185745D01*
X0170136Y0184546D02*
X0172736Y0184546D01*
X0173095Y0183348D02*
X0169777Y0183348D01*
X0168975Y0182149D02*
X0173897Y0182149D01*
X0175857Y0180951D02*
X0167014Y0180951D01*
X0167771Y0179250D02*
X0166100Y0179250D01*
X0164557Y0178611D01*
X0163375Y0177429D01*
X0162736Y0175885D01*
X0162736Y0174215D01*
X0163375Y0172671D01*
X0164557Y0171489D01*
X0166100Y0170850D01*
X0167771Y0170850D01*
X0169315Y0171489D01*
X0170496Y0172671D01*
X0171136Y0174215D01*
X0171136Y0175885D01*
X0170496Y0177429D01*
X0169315Y0178611D01*
X0167771Y0179250D01*
X0169372Y0178554D02*
X0173500Y0178554D01*
X0172345Y0177355D02*
X0170527Y0177355D01*
X0171023Y0176157D02*
X0171848Y0176157D01*
X0171736Y0174958D02*
X0171136Y0174958D01*
X0170947Y0173760D02*
X0171924Y0173760D01*
X0172485Y0172561D02*
X0170387Y0172561D01*
X0169009Y0171363D02*
X0173863Y0171363D01*
X0175414Y0168966D02*
X0167458Y0168966D01*
X0166771Y0169250D02*
X0168315Y0168611D01*
X0169496Y0167429D01*
X0170136Y0165885D01*
X0170136Y0164215D01*
X0169496Y0162671D01*
X0168315Y0161489D01*
X0166771Y0160850D01*
X0165100Y0160850D01*
X0163557Y0161489D01*
X0162375Y0162671D01*
X0161736Y0164215D01*
X0161736Y0165885D01*
X0162375Y0167429D01*
X0163557Y0168611D01*
X0165100Y0169250D01*
X0166771Y0169250D01*
X0164414Y0168966D02*
X0112617Y0168966D01*
X0112497Y0169086D02*
X0112132Y0169297D01*
X0111725Y0169406D01*
X0109358Y0169406D01*
X0109358Y0164469D01*
X0108159Y0164469D01*
X0108159Y0169406D01*
X0105792Y0169406D01*
X0105385Y0169297D01*
X0105020Y0169086D01*
X0104722Y0168788D01*
X0104512Y0168423D01*
X0104403Y0168017D01*
X0104403Y0164469D01*
X0108158Y0164469D01*
X0108158Y0163269D01*
X0104403Y0163269D01*
X0104403Y0159721D01*
X0104512Y0159314D01*
X0104722Y0158949D01*
X0105020Y0158652D01*
X0105385Y0158441D01*
X0105792Y0158332D01*
X0108159Y0158332D01*
X0108159Y0163269D01*
X0109358Y0163269D01*
X0109358Y0158332D01*
X0111725Y0158332D01*
X0112132Y0158441D01*
X0112497Y0158652D01*
X0112795Y0158949D01*
X0113005Y0159314D01*
X0113114Y0159721D01*
X0113114Y0163269D01*
X0109359Y0163269D01*
X0109359Y0164469D01*
X0113114Y0164469D01*
X0113114Y0168017D01*
X0113005Y0168423D01*
X0112795Y0168788D01*
X0112497Y0169086D01*
X0113114Y0167767D02*
X0162713Y0167767D01*
X0162019Y0166569D02*
X0113114Y0166569D01*
X0113114Y0165370D02*
X0161736Y0165370D01*
X0161753Y0164172D02*
X0109359Y0164172D01*
X0109358Y0165370D02*
X0108159Y0165370D01*
X0108158Y0164172D02*
X0101898Y0164172D01*
X0102008Y0164437D02*
X0101238Y0162577D01*
X0099814Y0161154D01*
X0097954Y0160383D01*
X0095941Y0160383D01*
X0094081Y0161154D01*
X0092657Y0162577D01*
X0091887Y0164437D01*
X0091887Y0166450D01*
X0092657Y0168310D01*
X0094081Y0169734D01*
X0095941Y0170504D01*
X0097954Y0170504D01*
X0099814Y0169734D01*
X0101238Y0168310D01*
X0102008Y0166450D01*
X0102008Y0164437D01*
X0102008Y0165370D02*
X0104403Y0165370D01*
X0104403Y0166569D02*
X0101959Y0166569D01*
X0101463Y0167767D02*
X0104403Y0167767D01*
X0104900Y0168966D02*
X0100582Y0168966D01*
X0098775Y0170164D02*
X0176436Y0170164D01*
X0173713Y0167767D02*
X0169158Y0167767D01*
X0169853Y0166569D02*
X0173019Y0166569D01*
X0172736Y0165370D02*
X0170136Y0165370D01*
X0170118Y0164172D02*
X0172753Y0164172D01*
X0173250Y0162973D02*
X0169621Y0162973D01*
X0168600Y0161775D02*
X0174271Y0161775D01*
X0176436Y0160576D02*
X0113114Y0160576D01*
X0113114Y0161775D02*
X0163271Y0161775D01*
X0162250Y0162973D02*
X0113114Y0162973D01*
X0113022Y0159378D02*
X0176436Y0159378D01*
X0173125Y0158179D02*
X0169746Y0158179D01*
X0170682Y0156981D02*
X0172189Y0156981D01*
X0171736Y0155782D02*
X0171136Y0155782D01*
X0171136Y0154584D02*
X0171736Y0154584D01*
X0172079Y0153385D02*
X0170792Y0153385D01*
X0170012Y0152187D02*
X0172859Y0152187D01*
X0174767Y0150988D02*
X0168104Y0150988D01*
X0165767Y0150988D02*
X0165702Y0150988D01*
X0164534Y0152648D02*
X0083168Y0152648D01*
X0081987Y0151467D01*
X0081987Y0122648D01*
X0079822Y0126314D02*
X0079531Y0126604D01*
X0079456Y0126604D01*
X0079456Y0139053D01*
X0079803Y0139196D01*
X0080187Y0139580D01*
X0080187Y0126604D01*
X0080112Y0126604D01*
X0079822Y0126314D01*
X0080187Y0127018D02*
X0079456Y0127018D01*
X0079456Y0128216D02*
X0080187Y0128216D01*
X0080187Y0129415D02*
X0079456Y0129415D01*
X0079456Y0130613D02*
X0080187Y0130613D01*
X0080187Y0131812D02*
X0079456Y0131812D01*
X0079456Y0133010D02*
X0080187Y0133010D01*
X0080187Y0134209D02*
X0079456Y0134209D01*
X0079456Y0135407D02*
X0080187Y0135407D01*
X0080187Y0136606D02*
X0079456Y0136606D01*
X0079456Y0137804D02*
X0080187Y0137804D01*
X0080187Y0139003D02*
X0079456Y0139003D01*
X0077656Y0140444D02*
X0077656Y0122648D01*
X0075856Y0127018D02*
X0075125Y0127018D01*
X0075125Y0128216D02*
X0075856Y0128216D01*
X0075856Y0129415D02*
X0075125Y0129415D01*
X0075125Y0130613D02*
X0075856Y0130613D01*
X0075856Y0131812D02*
X0075125Y0131812D01*
X0075125Y0133010D02*
X0075856Y0133010D01*
X0075856Y0134209D02*
X0075125Y0134209D01*
X0075125Y0135407D02*
X0075856Y0135407D01*
X0075856Y0136606D02*
X0075125Y0136606D01*
X0075125Y0137804D02*
X0075856Y0137804D01*
X0075856Y0139003D02*
X0075125Y0139003D01*
X0075125Y0140201D02*
X0075656Y0140201D01*
X0075784Y0141400D02*
X0075125Y0141400D01*
X0075125Y0142598D02*
X0076417Y0142598D01*
X0075125Y0143797D02*
X0080187Y0143797D01*
X0080187Y0144995D02*
X0075125Y0144995D01*
X0075125Y0146194D02*
X0080187Y0146194D01*
X0080187Y0147392D02*
X0075125Y0147392D01*
X0075125Y0148591D02*
X0080187Y0148591D01*
X0080187Y0149789D02*
X0075717Y0149789D01*
X0075633Y0150988D02*
X0080187Y0150988D01*
X0080187Y0152187D02*
X0074819Y0152187D01*
X0073325Y0150286D02*
X0073325Y0122648D01*
X0068995Y0122648D02*
X0068995Y0153830D01*
X0071280Y0154584D02*
X0162736Y0154584D01*
X0162736Y0155782D02*
X0070436Y0155782D01*
X0071395Y0153385D02*
X0081359Y0153385D01*
X0083787Y0149789D02*
X0086819Y0149789D01*
X0085620Y0148591D02*
X0083787Y0148591D01*
X0083787Y0147392D02*
X0084518Y0147392D01*
X0084518Y0146194D02*
X0083787Y0146194D01*
X0083787Y0144995D02*
X0084518Y0144995D01*
X0084518Y0143797D02*
X0083787Y0143797D01*
X0083787Y0142598D02*
X0084518Y0142598D01*
X0084518Y0141400D02*
X0083787Y0141400D01*
X0083787Y0140201D02*
X0084518Y0140201D01*
X0084518Y0139003D02*
X0083787Y0139003D01*
X0083787Y0137804D02*
X0084518Y0137804D01*
X0084518Y0136606D02*
X0083787Y0136606D01*
X0083787Y0135407D02*
X0084518Y0135407D01*
X0084518Y0134209D02*
X0083787Y0134209D01*
X0083787Y0133010D02*
X0084518Y0133010D01*
X0084518Y0131812D02*
X0083787Y0131812D01*
X0083787Y0130613D02*
X0084518Y0130613D01*
X0084518Y0129415D02*
X0083787Y0129415D01*
X0083787Y0128216D02*
X0084518Y0128216D01*
X0084518Y0127018D02*
X0083787Y0127018D01*
X0086318Y0122648D02*
X0086318Y0146743D01*
X0088118Y0142598D02*
X0095376Y0142598D01*
X0094177Y0141400D02*
X0088118Y0141400D01*
X0088118Y0140201D02*
X0093179Y0140201D01*
X0093179Y0139003D02*
X0088118Y0139003D01*
X0088118Y0137804D02*
X0093179Y0137804D01*
X0093179Y0136606D02*
X0088118Y0136606D01*
X0088118Y0135407D02*
X0093179Y0135407D01*
X0093179Y0134209D02*
X0088118Y0134209D01*
X0088118Y0133010D02*
X0093179Y0133010D01*
X0093179Y0131812D02*
X0088118Y0131812D01*
X0088118Y0130613D02*
X0093179Y0130613D01*
X0093179Y0129415D02*
X0088118Y0129415D01*
X0088118Y0128216D02*
X0093179Y0128216D01*
X0093179Y0127018D02*
X0088118Y0127018D01*
X0090559Y0125819D02*
X0090737Y0125819D01*
X0090737Y0124621D02*
X0090559Y0124621D01*
X0090559Y0123422D02*
X0090737Y0123422D01*
X0079231Y0114459D02*
X0144979Y0114459D01*
X0143385Y0112659D02*
X0143620Y0112425D01*
X0143867Y0112322D01*
X0080343Y0112322D01*
X0080590Y0112425D01*
X0080825Y0112659D01*
X0143385Y0112659D01*
X0143409Y0112636D02*
X0080801Y0112636D01*
X0076494Y0108722D02*
X0155678Y0108722D01*
X0155431Y0108620D01*
X0155196Y0108385D01*
X0076013Y0108385D01*
X0076260Y0108488D01*
X0076494Y0108722D01*
X0074900Y0110522D02*
X0159152Y0110522D01*
X0156790Y0106585D02*
X0070570Y0106585D01*
X0068170Y0106643D02*
X0039822Y0106643D01*
X0040136Y0105445D02*
X0068444Y0105445D01*
X0069946Y0104246D02*
X0040136Y0104246D01*
X0039084Y0107842D02*
X0068492Y0107842D01*
X0071193Y0104246D02*
X0156166Y0104246D01*
X0148129Y0093987D02*
X0144192Y0093987D01*
X0145151Y0095856D02*
X0146604Y0095856D01*
X0135302Y0076680D02*
X0089302Y0076680D01*
X0087892Y0074696D02*
X0136711Y0074696D01*
X0168674Y0101849D02*
X0174197Y0101849D01*
X0173219Y0103048D02*
X0169652Y0103048D01*
X0170136Y0104246D02*
X0172736Y0104246D01*
X0172736Y0105445D02*
X0170136Y0105445D01*
X0169822Y0106643D02*
X0173050Y0106643D01*
X0173788Y0107842D02*
X0169084Y0107842D01*
X0169189Y0111437D02*
X0173683Y0111437D01*
X0172410Y0112636D02*
X0170461Y0112636D01*
X0170978Y0113834D02*
X0171893Y0113834D01*
X0171736Y0115033D02*
X0171136Y0115033D01*
X0170992Y0116231D02*
X0171879Y0116231D01*
X0172376Y0117430D02*
X0170496Y0117430D01*
X0169272Y0118628D02*
X0173599Y0118628D01*
X0175677Y0121025D02*
X0167194Y0121025D01*
X0169049Y0122224D02*
X0173822Y0122224D01*
X0173064Y0123422D02*
X0169807Y0123422D01*
X0170136Y0124621D02*
X0172736Y0124621D01*
X0172736Y0125819D02*
X0170136Y0125819D01*
X0169667Y0127018D02*
X0173205Y0127018D01*
X0174162Y0128216D02*
X0168709Y0128216D01*
X0176436Y0129415D02*
X0113014Y0129415D01*
X0106218Y0119827D02*
X0176436Y0119827D01*
X0165504Y0139003D02*
X0150082Y0139003D01*
X0150529Y0140201D02*
X0176436Y0140201D01*
X0163773Y0141400D02*
X0150330Y0141400D01*
X0156711Y0144995D02*
X0161736Y0144995D01*
X0161863Y0146194D02*
X0157816Y0146194D01*
X0158009Y0147392D02*
X0162360Y0147392D01*
X0163537Y0148591D02*
X0157549Y0148591D01*
X0163189Y0156981D02*
X0040682Y0156981D01*
X0041136Y0155782D02*
X0067553Y0155782D01*
X0066709Y0154584D02*
X0041136Y0154584D01*
X0040792Y0153385D02*
X0066595Y0153385D01*
X0067195Y0152187D02*
X0040012Y0152187D01*
X0038104Y0150988D02*
X0067195Y0150988D01*
X0067195Y0149789D02*
X0026436Y0149789D01*
X0027104Y0150988D02*
X0035767Y0150988D01*
X0035536Y0148591D02*
X0036336Y0148591D01*
X0036336Y0147392D02*
X0035536Y0147392D01*
X0035536Y0146194D02*
X0036336Y0146194D01*
X0036336Y0144995D02*
X0067195Y0144995D01*
X0067195Y0143797D02*
X0040365Y0143797D01*
X0039840Y0142598D02*
X0067195Y0142598D01*
X0067195Y0141400D02*
X0038738Y0141400D01*
X0040401Y0146194D02*
X0067195Y0146194D01*
X0067195Y0147392D02*
X0039905Y0147392D01*
X0038888Y0148591D02*
X0067195Y0148591D01*
X0070795Y0148591D02*
X0071525Y0148591D01*
X0071525Y0147392D02*
X0070795Y0147392D01*
X0070795Y0146194D02*
X0071525Y0146194D01*
X0071525Y0144995D02*
X0070795Y0144995D01*
X0070795Y0143797D02*
X0071525Y0143797D01*
X0071525Y0142598D02*
X0070795Y0142598D01*
X0070795Y0141400D02*
X0071525Y0141400D01*
X0071525Y0140201D02*
X0070795Y0140201D01*
X0070795Y0139003D02*
X0071525Y0139003D01*
X0071525Y0137804D02*
X0070795Y0137804D01*
X0070795Y0136606D02*
X0071525Y0136606D01*
X0071525Y0135407D02*
X0070795Y0135407D01*
X0070795Y0134209D02*
X0071525Y0134209D01*
X0071525Y0133010D02*
X0070795Y0133010D01*
X0070795Y0131812D02*
X0071525Y0131812D01*
X0071525Y0130613D02*
X0070795Y0130613D01*
X0070795Y0129415D02*
X0071525Y0129415D01*
X0071525Y0128216D02*
X0070795Y0128216D01*
X0070795Y0127018D02*
X0071525Y0127018D01*
X0066417Y0121025D02*
X0037194Y0121025D01*
X0034677Y0121025D02*
X0028194Y0121025D01*
X0026436Y0119827D02*
X0066417Y0119827D01*
X0072988Y0109040D02*
X0037278Y0109040D01*
X0034683Y0111437D02*
X0028189Y0111437D01*
X0029461Y0112636D02*
X0033410Y0112636D01*
X0032893Y0113834D02*
X0029978Y0113834D01*
X0030136Y0115033D02*
X0032736Y0115033D01*
X0032879Y0116231D02*
X0029992Y0116231D01*
X0029496Y0117430D02*
X0033376Y0117430D01*
X0034599Y0118628D02*
X0028272Y0118628D01*
X0030049Y0122224D02*
X0032822Y0122224D01*
X0032064Y0123422D02*
X0030807Y0123422D01*
X0031136Y0124621D02*
X0031736Y0124621D01*
X0031736Y0125819D02*
X0031136Y0125819D01*
X0030667Y0127018D02*
X0032205Y0127018D01*
X0033162Y0128216D02*
X0029709Y0128216D01*
X0028637Y0131812D02*
X0034234Y0131812D01*
X0033234Y0133010D02*
X0029637Y0133010D01*
X0030133Y0134209D02*
X0032738Y0134209D01*
X0032736Y0135407D02*
X0030136Y0135407D01*
X0029837Y0136606D02*
X0033034Y0136606D01*
X0033750Y0137804D02*
X0029121Y0137804D01*
X0029099Y0141400D02*
X0033134Y0141400D01*
X0032031Y0142598D02*
X0030424Y0142598D01*
X0030963Y0143797D02*
X0031506Y0143797D01*
X0039746Y0158179D02*
X0164125Y0158179D01*
X0164863Y0171363D02*
X0095456Y0171363D01*
X0095120Y0170164D02*
X0094195Y0170164D01*
X0093313Y0168966D02*
X0069086Y0168966D01*
X0069742Y0168310D02*
X0068318Y0169734D01*
X0066458Y0170504D01*
X0064445Y0170504D01*
X0062585Y0169734D01*
X0061161Y0168310D01*
X0060391Y0166450D01*
X0060391Y0164437D01*
X0061161Y0162577D01*
X0062585Y0161154D01*
X0064445Y0160383D01*
X0066458Y0160383D01*
X0068318Y0161154D01*
X0069742Y0162577D01*
X0070512Y0164437D01*
X0070512Y0166450D01*
X0069742Y0168310D01*
X0069967Y0167767D02*
X0092432Y0167767D01*
X0091936Y0166569D02*
X0070463Y0166569D01*
X0070512Y0165370D02*
X0091887Y0165370D01*
X0091997Y0164172D02*
X0070402Y0164172D01*
X0069906Y0162973D02*
X0092493Y0162973D01*
X0093460Y0161775D02*
X0068939Y0161775D01*
X0066924Y0160576D02*
X0095475Y0160576D01*
X0098420Y0160576D02*
X0104403Y0160576D01*
X0104403Y0161775D02*
X0100435Y0161775D01*
X0101402Y0162973D02*
X0104403Y0162973D01*
X0104495Y0159378D02*
X0050818Y0159378D01*
X0050801Y0159314D02*
X0050910Y0159721D01*
X0050910Y0163269D01*
X0047154Y0163269D01*
X0047154Y0164469D01*
X0050910Y0164469D01*
X0050910Y0168017D01*
X0050801Y0168423D01*
X0050590Y0168788D01*
X0050292Y0169086D01*
X0049927Y0169297D01*
X0049520Y0169406D01*
X0047154Y0169406D01*
X0047154Y0164469D01*
X0045954Y0164469D01*
X0045954Y0169406D01*
X0043587Y0169406D01*
X0043180Y0169297D01*
X0042815Y0169086D01*
X0042518Y0168788D01*
X0042307Y0168423D01*
X0042198Y0168017D01*
X0042198Y0164469D01*
X0045954Y0164469D01*
X0045954Y0163269D01*
X0047154Y0163269D01*
X0047154Y0158332D01*
X0049520Y0158332D01*
X0049927Y0158441D01*
X0050292Y0158652D01*
X0050590Y0158949D01*
X0050801Y0159314D01*
X0050910Y0160576D02*
X0063979Y0160576D01*
X0061964Y0161775D02*
X0050910Y0161775D01*
X0050910Y0162973D02*
X0060997Y0162973D01*
X0060501Y0164172D02*
X0047154Y0164172D01*
X0047154Y0165370D02*
X0045954Y0165370D01*
X0045954Y0164172D02*
X0040118Y0164172D01*
X0040136Y0165370D02*
X0042198Y0165370D01*
X0042198Y0166569D02*
X0039853Y0166569D01*
X0039158Y0167767D02*
X0042198Y0167767D01*
X0042695Y0168966D02*
X0037458Y0168966D01*
X0034863Y0171363D02*
X0028009Y0171363D01*
X0029387Y0172561D02*
X0033485Y0172561D01*
X0032924Y0173760D02*
X0029947Y0173760D01*
X0030136Y0174958D02*
X0032736Y0174958D01*
X0032848Y0176157D02*
X0030023Y0176157D01*
X0029527Y0177355D02*
X0033345Y0177355D01*
X0034500Y0178554D02*
X0028372Y0178554D01*
X0029975Y0182149D02*
X0032357Y0182149D01*
X0031652Y0183348D02*
X0030777Y0183348D01*
X0031136Y0184546D02*
X0031358Y0184546D01*
X0031388Y0185745D02*
X0031136Y0185745D01*
X0030697Y0186943D02*
X0031738Y0186943D01*
X0032522Y0188142D02*
X0029784Y0188142D01*
X0029478Y0190539D02*
X0043237Y0190539D01*
X0042038Y0191737D02*
X0039563Y0191737D01*
X0040606Y0192936D02*
X0040839Y0192936D01*
X0045298Y0194134D02*
X0113525Y0194134D01*
X0113563Y0191737D02*
X0047695Y0191737D01*
X0048893Y0190539D02*
X0114053Y0190539D01*
X0115002Y0189340D02*
X0050092Y0189340D01*
X0046496Y0192936D02*
X0117872Y0192936D01*
X0118936Y0192936D02*
X0124094Y0192936D01*
X0124094Y0194134D02*
X0123283Y0194134D01*
X0123246Y0191737D02*
X0124094Y0191737D01*
X0124094Y0190539D02*
X0122756Y0190539D01*
X0121807Y0189340D02*
X0124094Y0189340D01*
X0120171Y0185745D02*
X0113530Y0185745D01*
X0114728Y0184546D02*
X0119104Y0184546D01*
X0118631Y0183348D02*
X0115927Y0183348D01*
X0117125Y0182149D02*
X0118631Y0182149D01*
X0118324Y0180951D02*
X0119037Y0180951D01*
X0118633Y0179752D02*
X0120011Y0179752D01*
X0118633Y0178554D02*
X0125275Y0178554D01*
X0124678Y0179752D02*
X0124672Y0179752D01*
X0131815Y0188142D02*
X0132592Y0188142D01*
X0139170Y0185745D02*
X0139856Y0185745D01*
X0144196Y0185745D02*
X0161736Y0185745D01*
X0161736Y0184546D02*
X0145264Y0184546D01*
X0145736Y0183348D02*
X0162095Y0183348D01*
X0162897Y0182149D02*
X0145736Y0182149D01*
X0145330Y0180951D02*
X0164857Y0180951D01*
X0164500Y0178554D02*
X0139302Y0178554D01*
X0139302Y0179752D02*
X0139696Y0179752D01*
X0139050Y0177355D02*
X0163345Y0177355D01*
X0162848Y0176157D02*
X0137851Y0176157D01*
X0136653Y0174958D02*
X0162736Y0174958D01*
X0162924Y0173760D02*
X0135454Y0173760D01*
X0134256Y0172561D02*
X0163485Y0172561D01*
X0176436Y0179752D02*
X0144357Y0179752D01*
X0145431Y0189340D02*
X0146495Y0189340D01*
X0146495Y0190539D02*
X0145431Y0190539D01*
X0145431Y0191737D02*
X0146495Y0191737D01*
X0141085Y0194134D02*
X0140273Y0194134D01*
X0118936Y0191737D02*
X0117872Y0191737D01*
X0117872Y0190539D02*
X0118936Y0190539D01*
X0118936Y0189340D02*
X0117872Y0189340D01*
X0109358Y0168966D02*
X0108159Y0168966D01*
X0108159Y0167767D02*
X0109358Y0167767D01*
X0109358Y0166569D02*
X0108159Y0166569D01*
X0108159Y0162973D02*
X0109358Y0162973D01*
X0109358Y0161775D02*
X0108159Y0161775D01*
X0108159Y0160576D02*
X0109358Y0160576D01*
X0109358Y0159378D02*
X0108159Y0159378D01*
X0088676Y0170164D02*
X0067279Y0170164D01*
X0064615Y0172561D02*
X0086761Y0172561D01*
X0086375Y0173760D02*
X0065000Y0173760D01*
X0065000Y0174958D02*
X0086375Y0174958D01*
X0086645Y0176157D02*
X0064730Y0176157D01*
X0064234Y0177355D02*
X0087141Y0177355D01*
X0088334Y0178554D02*
X0063041Y0178554D01*
X0063960Y0171363D02*
X0087415Y0171363D01*
X0071832Y0152187D02*
X0070795Y0152187D01*
X0070795Y0150988D02*
X0071018Y0150988D01*
X0070933Y0149789D02*
X0070795Y0149789D01*
X0060391Y0165370D02*
X0050910Y0165370D01*
X0050910Y0166569D02*
X0060440Y0166569D01*
X0060936Y0167767D02*
X0050910Y0167767D01*
X0050413Y0168966D02*
X0061817Y0168966D01*
X0062699Y0170164D02*
X0063624Y0170164D01*
X0047154Y0168966D02*
X0045954Y0168966D01*
X0045954Y0167767D02*
X0047154Y0167767D01*
X0047154Y0166569D02*
X0045954Y0166569D01*
X0045954Y0163269D02*
X0042198Y0163269D01*
X0042198Y0159721D01*
X0042307Y0159314D01*
X0042518Y0158949D01*
X0042815Y0158652D01*
X0043180Y0158441D01*
X0043587Y0158332D01*
X0045954Y0158332D01*
X0045954Y0163269D01*
X0045954Y0162973D02*
X0047154Y0162973D01*
X0047154Y0161775D02*
X0045954Y0161775D01*
X0045954Y0160576D02*
X0047154Y0160576D01*
X0047154Y0159378D02*
X0045954Y0159378D01*
X0042290Y0159378D02*
X0026436Y0159378D01*
X0026436Y0160576D02*
X0042198Y0160576D01*
X0042198Y0161775D02*
X0038600Y0161775D01*
X0039621Y0162973D02*
X0042198Y0162973D01*
X0034254Y0189340D02*
X0026436Y0189340D01*
X0030508Y0191737D02*
X0034309Y0191737D01*
X0033265Y0192936D02*
X0030536Y0192936D01*
X0030536Y0194134D02*
X0032769Y0194134D01*
X0026436Y0070688D02*
X0176436Y0070688D01*
X0176436Y0069489D02*
X0026436Y0069489D01*
X0144979Y0025877D02*
X0165109Y0025877D01*
X0165936Y0025050D01*
X0169946Y0026343D02*
X0172925Y0026343D01*
X0171899Y0027541D02*
X0169384Y0027541D01*
X0174593Y0029938D02*
X0176436Y0029938D01*
X0174863Y0019152D02*
X0168008Y0019152D01*
X0169972Y0017953D02*
X0172899Y0017953D01*
X0172096Y0016755D02*
X0170776Y0016755D01*
X0171136Y0015556D02*
X0171736Y0015556D01*
X0171736Y0014358D02*
X0171136Y0014358D01*
X0170699Y0013159D02*
X0172173Y0013159D01*
X0173085Y0011961D02*
X0169786Y0011961D01*
X0169126Y0008365D02*
X0173745Y0008365D01*
X0172851Y0007167D02*
X0170020Y0007167D01*
X0170448Y0005968D02*
X0172424Y0005968D01*
X0161847Y0023946D02*
X0146442Y0023946D01*
X0173020Y0051512D02*
X0173534Y0051512D01*
X0174218Y0050313D02*
X0176436Y0050313D01*
X0175773Y0049115D02*
X0175417Y0049115D01*
D23*
X0165936Y0045050D02*
X0165660Y0044774D01*
X0166936Y0035050D02*
X0166818Y0034932D01*
X0157184Y0030207D02*
X0156790Y0030601D01*
X0148522Y0050286D02*
X0148129Y0050680D01*
X0144192Y0093987D02*
X0140255Y0093987D01*
X0139467Y0136507D02*
X0139073Y0136900D01*
X0147735Y0140837D02*
X0148129Y0140444D01*
X0151278Y0143593D02*
X0150097Y0144774D01*
X0154428Y0148318D02*
X0155609Y0147137D01*
X0164534Y0152648D02*
X0166936Y0155050D01*
X0137302Y0178436D02*
X0133168Y0174302D01*
X0119388Y0174302D01*
X0116633Y0177058D01*
X0116633Y0179814D01*
X0109546Y0186900D01*
X0049703Y0186900D01*
X0041554Y0195050D01*
X0036936Y0195050D01*
X0035936Y0185050D02*
X0025936Y0195050D01*
X0078444Y0141231D02*
X0077656Y0140444D01*
X0137302Y0178436D02*
X0137302Y0182471D01*
X0165936Y0005050D02*
X0176936Y0005050D01*
D24*
X0156790Y0030601D03*
X0144979Y0025877D03*
X0136711Y0034932D03*
X0140255Y0040444D03*
X0148129Y0050680D03*
X0152459Y0044774D03*
X0136711Y0074696D03*
X0140255Y0090444D03*
X0140255Y0093987D03*
X0148129Y0093987D03*
X0152066Y0098711D03*
X0152066Y0102648D03*
X0156790Y0106585D03*
X0159152Y0110522D03*
X0144979Y0114459D03*
X0139467Y0136507D03*
X0148129Y0140444D03*
X0151278Y0143593D03*
X0155609Y0147137D03*
X0140058Y0167412D03*
X0103640Y0128633D03*
X0079231Y0114459D03*
X0074900Y0110522D03*
X0070570Y0106585D03*
X0066239Y0102648D03*
X0061908Y0098711D03*
X0057577Y0093987D03*
X0053640Y0088081D03*
X0083562Y0090444D03*
X0087892Y0074696D03*
X0104428Y0080207D03*
X0078444Y0141231D03*
X0073325Y0150286D03*
X0068995Y0153830D03*
M02*
