%
M48
M72
T01C0.01200
T02C0.03346
T03C0.04000
T04C0.04528
T05C0.04921
%
T01
X53640Y88081
X57577Y93987
X61908Y98711
X66239Y102648
X70570Y106585
X74900Y110522
X79231Y114459
X83562Y90444
X87892Y74696
X104428Y80207
X136711Y74696
X140255Y90444
X140255Y93987
X148129Y93987
X152066Y98711
X152066Y102648
X156790Y106585
X159152Y110522
X144979Y114459
X139467Y136507
X148129Y140444
X151278Y143593
X155609Y147137
X140058Y167412
X103640Y128633
X78444Y141231
X73325Y150286
X68995Y153830
X148129Y50680
X152459Y44774
X140255Y40444
X136711Y34932
X144979Y25877
X156790Y30601
T02
X142026Y182668
X122341Y182668
T03
X26936Y5050
X35936Y5050
X36936Y15050
X35936Y25050
X26936Y25050
X25936Y15050
X25936Y35050
X26936Y45050
X35936Y45050
X36936Y35050
X36936Y55050
X35936Y65050
X26936Y65050
X25936Y55050
X25936Y75050
X26936Y85050
X35936Y85050
X36936Y75050
X36936Y95050
X35936Y105050
X36936Y115050
X35936Y125050
X26936Y125050
X25936Y115050
X26936Y105050
X25936Y95050
X25936Y135050
X26936Y145050
X35936Y145050
X36936Y135050
X36936Y155050
X35936Y165050
X26936Y165050
X25936Y155050
X25936Y175050
X26936Y185050
X35936Y185050
X36936Y175050
X36936Y195050
X25936Y195050
X165936Y185050
X166936Y175050
X175936Y175050
X176936Y185050
X175936Y195050
X166936Y195050
X165936Y165050
X166936Y155050
X175936Y155050
X176936Y145050
X175936Y135050
X166936Y135050
X165936Y125050
X166936Y115050
X175936Y115050
X176936Y105050
X175936Y95050
X166936Y95050
X165936Y85050
X166936Y75050
X175936Y75050
X176936Y65050
X175936Y55050
X166936Y55050
X165936Y45050
X166936Y35050
X175936Y35050
X176936Y45050
X176936Y25050
X175936Y15050
X166936Y15050
X165936Y5050
X176936Y5050
X165936Y25050
X165936Y65050
X176936Y85050
X165936Y105050
X176936Y125050
X165936Y145050
X176936Y165050
T04
X145963Y193003
X118404Y193003
T05
X96948Y165444
X91436Y174499
X65451Y165444
X59940Y174499
M30
