G75*
%MOIN*%
%OFA0B0*%
%FSLAX25Y25*%
%IPPOS*%
%LPD*%
%AMOC8*
5,1,8,0,0,1.08239X$1,22.5*
%
%ADD10C,0.00000*%
%ADD11R,0.01575X0.05315*%
%ADD12R,0.05906X0.07480*%
%ADD13C,0.06791*%
%ADD14C,0.05020*%
%ADD15R,0.02756X0.05512*%
%ADD16R,0.05512X0.07874*%
%ADD17R,0.05039X0.05512*%
%ADD18R,0.07677X0.05512*%
%ADD19R,0.08000X0.02600*%
%ADD20OC8,0.08500*%
%ADD21R,0.05118X0.05906*%
%ADD22C,0.06000*%
%ADD23C,0.00500*%
%ADD24C,0.05315*%
%ADD25R,0.05315X0.05315*%
%ADD26C,0.01200*%
%ADD27C,0.02400*%
%ADD28C,0.01600*%
D10*
X0020570Y0001467D02*
X0020570Y0198711D01*
X0182381Y0198711D01*
X0182381Y0001467D01*
X0020570Y0001467D01*
X0020570Y0001861D02*
X0181987Y0001861D01*
X0181987Y0009341D01*
X0094487Y0094578D02*
X0094489Y0094677D01*
X0094495Y0094776D01*
X0094505Y0094875D01*
X0094519Y0094973D01*
X0094537Y0095070D01*
X0094559Y0095167D01*
X0094584Y0095263D01*
X0094614Y0095357D01*
X0094647Y0095451D01*
X0094684Y0095543D01*
X0094725Y0095633D01*
X0094769Y0095722D01*
X0094817Y0095808D01*
X0094868Y0095893D01*
X0094923Y0095976D01*
X0094981Y0096056D01*
X0095042Y0096134D01*
X0095106Y0096210D01*
X0095173Y0096283D01*
X0095243Y0096353D01*
X0095316Y0096420D01*
X0095392Y0096484D01*
X0095470Y0096545D01*
X0095550Y0096603D01*
X0095633Y0096658D01*
X0095717Y0096709D01*
X0095804Y0096757D01*
X0095893Y0096801D01*
X0095983Y0096842D01*
X0096075Y0096879D01*
X0096169Y0096912D01*
X0096263Y0096942D01*
X0096359Y0096967D01*
X0096456Y0096989D01*
X0096553Y0097007D01*
X0096651Y0097021D01*
X0096750Y0097031D01*
X0096849Y0097037D01*
X0096948Y0097039D01*
X0097047Y0097037D01*
X0097146Y0097031D01*
X0097245Y0097021D01*
X0097343Y0097007D01*
X0097440Y0096989D01*
X0097537Y0096967D01*
X0097633Y0096942D01*
X0097727Y0096912D01*
X0097821Y0096879D01*
X0097913Y0096842D01*
X0098003Y0096801D01*
X0098092Y0096757D01*
X0098178Y0096709D01*
X0098263Y0096658D01*
X0098346Y0096603D01*
X0098426Y0096545D01*
X0098504Y0096484D01*
X0098580Y0096420D01*
X0098653Y0096353D01*
X0098723Y0096283D01*
X0098790Y0096210D01*
X0098854Y0096134D01*
X0098915Y0096056D01*
X0098973Y0095976D01*
X0099028Y0095893D01*
X0099079Y0095809D01*
X0099127Y0095722D01*
X0099171Y0095633D01*
X0099212Y0095543D01*
X0099249Y0095451D01*
X0099282Y0095357D01*
X0099312Y0095263D01*
X0099337Y0095167D01*
X0099359Y0095070D01*
X0099377Y0094973D01*
X0099391Y0094875D01*
X0099401Y0094776D01*
X0099407Y0094677D01*
X0099409Y0094578D01*
X0099407Y0094479D01*
X0099401Y0094380D01*
X0099391Y0094281D01*
X0099377Y0094183D01*
X0099359Y0094086D01*
X0099337Y0093989D01*
X0099312Y0093893D01*
X0099282Y0093799D01*
X0099249Y0093705D01*
X0099212Y0093613D01*
X0099171Y0093523D01*
X0099127Y0093434D01*
X0099079Y0093348D01*
X0099028Y0093263D01*
X0098973Y0093180D01*
X0098915Y0093100D01*
X0098854Y0093022D01*
X0098790Y0092946D01*
X0098723Y0092873D01*
X0098653Y0092803D01*
X0098580Y0092736D01*
X0098504Y0092672D01*
X0098426Y0092611D01*
X0098346Y0092553D01*
X0098263Y0092498D01*
X0098179Y0092447D01*
X0098092Y0092399D01*
X0098003Y0092355D01*
X0097913Y0092314D01*
X0097821Y0092277D01*
X0097727Y0092244D01*
X0097633Y0092214D01*
X0097537Y0092189D01*
X0097440Y0092167D01*
X0097343Y0092149D01*
X0097245Y0092135D01*
X0097146Y0092125D01*
X0097047Y0092119D01*
X0096948Y0092117D01*
X0096849Y0092119D01*
X0096750Y0092125D01*
X0096651Y0092135D01*
X0096553Y0092149D01*
X0096456Y0092167D01*
X0096359Y0092189D01*
X0096263Y0092214D01*
X0096169Y0092244D01*
X0096075Y0092277D01*
X0095983Y0092314D01*
X0095893Y0092355D01*
X0095804Y0092399D01*
X0095718Y0092447D01*
X0095633Y0092498D01*
X0095550Y0092553D01*
X0095470Y0092611D01*
X0095392Y0092672D01*
X0095316Y0092736D01*
X0095243Y0092803D01*
X0095173Y0092873D01*
X0095106Y0092946D01*
X0095042Y0093022D01*
X0094981Y0093100D01*
X0094923Y0093180D01*
X0094868Y0093263D01*
X0094817Y0093347D01*
X0094769Y0093434D01*
X0094725Y0093523D01*
X0094684Y0093613D01*
X0094647Y0093705D01*
X0094614Y0093799D01*
X0094584Y0093893D01*
X0094559Y0093989D01*
X0094537Y0094086D01*
X0094519Y0094183D01*
X0094505Y0094281D01*
X0094495Y0094380D01*
X0094489Y0094479D01*
X0094487Y0094578D01*
X0096061Y0112294D02*
X0096063Y0112393D01*
X0096069Y0112492D01*
X0096079Y0112591D01*
X0096093Y0112689D01*
X0096111Y0112786D01*
X0096133Y0112883D01*
X0096158Y0112979D01*
X0096188Y0113073D01*
X0096221Y0113167D01*
X0096258Y0113259D01*
X0096299Y0113349D01*
X0096343Y0113438D01*
X0096391Y0113524D01*
X0096442Y0113609D01*
X0096497Y0113692D01*
X0096555Y0113772D01*
X0096616Y0113850D01*
X0096680Y0113926D01*
X0096747Y0113999D01*
X0096817Y0114069D01*
X0096890Y0114136D01*
X0096966Y0114200D01*
X0097044Y0114261D01*
X0097124Y0114319D01*
X0097207Y0114374D01*
X0097291Y0114425D01*
X0097378Y0114473D01*
X0097467Y0114517D01*
X0097557Y0114558D01*
X0097649Y0114595D01*
X0097743Y0114628D01*
X0097837Y0114658D01*
X0097933Y0114683D01*
X0098030Y0114705D01*
X0098127Y0114723D01*
X0098225Y0114737D01*
X0098324Y0114747D01*
X0098423Y0114753D01*
X0098522Y0114755D01*
X0098621Y0114753D01*
X0098720Y0114747D01*
X0098819Y0114737D01*
X0098917Y0114723D01*
X0099014Y0114705D01*
X0099111Y0114683D01*
X0099207Y0114658D01*
X0099301Y0114628D01*
X0099395Y0114595D01*
X0099487Y0114558D01*
X0099577Y0114517D01*
X0099666Y0114473D01*
X0099752Y0114425D01*
X0099837Y0114374D01*
X0099920Y0114319D01*
X0100000Y0114261D01*
X0100078Y0114200D01*
X0100154Y0114136D01*
X0100227Y0114069D01*
X0100297Y0113999D01*
X0100364Y0113926D01*
X0100428Y0113850D01*
X0100489Y0113772D01*
X0100547Y0113692D01*
X0100602Y0113609D01*
X0100653Y0113525D01*
X0100701Y0113438D01*
X0100745Y0113349D01*
X0100786Y0113259D01*
X0100823Y0113167D01*
X0100856Y0113073D01*
X0100886Y0112979D01*
X0100911Y0112883D01*
X0100933Y0112786D01*
X0100951Y0112689D01*
X0100965Y0112591D01*
X0100975Y0112492D01*
X0100981Y0112393D01*
X0100983Y0112294D01*
X0100981Y0112195D01*
X0100975Y0112096D01*
X0100965Y0111997D01*
X0100951Y0111899D01*
X0100933Y0111802D01*
X0100911Y0111705D01*
X0100886Y0111609D01*
X0100856Y0111515D01*
X0100823Y0111421D01*
X0100786Y0111329D01*
X0100745Y0111239D01*
X0100701Y0111150D01*
X0100653Y0111064D01*
X0100602Y0110979D01*
X0100547Y0110896D01*
X0100489Y0110816D01*
X0100428Y0110738D01*
X0100364Y0110662D01*
X0100297Y0110589D01*
X0100227Y0110519D01*
X0100154Y0110452D01*
X0100078Y0110388D01*
X0100000Y0110327D01*
X0099920Y0110269D01*
X0099837Y0110214D01*
X0099753Y0110163D01*
X0099666Y0110115D01*
X0099577Y0110071D01*
X0099487Y0110030D01*
X0099395Y0109993D01*
X0099301Y0109960D01*
X0099207Y0109930D01*
X0099111Y0109905D01*
X0099014Y0109883D01*
X0098917Y0109865D01*
X0098819Y0109851D01*
X0098720Y0109841D01*
X0098621Y0109835D01*
X0098522Y0109833D01*
X0098423Y0109835D01*
X0098324Y0109841D01*
X0098225Y0109851D01*
X0098127Y0109865D01*
X0098030Y0109883D01*
X0097933Y0109905D01*
X0097837Y0109930D01*
X0097743Y0109960D01*
X0097649Y0109993D01*
X0097557Y0110030D01*
X0097467Y0110071D01*
X0097378Y0110115D01*
X0097292Y0110163D01*
X0097207Y0110214D01*
X0097124Y0110269D01*
X0097044Y0110327D01*
X0096966Y0110388D01*
X0096890Y0110452D01*
X0096817Y0110519D01*
X0096747Y0110589D01*
X0096680Y0110662D01*
X0096616Y0110738D01*
X0096555Y0110816D01*
X0096497Y0110896D01*
X0096442Y0110979D01*
X0096391Y0111063D01*
X0096343Y0111150D01*
X0096299Y0111239D01*
X0096258Y0111329D01*
X0096221Y0111421D01*
X0096188Y0111515D01*
X0096158Y0111609D01*
X0096133Y0111705D01*
X0096111Y0111802D01*
X0096093Y0111899D01*
X0096079Y0111997D01*
X0096069Y0112096D01*
X0096063Y0112195D01*
X0096061Y0112294D01*
X0064565Y0112294D02*
X0064567Y0112393D01*
X0064573Y0112492D01*
X0064583Y0112591D01*
X0064597Y0112689D01*
X0064615Y0112786D01*
X0064637Y0112883D01*
X0064662Y0112979D01*
X0064692Y0113073D01*
X0064725Y0113167D01*
X0064762Y0113259D01*
X0064803Y0113349D01*
X0064847Y0113438D01*
X0064895Y0113524D01*
X0064946Y0113609D01*
X0065001Y0113692D01*
X0065059Y0113772D01*
X0065120Y0113850D01*
X0065184Y0113926D01*
X0065251Y0113999D01*
X0065321Y0114069D01*
X0065394Y0114136D01*
X0065470Y0114200D01*
X0065548Y0114261D01*
X0065628Y0114319D01*
X0065711Y0114374D01*
X0065795Y0114425D01*
X0065882Y0114473D01*
X0065971Y0114517D01*
X0066061Y0114558D01*
X0066153Y0114595D01*
X0066247Y0114628D01*
X0066341Y0114658D01*
X0066437Y0114683D01*
X0066534Y0114705D01*
X0066631Y0114723D01*
X0066729Y0114737D01*
X0066828Y0114747D01*
X0066927Y0114753D01*
X0067026Y0114755D01*
X0067125Y0114753D01*
X0067224Y0114747D01*
X0067323Y0114737D01*
X0067421Y0114723D01*
X0067518Y0114705D01*
X0067615Y0114683D01*
X0067711Y0114658D01*
X0067805Y0114628D01*
X0067899Y0114595D01*
X0067991Y0114558D01*
X0068081Y0114517D01*
X0068170Y0114473D01*
X0068256Y0114425D01*
X0068341Y0114374D01*
X0068424Y0114319D01*
X0068504Y0114261D01*
X0068582Y0114200D01*
X0068658Y0114136D01*
X0068731Y0114069D01*
X0068801Y0113999D01*
X0068868Y0113926D01*
X0068932Y0113850D01*
X0068993Y0113772D01*
X0069051Y0113692D01*
X0069106Y0113609D01*
X0069157Y0113525D01*
X0069205Y0113438D01*
X0069249Y0113349D01*
X0069290Y0113259D01*
X0069327Y0113167D01*
X0069360Y0113073D01*
X0069390Y0112979D01*
X0069415Y0112883D01*
X0069437Y0112786D01*
X0069455Y0112689D01*
X0069469Y0112591D01*
X0069479Y0112492D01*
X0069485Y0112393D01*
X0069487Y0112294D01*
X0069485Y0112195D01*
X0069479Y0112096D01*
X0069469Y0111997D01*
X0069455Y0111899D01*
X0069437Y0111802D01*
X0069415Y0111705D01*
X0069390Y0111609D01*
X0069360Y0111515D01*
X0069327Y0111421D01*
X0069290Y0111329D01*
X0069249Y0111239D01*
X0069205Y0111150D01*
X0069157Y0111064D01*
X0069106Y0110979D01*
X0069051Y0110896D01*
X0068993Y0110816D01*
X0068932Y0110738D01*
X0068868Y0110662D01*
X0068801Y0110589D01*
X0068731Y0110519D01*
X0068658Y0110452D01*
X0068582Y0110388D01*
X0068504Y0110327D01*
X0068424Y0110269D01*
X0068341Y0110214D01*
X0068257Y0110163D01*
X0068170Y0110115D01*
X0068081Y0110071D01*
X0067991Y0110030D01*
X0067899Y0109993D01*
X0067805Y0109960D01*
X0067711Y0109930D01*
X0067615Y0109905D01*
X0067518Y0109883D01*
X0067421Y0109865D01*
X0067323Y0109851D01*
X0067224Y0109841D01*
X0067125Y0109835D01*
X0067026Y0109833D01*
X0066927Y0109835D01*
X0066828Y0109841D01*
X0066729Y0109851D01*
X0066631Y0109865D01*
X0066534Y0109883D01*
X0066437Y0109905D01*
X0066341Y0109930D01*
X0066247Y0109960D01*
X0066153Y0109993D01*
X0066061Y0110030D01*
X0065971Y0110071D01*
X0065882Y0110115D01*
X0065796Y0110163D01*
X0065711Y0110214D01*
X0065628Y0110269D01*
X0065548Y0110327D01*
X0065470Y0110388D01*
X0065394Y0110452D01*
X0065321Y0110519D01*
X0065251Y0110589D01*
X0065184Y0110662D01*
X0065120Y0110738D01*
X0065059Y0110816D01*
X0065001Y0110896D01*
X0064946Y0110979D01*
X0064895Y0111063D01*
X0064847Y0111150D01*
X0064803Y0111239D01*
X0064762Y0111329D01*
X0064725Y0111421D01*
X0064692Y0111515D01*
X0064662Y0111609D01*
X0064637Y0111705D01*
X0064615Y0111802D01*
X0064597Y0111899D01*
X0064583Y0111997D01*
X0064573Y0112096D01*
X0064567Y0112195D01*
X0064565Y0112294D01*
X0062990Y0094578D02*
X0062992Y0094677D01*
X0062998Y0094776D01*
X0063008Y0094875D01*
X0063022Y0094973D01*
X0063040Y0095070D01*
X0063062Y0095167D01*
X0063087Y0095263D01*
X0063117Y0095357D01*
X0063150Y0095451D01*
X0063187Y0095543D01*
X0063228Y0095633D01*
X0063272Y0095722D01*
X0063320Y0095808D01*
X0063371Y0095893D01*
X0063426Y0095976D01*
X0063484Y0096056D01*
X0063545Y0096134D01*
X0063609Y0096210D01*
X0063676Y0096283D01*
X0063746Y0096353D01*
X0063819Y0096420D01*
X0063895Y0096484D01*
X0063973Y0096545D01*
X0064053Y0096603D01*
X0064136Y0096658D01*
X0064220Y0096709D01*
X0064307Y0096757D01*
X0064396Y0096801D01*
X0064486Y0096842D01*
X0064578Y0096879D01*
X0064672Y0096912D01*
X0064766Y0096942D01*
X0064862Y0096967D01*
X0064959Y0096989D01*
X0065056Y0097007D01*
X0065154Y0097021D01*
X0065253Y0097031D01*
X0065352Y0097037D01*
X0065451Y0097039D01*
X0065550Y0097037D01*
X0065649Y0097031D01*
X0065748Y0097021D01*
X0065846Y0097007D01*
X0065943Y0096989D01*
X0066040Y0096967D01*
X0066136Y0096942D01*
X0066230Y0096912D01*
X0066324Y0096879D01*
X0066416Y0096842D01*
X0066506Y0096801D01*
X0066595Y0096757D01*
X0066681Y0096709D01*
X0066766Y0096658D01*
X0066849Y0096603D01*
X0066929Y0096545D01*
X0067007Y0096484D01*
X0067083Y0096420D01*
X0067156Y0096353D01*
X0067226Y0096283D01*
X0067293Y0096210D01*
X0067357Y0096134D01*
X0067418Y0096056D01*
X0067476Y0095976D01*
X0067531Y0095893D01*
X0067582Y0095809D01*
X0067630Y0095722D01*
X0067674Y0095633D01*
X0067715Y0095543D01*
X0067752Y0095451D01*
X0067785Y0095357D01*
X0067815Y0095263D01*
X0067840Y0095167D01*
X0067862Y0095070D01*
X0067880Y0094973D01*
X0067894Y0094875D01*
X0067904Y0094776D01*
X0067910Y0094677D01*
X0067912Y0094578D01*
X0067910Y0094479D01*
X0067904Y0094380D01*
X0067894Y0094281D01*
X0067880Y0094183D01*
X0067862Y0094086D01*
X0067840Y0093989D01*
X0067815Y0093893D01*
X0067785Y0093799D01*
X0067752Y0093705D01*
X0067715Y0093613D01*
X0067674Y0093523D01*
X0067630Y0093434D01*
X0067582Y0093348D01*
X0067531Y0093263D01*
X0067476Y0093180D01*
X0067418Y0093100D01*
X0067357Y0093022D01*
X0067293Y0092946D01*
X0067226Y0092873D01*
X0067156Y0092803D01*
X0067083Y0092736D01*
X0067007Y0092672D01*
X0066929Y0092611D01*
X0066849Y0092553D01*
X0066766Y0092498D01*
X0066682Y0092447D01*
X0066595Y0092399D01*
X0066506Y0092355D01*
X0066416Y0092314D01*
X0066324Y0092277D01*
X0066230Y0092244D01*
X0066136Y0092214D01*
X0066040Y0092189D01*
X0065943Y0092167D01*
X0065846Y0092149D01*
X0065748Y0092135D01*
X0065649Y0092125D01*
X0065550Y0092119D01*
X0065451Y0092117D01*
X0065352Y0092119D01*
X0065253Y0092125D01*
X0065154Y0092135D01*
X0065056Y0092149D01*
X0064959Y0092167D01*
X0064862Y0092189D01*
X0064766Y0092214D01*
X0064672Y0092244D01*
X0064578Y0092277D01*
X0064486Y0092314D01*
X0064396Y0092355D01*
X0064307Y0092399D01*
X0064221Y0092447D01*
X0064136Y0092498D01*
X0064053Y0092553D01*
X0063973Y0092611D01*
X0063895Y0092672D01*
X0063819Y0092736D01*
X0063746Y0092803D01*
X0063676Y0092873D01*
X0063609Y0092946D01*
X0063545Y0093022D01*
X0063484Y0093100D01*
X0063426Y0093180D01*
X0063371Y0093263D01*
X0063320Y0093347D01*
X0063272Y0093434D01*
X0063228Y0093523D01*
X0063187Y0093613D01*
X0063150Y0093705D01*
X0063117Y0093799D01*
X0063087Y0093893D01*
X0063062Y0093989D01*
X0063040Y0094086D01*
X0063022Y0094183D01*
X0063008Y0094281D01*
X0062998Y0094380D01*
X0062992Y0094479D01*
X0062990Y0094578D01*
D11*
X0127066Y0182471D03*
X0129625Y0182471D03*
X0132184Y0182471D03*
X0134743Y0182471D03*
X0137302Y0182471D03*
D12*
X0136121Y0193003D03*
X0128247Y0192963D03*
D13*
X0118404Y0193003D03*
X0145963Y0193003D03*
D14*
X0142026Y0182668D03*
X0122341Y0182668D03*
D15*
X0105215Y0069499D03*
X0100885Y0069499D03*
X0096554Y0069499D03*
X0092223Y0069499D03*
X0087892Y0069499D03*
X0083562Y0069499D03*
X0079231Y0069499D03*
X0074900Y0069499D03*
X0070570Y0069499D03*
D16*
X0048129Y0110719D03*
X0110333Y0110719D03*
D17*
X0110570Y0072924D03*
D18*
X0051573Y0072924D03*
D19*
X0127761Y0081211D03*
X0127761Y0086211D03*
X0127761Y0091211D03*
X0127761Y0096211D03*
X0127761Y0101211D03*
X0127761Y0106211D03*
X0127761Y0111211D03*
X0127761Y0116211D03*
X0151961Y0116211D03*
X0151961Y0111211D03*
X0151961Y0106211D03*
X0151961Y0101211D03*
X0151961Y0096211D03*
X0151961Y0091211D03*
X0151961Y0086211D03*
X0151961Y0081211D03*
D20*
X0141436Y0064459D03*
X0143010Y0010916D03*
X0131199Y0010916D03*
X0119388Y0010916D03*
X0154822Y0010916D03*
X0122932Y0127452D03*
X0115058Y0153830D03*
X0154034Y0153436D03*
X0154034Y0141625D03*
D21*
X0143995Y0125089D03*
X0136514Y0125089D03*
D22*
X0050735Y0041507D02*
X0044735Y0041507D01*
X0044735Y0031507D02*
X0050735Y0031507D01*
X0050735Y0020247D02*
X0044735Y0020247D01*
X0044735Y0010247D02*
X0050735Y0010247D01*
D23*
X0020727Y0001625D02*
X0020727Y0198475D01*
X0182144Y0198475D01*
X0182144Y0001625D01*
X0020727Y0001625D01*
D24*
X0026936Y0005050D03*
X0035936Y0005050D03*
X0036936Y0015050D03*
X0035936Y0025050D03*
X0026936Y0025050D03*
X0025936Y0015050D03*
X0025936Y0035050D03*
X0026936Y0045050D03*
X0035936Y0045050D03*
X0036936Y0035050D03*
X0036936Y0055050D03*
X0035936Y0065050D03*
X0026936Y0065050D03*
X0025936Y0055050D03*
X0025936Y0075050D03*
X0026936Y0085050D03*
X0035936Y0085050D03*
X0036936Y0075050D03*
X0036936Y0095050D03*
X0035936Y0105050D03*
X0036936Y0115050D03*
X0035936Y0125050D03*
X0026936Y0125050D03*
X0025936Y0115050D03*
X0026936Y0105050D03*
X0025936Y0095050D03*
X0025936Y0135050D03*
X0026936Y0145050D03*
X0035936Y0145050D03*
X0036936Y0135050D03*
X0036936Y0155050D03*
X0035936Y0165050D03*
X0026936Y0165050D03*
X0025936Y0155050D03*
X0025936Y0175050D03*
X0026936Y0185050D03*
X0035936Y0185050D03*
X0036936Y0175050D03*
X0036936Y0195050D03*
X0165936Y0185050D03*
X0166936Y0175050D03*
X0175936Y0175050D03*
X0176936Y0185050D03*
X0175936Y0195050D03*
X0176936Y0165050D03*
X0175936Y0155050D03*
X0166936Y0155050D03*
X0165936Y0145050D03*
X0166936Y0135050D03*
X0175936Y0135050D03*
X0176936Y0125050D03*
X0175936Y0115050D03*
X0166936Y0115050D03*
X0165936Y0105050D03*
X0166936Y0095050D03*
X0175936Y0095050D03*
X0176936Y0085050D03*
X0175936Y0075050D03*
X0166936Y0075050D03*
X0165936Y0065050D03*
X0166936Y0055050D03*
X0175936Y0055050D03*
X0176936Y0045050D03*
X0175936Y0035050D03*
X0166936Y0035050D03*
X0165936Y0045050D03*
X0165936Y0025050D03*
X0166936Y0015050D03*
X0175936Y0015050D03*
X0176936Y0005050D03*
X0165936Y0005050D03*
X0176936Y0025050D03*
X0176936Y0065050D03*
X0165936Y0085050D03*
X0176936Y0105050D03*
X0165936Y0125050D03*
X0176936Y0145050D03*
X0165936Y0165050D03*
D25*
X0166936Y0195050D03*
X0025936Y0195050D03*
D26*
X0026436Y0195050D02*
X0033078Y0195050D01*
X0033078Y0194283D01*
X0033665Y0192865D01*
X0034751Y0191780D01*
X0036168Y0191193D01*
X0037703Y0191193D01*
X0039121Y0191780D01*
X0040206Y0192865D01*
X0040283Y0193050D01*
X0040725Y0193050D01*
X0061473Y0172302D01*
X0133996Y0172302D01*
X0135168Y0173474D01*
X0139302Y0177607D01*
X0139302Y0180146D01*
X0139925Y0179523D01*
X0141288Y0178958D01*
X0142764Y0178958D01*
X0144128Y0179523D01*
X0145171Y0180567D01*
X0145736Y0181930D01*
X0145736Y0183406D01*
X0145171Y0184770D01*
X0144128Y0185813D01*
X0142764Y0186378D01*
X0141288Y0186378D01*
X0139925Y0185813D01*
X0139289Y0185178D01*
X0139289Y0185626D01*
X0138586Y0186329D01*
X0128916Y0186329D01*
X0128835Y0186409D01*
X0128471Y0186620D01*
X0128064Y0186729D01*
X0127066Y0186729D01*
X0127066Y0182471D01*
X0127066Y0178214D01*
X0128064Y0178214D01*
X0128471Y0178323D01*
X0128835Y0178533D01*
X0128916Y0178614D01*
X0134651Y0178614D01*
X0132340Y0176302D01*
X0063130Y0176302D01*
X0044382Y0195050D01*
X0113841Y0195050D01*
X0113775Y0194920D01*
X0113532Y0194173D01*
X0113430Y0193535D01*
X0117872Y0193535D01*
X0117872Y0192471D01*
X0113430Y0192471D01*
X0113532Y0191833D01*
X0113775Y0191085D01*
X0114132Y0190384D01*
X0114594Y0189748D01*
X0115150Y0189192D01*
X0115786Y0188730D01*
X0116487Y0188373D01*
X0117234Y0188130D01*
X0117872Y0188029D01*
X0117872Y0192471D01*
X0118936Y0192471D01*
X0118936Y0193535D01*
X0123378Y0193535D01*
X0123277Y0194173D01*
X0123034Y0194920D01*
X0122968Y0195050D01*
X0124094Y0195050D01*
X0124094Y0188726D01*
X0124797Y0188023D01*
X0131697Y0188023D01*
X0132203Y0188530D01*
X0132671Y0188063D01*
X0139571Y0188063D01*
X0140273Y0188766D01*
X0140273Y0195050D01*
X0141400Y0195050D01*
X0141334Y0194920D01*
X0141091Y0194173D01*
X0140990Y0193535D01*
X0145431Y0193535D01*
X0145431Y0192471D01*
X0140990Y0192471D01*
X0141091Y0191833D01*
X0141334Y0191085D01*
X0141691Y0190384D01*
X0142153Y0189748D01*
X0142709Y0189192D01*
X0143345Y0188730D01*
X0144046Y0188373D01*
X0144793Y0188130D01*
X0145431Y0188029D01*
X0145431Y0192471D01*
X0146495Y0192471D01*
X0146495Y0193535D01*
X0150937Y0193535D01*
X0150836Y0194173D01*
X0150593Y0194920D01*
X0150527Y0195050D01*
X0166650Y0195050D01*
X0166650Y0194764D01*
X0167222Y0194764D01*
X0167222Y0195050D01*
X0172078Y0195050D01*
X0172078Y0194283D01*
X0172665Y0192865D01*
X0173751Y0191780D01*
X0175168Y0191193D01*
X0176436Y0191193D01*
X0176436Y0188907D01*
X0176168Y0188907D01*
X0174751Y0188320D01*
X0173665Y0187235D01*
X0173078Y0185817D01*
X0173078Y0184283D01*
X0173665Y0182865D01*
X0174751Y0181780D01*
X0176168Y0181193D01*
X0176436Y0181193D01*
X0176436Y0179281D01*
X0176271Y0179307D01*
X0176222Y0179307D01*
X0176222Y0175336D01*
X0175650Y0175336D01*
X0175650Y0179307D01*
X0175601Y0179307D01*
X0174939Y0179203D01*
X0174301Y0178996D01*
X0173704Y0178691D01*
X0173162Y0178297D01*
X0172688Y0177824D01*
X0172294Y0177281D01*
X0171990Y0176684D01*
X0171783Y0176047D01*
X0171678Y0175385D01*
X0171678Y0175336D01*
X0175650Y0175336D01*
X0175650Y0174764D01*
X0176222Y0174764D01*
X0176222Y0170793D01*
X0176271Y0170793D01*
X0176436Y0170819D01*
X0176436Y0168907D01*
X0176168Y0168907D01*
X0175983Y0168831D01*
X0172449Y0172365D01*
X0169706Y0172365D01*
X0170206Y0172865D01*
X0170793Y0174283D01*
X0170793Y0175817D01*
X0170206Y0177235D01*
X0169121Y0178320D01*
X0167703Y0178907D01*
X0166168Y0178907D01*
X0164751Y0178320D01*
X0163665Y0177235D01*
X0163078Y0175817D01*
X0163078Y0174283D01*
X0163665Y0172865D01*
X0164165Y0172365D01*
X0136277Y0172365D01*
X0134314Y0170403D01*
X0134265Y0170403D01*
X0133383Y0170037D01*
X0132708Y0169362D01*
X0132343Y0168480D01*
X0132343Y0167525D01*
X0132708Y0166643D01*
X0133383Y0165968D01*
X0134265Y0165603D01*
X0135220Y0165603D01*
X0136102Y0165968D01*
X0136777Y0166643D01*
X0137143Y0167525D01*
X0137143Y0167574D01*
X0137933Y0168365D01*
X0163859Y0168365D01*
X0163751Y0168320D01*
X0162665Y0167235D01*
X0162078Y0165817D01*
X0162078Y0164283D01*
X0162665Y0162865D01*
X0163751Y0161780D01*
X0165168Y0161193D01*
X0166703Y0161193D01*
X0168121Y0161780D01*
X0169206Y0162865D01*
X0169793Y0164283D01*
X0169793Y0165817D01*
X0169206Y0167235D01*
X0168121Y0168320D01*
X0168013Y0168365D01*
X0170792Y0168365D01*
X0173155Y0166002D01*
X0173078Y0165817D01*
X0173078Y0164283D01*
X0173665Y0162865D01*
X0174751Y0161780D01*
X0176168Y0161193D01*
X0176436Y0161193D01*
X0176436Y0158907D01*
X0175168Y0158907D01*
X0173751Y0158320D01*
X0172665Y0157235D01*
X0172078Y0155817D01*
X0172078Y0154283D01*
X0172665Y0152865D01*
X0173751Y0151780D01*
X0175168Y0151193D01*
X0176436Y0151193D01*
X0176436Y0148907D01*
X0176168Y0148907D01*
X0174751Y0148320D01*
X0173751Y0147320D01*
X0173751Y0148752D01*
X0172579Y0149924D01*
X0170217Y0152286D01*
X0169627Y0152286D01*
X0170206Y0152865D01*
X0170793Y0154283D01*
X0170793Y0155817D01*
X0170206Y0157235D01*
X0169121Y0158320D01*
X0167703Y0158907D01*
X0166168Y0158907D01*
X0165983Y0158831D01*
X0161111Y0163704D01*
X0092969Y0163704D01*
X0083133Y0153867D01*
X0083084Y0153867D01*
X0082202Y0153502D01*
X0081527Y0152827D01*
X0081162Y0151945D01*
X0081162Y0150990D01*
X0081527Y0150108D01*
X0081562Y0150073D01*
X0081562Y0073330D01*
X0081396Y0073164D01*
X0081231Y0073330D01*
X0081231Y0148752D01*
X0075725Y0154258D01*
X0075725Y0154307D01*
X0075360Y0155189D01*
X0074685Y0155864D01*
X0073803Y0156230D01*
X0072848Y0156230D01*
X0071966Y0155864D01*
X0071291Y0155189D01*
X0070925Y0154307D01*
X0070925Y0153352D01*
X0071291Y0152470D01*
X0071966Y0151795D01*
X0072848Y0151430D01*
X0072897Y0151430D01*
X0077231Y0147096D01*
X0077231Y0073330D01*
X0077066Y0073164D01*
X0076900Y0073330D01*
X0076900Y0144815D01*
X0069820Y0151896D01*
X0069820Y0151945D01*
X0069455Y0152827D01*
X0068779Y0153502D01*
X0067897Y0153867D01*
X0066943Y0153867D01*
X0066060Y0153502D01*
X0065385Y0152827D01*
X0065020Y0151945D01*
X0065020Y0150990D01*
X0065385Y0150108D01*
X0066060Y0149433D01*
X0066943Y0149067D01*
X0066992Y0149067D01*
X0072900Y0143159D01*
X0072900Y0073330D01*
X0072735Y0073164D01*
X0072445Y0073455D01*
X0068829Y0073455D01*
X0068829Y0084382D01*
X0067658Y0085554D01*
X0063164Y0090047D01*
X0064445Y0089517D01*
X0066458Y0089517D01*
X0068318Y0090287D01*
X0069742Y0091711D01*
X0070512Y0093571D01*
X0070512Y0095584D01*
X0069742Y0097444D01*
X0068318Y0098868D01*
X0066458Y0099638D01*
X0064445Y0099638D01*
X0062585Y0098868D01*
X0061161Y0097444D01*
X0061152Y0097422D01*
X0061152Y0136466D01*
X0067455Y0142768D01*
X0067504Y0142768D01*
X0068386Y0143133D01*
X0069061Y0143809D01*
X0069426Y0144691D01*
X0069426Y0145645D01*
X0069061Y0146528D01*
X0068386Y0147203D01*
X0067504Y0147568D01*
X0066549Y0147568D01*
X0065667Y0147203D01*
X0064992Y0146528D01*
X0064626Y0145645D01*
X0064626Y0145597D01*
X0058324Y0139294D01*
X0057152Y0138123D01*
X0057152Y0090403D01*
X0064829Y0082726D01*
X0064829Y0060678D01*
X0066001Y0059507D01*
X0068570Y0056938D01*
X0068570Y0038434D01*
X0072900Y0034103D01*
X0074072Y0032932D01*
X0163638Y0032932D01*
X0163665Y0032865D01*
X0164323Y0032207D01*
X0094011Y0032207D01*
X0093976Y0032242D01*
X0093094Y0032607D01*
X0092139Y0032607D01*
X0091257Y0032242D01*
X0090582Y0031567D01*
X0090217Y0030685D01*
X0090217Y0029730D01*
X0090582Y0028848D01*
X0091257Y0028173D01*
X0092139Y0027807D01*
X0093094Y0027807D01*
X0093976Y0028173D01*
X0094011Y0028207D01*
X0163638Y0028207D01*
X0162665Y0027235D01*
X0162589Y0027050D01*
X0092475Y0027050D01*
X0092441Y0027085D01*
X0091559Y0027450D01*
X0090604Y0027450D01*
X0089722Y0027085D01*
X0089047Y0026409D01*
X0088681Y0025527D01*
X0088681Y0024573D01*
X0089047Y0023691D01*
X0089722Y0023015D01*
X0090604Y0022650D01*
X0091559Y0022650D01*
X0092441Y0023015D01*
X0092475Y0023050D01*
X0162589Y0023050D01*
X0162665Y0022865D01*
X0163751Y0021780D01*
X0165168Y0021193D01*
X0166703Y0021193D01*
X0168121Y0021780D01*
X0169206Y0022865D01*
X0169793Y0024283D01*
X0169793Y0025817D01*
X0169206Y0027235D01*
X0168233Y0028207D01*
X0170950Y0028207D01*
X0173155Y0026002D01*
X0173078Y0025817D01*
X0173078Y0024283D01*
X0173665Y0022865D01*
X0174751Y0021780D01*
X0176168Y0021193D01*
X0176436Y0021193D01*
X0176436Y0018907D01*
X0175168Y0018907D01*
X0173751Y0018320D01*
X0172665Y0017235D01*
X0172078Y0015817D01*
X0172078Y0014283D01*
X0172665Y0012865D01*
X0173751Y0011780D01*
X0175168Y0011193D01*
X0176436Y0011193D01*
X0176436Y0009281D01*
X0175939Y0009203D01*
X0175301Y0008996D01*
X0174704Y0008691D01*
X0174162Y0008297D01*
X0173688Y0007824D01*
X0173294Y0007281D01*
X0172990Y0006684D01*
X0172783Y0006047D01*
X0172678Y0005385D01*
X0172678Y0005336D01*
X0176436Y0005336D01*
X0176436Y0005050D01*
X0166222Y0005050D01*
X0166222Y0005336D01*
X0170193Y0005336D01*
X0170193Y0005385D01*
X0170088Y0006047D01*
X0169881Y0006684D01*
X0169577Y0007281D01*
X0169183Y0007824D01*
X0168709Y0008297D01*
X0168167Y0008691D01*
X0167570Y0008996D01*
X0166933Y0009203D01*
X0166271Y0009307D01*
X0166222Y0009307D01*
X0166222Y0005336D01*
X0165650Y0005336D01*
X0165650Y0009307D01*
X0165601Y0009307D01*
X0164939Y0009203D01*
X0164301Y0008996D01*
X0163704Y0008691D01*
X0163162Y0008297D01*
X0162688Y0007824D01*
X0162294Y0007281D01*
X0161990Y0006684D01*
X0161783Y0006047D01*
X0161678Y0005385D01*
X0161678Y0005336D01*
X0165650Y0005336D01*
X0165650Y0005050D01*
X0039793Y0005050D01*
X0039793Y0005817D01*
X0039206Y0007235D01*
X0038121Y0008320D01*
X0036703Y0008907D01*
X0035168Y0008907D01*
X0033751Y0008320D01*
X0032665Y0007235D01*
X0032078Y0005817D01*
X0032078Y0005050D01*
X0027222Y0005050D01*
X0027222Y0005336D01*
X0031193Y0005336D01*
X0031193Y0005385D01*
X0031088Y0006047D01*
X0030881Y0006684D01*
X0030577Y0007281D01*
X0030183Y0007824D01*
X0029709Y0008297D01*
X0029167Y0008691D01*
X0028570Y0008996D01*
X0027933Y0009203D01*
X0027271Y0009307D01*
X0027222Y0009307D01*
X0027222Y0005336D01*
X0026650Y0005336D01*
X0026650Y0009307D01*
X0026601Y0009307D01*
X0026436Y0009281D01*
X0026436Y0011193D01*
X0026703Y0011193D01*
X0028121Y0011780D01*
X0029206Y0012865D01*
X0029793Y0014283D01*
X0029793Y0015817D01*
X0029206Y0017235D01*
X0028121Y0018320D01*
X0026703Y0018907D01*
X0026436Y0018907D01*
X0026436Y0021193D01*
X0027703Y0021193D01*
X0029121Y0021780D01*
X0030206Y0022865D01*
X0030793Y0024283D01*
X0030793Y0025817D01*
X0030206Y0027235D01*
X0029121Y0028320D01*
X0027703Y0028907D01*
X0026436Y0028907D01*
X0026436Y0031193D01*
X0026703Y0031193D01*
X0028121Y0031780D01*
X0029206Y0032865D01*
X0029793Y0034283D01*
X0029793Y0035817D01*
X0029206Y0037235D01*
X0028121Y0038320D01*
X0026703Y0038907D01*
X0026436Y0038907D01*
X0026436Y0041193D01*
X0027703Y0041193D01*
X0029121Y0041780D01*
X0030206Y0042865D01*
X0030793Y0044283D01*
X0030793Y0045817D01*
X0030206Y0047235D01*
X0029121Y0048320D01*
X0027703Y0048907D01*
X0026436Y0048907D01*
X0026436Y0051193D01*
X0026703Y0051193D01*
X0028121Y0051780D01*
X0029206Y0052865D01*
X0029793Y0054283D01*
X0029793Y0055817D01*
X0029206Y0057235D01*
X0028121Y0058320D01*
X0026703Y0058907D01*
X0026436Y0058907D01*
X0026436Y0061193D01*
X0027703Y0061193D01*
X0029121Y0061780D01*
X0030206Y0062865D01*
X0030793Y0064283D01*
X0030793Y0065817D01*
X0030206Y0067235D01*
X0029121Y0068320D01*
X0027703Y0068907D01*
X0026436Y0068907D01*
X0026436Y0071193D01*
X0026703Y0071193D01*
X0028121Y0071780D01*
X0029206Y0072865D01*
X0029793Y0074283D01*
X0033078Y0074283D01*
X0033665Y0072865D01*
X0034751Y0071780D01*
X0036168Y0071193D01*
X0037703Y0071193D01*
X0039121Y0071780D01*
X0040206Y0072865D01*
X0040617Y0073857D01*
X0040617Y0056243D01*
X0040206Y0057235D01*
X0039121Y0058320D01*
X0037703Y0058907D01*
X0036168Y0058907D01*
X0034751Y0058320D01*
X0033665Y0057235D01*
X0033078Y0055817D01*
X0033078Y0054283D01*
X0033665Y0052865D01*
X0034751Y0051780D01*
X0036168Y0051193D01*
X0037703Y0051193D01*
X0039121Y0051780D01*
X0040206Y0052865D01*
X0040617Y0053857D01*
X0040617Y0045796D01*
X0041851Y0044562D01*
X0041174Y0043886D01*
X0040535Y0042342D01*
X0040535Y0040671D01*
X0041174Y0039128D01*
X0042356Y0037946D01*
X0043899Y0037307D01*
X0051570Y0037307D01*
X0053114Y0037946D01*
X0054295Y0039128D01*
X0054935Y0040671D01*
X0054935Y0042342D01*
X0054295Y0043886D01*
X0053114Y0045067D01*
X0051570Y0045707D01*
X0046363Y0045707D01*
X0044617Y0047453D01*
X0044617Y0105371D01*
X0044755Y0105291D01*
X0045162Y0105182D01*
X0047529Y0105182D01*
X0047529Y0110119D01*
X0048729Y0110119D01*
X0048729Y0105182D01*
X0051095Y0105182D01*
X0051502Y0105291D01*
X0051867Y0105502D01*
X0052034Y0105669D01*
X0052034Y0087253D01*
X0059514Y0079773D01*
X0059514Y0025524D01*
X0056237Y0022247D01*
X0054453Y0022247D01*
X0054295Y0022626D01*
X0053114Y0023807D01*
X0051570Y0024447D01*
X0043899Y0024447D01*
X0042356Y0023807D01*
X0041174Y0022626D01*
X0040535Y0021082D01*
X0040535Y0019411D01*
X0041174Y0017868D01*
X0042356Y0016686D01*
X0043899Y0016047D01*
X0051570Y0016047D01*
X0053114Y0016686D01*
X0054295Y0017868D01*
X0054453Y0018247D01*
X0057894Y0018247D01*
X0059066Y0019418D01*
X0063514Y0023867D01*
X0063514Y0081430D01*
X0062343Y0082601D01*
X0056034Y0088910D01*
X0056034Y0117650D01*
X0054863Y0118822D01*
X0048947Y0124737D01*
X0048947Y0154867D01*
X0039716Y0164098D01*
X0039793Y0164283D01*
X0039793Y0165817D01*
X0039206Y0167235D01*
X0038121Y0168320D01*
X0036703Y0168907D01*
X0035168Y0168907D01*
X0033751Y0168320D01*
X0032665Y0167235D01*
X0032078Y0165817D01*
X0032078Y0164283D01*
X0032665Y0162865D01*
X0033751Y0161780D01*
X0035168Y0161193D01*
X0036703Y0161193D01*
X0036888Y0161269D01*
X0044948Y0153210D01*
X0044948Y0123080D01*
X0052034Y0115993D01*
X0052034Y0115769D01*
X0051867Y0115937D01*
X0051502Y0116147D01*
X0051095Y0116256D01*
X0048729Y0116256D01*
X0048729Y0111319D01*
X0047529Y0111319D01*
X0047529Y0116256D01*
X0045162Y0116256D01*
X0044755Y0116147D01*
X0044617Y0116067D01*
X0044617Y0150197D01*
X0040716Y0154098D01*
X0040793Y0154283D01*
X0040793Y0155817D01*
X0040206Y0157235D01*
X0039121Y0158320D01*
X0037703Y0158907D01*
X0036168Y0158907D01*
X0034751Y0158320D01*
X0033665Y0157235D01*
X0033078Y0155817D01*
X0033078Y0154283D01*
X0033665Y0152865D01*
X0034751Y0151780D01*
X0036168Y0151193D01*
X0037703Y0151193D01*
X0037888Y0151269D01*
X0040617Y0148540D01*
X0040617Y0136243D01*
X0040206Y0137235D01*
X0039121Y0138320D01*
X0037703Y0138907D01*
X0036168Y0138907D01*
X0034751Y0138320D01*
X0033665Y0137235D01*
X0033078Y0135817D01*
X0033078Y0134283D01*
X0033665Y0132865D01*
X0034751Y0131780D01*
X0036168Y0131193D01*
X0037703Y0131193D01*
X0039121Y0131780D01*
X0040206Y0132865D01*
X0040617Y0133857D01*
X0040617Y0116243D01*
X0040206Y0117235D01*
X0039121Y0118320D01*
X0037703Y0118907D01*
X0036168Y0118907D01*
X0034751Y0118320D01*
X0033665Y0117235D01*
X0033078Y0115817D01*
X0033078Y0114283D01*
X0033665Y0112865D01*
X0034751Y0111780D01*
X0036168Y0111193D01*
X0037703Y0111193D01*
X0039121Y0111780D01*
X0040206Y0112865D01*
X0040617Y0113857D01*
X0040617Y0096243D01*
X0040206Y0097235D01*
X0039121Y0098320D01*
X0037703Y0098907D01*
X0036168Y0098907D01*
X0034751Y0098320D01*
X0033665Y0097235D01*
X0033078Y0095817D01*
X0033078Y0094283D01*
X0033665Y0092865D01*
X0034751Y0091780D01*
X0036168Y0091193D01*
X0037703Y0091193D01*
X0039121Y0091780D01*
X0040206Y0092865D01*
X0040617Y0093857D01*
X0040617Y0076243D01*
X0040206Y0077235D01*
X0039121Y0078320D01*
X0037703Y0078907D01*
X0036168Y0078907D01*
X0034751Y0078320D01*
X0033665Y0077235D01*
X0033078Y0075817D01*
X0033078Y0074283D01*
X0033078Y0075482D02*
X0029793Y0075482D01*
X0029793Y0075817D02*
X0029206Y0077235D01*
X0028121Y0078320D01*
X0026703Y0078907D01*
X0026436Y0078907D01*
X0026436Y0081193D01*
X0027703Y0081193D01*
X0029121Y0081780D01*
X0030206Y0082865D01*
X0030793Y0084283D01*
X0030793Y0085817D01*
X0030206Y0087235D01*
X0029121Y0088320D01*
X0027703Y0088907D01*
X0026436Y0088907D01*
X0026436Y0091193D01*
X0026703Y0091193D01*
X0028121Y0091780D01*
X0029206Y0092865D01*
X0029793Y0094283D01*
X0029793Y0095817D01*
X0029206Y0097235D01*
X0028121Y0098320D01*
X0026703Y0098907D01*
X0026436Y0098907D01*
X0026436Y0101193D01*
X0027703Y0101193D01*
X0029121Y0101780D01*
X0030206Y0102865D01*
X0030793Y0104283D01*
X0030793Y0105817D01*
X0030206Y0107235D01*
X0029121Y0108320D01*
X0027703Y0108907D01*
X0026436Y0108907D01*
X0026436Y0111193D01*
X0026703Y0111193D01*
X0028121Y0111780D01*
X0029206Y0112865D01*
X0029793Y0114283D01*
X0029793Y0115817D01*
X0029206Y0117235D01*
X0028121Y0118320D01*
X0026703Y0118907D01*
X0026436Y0118907D01*
X0026436Y0121193D01*
X0027703Y0121193D01*
X0029121Y0121780D01*
X0030206Y0122865D01*
X0030793Y0124283D01*
X0030793Y0125817D01*
X0030206Y0127235D01*
X0029121Y0128320D01*
X0027703Y0128907D01*
X0026436Y0128907D01*
X0026436Y0131193D01*
X0026703Y0131193D01*
X0028121Y0131780D01*
X0029206Y0132865D01*
X0029793Y0134283D01*
X0029793Y0135817D01*
X0029206Y0137235D01*
X0028121Y0138320D01*
X0026703Y0138907D01*
X0026436Y0138907D01*
X0026436Y0141193D01*
X0027703Y0141193D01*
X0029121Y0141780D01*
X0030206Y0142865D01*
X0030793Y0144283D01*
X0030793Y0145817D01*
X0030206Y0147235D01*
X0029121Y0148320D01*
X0027703Y0148907D01*
X0026436Y0148907D01*
X0026436Y0151193D01*
X0026703Y0151193D01*
X0028121Y0151780D01*
X0029206Y0152865D01*
X0029793Y0154283D01*
X0029793Y0155817D01*
X0029206Y0157235D01*
X0028121Y0158320D01*
X0026703Y0158907D01*
X0026436Y0158907D01*
X0026436Y0161193D01*
X0027703Y0161193D01*
X0029121Y0161780D01*
X0030206Y0162865D01*
X0030793Y0164283D01*
X0030793Y0165817D01*
X0030206Y0167235D01*
X0029121Y0168320D01*
X0027703Y0168907D01*
X0026436Y0168907D01*
X0026436Y0171193D01*
X0026703Y0171193D01*
X0028121Y0171780D01*
X0029206Y0172865D01*
X0029793Y0174283D01*
X0029793Y0175817D01*
X0029206Y0177235D01*
X0028121Y0178320D01*
X0026703Y0178907D01*
X0026436Y0178907D01*
X0026436Y0181193D01*
X0027703Y0181193D01*
X0029121Y0181780D01*
X0030206Y0182865D01*
X0030793Y0184283D01*
X0030793Y0185817D01*
X0030206Y0187235D01*
X0029121Y0188320D01*
X0027703Y0188907D01*
X0026436Y0188907D01*
X0026436Y0190793D01*
X0028804Y0190793D01*
X0029211Y0190902D01*
X0029576Y0191112D01*
X0029873Y0191410D01*
X0030084Y0191775D01*
X0030193Y0192182D01*
X0030193Y0194764D01*
X0026436Y0194764D01*
X0026436Y0195050D01*
X0030193Y0194134D02*
X0033140Y0194134D01*
X0033636Y0192936D02*
X0030193Y0192936D01*
X0030062Y0191737D02*
X0034853Y0191737D01*
X0034939Y0189203D02*
X0035601Y0189307D01*
X0035650Y0189307D01*
X0035650Y0185336D01*
X0036222Y0185336D01*
X0040193Y0185336D01*
X0040193Y0185385D01*
X0040088Y0186047D01*
X0039881Y0186684D01*
X0039577Y0187281D01*
X0039183Y0187824D01*
X0038709Y0188297D01*
X0038167Y0188691D01*
X0037570Y0188996D01*
X0036933Y0189203D01*
X0036271Y0189307D01*
X0036222Y0189307D01*
X0036222Y0185336D01*
X0036222Y0184764D01*
X0040193Y0184764D01*
X0040193Y0184715D01*
X0040088Y0184053D01*
X0039881Y0183416D01*
X0039577Y0182819D01*
X0039183Y0182276D01*
X0038709Y0181803D01*
X0038167Y0181409D01*
X0037570Y0181104D01*
X0036933Y0180897D01*
X0036271Y0180793D01*
X0036222Y0180793D01*
X0036222Y0184764D01*
X0035650Y0184764D01*
X0035650Y0180793D01*
X0035601Y0180793D01*
X0034939Y0180897D01*
X0034301Y0181104D01*
X0033704Y0181409D01*
X0033162Y0181803D01*
X0032688Y0182276D01*
X0032294Y0182819D01*
X0031990Y0183416D01*
X0031783Y0184053D01*
X0031678Y0184715D01*
X0031678Y0184764D01*
X0035650Y0184764D01*
X0035650Y0185336D01*
X0031678Y0185336D01*
X0031678Y0185385D01*
X0031783Y0186047D01*
X0031990Y0186684D01*
X0032294Y0187281D01*
X0032688Y0187824D01*
X0033162Y0188297D01*
X0033704Y0188691D01*
X0034301Y0188996D01*
X0034939Y0189203D01*
X0035650Y0188142D02*
X0036222Y0188142D01*
X0036222Y0186943D02*
X0035650Y0186943D01*
X0035650Y0185745D02*
X0036222Y0185745D01*
X0036222Y0184546D02*
X0035650Y0184546D01*
X0035650Y0183348D02*
X0036222Y0183348D01*
X0036222Y0182149D02*
X0035650Y0182149D01*
X0035650Y0180951D02*
X0036222Y0180951D01*
X0037097Y0180951D02*
X0052825Y0180951D01*
X0054023Y0179752D02*
X0026436Y0179752D01*
X0026436Y0180951D02*
X0034774Y0180951D01*
X0032815Y0182149D02*
X0029490Y0182149D01*
X0030406Y0183348D02*
X0032025Y0183348D01*
X0031705Y0184546D02*
X0030793Y0184546D01*
X0030793Y0185745D02*
X0031735Y0185745D01*
X0032122Y0186943D02*
X0030327Y0186943D01*
X0029299Y0188142D02*
X0033007Y0188142D01*
X0026436Y0189340D02*
X0044435Y0189340D01*
X0045634Y0188142D02*
X0038865Y0188142D01*
X0039749Y0186943D02*
X0046832Y0186943D01*
X0048031Y0185745D02*
X0040136Y0185745D01*
X0040166Y0184546D02*
X0049229Y0184546D01*
X0050428Y0183348D02*
X0039847Y0183348D01*
X0039056Y0182149D02*
X0051626Y0182149D01*
X0054886Y0184546D02*
X0119104Y0184546D01*
X0119196Y0184770D02*
X0118631Y0183406D01*
X0118631Y0181930D01*
X0119196Y0180567D01*
X0120240Y0179523D01*
X0121603Y0178958D01*
X0123079Y0178958D01*
X0124443Y0179523D01*
X0124678Y0179759D01*
X0124678Y0179603D01*
X0124787Y0179196D01*
X0124998Y0178831D01*
X0125296Y0178533D01*
X0125661Y0178323D01*
X0126068Y0178214D01*
X0127066Y0178214D01*
X0127066Y0182471D01*
X0127066Y0182471D01*
X0127066Y0182471D01*
X0127066Y0186729D01*
X0126068Y0186729D01*
X0125661Y0186620D01*
X0125296Y0186409D01*
X0124998Y0186111D01*
X0124787Y0185746D01*
X0124729Y0185527D01*
X0124443Y0185813D01*
X0123079Y0186378D01*
X0121603Y0186378D01*
X0120240Y0185813D01*
X0119196Y0184770D01*
X0120171Y0185745D02*
X0053687Y0185745D01*
X0052489Y0186943D02*
X0162545Y0186943D01*
X0162665Y0187235D02*
X0162078Y0185817D01*
X0162078Y0184283D01*
X0162665Y0182865D01*
X0163751Y0181780D01*
X0165168Y0181193D01*
X0166703Y0181193D01*
X0168121Y0181780D01*
X0169206Y0182865D01*
X0169793Y0184283D01*
X0169793Y0185817D01*
X0169206Y0187235D01*
X0168121Y0188320D01*
X0166703Y0188907D01*
X0165168Y0188907D01*
X0163751Y0188320D01*
X0162665Y0187235D01*
X0163572Y0188142D02*
X0147169Y0188142D01*
X0147133Y0188130D02*
X0147881Y0188373D01*
X0148582Y0188730D01*
X0149218Y0189192D01*
X0149774Y0189748D01*
X0150236Y0190384D01*
X0150593Y0191085D01*
X0150836Y0191833D01*
X0150937Y0192471D01*
X0146495Y0192471D01*
X0146495Y0188029D01*
X0147133Y0188130D01*
X0146495Y0188142D02*
X0145431Y0188142D01*
X0144757Y0188142D02*
X0139650Y0188142D01*
X0140273Y0189340D02*
X0142561Y0189340D01*
X0141612Y0190539D02*
X0140273Y0190539D01*
X0140273Y0191737D02*
X0141122Y0191737D01*
X0140273Y0192936D02*
X0145431Y0192936D01*
X0146495Y0192936D02*
X0162678Y0192936D01*
X0162678Y0192182D02*
X0162787Y0191775D01*
X0162998Y0191410D01*
X0163296Y0191112D01*
X0163661Y0190902D01*
X0164068Y0190793D01*
X0166650Y0190793D01*
X0166650Y0194764D01*
X0162678Y0194764D01*
X0162678Y0192182D01*
X0162809Y0191737D02*
X0150805Y0191737D01*
X0150315Y0190539D02*
X0176436Y0190539D01*
X0176436Y0189340D02*
X0149366Y0189340D01*
X0146495Y0189340D02*
X0145431Y0189340D01*
X0145431Y0190539D02*
X0146495Y0190539D01*
X0146495Y0191737D02*
X0145431Y0191737D01*
X0141085Y0194134D02*
X0140273Y0194134D01*
X0139856Y0185745D02*
X0139170Y0185745D01*
X0144196Y0185745D02*
X0162078Y0185745D01*
X0162078Y0184546D02*
X0145264Y0184546D01*
X0145736Y0183348D02*
X0162465Y0183348D01*
X0163381Y0182149D02*
X0145736Y0182149D01*
X0145330Y0180951D02*
X0176436Y0180951D01*
X0176436Y0179752D02*
X0144357Y0179752D01*
X0139696Y0179752D02*
X0139302Y0179752D01*
X0139302Y0178554D02*
X0165314Y0178554D01*
X0163786Y0177355D02*
X0139050Y0177355D01*
X0137851Y0176157D02*
X0163219Y0176157D01*
X0163078Y0174958D02*
X0136653Y0174958D01*
X0135454Y0173760D02*
X0163295Y0173760D01*
X0163969Y0172561D02*
X0134256Y0172561D01*
X0135168Y0173474D02*
X0135168Y0173474D01*
X0135274Y0171363D02*
X0038114Y0171363D01*
X0037703Y0171193D02*
X0039121Y0171780D01*
X0040206Y0172865D01*
X0040793Y0174283D01*
X0040793Y0175817D01*
X0040206Y0177235D01*
X0039121Y0178320D01*
X0037703Y0178907D01*
X0036168Y0178907D01*
X0034751Y0178320D01*
X0033665Y0177235D01*
X0033078Y0175817D01*
X0033078Y0174283D01*
X0033665Y0172865D01*
X0034751Y0171780D01*
X0036168Y0171193D01*
X0037703Y0171193D01*
X0035758Y0171363D02*
X0027114Y0171363D01*
X0026436Y0170164D02*
X0133689Y0170164D01*
X0132544Y0168966D02*
X0026436Y0168966D01*
X0028902Y0172561D02*
X0033969Y0172561D01*
X0033295Y0173760D02*
X0029577Y0173760D01*
X0029793Y0174958D02*
X0033078Y0174958D01*
X0033219Y0176157D02*
X0029653Y0176157D01*
X0029086Y0177355D02*
X0033786Y0177355D01*
X0035314Y0178554D02*
X0027557Y0178554D01*
X0029674Y0167767D02*
X0033198Y0167767D01*
X0032389Y0166569D02*
X0030482Y0166569D01*
X0030793Y0165370D02*
X0032078Y0165370D01*
X0032124Y0164172D02*
X0030747Y0164172D01*
X0030251Y0162973D02*
X0032621Y0162973D01*
X0033763Y0161775D02*
X0029108Y0161775D01*
X0026436Y0160576D02*
X0037581Y0160576D01*
X0038780Y0159378D02*
X0026436Y0159378D01*
X0028262Y0158179D02*
X0034609Y0158179D01*
X0033560Y0156981D02*
X0029311Y0156981D01*
X0029793Y0155782D02*
X0033078Y0155782D01*
X0033078Y0154584D02*
X0029793Y0154584D01*
X0029421Y0153385D02*
X0033450Y0153385D01*
X0034344Y0152187D02*
X0028527Y0152187D01*
X0026436Y0150988D02*
X0038169Y0150988D01*
X0039368Y0149789D02*
X0026436Y0149789D01*
X0028467Y0148591D02*
X0033566Y0148591D01*
X0033704Y0148691D02*
X0033162Y0148297D01*
X0032688Y0147824D01*
X0032294Y0147281D01*
X0031990Y0146684D01*
X0031783Y0146047D01*
X0031678Y0145385D01*
X0031678Y0145336D01*
X0035650Y0145336D01*
X0035650Y0149307D01*
X0035601Y0149307D01*
X0034939Y0149203D01*
X0034301Y0148996D01*
X0033704Y0148691D01*
X0032375Y0147392D02*
X0030049Y0147392D01*
X0030637Y0146194D02*
X0031831Y0146194D01*
X0031678Y0144764D02*
X0031678Y0144715D01*
X0031783Y0144053D01*
X0031990Y0143416D01*
X0032294Y0142819D01*
X0032688Y0142276D01*
X0033162Y0141803D01*
X0033704Y0141409D01*
X0034301Y0141104D01*
X0034939Y0140897D01*
X0035601Y0140793D01*
X0035650Y0140793D01*
X0035650Y0144764D01*
X0036222Y0144764D01*
X0036222Y0145336D01*
X0040193Y0145336D01*
X0040193Y0145385D01*
X0040088Y0146047D01*
X0039881Y0146684D01*
X0039577Y0147281D01*
X0039183Y0147824D01*
X0038709Y0148297D01*
X0038167Y0148691D01*
X0037570Y0148996D01*
X0036933Y0149203D01*
X0036271Y0149307D01*
X0036222Y0149307D01*
X0036222Y0145336D01*
X0035650Y0145336D01*
X0035650Y0144764D01*
X0031678Y0144764D01*
X0030793Y0144995D02*
X0035650Y0144995D01*
X0036222Y0144995D02*
X0040617Y0144995D01*
X0040193Y0144764D02*
X0036222Y0144764D01*
X0036222Y0140793D01*
X0036271Y0140793D01*
X0036933Y0140897D01*
X0037570Y0141104D01*
X0038167Y0141409D01*
X0038709Y0141803D01*
X0039183Y0142276D01*
X0039577Y0142819D01*
X0039881Y0143416D01*
X0040088Y0144053D01*
X0040193Y0144715D01*
X0040193Y0144764D01*
X0040005Y0143797D02*
X0040617Y0143797D01*
X0040617Y0142598D02*
X0039417Y0142598D01*
X0040617Y0141400D02*
X0038150Y0141400D01*
X0036222Y0141400D02*
X0035650Y0141400D01*
X0035650Y0142598D02*
X0036222Y0142598D01*
X0036222Y0143797D02*
X0035650Y0143797D01*
X0033721Y0141400D02*
X0028204Y0141400D01*
X0029939Y0142598D02*
X0032454Y0142598D01*
X0031866Y0143797D02*
X0030592Y0143797D01*
X0026436Y0140201D02*
X0040617Y0140201D01*
X0040617Y0139003D02*
X0026436Y0139003D01*
X0028637Y0137804D02*
X0034235Y0137804D01*
X0033405Y0136606D02*
X0029467Y0136606D01*
X0029793Y0135407D02*
X0033078Y0135407D01*
X0033109Y0134209D02*
X0029763Y0134209D01*
X0029266Y0133010D02*
X0033605Y0133010D01*
X0034719Y0131812D02*
X0028153Y0131812D01*
X0026436Y0130613D02*
X0040617Y0130613D01*
X0040617Y0129415D02*
X0026436Y0129415D01*
X0029225Y0128216D02*
X0033647Y0128216D01*
X0033751Y0128320D02*
X0032665Y0127235D01*
X0032078Y0125817D01*
X0032078Y0124283D01*
X0032665Y0122865D01*
X0033751Y0121780D01*
X0035168Y0121193D01*
X0036703Y0121193D01*
X0038121Y0121780D01*
X0039206Y0122865D01*
X0039793Y0124283D01*
X0039793Y0125817D01*
X0039206Y0127235D01*
X0038121Y0128320D01*
X0036703Y0128907D01*
X0035168Y0128907D01*
X0033751Y0128320D01*
X0032575Y0127018D02*
X0030296Y0127018D01*
X0030792Y0125819D02*
X0032079Y0125819D01*
X0032078Y0124621D02*
X0030793Y0124621D01*
X0030437Y0123422D02*
X0032435Y0123422D01*
X0033307Y0122224D02*
X0029565Y0122224D01*
X0026436Y0121025D02*
X0040617Y0121025D01*
X0040617Y0119827D02*
X0026436Y0119827D01*
X0027377Y0118628D02*
X0035494Y0118628D01*
X0033860Y0117430D02*
X0029011Y0117430D01*
X0029622Y0116231D02*
X0033250Y0116231D01*
X0033078Y0115033D02*
X0029793Y0115033D01*
X0029607Y0113834D02*
X0033264Y0113834D01*
X0033895Y0112636D02*
X0028977Y0112636D01*
X0027293Y0111437D02*
X0035578Y0111437D01*
X0038293Y0111437D02*
X0040617Y0111437D01*
X0040617Y0110239D02*
X0026436Y0110239D01*
X0026436Y0109040D02*
X0040617Y0109040D01*
X0040617Y0107842D02*
X0038599Y0107842D01*
X0038121Y0108320D02*
X0039206Y0107235D01*
X0039793Y0105817D01*
X0039793Y0104283D01*
X0039206Y0102865D01*
X0038121Y0101780D01*
X0036703Y0101193D01*
X0035168Y0101193D01*
X0033751Y0101780D01*
X0032665Y0102865D01*
X0032078Y0104283D01*
X0032078Y0105817D01*
X0032665Y0107235D01*
X0033751Y0108320D01*
X0035168Y0108907D01*
X0036703Y0108907D01*
X0038121Y0108320D01*
X0039451Y0106643D02*
X0040617Y0106643D01*
X0040617Y0105445D02*
X0039793Y0105445D01*
X0039778Y0104246D02*
X0040617Y0104246D01*
X0040617Y0103048D02*
X0039282Y0103048D01*
X0038190Y0101849D02*
X0040617Y0101849D01*
X0040617Y0100651D02*
X0026436Y0100651D01*
X0026436Y0099452D02*
X0040617Y0099452D01*
X0040617Y0098253D02*
X0039187Y0098253D01*
X0040280Y0097055D02*
X0040617Y0097055D01*
X0040617Y0093459D02*
X0040452Y0093459D01*
X0040617Y0092261D02*
X0039602Y0092261D01*
X0040617Y0091062D02*
X0026436Y0091062D01*
X0026436Y0089864D02*
X0040617Y0089864D01*
X0040617Y0088665D02*
X0037287Y0088665D01*
X0036703Y0088907D02*
X0035168Y0088907D01*
X0033751Y0088320D01*
X0032665Y0087235D01*
X0032078Y0085817D01*
X0032078Y0084283D01*
X0032665Y0082865D01*
X0033751Y0081780D01*
X0035168Y0081193D01*
X0036703Y0081193D01*
X0038121Y0081780D01*
X0039206Y0082865D01*
X0039793Y0084283D01*
X0039793Y0085817D01*
X0039206Y0087235D01*
X0038121Y0088320D01*
X0036703Y0088907D01*
X0038974Y0087467D02*
X0040617Y0087467D01*
X0040617Y0086268D02*
X0039606Y0086268D01*
X0039793Y0085070D02*
X0040617Y0085070D01*
X0040617Y0083871D02*
X0039623Y0083871D01*
X0039014Y0082673D02*
X0040617Y0082673D01*
X0040617Y0081474D02*
X0037383Y0081474D01*
X0034488Y0081474D02*
X0028383Y0081474D01*
X0030014Y0082673D02*
X0032858Y0082673D01*
X0032249Y0083871D02*
X0030623Y0083871D01*
X0030793Y0085070D02*
X0032078Y0085070D01*
X0032265Y0086268D02*
X0030606Y0086268D01*
X0029974Y0087467D02*
X0032897Y0087467D01*
X0034584Y0088665D02*
X0028287Y0088665D01*
X0028602Y0092261D02*
X0034269Y0092261D01*
X0033419Y0093459D02*
X0029452Y0093459D01*
X0029793Y0094658D02*
X0033078Y0094658D01*
X0033094Y0095856D02*
X0029777Y0095856D01*
X0029280Y0097055D02*
X0033591Y0097055D01*
X0034684Y0098253D02*
X0028187Y0098253D01*
X0029190Y0101849D02*
X0033681Y0101849D01*
X0032590Y0103048D02*
X0030282Y0103048D01*
X0030778Y0104246D02*
X0032093Y0104246D01*
X0032078Y0105445D02*
X0030793Y0105445D01*
X0030451Y0106643D02*
X0032420Y0106643D01*
X0033272Y0107842D02*
X0029599Y0107842D01*
X0039977Y0112636D02*
X0040617Y0112636D01*
X0040607Y0113834D02*
X0040617Y0113834D01*
X0040617Y0117430D02*
X0040011Y0117430D01*
X0040617Y0118628D02*
X0038377Y0118628D01*
X0038565Y0122224D02*
X0040617Y0122224D01*
X0040617Y0123422D02*
X0039437Y0123422D01*
X0039793Y0124621D02*
X0040617Y0124621D01*
X0040617Y0125819D02*
X0039792Y0125819D01*
X0039296Y0127018D02*
X0040617Y0127018D01*
X0040617Y0128216D02*
X0038225Y0128216D01*
X0039153Y0131812D02*
X0040617Y0131812D01*
X0040617Y0133010D02*
X0040266Y0133010D01*
X0040467Y0136606D02*
X0040617Y0136606D01*
X0040617Y0137804D02*
X0039637Y0137804D01*
X0044617Y0137804D02*
X0044948Y0137804D01*
X0044948Y0136606D02*
X0044617Y0136606D01*
X0044617Y0135407D02*
X0044948Y0135407D01*
X0044948Y0134209D02*
X0044617Y0134209D01*
X0044617Y0133010D02*
X0044948Y0133010D01*
X0044948Y0131812D02*
X0044617Y0131812D01*
X0044617Y0130613D02*
X0044948Y0130613D01*
X0044948Y0129415D02*
X0044617Y0129415D01*
X0044617Y0128216D02*
X0044948Y0128216D01*
X0044948Y0127018D02*
X0044617Y0127018D01*
X0044617Y0125819D02*
X0044948Y0125819D01*
X0044948Y0124621D02*
X0044617Y0124621D01*
X0044617Y0123422D02*
X0044948Y0123422D01*
X0044617Y0122224D02*
X0045804Y0122224D01*
X0044617Y0121025D02*
X0047002Y0121025D01*
X0048201Y0119827D02*
X0044617Y0119827D01*
X0044617Y0118628D02*
X0049399Y0118628D01*
X0050598Y0117430D02*
X0044617Y0117430D01*
X0044617Y0116231D02*
X0045068Y0116231D01*
X0047529Y0116231D02*
X0048729Y0116231D01*
X0048729Y0115033D02*
X0047529Y0115033D01*
X0047529Y0113834D02*
X0048729Y0113834D01*
X0048729Y0112636D02*
X0047529Y0112636D01*
X0047529Y0111437D02*
X0048729Y0111437D01*
X0048729Y0109040D02*
X0047529Y0109040D01*
X0047529Y0107842D02*
X0048729Y0107842D01*
X0048729Y0106643D02*
X0047529Y0106643D01*
X0047529Y0105445D02*
X0048729Y0105445D01*
X0051767Y0105445D02*
X0052034Y0105445D01*
X0052034Y0104246D02*
X0044617Y0104246D01*
X0044617Y0103048D02*
X0052034Y0103048D01*
X0052034Y0101849D02*
X0044617Y0101849D01*
X0044617Y0100651D02*
X0052034Y0100651D01*
X0052034Y0099452D02*
X0044617Y0099452D01*
X0044617Y0098253D02*
X0052034Y0098253D01*
X0052034Y0097055D02*
X0044617Y0097055D01*
X0044617Y0095856D02*
X0052034Y0095856D01*
X0052034Y0094658D02*
X0044617Y0094658D01*
X0044617Y0093459D02*
X0052034Y0093459D01*
X0052034Y0092261D02*
X0044617Y0092261D01*
X0044617Y0091062D02*
X0052034Y0091062D01*
X0052034Y0089864D02*
X0044617Y0089864D01*
X0044617Y0088665D02*
X0052034Y0088665D01*
X0052034Y0087467D02*
X0044617Y0087467D01*
X0044617Y0086268D02*
X0053019Y0086268D01*
X0054217Y0085070D02*
X0044617Y0085070D01*
X0044617Y0083871D02*
X0055416Y0083871D01*
X0056614Y0082673D02*
X0044617Y0082673D01*
X0044617Y0081474D02*
X0057813Y0081474D01*
X0059011Y0080276D02*
X0044617Y0080276D01*
X0044617Y0079077D02*
X0059514Y0079077D01*
X0059514Y0077879D02*
X0044617Y0077879D01*
X0044617Y0076680D02*
X0046473Y0076680D01*
X0046455Y0076662D02*
X0046244Y0076297D01*
X0046135Y0075891D01*
X0046135Y0073524D01*
X0050973Y0073524D01*
X0050973Y0072324D01*
X0046135Y0072324D01*
X0046135Y0069957D01*
X0046244Y0069551D01*
X0046455Y0069186D01*
X0046752Y0068888D01*
X0047117Y0068677D01*
X0047524Y0068568D01*
X0050973Y0068568D01*
X0050973Y0072324D01*
X0052173Y0072324D01*
X0052173Y0068568D01*
X0055623Y0068568D01*
X0056030Y0068677D01*
X0056394Y0068888D01*
X0056692Y0069186D01*
X0056903Y0069551D01*
X0057012Y0069957D01*
X0057012Y0072324D01*
X0052174Y0072324D01*
X0052174Y0073524D01*
X0057012Y0073524D01*
X0057012Y0075891D01*
X0056903Y0076297D01*
X0056692Y0076662D01*
X0056394Y0076960D01*
X0056030Y0077171D01*
X0055623Y0077280D01*
X0052173Y0077280D01*
X0052173Y0073524D01*
X0050973Y0073524D01*
X0050973Y0077280D01*
X0047524Y0077280D01*
X0047117Y0077171D01*
X0046752Y0076960D01*
X0046455Y0076662D01*
X0046135Y0075482D02*
X0044617Y0075482D01*
X0044617Y0074283D02*
X0046135Y0074283D01*
X0044617Y0073085D02*
X0050973Y0073085D01*
X0050973Y0074283D02*
X0052173Y0074283D01*
X0052174Y0073085D02*
X0059514Y0073085D01*
X0059514Y0074283D02*
X0057012Y0074283D01*
X0057012Y0075482D02*
X0059514Y0075482D01*
X0059514Y0076680D02*
X0056674Y0076680D01*
X0052173Y0076680D02*
X0050973Y0076680D01*
X0050973Y0075482D02*
X0052173Y0075482D01*
X0052173Y0071886D02*
X0050973Y0071886D01*
X0050973Y0070688D02*
X0052173Y0070688D01*
X0052173Y0069489D02*
X0050973Y0069489D01*
X0046279Y0069489D02*
X0044617Y0069489D01*
X0044617Y0068291D02*
X0059514Y0068291D01*
X0059514Y0069489D02*
X0056868Y0069489D01*
X0057012Y0070688D02*
X0059514Y0070688D01*
X0059514Y0071886D02*
X0057012Y0071886D01*
X0059514Y0067092D02*
X0044617Y0067092D01*
X0044617Y0065894D02*
X0059514Y0065894D01*
X0059514Y0064695D02*
X0044617Y0064695D01*
X0044617Y0063497D02*
X0059514Y0063497D01*
X0059514Y0062298D02*
X0044617Y0062298D01*
X0044617Y0061100D02*
X0059514Y0061100D01*
X0059514Y0059901D02*
X0044617Y0059901D01*
X0044617Y0058703D02*
X0059514Y0058703D01*
X0059514Y0057504D02*
X0044617Y0057504D01*
X0044617Y0056306D02*
X0059514Y0056306D01*
X0059514Y0055107D02*
X0044617Y0055107D01*
X0044617Y0053909D02*
X0059514Y0053909D01*
X0059514Y0052710D02*
X0044617Y0052710D01*
X0044617Y0051512D02*
X0059514Y0051512D01*
X0059514Y0050313D02*
X0044617Y0050313D01*
X0044617Y0049115D02*
X0059514Y0049115D01*
X0059514Y0047916D02*
X0044617Y0047916D01*
X0045352Y0046718D02*
X0059514Y0046718D01*
X0059514Y0045519D02*
X0052023Y0045519D01*
X0053861Y0044320D02*
X0059514Y0044320D01*
X0059514Y0043122D02*
X0054612Y0043122D01*
X0054935Y0041923D02*
X0059514Y0041923D01*
X0059514Y0040725D02*
X0054935Y0040725D01*
X0054461Y0039526D02*
X0059514Y0039526D01*
X0059514Y0038328D02*
X0053496Y0038328D01*
X0052501Y0035770D02*
X0051812Y0035993D01*
X0051097Y0036107D01*
X0048135Y0036107D01*
X0048135Y0031907D01*
X0047335Y0031907D01*
X0047335Y0036107D01*
X0044373Y0036107D01*
X0043658Y0035993D01*
X0042969Y0035770D01*
X0042324Y0035441D01*
X0041738Y0035015D01*
X0041226Y0034503D01*
X0040801Y0033918D01*
X0040472Y0033272D01*
X0040248Y0032584D01*
X0040141Y0031907D01*
X0047335Y0031907D01*
X0047335Y0031107D01*
X0040141Y0031107D01*
X0040248Y0030430D01*
X0040472Y0029741D01*
X0040801Y0029096D01*
X0041226Y0028510D01*
X0041738Y0027998D01*
X0042324Y0027572D01*
X0042969Y0027244D01*
X0043658Y0027020D01*
X0044373Y0026907D01*
X0047335Y0026907D01*
X0047335Y0031107D01*
X0048135Y0031107D01*
X0048135Y0031907D01*
X0055329Y0031907D01*
X0055222Y0032584D01*
X0054998Y0033272D01*
X0054669Y0033918D01*
X0054244Y0034503D01*
X0053732Y0035015D01*
X0053146Y0035441D01*
X0052501Y0035770D01*
X0052004Y0035931D02*
X0059514Y0035931D01*
X0059514Y0037129D02*
X0040250Y0037129D01*
X0040206Y0037235D02*
X0039121Y0038320D01*
X0037703Y0038907D01*
X0036168Y0038907D01*
X0034751Y0038320D01*
X0033665Y0037235D01*
X0033078Y0035817D01*
X0033078Y0034283D01*
X0033665Y0032865D01*
X0034751Y0031780D01*
X0036168Y0031193D01*
X0037703Y0031193D01*
X0039121Y0031780D01*
X0040206Y0032865D01*
X0040793Y0034283D01*
X0040793Y0035817D01*
X0040206Y0037235D01*
X0040746Y0035931D02*
X0043465Y0035931D01*
X0041455Y0034732D02*
X0040793Y0034732D01*
X0040605Y0033534D02*
X0040483Y0033534D01*
X0040209Y0032335D02*
X0039676Y0032335D01*
X0040408Y0029938D02*
X0026436Y0029938D01*
X0026436Y0031137D02*
X0047335Y0031137D01*
X0048135Y0031137D02*
X0059514Y0031137D01*
X0059514Y0032335D02*
X0055261Y0032335D01*
X0055329Y0031107D02*
X0048135Y0031107D01*
X0048135Y0026907D01*
X0051097Y0026907D01*
X0051812Y0027020D01*
X0052501Y0027244D01*
X0053146Y0027572D01*
X0053732Y0027998D01*
X0054244Y0028510D01*
X0054669Y0029096D01*
X0054998Y0029741D01*
X0055222Y0030430D01*
X0055329Y0031107D01*
X0055062Y0029938D02*
X0059514Y0029938D01*
X0059514Y0028740D02*
X0054411Y0028740D01*
X0053085Y0027541D02*
X0059514Y0027541D01*
X0059514Y0026343D02*
X0039575Y0026343D01*
X0039793Y0025817D02*
X0039206Y0027235D01*
X0038121Y0028320D01*
X0036703Y0028907D01*
X0035168Y0028907D01*
X0033751Y0028320D01*
X0032665Y0027235D01*
X0032078Y0025817D01*
X0032078Y0024283D01*
X0032665Y0022865D01*
X0033751Y0021780D01*
X0035168Y0021193D01*
X0036703Y0021193D01*
X0038121Y0021780D01*
X0039206Y0022865D01*
X0039793Y0024283D01*
X0039793Y0025817D01*
X0039793Y0025144D02*
X0059135Y0025144D01*
X0057936Y0023946D02*
X0052780Y0023946D01*
X0054174Y0022747D02*
X0056738Y0022747D01*
X0059997Y0020350D02*
X0176436Y0020350D01*
X0176436Y0019152D02*
X0058799Y0019152D01*
X0061196Y0021549D02*
X0164308Y0021549D01*
X0162783Y0022747D02*
X0091794Y0022747D01*
X0090369Y0022747D02*
X0062394Y0022747D01*
X0063514Y0023946D02*
X0088941Y0023946D01*
X0088681Y0025144D02*
X0063514Y0025144D01*
X0063514Y0026343D02*
X0089019Y0026343D01*
X0090690Y0028740D02*
X0063514Y0028740D01*
X0063514Y0029938D02*
X0090217Y0029938D01*
X0090404Y0031137D02*
X0063514Y0031137D01*
X0063514Y0032335D02*
X0091483Y0032335D01*
X0093751Y0032335D02*
X0164195Y0032335D01*
X0163540Y0036932D02*
X0075729Y0036932D01*
X0072570Y0040091D01*
X0072570Y0065668D01*
X0072735Y0065833D01*
X0072900Y0065668D01*
X0072900Y0041977D01*
X0075656Y0039222D01*
X0075656Y0039222D01*
X0076828Y0038050D01*
X0164480Y0038050D01*
X0163665Y0037235D01*
X0163540Y0036932D01*
X0163622Y0037129D02*
X0075531Y0037129D01*
X0076550Y0038328D02*
X0074333Y0038328D01*
X0075351Y0039526D02*
X0073134Y0039526D01*
X0072570Y0040725D02*
X0074153Y0040725D01*
X0072954Y0041923D02*
X0072570Y0041923D01*
X0072570Y0043122D02*
X0072900Y0043122D01*
X0072900Y0044320D02*
X0072570Y0044320D01*
X0072570Y0045519D02*
X0072900Y0045519D01*
X0072900Y0046718D02*
X0072570Y0046718D01*
X0072570Y0047916D02*
X0072900Y0047916D01*
X0072900Y0049115D02*
X0072570Y0049115D01*
X0072570Y0050313D02*
X0072900Y0050313D01*
X0072900Y0051512D02*
X0072570Y0051512D01*
X0072570Y0052710D02*
X0072900Y0052710D01*
X0072900Y0053909D02*
X0072570Y0053909D01*
X0072570Y0055107D02*
X0072900Y0055107D01*
X0072900Y0056306D02*
X0072570Y0056306D01*
X0072570Y0057504D02*
X0072900Y0057504D01*
X0072900Y0058703D02*
X0072570Y0058703D01*
X0072570Y0059901D02*
X0072900Y0059901D01*
X0072900Y0061100D02*
X0072570Y0061100D01*
X0072570Y0062298D02*
X0072900Y0062298D01*
X0072900Y0063497D02*
X0072570Y0063497D01*
X0072570Y0064695D02*
X0072900Y0064695D01*
X0076900Y0064695D02*
X0077231Y0064695D01*
X0077231Y0065668D02*
X0077231Y0045127D01*
X0078799Y0043559D01*
X0078799Y0043510D01*
X0079165Y0042628D01*
X0079742Y0042050D01*
X0078485Y0042050D01*
X0076900Y0043634D01*
X0076900Y0065668D01*
X0077066Y0065833D01*
X0077231Y0065668D01*
X0077231Y0063497D02*
X0076900Y0063497D01*
X0076900Y0062298D02*
X0077231Y0062298D01*
X0077231Y0061100D02*
X0076900Y0061100D01*
X0076900Y0059901D02*
X0077231Y0059901D01*
X0077231Y0058703D02*
X0076900Y0058703D01*
X0076900Y0057504D02*
X0077231Y0057504D01*
X0077231Y0056306D02*
X0076900Y0056306D01*
X0076900Y0055107D02*
X0077231Y0055107D01*
X0077231Y0053909D02*
X0076900Y0053909D01*
X0076900Y0052710D02*
X0077231Y0052710D01*
X0077231Y0051512D02*
X0076900Y0051512D01*
X0076900Y0050313D02*
X0077231Y0050313D01*
X0077231Y0049115D02*
X0076900Y0049115D01*
X0076900Y0047916D02*
X0077231Y0047916D01*
X0077231Y0046718D02*
X0076900Y0046718D01*
X0076900Y0045519D02*
X0077231Y0045519D01*
X0076900Y0044320D02*
X0078038Y0044320D01*
X0077413Y0043122D02*
X0078960Y0043122D01*
X0082657Y0042050D02*
X0087223Y0042050D01*
X0086645Y0042628D01*
X0086280Y0043510D01*
X0086280Y0043559D01*
X0085892Y0043946D01*
X0085892Y0065668D01*
X0085727Y0065833D01*
X0085437Y0065543D01*
X0081687Y0065543D01*
X0081396Y0065833D01*
X0081231Y0065668D01*
X0081231Y0046784D01*
X0081628Y0046387D01*
X0081677Y0046387D01*
X0082559Y0046022D01*
X0083234Y0045346D01*
X0083599Y0044464D01*
X0083599Y0043510D01*
X0083234Y0042628D01*
X0082657Y0042050D01*
X0083439Y0043122D02*
X0086440Y0043122D01*
X0085892Y0044320D02*
X0083599Y0044320D01*
X0083062Y0045519D02*
X0085892Y0045519D01*
X0085892Y0046718D02*
X0081297Y0046718D01*
X0081231Y0047916D02*
X0085892Y0047916D01*
X0085892Y0049115D02*
X0081231Y0049115D01*
X0081231Y0050313D02*
X0085892Y0050313D01*
X0085892Y0051512D02*
X0081231Y0051512D01*
X0081231Y0052710D02*
X0085892Y0052710D01*
X0085892Y0053909D02*
X0081231Y0053909D01*
X0081231Y0055107D02*
X0085892Y0055107D01*
X0085892Y0056306D02*
X0081231Y0056306D01*
X0081231Y0057504D02*
X0085892Y0057504D01*
X0085892Y0058703D02*
X0081231Y0058703D01*
X0081231Y0059901D02*
X0085892Y0059901D01*
X0085892Y0061100D02*
X0081231Y0061100D01*
X0081231Y0062298D02*
X0085892Y0062298D01*
X0085892Y0063497D02*
X0081231Y0063497D01*
X0081231Y0064695D02*
X0085892Y0064695D01*
X0089892Y0064695D02*
X0094554Y0064695D01*
X0094219Y0065252D02*
X0094554Y0065445D01*
X0094554Y0045914D01*
X0096916Y0043552D01*
X0098088Y0042381D01*
X0163150Y0042381D01*
X0163480Y0042050D01*
X0090137Y0042050D01*
X0090714Y0042628D01*
X0091080Y0043510D01*
X0091080Y0044464D01*
X0090714Y0045346D01*
X0090039Y0046022D01*
X0089892Y0046082D01*
X0089892Y0065445D01*
X0090228Y0065252D01*
X0090634Y0065143D01*
X0092134Y0065143D01*
X0092134Y0069410D01*
X0092312Y0069410D01*
X0092312Y0065143D01*
X0093812Y0065143D01*
X0094219Y0065252D01*
X0094554Y0063497D02*
X0089892Y0063497D01*
X0089892Y0062298D02*
X0094554Y0062298D01*
X0094554Y0061100D02*
X0089892Y0061100D01*
X0089892Y0059901D02*
X0094554Y0059901D01*
X0094554Y0058703D02*
X0089892Y0058703D01*
X0089892Y0057504D02*
X0094554Y0057504D01*
X0094554Y0056306D02*
X0089892Y0056306D01*
X0089892Y0055107D02*
X0094554Y0055107D01*
X0094554Y0053909D02*
X0089892Y0053909D01*
X0089892Y0052710D02*
X0094554Y0052710D01*
X0094554Y0051512D02*
X0089892Y0051512D01*
X0089892Y0050313D02*
X0094554Y0050313D01*
X0094554Y0049115D02*
X0089892Y0049115D01*
X0089892Y0047916D02*
X0094554Y0047916D01*
X0094554Y0046718D02*
X0089892Y0046718D01*
X0090542Y0045519D02*
X0094949Y0045519D01*
X0096148Y0044320D02*
X0091080Y0044320D01*
X0090919Y0043122D02*
X0097346Y0043122D01*
X0099744Y0046381D02*
X0098554Y0047571D01*
X0098554Y0065668D01*
X0098719Y0065833D01*
X0098885Y0065668D01*
X0098885Y0051033D01*
X0100056Y0049861D01*
X0101631Y0048286D01*
X0163717Y0048286D01*
X0162665Y0047235D01*
X0162312Y0046381D01*
X0099744Y0046381D01*
X0099408Y0046718D02*
X0162451Y0046718D01*
X0163346Y0047916D02*
X0098554Y0047916D01*
X0098554Y0049115D02*
X0100803Y0049115D01*
X0099604Y0050313D02*
X0098554Y0050313D01*
X0098554Y0051512D02*
X0098885Y0051512D01*
X0098885Y0052710D02*
X0098554Y0052710D01*
X0098554Y0053909D02*
X0098885Y0053909D01*
X0098885Y0055107D02*
X0098554Y0055107D01*
X0098554Y0056306D02*
X0098885Y0056306D01*
X0098885Y0057504D02*
X0098554Y0057504D01*
X0098554Y0058703D02*
X0098885Y0058703D01*
X0098885Y0059901D02*
X0098554Y0059901D01*
X0098554Y0061100D02*
X0098885Y0061100D01*
X0098885Y0062298D02*
X0098554Y0062298D01*
X0098554Y0063497D02*
X0098885Y0063497D01*
X0098885Y0064695D02*
X0098554Y0064695D01*
X0102884Y0064695D02*
X0103215Y0064695D01*
X0103215Y0065668D02*
X0103215Y0056151D01*
X0104387Y0054979D01*
X0105568Y0053798D01*
X0159193Y0053798D01*
X0160365Y0054970D01*
X0162343Y0056948D01*
X0163514Y0058119D01*
X0163514Y0062016D01*
X0163751Y0061780D01*
X0165168Y0061193D01*
X0166703Y0061193D01*
X0168121Y0061780D01*
X0169206Y0062865D01*
X0169793Y0064283D01*
X0169793Y0065817D01*
X0169206Y0067235D01*
X0168121Y0068320D01*
X0166703Y0068907D01*
X0165168Y0068907D01*
X0163751Y0068320D01*
X0163514Y0068084D01*
X0163514Y0073230D01*
X0163665Y0072865D01*
X0164751Y0071780D01*
X0166168Y0071193D01*
X0167703Y0071193D01*
X0169121Y0071780D01*
X0170206Y0072865D01*
X0170793Y0074283D01*
X0172078Y0074283D01*
X0172665Y0072865D01*
X0173751Y0071780D01*
X0175168Y0071193D01*
X0176436Y0071193D01*
X0176436Y0068907D01*
X0176168Y0068907D01*
X0174751Y0068320D01*
X0173665Y0067235D01*
X0173078Y0065817D01*
X0173078Y0064283D01*
X0173665Y0062865D01*
X0174751Y0061780D01*
X0176168Y0061193D01*
X0176436Y0061193D01*
X0176436Y0058907D01*
X0175168Y0058907D01*
X0173751Y0058320D01*
X0172665Y0057235D01*
X0172078Y0055817D01*
X0172078Y0054283D01*
X0172665Y0052865D01*
X0173751Y0051780D01*
X0175168Y0051193D01*
X0176436Y0051193D01*
X0176436Y0048907D01*
X0176168Y0048907D01*
X0175983Y0048831D01*
X0172528Y0052286D01*
X0169627Y0052286D01*
X0170206Y0052865D01*
X0170793Y0054283D01*
X0170793Y0055817D01*
X0170206Y0057235D01*
X0169121Y0058320D01*
X0167703Y0058907D01*
X0166168Y0058907D01*
X0164751Y0058320D01*
X0163665Y0057235D01*
X0163078Y0055817D01*
X0163078Y0054283D01*
X0163665Y0052865D01*
X0164244Y0052286D01*
X0103288Y0052286D01*
X0102884Y0052689D01*
X0102884Y0065668D01*
X0103050Y0065833D01*
X0103215Y0065668D01*
X0103215Y0063497D02*
X0102884Y0063497D01*
X0102884Y0062298D02*
X0103215Y0062298D01*
X0103215Y0061100D02*
X0102884Y0061100D01*
X0102884Y0059901D02*
X0103215Y0059901D01*
X0103215Y0058703D02*
X0102884Y0058703D01*
X0102884Y0057504D02*
X0103215Y0057504D01*
X0103215Y0056306D02*
X0102884Y0056306D01*
X0102884Y0055107D02*
X0104259Y0055107D01*
X0105457Y0053909D02*
X0102884Y0053909D01*
X0102884Y0052710D02*
X0163820Y0052710D01*
X0163233Y0053909D02*
X0159304Y0053909D01*
X0160502Y0055107D02*
X0163078Y0055107D01*
X0163280Y0056306D02*
X0161701Y0056306D01*
X0162343Y0056948D02*
X0162343Y0056948D01*
X0162899Y0057504D02*
X0163935Y0057504D01*
X0163514Y0058703D02*
X0165674Y0058703D01*
X0163514Y0059901D02*
X0176436Y0059901D01*
X0176436Y0061100D02*
X0163514Y0061100D01*
X0168198Y0058703D02*
X0174674Y0058703D01*
X0172935Y0057504D02*
X0169937Y0057504D01*
X0170591Y0056306D02*
X0172280Y0056306D01*
X0172078Y0055107D02*
X0170793Y0055107D01*
X0170638Y0053909D02*
X0172233Y0053909D01*
X0172820Y0052710D02*
X0170051Y0052710D01*
X0173303Y0051512D02*
X0174398Y0051512D01*
X0174501Y0050313D02*
X0176436Y0050313D01*
X0176436Y0049115D02*
X0175700Y0049115D01*
X0173155Y0046002D02*
X0173078Y0045817D01*
X0173078Y0044283D01*
X0173665Y0042865D01*
X0174751Y0041780D01*
X0176168Y0041193D01*
X0176436Y0041193D01*
X0176436Y0038907D01*
X0175168Y0038907D01*
X0174983Y0038831D01*
X0173723Y0040091D01*
X0173723Y0040119D01*
X0172963Y0040878D01*
X0171792Y0042050D01*
X0168391Y0042050D01*
X0169206Y0042865D01*
X0169793Y0044283D01*
X0169793Y0045817D01*
X0169206Y0047235D01*
X0168155Y0048286D01*
X0170871Y0048286D01*
X0173155Y0046002D01*
X0173078Y0045519D02*
X0169793Y0045519D01*
X0169793Y0044320D02*
X0173078Y0044320D01*
X0173559Y0043122D02*
X0169312Y0043122D01*
X0171918Y0041923D02*
X0174607Y0041923D01*
X0173117Y0040725D02*
X0176436Y0040725D01*
X0176436Y0039526D02*
X0174288Y0039526D01*
X0171028Y0037129D02*
X0170250Y0037129D01*
X0170206Y0037235D02*
X0169391Y0038050D01*
X0170107Y0038050D01*
X0172155Y0036002D01*
X0172078Y0035817D01*
X0172078Y0034283D01*
X0172665Y0032865D01*
X0173751Y0031780D01*
X0175168Y0031193D01*
X0176436Y0031193D01*
X0176436Y0028907D01*
X0176168Y0028907D01*
X0175983Y0028831D01*
X0172607Y0032207D01*
X0170950Y0032207D01*
X0169548Y0032207D01*
X0170206Y0032865D01*
X0170793Y0034283D01*
X0170793Y0035817D01*
X0170206Y0037235D01*
X0170746Y0035931D02*
X0172125Y0035931D01*
X0172078Y0034732D02*
X0170793Y0034732D01*
X0170483Y0033534D02*
X0172388Y0033534D01*
X0173195Y0032335D02*
X0169676Y0032335D01*
X0173677Y0031137D02*
X0176436Y0031137D01*
X0176436Y0029938D02*
X0174876Y0029938D01*
X0171616Y0027541D02*
X0168900Y0027541D01*
X0169575Y0026343D02*
X0172814Y0026343D01*
X0173078Y0025144D02*
X0169793Y0025144D01*
X0169654Y0023946D02*
X0173218Y0023946D01*
X0173783Y0022747D02*
X0169088Y0022747D01*
X0167563Y0021549D02*
X0175308Y0021549D01*
X0173384Y0017953D02*
X0169488Y0017953D01*
X0169121Y0018320D02*
X0167703Y0018907D01*
X0166168Y0018907D01*
X0164751Y0018320D01*
X0163665Y0017235D01*
X0163078Y0015817D01*
X0163078Y0014283D01*
X0163665Y0012865D01*
X0164751Y0011780D01*
X0166168Y0011193D01*
X0167703Y0011193D01*
X0169121Y0011780D01*
X0170206Y0012865D01*
X0170793Y0014283D01*
X0170793Y0015817D01*
X0170206Y0017235D01*
X0169121Y0018320D01*
X0170405Y0016755D02*
X0172467Y0016755D01*
X0172078Y0015556D02*
X0170793Y0015556D01*
X0170793Y0014358D02*
X0172078Y0014358D01*
X0172544Y0013159D02*
X0170328Y0013159D01*
X0169302Y0011961D02*
X0173570Y0011961D01*
X0174255Y0008365D02*
X0168616Y0008365D01*
X0169635Y0007167D02*
X0173236Y0007167D01*
X0172771Y0005968D02*
X0170101Y0005968D01*
X0166222Y0005968D02*
X0165650Y0005968D01*
X0165650Y0007167D02*
X0166222Y0007167D01*
X0166222Y0008365D02*
X0165650Y0008365D01*
X0163255Y0008365D02*
X0159978Y0008365D01*
X0160272Y0008659D02*
X0157079Y0005466D01*
X0152564Y0005466D01*
X0149372Y0008659D01*
X0149372Y0013174D01*
X0152564Y0016366D01*
X0157079Y0016366D01*
X0160272Y0013174D01*
X0160272Y0008659D01*
X0160272Y0009564D02*
X0176436Y0009564D01*
X0176436Y0010762D02*
X0160272Y0010762D01*
X0160272Y0011961D02*
X0164570Y0011961D01*
X0163544Y0013159D02*
X0160272Y0013159D01*
X0159087Y0014358D02*
X0163078Y0014358D01*
X0163078Y0015556D02*
X0157889Y0015556D01*
X0163467Y0016755D02*
X0053182Y0016755D01*
X0054331Y0017953D02*
X0164384Y0017953D01*
X0162972Y0027541D02*
X0063514Y0027541D01*
X0063514Y0033534D02*
X0073470Y0033534D01*
X0072271Y0034732D02*
X0063514Y0034732D01*
X0063514Y0035931D02*
X0071073Y0035931D01*
X0069874Y0037129D02*
X0063514Y0037129D01*
X0063514Y0038328D02*
X0068676Y0038328D01*
X0068570Y0039526D02*
X0063514Y0039526D01*
X0063514Y0040725D02*
X0068570Y0040725D01*
X0068570Y0041923D02*
X0063514Y0041923D01*
X0063514Y0043122D02*
X0068570Y0043122D01*
X0068570Y0044320D02*
X0063514Y0044320D01*
X0063514Y0045519D02*
X0068570Y0045519D01*
X0068570Y0046718D02*
X0063514Y0046718D01*
X0063514Y0047916D02*
X0068570Y0047916D01*
X0068570Y0049115D02*
X0063514Y0049115D01*
X0063514Y0050313D02*
X0068570Y0050313D01*
X0068570Y0051512D02*
X0063514Y0051512D01*
X0063514Y0052710D02*
X0068570Y0052710D01*
X0068570Y0053909D02*
X0063514Y0053909D01*
X0063514Y0055107D02*
X0068570Y0055107D01*
X0068570Y0056306D02*
X0063514Y0056306D01*
X0063514Y0057504D02*
X0068004Y0057504D01*
X0066805Y0058703D02*
X0063514Y0058703D01*
X0063514Y0059901D02*
X0065607Y0059901D01*
X0064829Y0061100D02*
X0063514Y0061100D01*
X0063514Y0062298D02*
X0064829Y0062298D01*
X0064829Y0063497D02*
X0063514Y0063497D01*
X0063514Y0064695D02*
X0064829Y0064695D01*
X0064829Y0065894D02*
X0063514Y0065894D01*
X0063514Y0067092D02*
X0064829Y0067092D01*
X0064829Y0068291D02*
X0063514Y0068291D01*
X0063514Y0069489D02*
X0064829Y0069489D01*
X0064829Y0070688D02*
X0063514Y0070688D01*
X0063514Y0071886D02*
X0064829Y0071886D01*
X0064829Y0073085D02*
X0063514Y0073085D01*
X0063514Y0074283D02*
X0064829Y0074283D01*
X0064829Y0075482D02*
X0063514Y0075482D01*
X0063514Y0076680D02*
X0064829Y0076680D01*
X0064829Y0077879D02*
X0063514Y0077879D01*
X0063514Y0079077D02*
X0064829Y0079077D01*
X0064829Y0080276D02*
X0063514Y0080276D01*
X0063470Y0081474D02*
X0064829Y0081474D01*
X0064829Y0082673D02*
X0062271Y0082673D01*
X0061073Y0083871D02*
X0063684Y0083871D01*
X0062485Y0085070D02*
X0059874Y0085070D01*
X0058676Y0086268D02*
X0061287Y0086268D01*
X0060088Y0087467D02*
X0057477Y0087467D01*
X0056279Y0088665D02*
X0058889Y0088665D01*
X0057691Y0089864D02*
X0056034Y0089864D01*
X0056034Y0091062D02*
X0057152Y0091062D01*
X0057152Y0092261D02*
X0056034Y0092261D01*
X0056034Y0093459D02*
X0057152Y0093459D01*
X0057152Y0094658D02*
X0056034Y0094658D01*
X0056034Y0095856D02*
X0057152Y0095856D01*
X0057152Y0097055D02*
X0056034Y0097055D01*
X0056034Y0098253D02*
X0057152Y0098253D01*
X0057152Y0099452D02*
X0056034Y0099452D01*
X0056034Y0100651D02*
X0057152Y0100651D01*
X0057152Y0101849D02*
X0056034Y0101849D01*
X0056034Y0103048D02*
X0057152Y0103048D01*
X0057152Y0104246D02*
X0056034Y0104246D01*
X0056034Y0105445D02*
X0057152Y0105445D01*
X0057152Y0106643D02*
X0056034Y0106643D01*
X0056034Y0107842D02*
X0057152Y0107842D01*
X0057152Y0109040D02*
X0056034Y0109040D01*
X0056034Y0110239D02*
X0057152Y0110239D01*
X0057152Y0111437D02*
X0056034Y0111437D01*
X0056034Y0112636D02*
X0057152Y0112636D01*
X0057152Y0113834D02*
X0056034Y0113834D01*
X0056034Y0115033D02*
X0057152Y0115033D01*
X0057152Y0116231D02*
X0056034Y0116231D01*
X0056034Y0117430D02*
X0057152Y0117430D01*
X0057152Y0118628D02*
X0055056Y0118628D01*
X0053857Y0119827D02*
X0057152Y0119827D01*
X0057152Y0121025D02*
X0052659Y0121025D01*
X0051460Y0122224D02*
X0057152Y0122224D01*
X0057152Y0123422D02*
X0050262Y0123422D01*
X0049063Y0124621D02*
X0057152Y0124621D01*
X0057152Y0125819D02*
X0048947Y0125819D01*
X0048947Y0127018D02*
X0057152Y0127018D01*
X0057152Y0128216D02*
X0048947Y0128216D01*
X0048947Y0129415D02*
X0057152Y0129415D01*
X0057152Y0130613D02*
X0048947Y0130613D01*
X0048947Y0131812D02*
X0057152Y0131812D01*
X0057152Y0133010D02*
X0048947Y0133010D01*
X0048947Y0134209D02*
X0057152Y0134209D01*
X0057152Y0135407D02*
X0048947Y0135407D01*
X0048947Y0136606D02*
X0057152Y0136606D01*
X0057152Y0137804D02*
X0048947Y0137804D01*
X0048947Y0139003D02*
X0058033Y0139003D01*
X0059231Y0140201D02*
X0048947Y0140201D01*
X0048947Y0141400D02*
X0060430Y0141400D01*
X0061628Y0142598D02*
X0048947Y0142598D01*
X0048947Y0143797D02*
X0062827Y0143797D01*
X0064025Y0144995D02*
X0048947Y0144995D01*
X0048947Y0146194D02*
X0064853Y0146194D01*
X0066125Y0147392D02*
X0048947Y0147392D01*
X0048947Y0148591D02*
X0067468Y0148591D01*
X0067928Y0147392D02*
X0068666Y0147392D01*
X0069199Y0146194D02*
X0069865Y0146194D01*
X0069426Y0144995D02*
X0071063Y0144995D01*
X0072262Y0143797D02*
X0069049Y0143797D01*
X0067285Y0142598D02*
X0072900Y0142598D01*
X0072900Y0141400D02*
X0066086Y0141400D01*
X0064888Y0140201D02*
X0072900Y0140201D01*
X0072900Y0139003D02*
X0063689Y0139003D01*
X0062491Y0137804D02*
X0072900Y0137804D01*
X0072900Y0136606D02*
X0061292Y0136606D01*
X0061152Y0135407D02*
X0072900Y0135407D01*
X0072900Y0134209D02*
X0061152Y0134209D01*
X0061152Y0133010D02*
X0072900Y0133010D01*
X0072900Y0131812D02*
X0061152Y0131812D01*
X0061152Y0130613D02*
X0072900Y0130613D01*
X0072900Y0129415D02*
X0061152Y0129415D01*
X0061152Y0128216D02*
X0072900Y0128216D01*
X0072900Y0127018D02*
X0061152Y0127018D01*
X0061152Y0125819D02*
X0072900Y0125819D01*
X0072900Y0124621D02*
X0061152Y0124621D01*
X0061152Y0123422D02*
X0072900Y0123422D01*
X0072900Y0122224D02*
X0061152Y0122224D01*
X0061152Y0121025D02*
X0072900Y0121025D01*
X0072900Y0119827D02*
X0061152Y0119827D01*
X0061152Y0118628D02*
X0072900Y0118628D01*
X0072900Y0117430D02*
X0061152Y0117430D01*
X0061152Y0116231D02*
X0063807Y0116231D01*
X0064160Y0116584D02*
X0062736Y0115161D01*
X0061966Y0113301D01*
X0061966Y0111287D01*
X0062736Y0109427D01*
X0064160Y0108004D01*
X0066020Y0107233D01*
X0068033Y0107233D01*
X0069893Y0108004D01*
X0071316Y0109427D01*
X0072087Y0111287D01*
X0072087Y0113301D01*
X0071316Y0115161D01*
X0069893Y0116584D01*
X0068033Y0117355D01*
X0066020Y0117355D01*
X0064160Y0116584D01*
X0062683Y0115033D02*
X0061152Y0115033D01*
X0061152Y0113834D02*
X0062187Y0113834D01*
X0061966Y0112636D02*
X0061152Y0112636D01*
X0061152Y0111437D02*
X0061966Y0111437D01*
X0062400Y0110239D02*
X0061152Y0110239D01*
X0061152Y0109040D02*
X0063123Y0109040D01*
X0064551Y0107842D02*
X0061152Y0107842D01*
X0061152Y0106643D02*
X0072900Y0106643D01*
X0072900Y0105445D02*
X0061152Y0105445D01*
X0061152Y0104246D02*
X0072900Y0104246D01*
X0072900Y0103048D02*
X0061152Y0103048D01*
X0061152Y0101849D02*
X0072900Y0101849D01*
X0072900Y0100651D02*
X0061152Y0100651D01*
X0061152Y0099452D02*
X0063995Y0099452D01*
X0061971Y0098253D02*
X0061152Y0098253D01*
X0066908Y0099452D02*
X0072900Y0099452D01*
X0072900Y0098253D02*
X0068932Y0098253D01*
X0069903Y0097055D02*
X0072900Y0097055D01*
X0072900Y0095856D02*
X0070399Y0095856D01*
X0070512Y0094658D02*
X0072900Y0094658D01*
X0072900Y0093459D02*
X0070466Y0093459D01*
X0069969Y0092261D02*
X0072900Y0092261D01*
X0072900Y0091062D02*
X0069093Y0091062D01*
X0067296Y0089864D02*
X0072900Y0089864D01*
X0072900Y0088665D02*
X0064546Y0088665D01*
X0063607Y0089864D02*
X0063348Y0089864D01*
X0065745Y0087467D02*
X0072900Y0087467D01*
X0072900Y0086268D02*
X0066943Y0086268D01*
X0068142Y0085070D02*
X0072900Y0085070D01*
X0072900Y0083871D02*
X0068829Y0083871D01*
X0068829Y0082673D02*
X0072900Y0082673D01*
X0072900Y0081474D02*
X0068829Y0081474D01*
X0068829Y0080276D02*
X0072900Y0080276D01*
X0072900Y0079077D02*
X0068829Y0079077D01*
X0068829Y0077879D02*
X0072900Y0077879D01*
X0072900Y0076680D02*
X0068829Y0076680D01*
X0068829Y0075482D02*
X0072900Y0075482D01*
X0072900Y0074283D02*
X0068829Y0074283D01*
X0076900Y0074283D02*
X0077231Y0074283D01*
X0077231Y0075482D02*
X0076900Y0075482D01*
X0076900Y0076680D02*
X0077231Y0076680D01*
X0077231Y0077879D02*
X0076900Y0077879D01*
X0076900Y0079077D02*
X0077231Y0079077D01*
X0077231Y0080276D02*
X0076900Y0080276D01*
X0076900Y0081474D02*
X0077231Y0081474D01*
X0077231Y0082673D02*
X0076900Y0082673D01*
X0076900Y0083871D02*
X0077231Y0083871D01*
X0077231Y0085070D02*
X0076900Y0085070D01*
X0076900Y0086268D02*
X0077231Y0086268D01*
X0077231Y0087467D02*
X0076900Y0087467D01*
X0076900Y0088665D02*
X0077231Y0088665D01*
X0077231Y0089864D02*
X0076900Y0089864D01*
X0076900Y0091062D02*
X0077231Y0091062D01*
X0077231Y0092261D02*
X0076900Y0092261D01*
X0076900Y0093459D02*
X0077231Y0093459D01*
X0077231Y0094658D02*
X0076900Y0094658D01*
X0076900Y0095856D02*
X0077231Y0095856D01*
X0077231Y0097055D02*
X0076900Y0097055D01*
X0076900Y0098253D02*
X0077231Y0098253D01*
X0077231Y0099452D02*
X0076900Y0099452D01*
X0076900Y0100651D02*
X0077231Y0100651D01*
X0077231Y0101849D02*
X0076900Y0101849D01*
X0076900Y0103048D02*
X0077231Y0103048D01*
X0077231Y0104246D02*
X0076900Y0104246D01*
X0076900Y0105445D02*
X0077231Y0105445D01*
X0077231Y0106643D02*
X0076900Y0106643D01*
X0076900Y0107842D02*
X0077231Y0107842D01*
X0077231Y0109040D02*
X0076900Y0109040D01*
X0076900Y0110239D02*
X0077231Y0110239D01*
X0077231Y0111437D02*
X0076900Y0111437D01*
X0076900Y0112636D02*
X0077231Y0112636D01*
X0077231Y0113834D02*
X0076900Y0113834D01*
X0076900Y0115033D02*
X0077231Y0115033D01*
X0077231Y0116231D02*
X0076900Y0116231D01*
X0076900Y0117430D02*
X0077231Y0117430D01*
X0077231Y0118628D02*
X0076900Y0118628D01*
X0076900Y0119827D02*
X0077231Y0119827D01*
X0077231Y0121025D02*
X0076900Y0121025D01*
X0076900Y0122224D02*
X0077231Y0122224D01*
X0077231Y0123422D02*
X0076900Y0123422D01*
X0076900Y0124621D02*
X0077231Y0124621D01*
X0077231Y0125819D02*
X0076900Y0125819D01*
X0076900Y0127018D02*
X0077231Y0127018D01*
X0077231Y0128216D02*
X0076900Y0128216D01*
X0076900Y0129415D02*
X0077231Y0129415D01*
X0077231Y0130613D02*
X0076900Y0130613D01*
X0076900Y0131812D02*
X0077231Y0131812D01*
X0077231Y0133010D02*
X0076900Y0133010D01*
X0076900Y0134209D02*
X0077231Y0134209D01*
X0077231Y0135407D02*
X0076900Y0135407D01*
X0076900Y0136606D02*
X0077231Y0136606D01*
X0077231Y0137804D02*
X0076900Y0137804D01*
X0076900Y0139003D02*
X0077231Y0139003D01*
X0077231Y0140201D02*
X0076900Y0140201D01*
X0076900Y0141400D02*
X0077231Y0141400D01*
X0077231Y0142598D02*
X0076900Y0142598D01*
X0076900Y0143797D02*
X0077231Y0143797D01*
X0077231Y0144995D02*
X0076720Y0144995D01*
X0077231Y0146194D02*
X0075522Y0146194D01*
X0074323Y0147392D02*
X0076934Y0147392D01*
X0075736Y0148591D02*
X0073125Y0148591D01*
X0071926Y0149789D02*
X0074537Y0149789D01*
X0073339Y0150988D02*
X0070728Y0150988D01*
X0071574Y0152187D02*
X0069720Y0152187D01*
X0068896Y0153385D02*
X0070925Y0153385D01*
X0071040Y0154584D02*
X0048947Y0154584D01*
X0048947Y0153385D02*
X0065944Y0153385D01*
X0065120Y0152187D02*
X0048947Y0152187D01*
X0048947Y0150988D02*
X0065021Y0150988D01*
X0065704Y0149789D02*
X0048947Y0149789D01*
X0044948Y0149789D02*
X0044617Y0149789D01*
X0044617Y0148591D02*
X0044948Y0148591D01*
X0044948Y0147392D02*
X0044617Y0147392D01*
X0044617Y0146194D02*
X0044948Y0146194D01*
X0044948Y0144995D02*
X0044617Y0144995D01*
X0044617Y0143797D02*
X0044948Y0143797D01*
X0044948Y0142598D02*
X0044617Y0142598D01*
X0044617Y0141400D02*
X0044948Y0141400D01*
X0044948Y0140201D02*
X0044617Y0140201D01*
X0044617Y0139003D02*
X0044948Y0139003D01*
X0040617Y0146194D02*
X0040041Y0146194D01*
X0039496Y0147392D02*
X0040617Y0147392D01*
X0040566Y0148591D02*
X0038305Y0148591D01*
X0036222Y0148591D02*
X0035650Y0148591D01*
X0035650Y0147392D02*
X0036222Y0147392D01*
X0036222Y0146194D02*
X0035650Y0146194D01*
X0041429Y0153385D02*
X0044772Y0153385D01*
X0044948Y0152187D02*
X0042628Y0152187D01*
X0043826Y0150988D02*
X0044948Y0150988D01*
X0043574Y0154584D02*
X0040793Y0154584D01*
X0040793Y0155782D02*
X0042375Y0155782D01*
X0041177Y0156981D02*
X0040311Y0156981D01*
X0039978Y0158179D02*
X0039262Y0158179D01*
X0042040Y0161775D02*
X0091041Y0161775D01*
X0092239Y0162973D02*
X0040841Y0162973D01*
X0039747Y0164172D02*
X0162124Y0164172D01*
X0162078Y0165370D02*
X0039793Y0165370D01*
X0039482Y0166569D02*
X0132783Y0166569D01*
X0132343Y0167767D02*
X0038674Y0167767D01*
X0039902Y0172561D02*
X0061214Y0172561D01*
X0060016Y0173760D02*
X0040577Y0173760D01*
X0040793Y0174958D02*
X0058817Y0174958D01*
X0057619Y0176157D02*
X0040653Y0176157D01*
X0040086Y0177355D02*
X0056420Y0177355D01*
X0055222Y0178554D02*
X0038557Y0178554D01*
X0043237Y0190539D02*
X0026436Y0190539D01*
X0039018Y0191737D02*
X0042038Y0191737D01*
X0040839Y0192936D02*
X0040235Y0192936D01*
X0045298Y0194134D02*
X0113525Y0194134D01*
X0113563Y0191737D02*
X0047695Y0191737D01*
X0048893Y0190539D02*
X0114053Y0190539D01*
X0115002Y0189340D02*
X0050092Y0189340D01*
X0051290Y0188142D02*
X0117198Y0188142D01*
X0117872Y0188142D02*
X0118936Y0188142D01*
X0118936Y0188029D02*
X0119574Y0188130D01*
X0120322Y0188373D01*
X0121022Y0188730D01*
X0121659Y0189192D01*
X0122215Y0189748D01*
X0122677Y0190384D01*
X0123034Y0191085D01*
X0123277Y0191833D01*
X0123378Y0192471D01*
X0118936Y0192471D01*
X0118936Y0188029D01*
X0119610Y0188142D02*
X0124678Y0188142D01*
X0124094Y0189340D02*
X0121807Y0189340D01*
X0122756Y0190539D02*
X0124094Y0190539D01*
X0124094Y0191737D02*
X0123246Y0191737D01*
X0124094Y0192936D02*
X0118936Y0192936D01*
X0117872Y0192936D02*
X0046496Y0192936D01*
X0056084Y0183348D02*
X0118631Y0183348D01*
X0118631Y0182149D02*
X0057283Y0182149D01*
X0058481Y0180951D02*
X0119037Y0180951D01*
X0120011Y0179752D02*
X0059680Y0179752D01*
X0060878Y0178554D02*
X0125275Y0178554D01*
X0124678Y0179752D02*
X0124672Y0179752D01*
X0127066Y0179752D02*
X0127066Y0179752D01*
X0127066Y0178554D02*
X0127066Y0178554D01*
X0128856Y0178554D02*
X0134591Y0178554D01*
X0133393Y0177355D02*
X0062077Y0177355D01*
X0044437Y0159378D02*
X0088644Y0159378D01*
X0089842Y0160576D02*
X0043238Y0160576D01*
X0045635Y0158179D02*
X0087445Y0158179D01*
X0086246Y0156981D02*
X0046834Y0156981D01*
X0048032Y0155782D02*
X0071884Y0155782D01*
X0074767Y0155782D02*
X0085048Y0155782D01*
X0083849Y0154584D02*
X0075611Y0154584D01*
X0076598Y0153385D02*
X0082085Y0153385D01*
X0081262Y0152187D02*
X0077797Y0152187D01*
X0078995Y0150988D02*
X0081162Y0150988D01*
X0081562Y0149789D02*
X0080194Y0149789D01*
X0081231Y0148591D02*
X0081562Y0148591D01*
X0081562Y0147392D02*
X0081231Y0147392D01*
X0081231Y0146194D02*
X0081562Y0146194D01*
X0081562Y0144995D02*
X0081231Y0144995D01*
X0081231Y0143797D02*
X0081562Y0143797D01*
X0081562Y0142598D02*
X0081231Y0142598D01*
X0081231Y0141400D02*
X0081562Y0141400D01*
X0081562Y0140201D02*
X0081231Y0140201D01*
X0081231Y0139003D02*
X0081562Y0139003D01*
X0081562Y0137804D02*
X0081231Y0137804D01*
X0081231Y0136606D02*
X0081562Y0136606D01*
X0081562Y0135407D02*
X0081231Y0135407D01*
X0081231Y0134209D02*
X0081562Y0134209D01*
X0081562Y0133010D02*
X0081231Y0133010D01*
X0081231Y0131812D02*
X0081562Y0131812D01*
X0081562Y0130613D02*
X0081231Y0130613D01*
X0081231Y0129415D02*
X0081562Y0129415D01*
X0081562Y0128216D02*
X0081231Y0128216D01*
X0081231Y0127018D02*
X0081562Y0127018D01*
X0081562Y0125819D02*
X0081231Y0125819D01*
X0081231Y0124621D02*
X0081562Y0124621D01*
X0081562Y0123422D02*
X0081231Y0123422D01*
X0081231Y0122224D02*
X0081562Y0122224D01*
X0081562Y0121025D02*
X0081231Y0121025D01*
X0081231Y0119827D02*
X0081562Y0119827D01*
X0081562Y0118628D02*
X0081231Y0118628D01*
X0081231Y0117430D02*
X0081562Y0117430D01*
X0081562Y0116231D02*
X0081231Y0116231D01*
X0081231Y0115033D02*
X0081562Y0115033D01*
X0081562Y0113834D02*
X0081231Y0113834D01*
X0081231Y0112636D02*
X0081562Y0112636D01*
X0081562Y0111437D02*
X0081231Y0111437D01*
X0081231Y0110239D02*
X0081562Y0110239D01*
X0081562Y0109040D02*
X0081231Y0109040D01*
X0081231Y0107842D02*
X0081562Y0107842D01*
X0081562Y0106643D02*
X0081231Y0106643D01*
X0081231Y0105445D02*
X0081562Y0105445D01*
X0081562Y0104246D02*
X0081231Y0104246D01*
X0081231Y0103048D02*
X0081562Y0103048D01*
X0081562Y0101849D02*
X0081231Y0101849D01*
X0081231Y0100651D02*
X0081562Y0100651D01*
X0081562Y0099452D02*
X0081231Y0099452D01*
X0081231Y0098253D02*
X0081562Y0098253D01*
X0081562Y0097055D02*
X0081231Y0097055D01*
X0081231Y0095856D02*
X0081562Y0095856D01*
X0081562Y0094658D02*
X0081231Y0094658D01*
X0081231Y0093459D02*
X0081562Y0093459D01*
X0081562Y0092261D02*
X0081231Y0092261D01*
X0081231Y0091062D02*
X0081562Y0091062D01*
X0081562Y0089864D02*
X0081231Y0089864D01*
X0081231Y0088665D02*
X0081562Y0088665D01*
X0081562Y0087467D02*
X0081231Y0087467D01*
X0081231Y0086268D02*
X0081562Y0086268D01*
X0081562Y0085070D02*
X0081231Y0085070D01*
X0081231Y0083871D02*
X0081562Y0083871D01*
X0081562Y0082673D02*
X0081231Y0082673D01*
X0081231Y0081474D02*
X0081562Y0081474D01*
X0081562Y0080276D02*
X0081231Y0080276D01*
X0081231Y0079077D02*
X0081562Y0079077D01*
X0081562Y0077879D02*
X0081231Y0077879D01*
X0081231Y0076680D02*
X0081562Y0076680D01*
X0081562Y0075482D02*
X0081231Y0075482D01*
X0081231Y0074283D02*
X0081562Y0074283D01*
X0085562Y0074283D02*
X0085892Y0074283D01*
X0085892Y0073330D02*
X0085727Y0073164D01*
X0085562Y0073330D01*
X0085562Y0150073D01*
X0085596Y0150108D01*
X0085892Y0150823D01*
X0085892Y0073330D01*
X0085892Y0075482D02*
X0085562Y0075482D01*
X0085562Y0076680D02*
X0085892Y0076680D01*
X0085892Y0077879D02*
X0085562Y0077879D01*
X0085562Y0079077D02*
X0085892Y0079077D01*
X0085892Y0080276D02*
X0085562Y0080276D01*
X0085562Y0081474D02*
X0085892Y0081474D01*
X0085892Y0082673D02*
X0085562Y0082673D01*
X0085562Y0083871D02*
X0085892Y0083871D01*
X0085892Y0085070D02*
X0085562Y0085070D01*
X0085562Y0086268D02*
X0085892Y0086268D01*
X0085892Y0087467D02*
X0085562Y0087467D01*
X0085562Y0088665D02*
X0085892Y0088665D01*
X0085892Y0089864D02*
X0085562Y0089864D01*
X0085562Y0091062D02*
X0085892Y0091062D01*
X0085892Y0092261D02*
X0085562Y0092261D01*
X0085562Y0093459D02*
X0085892Y0093459D01*
X0085892Y0094658D02*
X0085562Y0094658D01*
X0085562Y0095856D02*
X0085892Y0095856D01*
X0085892Y0097055D02*
X0085562Y0097055D01*
X0085562Y0098253D02*
X0085892Y0098253D01*
X0085892Y0099452D02*
X0085562Y0099452D01*
X0085562Y0100651D02*
X0085892Y0100651D01*
X0085892Y0101849D02*
X0085562Y0101849D01*
X0085562Y0103048D02*
X0085892Y0103048D01*
X0085892Y0104246D02*
X0085562Y0104246D01*
X0085562Y0105445D02*
X0085892Y0105445D01*
X0085892Y0106643D02*
X0085562Y0106643D01*
X0085562Y0107842D02*
X0085892Y0107842D01*
X0085892Y0109040D02*
X0085562Y0109040D01*
X0085562Y0110239D02*
X0085892Y0110239D01*
X0085892Y0111437D02*
X0085562Y0111437D01*
X0085562Y0112636D02*
X0085892Y0112636D01*
X0085892Y0113834D02*
X0085562Y0113834D01*
X0085562Y0115033D02*
X0085892Y0115033D01*
X0085892Y0116231D02*
X0085562Y0116231D01*
X0085562Y0117430D02*
X0085892Y0117430D01*
X0085892Y0118628D02*
X0085562Y0118628D01*
X0085562Y0119827D02*
X0085892Y0119827D01*
X0085892Y0121025D02*
X0085562Y0121025D01*
X0085562Y0122224D02*
X0085892Y0122224D01*
X0085892Y0123422D02*
X0085562Y0123422D01*
X0085562Y0124621D02*
X0085892Y0124621D01*
X0085892Y0125819D02*
X0085562Y0125819D01*
X0085562Y0127018D02*
X0085892Y0127018D01*
X0085892Y0128216D02*
X0085562Y0128216D01*
X0085562Y0129415D02*
X0085892Y0129415D01*
X0085892Y0130613D02*
X0085562Y0130613D01*
X0085562Y0131812D02*
X0085892Y0131812D01*
X0085892Y0133010D02*
X0085562Y0133010D01*
X0085562Y0134209D02*
X0085892Y0134209D01*
X0085892Y0135407D02*
X0085562Y0135407D01*
X0085562Y0136606D02*
X0085892Y0136606D01*
X0085892Y0137804D02*
X0085562Y0137804D01*
X0085562Y0139003D02*
X0085892Y0139003D01*
X0085892Y0140201D02*
X0085562Y0140201D01*
X0085562Y0141400D02*
X0085892Y0141400D01*
X0085892Y0142598D02*
X0085562Y0142598D01*
X0085562Y0143797D02*
X0085892Y0143797D01*
X0085892Y0144995D02*
X0085562Y0144995D01*
X0085562Y0146194D02*
X0085892Y0146194D01*
X0085892Y0147392D02*
X0085562Y0147392D01*
X0085562Y0148591D02*
X0085892Y0148591D01*
X0085892Y0149789D02*
X0085562Y0149789D01*
X0089892Y0149789D02*
X0111390Y0149789D01*
X0110799Y0148591D02*
X0112589Y0148591D01*
X0112800Y0148380D02*
X0117315Y0148380D01*
X0120508Y0151572D01*
X0120508Y0151830D01*
X0141001Y0151830D01*
X0146129Y0146702D01*
X0146129Y0138434D01*
X0147300Y0137263D01*
X0150843Y0133719D01*
X0156749Y0133719D01*
X0157867Y0132601D01*
X0125490Y0132601D01*
X0125189Y0132902D01*
X0120674Y0132902D01*
X0117482Y0129709D01*
X0117482Y0125194D01*
X0120674Y0122002D01*
X0125189Y0122002D01*
X0128382Y0125194D01*
X0128382Y0128601D01*
X0132449Y0128601D01*
X0132355Y0128253D01*
X0132355Y0125689D01*
X0135914Y0125689D01*
X0135914Y0124489D01*
X0132355Y0124489D01*
X0132355Y0121926D01*
X0132464Y0121519D01*
X0132675Y0121154D01*
X0132973Y0120856D01*
X0133338Y0120646D01*
X0133745Y0120537D01*
X0135914Y0120537D01*
X0135914Y0124489D01*
X0137114Y0124489D01*
X0137114Y0120537D01*
X0139284Y0120537D01*
X0139691Y0120646D01*
X0140056Y0120856D01*
X0140354Y0121154D01*
X0140488Y0121387D01*
X0140939Y0120937D01*
X0147051Y0120937D01*
X0147754Y0121640D01*
X0147754Y0123089D01*
X0157536Y0123089D01*
X0157546Y0123080D01*
X0157546Y0119225D01*
X0156749Y0118428D01*
X0156741Y0118428D01*
X0156458Y0118711D01*
X0147464Y0118711D01*
X0146761Y0118008D01*
X0146761Y0114414D01*
X0147464Y0113711D01*
X0146761Y0113008D01*
X0146761Y0109414D01*
X0147464Y0108711D01*
X0146761Y0108008D01*
X0146761Y0104414D01*
X0147235Y0103940D01*
X0146978Y0103792D01*
X0146681Y0103494D01*
X0146470Y0103129D01*
X0146361Y0102722D01*
X0146361Y0101261D01*
X0151911Y0101261D01*
X0151911Y0101161D01*
X0146361Y0101161D01*
X0146361Y0099701D01*
X0146470Y0099294D01*
X0146681Y0098929D01*
X0146978Y0098631D01*
X0147235Y0098483D01*
X0146761Y0098008D01*
X0146761Y0094414D01*
X0147464Y0093711D01*
X0146761Y0093008D01*
X0146761Y0089414D01*
X0147235Y0088940D01*
X0146978Y0088792D01*
X0146681Y0088494D01*
X0146470Y0088129D01*
X0146361Y0087722D01*
X0146361Y0086261D01*
X0151911Y0086261D01*
X0151911Y0086161D01*
X0146361Y0086161D01*
X0146361Y0084701D01*
X0146470Y0084294D01*
X0146681Y0083929D01*
X0146978Y0083631D01*
X0147235Y0083483D01*
X0146761Y0083008D01*
X0146761Y0079414D01*
X0147464Y0078711D01*
X0151524Y0078711D01*
X0151494Y0078699D01*
X0150818Y0078024D01*
X0150453Y0077142D01*
X0150453Y0076187D01*
X0150818Y0075305D01*
X0151494Y0074630D01*
X0152376Y0074264D01*
X0153330Y0074264D01*
X0154213Y0074630D01*
X0154247Y0074664D01*
X0158012Y0074664D01*
X0159184Y0075836D01*
X0159514Y0076166D01*
X0159514Y0059776D01*
X0157536Y0057798D01*
X0107225Y0057798D01*
X0107215Y0057808D01*
X0107215Y0065668D01*
X0107793Y0066246D01*
X0107793Y0068580D01*
X0107839Y0068568D01*
X0109970Y0068568D01*
X0109970Y0072324D01*
X0111170Y0072324D01*
X0111170Y0073524D01*
X0114689Y0073524D01*
X0114689Y0075891D01*
X0114580Y0076297D01*
X0114370Y0076662D01*
X0114072Y0076960D01*
X0113707Y0077171D01*
X0113300Y0077280D01*
X0111170Y0077280D01*
X0111170Y0073524D01*
X0109970Y0073524D01*
X0109970Y0077280D01*
X0108266Y0077280D01*
X0117451Y0086466D01*
X0117451Y0112240D01*
X0117748Y0111525D01*
X0118423Y0110850D01*
X0119305Y0110485D01*
X0119354Y0110485D01*
X0120627Y0109211D01*
X0122764Y0109211D01*
X0123035Y0108940D01*
X0122778Y0108792D01*
X0122481Y0108494D01*
X0122270Y0108129D01*
X0122161Y0107722D01*
X0122161Y0106261D01*
X0127711Y0106261D01*
X0127711Y0106161D01*
X0122161Y0106161D01*
X0122161Y0104701D01*
X0122270Y0104294D01*
X0122481Y0103929D01*
X0122778Y0103631D01*
X0123035Y0103483D01*
X0122561Y0103008D01*
X0122561Y0099414D01*
X0123264Y0098711D01*
X0122965Y0098412D01*
X0122604Y0099284D01*
X0121929Y0099959D01*
X0121047Y0100324D01*
X0120092Y0100324D01*
X0119210Y0099959D01*
X0118535Y0099284D01*
X0118170Y0098401D01*
X0118170Y0097447D01*
X0118535Y0096565D01*
X0119210Y0095889D01*
X0120092Y0095524D01*
X0120141Y0095524D01*
X0121454Y0094211D01*
X0122764Y0094211D01*
X0123264Y0093711D01*
X0122764Y0093211D01*
X0121503Y0093211D01*
X0121441Y0093237D01*
X0120486Y0093237D01*
X0119604Y0092872D01*
X0118929Y0092197D01*
X0118563Y0091315D01*
X0118563Y0090360D01*
X0118929Y0089478D01*
X0119604Y0088803D01*
X0120486Y0088437D01*
X0121441Y0088437D01*
X0122323Y0088803D01*
X0122731Y0089211D01*
X0122764Y0089211D01*
X0123035Y0088940D01*
X0122778Y0088792D01*
X0122481Y0088494D01*
X0122270Y0088129D01*
X0122161Y0087722D01*
X0122161Y0086261D01*
X0127711Y0086261D01*
X0127711Y0086161D01*
X0122161Y0086161D01*
X0122161Y0084701D01*
X0122270Y0084294D01*
X0122481Y0083929D01*
X0122778Y0083631D01*
X0123035Y0083483D01*
X0122764Y0083211D01*
X0121926Y0083211D01*
X0120755Y0082040D01*
X0118960Y0080245D01*
X0118911Y0080245D01*
X0118029Y0079880D01*
X0117354Y0079205D01*
X0116988Y0078323D01*
X0116988Y0077368D01*
X0117354Y0076486D01*
X0118029Y0075811D01*
X0118911Y0075445D01*
X0119866Y0075445D01*
X0120748Y0075811D01*
X0121423Y0076486D01*
X0121788Y0077368D01*
X0121788Y0077417D01*
X0123173Y0078802D01*
X0123264Y0078711D01*
X0132258Y0078711D01*
X0132961Y0079414D01*
X0132961Y0083008D01*
X0132487Y0083483D01*
X0132743Y0083631D01*
X0133041Y0083929D01*
X0133252Y0084294D01*
X0133361Y0084701D01*
X0133361Y0086161D01*
X0127811Y0086161D01*
X0127811Y0086261D01*
X0133361Y0086261D01*
X0133361Y0087722D01*
X0133252Y0088129D01*
X0133041Y0088494D01*
X0132743Y0088792D01*
X0132487Y0088940D01*
X0132961Y0089414D01*
X0132961Y0093008D01*
X0132258Y0093711D01*
X0123264Y0093711D01*
X0132258Y0093711D01*
X0132961Y0094414D01*
X0132961Y0098008D01*
X0132258Y0098711D01*
X0123264Y0098711D01*
X0132258Y0098711D01*
X0132620Y0099074D01*
X0135883Y0099074D01*
X0137467Y0097489D01*
X0137467Y0093806D01*
X0137433Y0093772D01*
X0137067Y0092890D01*
X0137067Y0091935D01*
X0137433Y0091053D01*
X0138108Y0090378D01*
X0138990Y0090012D01*
X0139945Y0090012D01*
X0140827Y0090378D01*
X0141502Y0091053D01*
X0141867Y0091935D01*
X0141867Y0092890D01*
X0141502Y0093772D01*
X0141467Y0093806D01*
X0141467Y0099146D01*
X0140296Y0100318D01*
X0138711Y0101902D01*
X0137540Y0103074D01*
X0132896Y0103074D01*
X0132487Y0103483D01*
X0132743Y0103631D01*
X0133041Y0103929D01*
X0133252Y0104294D01*
X0133361Y0104701D01*
X0133361Y0106161D01*
X0127811Y0106161D01*
X0127811Y0106261D01*
X0133361Y0106261D01*
X0133361Y0107722D01*
X0133252Y0108129D01*
X0133041Y0108494D01*
X0132743Y0108792D01*
X0132486Y0108940D01*
X0132961Y0109414D01*
X0132961Y0113008D01*
X0132486Y0113483D01*
X0132743Y0113631D01*
X0133041Y0113929D01*
X0133252Y0114294D01*
X0133361Y0114701D01*
X0133361Y0116161D01*
X0127811Y0116161D01*
X0127811Y0116261D01*
X0133361Y0116261D01*
X0133361Y0117722D01*
X0133252Y0118129D01*
X0133041Y0118494D01*
X0132743Y0118792D01*
X0132378Y0119002D01*
X0131972Y0119111D01*
X0127811Y0119111D01*
X0127811Y0116261D01*
X0127711Y0116261D01*
X0127711Y0116161D01*
X0122161Y0116161D01*
X0122161Y0114701D01*
X0122270Y0114294D01*
X0122481Y0113929D01*
X0122778Y0113631D01*
X0123035Y0113483D01*
X0122764Y0113211D01*
X0122284Y0113211D01*
X0122182Y0113313D01*
X0122182Y0113362D01*
X0121817Y0114244D01*
X0121142Y0114919D01*
X0120260Y0115285D01*
X0119305Y0115285D01*
X0118423Y0114919D01*
X0117748Y0114244D01*
X0117451Y0113529D01*
X0117451Y0141666D01*
X0116280Y0142837D01*
X0112340Y0146778D01*
X0112340Y0146827D01*
X0111974Y0147709D01*
X0111299Y0148384D01*
X0110417Y0148749D01*
X0109462Y0148749D01*
X0108580Y0148384D01*
X0107905Y0147709D01*
X0107540Y0146827D01*
X0107540Y0145872D01*
X0107905Y0144990D01*
X0108580Y0144315D01*
X0109462Y0143949D01*
X0109511Y0143949D01*
X0113451Y0140009D01*
X0113451Y0116216D01*
X0113300Y0116256D01*
X0110933Y0116256D01*
X0110933Y0111319D01*
X0109733Y0111319D01*
X0109733Y0116256D01*
X0107367Y0116256D01*
X0106960Y0116147D01*
X0106595Y0115937D01*
X0106428Y0115769D01*
X0106428Y0142453D01*
X0105256Y0143625D01*
X0102497Y0146384D01*
X0102497Y0146433D01*
X0102132Y0147315D01*
X0101457Y0147990D01*
X0100574Y0148355D01*
X0099620Y0148355D01*
X0098738Y0147990D01*
X0098062Y0147315D01*
X0097697Y0146433D01*
X0097697Y0145478D01*
X0098062Y0144596D01*
X0098738Y0143921D01*
X0099620Y0143556D01*
X0099669Y0143556D01*
X0102428Y0140796D01*
X0102428Y0115545D01*
X0101389Y0116584D01*
X0099529Y0117355D01*
X0097516Y0117355D01*
X0095656Y0116584D01*
X0094232Y0115161D01*
X0093462Y0113301D01*
X0093462Y0111287D01*
X0094232Y0109427D01*
X0095656Y0108004D01*
X0097516Y0107233D01*
X0099529Y0107233D01*
X0101389Y0108004D01*
X0102428Y0109043D01*
X0102428Y0083004D01*
X0100056Y0080633D01*
X0098885Y0079461D01*
X0098885Y0073330D01*
X0098719Y0073164D01*
X0098554Y0073330D01*
X0098554Y0075130D01*
X0093436Y0080248D01*
X0093436Y0090933D01*
X0094081Y0090287D01*
X0095941Y0089517D01*
X0097954Y0089517D01*
X0099814Y0090287D01*
X0101238Y0091711D01*
X0102008Y0093571D01*
X0102008Y0095584D01*
X0101238Y0097444D01*
X0099814Y0098868D01*
X0097954Y0099638D01*
X0095941Y0099638D01*
X0094081Y0098868D01*
X0093436Y0098223D01*
X0093436Y0141977D01*
X0094226Y0142768D01*
X0094275Y0142768D01*
X0095157Y0143133D01*
X0095833Y0143809D01*
X0096198Y0144691D01*
X0096198Y0145645D01*
X0095833Y0146528D01*
X0095157Y0147203D01*
X0094275Y0147568D01*
X0093320Y0147568D01*
X0092438Y0147203D01*
X0091763Y0146528D01*
X0091398Y0145645D01*
X0091398Y0145597D01*
X0089892Y0144091D01*
X0089892Y0150784D01*
X0090433Y0151008D01*
X0091108Y0151683D01*
X0091473Y0152565D01*
X0091473Y0153520D01*
X0091108Y0154402D01*
X0090433Y0155077D01*
X0090126Y0155204D01*
X0094626Y0159704D01*
X0159454Y0159704D01*
X0163155Y0156002D01*
X0163078Y0155817D01*
X0163078Y0154283D01*
X0163665Y0152865D01*
X0164244Y0152286D01*
X0159484Y0152286D01*
X0159484Y0155693D01*
X0156292Y0158886D01*
X0151777Y0158886D01*
X0148584Y0155693D01*
X0148584Y0151178D01*
X0151777Y0147986D01*
X0156292Y0147986D01*
X0156592Y0148286D01*
X0163717Y0148286D01*
X0162665Y0147235D01*
X0162078Y0145817D01*
X0162078Y0144283D01*
X0162665Y0142865D01*
X0163751Y0141780D01*
X0165168Y0141193D01*
X0166703Y0141193D01*
X0168121Y0141780D01*
X0169206Y0142865D01*
X0169751Y0144180D01*
X0169751Y0138407D01*
X0172155Y0136002D01*
X0172078Y0135817D01*
X0172078Y0134283D01*
X0172665Y0132865D01*
X0173751Y0131780D01*
X0175168Y0131193D01*
X0176436Y0131193D01*
X0176436Y0128907D01*
X0176168Y0128907D01*
X0175983Y0128831D01*
X0172607Y0132207D01*
X0169548Y0132207D01*
X0170206Y0132865D01*
X0170793Y0134283D01*
X0170793Y0135817D01*
X0170206Y0137235D01*
X0169121Y0138320D01*
X0167703Y0138907D01*
X0166168Y0138907D01*
X0165983Y0138831D01*
X0161189Y0143625D01*
X0159484Y0143625D01*
X0159484Y0143882D01*
X0156292Y0147075D01*
X0151777Y0147075D01*
X0150129Y0145427D01*
X0150129Y0148359D01*
X0143829Y0154658D01*
X0142658Y0155830D01*
X0120508Y0155830D01*
X0120508Y0156087D01*
X0117315Y0159280D01*
X0112800Y0159280D01*
X0109608Y0156087D01*
X0109608Y0151572D01*
X0112800Y0148380D01*
X0112105Y0147392D02*
X0145438Y0147392D01*
X0146129Y0146194D02*
X0112923Y0146194D01*
X0114122Y0144995D02*
X0146129Y0144995D01*
X0146129Y0143797D02*
X0115320Y0143797D01*
X0116519Y0142598D02*
X0146129Y0142598D01*
X0146129Y0141400D02*
X0117451Y0141400D01*
X0117451Y0140201D02*
X0146129Y0140201D01*
X0146129Y0139003D02*
X0117451Y0139003D01*
X0117451Y0137804D02*
X0146758Y0137804D01*
X0147957Y0136606D02*
X0117451Y0136606D01*
X0117451Y0135407D02*
X0149155Y0135407D01*
X0150354Y0134209D02*
X0117451Y0134209D01*
X0117451Y0133010D02*
X0157458Y0133010D01*
X0160718Y0135407D02*
X0163078Y0135407D01*
X0163078Y0135817D02*
X0163078Y0134283D01*
X0163665Y0132865D01*
X0164323Y0132207D01*
X0163918Y0132207D01*
X0159577Y0136548D01*
X0158406Y0137719D01*
X0157836Y0137719D01*
X0159484Y0139367D01*
X0159484Y0139625D01*
X0159532Y0139625D01*
X0163155Y0136002D01*
X0163078Y0135817D01*
X0162551Y0136606D02*
X0159519Y0136606D01*
X0157921Y0137804D02*
X0161353Y0137804D01*
X0160154Y0139003D02*
X0159120Y0139003D01*
X0162216Y0142598D02*
X0162932Y0142598D01*
X0163414Y0141400D02*
X0164668Y0141400D01*
X0164613Y0140201D02*
X0169751Y0140201D01*
X0169751Y0139003D02*
X0165811Y0139003D01*
X0167204Y0141400D02*
X0169751Y0141400D01*
X0169751Y0142598D02*
X0168939Y0142598D01*
X0169592Y0143797D02*
X0169751Y0143797D01*
X0169751Y0145920D02*
X0169206Y0147235D01*
X0168155Y0148286D01*
X0168560Y0148286D01*
X0169751Y0147096D01*
X0169751Y0145920D01*
X0169751Y0146194D02*
X0169637Y0146194D01*
X0169454Y0147392D02*
X0169049Y0147392D01*
X0171515Y0150988D02*
X0176436Y0150988D01*
X0176436Y0149789D02*
X0172714Y0149789D01*
X0173751Y0148591D02*
X0175404Y0148591D01*
X0173823Y0147392D02*
X0173751Y0147392D01*
X0173751Y0142780D02*
X0174751Y0141780D01*
X0176168Y0141193D01*
X0176436Y0141193D01*
X0176436Y0138907D01*
X0175168Y0138907D01*
X0174983Y0138831D01*
X0173751Y0140063D01*
X0173751Y0142780D01*
X0173751Y0142598D02*
X0173932Y0142598D01*
X0173751Y0141400D02*
X0175668Y0141400D01*
X0176436Y0140201D02*
X0173751Y0140201D01*
X0174811Y0139003D02*
X0176436Y0139003D01*
X0171551Y0136606D02*
X0170467Y0136606D01*
X0170353Y0137804D02*
X0169637Y0137804D01*
X0170793Y0135407D02*
X0172078Y0135407D01*
X0172109Y0134209D02*
X0170763Y0134209D01*
X0170266Y0133010D02*
X0172605Y0133010D01*
X0173002Y0131812D02*
X0173719Y0131812D01*
X0174201Y0130613D02*
X0176436Y0130613D01*
X0176436Y0129415D02*
X0175399Y0129415D01*
X0173155Y0126002D02*
X0173078Y0125817D01*
X0173078Y0124283D01*
X0173665Y0122865D01*
X0174751Y0121780D01*
X0176168Y0121193D01*
X0176436Y0121193D01*
X0176436Y0118907D01*
X0175168Y0118907D01*
X0173751Y0118320D01*
X0172665Y0117235D01*
X0172078Y0115817D01*
X0172078Y0114283D01*
X0172665Y0112865D01*
X0173751Y0111780D01*
X0175168Y0111193D01*
X0176436Y0111193D01*
X0176436Y0108907D01*
X0176168Y0108907D01*
X0174751Y0108320D01*
X0173665Y0107235D01*
X0173078Y0105817D01*
X0173078Y0104283D01*
X0173665Y0102865D01*
X0174751Y0101780D01*
X0176168Y0101193D01*
X0176436Y0101193D01*
X0176436Y0099281D01*
X0176271Y0099307D01*
X0176222Y0099307D01*
X0176222Y0095336D01*
X0175650Y0095336D01*
X0175650Y0099307D01*
X0175601Y0099307D01*
X0174939Y0099203D01*
X0174301Y0098996D01*
X0173704Y0098691D01*
X0173162Y0098297D01*
X0172688Y0097824D01*
X0172294Y0097281D01*
X0171990Y0096684D01*
X0171783Y0096047D01*
X0171678Y0095385D01*
X0171678Y0095336D01*
X0175650Y0095336D01*
X0175650Y0094764D01*
X0176222Y0094764D01*
X0176222Y0090793D01*
X0176271Y0090793D01*
X0176436Y0090819D01*
X0176436Y0088907D01*
X0176168Y0088907D01*
X0174751Y0088320D01*
X0173665Y0087235D01*
X0173078Y0085817D01*
X0173078Y0084283D01*
X0173155Y0084098D01*
X0171265Y0082207D01*
X0168548Y0082207D01*
X0169206Y0082865D01*
X0169793Y0084283D01*
X0169793Y0085817D01*
X0169206Y0087235D01*
X0168121Y0088320D01*
X0166703Y0088907D01*
X0165168Y0088907D01*
X0163751Y0088320D01*
X0162665Y0087235D01*
X0162647Y0087191D01*
X0162368Y0087866D01*
X0162333Y0087901D01*
X0162333Y0091272D01*
X0161546Y0092060D01*
X0160374Y0093231D01*
X0156938Y0093231D01*
X0156458Y0093711D01*
X0147464Y0093711D01*
X0156458Y0093711D01*
X0156958Y0094211D01*
X0157874Y0094211D01*
X0161943Y0098280D01*
X0161992Y0098280D01*
X0162874Y0098645D01*
X0163549Y0099320D01*
X0163914Y0100203D01*
X0163914Y0101157D01*
X0163590Y0101940D01*
X0163751Y0101780D01*
X0165168Y0101193D01*
X0166703Y0101193D01*
X0168121Y0101780D01*
X0169206Y0102865D01*
X0169793Y0104283D01*
X0169793Y0105817D01*
X0169206Y0107235D01*
X0168121Y0108320D01*
X0166703Y0108907D01*
X0165168Y0108907D01*
X0163751Y0108320D01*
X0162665Y0107235D01*
X0162078Y0105817D01*
X0162078Y0104283D01*
X0162665Y0102865D01*
X0162775Y0102756D01*
X0161992Y0103080D01*
X0161037Y0103080D01*
X0160155Y0102715D01*
X0159480Y0102039D01*
X0159114Y0101157D01*
X0159114Y0101108D01*
X0157507Y0099501D01*
X0157561Y0099701D01*
X0157561Y0101161D01*
X0152011Y0101161D01*
X0152011Y0101261D01*
X0157561Y0101261D01*
X0157561Y0102722D01*
X0157452Y0103129D01*
X0157241Y0103494D01*
X0156943Y0103792D01*
X0156686Y0103940D01*
X0156958Y0104211D01*
X0157638Y0104211D01*
X0161549Y0108122D01*
X0161598Y0108122D01*
X0162480Y0108488D01*
X0163155Y0109163D01*
X0163521Y0110045D01*
X0163521Y0111000D01*
X0163155Y0111882D01*
X0162480Y0112557D01*
X0161689Y0112885D01*
X0162480Y0113212D01*
X0163155Y0113887D01*
X0163199Y0113992D01*
X0163665Y0112865D01*
X0164751Y0111780D01*
X0166168Y0111193D01*
X0167703Y0111193D01*
X0169121Y0111780D01*
X0170206Y0112865D01*
X0170793Y0114283D01*
X0170793Y0115817D01*
X0170206Y0117235D01*
X0169121Y0118320D01*
X0167703Y0118907D01*
X0166168Y0118907D01*
X0164751Y0118320D01*
X0163665Y0117235D01*
X0163280Y0116305D01*
X0163155Y0116606D01*
X0162480Y0117281D01*
X0161598Y0117647D01*
X0161546Y0117647D01*
X0161546Y0123804D01*
X0162300Y0123050D01*
X0162589Y0123050D01*
X0162665Y0122865D01*
X0163751Y0121780D01*
X0165168Y0121193D01*
X0166703Y0121193D01*
X0168121Y0121780D01*
X0169206Y0122865D01*
X0169793Y0124283D01*
X0169793Y0125817D01*
X0169206Y0127235D01*
X0168233Y0128207D01*
X0170950Y0128207D01*
X0173155Y0126002D01*
X0173079Y0125819D02*
X0169792Y0125819D01*
X0169793Y0124621D02*
X0173078Y0124621D01*
X0173435Y0123422D02*
X0169437Y0123422D01*
X0168565Y0122224D02*
X0174307Y0122224D01*
X0176436Y0121025D02*
X0161546Y0121025D01*
X0161546Y0119827D02*
X0176436Y0119827D01*
X0174494Y0118628D02*
X0168377Y0118628D01*
X0170011Y0117430D02*
X0172860Y0117430D01*
X0172250Y0116231D02*
X0170622Y0116231D01*
X0170793Y0115033D02*
X0172078Y0115033D01*
X0172264Y0113834D02*
X0170607Y0113834D01*
X0169977Y0112636D02*
X0172895Y0112636D01*
X0174578Y0111437D02*
X0168293Y0111437D01*
X0165578Y0111437D02*
X0163340Y0111437D01*
X0163521Y0110239D02*
X0176436Y0110239D01*
X0176436Y0109040D02*
X0163032Y0109040D01*
X0163272Y0107842D02*
X0161268Y0107842D01*
X0162420Y0106643D02*
X0160070Y0106643D01*
X0158871Y0105445D02*
X0162078Y0105445D01*
X0162093Y0104246D02*
X0157673Y0104246D01*
X0157474Y0103048D02*
X0160959Y0103048D01*
X0162070Y0103048D02*
X0162590Y0103048D01*
X0163628Y0101849D02*
X0163681Y0101849D01*
X0163914Y0100651D02*
X0176436Y0100651D01*
X0176436Y0099452D02*
X0163604Y0099452D01*
X0164162Y0098297D02*
X0163688Y0097824D01*
X0163294Y0097281D01*
X0162990Y0096684D01*
X0162783Y0096047D01*
X0162678Y0095385D01*
X0162678Y0095336D01*
X0166650Y0095336D01*
X0166650Y0099307D01*
X0166601Y0099307D01*
X0165939Y0099203D01*
X0165301Y0098996D01*
X0164704Y0098691D01*
X0164162Y0098297D01*
X0164118Y0098253D02*
X0161916Y0098253D01*
X0160718Y0097055D02*
X0163179Y0097055D01*
X0162753Y0095856D02*
X0159519Y0095856D01*
X0158321Y0094658D02*
X0162687Y0094658D01*
X0162678Y0094715D02*
X0162783Y0094053D01*
X0162990Y0093416D01*
X0163294Y0092819D01*
X0163688Y0092276D01*
X0164162Y0091803D01*
X0164704Y0091409D01*
X0165301Y0091104D01*
X0165939Y0090897D01*
X0166601Y0090793D01*
X0166650Y0090793D01*
X0166650Y0094764D01*
X0167222Y0094764D01*
X0167222Y0095336D01*
X0171193Y0095336D01*
X0171193Y0095385D01*
X0171088Y0096047D01*
X0170881Y0096684D01*
X0170577Y0097281D01*
X0170183Y0097824D01*
X0169709Y0098297D01*
X0169167Y0098691D01*
X0168570Y0098996D01*
X0167933Y0099203D01*
X0167271Y0099307D01*
X0167222Y0099307D01*
X0167222Y0095336D01*
X0166650Y0095336D01*
X0166650Y0094764D01*
X0162678Y0094764D01*
X0162678Y0094715D01*
X0162976Y0093459D02*
X0156710Y0093459D01*
X0156978Y0089231D02*
X0158333Y0089231D01*
X0158333Y0087901D01*
X0158299Y0087866D01*
X0157933Y0086984D01*
X0157933Y0086029D01*
X0158299Y0085147D01*
X0158974Y0084472D01*
X0159856Y0084107D01*
X0160811Y0084107D01*
X0161693Y0084472D01*
X0162078Y0084857D01*
X0162078Y0084283D01*
X0162665Y0082865D01*
X0163751Y0081780D01*
X0163787Y0081765D01*
X0161152Y0079130D01*
X0161152Y0081036D01*
X0159981Y0082207D01*
X0158977Y0083211D01*
X0156958Y0083211D01*
X0156687Y0083483D01*
X0156943Y0083631D01*
X0157241Y0083929D01*
X0157452Y0084294D01*
X0157561Y0084701D01*
X0157561Y0086161D01*
X0152011Y0086161D01*
X0152011Y0086261D01*
X0157561Y0086261D01*
X0157561Y0087722D01*
X0157452Y0088129D01*
X0157241Y0088494D01*
X0156943Y0088792D01*
X0156687Y0088940D01*
X0156978Y0089231D01*
X0157070Y0088665D02*
X0158333Y0088665D01*
X0158133Y0087467D02*
X0157561Y0087467D01*
X0157561Y0086268D02*
X0157933Y0086268D01*
X0157561Y0085070D02*
X0158376Y0085070D01*
X0157184Y0083871D02*
X0162249Y0083871D01*
X0162858Y0082673D02*
X0159515Y0082673D01*
X0160714Y0081474D02*
X0163496Y0081474D01*
X0162298Y0080276D02*
X0161152Y0080276D01*
X0156403Y0078711D02*
X0156355Y0078664D01*
X0154247Y0078664D01*
X0154213Y0078699D01*
X0154182Y0078711D01*
X0156403Y0078711D01*
X0158830Y0075482D02*
X0159514Y0075482D01*
X0159514Y0074283D02*
X0153376Y0074283D01*
X0152330Y0074283D02*
X0114689Y0074283D01*
X0114689Y0075482D02*
X0118823Y0075482D01*
X0119954Y0075482D02*
X0150745Y0075482D01*
X0150453Y0076680D02*
X0121504Y0076680D01*
X0122250Y0077879D02*
X0150758Y0077879D01*
X0147098Y0079077D02*
X0132624Y0079077D01*
X0132961Y0080276D02*
X0146761Y0080276D01*
X0146761Y0081474D02*
X0132961Y0081474D01*
X0132961Y0082673D02*
X0146761Y0082673D01*
X0146738Y0083871D02*
X0132984Y0083871D01*
X0133361Y0085070D02*
X0146361Y0085070D01*
X0146361Y0086268D02*
X0133361Y0086268D01*
X0133361Y0087467D02*
X0146361Y0087467D01*
X0146852Y0088665D02*
X0132870Y0088665D01*
X0132961Y0089864D02*
X0146761Y0089864D01*
X0146761Y0091062D02*
X0141506Y0091062D01*
X0141867Y0092261D02*
X0146761Y0092261D01*
X0147212Y0093459D02*
X0141631Y0093459D01*
X0141467Y0094658D02*
X0146761Y0094658D01*
X0146761Y0095856D02*
X0141467Y0095856D01*
X0141467Y0097055D02*
X0146761Y0097055D01*
X0147006Y0098253D02*
X0141467Y0098253D01*
X0141161Y0099452D02*
X0146428Y0099452D01*
X0146361Y0100651D02*
X0139963Y0100651D01*
X0140296Y0100318D02*
X0140296Y0100318D01*
X0138764Y0101849D02*
X0146361Y0101849D01*
X0146448Y0103048D02*
X0137566Y0103048D01*
X0138711Y0101902D02*
X0138711Y0101902D01*
X0136703Y0098253D02*
X0132716Y0098253D01*
X0132961Y0097055D02*
X0137467Y0097055D01*
X0137467Y0095856D02*
X0132961Y0095856D01*
X0132961Y0094658D02*
X0137467Y0094658D01*
X0137303Y0093459D02*
X0132510Y0093459D01*
X0132961Y0092261D02*
X0137067Y0092261D01*
X0137429Y0091062D02*
X0132961Y0091062D01*
X0123012Y0093459D02*
X0117451Y0093459D01*
X0117451Y0092261D02*
X0118993Y0092261D01*
X0118563Y0091062D02*
X0117451Y0091062D01*
X0117451Y0089864D02*
X0118769Y0089864D01*
X0119935Y0088665D02*
X0117451Y0088665D01*
X0117451Y0087467D02*
X0122161Y0087467D01*
X0122161Y0086268D02*
X0117254Y0086268D01*
X0116056Y0085070D02*
X0122161Y0085070D01*
X0122538Y0083871D02*
X0114857Y0083871D01*
X0113659Y0082673D02*
X0121388Y0082673D01*
X0120189Y0081474D02*
X0112460Y0081474D01*
X0111262Y0080276D02*
X0118991Y0080276D01*
X0117301Y0079077D02*
X0110063Y0079077D01*
X0108865Y0077879D02*
X0116988Y0077879D01*
X0117273Y0076680D02*
X0114352Y0076680D01*
X0111170Y0076680D02*
X0109970Y0076680D01*
X0109970Y0075482D02*
X0111170Y0075482D01*
X0111170Y0074283D02*
X0109970Y0074283D01*
X0111170Y0073085D02*
X0159514Y0073085D01*
X0159514Y0071886D02*
X0114689Y0071886D01*
X0114689Y0072324D02*
X0114689Y0069957D01*
X0114580Y0069551D01*
X0114370Y0069186D01*
X0114072Y0068888D01*
X0113707Y0068677D01*
X0113300Y0068568D01*
X0111170Y0068568D01*
X0111170Y0072324D01*
X0114689Y0072324D01*
X0114689Y0070688D02*
X0159514Y0070688D01*
X0159514Y0069489D02*
X0144679Y0069489D01*
X0143859Y0070309D02*
X0141936Y0070309D01*
X0141936Y0064960D01*
X0140936Y0064960D01*
X0140936Y0070309D01*
X0139013Y0070309D01*
X0135586Y0066883D01*
X0135586Y0064959D01*
X0140936Y0064959D01*
X0140936Y0063959D01*
X0141936Y0063959D01*
X0141936Y0064959D01*
X0147286Y0064959D01*
X0147286Y0066883D01*
X0143859Y0070309D01*
X0141936Y0069489D02*
X0140936Y0069489D01*
X0140936Y0068291D02*
X0141936Y0068291D01*
X0141936Y0067092D02*
X0140936Y0067092D01*
X0140936Y0065894D02*
X0141936Y0065894D01*
X0141936Y0064695D02*
X0159514Y0064695D01*
X0159514Y0063497D02*
X0147286Y0063497D01*
X0147286Y0063959D02*
X0147286Y0062036D01*
X0143859Y0058609D01*
X0141936Y0058609D01*
X0141936Y0063959D01*
X0147286Y0063959D01*
X0147286Y0062298D02*
X0159514Y0062298D01*
X0159514Y0061100D02*
X0146349Y0061100D01*
X0145151Y0059901D02*
X0159514Y0059901D01*
X0158441Y0058703D02*
X0143952Y0058703D01*
X0141936Y0058703D02*
X0140936Y0058703D01*
X0140936Y0058609D02*
X0140936Y0063959D01*
X0135586Y0063959D01*
X0135586Y0062036D01*
X0139013Y0058609D01*
X0140936Y0058609D01*
X0140936Y0059901D02*
X0141936Y0059901D01*
X0141936Y0061100D02*
X0140936Y0061100D01*
X0140936Y0062298D02*
X0141936Y0062298D01*
X0141936Y0063497D02*
X0140936Y0063497D01*
X0140936Y0064695D02*
X0107215Y0064695D01*
X0107215Y0063497D02*
X0135586Y0063497D01*
X0135586Y0062298D02*
X0107215Y0062298D01*
X0107215Y0061100D02*
X0136522Y0061100D01*
X0137721Y0059901D02*
X0107215Y0059901D01*
X0107215Y0058703D02*
X0138919Y0058703D01*
X0135586Y0065894D02*
X0107441Y0065894D01*
X0107793Y0067092D02*
X0135795Y0067092D01*
X0136994Y0068291D02*
X0107793Y0068291D01*
X0109970Y0069489D02*
X0111170Y0069489D01*
X0111170Y0070688D02*
X0109970Y0070688D01*
X0109970Y0071886D02*
X0111170Y0071886D01*
X0114545Y0069489D02*
X0138192Y0069489D01*
X0145878Y0068291D02*
X0159514Y0068291D01*
X0159514Y0067092D02*
X0147076Y0067092D01*
X0147286Y0065894D02*
X0159514Y0065894D01*
X0163514Y0068291D02*
X0163721Y0068291D01*
X0163514Y0069489D02*
X0176436Y0069489D01*
X0176436Y0070688D02*
X0163514Y0070688D01*
X0163514Y0071886D02*
X0164644Y0071886D01*
X0163574Y0073085D02*
X0163514Y0073085D01*
X0168150Y0068291D02*
X0174721Y0068291D01*
X0173606Y0067092D02*
X0169265Y0067092D01*
X0169762Y0065894D02*
X0173110Y0065894D01*
X0173078Y0064695D02*
X0169793Y0064695D01*
X0169468Y0063497D02*
X0173404Y0063497D01*
X0174232Y0062298D02*
X0168639Y0062298D01*
X0169227Y0071886D02*
X0173644Y0071886D01*
X0172574Y0073085D02*
X0170297Y0073085D01*
X0170793Y0074283D02*
X0170793Y0075817D01*
X0170206Y0077235D01*
X0169233Y0078207D01*
X0172922Y0078207D01*
X0175983Y0081269D01*
X0176168Y0081193D01*
X0176436Y0081193D01*
X0176436Y0078907D01*
X0175168Y0078907D01*
X0173751Y0078320D01*
X0172665Y0077235D01*
X0172078Y0075817D01*
X0172078Y0074283D01*
X0172078Y0075482D02*
X0170793Y0075482D01*
X0170436Y0076680D02*
X0172436Y0076680D01*
X0173309Y0077879D02*
X0169562Y0077879D01*
X0173791Y0079077D02*
X0176436Y0079077D01*
X0176436Y0080276D02*
X0174990Y0080276D01*
X0172929Y0083871D02*
X0169623Y0083871D01*
X0169793Y0085070D02*
X0173078Y0085070D01*
X0173265Y0086268D02*
X0169606Y0086268D01*
X0168974Y0087467D02*
X0173897Y0087467D01*
X0175584Y0088665D02*
X0167287Y0088665D01*
X0167271Y0090793D02*
X0167933Y0090897D01*
X0168570Y0091104D01*
X0169167Y0091409D01*
X0169709Y0091803D01*
X0170183Y0092276D01*
X0170577Y0092819D01*
X0170881Y0093416D01*
X0171088Y0094053D01*
X0171193Y0094715D01*
X0171193Y0094764D01*
X0167222Y0094764D01*
X0167222Y0090793D01*
X0167271Y0090793D01*
X0167222Y0091062D02*
X0166650Y0091062D01*
X0166650Y0092261D02*
X0167222Y0092261D01*
X0167222Y0093459D02*
X0166650Y0093459D01*
X0166650Y0094658D02*
X0167222Y0094658D01*
X0167222Y0095856D02*
X0166650Y0095856D01*
X0166650Y0097055D02*
X0167222Y0097055D01*
X0167222Y0098253D02*
X0166650Y0098253D01*
X0169753Y0098253D02*
X0173118Y0098253D01*
X0172179Y0097055D02*
X0170692Y0097055D01*
X0171119Y0095856D02*
X0171753Y0095856D01*
X0171678Y0094764D02*
X0171678Y0094715D01*
X0171783Y0094053D01*
X0171990Y0093416D01*
X0172294Y0092819D01*
X0172688Y0092276D01*
X0173162Y0091803D01*
X0173704Y0091409D01*
X0174301Y0091104D01*
X0174939Y0090897D01*
X0175601Y0090793D01*
X0175650Y0090793D01*
X0175650Y0094764D01*
X0171678Y0094764D01*
X0171687Y0094658D02*
X0171184Y0094658D01*
X0170895Y0093459D02*
X0171976Y0093459D01*
X0172704Y0092261D02*
X0170168Y0092261D01*
X0168441Y0091062D02*
X0174431Y0091062D01*
X0175650Y0091062D02*
X0176222Y0091062D01*
X0176222Y0092261D02*
X0175650Y0092261D01*
X0175650Y0093459D02*
X0176222Y0093459D01*
X0176222Y0094658D02*
X0175650Y0094658D01*
X0175650Y0095856D02*
X0176222Y0095856D01*
X0176222Y0097055D02*
X0175650Y0097055D01*
X0175650Y0098253D02*
X0176222Y0098253D01*
X0174681Y0101849D02*
X0168190Y0101849D01*
X0169282Y0103048D02*
X0173590Y0103048D01*
X0173093Y0104246D02*
X0169778Y0104246D01*
X0169793Y0105445D02*
X0173078Y0105445D01*
X0173420Y0106643D02*
X0169451Y0106643D01*
X0168599Y0107842D02*
X0174272Y0107842D01*
X0165494Y0118628D02*
X0161546Y0118628D01*
X0162122Y0117430D02*
X0163860Y0117430D01*
X0163264Y0113834D02*
X0163102Y0113834D01*
X0163895Y0112636D02*
X0162291Y0112636D01*
X0157473Y0114428D02*
X0156607Y0113562D01*
X0156458Y0113711D01*
X0147464Y0113711D01*
X0156458Y0113711D01*
X0157161Y0114414D01*
X0157161Y0114428D01*
X0157473Y0114428D01*
X0156880Y0113834D02*
X0156581Y0113834D01*
X0156958Y0109211D02*
X0156981Y0109211D01*
X0156470Y0108700D01*
X0156458Y0108711D01*
X0147464Y0108711D01*
X0156458Y0108711D01*
X0156958Y0109211D01*
X0156810Y0109040D02*
X0156787Y0109040D01*
X0157561Y0101849D02*
X0159401Y0101849D01*
X0158657Y0100651D02*
X0157561Y0100651D01*
X0161345Y0092261D02*
X0163704Y0092261D01*
X0162333Y0091062D02*
X0165431Y0091062D01*
X0164584Y0088665D02*
X0162333Y0088665D01*
X0162333Y0089864D02*
X0176436Y0089864D01*
X0171730Y0082673D02*
X0169014Y0082673D01*
X0162897Y0087467D02*
X0162533Y0087467D01*
X0146929Y0104246D02*
X0133224Y0104246D01*
X0133361Y0105445D02*
X0146761Y0105445D01*
X0146761Y0106643D02*
X0133361Y0106643D01*
X0133329Y0107842D02*
X0146761Y0107842D01*
X0147135Y0109040D02*
X0132587Y0109040D01*
X0132961Y0110239D02*
X0146761Y0110239D01*
X0146761Y0111437D02*
X0132961Y0111437D01*
X0132961Y0112636D02*
X0146761Y0112636D01*
X0147341Y0113834D02*
X0132946Y0113834D01*
X0133361Y0115033D02*
X0146761Y0115033D01*
X0146761Y0116231D02*
X0127811Y0116231D01*
X0127711Y0116231D02*
X0117451Y0116231D01*
X0117451Y0115033D02*
X0118696Y0115033D01*
X0117578Y0113834D02*
X0117451Y0113834D01*
X0117451Y0111437D02*
X0117836Y0111437D01*
X0117451Y0110239D02*
X0119600Y0110239D01*
X0117451Y0109040D02*
X0122935Y0109040D01*
X0122193Y0107842D02*
X0117451Y0107842D01*
X0117451Y0106643D02*
X0122161Y0106643D01*
X0122161Y0105445D02*
X0117451Y0105445D01*
X0117451Y0104246D02*
X0122298Y0104246D01*
X0122600Y0103048D02*
X0117451Y0103048D01*
X0117451Y0101849D02*
X0122561Y0101849D01*
X0122561Y0100651D02*
X0117451Y0100651D01*
X0117451Y0099452D02*
X0118703Y0099452D01*
X0118170Y0098253D02*
X0117451Y0098253D01*
X0117451Y0097055D02*
X0118332Y0097055D01*
X0117451Y0095856D02*
X0119290Y0095856D01*
X0121007Y0094658D02*
X0117451Y0094658D01*
X0122436Y0099452D02*
X0122561Y0099452D01*
X0113451Y0099452D02*
X0106428Y0099452D01*
X0106428Y0100651D02*
X0113451Y0100651D01*
X0113451Y0101849D02*
X0106428Y0101849D01*
X0106428Y0103048D02*
X0113451Y0103048D01*
X0113451Y0104246D02*
X0106428Y0104246D01*
X0106960Y0105291D02*
X0107367Y0105182D01*
X0109733Y0105182D01*
X0109733Y0110119D01*
X0110933Y0110119D01*
X0110933Y0105182D01*
X0113300Y0105182D01*
X0113451Y0105223D01*
X0113451Y0088123D01*
X0103215Y0077886D01*
X0103215Y0076229D01*
X0103215Y0073330D01*
X0103050Y0073164D01*
X0102884Y0073330D01*
X0102884Y0077804D01*
X0105256Y0080176D01*
X0105256Y0080176D01*
X0106428Y0081348D01*
X0106428Y0105669D01*
X0106595Y0105502D01*
X0106960Y0105291D01*
X0106694Y0105445D02*
X0106428Y0105445D01*
X0109733Y0105445D02*
X0110933Y0105445D01*
X0110933Y0106643D02*
X0109733Y0106643D01*
X0109733Y0107842D02*
X0110933Y0107842D01*
X0110933Y0109040D02*
X0109733Y0109040D01*
X0109733Y0111437D02*
X0110933Y0111437D01*
X0110933Y0112636D02*
X0109733Y0112636D01*
X0109733Y0113834D02*
X0110933Y0113834D01*
X0110933Y0115033D02*
X0109733Y0115033D01*
X0109733Y0116231D02*
X0110933Y0116231D01*
X0113394Y0116231D02*
X0113451Y0116231D01*
X0113451Y0117430D02*
X0106428Y0117430D01*
X0106428Y0118628D02*
X0113451Y0118628D01*
X0113451Y0119827D02*
X0106428Y0119827D01*
X0106428Y0121025D02*
X0113451Y0121025D01*
X0113451Y0122224D02*
X0106428Y0122224D01*
X0106428Y0123422D02*
X0113451Y0123422D01*
X0113451Y0124621D02*
X0106428Y0124621D01*
X0106428Y0125819D02*
X0113451Y0125819D01*
X0113451Y0127018D02*
X0106428Y0127018D01*
X0106428Y0128216D02*
X0113451Y0128216D01*
X0113451Y0129415D02*
X0106428Y0129415D01*
X0106428Y0130613D02*
X0113451Y0130613D01*
X0113451Y0131812D02*
X0106428Y0131812D01*
X0106428Y0133010D02*
X0113451Y0133010D01*
X0113451Y0134209D02*
X0106428Y0134209D01*
X0106428Y0135407D02*
X0113451Y0135407D01*
X0113451Y0136606D02*
X0106428Y0136606D01*
X0106428Y0137804D02*
X0113451Y0137804D01*
X0113451Y0139003D02*
X0106428Y0139003D01*
X0106428Y0140201D02*
X0113259Y0140201D01*
X0112061Y0141400D02*
X0106428Y0141400D01*
X0106283Y0142598D02*
X0110862Y0142598D01*
X0109663Y0143797D02*
X0105084Y0143797D01*
X0105256Y0143625D02*
X0105256Y0143625D01*
X0103886Y0144995D02*
X0107903Y0144995D01*
X0107540Y0146194D02*
X0102687Y0146194D01*
X0102054Y0147392D02*
X0107774Y0147392D01*
X0109080Y0148591D02*
X0089892Y0148591D01*
X0089892Y0147392D02*
X0092896Y0147392D01*
X0091625Y0146194D02*
X0089892Y0146194D01*
X0089892Y0144995D02*
X0090797Y0144995D01*
X0094057Y0142598D02*
X0100626Y0142598D01*
X0101824Y0141400D02*
X0093436Y0141400D01*
X0093436Y0140201D02*
X0102428Y0140201D01*
X0102428Y0139003D02*
X0093436Y0139003D01*
X0093436Y0137804D02*
X0102428Y0137804D01*
X0102428Y0136606D02*
X0093436Y0136606D01*
X0093436Y0135407D02*
X0102428Y0135407D01*
X0102428Y0134209D02*
X0093436Y0134209D01*
X0093436Y0133010D02*
X0102428Y0133010D01*
X0102428Y0131812D02*
X0093436Y0131812D01*
X0093436Y0130613D02*
X0102428Y0130613D01*
X0102428Y0129415D02*
X0093436Y0129415D01*
X0093436Y0128216D02*
X0102428Y0128216D01*
X0102428Y0127018D02*
X0093436Y0127018D01*
X0093436Y0125819D02*
X0102428Y0125819D01*
X0102428Y0124621D02*
X0093436Y0124621D01*
X0093436Y0123422D02*
X0102428Y0123422D01*
X0102428Y0122224D02*
X0093436Y0122224D01*
X0093436Y0121025D02*
X0102428Y0121025D01*
X0102428Y0119827D02*
X0093436Y0119827D01*
X0093436Y0118628D02*
X0102428Y0118628D01*
X0102428Y0117430D02*
X0093436Y0117430D01*
X0093436Y0116231D02*
X0095303Y0116231D01*
X0094179Y0115033D02*
X0093436Y0115033D01*
X0093436Y0113834D02*
X0093683Y0113834D01*
X0093462Y0112636D02*
X0093436Y0112636D01*
X0093436Y0111437D02*
X0093462Y0111437D01*
X0093436Y0110239D02*
X0093896Y0110239D01*
X0093436Y0109040D02*
X0094619Y0109040D01*
X0093436Y0107842D02*
X0096048Y0107842D01*
X0093436Y0106643D02*
X0102428Y0106643D01*
X0102428Y0105445D02*
X0093436Y0105445D01*
X0093436Y0104246D02*
X0102428Y0104246D01*
X0102428Y0103048D02*
X0093436Y0103048D01*
X0093436Y0101849D02*
X0102428Y0101849D01*
X0102428Y0100651D02*
X0093436Y0100651D01*
X0093436Y0099452D02*
X0095491Y0099452D01*
X0098404Y0099452D02*
X0102428Y0099452D01*
X0102428Y0098253D02*
X0100428Y0098253D01*
X0101399Y0097055D02*
X0102428Y0097055D01*
X0102428Y0095856D02*
X0101895Y0095856D01*
X0102008Y0094658D02*
X0102428Y0094658D01*
X0102428Y0093459D02*
X0101962Y0093459D01*
X0102428Y0092261D02*
X0101466Y0092261D01*
X0100589Y0091062D02*
X0102428Y0091062D01*
X0102428Y0089864D02*
X0098792Y0089864D01*
X0095103Y0089864D02*
X0093436Y0089864D01*
X0093436Y0088665D02*
X0102428Y0088665D01*
X0102428Y0087467D02*
X0093436Y0087467D01*
X0093436Y0086268D02*
X0102428Y0086268D01*
X0102428Y0085070D02*
X0093436Y0085070D01*
X0093436Y0083871D02*
X0102428Y0083871D01*
X0102096Y0082673D02*
X0093436Y0082673D01*
X0093436Y0081474D02*
X0100898Y0081474D01*
X0100056Y0080633D02*
X0100056Y0080633D01*
X0099699Y0080276D02*
X0093436Y0080276D01*
X0094607Y0079077D02*
X0098885Y0079077D01*
X0098885Y0077879D02*
X0095805Y0077879D01*
X0097004Y0076680D02*
X0098885Y0076680D01*
X0098885Y0075482D02*
X0098202Y0075482D01*
X0098554Y0074283D02*
X0098885Y0074283D01*
X0094368Y0073660D02*
X0094219Y0073746D01*
X0093812Y0073855D01*
X0092312Y0073855D01*
X0092312Y0069588D01*
X0092134Y0069588D01*
X0092134Y0073855D01*
X0090634Y0073855D01*
X0090228Y0073746D01*
X0089892Y0073552D01*
X0089892Y0078135D01*
X0090607Y0077420D01*
X0094368Y0073660D01*
X0093744Y0074283D02*
X0089892Y0074283D01*
X0089892Y0075482D02*
X0092546Y0075482D01*
X0091347Y0076680D02*
X0089892Y0076680D01*
X0089892Y0077879D02*
X0090149Y0077879D01*
X0092134Y0073085D02*
X0092312Y0073085D01*
X0092312Y0071886D02*
X0092134Y0071886D01*
X0092134Y0070688D02*
X0092312Y0070688D01*
X0092312Y0068291D02*
X0092134Y0068291D01*
X0092134Y0067092D02*
X0092312Y0067092D01*
X0092312Y0065894D02*
X0092134Y0065894D01*
X0102884Y0074283D02*
X0103215Y0074283D01*
X0103215Y0075482D02*
X0102884Y0075482D01*
X0102884Y0076680D02*
X0103215Y0076680D01*
X0103215Y0077879D02*
X0102959Y0077879D01*
X0104158Y0079077D02*
X0104406Y0079077D01*
X0105356Y0080276D02*
X0105605Y0080276D01*
X0106428Y0081474D02*
X0106803Y0081474D01*
X0106428Y0082673D02*
X0108002Y0082673D01*
X0109200Y0083871D02*
X0106428Y0083871D01*
X0106428Y0085070D02*
X0110399Y0085070D01*
X0111597Y0086268D02*
X0106428Y0086268D01*
X0106428Y0087467D02*
X0112796Y0087467D01*
X0113451Y0088665D02*
X0106428Y0088665D01*
X0106428Y0089864D02*
X0113451Y0089864D01*
X0113451Y0091062D02*
X0106428Y0091062D01*
X0106428Y0092261D02*
X0113451Y0092261D01*
X0113451Y0093459D02*
X0106428Y0093459D01*
X0106428Y0094658D02*
X0113451Y0094658D01*
X0113451Y0095856D02*
X0106428Y0095856D01*
X0106428Y0097055D02*
X0113451Y0097055D01*
X0113451Y0098253D02*
X0106428Y0098253D01*
X0102428Y0107842D02*
X0100997Y0107842D01*
X0102425Y0109040D02*
X0102428Y0109040D01*
X0102428Y0116231D02*
X0101742Y0116231D01*
X0106428Y0116231D02*
X0107273Y0116231D01*
X0117451Y0117430D02*
X0122161Y0117430D01*
X0122161Y0117722D02*
X0122161Y0116261D01*
X0127711Y0116261D01*
X0127711Y0119111D01*
X0123550Y0119111D01*
X0123143Y0119002D01*
X0122778Y0118792D01*
X0122481Y0118494D01*
X0122270Y0118129D01*
X0122161Y0117722D01*
X0122615Y0118628D02*
X0117451Y0118628D01*
X0117451Y0119827D02*
X0157546Y0119827D01*
X0157546Y0121025D02*
X0147139Y0121025D01*
X0147754Y0122224D02*
X0157546Y0122224D01*
X0156949Y0118628D02*
X0156541Y0118628D01*
X0161546Y0122224D02*
X0163307Y0122224D01*
X0161928Y0123422D02*
X0161546Y0123422D01*
X0163219Y0127788D02*
X0162800Y0128207D01*
X0163638Y0128207D01*
X0163219Y0127788D01*
X0158261Y0127089D02*
X0156749Y0128601D01*
X0147692Y0128601D01*
X0147754Y0128539D01*
X0147754Y0127089D01*
X0158261Y0127089D01*
X0157134Y0128216D02*
X0147754Y0128216D01*
X0140850Y0121025D02*
X0140225Y0121025D01*
X0137114Y0121025D02*
X0135914Y0121025D01*
X0135914Y0122224D02*
X0137114Y0122224D01*
X0137114Y0123422D02*
X0135914Y0123422D01*
X0135914Y0124621D02*
X0127808Y0124621D01*
X0128382Y0125819D02*
X0132355Y0125819D01*
X0132355Y0127018D02*
X0128382Y0127018D01*
X0128382Y0128216D02*
X0132355Y0128216D01*
X0132355Y0123422D02*
X0126610Y0123422D01*
X0125411Y0122224D02*
X0132355Y0122224D01*
X0132804Y0121025D02*
X0117451Y0121025D01*
X0117451Y0122224D02*
X0120452Y0122224D01*
X0119254Y0123422D02*
X0117451Y0123422D01*
X0117451Y0124621D02*
X0118055Y0124621D01*
X0117482Y0125819D02*
X0117451Y0125819D01*
X0117451Y0127018D02*
X0117482Y0127018D01*
X0117451Y0128216D02*
X0117482Y0128216D01*
X0117451Y0129415D02*
X0117482Y0129415D01*
X0117451Y0130613D02*
X0118386Y0130613D01*
X0117451Y0131812D02*
X0119585Y0131812D01*
X0127711Y0118628D02*
X0127811Y0118628D01*
X0127811Y0117430D02*
X0127711Y0117430D01*
X0132907Y0118628D02*
X0147381Y0118628D01*
X0146761Y0117430D02*
X0133361Y0117430D01*
X0122575Y0113834D02*
X0121987Y0113834D01*
X0122161Y0115033D02*
X0120868Y0115033D01*
X0121991Y0088665D02*
X0122652Y0088665D01*
X0093467Y0098253D02*
X0093436Y0098253D01*
X0072900Y0107842D02*
X0069501Y0107842D01*
X0070929Y0109040D02*
X0072900Y0109040D01*
X0072900Y0110239D02*
X0071652Y0110239D01*
X0072087Y0111437D02*
X0072900Y0111437D01*
X0072900Y0112636D02*
X0072087Y0112636D01*
X0071866Y0113834D02*
X0072900Y0113834D01*
X0072900Y0115033D02*
X0071369Y0115033D01*
X0070246Y0116231D02*
X0072900Y0116231D01*
X0051796Y0116231D02*
X0051189Y0116231D01*
X0040617Y0080276D02*
X0026436Y0080276D01*
X0026436Y0079077D02*
X0040617Y0079077D01*
X0040617Y0077879D02*
X0039562Y0077879D01*
X0040436Y0076680D02*
X0040617Y0076680D01*
X0040617Y0073085D02*
X0040297Y0073085D01*
X0040617Y0071886D02*
X0039227Y0071886D01*
X0040617Y0070688D02*
X0026436Y0070688D01*
X0026436Y0069489D02*
X0040617Y0069489D01*
X0040617Y0068291D02*
X0038150Y0068291D01*
X0038121Y0068320D02*
X0036703Y0068907D01*
X0035168Y0068907D01*
X0033751Y0068320D01*
X0032665Y0067235D01*
X0032078Y0065817D01*
X0032078Y0064283D01*
X0032665Y0062865D01*
X0033751Y0061780D01*
X0035168Y0061193D01*
X0036703Y0061193D01*
X0038121Y0061780D01*
X0039206Y0062865D01*
X0039793Y0064283D01*
X0039793Y0065817D01*
X0039206Y0067235D01*
X0038121Y0068320D01*
X0039265Y0067092D02*
X0040617Y0067092D01*
X0040617Y0065894D02*
X0039762Y0065894D01*
X0039793Y0064695D02*
X0040617Y0064695D01*
X0040617Y0063497D02*
X0039468Y0063497D01*
X0038639Y0062298D02*
X0040617Y0062298D01*
X0040617Y0061100D02*
X0026436Y0061100D01*
X0026436Y0059901D02*
X0040617Y0059901D01*
X0040617Y0058703D02*
X0038198Y0058703D01*
X0039937Y0057504D02*
X0040617Y0057504D01*
X0040591Y0056306D02*
X0040617Y0056306D01*
X0040617Y0052710D02*
X0040051Y0052710D01*
X0040617Y0051512D02*
X0038473Y0051512D01*
X0035398Y0051512D02*
X0027473Y0051512D01*
X0026436Y0050313D02*
X0040617Y0050313D01*
X0040617Y0049115D02*
X0026436Y0049115D01*
X0029525Y0047916D02*
X0033346Y0047916D01*
X0033751Y0048320D02*
X0032665Y0047235D01*
X0032078Y0045817D01*
X0032078Y0044283D01*
X0032665Y0042865D01*
X0033751Y0041780D01*
X0035168Y0041193D01*
X0036703Y0041193D01*
X0038121Y0041780D01*
X0039206Y0042865D01*
X0039793Y0044283D01*
X0039793Y0045817D01*
X0039206Y0047235D01*
X0038121Y0048320D01*
X0036703Y0048907D01*
X0035168Y0048907D01*
X0033751Y0048320D01*
X0032451Y0046718D02*
X0030420Y0046718D01*
X0030793Y0045519D02*
X0032078Y0045519D01*
X0032078Y0044320D02*
X0030793Y0044320D01*
X0030312Y0043122D02*
X0032559Y0043122D01*
X0033607Y0041923D02*
X0029264Y0041923D01*
X0026436Y0040725D02*
X0040535Y0040725D01*
X0040535Y0041923D02*
X0038264Y0041923D01*
X0039312Y0043122D02*
X0040858Y0043122D01*
X0041609Y0044320D02*
X0039793Y0044320D01*
X0039793Y0045519D02*
X0040894Y0045519D01*
X0040617Y0046718D02*
X0039420Y0046718D01*
X0038525Y0047916D02*
X0040617Y0047916D01*
X0033820Y0052710D02*
X0029051Y0052710D01*
X0029638Y0053909D02*
X0033233Y0053909D01*
X0033078Y0055107D02*
X0029793Y0055107D01*
X0029591Y0056306D02*
X0033280Y0056306D01*
X0033935Y0057504D02*
X0028937Y0057504D01*
X0027198Y0058703D02*
X0035674Y0058703D01*
X0033232Y0062298D02*
X0029639Y0062298D01*
X0030468Y0063497D02*
X0032404Y0063497D01*
X0032078Y0064695D02*
X0030793Y0064695D01*
X0030762Y0065894D02*
X0032110Y0065894D01*
X0032606Y0067092D02*
X0030265Y0067092D01*
X0029150Y0068291D02*
X0033721Y0068291D01*
X0034644Y0071886D02*
X0028227Y0071886D01*
X0029297Y0073085D02*
X0033574Y0073085D01*
X0033436Y0076680D02*
X0029436Y0076680D01*
X0029793Y0075817D02*
X0029793Y0074283D01*
X0028562Y0077879D02*
X0034309Y0077879D01*
X0044617Y0071886D02*
X0046135Y0071886D01*
X0046135Y0070688D02*
X0044617Y0070688D01*
X0041009Y0039526D02*
X0026436Y0039526D01*
X0028102Y0038328D02*
X0034769Y0038328D01*
X0033622Y0037129D02*
X0029250Y0037129D01*
X0029746Y0035931D02*
X0033125Y0035931D01*
X0033078Y0034732D02*
X0029793Y0034732D01*
X0029483Y0033534D02*
X0033388Y0033534D01*
X0034195Y0032335D02*
X0028676Y0032335D01*
X0028108Y0028740D02*
X0034764Y0028740D01*
X0032972Y0027541D02*
X0029900Y0027541D01*
X0030575Y0026343D02*
X0032296Y0026343D01*
X0032078Y0025144D02*
X0030793Y0025144D01*
X0030654Y0023946D02*
X0032218Y0023946D01*
X0032783Y0022747D02*
X0030088Y0022747D01*
X0028563Y0021549D02*
X0034308Y0021549D01*
X0036168Y0018907D02*
X0034751Y0018320D01*
X0033665Y0017235D01*
X0033078Y0015817D01*
X0033078Y0014283D01*
X0033665Y0012865D01*
X0034751Y0011780D01*
X0036168Y0011193D01*
X0037703Y0011193D01*
X0039121Y0011780D01*
X0040206Y0012865D01*
X0040793Y0014283D01*
X0040793Y0015817D01*
X0040206Y0017235D01*
X0039121Y0018320D01*
X0037703Y0018907D01*
X0036168Y0018907D01*
X0034384Y0017953D02*
X0028488Y0017953D01*
X0029405Y0016755D02*
X0033467Y0016755D01*
X0033078Y0015556D02*
X0029793Y0015556D01*
X0029793Y0014358D02*
X0033078Y0014358D01*
X0033544Y0013159D02*
X0029328Y0013159D01*
X0028302Y0011961D02*
X0034570Y0011961D01*
X0033859Y0008365D02*
X0029616Y0008365D01*
X0030635Y0007167D02*
X0032637Y0007167D01*
X0032141Y0005968D02*
X0031101Y0005968D01*
X0027222Y0005968D02*
X0026650Y0005968D01*
X0026650Y0007167D02*
X0027222Y0007167D01*
X0027222Y0008365D02*
X0026650Y0008365D01*
X0026436Y0009564D02*
X0040186Y0009564D01*
X0040141Y0009847D02*
X0040248Y0009170D01*
X0040472Y0008481D01*
X0040801Y0007836D01*
X0041226Y0007250D01*
X0041738Y0006738D01*
X0042324Y0006313D01*
X0042969Y0005984D01*
X0043658Y0005760D01*
X0044373Y0005647D01*
X0047335Y0005647D01*
X0047335Y0009847D01*
X0040141Y0009847D01*
X0040141Y0010647D02*
X0047335Y0010647D01*
X0047335Y0014847D01*
X0044373Y0014847D01*
X0043658Y0014734D01*
X0042969Y0014510D01*
X0042324Y0014181D01*
X0041738Y0013756D01*
X0041226Y0013244D01*
X0040801Y0012658D01*
X0040472Y0012013D01*
X0040248Y0011324D01*
X0040141Y0010647D01*
X0040159Y0010762D02*
X0026436Y0010762D01*
X0026436Y0019152D02*
X0040642Y0019152D01*
X0040535Y0020350D02*
X0026436Y0020350D01*
X0037563Y0021549D02*
X0040728Y0021549D01*
X0041296Y0022747D02*
X0039088Y0022747D01*
X0039654Y0023946D02*
X0042690Y0023946D01*
X0042385Y0027541D02*
X0038900Y0027541D01*
X0037108Y0028740D02*
X0041059Y0028740D01*
X0047335Y0028740D02*
X0048135Y0028740D01*
X0048135Y0029938D02*
X0047335Y0029938D01*
X0047335Y0027541D02*
X0048135Y0027541D01*
X0048135Y0032335D02*
X0047335Y0032335D01*
X0047335Y0033534D02*
X0048135Y0033534D01*
X0048135Y0034732D02*
X0047335Y0034732D01*
X0047335Y0035931D02*
X0048135Y0035931D01*
X0054015Y0034732D02*
X0059514Y0034732D01*
X0059514Y0033534D02*
X0054865Y0033534D01*
X0041974Y0038328D02*
X0039102Y0038328D01*
X0039488Y0017953D02*
X0041139Y0017953D01*
X0040405Y0016755D02*
X0042287Y0016755D01*
X0040793Y0015556D02*
X0116321Y0015556D01*
X0117131Y0016366D02*
X0113938Y0013174D01*
X0113938Y0008659D01*
X0117131Y0005466D01*
X0121646Y0005466D01*
X0124838Y0008659D01*
X0124838Y0013174D01*
X0121646Y0016366D01*
X0117131Y0016366D01*
X0115123Y0014358D02*
X0052799Y0014358D01*
X0052501Y0014510D02*
X0053146Y0014181D01*
X0053732Y0013756D01*
X0054244Y0013244D01*
X0054669Y0012658D01*
X0054998Y0012013D01*
X0055222Y0011324D01*
X0055329Y0010647D01*
X0048135Y0010647D01*
X0047335Y0010647D01*
X0047335Y0009847D01*
X0048135Y0009847D01*
X0048135Y0010647D01*
X0048135Y0014847D01*
X0051097Y0014847D01*
X0051812Y0014734D01*
X0052501Y0014510D01*
X0054305Y0013159D02*
X0113938Y0013159D01*
X0113938Y0011961D02*
X0055015Y0011961D01*
X0055311Y0010762D02*
X0113938Y0010762D01*
X0113938Y0009564D02*
X0055284Y0009564D01*
X0055329Y0009847D02*
X0048135Y0009847D01*
X0048135Y0005647D01*
X0051097Y0005647D01*
X0051812Y0005760D01*
X0052501Y0005984D01*
X0053146Y0006313D01*
X0053732Y0006738D01*
X0054244Y0007250D01*
X0054669Y0007836D01*
X0054998Y0008481D01*
X0055222Y0009170D01*
X0055329Y0009847D01*
X0054939Y0008365D02*
X0114232Y0008365D01*
X0115430Y0007167D02*
X0054160Y0007167D01*
X0052452Y0005968D02*
X0116629Y0005968D01*
X0122148Y0005968D02*
X0128440Y0005968D01*
X0128942Y0005466D02*
X0133457Y0005466D01*
X0136649Y0008659D01*
X0136649Y0013174D01*
X0133457Y0016366D01*
X0128942Y0016366D01*
X0125749Y0013174D01*
X0125749Y0008659D01*
X0128942Y0005466D01*
X0127242Y0007167D02*
X0123346Y0007167D01*
X0124545Y0008365D02*
X0126043Y0008365D01*
X0125749Y0009564D02*
X0124838Y0009564D01*
X0124838Y0010762D02*
X0125749Y0010762D01*
X0125749Y0011961D02*
X0124838Y0011961D01*
X0124838Y0013159D02*
X0125749Y0013159D01*
X0126934Y0014358D02*
X0123654Y0014358D01*
X0122456Y0015556D02*
X0128132Y0015556D01*
X0134267Y0015556D02*
X0139943Y0015556D01*
X0140753Y0016366D02*
X0137560Y0013174D01*
X0137560Y0008659D01*
X0140753Y0005466D01*
X0145268Y0005466D01*
X0148460Y0008659D01*
X0148460Y0013174D01*
X0145268Y0016366D01*
X0140753Y0016366D01*
X0138745Y0014358D02*
X0135465Y0014358D01*
X0136649Y0013159D02*
X0137560Y0013159D01*
X0137560Y0011961D02*
X0136649Y0011961D01*
X0136649Y0010762D02*
X0137560Y0010762D01*
X0137560Y0009564D02*
X0136649Y0009564D01*
X0136356Y0008365D02*
X0137854Y0008365D01*
X0139053Y0007167D02*
X0135157Y0007167D01*
X0133959Y0005968D02*
X0140251Y0005968D01*
X0145770Y0005968D02*
X0152062Y0005968D01*
X0150864Y0007167D02*
X0146968Y0007167D01*
X0148167Y0008365D02*
X0149665Y0008365D01*
X0149372Y0009564D02*
X0148460Y0009564D01*
X0148460Y0010762D02*
X0149372Y0010762D01*
X0149372Y0011961D02*
X0148460Y0011961D01*
X0148460Y0013159D02*
X0149372Y0013159D01*
X0150556Y0014358D02*
X0147276Y0014358D01*
X0146078Y0015556D02*
X0151754Y0015556D01*
X0158779Y0007167D02*
X0162236Y0007167D01*
X0161771Y0005968D02*
X0157581Y0005968D01*
X0169420Y0046718D02*
X0172440Y0046718D01*
X0171241Y0047916D02*
X0168525Y0047916D01*
X0169296Y0127018D02*
X0172139Y0127018D01*
X0163605Y0133010D02*
X0163115Y0133010D01*
X0163109Y0134209D02*
X0161916Y0134209D01*
X0162279Y0143797D02*
X0159484Y0143797D01*
X0158371Y0144995D02*
X0162078Y0144995D01*
X0162234Y0146194D02*
X0157172Y0146194D01*
X0162823Y0147392D02*
X0150129Y0147392D01*
X0150129Y0146194D02*
X0150896Y0146194D01*
X0151172Y0148591D02*
X0149896Y0148591D01*
X0149973Y0149789D02*
X0148698Y0149789D01*
X0148774Y0150988D02*
X0147499Y0150988D01*
X0148584Y0152187D02*
X0146301Y0152187D01*
X0145102Y0153385D02*
X0148584Y0153385D01*
X0148584Y0154584D02*
X0143904Y0154584D01*
X0142705Y0155782D02*
X0148673Y0155782D01*
X0149871Y0156981D02*
X0119614Y0156981D01*
X0118416Y0158179D02*
X0151070Y0158179D01*
X0156998Y0158179D02*
X0160978Y0158179D01*
X0159780Y0159378D02*
X0094300Y0159378D01*
X0093102Y0158179D02*
X0111700Y0158179D01*
X0110501Y0156981D02*
X0091903Y0156981D01*
X0090705Y0155782D02*
X0109608Y0155782D01*
X0109608Y0154584D02*
X0090926Y0154584D01*
X0091473Y0153385D02*
X0109608Y0153385D01*
X0109608Y0152187D02*
X0091317Y0152187D01*
X0090386Y0150988D02*
X0110192Y0150988D01*
X0117527Y0148591D02*
X0144240Y0148591D01*
X0143041Y0149789D02*
X0118725Y0149789D01*
X0119924Y0150988D02*
X0141842Y0150988D01*
X0136703Y0166569D02*
X0162389Y0166569D01*
X0163198Y0167767D02*
X0137336Y0167767D01*
X0127066Y0180951D02*
X0127066Y0180951D01*
X0127066Y0182149D02*
X0127066Y0182149D01*
X0127066Y0183348D02*
X0127066Y0183348D01*
X0127066Y0184546D02*
X0127066Y0184546D01*
X0127066Y0185745D02*
X0127066Y0185745D01*
X0124787Y0185745D02*
X0124511Y0185745D01*
X0118936Y0189340D02*
X0117872Y0189340D01*
X0117872Y0190539D02*
X0118936Y0190539D01*
X0118936Y0191737D02*
X0117872Y0191737D01*
X0123283Y0194134D02*
X0124094Y0194134D01*
X0131815Y0188142D02*
X0132592Y0188142D01*
X0150842Y0194134D02*
X0162678Y0194134D01*
X0166650Y0194134D02*
X0167222Y0194134D01*
X0167222Y0194764D02*
X0167222Y0190793D01*
X0169804Y0190793D01*
X0170211Y0190902D01*
X0170576Y0191112D01*
X0170873Y0191410D01*
X0171084Y0191775D01*
X0171193Y0192182D01*
X0171193Y0194764D01*
X0167222Y0194764D01*
X0167222Y0192936D02*
X0166650Y0192936D01*
X0166650Y0191737D02*
X0167222Y0191737D01*
X0168299Y0188142D02*
X0174572Y0188142D01*
X0173545Y0186943D02*
X0169327Y0186943D01*
X0169793Y0185745D02*
X0173078Y0185745D01*
X0173078Y0184546D02*
X0169793Y0184546D01*
X0169406Y0183348D02*
X0173465Y0183348D01*
X0174381Y0182149D02*
X0168490Y0182149D01*
X0168557Y0178554D02*
X0173515Y0178554D01*
X0172348Y0177355D02*
X0170086Y0177355D01*
X0170653Y0176157D02*
X0171819Y0176157D01*
X0171678Y0174764D02*
X0171678Y0174715D01*
X0171783Y0174053D01*
X0171990Y0173416D01*
X0172294Y0172819D01*
X0172688Y0172276D01*
X0173162Y0171803D01*
X0173704Y0171409D01*
X0174301Y0171104D01*
X0174939Y0170897D01*
X0175601Y0170793D01*
X0175650Y0170793D01*
X0175650Y0174764D01*
X0171678Y0174764D01*
X0170793Y0174958D02*
X0175650Y0174958D01*
X0175650Y0173760D02*
X0176222Y0173760D01*
X0176222Y0172561D02*
X0175650Y0172561D01*
X0175650Y0171363D02*
X0176222Y0171363D01*
X0176436Y0170164D02*
X0174650Y0170164D01*
X0173795Y0171363D02*
X0173451Y0171363D01*
X0172481Y0172561D02*
X0169902Y0172561D01*
X0170577Y0173760D02*
X0171878Y0173760D01*
X0175650Y0176157D02*
X0176222Y0176157D01*
X0176222Y0177355D02*
X0175650Y0177355D01*
X0175650Y0178554D02*
X0176222Y0178554D01*
X0176436Y0168966D02*
X0175848Y0168966D01*
X0172589Y0166569D02*
X0169482Y0166569D01*
X0169793Y0165370D02*
X0173078Y0165370D01*
X0173124Y0164172D02*
X0169747Y0164172D01*
X0169251Y0162973D02*
X0173621Y0162973D01*
X0174763Y0161775D02*
X0168108Y0161775D01*
X0165437Y0159378D02*
X0176436Y0159378D01*
X0176436Y0160576D02*
X0164238Y0160576D01*
X0163763Y0161775D02*
X0163040Y0161775D01*
X0162621Y0162973D02*
X0161841Y0162973D01*
X0162177Y0156981D02*
X0158197Y0156981D01*
X0159395Y0155782D02*
X0163078Y0155782D01*
X0163078Y0154584D02*
X0159484Y0154584D01*
X0159484Y0153385D02*
X0163450Y0153385D01*
X0170317Y0152187D02*
X0173344Y0152187D01*
X0172450Y0153385D02*
X0170421Y0153385D01*
X0170793Y0154584D02*
X0172078Y0154584D01*
X0172078Y0155782D02*
X0170793Y0155782D01*
X0170311Y0156981D02*
X0172560Y0156981D01*
X0173609Y0158179D02*
X0169262Y0158179D01*
X0168674Y0167767D02*
X0171390Y0167767D01*
X0171062Y0191737D02*
X0173853Y0191737D01*
X0172636Y0192936D02*
X0171193Y0192936D01*
X0171193Y0194134D02*
X0172140Y0194134D01*
X0099037Y0143797D02*
X0095821Y0143797D01*
X0096198Y0144995D02*
X0097897Y0144995D01*
X0097697Y0146194D02*
X0095971Y0146194D01*
X0094699Y0147392D02*
X0098140Y0147392D01*
X0048135Y0014358D02*
X0047335Y0014358D01*
X0047335Y0013159D02*
X0048135Y0013159D01*
X0048135Y0011961D02*
X0047335Y0011961D01*
X0047335Y0010762D02*
X0048135Y0010762D01*
X0048135Y0009564D02*
X0047335Y0009564D01*
X0047335Y0008365D02*
X0048135Y0008365D01*
X0048135Y0007167D02*
X0047335Y0007167D01*
X0047335Y0005968D02*
X0048135Y0005968D01*
X0043018Y0005968D02*
X0039731Y0005968D01*
X0039234Y0007167D02*
X0041310Y0007167D01*
X0040531Y0008365D02*
X0038012Y0008365D01*
X0039302Y0011961D02*
X0040455Y0011961D01*
X0040328Y0013159D02*
X0041165Y0013159D01*
X0040793Y0014358D02*
X0042671Y0014358D01*
D27*
X0081199Y0043987D03*
X0088680Y0043987D03*
X0092617Y0030207D03*
X0091081Y0025050D03*
X0092223Y0060916D03*
X0115058Y0065247D03*
X0119388Y0077845D03*
X0120963Y0090837D03*
X0120570Y0097924D03*
X0119782Y0112885D03*
X0111514Y0117609D03*
X0100097Y0145956D03*
X0093798Y0145168D03*
X0089073Y0153042D03*
X0083562Y0151467D03*
X0073325Y0153830D03*
X0067420Y0151467D03*
X0067026Y0145168D03*
X0109940Y0146349D03*
X0109743Y0168593D03*
X0134743Y0168003D03*
X0161121Y0115247D03*
X0161121Y0110522D03*
X0159152Y0104223D03*
X0161514Y0100680D03*
X0160333Y0086507D03*
X0152853Y0076664D03*
X0139467Y0092412D03*
D28*
X0139467Y0098318D01*
X0136711Y0101074D01*
X0127899Y0101074D01*
X0127761Y0101211D01*
X0127761Y0096211D02*
X0122282Y0096211D01*
X0120570Y0097924D01*
X0121337Y0091211D02*
X0120963Y0090837D01*
X0121337Y0091211D02*
X0127761Y0091211D01*
X0127761Y0081211D02*
X0122755Y0081211D01*
X0119388Y0077845D01*
X0115451Y0087294D02*
X0105215Y0077058D01*
X0105215Y0069499D01*
X0105215Y0056979D01*
X0106396Y0055798D01*
X0158365Y0055798D01*
X0161514Y0058948D01*
X0161514Y0076664D01*
X0165058Y0080207D01*
X0172093Y0080207D01*
X0176936Y0085050D01*
X0161514Y0100680D02*
X0157046Y0096211D01*
X0151961Y0096211D01*
X0151981Y0091231D02*
X0151961Y0091211D01*
X0151981Y0091231D02*
X0159546Y0091231D01*
X0160333Y0090444D01*
X0160333Y0086507D01*
X0158148Y0081211D02*
X0159152Y0080207D01*
X0159152Y0078633D01*
X0157184Y0076664D01*
X0152853Y0076664D01*
X0151961Y0081211D02*
X0158148Y0081211D01*
X0156810Y0106211D02*
X0151961Y0106211D01*
X0156810Y0106211D02*
X0161121Y0110522D01*
X0157085Y0111211D02*
X0161121Y0115247D01*
X0159546Y0118396D02*
X0157577Y0116428D01*
X0152177Y0116428D01*
X0151961Y0116211D01*
X0151961Y0111211D02*
X0157085Y0111211D01*
X0159546Y0118396D02*
X0159546Y0123908D01*
X0158365Y0125089D01*
X0143995Y0125089D01*
X0151672Y0135719D02*
X0148129Y0139263D01*
X0148129Y0147530D01*
X0141829Y0153830D01*
X0115058Y0153830D01*
X0109940Y0146349D02*
X0115451Y0140837D01*
X0115451Y0087294D01*
X0104428Y0082176D02*
X0104428Y0141625D01*
X0100097Y0145956D01*
X0093798Y0145168D02*
X0091436Y0142806D01*
X0091436Y0079420D01*
X0096554Y0074302D01*
X0096554Y0069499D01*
X0096554Y0046743D01*
X0098916Y0044381D01*
X0165266Y0044381D01*
X0165936Y0045050D01*
X0170963Y0040050D02*
X0077656Y0040050D01*
X0074900Y0042806D01*
X0074900Y0069499D01*
X0074900Y0143987D01*
X0067420Y0151467D01*
X0067026Y0145168D02*
X0059152Y0137294D01*
X0059152Y0091231D01*
X0066829Y0083554D01*
X0066829Y0061507D01*
X0070570Y0057767D01*
X0070570Y0039263D01*
X0074900Y0034932D01*
X0166818Y0034932D01*
X0171723Y0039263D02*
X0175936Y0035050D01*
X0171723Y0039263D02*
X0171723Y0039290D01*
X0170963Y0040050D01*
X0176936Y0045050D02*
X0171699Y0050286D01*
X0102459Y0050286D01*
X0100885Y0051861D01*
X0100885Y0069499D01*
X0100885Y0078633D01*
X0104428Y0082176D01*
X0087892Y0069499D02*
X0087892Y0151861D01*
X0089073Y0153042D01*
X0083562Y0151467D02*
X0093798Y0161704D01*
X0160282Y0161704D01*
X0166936Y0155050D01*
X0169388Y0150286D02*
X0171751Y0147924D01*
X0171751Y0139235D01*
X0175936Y0135050D01*
X0171778Y0130207D02*
X0176936Y0125050D01*
X0171778Y0130207D02*
X0163089Y0130207D01*
X0157577Y0135719D01*
X0151672Y0135719D01*
X0154034Y0141625D02*
X0160361Y0141625D01*
X0166936Y0135050D01*
X0165936Y0125050D02*
X0163129Y0125050D01*
X0157577Y0130601D01*
X0126081Y0130601D01*
X0122932Y0127452D01*
X0119782Y0112885D02*
X0121455Y0111211D01*
X0127761Y0111211D01*
X0157184Y0150286D02*
X0169388Y0150286D01*
X0157184Y0150286D02*
X0154034Y0153436D01*
X0137105Y0170365D02*
X0134743Y0168003D01*
X0137105Y0170365D02*
X0171621Y0170365D01*
X0176936Y0165050D01*
X0137302Y0178436D02*
X0133168Y0174302D01*
X0062302Y0174302D01*
X0041554Y0195050D01*
X0036936Y0195050D01*
X0035936Y0165050D02*
X0046948Y0154038D01*
X0046948Y0123908D01*
X0054034Y0116822D01*
X0054034Y0088081D01*
X0061514Y0080601D01*
X0061514Y0024696D01*
X0057066Y0020247D01*
X0047735Y0020247D01*
X0047735Y0041507D02*
X0042617Y0046625D01*
X0042617Y0149369D01*
X0036936Y0155050D01*
X0073325Y0153830D02*
X0079231Y0147924D01*
X0079231Y0069499D01*
X0079231Y0045956D01*
X0081199Y0043987D01*
X0087892Y0044774D02*
X0088680Y0043987D01*
X0087892Y0044774D02*
X0087892Y0069499D01*
X0083562Y0069499D02*
X0083562Y0151467D01*
X0137302Y0178436D02*
X0137302Y0182471D01*
X0070570Y0069499D02*
X0070570Y0057767D01*
X0092617Y0030207D02*
X0171778Y0030207D01*
X0176936Y0025050D01*
X0165936Y0025050D02*
X0091081Y0025050D01*
M02*
