G75*
%MOIN*%
%OFA0B0*%
%FSLAX25Y25*%
%IPPOS*%
%LPD*%
%AMOC8*
5,1,8,0,0,1.08239X$1,22.5*
%
%ADD10C,0.00600*%
%ADD11C,0.01600*%
%ADD12C,0.01200*%
%ADD13C,0.00000*%
%ADD14C,0.00500*%
%ADD15C,0.00700*%
%ADD16C,0.00400*%
%ADD17C,0.01000*%
%ADD18R,0.14552X0.00131*%
%ADD19R,0.15732X0.00131*%
%ADD20R,0.16650X0.00131*%
%ADD21R,0.17306X0.00131*%
%ADD22R,0.17961X0.00131*%
%ADD23R,0.18485X0.00131*%
%ADD24R,0.18879X0.00131*%
%ADD25R,0.19272X0.00131*%
%ADD26R,0.19665X0.00131*%
%ADD27R,0.20059X0.00131*%
%ADD28R,0.20452X0.00131*%
%ADD29R,0.20714X0.00131*%
%ADD30R,0.20976X0.00131*%
%ADD31R,0.21370X0.00131*%
%ADD32R,0.21501X0.00131*%
%ADD33R,0.21763X0.00131*%
%ADD34R,0.22025X0.00131*%
%ADD35R,0.22287X0.00131*%
%ADD36R,0.22419X0.00131*%
%ADD37R,0.22681X0.00131*%
%ADD38R,0.22812X0.00131*%
%ADD39R,0.23074X0.00131*%
%ADD40R,0.23205X0.00131*%
%ADD41R,0.23336X0.00131*%
%ADD42R,0.23598X0.00131*%
%ADD43R,0.23730X0.00131*%
%ADD44R,0.23861X0.00131*%
%ADD45R,0.23992X0.00131*%
%ADD46R,0.24123X0.00131*%
%ADD47R,0.24385X0.00131*%
%ADD48R,0.24516X0.00131*%
%ADD49R,0.24647X0.00131*%
%ADD50R,0.24778X0.00131*%
%ADD51R,0.24909X0.00131*%
%ADD52R,0.25041X0.00131*%
%ADD53R,0.25172X0.00131*%
%ADD54R,0.25303X0.00131*%
%ADD55R,0.25434X0.00131*%
%ADD56R,0.25565X0.00131*%
%ADD57R,0.25696X0.00131*%
%ADD58R,0.25827X0.00131*%
%ADD59R,0.25958X0.00131*%
%ADD60R,0.26089X0.00131*%
%ADD61R,0.26220X0.00131*%
%ADD62R,0.26352X0.00131*%
%ADD63R,0.26483X0.00131*%
%ADD64R,0.26614X0.00131*%
%ADD65R,0.26745X0.00131*%
%ADD66R,0.26876X0.00131*%
%ADD67R,0.27007X0.00131*%
%ADD68R,0.27138X0.00131*%
%ADD69R,0.27269X0.00131*%
%ADD70R,0.27400X0.00131*%
%ADD71R,0.27531X0.00131*%
%ADD72R,0.27663X0.00131*%
%ADD73R,0.27794X0.00131*%
%ADD74R,0.27925X0.00131*%
%ADD75R,0.28056X0.00131*%
%ADD76R,0.30809X0.00131*%
%ADD77R,0.31465X0.00131*%
%ADD78R,0.31858X0.00131*%
%ADD79R,0.32251X0.00131*%
%ADD80R,0.32513X0.00131*%
%ADD81R,0.32644X0.00131*%
%ADD82R,0.32776X0.00131*%
%ADD83R,0.32382X0.00131*%
%ADD84R,0.31989X0.00131*%
%ADD85R,0.31596X0.00131*%
%ADD86R,0.31071X0.00131*%
%ADD87R,0.07735X0.00131*%
%ADD88R,0.07604X0.00131*%
%ADD89R,0.18223X0.00131*%
%ADD90R,0.07473X0.00131*%
%ADD91R,0.07342X0.00131*%
%ADD92R,0.17830X0.00131*%
%ADD93R,0.17699X0.00131*%
%ADD94R,0.17568X0.00131*%
%ADD95R,0.17043X0.00131*%
%ADD96R,0.16781X0.00131*%
%ADD97R,0.16388X0.00131*%
%ADD98R,0.16126X0.00131*%
%ADD99R,0.15863X0.00131*%
%ADD100R,0.15601X0.00131*%
%ADD101R,0.15077X0.00131*%
%ADD102R,0.12324X0.00131*%
%ADD103R,0.01835X0.00131*%
%ADD104R,0.11930X0.00131*%
%ADD105R,0.11799X0.00131*%
%ADD106R,0.11406X0.00131*%
%ADD107R,0.11013X0.00131*%
%ADD108R,0.10750X0.00131*%
%ADD109R,0.10357X0.00131*%
%ADD110R,0.10226X0.00131*%
%ADD111R,0.10095X0.00131*%
%ADD112R,0.02491X0.00131*%
%ADD113R,0.04457X0.00131*%
%ADD114R,0.14946X0.00131*%
%ADD115R,0.14815X0.00131*%
%ADD116R,0.14683X0.00131*%
%ADD117R,0.14421X0.00131*%
%ADD118R,0.12061X0.00131*%
%ADD119R,0.01967X0.00131*%
%ADD120R,0.01180X0.00131*%
%ADD121R,0.00524X0.00131*%
%ADD122R,0.11537X0.00131*%
%ADD123R,0.02098X0.00131*%
%ADD124R,0.06162X0.00131*%
%ADD125R,0.01442X0.00131*%
%ADD126R,0.05637X0.00131*%
%ADD127R,0.00262X0.00131*%
%ADD128R,0.04982X0.00131*%
%ADD129R,0.01704X0.00131*%
%ADD130R,0.04195X0.00131*%
%ADD131R,0.03409X0.00131*%
%ADD132R,0.01049X0.00131*%
%ADD133R,0.00656X0.00131*%
%ADD134R,0.00393X0.00131*%
%ADD135R,0.00131X0.00131*%
%ADD136R,0.00918X0.00131*%
%ADD137R,0.02229X0.00131*%
%ADD138R,0.02753X0.00131*%
%ADD139R,0.03015X0.00131*%
%ADD140R,0.03278X0.00131*%
%ADD141R,0.03540X0.00131*%
%ADD142R,0.03671X0.00131*%
%ADD143R,0.03802X0.00131*%
%ADD144R,0.04064X0.00131*%
%ADD145R,0.04326X0.00131*%
%ADD146R,0.04589X0.00131*%
%ADD147R,0.04851X0.00131*%
%ADD148R,0.05113X0.00131*%
%ADD149R,0.05375X0.00131*%
%ADD150R,0.05900X0.00131*%
%ADD151R,0.06424X0.00131*%
%ADD152R,0.06686X0.00131*%
%ADD153R,0.06948X0.00131*%
%ADD154R,0.07211X0.00131*%
%ADD155R,0.07997X0.00131*%
%ADD156R,0.08128X0.00131*%
%ADD157R,0.08259X0.00131*%
%ADD158R,0.08522X0.00131*%
%ADD159R,0.08784X0.00131*%
%ADD160R,0.08915X0.00131*%
%ADD161R,0.09046X0.00131*%
%ADD162R,0.09308X0.00131*%
%ADD163R,0.09570X0.00131*%
%ADD164R,0.09702X0.00131*%
%ADD165R,0.09833X0.00131*%
%ADD166R,0.05506X0.00131*%
%ADD167R,0.05244X0.00131*%
%ADD168R,0.04720X0.00131*%
%ADD169R,0.06293X0.00131*%
%ADD170R,0.12193X0.00131*%
%ADD171R,0.12455X0.00131*%
%ADD172R,0.12586X0.00131*%
%ADD173R,0.12717X0.00131*%
%ADD174R,0.12979X0.00131*%
%ADD175R,0.13241X0.00131*%
%ADD176R,0.13372X0.00131*%
%ADD177R,0.13504X0.00131*%
%ADD178R,0.13766X0.00131*%
%ADD179R,0.14028X0.00131*%
%ADD180R,0.14159X0.00131*%
%ADD181R,0.14290X0.00131*%
%ADD182R,0.15339X0.00131*%
%ADD183R,0.15470X0.00131*%
%ADD184R,0.16257X0.00131*%
%ADD185R,0.16519X0.00131*%
%ADD186R,0.16912X0.00131*%
%ADD187R,0.17437X0.00131*%
%ADD188R,0.18092X0.00131*%
%ADD189R,0.18617X0.00131*%
%ADD190R,0.19010X0.00131*%
%ADD191R,0.19403X0.00131*%
%ADD192R,0.13635X0.00131*%
%ADD193R,0.05769X0.00131*%
%ADD194R,0.06031X0.00131*%
%ADD195R,0.21107X0.00131*%
%ADD196R,0.21894X0.00131*%
%ADD197R,0.22156X0.00131*%
%ADD198R,0.22550X0.00131*%
%ADD199R,0.22943X0.00131*%
%ADD200R,0.15208X0.00131*%
%ADD201R,0.08391X0.00131*%
%ADD202R,0.24254X0.00131*%
%ADD203R,0.03146X0.00131*%
%ADD204R,0.20845X0.00131*%
%ADD205R,0.07866X0.00131*%
%ADD206R,0.21632X0.00131*%
%ADD207R,0.21239X0.00131*%
%ADD208R,0.20190X0.00131*%
%ADD209R,0.19534X0.00131*%
%ADD210R,0.17174X0.00131*%
%ADD211R,0.15994X0.00131*%
%ADD212R,0.11144X0.00131*%
D10*
X0120932Y0121952D02*
X0117432Y0125452D01*
X0117432Y0129452D01*
X0120932Y0132952D01*
X0124932Y0132952D01*
X0128432Y0129452D01*
X0128432Y0125452D01*
X0124932Y0121952D01*
X0120932Y0121952D01*
X0117058Y0148330D02*
X0113058Y0148330D01*
X0109558Y0151830D01*
X0109558Y0155830D01*
X0113058Y0159330D01*
X0117058Y0159330D01*
X0120558Y0155830D01*
X0120558Y0151830D01*
X0117058Y0148330D01*
X0110454Y0180704D02*
X0110454Y0187710D01*
X0112789Y0187710D02*
X0108119Y0187710D01*
X0105791Y0187710D02*
X0101121Y0187710D01*
X0101121Y0186543D01*
X0105791Y0181872D01*
X0105791Y0180704D01*
X0101121Y0180704D01*
X0098793Y0180704D02*
X0098793Y0185375D01*
X0096458Y0187710D01*
X0094123Y0185375D01*
X0094123Y0180704D01*
X0094123Y0184207D02*
X0098793Y0184207D01*
X0091795Y0187710D02*
X0087125Y0187710D01*
X0084797Y0187710D02*
X0080127Y0187710D01*
X0080127Y0186543D01*
X0084797Y0181872D01*
X0084797Y0180704D01*
X0080127Y0180704D01*
X0077799Y0180704D02*
X0075464Y0180704D01*
X0076632Y0180704D02*
X0076632Y0187710D01*
X0077799Y0187710D02*
X0075464Y0187710D01*
X0073134Y0187710D02*
X0073134Y0180704D01*
X0073134Y0183040D02*
X0068463Y0187710D01*
X0066136Y0187710D02*
X0063801Y0187710D01*
X0064968Y0187710D02*
X0064968Y0180704D01*
X0063801Y0180704D02*
X0066136Y0180704D01*
X0068463Y0180704D02*
X0071966Y0184207D01*
X0089460Y0180704D02*
X0089460Y0187710D01*
X0065294Y0153385D02*
X0065296Y0153448D01*
X0065302Y0153510D01*
X0065312Y0153572D01*
X0065325Y0153634D01*
X0065343Y0153694D01*
X0065364Y0153753D01*
X0065389Y0153811D01*
X0065418Y0153867D01*
X0065450Y0153921D01*
X0065485Y0153973D01*
X0065523Y0154022D01*
X0065565Y0154070D01*
X0065609Y0154114D01*
X0065657Y0154156D01*
X0065706Y0154194D01*
X0065758Y0154229D01*
X0065812Y0154261D01*
X0065868Y0154290D01*
X0065926Y0154315D01*
X0065985Y0154336D01*
X0066045Y0154354D01*
X0066107Y0154367D01*
X0066169Y0154377D01*
X0066231Y0154383D01*
X0066294Y0154385D01*
X0066357Y0154383D01*
X0066419Y0154377D01*
X0066481Y0154367D01*
X0066543Y0154354D01*
X0066603Y0154336D01*
X0066662Y0154315D01*
X0066720Y0154290D01*
X0066776Y0154261D01*
X0066830Y0154229D01*
X0066882Y0154194D01*
X0066931Y0154156D01*
X0066979Y0154114D01*
X0067023Y0154070D01*
X0067065Y0154022D01*
X0067103Y0153973D01*
X0067138Y0153921D01*
X0067170Y0153867D01*
X0067199Y0153811D01*
X0067224Y0153753D01*
X0067245Y0153694D01*
X0067263Y0153634D01*
X0067276Y0153572D01*
X0067286Y0153510D01*
X0067292Y0153448D01*
X0067294Y0153385D01*
X0067292Y0153322D01*
X0067286Y0153260D01*
X0067276Y0153198D01*
X0067263Y0153136D01*
X0067245Y0153076D01*
X0067224Y0153017D01*
X0067199Y0152959D01*
X0067170Y0152903D01*
X0067138Y0152849D01*
X0067103Y0152797D01*
X0067065Y0152748D01*
X0067023Y0152700D01*
X0066979Y0152656D01*
X0066931Y0152614D01*
X0066882Y0152576D01*
X0066830Y0152541D01*
X0066776Y0152509D01*
X0066720Y0152480D01*
X0066662Y0152455D01*
X0066603Y0152434D01*
X0066543Y0152416D01*
X0066481Y0152403D01*
X0066419Y0152393D01*
X0066357Y0152387D01*
X0066294Y0152385D01*
X0066231Y0152387D01*
X0066169Y0152393D01*
X0066107Y0152403D01*
X0066045Y0152416D01*
X0065985Y0152434D01*
X0065926Y0152455D01*
X0065868Y0152480D01*
X0065812Y0152509D01*
X0065758Y0152541D01*
X0065706Y0152576D01*
X0065657Y0152614D01*
X0065609Y0152656D01*
X0065565Y0152700D01*
X0065523Y0152748D01*
X0065485Y0152797D01*
X0065450Y0152849D01*
X0065418Y0152903D01*
X0065389Y0152959D01*
X0065364Y0153017D01*
X0065343Y0153076D01*
X0065325Y0153136D01*
X0065312Y0153198D01*
X0065302Y0153260D01*
X0065296Y0153322D01*
X0065294Y0153385D01*
X0054473Y0180704D02*
X0052137Y0180704D01*
X0053305Y0180704D02*
X0053305Y0187710D01*
X0054473Y0187710D02*
X0052137Y0187710D01*
X0049807Y0187710D02*
X0047472Y0187710D01*
X0048640Y0187710D02*
X0048640Y0180704D01*
X0049807Y0180704D02*
X0047472Y0180704D01*
X0139436Y0069959D02*
X0143436Y0069959D01*
X0146936Y0066459D01*
X0146936Y0062459D01*
X0143436Y0058959D01*
X0139436Y0058959D01*
X0135936Y0062459D01*
X0135936Y0066459D01*
X0139436Y0069959D01*
X0152034Y0136125D02*
X0156034Y0136125D01*
X0159534Y0139625D01*
X0159534Y0143625D01*
X0156034Y0147125D01*
X0152034Y0147125D01*
X0148534Y0143625D01*
X0148534Y0139625D01*
X0152034Y0136125D01*
X0152034Y0147936D02*
X0156034Y0147936D01*
X0159534Y0151436D01*
X0159534Y0155436D01*
X0156034Y0158936D01*
X0152034Y0158936D01*
X0148534Y0155436D01*
X0148534Y0151436D01*
X0152034Y0147936D01*
D11*
X0162302Y0155011D02*
X0162304Y0155142D01*
X0162310Y0155274D01*
X0162320Y0155405D01*
X0162334Y0155536D01*
X0162352Y0155666D01*
X0162374Y0155795D01*
X0162399Y0155924D01*
X0162429Y0156052D01*
X0162463Y0156179D01*
X0162500Y0156306D01*
X0162541Y0156430D01*
X0162586Y0156554D01*
X0162635Y0156676D01*
X0162687Y0156797D01*
X0162743Y0156915D01*
X0162803Y0157033D01*
X0162866Y0157148D01*
X0162933Y0157261D01*
X0163003Y0157373D01*
X0163076Y0157482D01*
X0163152Y0157588D01*
X0163232Y0157693D01*
X0163315Y0157795D01*
X0163401Y0157894D01*
X0163490Y0157991D01*
X0163582Y0158085D01*
X0163677Y0158176D01*
X0163774Y0158265D01*
X0163874Y0158350D01*
X0163977Y0158432D01*
X0164082Y0158511D01*
X0164189Y0158587D01*
X0164299Y0158659D01*
X0164411Y0158728D01*
X0164525Y0158794D01*
X0164640Y0158856D01*
X0164758Y0158915D01*
X0164877Y0158970D01*
X0164998Y0159022D01*
X0165121Y0159069D01*
X0165245Y0159113D01*
X0165370Y0159154D01*
X0165496Y0159190D01*
X0165624Y0159223D01*
X0165752Y0159251D01*
X0165881Y0159276D01*
X0166011Y0159297D01*
X0166141Y0159314D01*
X0166272Y0159327D01*
X0166403Y0159336D01*
X0166534Y0159341D01*
X0166666Y0159342D01*
X0166797Y0159339D01*
X0166929Y0159332D01*
X0167060Y0159321D01*
X0167190Y0159306D01*
X0167320Y0159287D01*
X0167450Y0159264D01*
X0167578Y0159238D01*
X0167706Y0159207D01*
X0167833Y0159172D01*
X0167959Y0159134D01*
X0168083Y0159092D01*
X0168207Y0159046D01*
X0168328Y0158996D01*
X0168448Y0158943D01*
X0168567Y0158886D01*
X0168684Y0158826D01*
X0168798Y0158762D01*
X0168911Y0158694D01*
X0169022Y0158623D01*
X0169131Y0158549D01*
X0169237Y0158472D01*
X0169341Y0158391D01*
X0169442Y0158308D01*
X0169541Y0158221D01*
X0169637Y0158131D01*
X0169730Y0158038D01*
X0169821Y0157943D01*
X0169908Y0157845D01*
X0169993Y0157744D01*
X0170074Y0157641D01*
X0170152Y0157535D01*
X0170227Y0157427D01*
X0170299Y0157317D01*
X0170367Y0157205D01*
X0170432Y0157091D01*
X0170493Y0156974D01*
X0170551Y0156856D01*
X0170605Y0156736D01*
X0170656Y0156615D01*
X0170703Y0156492D01*
X0170746Y0156368D01*
X0170785Y0156243D01*
X0170821Y0156116D01*
X0170852Y0155988D01*
X0170880Y0155860D01*
X0170904Y0155731D01*
X0170924Y0155601D01*
X0170940Y0155470D01*
X0170952Y0155339D01*
X0170960Y0155208D01*
X0170964Y0155077D01*
X0170964Y0154945D01*
X0170960Y0154814D01*
X0170952Y0154683D01*
X0170940Y0154552D01*
X0170924Y0154421D01*
X0170904Y0154291D01*
X0170880Y0154162D01*
X0170852Y0154034D01*
X0170821Y0153906D01*
X0170785Y0153779D01*
X0170746Y0153654D01*
X0170703Y0153530D01*
X0170656Y0153407D01*
X0170605Y0153286D01*
X0170551Y0153166D01*
X0170493Y0153048D01*
X0170432Y0152931D01*
X0170367Y0152817D01*
X0170299Y0152705D01*
X0170227Y0152595D01*
X0170152Y0152487D01*
X0170074Y0152381D01*
X0169993Y0152278D01*
X0169908Y0152177D01*
X0169821Y0152079D01*
X0169730Y0151984D01*
X0169637Y0151891D01*
X0169541Y0151801D01*
X0169442Y0151714D01*
X0169341Y0151631D01*
X0169237Y0151550D01*
X0169131Y0151473D01*
X0169022Y0151399D01*
X0168911Y0151328D01*
X0168799Y0151260D01*
X0168684Y0151196D01*
X0168567Y0151136D01*
X0168448Y0151079D01*
X0168328Y0151026D01*
X0168207Y0150976D01*
X0168083Y0150930D01*
X0167959Y0150888D01*
X0167833Y0150850D01*
X0167706Y0150815D01*
X0167578Y0150784D01*
X0167450Y0150758D01*
X0167320Y0150735D01*
X0167190Y0150716D01*
X0167060Y0150701D01*
X0166929Y0150690D01*
X0166797Y0150683D01*
X0166666Y0150680D01*
X0166534Y0150681D01*
X0166403Y0150686D01*
X0166272Y0150695D01*
X0166141Y0150708D01*
X0166011Y0150725D01*
X0165881Y0150746D01*
X0165752Y0150771D01*
X0165624Y0150799D01*
X0165496Y0150832D01*
X0165370Y0150868D01*
X0165245Y0150909D01*
X0165121Y0150953D01*
X0164998Y0151000D01*
X0164877Y0151052D01*
X0164758Y0151107D01*
X0164640Y0151166D01*
X0164525Y0151228D01*
X0164411Y0151294D01*
X0164299Y0151363D01*
X0164189Y0151435D01*
X0164082Y0151511D01*
X0163977Y0151590D01*
X0163874Y0151672D01*
X0163774Y0151757D01*
X0163677Y0151846D01*
X0163582Y0151937D01*
X0163490Y0152031D01*
X0163401Y0152128D01*
X0163315Y0152227D01*
X0163232Y0152329D01*
X0163152Y0152434D01*
X0163076Y0152540D01*
X0163003Y0152649D01*
X0162933Y0152761D01*
X0162866Y0152874D01*
X0162803Y0152989D01*
X0162743Y0153107D01*
X0162687Y0153225D01*
X0162635Y0153346D01*
X0162586Y0153468D01*
X0162541Y0153592D01*
X0162500Y0153716D01*
X0162463Y0153843D01*
X0162429Y0153970D01*
X0162399Y0154098D01*
X0162374Y0154227D01*
X0162352Y0154356D01*
X0162334Y0154486D01*
X0162320Y0154617D01*
X0162310Y0154748D01*
X0162304Y0154880D01*
X0162302Y0155011D01*
X0172538Y0164853D02*
X0172540Y0164984D01*
X0172546Y0165116D01*
X0172556Y0165247D01*
X0172570Y0165378D01*
X0172588Y0165508D01*
X0172610Y0165637D01*
X0172635Y0165766D01*
X0172665Y0165894D01*
X0172699Y0166021D01*
X0172736Y0166148D01*
X0172777Y0166272D01*
X0172822Y0166396D01*
X0172871Y0166518D01*
X0172923Y0166639D01*
X0172979Y0166757D01*
X0173039Y0166875D01*
X0173102Y0166990D01*
X0173169Y0167103D01*
X0173239Y0167215D01*
X0173312Y0167324D01*
X0173388Y0167430D01*
X0173468Y0167535D01*
X0173551Y0167637D01*
X0173637Y0167736D01*
X0173726Y0167833D01*
X0173818Y0167927D01*
X0173913Y0168018D01*
X0174010Y0168107D01*
X0174110Y0168192D01*
X0174213Y0168274D01*
X0174318Y0168353D01*
X0174425Y0168429D01*
X0174535Y0168501D01*
X0174647Y0168570D01*
X0174761Y0168636D01*
X0174876Y0168698D01*
X0174994Y0168757D01*
X0175113Y0168812D01*
X0175234Y0168864D01*
X0175357Y0168911D01*
X0175481Y0168955D01*
X0175606Y0168996D01*
X0175732Y0169032D01*
X0175860Y0169065D01*
X0175988Y0169093D01*
X0176117Y0169118D01*
X0176247Y0169139D01*
X0176377Y0169156D01*
X0176508Y0169169D01*
X0176639Y0169178D01*
X0176770Y0169183D01*
X0176902Y0169184D01*
X0177033Y0169181D01*
X0177165Y0169174D01*
X0177296Y0169163D01*
X0177426Y0169148D01*
X0177556Y0169129D01*
X0177686Y0169106D01*
X0177814Y0169080D01*
X0177942Y0169049D01*
X0178069Y0169014D01*
X0178195Y0168976D01*
X0178319Y0168934D01*
X0178443Y0168888D01*
X0178564Y0168838D01*
X0178684Y0168785D01*
X0178803Y0168728D01*
X0178920Y0168668D01*
X0179034Y0168604D01*
X0179147Y0168536D01*
X0179258Y0168465D01*
X0179367Y0168391D01*
X0179473Y0168314D01*
X0179577Y0168233D01*
X0179678Y0168150D01*
X0179777Y0168063D01*
X0179873Y0167973D01*
X0179966Y0167880D01*
X0180057Y0167785D01*
X0180144Y0167687D01*
X0180229Y0167586D01*
X0180310Y0167483D01*
X0180388Y0167377D01*
X0180463Y0167269D01*
X0180535Y0167159D01*
X0180603Y0167047D01*
X0180668Y0166933D01*
X0180729Y0166816D01*
X0180787Y0166698D01*
X0180841Y0166578D01*
X0180892Y0166457D01*
X0180939Y0166334D01*
X0180982Y0166210D01*
X0181021Y0166085D01*
X0181057Y0165958D01*
X0181088Y0165830D01*
X0181116Y0165702D01*
X0181140Y0165573D01*
X0181160Y0165443D01*
X0181176Y0165312D01*
X0181188Y0165181D01*
X0181196Y0165050D01*
X0181200Y0164919D01*
X0181200Y0164787D01*
X0181196Y0164656D01*
X0181188Y0164525D01*
X0181176Y0164394D01*
X0181160Y0164263D01*
X0181140Y0164133D01*
X0181116Y0164004D01*
X0181088Y0163876D01*
X0181057Y0163748D01*
X0181021Y0163621D01*
X0180982Y0163496D01*
X0180939Y0163372D01*
X0180892Y0163249D01*
X0180841Y0163128D01*
X0180787Y0163008D01*
X0180729Y0162890D01*
X0180668Y0162773D01*
X0180603Y0162659D01*
X0180535Y0162547D01*
X0180463Y0162437D01*
X0180388Y0162329D01*
X0180310Y0162223D01*
X0180229Y0162120D01*
X0180144Y0162019D01*
X0180057Y0161921D01*
X0179966Y0161826D01*
X0179873Y0161733D01*
X0179777Y0161643D01*
X0179678Y0161556D01*
X0179577Y0161473D01*
X0179473Y0161392D01*
X0179367Y0161315D01*
X0179258Y0161241D01*
X0179147Y0161170D01*
X0179035Y0161102D01*
X0178920Y0161038D01*
X0178803Y0160978D01*
X0178684Y0160921D01*
X0178564Y0160868D01*
X0178443Y0160818D01*
X0178319Y0160772D01*
X0178195Y0160730D01*
X0178069Y0160692D01*
X0177942Y0160657D01*
X0177814Y0160626D01*
X0177686Y0160600D01*
X0177556Y0160577D01*
X0177426Y0160558D01*
X0177296Y0160543D01*
X0177165Y0160532D01*
X0177033Y0160525D01*
X0176902Y0160522D01*
X0176770Y0160523D01*
X0176639Y0160528D01*
X0176508Y0160537D01*
X0176377Y0160550D01*
X0176247Y0160567D01*
X0176117Y0160588D01*
X0175988Y0160613D01*
X0175860Y0160641D01*
X0175732Y0160674D01*
X0175606Y0160710D01*
X0175481Y0160751D01*
X0175357Y0160795D01*
X0175234Y0160842D01*
X0175113Y0160894D01*
X0174994Y0160949D01*
X0174876Y0161008D01*
X0174761Y0161070D01*
X0174647Y0161136D01*
X0174535Y0161205D01*
X0174425Y0161277D01*
X0174318Y0161353D01*
X0174213Y0161432D01*
X0174110Y0161514D01*
X0174010Y0161599D01*
X0173913Y0161688D01*
X0173818Y0161779D01*
X0173726Y0161873D01*
X0173637Y0161970D01*
X0173551Y0162069D01*
X0173468Y0162171D01*
X0173388Y0162276D01*
X0173312Y0162382D01*
X0173239Y0162491D01*
X0173169Y0162603D01*
X0173102Y0162716D01*
X0173039Y0162831D01*
X0172979Y0162949D01*
X0172923Y0163067D01*
X0172871Y0163188D01*
X0172822Y0163310D01*
X0172777Y0163434D01*
X0172736Y0163558D01*
X0172699Y0163685D01*
X0172665Y0163812D01*
X0172635Y0163940D01*
X0172610Y0164069D01*
X0172588Y0164198D01*
X0172570Y0164328D01*
X0172556Y0164459D01*
X0172546Y0164590D01*
X0172540Y0164722D01*
X0172538Y0164853D01*
X0171750Y0175089D02*
X0171752Y0175220D01*
X0171758Y0175352D01*
X0171768Y0175483D01*
X0171782Y0175614D01*
X0171800Y0175744D01*
X0171822Y0175873D01*
X0171847Y0176002D01*
X0171877Y0176130D01*
X0171911Y0176257D01*
X0171948Y0176384D01*
X0171989Y0176508D01*
X0172034Y0176632D01*
X0172083Y0176754D01*
X0172135Y0176875D01*
X0172191Y0176993D01*
X0172251Y0177111D01*
X0172314Y0177226D01*
X0172381Y0177339D01*
X0172451Y0177451D01*
X0172524Y0177560D01*
X0172600Y0177666D01*
X0172680Y0177771D01*
X0172763Y0177873D01*
X0172849Y0177972D01*
X0172938Y0178069D01*
X0173030Y0178163D01*
X0173125Y0178254D01*
X0173222Y0178343D01*
X0173322Y0178428D01*
X0173425Y0178510D01*
X0173530Y0178589D01*
X0173637Y0178665D01*
X0173747Y0178737D01*
X0173859Y0178806D01*
X0173973Y0178872D01*
X0174088Y0178934D01*
X0174206Y0178993D01*
X0174325Y0179048D01*
X0174446Y0179100D01*
X0174569Y0179147D01*
X0174693Y0179191D01*
X0174818Y0179232D01*
X0174944Y0179268D01*
X0175072Y0179301D01*
X0175200Y0179329D01*
X0175329Y0179354D01*
X0175459Y0179375D01*
X0175589Y0179392D01*
X0175720Y0179405D01*
X0175851Y0179414D01*
X0175982Y0179419D01*
X0176114Y0179420D01*
X0176245Y0179417D01*
X0176377Y0179410D01*
X0176508Y0179399D01*
X0176638Y0179384D01*
X0176768Y0179365D01*
X0176898Y0179342D01*
X0177026Y0179316D01*
X0177154Y0179285D01*
X0177281Y0179250D01*
X0177407Y0179212D01*
X0177531Y0179170D01*
X0177655Y0179124D01*
X0177776Y0179074D01*
X0177896Y0179021D01*
X0178015Y0178964D01*
X0178132Y0178904D01*
X0178246Y0178840D01*
X0178359Y0178772D01*
X0178470Y0178701D01*
X0178579Y0178627D01*
X0178685Y0178550D01*
X0178789Y0178469D01*
X0178890Y0178386D01*
X0178989Y0178299D01*
X0179085Y0178209D01*
X0179178Y0178116D01*
X0179269Y0178021D01*
X0179356Y0177923D01*
X0179441Y0177822D01*
X0179522Y0177719D01*
X0179600Y0177613D01*
X0179675Y0177505D01*
X0179747Y0177395D01*
X0179815Y0177283D01*
X0179880Y0177169D01*
X0179941Y0177052D01*
X0179999Y0176934D01*
X0180053Y0176814D01*
X0180104Y0176693D01*
X0180151Y0176570D01*
X0180194Y0176446D01*
X0180233Y0176321D01*
X0180269Y0176194D01*
X0180300Y0176066D01*
X0180328Y0175938D01*
X0180352Y0175809D01*
X0180372Y0175679D01*
X0180388Y0175548D01*
X0180400Y0175417D01*
X0180408Y0175286D01*
X0180412Y0175155D01*
X0180412Y0175023D01*
X0180408Y0174892D01*
X0180400Y0174761D01*
X0180388Y0174630D01*
X0180372Y0174499D01*
X0180352Y0174369D01*
X0180328Y0174240D01*
X0180300Y0174112D01*
X0180269Y0173984D01*
X0180233Y0173857D01*
X0180194Y0173732D01*
X0180151Y0173608D01*
X0180104Y0173485D01*
X0180053Y0173364D01*
X0179999Y0173244D01*
X0179941Y0173126D01*
X0179880Y0173009D01*
X0179815Y0172895D01*
X0179747Y0172783D01*
X0179675Y0172673D01*
X0179600Y0172565D01*
X0179522Y0172459D01*
X0179441Y0172356D01*
X0179356Y0172255D01*
X0179269Y0172157D01*
X0179178Y0172062D01*
X0179085Y0171969D01*
X0178989Y0171879D01*
X0178890Y0171792D01*
X0178789Y0171709D01*
X0178685Y0171628D01*
X0178579Y0171551D01*
X0178470Y0171477D01*
X0178359Y0171406D01*
X0178247Y0171338D01*
X0178132Y0171274D01*
X0178015Y0171214D01*
X0177896Y0171157D01*
X0177776Y0171104D01*
X0177655Y0171054D01*
X0177531Y0171008D01*
X0177407Y0170966D01*
X0177281Y0170928D01*
X0177154Y0170893D01*
X0177026Y0170862D01*
X0176898Y0170836D01*
X0176768Y0170813D01*
X0176638Y0170794D01*
X0176508Y0170779D01*
X0176377Y0170768D01*
X0176245Y0170761D01*
X0176114Y0170758D01*
X0175982Y0170759D01*
X0175851Y0170764D01*
X0175720Y0170773D01*
X0175589Y0170786D01*
X0175459Y0170803D01*
X0175329Y0170824D01*
X0175200Y0170849D01*
X0175072Y0170877D01*
X0174944Y0170910D01*
X0174818Y0170946D01*
X0174693Y0170987D01*
X0174569Y0171031D01*
X0174446Y0171078D01*
X0174325Y0171130D01*
X0174206Y0171185D01*
X0174088Y0171244D01*
X0173973Y0171306D01*
X0173859Y0171372D01*
X0173747Y0171441D01*
X0173637Y0171513D01*
X0173530Y0171589D01*
X0173425Y0171668D01*
X0173322Y0171750D01*
X0173222Y0171835D01*
X0173125Y0171924D01*
X0173030Y0172015D01*
X0172938Y0172109D01*
X0172849Y0172206D01*
X0172763Y0172305D01*
X0172680Y0172407D01*
X0172600Y0172512D01*
X0172524Y0172618D01*
X0172451Y0172727D01*
X0172381Y0172839D01*
X0172314Y0172952D01*
X0172251Y0173067D01*
X0172191Y0173185D01*
X0172135Y0173303D01*
X0172083Y0173424D01*
X0172034Y0173546D01*
X0171989Y0173670D01*
X0171948Y0173794D01*
X0171911Y0173921D01*
X0171877Y0174048D01*
X0171847Y0174176D01*
X0171822Y0174305D01*
X0171800Y0174434D01*
X0171782Y0174564D01*
X0171768Y0174695D01*
X0171758Y0174826D01*
X0171752Y0174958D01*
X0171750Y0175089D01*
X0172538Y0184932D02*
X0172540Y0185063D01*
X0172546Y0185195D01*
X0172556Y0185326D01*
X0172570Y0185457D01*
X0172588Y0185587D01*
X0172610Y0185716D01*
X0172635Y0185845D01*
X0172665Y0185973D01*
X0172699Y0186100D01*
X0172736Y0186227D01*
X0172777Y0186351D01*
X0172822Y0186475D01*
X0172871Y0186597D01*
X0172923Y0186718D01*
X0172979Y0186836D01*
X0173039Y0186954D01*
X0173102Y0187069D01*
X0173169Y0187182D01*
X0173239Y0187294D01*
X0173312Y0187403D01*
X0173388Y0187509D01*
X0173468Y0187614D01*
X0173551Y0187716D01*
X0173637Y0187815D01*
X0173726Y0187912D01*
X0173818Y0188006D01*
X0173913Y0188097D01*
X0174010Y0188186D01*
X0174110Y0188271D01*
X0174213Y0188353D01*
X0174318Y0188432D01*
X0174425Y0188508D01*
X0174535Y0188580D01*
X0174647Y0188649D01*
X0174761Y0188715D01*
X0174876Y0188777D01*
X0174994Y0188836D01*
X0175113Y0188891D01*
X0175234Y0188943D01*
X0175357Y0188990D01*
X0175481Y0189034D01*
X0175606Y0189075D01*
X0175732Y0189111D01*
X0175860Y0189144D01*
X0175988Y0189172D01*
X0176117Y0189197D01*
X0176247Y0189218D01*
X0176377Y0189235D01*
X0176508Y0189248D01*
X0176639Y0189257D01*
X0176770Y0189262D01*
X0176902Y0189263D01*
X0177033Y0189260D01*
X0177165Y0189253D01*
X0177296Y0189242D01*
X0177426Y0189227D01*
X0177556Y0189208D01*
X0177686Y0189185D01*
X0177814Y0189159D01*
X0177942Y0189128D01*
X0178069Y0189093D01*
X0178195Y0189055D01*
X0178319Y0189013D01*
X0178443Y0188967D01*
X0178564Y0188917D01*
X0178684Y0188864D01*
X0178803Y0188807D01*
X0178920Y0188747D01*
X0179034Y0188683D01*
X0179147Y0188615D01*
X0179258Y0188544D01*
X0179367Y0188470D01*
X0179473Y0188393D01*
X0179577Y0188312D01*
X0179678Y0188229D01*
X0179777Y0188142D01*
X0179873Y0188052D01*
X0179966Y0187959D01*
X0180057Y0187864D01*
X0180144Y0187766D01*
X0180229Y0187665D01*
X0180310Y0187562D01*
X0180388Y0187456D01*
X0180463Y0187348D01*
X0180535Y0187238D01*
X0180603Y0187126D01*
X0180668Y0187012D01*
X0180729Y0186895D01*
X0180787Y0186777D01*
X0180841Y0186657D01*
X0180892Y0186536D01*
X0180939Y0186413D01*
X0180982Y0186289D01*
X0181021Y0186164D01*
X0181057Y0186037D01*
X0181088Y0185909D01*
X0181116Y0185781D01*
X0181140Y0185652D01*
X0181160Y0185522D01*
X0181176Y0185391D01*
X0181188Y0185260D01*
X0181196Y0185129D01*
X0181200Y0184998D01*
X0181200Y0184866D01*
X0181196Y0184735D01*
X0181188Y0184604D01*
X0181176Y0184473D01*
X0181160Y0184342D01*
X0181140Y0184212D01*
X0181116Y0184083D01*
X0181088Y0183955D01*
X0181057Y0183827D01*
X0181021Y0183700D01*
X0180982Y0183575D01*
X0180939Y0183451D01*
X0180892Y0183328D01*
X0180841Y0183207D01*
X0180787Y0183087D01*
X0180729Y0182969D01*
X0180668Y0182852D01*
X0180603Y0182738D01*
X0180535Y0182626D01*
X0180463Y0182516D01*
X0180388Y0182408D01*
X0180310Y0182302D01*
X0180229Y0182199D01*
X0180144Y0182098D01*
X0180057Y0182000D01*
X0179966Y0181905D01*
X0179873Y0181812D01*
X0179777Y0181722D01*
X0179678Y0181635D01*
X0179577Y0181552D01*
X0179473Y0181471D01*
X0179367Y0181394D01*
X0179258Y0181320D01*
X0179147Y0181249D01*
X0179035Y0181181D01*
X0178920Y0181117D01*
X0178803Y0181057D01*
X0178684Y0181000D01*
X0178564Y0180947D01*
X0178443Y0180897D01*
X0178319Y0180851D01*
X0178195Y0180809D01*
X0178069Y0180771D01*
X0177942Y0180736D01*
X0177814Y0180705D01*
X0177686Y0180679D01*
X0177556Y0180656D01*
X0177426Y0180637D01*
X0177296Y0180622D01*
X0177165Y0180611D01*
X0177033Y0180604D01*
X0176902Y0180601D01*
X0176770Y0180602D01*
X0176639Y0180607D01*
X0176508Y0180616D01*
X0176377Y0180629D01*
X0176247Y0180646D01*
X0176117Y0180667D01*
X0175988Y0180692D01*
X0175860Y0180720D01*
X0175732Y0180753D01*
X0175606Y0180789D01*
X0175481Y0180830D01*
X0175357Y0180874D01*
X0175234Y0180921D01*
X0175113Y0180973D01*
X0174994Y0181028D01*
X0174876Y0181087D01*
X0174761Y0181149D01*
X0174647Y0181215D01*
X0174535Y0181284D01*
X0174425Y0181356D01*
X0174318Y0181432D01*
X0174213Y0181511D01*
X0174110Y0181593D01*
X0174010Y0181678D01*
X0173913Y0181767D01*
X0173818Y0181858D01*
X0173726Y0181952D01*
X0173637Y0182049D01*
X0173551Y0182148D01*
X0173468Y0182250D01*
X0173388Y0182355D01*
X0173312Y0182461D01*
X0173239Y0182570D01*
X0173169Y0182682D01*
X0173102Y0182795D01*
X0173039Y0182910D01*
X0172979Y0183028D01*
X0172923Y0183146D01*
X0172871Y0183267D01*
X0172822Y0183389D01*
X0172777Y0183513D01*
X0172736Y0183637D01*
X0172699Y0183764D01*
X0172665Y0183891D01*
X0172635Y0184019D01*
X0172610Y0184148D01*
X0172588Y0184277D01*
X0172570Y0184407D01*
X0172556Y0184538D01*
X0172546Y0184669D01*
X0172540Y0184801D01*
X0172538Y0184932D01*
X0171750Y0194774D02*
X0171752Y0194905D01*
X0171758Y0195037D01*
X0171768Y0195168D01*
X0171782Y0195299D01*
X0171800Y0195429D01*
X0171822Y0195558D01*
X0171847Y0195687D01*
X0171877Y0195815D01*
X0171911Y0195942D01*
X0171948Y0196069D01*
X0171989Y0196193D01*
X0172034Y0196317D01*
X0172083Y0196439D01*
X0172135Y0196560D01*
X0172191Y0196678D01*
X0172251Y0196796D01*
X0172314Y0196911D01*
X0172381Y0197024D01*
X0172451Y0197136D01*
X0172524Y0197245D01*
X0172600Y0197351D01*
X0172680Y0197456D01*
X0172763Y0197558D01*
X0172849Y0197657D01*
X0172938Y0197754D01*
X0173030Y0197848D01*
X0173125Y0197939D01*
X0173222Y0198028D01*
X0173322Y0198113D01*
X0173425Y0198195D01*
X0173530Y0198274D01*
X0173637Y0198350D01*
X0173747Y0198422D01*
X0173859Y0198491D01*
X0173973Y0198557D01*
X0174088Y0198619D01*
X0174206Y0198678D01*
X0174325Y0198733D01*
X0174446Y0198785D01*
X0174569Y0198832D01*
X0174693Y0198876D01*
X0174818Y0198917D01*
X0174944Y0198953D01*
X0175072Y0198986D01*
X0175200Y0199014D01*
X0175329Y0199039D01*
X0175459Y0199060D01*
X0175589Y0199077D01*
X0175720Y0199090D01*
X0175851Y0199099D01*
X0175982Y0199104D01*
X0176114Y0199105D01*
X0176245Y0199102D01*
X0176377Y0199095D01*
X0176508Y0199084D01*
X0176638Y0199069D01*
X0176768Y0199050D01*
X0176898Y0199027D01*
X0177026Y0199001D01*
X0177154Y0198970D01*
X0177281Y0198935D01*
X0177407Y0198897D01*
X0177531Y0198855D01*
X0177655Y0198809D01*
X0177776Y0198759D01*
X0177896Y0198706D01*
X0178015Y0198649D01*
X0178132Y0198589D01*
X0178246Y0198525D01*
X0178359Y0198457D01*
X0178470Y0198386D01*
X0178579Y0198312D01*
X0178685Y0198235D01*
X0178789Y0198154D01*
X0178890Y0198071D01*
X0178989Y0197984D01*
X0179085Y0197894D01*
X0179178Y0197801D01*
X0179269Y0197706D01*
X0179356Y0197608D01*
X0179441Y0197507D01*
X0179522Y0197404D01*
X0179600Y0197298D01*
X0179675Y0197190D01*
X0179747Y0197080D01*
X0179815Y0196968D01*
X0179880Y0196854D01*
X0179941Y0196737D01*
X0179999Y0196619D01*
X0180053Y0196499D01*
X0180104Y0196378D01*
X0180151Y0196255D01*
X0180194Y0196131D01*
X0180233Y0196006D01*
X0180269Y0195879D01*
X0180300Y0195751D01*
X0180328Y0195623D01*
X0180352Y0195494D01*
X0180372Y0195364D01*
X0180388Y0195233D01*
X0180400Y0195102D01*
X0180408Y0194971D01*
X0180412Y0194840D01*
X0180412Y0194708D01*
X0180408Y0194577D01*
X0180400Y0194446D01*
X0180388Y0194315D01*
X0180372Y0194184D01*
X0180352Y0194054D01*
X0180328Y0193925D01*
X0180300Y0193797D01*
X0180269Y0193669D01*
X0180233Y0193542D01*
X0180194Y0193417D01*
X0180151Y0193293D01*
X0180104Y0193170D01*
X0180053Y0193049D01*
X0179999Y0192929D01*
X0179941Y0192811D01*
X0179880Y0192694D01*
X0179815Y0192580D01*
X0179747Y0192468D01*
X0179675Y0192358D01*
X0179600Y0192250D01*
X0179522Y0192144D01*
X0179441Y0192041D01*
X0179356Y0191940D01*
X0179269Y0191842D01*
X0179178Y0191747D01*
X0179085Y0191654D01*
X0178989Y0191564D01*
X0178890Y0191477D01*
X0178789Y0191394D01*
X0178685Y0191313D01*
X0178579Y0191236D01*
X0178470Y0191162D01*
X0178359Y0191091D01*
X0178247Y0191023D01*
X0178132Y0190959D01*
X0178015Y0190899D01*
X0177896Y0190842D01*
X0177776Y0190789D01*
X0177655Y0190739D01*
X0177531Y0190693D01*
X0177407Y0190651D01*
X0177281Y0190613D01*
X0177154Y0190578D01*
X0177026Y0190547D01*
X0176898Y0190521D01*
X0176768Y0190498D01*
X0176638Y0190479D01*
X0176508Y0190464D01*
X0176377Y0190453D01*
X0176245Y0190446D01*
X0176114Y0190443D01*
X0175982Y0190444D01*
X0175851Y0190449D01*
X0175720Y0190458D01*
X0175589Y0190471D01*
X0175459Y0190488D01*
X0175329Y0190509D01*
X0175200Y0190534D01*
X0175072Y0190562D01*
X0174944Y0190595D01*
X0174818Y0190631D01*
X0174693Y0190672D01*
X0174569Y0190716D01*
X0174446Y0190763D01*
X0174325Y0190815D01*
X0174206Y0190870D01*
X0174088Y0190929D01*
X0173973Y0190991D01*
X0173859Y0191057D01*
X0173747Y0191126D01*
X0173637Y0191198D01*
X0173530Y0191274D01*
X0173425Y0191353D01*
X0173322Y0191435D01*
X0173222Y0191520D01*
X0173125Y0191609D01*
X0173030Y0191700D01*
X0172938Y0191794D01*
X0172849Y0191891D01*
X0172763Y0191990D01*
X0172680Y0192092D01*
X0172600Y0192197D01*
X0172524Y0192303D01*
X0172451Y0192412D01*
X0172381Y0192524D01*
X0172314Y0192637D01*
X0172251Y0192752D01*
X0172191Y0192870D01*
X0172135Y0192988D01*
X0172083Y0193109D01*
X0172034Y0193231D01*
X0171989Y0193355D01*
X0171948Y0193479D01*
X0171911Y0193606D01*
X0171877Y0193733D01*
X0171847Y0193861D01*
X0171822Y0193990D01*
X0171800Y0194119D01*
X0171782Y0194249D01*
X0171768Y0194380D01*
X0171758Y0194511D01*
X0171752Y0194643D01*
X0171750Y0194774D01*
X0171750Y0134932D02*
X0171752Y0135063D01*
X0171758Y0135195D01*
X0171768Y0135326D01*
X0171782Y0135457D01*
X0171800Y0135587D01*
X0171822Y0135716D01*
X0171847Y0135845D01*
X0171877Y0135973D01*
X0171911Y0136100D01*
X0171948Y0136227D01*
X0171989Y0136351D01*
X0172034Y0136475D01*
X0172083Y0136597D01*
X0172135Y0136718D01*
X0172191Y0136836D01*
X0172251Y0136954D01*
X0172314Y0137069D01*
X0172381Y0137182D01*
X0172451Y0137294D01*
X0172524Y0137403D01*
X0172600Y0137509D01*
X0172680Y0137614D01*
X0172763Y0137716D01*
X0172849Y0137815D01*
X0172938Y0137912D01*
X0173030Y0138006D01*
X0173125Y0138097D01*
X0173222Y0138186D01*
X0173322Y0138271D01*
X0173425Y0138353D01*
X0173530Y0138432D01*
X0173637Y0138508D01*
X0173747Y0138580D01*
X0173859Y0138649D01*
X0173973Y0138715D01*
X0174088Y0138777D01*
X0174206Y0138836D01*
X0174325Y0138891D01*
X0174446Y0138943D01*
X0174569Y0138990D01*
X0174693Y0139034D01*
X0174818Y0139075D01*
X0174944Y0139111D01*
X0175072Y0139144D01*
X0175200Y0139172D01*
X0175329Y0139197D01*
X0175459Y0139218D01*
X0175589Y0139235D01*
X0175720Y0139248D01*
X0175851Y0139257D01*
X0175982Y0139262D01*
X0176114Y0139263D01*
X0176245Y0139260D01*
X0176377Y0139253D01*
X0176508Y0139242D01*
X0176638Y0139227D01*
X0176768Y0139208D01*
X0176898Y0139185D01*
X0177026Y0139159D01*
X0177154Y0139128D01*
X0177281Y0139093D01*
X0177407Y0139055D01*
X0177531Y0139013D01*
X0177655Y0138967D01*
X0177776Y0138917D01*
X0177896Y0138864D01*
X0178015Y0138807D01*
X0178132Y0138747D01*
X0178246Y0138683D01*
X0178359Y0138615D01*
X0178470Y0138544D01*
X0178579Y0138470D01*
X0178685Y0138393D01*
X0178789Y0138312D01*
X0178890Y0138229D01*
X0178989Y0138142D01*
X0179085Y0138052D01*
X0179178Y0137959D01*
X0179269Y0137864D01*
X0179356Y0137766D01*
X0179441Y0137665D01*
X0179522Y0137562D01*
X0179600Y0137456D01*
X0179675Y0137348D01*
X0179747Y0137238D01*
X0179815Y0137126D01*
X0179880Y0137012D01*
X0179941Y0136895D01*
X0179999Y0136777D01*
X0180053Y0136657D01*
X0180104Y0136536D01*
X0180151Y0136413D01*
X0180194Y0136289D01*
X0180233Y0136164D01*
X0180269Y0136037D01*
X0180300Y0135909D01*
X0180328Y0135781D01*
X0180352Y0135652D01*
X0180372Y0135522D01*
X0180388Y0135391D01*
X0180400Y0135260D01*
X0180408Y0135129D01*
X0180412Y0134998D01*
X0180412Y0134866D01*
X0180408Y0134735D01*
X0180400Y0134604D01*
X0180388Y0134473D01*
X0180372Y0134342D01*
X0180352Y0134212D01*
X0180328Y0134083D01*
X0180300Y0133955D01*
X0180269Y0133827D01*
X0180233Y0133700D01*
X0180194Y0133575D01*
X0180151Y0133451D01*
X0180104Y0133328D01*
X0180053Y0133207D01*
X0179999Y0133087D01*
X0179941Y0132969D01*
X0179880Y0132852D01*
X0179815Y0132738D01*
X0179747Y0132626D01*
X0179675Y0132516D01*
X0179600Y0132408D01*
X0179522Y0132302D01*
X0179441Y0132199D01*
X0179356Y0132098D01*
X0179269Y0132000D01*
X0179178Y0131905D01*
X0179085Y0131812D01*
X0178989Y0131722D01*
X0178890Y0131635D01*
X0178789Y0131552D01*
X0178685Y0131471D01*
X0178579Y0131394D01*
X0178470Y0131320D01*
X0178359Y0131249D01*
X0178247Y0131181D01*
X0178132Y0131117D01*
X0178015Y0131057D01*
X0177896Y0131000D01*
X0177776Y0130947D01*
X0177655Y0130897D01*
X0177531Y0130851D01*
X0177407Y0130809D01*
X0177281Y0130771D01*
X0177154Y0130736D01*
X0177026Y0130705D01*
X0176898Y0130679D01*
X0176768Y0130656D01*
X0176638Y0130637D01*
X0176508Y0130622D01*
X0176377Y0130611D01*
X0176245Y0130604D01*
X0176114Y0130601D01*
X0175982Y0130602D01*
X0175851Y0130607D01*
X0175720Y0130616D01*
X0175589Y0130629D01*
X0175459Y0130646D01*
X0175329Y0130667D01*
X0175200Y0130692D01*
X0175072Y0130720D01*
X0174944Y0130753D01*
X0174818Y0130789D01*
X0174693Y0130830D01*
X0174569Y0130874D01*
X0174446Y0130921D01*
X0174325Y0130973D01*
X0174206Y0131028D01*
X0174088Y0131087D01*
X0173973Y0131149D01*
X0173859Y0131215D01*
X0173747Y0131284D01*
X0173637Y0131356D01*
X0173530Y0131432D01*
X0173425Y0131511D01*
X0173322Y0131593D01*
X0173222Y0131678D01*
X0173125Y0131767D01*
X0173030Y0131858D01*
X0172938Y0131952D01*
X0172849Y0132049D01*
X0172763Y0132148D01*
X0172680Y0132250D01*
X0172600Y0132355D01*
X0172524Y0132461D01*
X0172451Y0132570D01*
X0172381Y0132682D01*
X0172314Y0132795D01*
X0172251Y0132910D01*
X0172191Y0133028D01*
X0172135Y0133146D01*
X0172083Y0133267D01*
X0172034Y0133389D01*
X0171989Y0133513D01*
X0171948Y0133637D01*
X0171911Y0133764D01*
X0171877Y0133891D01*
X0171847Y0134019D01*
X0171822Y0134148D01*
X0171800Y0134277D01*
X0171782Y0134407D01*
X0171768Y0134538D01*
X0171758Y0134669D01*
X0171752Y0134801D01*
X0171750Y0134932D01*
X0162695Y0134932D02*
X0162697Y0135063D01*
X0162703Y0135195D01*
X0162713Y0135326D01*
X0162727Y0135457D01*
X0162745Y0135587D01*
X0162767Y0135716D01*
X0162792Y0135845D01*
X0162822Y0135973D01*
X0162856Y0136100D01*
X0162893Y0136227D01*
X0162934Y0136351D01*
X0162979Y0136475D01*
X0163028Y0136597D01*
X0163080Y0136718D01*
X0163136Y0136836D01*
X0163196Y0136954D01*
X0163259Y0137069D01*
X0163326Y0137182D01*
X0163396Y0137294D01*
X0163469Y0137403D01*
X0163545Y0137509D01*
X0163625Y0137614D01*
X0163708Y0137716D01*
X0163794Y0137815D01*
X0163883Y0137912D01*
X0163975Y0138006D01*
X0164070Y0138097D01*
X0164167Y0138186D01*
X0164267Y0138271D01*
X0164370Y0138353D01*
X0164475Y0138432D01*
X0164582Y0138508D01*
X0164692Y0138580D01*
X0164804Y0138649D01*
X0164918Y0138715D01*
X0165033Y0138777D01*
X0165151Y0138836D01*
X0165270Y0138891D01*
X0165391Y0138943D01*
X0165514Y0138990D01*
X0165638Y0139034D01*
X0165763Y0139075D01*
X0165889Y0139111D01*
X0166017Y0139144D01*
X0166145Y0139172D01*
X0166274Y0139197D01*
X0166404Y0139218D01*
X0166534Y0139235D01*
X0166665Y0139248D01*
X0166796Y0139257D01*
X0166927Y0139262D01*
X0167059Y0139263D01*
X0167190Y0139260D01*
X0167322Y0139253D01*
X0167453Y0139242D01*
X0167583Y0139227D01*
X0167713Y0139208D01*
X0167843Y0139185D01*
X0167971Y0139159D01*
X0168099Y0139128D01*
X0168226Y0139093D01*
X0168352Y0139055D01*
X0168476Y0139013D01*
X0168600Y0138967D01*
X0168721Y0138917D01*
X0168841Y0138864D01*
X0168960Y0138807D01*
X0169077Y0138747D01*
X0169191Y0138683D01*
X0169304Y0138615D01*
X0169415Y0138544D01*
X0169524Y0138470D01*
X0169630Y0138393D01*
X0169734Y0138312D01*
X0169835Y0138229D01*
X0169934Y0138142D01*
X0170030Y0138052D01*
X0170123Y0137959D01*
X0170214Y0137864D01*
X0170301Y0137766D01*
X0170386Y0137665D01*
X0170467Y0137562D01*
X0170545Y0137456D01*
X0170620Y0137348D01*
X0170692Y0137238D01*
X0170760Y0137126D01*
X0170825Y0137012D01*
X0170886Y0136895D01*
X0170944Y0136777D01*
X0170998Y0136657D01*
X0171049Y0136536D01*
X0171096Y0136413D01*
X0171139Y0136289D01*
X0171178Y0136164D01*
X0171214Y0136037D01*
X0171245Y0135909D01*
X0171273Y0135781D01*
X0171297Y0135652D01*
X0171317Y0135522D01*
X0171333Y0135391D01*
X0171345Y0135260D01*
X0171353Y0135129D01*
X0171357Y0134998D01*
X0171357Y0134866D01*
X0171353Y0134735D01*
X0171345Y0134604D01*
X0171333Y0134473D01*
X0171317Y0134342D01*
X0171297Y0134212D01*
X0171273Y0134083D01*
X0171245Y0133955D01*
X0171214Y0133827D01*
X0171178Y0133700D01*
X0171139Y0133575D01*
X0171096Y0133451D01*
X0171049Y0133328D01*
X0170998Y0133207D01*
X0170944Y0133087D01*
X0170886Y0132969D01*
X0170825Y0132852D01*
X0170760Y0132738D01*
X0170692Y0132626D01*
X0170620Y0132516D01*
X0170545Y0132408D01*
X0170467Y0132302D01*
X0170386Y0132199D01*
X0170301Y0132098D01*
X0170214Y0132000D01*
X0170123Y0131905D01*
X0170030Y0131812D01*
X0169934Y0131722D01*
X0169835Y0131635D01*
X0169734Y0131552D01*
X0169630Y0131471D01*
X0169524Y0131394D01*
X0169415Y0131320D01*
X0169304Y0131249D01*
X0169192Y0131181D01*
X0169077Y0131117D01*
X0168960Y0131057D01*
X0168841Y0131000D01*
X0168721Y0130947D01*
X0168600Y0130897D01*
X0168476Y0130851D01*
X0168352Y0130809D01*
X0168226Y0130771D01*
X0168099Y0130736D01*
X0167971Y0130705D01*
X0167843Y0130679D01*
X0167713Y0130656D01*
X0167583Y0130637D01*
X0167453Y0130622D01*
X0167322Y0130611D01*
X0167190Y0130604D01*
X0167059Y0130601D01*
X0166927Y0130602D01*
X0166796Y0130607D01*
X0166665Y0130616D01*
X0166534Y0130629D01*
X0166404Y0130646D01*
X0166274Y0130667D01*
X0166145Y0130692D01*
X0166017Y0130720D01*
X0165889Y0130753D01*
X0165763Y0130789D01*
X0165638Y0130830D01*
X0165514Y0130874D01*
X0165391Y0130921D01*
X0165270Y0130973D01*
X0165151Y0131028D01*
X0165033Y0131087D01*
X0164918Y0131149D01*
X0164804Y0131215D01*
X0164692Y0131284D01*
X0164582Y0131356D01*
X0164475Y0131432D01*
X0164370Y0131511D01*
X0164267Y0131593D01*
X0164167Y0131678D01*
X0164070Y0131767D01*
X0163975Y0131858D01*
X0163883Y0131952D01*
X0163794Y0132049D01*
X0163708Y0132148D01*
X0163625Y0132250D01*
X0163545Y0132355D01*
X0163469Y0132461D01*
X0163396Y0132570D01*
X0163326Y0132682D01*
X0163259Y0132795D01*
X0163196Y0132910D01*
X0163136Y0133028D01*
X0163080Y0133146D01*
X0163028Y0133267D01*
X0162979Y0133389D01*
X0162934Y0133513D01*
X0162893Y0133637D01*
X0162856Y0133764D01*
X0162822Y0133891D01*
X0162792Y0134019D01*
X0162767Y0134148D01*
X0162745Y0134277D01*
X0162727Y0134407D01*
X0162713Y0134538D01*
X0162703Y0134669D01*
X0162697Y0134801D01*
X0162695Y0134932D01*
X0161514Y0125089D02*
X0161516Y0125220D01*
X0161522Y0125352D01*
X0161532Y0125483D01*
X0161546Y0125614D01*
X0161564Y0125744D01*
X0161586Y0125873D01*
X0161611Y0126002D01*
X0161641Y0126130D01*
X0161675Y0126257D01*
X0161712Y0126384D01*
X0161753Y0126508D01*
X0161798Y0126632D01*
X0161847Y0126754D01*
X0161899Y0126875D01*
X0161955Y0126993D01*
X0162015Y0127111D01*
X0162078Y0127226D01*
X0162145Y0127339D01*
X0162215Y0127451D01*
X0162288Y0127560D01*
X0162364Y0127666D01*
X0162444Y0127771D01*
X0162527Y0127873D01*
X0162613Y0127972D01*
X0162702Y0128069D01*
X0162794Y0128163D01*
X0162889Y0128254D01*
X0162986Y0128343D01*
X0163086Y0128428D01*
X0163189Y0128510D01*
X0163294Y0128589D01*
X0163401Y0128665D01*
X0163511Y0128737D01*
X0163623Y0128806D01*
X0163737Y0128872D01*
X0163852Y0128934D01*
X0163970Y0128993D01*
X0164089Y0129048D01*
X0164210Y0129100D01*
X0164333Y0129147D01*
X0164457Y0129191D01*
X0164582Y0129232D01*
X0164708Y0129268D01*
X0164836Y0129301D01*
X0164964Y0129329D01*
X0165093Y0129354D01*
X0165223Y0129375D01*
X0165353Y0129392D01*
X0165484Y0129405D01*
X0165615Y0129414D01*
X0165746Y0129419D01*
X0165878Y0129420D01*
X0166009Y0129417D01*
X0166141Y0129410D01*
X0166272Y0129399D01*
X0166402Y0129384D01*
X0166532Y0129365D01*
X0166662Y0129342D01*
X0166790Y0129316D01*
X0166918Y0129285D01*
X0167045Y0129250D01*
X0167171Y0129212D01*
X0167295Y0129170D01*
X0167419Y0129124D01*
X0167540Y0129074D01*
X0167660Y0129021D01*
X0167779Y0128964D01*
X0167896Y0128904D01*
X0168010Y0128840D01*
X0168123Y0128772D01*
X0168234Y0128701D01*
X0168343Y0128627D01*
X0168449Y0128550D01*
X0168553Y0128469D01*
X0168654Y0128386D01*
X0168753Y0128299D01*
X0168849Y0128209D01*
X0168942Y0128116D01*
X0169033Y0128021D01*
X0169120Y0127923D01*
X0169205Y0127822D01*
X0169286Y0127719D01*
X0169364Y0127613D01*
X0169439Y0127505D01*
X0169511Y0127395D01*
X0169579Y0127283D01*
X0169644Y0127169D01*
X0169705Y0127052D01*
X0169763Y0126934D01*
X0169817Y0126814D01*
X0169868Y0126693D01*
X0169915Y0126570D01*
X0169958Y0126446D01*
X0169997Y0126321D01*
X0170033Y0126194D01*
X0170064Y0126066D01*
X0170092Y0125938D01*
X0170116Y0125809D01*
X0170136Y0125679D01*
X0170152Y0125548D01*
X0170164Y0125417D01*
X0170172Y0125286D01*
X0170176Y0125155D01*
X0170176Y0125023D01*
X0170172Y0124892D01*
X0170164Y0124761D01*
X0170152Y0124630D01*
X0170136Y0124499D01*
X0170116Y0124369D01*
X0170092Y0124240D01*
X0170064Y0124112D01*
X0170033Y0123984D01*
X0169997Y0123857D01*
X0169958Y0123732D01*
X0169915Y0123608D01*
X0169868Y0123485D01*
X0169817Y0123364D01*
X0169763Y0123244D01*
X0169705Y0123126D01*
X0169644Y0123009D01*
X0169579Y0122895D01*
X0169511Y0122783D01*
X0169439Y0122673D01*
X0169364Y0122565D01*
X0169286Y0122459D01*
X0169205Y0122356D01*
X0169120Y0122255D01*
X0169033Y0122157D01*
X0168942Y0122062D01*
X0168849Y0121969D01*
X0168753Y0121879D01*
X0168654Y0121792D01*
X0168553Y0121709D01*
X0168449Y0121628D01*
X0168343Y0121551D01*
X0168234Y0121477D01*
X0168123Y0121406D01*
X0168011Y0121338D01*
X0167896Y0121274D01*
X0167779Y0121214D01*
X0167660Y0121157D01*
X0167540Y0121104D01*
X0167419Y0121054D01*
X0167295Y0121008D01*
X0167171Y0120966D01*
X0167045Y0120928D01*
X0166918Y0120893D01*
X0166790Y0120862D01*
X0166662Y0120836D01*
X0166532Y0120813D01*
X0166402Y0120794D01*
X0166272Y0120779D01*
X0166141Y0120768D01*
X0166009Y0120761D01*
X0165878Y0120758D01*
X0165746Y0120759D01*
X0165615Y0120764D01*
X0165484Y0120773D01*
X0165353Y0120786D01*
X0165223Y0120803D01*
X0165093Y0120824D01*
X0164964Y0120849D01*
X0164836Y0120877D01*
X0164708Y0120910D01*
X0164582Y0120946D01*
X0164457Y0120987D01*
X0164333Y0121031D01*
X0164210Y0121078D01*
X0164089Y0121130D01*
X0163970Y0121185D01*
X0163852Y0121244D01*
X0163737Y0121306D01*
X0163623Y0121372D01*
X0163511Y0121441D01*
X0163401Y0121513D01*
X0163294Y0121589D01*
X0163189Y0121668D01*
X0163086Y0121750D01*
X0162986Y0121835D01*
X0162889Y0121924D01*
X0162794Y0122015D01*
X0162702Y0122109D01*
X0162613Y0122206D01*
X0162527Y0122305D01*
X0162444Y0122407D01*
X0162364Y0122512D01*
X0162288Y0122618D01*
X0162215Y0122727D01*
X0162145Y0122839D01*
X0162078Y0122952D01*
X0162015Y0123067D01*
X0161955Y0123185D01*
X0161899Y0123303D01*
X0161847Y0123424D01*
X0161798Y0123546D01*
X0161753Y0123670D01*
X0161712Y0123794D01*
X0161675Y0123921D01*
X0161641Y0124048D01*
X0161611Y0124176D01*
X0161586Y0124305D01*
X0161564Y0124434D01*
X0161546Y0124564D01*
X0161532Y0124695D01*
X0161522Y0124826D01*
X0161516Y0124958D01*
X0161514Y0125089D01*
X0162695Y0114853D02*
X0162697Y0114984D01*
X0162703Y0115116D01*
X0162713Y0115247D01*
X0162727Y0115378D01*
X0162745Y0115508D01*
X0162767Y0115637D01*
X0162792Y0115766D01*
X0162822Y0115894D01*
X0162856Y0116021D01*
X0162893Y0116148D01*
X0162934Y0116272D01*
X0162979Y0116396D01*
X0163028Y0116518D01*
X0163080Y0116639D01*
X0163136Y0116757D01*
X0163196Y0116875D01*
X0163259Y0116990D01*
X0163326Y0117103D01*
X0163396Y0117215D01*
X0163469Y0117324D01*
X0163545Y0117430D01*
X0163625Y0117535D01*
X0163708Y0117637D01*
X0163794Y0117736D01*
X0163883Y0117833D01*
X0163975Y0117927D01*
X0164070Y0118018D01*
X0164167Y0118107D01*
X0164267Y0118192D01*
X0164370Y0118274D01*
X0164475Y0118353D01*
X0164582Y0118429D01*
X0164692Y0118501D01*
X0164804Y0118570D01*
X0164918Y0118636D01*
X0165033Y0118698D01*
X0165151Y0118757D01*
X0165270Y0118812D01*
X0165391Y0118864D01*
X0165514Y0118911D01*
X0165638Y0118955D01*
X0165763Y0118996D01*
X0165889Y0119032D01*
X0166017Y0119065D01*
X0166145Y0119093D01*
X0166274Y0119118D01*
X0166404Y0119139D01*
X0166534Y0119156D01*
X0166665Y0119169D01*
X0166796Y0119178D01*
X0166927Y0119183D01*
X0167059Y0119184D01*
X0167190Y0119181D01*
X0167322Y0119174D01*
X0167453Y0119163D01*
X0167583Y0119148D01*
X0167713Y0119129D01*
X0167843Y0119106D01*
X0167971Y0119080D01*
X0168099Y0119049D01*
X0168226Y0119014D01*
X0168352Y0118976D01*
X0168476Y0118934D01*
X0168600Y0118888D01*
X0168721Y0118838D01*
X0168841Y0118785D01*
X0168960Y0118728D01*
X0169077Y0118668D01*
X0169191Y0118604D01*
X0169304Y0118536D01*
X0169415Y0118465D01*
X0169524Y0118391D01*
X0169630Y0118314D01*
X0169734Y0118233D01*
X0169835Y0118150D01*
X0169934Y0118063D01*
X0170030Y0117973D01*
X0170123Y0117880D01*
X0170214Y0117785D01*
X0170301Y0117687D01*
X0170386Y0117586D01*
X0170467Y0117483D01*
X0170545Y0117377D01*
X0170620Y0117269D01*
X0170692Y0117159D01*
X0170760Y0117047D01*
X0170825Y0116933D01*
X0170886Y0116816D01*
X0170944Y0116698D01*
X0170998Y0116578D01*
X0171049Y0116457D01*
X0171096Y0116334D01*
X0171139Y0116210D01*
X0171178Y0116085D01*
X0171214Y0115958D01*
X0171245Y0115830D01*
X0171273Y0115702D01*
X0171297Y0115573D01*
X0171317Y0115443D01*
X0171333Y0115312D01*
X0171345Y0115181D01*
X0171353Y0115050D01*
X0171357Y0114919D01*
X0171357Y0114787D01*
X0171353Y0114656D01*
X0171345Y0114525D01*
X0171333Y0114394D01*
X0171317Y0114263D01*
X0171297Y0114133D01*
X0171273Y0114004D01*
X0171245Y0113876D01*
X0171214Y0113748D01*
X0171178Y0113621D01*
X0171139Y0113496D01*
X0171096Y0113372D01*
X0171049Y0113249D01*
X0170998Y0113128D01*
X0170944Y0113008D01*
X0170886Y0112890D01*
X0170825Y0112773D01*
X0170760Y0112659D01*
X0170692Y0112547D01*
X0170620Y0112437D01*
X0170545Y0112329D01*
X0170467Y0112223D01*
X0170386Y0112120D01*
X0170301Y0112019D01*
X0170214Y0111921D01*
X0170123Y0111826D01*
X0170030Y0111733D01*
X0169934Y0111643D01*
X0169835Y0111556D01*
X0169734Y0111473D01*
X0169630Y0111392D01*
X0169524Y0111315D01*
X0169415Y0111241D01*
X0169304Y0111170D01*
X0169192Y0111102D01*
X0169077Y0111038D01*
X0168960Y0110978D01*
X0168841Y0110921D01*
X0168721Y0110868D01*
X0168600Y0110818D01*
X0168476Y0110772D01*
X0168352Y0110730D01*
X0168226Y0110692D01*
X0168099Y0110657D01*
X0167971Y0110626D01*
X0167843Y0110600D01*
X0167713Y0110577D01*
X0167583Y0110558D01*
X0167453Y0110543D01*
X0167322Y0110532D01*
X0167190Y0110525D01*
X0167059Y0110522D01*
X0166927Y0110523D01*
X0166796Y0110528D01*
X0166665Y0110537D01*
X0166534Y0110550D01*
X0166404Y0110567D01*
X0166274Y0110588D01*
X0166145Y0110613D01*
X0166017Y0110641D01*
X0165889Y0110674D01*
X0165763Y0110710D01*
X0165638Y0110751D01*
X0165514Y0110795D01*
X0165391Y0110842D01*
X0165270Y0110894D01*
X0165151Y0110949D01*
X0165033Y0111008D01*
X0164918Y0111070D01*
X0164804Y0111136D01*
X0164692Y0111205D01*
X0164582Y0111277D01*
X0164475Y0111353D01*
X0164370Y0111432D01*
X0164267Y0111514D01*
X0164167Y0111599D01*
X0164070Y0111688D01*
X0163975Y0111779D01*
X0163883Y0111873D01*
X0163794Y0111970D01*
X0163708Y0112069D01*
X0163625Y0112171D01*
X0163545Y0112276D01*
X0163469Y0112382D01*
X0163396Y0112491D01*
X0163326Y0112603D01*
X0163259Y0112716D01*
X0163196Y0112831D01*
X0163136Y0112949D01*
X0163080Y0113067D01*
X0163028Y0113188D01*
X0162979Y0113310D01*
X0162934Y0113434D01*
X0162893Y0113558D01*
X0162856Y0113685D01*
X0162822Y0113812D01*
X0162792Y0113940D01*
X0162767Y0114069D01*
X0162745Y0114198D01*
X0162727Y0114328D01*
X0162713Y0114459D01*
X0162703Y0114590D01*
X0162697Y0114722D01*
X0162695Y0114853D01*
X0172538Y0125089D02*
X0172540Y0125220D01*
X0172546Y0125352D01*
X0172556Y0125483D01*
X0172570Y0125614D01*
X0172588Y0125744D01*
X0172610Y0125873D01*
X0172635Y0126002D01*
X0172665Y0126130D01*
X0172699Y0126257D01*
X0172736Y0126384D01*
X0172777Y0126508D01*
X0172822Y0126632D01*
X0172871Y0126754D01*
X0172923Y0126875D01*
X0172979Y0126993D01*
X0173039Y0127111D01*
X0173102Y0127226D01*
X0173169Y0127339D01*
X0173239Y0127451D01*
X0173312Y0127560D01*
X0173388Y0127666D01*
X0173468Y0127771D01*
X0173551Y0127873D01*
X0173637Y0127972D01*
X0173726Y0128069D01*
X0173818Y0128163D01*
X0173913Y0128254D01*
X0174010Y0128343D01*
X0174110Y0128428D01*
X0174213Y0128510D01*
X0174318Y0128589D01*
X0174425Y0128665D01*
X0174535Y0128737D01*
X0174647Y0128806D01*
X0174761Y0128872D01*
X0174876Y0128934D01*
X0174994Y0128993D01*
X0175113Y0129048D01*
X0175234Y0129100D01*
X0175357Y0129147D01*
X0175481Y0129191D01*
X0175606Y0129232D01*
X0175732Y0129268D01*
X0175860Y0129301D01*
X0175988Y0129329D01*
X0176117Y0129354D01*
X0176247Y0129375D01*
X0176377Y0129392D01*
X0176508Y0129405D01*
X0176639Y0129414D01*
X0176770Y0129419D01*
X0176902Y0129420D01*
X0177033Y0129417D01*
X0177165Y0129410D01*
X0177296Y0129399D01*
X0177426Y0129384D01*
X0177556Y0129365D01*
X0177686Y0129342D01*
X0177814Y0129316D01*
X0177942Y0129285D01*
X0178069Y0129250D01*
X0178195Y0129212D01*
X0178319Y0129170D01*
X0178443Y0129124D01*
X0178564Y0129074D01*
X0178684Y0129021D01*
X0178803Y0128964D01*
X0178920Y0128904D01*
X0179034Y0128840D01*
X0179147Y0128772D01*
X0179258Y0128701D01*
X0179367Y0128627D01*
X0179473Y0128550D01*
X0179577Y0128469D01*
X0179678Y0128386D01*
X0179777Y0128299D01*
X0179873Y0128209D01*
X0179966Y0128116D01*
X0180057Y0128021D01*
X0180144Y0127923D01*
X0180229Y0127822D01*
X0180310Y0127719D01*
X0180388Y0127613D01*
X0180463Y0127505D01*
X0180535Y0127395D01*
X0180603Y0127283D01*
X0180668Y0127169D01*
X0180729Y0127052D01*
X0180787Y0126934D01*
X0180841Y0126814D01*
X0180892Y0126693D01*
X0180939Y0126570D01*
X0180982Y0126446D01*
X0181021Y0126321D01*
X0181057Y0126194D01*
X0181088Y0126066D01*
X0181116Y0125938D01*
X0181140Y0125809D01*
X0181160Y0125679D01*
X0181176Y0125548D01*
X0181188Y0125417D01*
X0181196Y0125286D01*
X0181200Y0125155D01*
X0181200Y0125023D01*
X0181196Y0124892D01*
X0181188Y0124761D01*
X0181176Y0124630D01*
X0181160Y0124499D01*
X0181140Y0124369D01*
X0181116Y0124240D01*
X0181088Y0124112D01*
X0181057Y0123984D01*
X0181021Y0123857D01*
X0180982Y0123732D01*
X0180939Y0123608D01*
X0180892Y0123485D01*
X0180841Y0123364D01*
X0180787Y0123244D01*
X0180729Y0123126D01*
X0180668Y0123009D01*
X0180603Y0122895D01*
X0180535Y0122783D01*
X0180463Y0122673D01*
X0180388Y0122565D01*
X0180310Y0122459D01*
X0180229Y0122356D01*
X0180144Y0122255D01*
X0180057Y0122157D01*
X0179966Y0122062D01*
X0179873Y0121969D01*
X0179777Y0121879D01*
X0179678Y0121792D01*
X0179577Y0121709D01*
X0179473Y0121628D01*
X0179367Y0121551D01*
X0179258Y0121477D01*
X0179147Y0121406D01*
X0179035Y0121338D01*
X0178920Y0121274D01*
X0178803Y0121214D01*
X0178684Y0121157D01*
X0178564Y0121104D01*
X0178443Y0121054D01*
X0178319Y0121008D01*
X0178195Y0120966D01*
X0178069Y0120928D01*
X0177942Y0120893D01*
X0177814Y0120862D01*
X0177686Y0120836D01*
X0177556Y0120813D01*
X0177426Y0120794D01*
X0177296Y0120779D01*
X0177165Y0120768D01*
X0177033Y0120761D01*
X0176902Y0120758D01*
X0176770Y0120759D01*
X0176639Y0120764D01*
X0176508Y0120773D01*
X0176377Y0120786D01*
X0176247Y0120803D01*
X0176117Y0120824D01*
X0175988Y0120849D01*
X0175860Y0120877D01*
X0175732Y0120910D01*
X0175606Y0120946D01*
X0175481Y0120987D01*
X0175357Y0121031D01*
X0175234Y0121078D01*
X0175113Y0121130D01*
X0174994Y0121185D01*
X0174876Y0121244D01*
X0174761Y0121306D01*
X0174647Y0121372D01*
X0174535Y0121441D01*
X0174425Y0121513D01*
X0174318Y0121589D01*
X0174213Y0121668D01*
X0174110Y0121750D01*
X0174010Y0121835D01*
X0173913Y0121924D01*
X0173818Y0122015D01*
X0173726Y0122109D01*
X0173637Y0122206D01*
X0173551Y0122305D01*
X0173468Y0122407D01*
X0173388Y0122512D01*
X0173312Y0122618D01*
X0173239Y0122727D01*
X0173169Y0122839D01*
X0173102Y0122952D01*
X0173039Y0123067D01*
X0172979Y0123185D01*
X0172923Y0123303D01*
X0172871Y0123424D01*
X0172822Y0123546D01*
X0172777Y0123670D01*
X0172736Y0123794D01*
X0172699Y0123921D01*
X0172665Y0124048D01*
X0172635Y0124176D01*
X0172610Y0124305D01*
X0172588Y0124434D01*
X0172570Y0124564D01*
X0172556Y0124695D01*
X0172546Y0124826D01*
X0172540Y0124958D01*
X0172538Y0125089D01*
X0171750Y0095168D02*
X0171752Y0095299D01*
X0171758Y0095431D01*
X0171768Y0095562D01*
X0171782Y0095693D01*
X0171800Y0095823D01*
X0171822Y0095952D01*
X0171847Y0096081D01*
X0171877Y0096209D01*
X0171911Y0096336D01*
X0171948Y0096463D01*
X0171989Y0096587D01*
X0172034Y0096711D01*
X0172083Y0096833D01*
X0172135Y0096954D01*
X0172191Y0097072D01*
X0172251Y0097190D01*
X0172314Y0097305D01*
X0172381Y0097418D01*
X0172451Y0097530D01*
X0172524Y0097639D01*
X0172600Y0097745D01*
X0172680Y0097850D01*
X0172763Y0097952D01*
X0172849Y0098051D01*
X0172938Y0098148D01*
X0173030Y0098242D01*
X0173125Y0098333D01*
X0173222Y0098422D01*
X0173322Y0098507D01*
X0173425Y0098589D01*
X0173530Y0098668D01*
X0173637Y0098744D01*
X0173747Y0098816D01*
X0173859Y0098885D01*
X0173973Y0098951D01*
X0174088Y0099013D01*
X0174206Y0099072D01*
X0174325Y0099127D01*
X0174446Y0099179D01*
X0174569Y0099226D01*
X0174693Y0099270D01*
X0174818Y0099311D01*
X0174944Y0099347D01*
X0175072Y0099380D01*
X0175200Y0099408D01*
X0175329Y0099433D01*
X0175459Y0099454D01*
X0175589Y0099471D01*
X0175720Y0099484D01*
X0175851Y0099493D01*
X0175982Y0099498D01*
X0176114Y0099499D01*
X0176245Y0099496D01*
X0176377Y0099489D01*
X0176508Y0099478D01*
X0176638Y0099463D01*
X0176768Y0099444D01*
X0176898Y0099421D01*
X0177026Y0099395D01*
X0177154Y0099364D01*
X0177281Y0099329D01*
X0177407Y0099291D01*
X0177531Y0099249D01*
X0177655Y0099203D01*
X0177776Y0099153D01*
X0177896Y0099100D01*
X0178015Y0099043D01*
X0178132Y0098983D01*
X0178246Y0098919D01*
X0178359Y0098851D01*
X0178470Y0098780D01*
X0178579Y0098706D01*
X0178685Y0098629D01*
X0178789Y0098548D01*
X0178890Y0098465D01*
X0178989Y0098378D01*
X0179085Y0098288D01*
X0179178Y0098195D01*
X0179269Y0098100D01*
X0179356Y0098002D01*
X0179441Y0097901D01*
X0179522Y0097798D01*
X0179600Y0097692D01*
X0179675Y0097584D01*
X0179747Y0097474D01*
X0179815Y0097362D01*
X0179880Y0097248D01*
X0179941Y0097131D01*
X0179999Y0097013D01*
X0180053Y0096893D01*
X0180104Y0096772D01*
X0180151Y0096649D01*
X0180194Y0096525D01*
X0180233Y0096400D01*
X0180269Y0096273D01*
X0180300Y0096145D01*
X0180328Y0096017D01*
X0180352Y0095888D01*
X0180372Y0095758D01*
X0180388Y0095627D01*
X0180400Y0095496D01*
X0180408Y0095365D01*
X0180412Y0095234D01*
X0180412Y0095102D01*
X0180408Y0094971D01*
X0180400Y0094840D01*
X0180388Y0094709D01*
X0180372Y0094578D01*
X0180352Y0094448D01*
X0180328Y0094319D01*
X0180300Y0094191D01*
X0180269Y0094063D01*
X0180233Y0093936D01*
X0180194Y0093811D01*
X0180151Y0093687D01*
X0180104Y0093564D01*
X0180053Y0093443D01*
X0179999Y0093323D01*
X0179941Y0093205D01*
X0179880Y0093088D01*
X0179815Y0092974D01*
X0179747Y0092862D01*
X0179675Y0092752D01*
X0179600Y0092644D01*
X0179522Y0092538D01*
X0179441Y0092435D01*
X0179356Y0092334D01*
X0179269Y0092236D01*
X0179178Y0092141D01*
X0179085Y0092048D01*
X0178989Y0091958D01*
X0178890Y0091871D01*
X0178789Y0091788D01*
X0178685Y0091707D01*
X0178579Y0091630D01*
X0178470Y0091556D01*
X0178359Y0091485D01*
X0178247Y0091417D01*
X0178132Y0091353D01*
X0178015Y0091293D01*
X0177896Y0091236D01*
X0177776Y0091183D01*
X0177655Y0091133D01*
X0177531Y0091087D01*
X0177407Y0091045D01*
X0177281Y0091007D01*
X0177154Y0090972D01*
X0177026Y0090941D01*
X0176898Y0090915D01*
X0176768Y0090892D01*
X0176638Y0090873D01*
X0176508Y0090858D01*
X0176377Y0090847D01*
X0176245Y0090840D01*
X0176114Y0090837D01*
X0175982Y0090838D01*
X0175851Y0090843D01*
X0175720Y0090852D01*
X0175589Y0090865D01*
X0175459Y0090882D01*
X0175329Y0090903D01*
X0175200Y0090928D01*
X0175072Y0090956D01*
X0174944Y0090989D01*
X0174818Y0091025D01*
X0174693Y0091066D01*
X0174569Y0091110D01*
X0174446Y0091157D01*
X0174325Y0091209D01*
X0174206Y0091264D01*
X0174088Y0091323D01*
X0173973Y0091385D01*
X0173859Y0091451D01*
X0173747Y0091520D01*
X0173637Y0091592D01*
X0173530Y0091668D01*
X0173425Y0091747D01*
X0173322Y0091829D01*
X0173222Y0091914D01*
X0173125Y0092003D01*
X0173030Y0092094D01*
X0172938Y0092188D01*
X0172849Y0092285D01*
X0172763Y0092384D01*
X0172680Y0092486D01*
X0172600Y0092591D01*
X0172524Y0092697D01*
X0172451Y0092806D01*
X0172381Y0092918D01*
X0172314Y0093031D01*
X0172251Y0093146D01*
X0172191Y0093264D01*
X0172135Y0093382D01*
X0172083Y0093503D01*
X0172034Y0093625D01*
X0171989Y0093749D01*
X0171948Y0093873D01*
X0171911Y0094000D01*
X0171877Y0094127D01*
X0171847Y0094255D01*
X0171822Y0094384D01*
X0171800Y0094513D01*
X0171782Y0094643D01*
X0171768Y0094774D01*
X0171758Y0094905D01*
X0171752Y0095037D01*
X0171750Y0095168D01*
X0172538Y0084932D02*
X0172540Y0085063D01*
X0172546Y0085195D01*
X0172556Y0085326D01*
X0172570Y0085457D01*
X0172588Y0085587D01*
X0172610Y0085716D01*
X0172635Y0085845D01*
X0172665Y0085973D01*
X0172699Y0086100D01*
X0172736Y0086227D01*
X0172777Y0086351D01*
X0172822Y0086475D01*
X0172871Y0086597D01*
X0172923Y0086718D01*
X0172979Y0086836D01*
X0173039Y0086954D01*
X0173102Y0087069D01*
X0173169Y0087182D01*
X0173239Y0087294D01*
X0173312Y0087403D01*
X0173388Y0087509D01*
X0173468Y0087614D01*
X0173551Y0087716D01*
X0173637Y0087815D01*
X0173726Y0087912D01*
X0173818Y0088006D01*
X0173913Y0088097D01*
X0174010Y0088186D01*
X0174110Y0088271D01*
X0174213Y0088353D01*
X0174318Y0088432D01*
X0174425Y0088508D01*
X0174535Y0088580D01*
X0174647Y0088649D01*
X0174761Y0088715D01*
X0174876Y0088777D01*
X0174994Y0088836D01*
X0175113Y0088891D01*
X0175234Y0088943D01*
X0175357Y0088990D01*
X0175481Y0089034D01*
X0175606Y0089075D01*
X0175732Y0089111D01*
X0175860Y0089144D01*
X0175988Y0089172D01*
X0176117Y0089197D01*
X0176247Y0089218D01*
X0176377Y0089235D01*
X0176508Y0089248D01*
X0176639Y0089257D01*
X0176770Y0089262D01*
X0176902Y0089263D01*
X0177033Y0089260D01*
X0177165Y0089253D01*
X0177296Y0089242D01*
X0177426Y0089227D01*
X0177556Y0089208D01*
X0177686Y0089185D01*
X0177814Y0089159D01*
X0177942Y0089128D01*
X0178069Y0089093D01*
X0178195Y0089055D01*
X0178319Y0089013D01*
X0178443Y0088967D01*
X0178564Y0088917D01*
X0178684Y0088864D01*
X0178803Y0088807D01*
X0178920Y0088747D01*
X0179034Y0088683D01*
X0179147Y0088615D01*
X0179258Y0088544D01*
X0179367Y0088470D01*
X0179473Y0088393D01*
X0179577Y0088312D01*
X0179678Y0088229D01*
X0179777Y0088142D01*
X0179873Y0088052D01*
X0179966Y0087959D01*
X0180057Y0087864D01*
X0180144Y0087766D01*
X0180229Y0087665D01*
X0180310Y0087562D01*
X0180388Y0087456D01*
X0180463Y0087348D01*
X0180535Y0087238D01*
X0180603Y0087126D01*
X0180668Y0087012D01*
X0180729Y0086895D01*
X0180787Y0086777D01*
X0180841Y0086657D01*
X0180892Y0086536D01*
X0180939Y0086413D01*
X0180982Y0086289D01*
X0181021Y0086164D01*
X0181057Y0086037D01*
X0181088Y0085909D01*
X0181116Y0085781D01*
X0181140Y0085652D01*
X0181160Y0085522D01*
X0181176Y0085391D01*
X0181188Y0085260D01*
X0181196Y0085129D01*
X0181200Y0084998D01*
X0181200Y0084866D01*
X0181196Y0084735D01*
X0181188Y0084604D01*
X0181176Y0084473D01*
X0181160Y0084342D01*
X0181140Y0084212D01*
X0181116Y0084083D01*
X0181088Y0083955D01*
X0181057Y0083827D01*
X0181021Y0083700D01*
X0180982Y0083575D01*
X0180939Y0083451D01*
X0180892Y0083328D01*
X0180841Y0083207D01*
X0180787Y0083087D01*
X0180729Y0082969D01*
X0180668Y0082852D01*
X0180603Y0082738D01*
X0180535Y0082626D01*
X0180463Y0082516D01*
X0180388Y0082408D01*
X0180310Y0082302D01*
X0180229Y0082199D01*
X0180144Y0082098D01*
X0180057Y0082000D01*
X0179966Y0081905D01*
X0179873Y0081812D01*
X0179777Y0081722D01*
X0179678Y0081635D01*
X0179577Y0081552D01*
X0179473Y0081471D01*
X0179367Y0081394D01*
X0179258Y0081320D01*
X0179147Y0081249D01*
X0179035Y0081181D01*
X0178920Y0081117D01*
X0178803Y0081057D01*
X0178684Y0081000D01*
X0178564Y0080947D01*
X0178443Y0080897D01*
X0178319Y0080851D01*
X0178195Y0080809D01*
X0178069Y0080771D01*
X0177942Y0080736D01*
X0177814Y0080705D01*
X0177686Y0080679D01*
X0177556Y0080656D01*
X0177426Y0080637D01*
X0177296Y0080622D01*
X0177165Y0080611D01*
X0177033Y0080604D01*
X0176902Y0080601D01*
X0176770Y0080602D01*
X0176639Y0080607D01*
X0176508Y0080616D01*
X0176377Y0080629D01*
X0176247Y0080646D01*
X0176117Y0080667D01*
X0175988Y0080692D01*
X0175860Y0080720D01*
X0175732Y0080753D01*
X0175606Y0080789D01*
X0175481Y0080830D01*
X0175357Y0080874D01*
X0175234Y0080921D01*
X0175113Y0080973D01*
X0174994Y0081028D01*
X0174876Y0081087D01*
X0174761Y0081149D01*
X0174647Y0081215D01*
X0174535Y0081284D01*
X0174425Y0081356D01*
X0174318Y0081432D01*
X0174213Y0081511D01*
X0174110Y0081593D01*
X0174010Y0081678D01*
X0173913Y0081767D01*
X0173818Y0081858D01*
X0173726Y0081952D01*
X0173637Y0082049D01*
X0173551Y0082148D01*
X0173468Y0082250D01*
X0173388Y0082355D01*
X0173312Y0082461D01*
X0173239Y0082570D01*
X0173169Y0082682D01*
X0173102Y0082795D01*
X0173039Y0082910D01*
X0172979Y0083028D01*
X0172923Y0083146D01*
X0172871Y0083267D01*
X0172822Y0083389D01*
X0172777Y0083513D01*
X0172736Y0083637D01*
X0172699Y0083764D01*
X0172665Y0083891D01*
X0172635Y0084019D01*
X0172610Y0084148D01*
X0172588Y0084277D01*
X0172570Y0084407D01*
X0172556Y0084538D01*
X0172546Y0084669D01*
X0172540Y0084801D01*
X0172538Y0084932D01*
X0172538Y0025089D02*
X0172540Y0025220D01*
X0172546Y0025352D01*
X0172556Y0025483D01*
X0172570Y0025614D01*
X0172588Y0025744D01*
X0172610Y0025873D01*
X0172635Y0026002D01*
X0172665Y0026130D01*
X0172699Y0026257D01*
X0172736Y0026384D01*
X0172777Y0026508D01*
X0172822Y0026632D01*
X0172871Y0026754D01*
X0172923Y0026875D01*
X0172979Y0026993D01*
X0173039Y0027111D01*
X0173102Y0027226D01*
X0173169Y0027339D01*
X0173239Y0027451D01*
X0173312Y0027560D01*
X0173388Y0027666D01*
X0173468Y0027771D01*
X0173551Y0027873D01*
X0173637Y0027972D01*
X0173726Y0028069D01*
X0173818Y0028163D01*
X0173913Y0028254D01*
X0174010Y0028343D01*
X0174110Y0028428D01*
X0174213Y0028510D01*
X0174318Y0028589D01*
X0174425Y0028665D01*
X0174535Y0028737D01*
X0174647Y0028806D01*
X0174761Y0028872D01*
X0174876Y0028934D01*
X0174994Y0028993D01*
X0175113Y0029048D01*
X0175234Y0029100D01*
X0175357Y0029147D01*
X0175481Y0029191D01*
X0175606Y0029232D01*
X0175732Y0029268D01*
X0175860Y0029301D01*
X0175988Y0029329D01*
X0176117Y0029354D01*
X0176247Y0029375D01*
X0176377Y0029392D01*
X0176508Y0029405D01*
X0176639Y0029414D01*
X0176770Y0029419D01*
X0176902Y0029420D01*
X0177033Y0029417D01*
X0177165Y0029410D01*
X0177296Y0029399D01*
X0177426Y0029384D01*
X0177556Y0029365D01*
X0177686Y0029342D01*
X0177814Y0029316D01*
X0177942Y0029285D01*
X0178069Y0029250D01*
X0178195Y0029212D01*
X0178319Y0029170D01*
X0178443Y0029124D01*
X0178564Y0029074D01*
X0178684Y0029021D01*
X0178803Y0028964D01*
X0178920Y0028904D01*
X0179034Y0028840D01*
X0179147Y0028772D01*
X0179258Y0028701D01*
X0179367Y0028627D01*
X0179473Y0028550D01*
X0179577Y0028469D01*
X0179678Y0028386D01*
X0179777Y0028299D01*
X0179873Y0028209D01*
X0179966Y0028116D01*
X0180057Y0028021D01*
X0180144Y0027923D01*
X0180229Y0027822D01*
X0180310Y0027719D01*
X0180388Y0027613D01*
X0180463Y0027505D01*
X0180535Y0027395D01*
X0180603Y0027283D01*
X0180668Y0027169D01*
X0180729Y0027052D01*
X0180787Y0026934D01*
X0180841Y0026814D01*
X0180892Y0026693D01*
X0180939Y0026570D01*
X0180982Y0026446D01*
X0181021Y0026321D01*
X0181057Y0026194D01*
X0181088Y0026066D01*
X0181116Y0025938D01*
X0181140Y0025809D01*
X0181160Y0025679D01*
X0181176Y0025548D01*
X0181188Y0025417D01*
X0181196Y0025286D01*
X0181200Y0025155D01*
X0181200Y0025023D01*
X0181196Y0024892D01*
X0181188Y0024761D01*
X0181176Y0024630D01*
X0181160Y0024499D01*
X0181140Y0024369D01*
X0181116Y0024240D01*
X0181088Y0024112D01*
X0181057Y0023984D01*
X0181021Y0023857D01*
X0180982Y0023732D01*
X0180939Y0023608D01*
X0180892Y0023485D01*
X0180841Y0023364D01*
X0180787Y0023244D01*
X0180729Y0023126D01*
X0180668Y0023009D01*
X0180603Y0022895D01*
X0180535Y0022783D01*
X0180463Y0022673D01*
X0180388Y0022565D01*
X0180310Y0022459D01*
X0180229Y0022356D01*
X0180144Y0022255D01*
X0180057Y0022157D01*
X0179966Y0022062D01*
X0179873Y0021969D01*
X0179777Y0021879D01*
X0179678Y0021792D01*
X0179577Y0021709D01*
X0179473Y0021628D01*
X0179367Y0021551D01*
X0179258Y0021477D01*
X0179147Y0021406D01*
X0179035Y0021338D01*
X0178920Y0021274D01*
X0178803Y0021214D01*
X0178684Y0021157D01*
X0178564Y0021104D01*
X0178443Y0021054D01*
X0178319Y0021008D01*
X0178195Y0020966D01*
X0178069Y0020928D01*
X0177942Y0020893D01*
X0177814Y0020862D01*
X0177686Y0020836D01*
X0177556Y0020813D01*
X0177426Y0020794D01*
X0177296Y0020779D01*
X0177165Y0020768D01*
X0177033Y0020761D01*
X0176902Y0020758D01*
X0176770Y0020759D01*
X0176639Y0020764D01*
X0176508Y0020773D01*
X0176377Y0020786D01*
X0176247Y0020803D01*
X0176117Y0020824D01*
X0175988Y0020849D01*
X0175860Y0020877D01*
X0175732Y0020910D01*
X0175606Y0020946D01*
X0175481Y0020987D01*
X0175357Y0021031D01*
X0175234Y0021078D01*
X0175113Y0021130D01*
X0174994Y0021185D01*
X0174876Y0021244D01*
X0174761Y0021306D01*
X0174647Y0021372D01*
X0174535Y0021441D01*
X0174425Y0021513D01*
X0174318Y0021589D01*
X0174213Y0021668D01*
X0174110Y0021750D01*
X0174010Y0021835D01*
X0173913Y0021924D01*
X0173818Y0022015D01*
X0173726Y0022109D01*
X0173637Y0022206D01*
X0173551Y0022305D01*
X0173468Y0022407D01*
X0173388Y0022512D01*
X0173312Y0022618D01*
X0173239Y0022727D01*
X0173169Y0022839D01*
X0173102Y0022952D01*
X0173039Y0023067D01*
X0172979Y0023185D01*
X0172923Y0023303D01*
X0172871Y0023424D01*
X0172822Y0023546D01*
X0172777Y0023670D01*
X0172736Y0023794D01*
X0172699Y0023921D01*
X0172665Y0024048D01*
X0172635Y0024176D01*
X0172610Y0024305D01*
X0172588Y0024434D01*
X0172570Y0024564D01*
X0172556Y0024695D01*
X0172546Y0024826D01*
X0172540Y0024958D01*
X0172538Y0025089D01*
X0161514Y0025089D02*
X0161516Y0025220D01*
X0161522Y0025352D01*
X0161532Y0025483D01*
X0161546Y0025614D01*
X0161564Y0025744D01*
X0161586Y0025873D01*
X0161611Y0026002D01*
X0161641Y0026130D01*
X0161675Y0026257D01*
X0161712Y0026384D01*
X0161753Y0026508D01*
X0161798Y0026632D01*
X0161847Y0026754D01*
X0161899Y0026875D01*
X0161955Y0026993D01*
X0162015Y0027111D01*
X0162078Y0027226D01*
X0162145Y0027339D01*
X0162215Y0027451D01*
X0162288Y0027560D01*
X0162364Y0027666D01*
X0162444Y0027771D01*
X0162527Y0027873D01*
X0162613Y0027972D01*
X0162702Y0028069D01*
X0162794Y0028163D01*
X0162889Y0028254D01*
X0162986Y0028343D01*
X0163086Y0028428D01*
X0163189Y0028510D01*
X0163294Y0028589D01*
X0163401Y0028665D01*
X0163511Y0028737D01*
X0163623Y0028806D01*
X0163737Y0028872D01*
X0163852Y0028934D01*
X0163970Y0028993D01*
X0164089Y0029048D01*
X0164210Y0029100D01*
X0164333Y0029147D01*
X0164457Y0029191D01*
X0164582Y0029232D01*
X0164708Y0029268D01*
X0164836Y0029301D01*
X0164964Y0029329D01*
X0165093Y0029354D01*
X0165223Y0029375D01*
X0165353Y0029392D01*
X0165484Y0029405D01*
X0165615Y0029414D01*
X0165746Y0029419D01*
X0165878Y0029420D01*
X0166009Y0029417D01*
X0166141Y0029410D01*
X0166272Y0029399D01*
X0166402Y0029384D01*
X0166532Y0029365D01*
X0166662Y0029342D01*
X0166790Y0029316D01*
X0166918Y0029285D01*
X0167045Y0029250D01*
X0167171Y0029212D01*
X0167295Y0029170D01*
X0167419Y0029124D01*
X0167540Y0029074D01*
X0167660Y0029021D01*
X0167779Y0028964D01*
X0167896Y0028904D01*
X0168010Y0028840D01*
X0168123Y0028772D01*
X0168234Y0028701D01*
X0168343Y0028627D01*
X0168449Y0028550D01*
X0168553Y0028469D01*
X0168654Y0028386D01*
X0168753Y0028299D01*
X0168849Y0028209D01*
X0168942Y0028116D01*
X0169033Y0028021D01*
X0169120Y0027923D01*
X0169205Y0027822D01*
X0169286Y0027719D01*
X0169364Y0027613D01*
X0169439Y0027505D01*
X0169511Y0027395D01*
X0169579Y0027283D01*
X0169644Y0027169D01*
X0169705Y0027052D01*
X0169763Y0026934D01*
X0169817Y0026814D01*
X0169868Y0026693D01*
X0169915Y0026570D01*
X0169958Y0026446D01*
X0169997Y0026321D01*
X0170033Y0026194D01*
X0170064Y0026066D01*
X0170092Y0025938D01*
X0170116Y0025809D01*
X0170136Y0025679D01*
X0170152Y0025548D01*
X0170164Y0025417D01*
X0170172Y0025286D01*
X0170176Y0025155D01*
X0170176Y0025023D01*
X0170172Y0024892D01*
X0170164Y0024761D01*
X0170152Y0024630D01*
X0170136Y0024499D01*
X0170116Y0024369D01*
X0170092Y0024240D01*
X0170064Y0024112D01*
X0170033Y0023984D01*
X0169997Y0023857D01*
X0169958Y0023732D01*
X0169915Y0023608D01*
X0169868Y0023485D01*
X0169817Y0023364D01*
X0169763Y0023244D01*
X0169705Y0023126D01*
X0169644Y0023009D01*
X0169579Y0022895D01*
X0169511Y0022783D01*
X0169439Y0022673D01*
X0169364Y0022565D01*
X0169286Y0022459D01*
X0169205Y0022356D01*
X0169120Y0022255D01*
X0169033Y0022157D01*
X0168942Y0022062D01*
X0168849Y0021969D01*
X0168753Y0021879D01*
X0168654Y0021792D01*
X0168553Y0021709D01*
X0168449Y0021628D01*
X0168343Y0021551D01*
X0168234Y0021477D01*
X0168123Y0021406D01*
X0168011Y0021338D01*
X0167896Y0021274D01*
X0167779Y0021214D01*
X0167660Y0021157D01*
X0167540Y0021104D01*
X0167419Y0021054D01*
X0167295Y0021008D01*
X0167171Y0020966D01*
X0167045Y0020928D01*
X0166918Y0020893D01*
X0166790Y0020862D01*
X0166662Y0020836D01*
X0166532Y0020813D01*
X0166402Y0020794D01*
X0166272Y0020779D01*
X0166141Y0020768D01*
X0166009Y0020761D01*
X0165878Y0020758D01*
X0165746Y0020759D01*
X0165615Y0020764D01*
X0165484Y0020773D01*
X0165353Y0020786D01*
X0165223Y0020803D01*
X0165093Y0020824D01*
X0164964Y0020849D01*
X0164836Y0020877D01*
X0164708Y0020910D01*
X0164582Y0020946D01*
X0164457Y0020987D01*
X0164333Y0021031D01*
X0164210Y0021078D01*
X0164089Y0021130D01*
X0163970Y0021185D01*
X0163852Y0021244D01*
X0163737Y0021306D01*
X0163623Y0021372D01*
X0163511Y0021441D01*
X0163401Y0021513D01*
X0163294Y0021589D01*
X0163189Y0021668D01*
X0163086Y0021750D01*
X0162986Y0021835D01*
X0162889Y0021924D01*
X0162794Y0022015D01*
X0162702Y0022109D01*
X0162613Y0022206D01*
X0162527Y0022305D01*
X0162444Y0022407D01*
X0162364Y0022512D01*
X0162288Y0022618D01*
X0162215Y0022727D01*
X0162145Y0022839D01*
X0162078Y0022952D01*
X0162015Y0023067D01*
X0161955Y0023185D01*
X0161899Y0023303D01*
X0161847Y0023424D01*
X0161798Y0023546D01*
X0161753Y0023670D01*
X0161712Y0023794D01*
X0161675Y0023921D01*
X0161641Y0024048D01*
X0161611Y0024176D01*
X0161586Y0024305D01*
X0161564Y0024434D01*
X0161546Y0024564D01*
X0161532Y0024695D01*
X0161522Y0024826D01*
X0161516Y0024958D01*
X0161514Y0025089D01*
X0032774Y0155011D02*
X0032776Y0155142D01*
X0032782Y0155274D01*
X0032792Y0155405D01*
X0032806Y0155536D01*
X0032824Y0155666D01*
X0032846Y0155795D01*
X0032871Y0155924D01*
X0032901Y0156052D01*
X0032935Y0156179D01*
X0032972Y0156306D01*
X0033013Y0156430D01*
X0033058Y0156554D01*
X0033107Y0156676D01*
X0033159Y0156797D01*
X0033215Y0156915D01*
X0033275Y0157033D01*
X0033338Y0157148D01*
X0033405Y0157261D01*
X0033475Y0157373D01*
X0033548Y0157482D01*
X0033624Y0157588D01*
X0033704Y0157693D01*
X0033787Y0157795D01*
X0033873Y0157894D01*
X0033962Y0157991D01*
X0034054Y0158085D01*
X0034149Y0158176D01*
X0034246Y0158265D01*
X0034346Y0158350D01*
X0034449Y0158432D01*
X0034554Y0158511D01*
X0034661Y0158587D01*
X0034771Y0158659D01*
X0034883Y0158728D01*
X0034997Y0158794D01*
X0035112Y0158856D01*
X0035230Y0158915D01*
X0035349Y0158970D01*
X0035470Y0159022D01*
X0035593Y0159069D01*
X0035717Y0159113D01*
X0035842Y0159154D01*
X0035968Y0159190D01*
X0036096Y0159223D01*
X0036224Y0159251D01*
X0036353Y0159276D01*
X0036483Y0159297D01*
X0036613Y0159314D01*
X0036744Y0159327D01*
X0036875Y0159336D01*
X0037006Y0159341D01*
X0037138Y0159342D01*
X0037269Y0159339D01*
X0037401Y0159332D01*
X0037532Y0159321D01*
X0037662Y0159306D01*
X0037792Y0159287D01*
X0037922Y0159264D01*
X0038050Y0159238D01*
X0038178Y0159207D01*
X0038305Y0159172D01*
X0038431Y0159134D01*
X0038555Y0159092D01*
X0038679Y0159046D01*
X0038800Y0158996D01*
X0038920Y0158943D01*
X0039039Y0158886D01*
X0039156Y0158826D01*
X0039270Y0158762D01*
X0039383Y0158694D01*
X0039494Y0158623D01*
X0039603Y0158549D01*
X0039709Y0158472D01*
X0039813Y0158391D01*
X0039914Y0158308D01*
X0040013Y0158221D01*
X0040109Y0158131D01*
X0040202Y0158038D01*
X0040293Y0157943D01*
X0040380Y0157845D01*
X0040465Y0157744D01*
X0040546Y0157641D01*
X0040624Y0157535D01*
X0040699Y0157427D01*
X0040771Y0157317D01*
X0040839Y0157205D01*
X0040904Y0157091D01*
X0040965Y0156974D01*
X0041023Y0156856D01*
X0041077Y0156736D01*
X0041128Y0156615D01*
X0041175Y0156492D01*
X0041218Y0156368D01*
X0041257Y0156243D01*
X0041293Y0156116D01*
X0041324Y0155988D01*
X0041352Y0155860D01*
X0041376Y0155731D01*
X0041396Y0155601D01*
X0041412Y0155470D01*
X0041424Y0155339D01*
X0041432Y0155208D01*
X0041436Y0155077D01*
X0041436Y0154945D01*
X0041432Y0154814D01*
X0041424Y0154683D01*
X0041412Y0154552D01*
X0041396Y0154421D01*
X0041376Y0154291D01*
X0041352Y0154162D01*
X0041324Y0154034D01*
X0041293Y0153906D01*
X0041257Y0153779D01*
X0041218Y0153654D01*
X0041175Y0153530D01*
X0041128Y0153407D01*
X0041077Y0153286D01*
X0041023Y0153166D01*
X0040965Y0153048D01*
X0040904Y0152931D01*
X0040839Y0152817D01*
X0040771Y0152705D01*
X0040699Y0152595D01*
X0040624Y0152487D01*
X0040546Y0152381D01*
X0040465Y0152278D01*
X0040380Y0152177D01*
X0040293Y0152079D01*
X0040202Y0151984D01*
X0040109Y0151891D01*
X0040013Y0151801D01*
X0039914Y0151714D01*
X0039813Y0151631D01*
X0039709Y0151550D01*
X0039603Y0151473D01*
X0039494Y0151399D01*
X0039383Y0151328D01*
X0039271Y0151260D01*
X0039156Y0151196D01*
X0039039Y0151136D01*
X0038920Y0151079D01*
X0038800Y0151026D01*
X0038679Y0150976D01*
X0038555Y0150930D01*
X0038431Y0150888D01*
X0038305Y0150850D01*
X0038178Y0150815D01*
X0038050Y0150784D01*
X0037922Y0150758D01*
X0037792Y0150735D01*
X0037662Y0150716D01*
X0037532Y0150701D01*
X0037401Y0150690D01*
X0037269Y0150683D01*
X0037138Y0150680D01*
X0037006Y0150681D01*
X0036875Y0150686D01*
X0036744Y0150695D01*
X0036613Y0150708D01*
X0036483Y0150725D01*
X0036353Y0150746D01*
X0036224Y0150771D01*
X0036096Y0150799D01*
X0035968Y0150832D01*
X0035842Y0150868D01*
X0035717Y0150909D01*
X0035593Y0150953D01*
X0035470Y0151000D01*
X0035349Y0151052D01*
X0035230Y0151107D01*
X0035112Y0151166D01*
X0034997Y0151228D01*
X0034883Y0151294D01*
X0034771Y0151363D01*
X0034661Y0151435D01*
X0034554Y0151511D01*
X0034449Y0151590D01*
X0034346Y0151672D01*
X0034246Y0151757D01*
X0034149Y0151846D01*
X0034054Y0151937D01*
X0033962Y0152031D01*
X0033873Y0152128D01*
X0033787Y0152227D01*
X0033704Y0152329D01*
X0033624Y0152434D01*
X0033548Y0152540D01*
X0033475Y0152649D01*
X0033405Y0152761D01*
X0033338Y0152874D01*
X0033275Y0152989D01*
X0033215Y0153107D01*
X0033159Y0153225D01*
X0033107Y0153346D01*
X0033058Y0153468D01*
X0033013Y0153592D01*
X0032972Y0153716D01*
X0032935Y0153843D01*
X0032901Y0153970D01*
X0032871Y0154098D01*
X0032846Y0154227D01*
X0032824Y0154356D01*
X0032806Y0154486D01*
X0032792Y0154617D01*
X0032782Y0154748D01*
X0032776Y0154880D01*
X0032774Y0155011D01*
X0031593Y0164853D02*
X0031595Y0164984D01*
X0031601Y0165116D01*
X0031611Y0165247D01*
X0031625Y0165378D01*
X0031643Y0165508D01*
X0031665Y0165637D01*
X0031690Y0165766D01*
X0031720Y0165894D01*
X0031754Y0166021D01*
X0031791Y0166148D01*
X0031832Y0166272D01*
X0031877Y0166396D01*
X0031926Y0166518D01*
X0031978Y0166639D01*
X0032034Y0166757D01*
X0032094Y0166875D01*
X0032157Y0166990D01*
X0032224Y0167103D01*
X0032294Y0167215D01*
X0032367Y0167324D01*
X0032443Y0167430D01*
X0032523Y0167535D01*
X0032606Y0167637D01*
X0032692Y0167736D01*
X0032781Y0167833D01*
X0032873Y0167927D01*
X0032968Y0168018D01*
X0033065Y0168107D01*
X0033165Y0168192D01*
X0033268Y0168274D01*
X0033373Y0168353D01*
X0033480Y0168429D01*
X0033590Y0168501D01*
X0033702Y0168570D01*
X0033816Y0168636D01*
X0033931Y0168698D01*
X0034049Y0168757D01*
X0034168Y0168812D01*
X0034289Y0168864D01*
X0034412Y0168911D01*
X0034536Y0168955D01*
X0034661Y0168996D01*
X0034787Y0169032D01*
X0034915Y0169065D01*
X0035043Y0169093D01*
X0035172Y0169118D01*
X0035302Y0169139D01*
X0035432Y0169156D01*
X0035563Y0169169D01*
X0035694Y0169178D01*
X0035825Y0169183D01*
X0035957Y0169184D01*
X0036088Y0169181D01*
X0036220Y0169174D01*
X0036351Y0169163D01*
X0036481Y0169148D01*
X0036611Y0169129D01*
X0036741Y0169106D01*
X0036869Y0169080D01*
X0036997Y0169049D01*
X0037124Y0169014D01*
X0037250Y0168976D01*
X0037374Y0168934D01*
X0037498Y0168888D01*
X0037619Y0168838D01*
X0037739Y0168785D01*
X0037858Y0168728D01*
X0037975Y0168668D01*
X0038089Y0168604D01*
X0038202Y0168536D01*
X0038313Y0168465D01*
X0038422Y0168391D01*
X0038528Y0168314D01*
X0038632Y0168233D01*
X0038733Y0168150D01*
X0038832Y0168063D01*
X0038928Y0167973D01*
X0039021Y0167880D01*
X0039112Y0167785D01*
X0039199Y0167687D01*
X0039284Y0167586D01*
X0039365Y0167483D01*
X0039443Y0167377D01*
X0039518Y0167269D01*
X0039590Y0167159D01*
X0039658Y0167047D01*
X0039723Y0166933D01*
X0039784Y0166816D01*
X0039842Y0166698D01*
X0039896Y0166578D01*
X0039947Y0166457D01*
X0039994Y0166334D01*
X0040037Y0166210D01*
X0040076Y0166085D01*
X0040112Y0165958D01*
X0040143Y0165830D01*
X0040171Y0165702D01*
X0040195Y0165573D01*
X0040215Y0165443D01*
X0040231Y0165312D01*
X0040243Y0165181D01*
X0040251Y0165050D01*
X0040255Y0164919D01*
X0040255Y0164787D01*
X0040251Y0164656D01*
X0040243Y0164525D01*
X0040231Y0164394D01*
X0040215Y0164263D01*
X0040195Y0164133D01*
X0040171Y0164004D01*
X0040143Y0163876D01*
X0040112Y0163748D01*
X0040076Y0163621D01*
X0040037Y0163496D01*
X0039994Y0163372D01*
X0039947Y0163249D01*
X0039896Y0163128D01*
X0039842Y0163008D01*
X0039784Y0162890D01*
X0039723Y0162773D01*
X0039658Y0162659D01*
X0039590Y0162547D01*
X0039518Y0162437D01*
X0039443Y0162329D01*
X0039365Y0162223D01*
X0039284Y0162120D01*
X0039199Y0162019D01*
X0039112Y0161921D01*
X0039021Y0161826D01*
X0038928Y0161733D01*
X0038832Y0161643D01*
X0038733Y0161556D01*
X0038632Y0161473D01*
X0038528Y0161392D01*
X0038422Y0161315D01*
X0038313Y0161241D01*
X0038202Y0161170D01*
X0038090Y0161102D01*
X0037975Y0161038D01*
X0037858Y0160978D01*
X0037739Y0160921D01*
X0037619Y0160868D01*
X0037498Y0160818D01*
X0037374Y0160772D01*
X0037250Y0160730D01*
X0037124Y0160692D01*
X0036997Y0160657D01*
X0036869Y0160626D01*
X0036741Y0160600D01*
X0036611Y0160577D01*
X0036481Y0160558D01*
X0036351Y0160543D01*
X0036220Y0160532D01*
X0036088Y0160525D01*
X0035957Y0160522D01*
X0035825Y0160523D01*
X0035694Y0160528D01*
X0035563Y0160537D01*
X0035432Y0160550D01*
X0035302Y0160567D01*
X0035172Y0160588D01*
X0035043Y0160613D01*
X0034915Y0160641D01*
X0034787Y0160674D01*
X0034661Y0160710D01*
X0034536Y0160751D01*
X0034412Y0160795D01*
X0034289Y0160842D01*
X0034168Y0160894D01*
X0034049Y0160949D01*
X0033931Y0161008D01*
X0033816Y0161070D01*
X0033702Y0161136D01*
X0033590Y0161205D01*
X0033480Y0161277D01*
X0033373Y0161353D01*
X0033268Y0161432D01*
X0033165Y0161514D01*
X0033065Y0161599D01*
X0032968Y0161688D01*
X0032873Y0161779D01*
X0032781Y0161873D01*
X0032692Y0161970D01*
X0032606Y0162069D01*
X0032523Y0162171D01*
X0032443Y0162276D01*
X0032367Y0162382D01*
X0032294Y0162491D01*
X0032224Y0162603D01*
X0032157Y0162716D01*
X0032094Y0162831D01*
X0032034Y0162949D01*
X0031978Y0163067D01*
X0031926Y0163188D01*
X0031877Y0163310D01*
X0031832Y0163434D01*
X0031791Y0163558D01*
X0031754Y0163685D01*
X0031720Y0163812D01*
X0031690Y0163940D01*
X0031665Y0164069D01*
X0031643Y0164198D01*
X0031625Y0164328D01*
X0031611Y0164459D01*
X0031601Y0164590D01*
X0031595Y0164722D01*
X0031593Y0164853D01*
X0021357Y0175089D02*
X0021359Y0175220D01*
X0021365Y0175352D01*
X0021375Y0175483D01*
X0021389Y0175614D01*
X0021407Y0175744D01*
X0021429Y0175873D01*
X0021454Y0176002D01*
X0021484Y0176130D01*
X0021518Y0176257D01*
X0021555Y0176384D01*
X0021596Y0176508D01*
X0021641Y0176632D01*
X0021690Y0176754D01*
X0021742Y0176875D01*
X0021798Y0176993D01*
X0021858Y0177111D01*
X0021921Y0177226D01*
X0021988Y0177339D01*
X0022058Y0177451D01*
X0022131Y0177560D01*
X0022207Y0177666D01*
X0022287Y0177771D01*
X0022370Y0177873D01*
X0022456Y0177972D01*
X0022545Y0178069D01*
X0022637Y0178163D01*
X0022732Y0178254D01*
X0022829Y0178343D01*
X0022929Y0178428D01*
X0023032Y0178510D01*
X0023137Y0178589D01*
X0023244Y0178665D01*
X0023354Y0178737D01*
X0023466Y0178806D01*
X0023580Y0178872D01*
X0023695Y0178934D01*
X0023813Y0178993D01*
X0023932Y0179048D01*
X0024053Y0179100D01*
X0024176Y0179147D01*
X0024300Y0179191D01*
X0024425Y0179232D01*
X0024551Y0179268D01*
X0024679Y0179301D01*
X0024807Y0179329D01*
X0024936Y0179354D01*
X0025066Y0179375D01*
X0025196Y0179392D01*
X0025327Y0179405D01*
X0025458Y0179414D01*
X0025589Y0179419D01*
X0025721Y0179420D01*
X0025852Y0179417D01*
X0025984Y0179410D01*
X0026115Y0179399D01*
X0026245Y0179384D01*
X0026375Y0179365D01*
X0026505Y0179342D01*
X0026633Y0179316D01*
X0026761Y0179285D01*
X0026888Y0179250D01*
X0027014Y0179212D01*
X0027138Y0179170D01*
X0027262Y0179124D01*
X0027383Y0179074D01*
X0027503Y0179021D01*
X0027622Y0178964D01*
X0027739Y0178904D01*
X0027853Y0178840D01*
X0027966Y0178772D01*
X0028077Y0178701D01*
X0028186Y0178627D01*
X0028292Y0178550D01*
X0028396Y0178469D01*
X0028497Y0178386D01*
X0028596Y0178299D01*
X0028692Y0178209D01*
X0028785Y0178116D01*
X0028876Y0178021D01*
X0028963Y0177923D01*
X0029048Y0177822D01*
X0029129Y0177719D01*
X0029207Y0177613D01*
X0029282Y0177505D01*
X0029354Y0177395D01*
X0029422Y0177283D01*
X0029487Y0177169D01*
X0029548Y0177052D01*
X0029606Y0176934D01*
X0029660Y0176814D01*
X0029711Y0176693D01*
X0029758Y0176570D01*
X0029801Y0176446D01*
X0029840Y0176321D01*
X0029876Y0176194D01*
X0029907Y0176066D01*
X0029935Y0175938D01*
X0029959Y0175809D01*
X0029979Y0175679D01*
X0029995Y0175548D01*
X0030007Y0175417D01*
X0030015Y0175286D01*
X0030019Y0175155D01*
X0030019Y0175023D01*
X0030015Y0174892D01*
X0030007Y0174761D01*
X0029995Y0174630D01*
X0029979Y0174499D01*
X0029959Y0174369D01*
X0029935Y0174240D01*
X0029907Y0174112D01*
X0029876Y0173984D01*
X0029840Y0173857D01*
X0029801Y0173732D01*
X0029758Y0173608D01*
X0029711Y0173485D01*
X0029660Y0173364D01*
X0029606Y0173244D01*
X0029548Y0173126D01*
X0029487Y0173009D01*
X0029422Y0172895D01*
X0029354Y0172783D01*
X0029282Y0172673D01*
X0029207Y0172565D01*
X0029129Y0172459D01*
X0029048Y0172356D01*
X0028963Y0172255D01*
X0028876Y0172157D01*
X0028785Y0172062D01*
X0028692Y0171969D01*
X0028596Y0171879D01*
X0028497Y0171792D01*
X0028396Y0171709D01*
X0028292Y0171628D01*
X0028186Y0171551D01*
X0028077Y0171477D01*
X0027966Y0171406D01*
X0027854Y0171338D01*
X0027739Y0171274D01*
X0027622Y0171214D01*
X0027503Y0171157D01*
X0027383Y0171104D01*
X0027262Y0171054D01*
X0027138Y0171008D01*
X0027014Y0170966D01*
X0026888Y0170928D01*
X0026761Y0170893D01*
X0026633Y0170862D01*
X0026505Y0170836D01*
X0026375Y0170813D01*
X0026245Y0170794D01*
X0026115Y0170779D01*
X0025984Y0170768D01*
X0025852Y0170761D01*
X0025721Y0170758D01*
X0025589Y0170759D01*
X0025458Y0170764D01*
X0025327Y0170773D01*
X0025196Y0170786D01*
X0025066Y0170803D01*
X0024936Y0170824D01*
X0024807Y0170849D01*
X0024679Y0170877D01*
X0024551Y0170910D01*
X0024425Y0170946D01*
X0024300Y0170987D01*
X0024176Y0171031D01*
X0024053Y0171078D01*
X0023932Y0171130D01*
X0023813Y0171185D01*
X0023695Y0171244D01*
X0023580Y0171306D01*
X0023466Y0171372D01*
X0023354Y0171441D01*
X0023244Y0171513D01*
X0023137Y0171589D01*
X0023032Y0171668D01*
X0022929Y0171750D01*
X0022829Y0171835D01*
X0022732Y0171924D01*
X0022637Y0172015D01*
X0022545Y0172109D01*
X0022456Y0172206D01*
X0022370Y0172305D01*
X0022287Y0172407D01*
X0022207Y0172512D01*
X0022131Y0172618D01*
X0022058Y0172727D01*
X0021988Y0172839D01*
X0021921Y0172952D01*
X0021858Y0173067D01*
X0021798Y0173185D01*
X0021742Y0173303D01*
X0021690Y0173424D01*
X0021641Y0173546D01*
X0021596Y0173670D01*
X0021555Y0173794D01*
X0021518Y0173921D01*
X0021484Y0174048D01*
X0021454Y0174176D01*
X0021429Y0174305D01*
X0021407Y0174434D01*
X0021389Y0174564D01*
X0021375Y0174695D01*
X0021365Y0174826D01*
X0021359Y0174958D01*
X0021357Y0175089D01*
X0031593Y0184932D02*
X0031595Y0185063D01*
X0031601Y0185195D01*
X0031611Y0185326D01*
X0031625Y0185457D01*
X0031643Y0185587D01*
X0031665Y0185716D01*
X0031690Y0185845D01*
X0031720Y0185973D01*
X0031754Y0186100D01*
X0031791Y0186227D01*
X0031832Y0186351D01*
X0031877Y0186475D01*
X0031926Y0186597D01*
X0031978Y0186718D01*
X0032034Y0186836D01*
X0032094Y0186954D01*
X0032157Y0187069D01*
X0032224Y0187182D01*
X0032294Y0187294D01*
X0032367Y0187403D01*
X0032443Y0187509D01*
X0032523Y0187614D01*
X0032606Y0187716D01*
X0032692Y0187815D01*
X0032781Y0187912D01*
X0032873Y0188006D01*
X0032968Y0188097D01*
X0033065Y0188186D01*
X0033165Y0188271D01*
X0033268Y0188353D01*
X0033373Y0188432D01*
X0033480Y0188508D01*
X0033590Y0188580D01*
X0033702Y0188649D01*
X0033816Y0188715D01*
X0033931Y0188777D01*
X0034049Y0188836D01*
X0034168Y0188891D01*
X0034289Y0188943D01*
X0034412Y0188990D01*
X0034536Y0189034D01*
X0034661Y0189075D01*
X0034787Y0189111D01*
X0034915Y0189144D01*
X0035043Y0189172D01*
X0035172Y0189197D01*
X0035302Y0189218D01*
X0035432Y0189235D01*
X0035563Y0189248D01*
X0035694Y0189257D01*
X0035825Y0189262D01*
X0035957Y0189263D01*
X0036088Y0189260D01*
X0036220Y0189253D01*
X0036351Y0189242D01*
X0036481Y0189227D01*
X0036611Y0189208D01*
X0036741Y0189185D01*
X0036869Y0189159D01*
X0036997Y0189128D01*
X0037124Y0189093D01*
X0037250Y0189055D01*
X0037374Y0189013D01*
X0037498Y0188967D01*
X0037619Y0188917D01*
X0037739Y0188864D01*
X0037858Y0188807D01*
X0037975Y0188747D01*
X0038089Y0188683D01*
X0038202Y0188615D01*
X0038313Y0188544D01*
X0038422Y0188470D01*
X0038528Y0188393D01*
X0038632Y0188312D01*
X0038733Y0188229D01*
X0038832Y0188142D01*
X0038928Y0188052D01*
X0039021Y0187959D01*
X0039112Y0187864D01*
X0039199Y0187766D01*
X0039284Y0187665D01*
X0039365Y0187562D01*
X0039443Y0187456D01*
X0039518Y0187348D01*
X0039590Y0187238D01*
X0039658Y0187126D01*
X0039723Y0187012D01*
X0039784Y0186895D01*
X0039842Y0186777D01*
X0039896Y0186657D01*
X0039947Y0186536D01*
X0039994Y0186413D01*
X0040037Y0186289D01*
X0040076Y0186164D01*
X0040112Y0186037D01*
X0040143Y0185909D01*
X0040171Y0185781D01*
X0040195Y0185652D01*
X0040215Y0185522D01*
X0040231Y0185391D01*
X0040243Y0185260D01*
X0040251Y0185129D01*
X0040255Y0184998D01*
X0040255Y0184866D01*
X0040251Y0184735D01*
X0040243Y0184604D01*
X0040231Y0184473D01*
X0040215Y0184342D01*
X0040195Y0184212D01*
X0040171Y0184083D01*
X0040143Y0183955D01*
X0040112Y0183827D01*
X0040076Y0183700D01*
X0040037Y0183575D01*
X0039994Y0183451D01*
X0039947Y0183328D01*
X0039896Y0183207D01*
X0039842Y0183087D01*
X0039784Y0182969D01*
X0039723Y0182852D01*
X0039658Y0182738D01*
X0039590Y0182626D01*
X0039518Y0182516D01*
X0039443Y0182408D01*
X0039365Y0182302D01*
X0039284Y0182199D01*
X0039199Y0182098D01*
X0039112Y0182000D01*
X0039021Y0181905D01*
X0038928Y0181812D01*
X0038832Y0181722D01*
X0038733Y0181635D01*
X0038632Y0181552D01*
X0038528Y0181471D01*
X0038422Y0181394D01*
X0038313Y0181320D01*
X0038202Y0181249D01*
X0038090Y0181181D01*
X0037975Y0181117D01*
X0037858Y0181057D01*
X0037739Y0181000D01*
X0037619Y0180947D01*
X0037498Y0180897D01*
X0037374Y0180851D01*
X0037250Y0180809D01*
X0037124Y0180771D01*
X0036997Y0180736D01*
X0036869Y0180705D01*
X0036741Y0180679D01*
X0036611Y0180656D01*
X0036481Y0180637D01*
X0036351Y0180622D01*
X0036220Y0180611D01*
X0036088Y0180604D01*
X0035957Y0180601D01*
X0035825Y0180602D01*
X0035694Y0180607D01*
X0035563Y0180616D01*
X0035432Y0180629D01*
X0035302Y0180646D01*
X0035172Y0180667D01*
X0035043Y0180692D01*
X0034915Y0180720D01*
X0034787Y0180753D01*
X0034661Y0180789D01*
X0034536Y0180830D01*
X0034412Y0180874D01*
X0034289Y0180921D01*
X0034168Y0180973D01*
X0034049Y0181028D01*
X0033931Y0181087D01*
X0033816Y0181149D01*
X0033702Y0181215D01*
X0033590Y0181284D01*
X0033480Y0181356D01*
X0033373Y0181432D01*
X0033268Y0181511D01*
X0033165Y0181593D01*
X0033065Y0181678D01*
X0032968Y0181767D01*
X0032873Y0181858D01*
X0032781Y0181952D01*
X0032692Y0182049D01*
X0032606Y0182148D01*
X0032523Y0182250D01*
X0032443Y0182355D01*
X0032367Y0182461D01*
X0032294Y0182570D01*
X0032224Y0182682D01*
X0032157Y0182795D01*
X0032094Y0182910D01*
X0032034Y0183028D01*
X0031978Y0183146D01*
X0031926Y0183267D01*
X0031877Y0183389D01*
X0031832Y0183513D01*
X0031791Y0183637D01*
X0031754Y0183764D01*
X0031720Y0183891D01*
X0031690Y0184019D01*
X0031665Y0184148D01*
X0031643Y0184277D01*
X0031625Y0184407D01*
X0031611Y0184538D01*
X0031601Y0184669D01*
X0031595Y0184801D01*
X0031593Y0184932D01*
X0032774Y0194774D02*
X0032776Y0194905D01*
X0032782Y0195037D01*
X0032792Y0195168D01*
X0032806Y0195299D01*
X0032824Y0195429D01*
X0032846Y0195558D01*
X0032871Y0195687D01*
X0032901Y0195815D01*
X0032935Y0195942D01*
X0032972Y0196069D01*
X0033013Y0196193D01*
X0033058Y0196317D01*
X0033107Y0196439D01*
X0033159Y0196560D01*
X0033215Y0196678D01*
X0033275Y0196796D01*
X0033338Y0196911D01*
X0033405Y0197024D01*
X0033475Y0197136D01*
X0033548Y0197245D01*
X0033624Y0197351D01*
X0033704Y0197456D01*
X0033787Y0197558D01*
X0033873Y0197657D01*
X0033962Y0197754D01*
X0034054Y0197848D01*
X0034149Y0197939D01*
X0034246Y0198028D01*
X0034346Y0198113D01*
X0034449Y0198195D01*
X0034554Y0198274D01*
X0034661Y0198350D01*
X0034771Y0198422D01*
X0034883Y0198491D01*
X0034997Y0198557D01*
X0035112Y0198619D01*
X0035230Y0198678D01*
X0035349Y0198733D01*
X0035470Y0198785D01*
X0035593Y0198832D01*
X0035717Y0198876D01*
X0035842Y0198917D01*
X0035968Y0198953D01*
X0036096Y0198986D01*
X0036224Y0199014D01*
X0036353Y0199039D01*
X0036483Y0199060D01*
X0036613Y0199077D01*
X0036744Y0199090D01*
X0036875Y0199099D01*
X0037006Y0199104D01*
X0037138Y0199105D01*
X0037269Y0199102D01*
X0037401Y0199095D01*
X0037532Y0199084D01*
X0037662Y0199069D01*
X0037792Y0199050D01*
X0037922Y0199027D01*
X0038050Y0199001D01*
X0038178Y0198970D01*
X0038305Y0198935D01*
X0038431Y0198897D01*
X0038555Y0198855D01*
X0038679Y0198809D01*
X0038800Y0198759D01*
X0038920Y0198706D01*
X0039039Y0198649D01*
X0039156Y0198589D01*
X0039270Y0198525D01*
X0039383Y0198457D01*
X0039494Y0198386D01*
X0039603Y0198312D01*
X0039709Y0198235D01*
X0039813Y0198154D01*
X0039914Y0198071D01*
X0040013Y0197984D01*
X0040109Y0197894D01*
X0040202Y0197801D01*
X0040293Y0197706D01*
X0040380Y0197608D01*
X0040465Y0197507D01*
X0040546Y0197404D01*
X0040624Y0197298D01*
X0040699Y0197190D01*
X0040771Y0197080D01*
X0040839Y0196968D01*
X0040904Y0196854D01*
X0040965Y0196737D01*
X0041023Y0196619D01*
X0041077Y0196499D01*
X0041128Y0196378D01*
X0041175Y0196255D01*
X0041218Y0196131D01*
X0041257Y0196006D01*
X0041293Y0195879D01*
X0041324Y0195751D01*
X0041352Y0195623D01*
X0041376Y0195494D01*
X0041396Y0195364D01*
X0041412Y0195233D01*
X0041424Y0195102D01*
X0041432Y0194971D01*
X0041436Y0194840D01*
X0041436Y0194708D01*
X0041432Y0194577D01*
X0041424Y0194446D01*
X0041412Y0194315D01*
X0041396Y0194184D01*
X0041376Y0194054D01*
X0041352Y0193925D01*
X0041324Y0193797D01*
X0041293Y0193669D01*
X0041257Y0193542D01*
X0041218Y0193417D01*
X0041175Y0193293D01*
X0041128Y0193170D01*
X0041077Y0193049D01*
X0041023Y0192929D01*
X0040965Y0192811D01*
X0040904Y0192694D01*
X0040839Y0192580D01*
X0040771Y0192468D01*
X0040699Y0192358D01*
X0040624Y0192250D01*
X0040546Y0192144D01*
X0040465Y0192041D01*
X0040380Y0191940D01*
X0040293Y0191842D01*
X0040202Y0191747D01*
X0040109Y0191654D01*
X0040013Y0191564D01*
X0039914Y0191477D01*
X0039813Y0191394D01*
X0039709Y0191313D01*
X0039603Y0191236D01*
X0039494Y0191162D01*
X0039383Y0191091D01*
X0039271Y0191023D01*
X0039156Y0190959D01*
X0039039Y0190899D01*
X0038920Y0190842D01*
X0038800Y0190789D01*
X0038679Y0190739D01*
X0038555Y0190693D01*
X0038431Y0190651D01*
X0038305Y0190613D01*
X0038178Y0190578D01*
X0038050Y0190547D01*
X0037922Y0190521D01*
X0037792Y0190498D01*
X0037662Y0190479D01*
X0037532Y0190464D01*
X0037401Y0190453D01*
X0037269Y0190446D01*
X0037138Y0190443D01*
X0037006Y0190444D01*
X0036875Y0190449D01*
X0036744Y0190458D01*
X0036613Y0190471D01*
X0036483Y0190488D01*
X0036353Y0190509D01*
X0036224Y0190534D01*
X0036096Y0190562D01*
X0035968Y0190595D01*
X0035842Y0190631D01*
X0035717Y0190672D01*
X0035593Y0190716D01*
X0035470Y0190763D01*
X0035349Y0190815D01*
X0035230Y0190870D01*
X0035112Y0190929D01*
X0034997Y0190991D01*
X0034883Y0191057D01*
X0034771Y0191126D01*
X0034661Y0191198D01*
X0034554Y0191274D01*
X0034449Y0191353D01*
X0034346Y0191435D01*
X0034246Y0191520D01*
X0034149Y0191609D01*
X0034054Y0191700D01*
X0033962Y0191794D01*
X0033873Y0191891D01*
X0033787Y0191990D01*
X0033704Y0192092D01*
X0033624Y0192197D01*
X0033548Y0192303D01*
X0033475Y0192412D01*
X0033405Y0192524D01*
X0033338Y0192637D01*
X0033275Y0192752D01*
X0033215Y0192870D01*
X0033159Y0192988D01*
X0033107Y0193109D01*
X0033058Y0193231D01*
X0033013Y0193355D01*
X0032972Y0193479D01*
X0032935Y0193606D01*
X0032901Y0193733D01*
X0032871Y0193861D01*
X0032846Y0193990D01*
X0032824Y0194119D01*
X0032806Y0194249D01*
X0032792Y0194380D01*
X0032782Y0194511D01*
X0032776Y0194643D01*
X0032774Y0194774D01*
X0021750Y0115247D02*
X0021752Y0115378D01*
X0021758Y0115510D01*
X0021768Y0115641D01*
X0021782Y0115772D01*
X0021800Y0115902D01*
X0021822Y0116031D01*
X0021847Y0116160D01*
X0021877Y0116288D01*
X0021911Y0116415D01*
X0021948Y0116542D01*
X0021989Y0116666D01*
X0022034Y0116790D01*
X0022083Y0116912D01*
X0022135Y0117033D01*
X0022191Y0117151D01*
X0022251Y0117269D01*
X0022314Y0117384D01*
X0022381Y0117497D01*
X0022451Y0117609D01*
X0022524Y0117718D01*
X0022600Y0117824D01*
X0022680Y0117929D01*
X0022763Y0118031D01*
X0022849Y0118130D01*
X0022938Y0118227D01*
X0023030Y0118321D01*
X0023125Y0118412D01*
X0023222Y0118501D01*
X0023322Y0118586D01*
X0023425Y0118668D01*
X0023530Y0118747D01*
X0023637Y0118823D01*
X0023747Y0118895D01*
X0023859Y0118964D01*
X0023973Y0119030D01*
X0024088Y0119092D01*
X0024206Y0119151D01*
X0024325Y0119206D01*
X0024446Y0119258D01*
X0024569Y0119305D01*
X0024693Y0119349D01*
X0024818Y0119390D01*
X0024944Y0119426D01*
X0025072Y0119459D01*
X0025200Y0119487D01*
X0025329Y0119512D01*
X0025459Y0119533D01*
X0025589Y0119550D01*
X0025720Y0119563D01*
X0025851Y0119572D01*
X0025982Y0119577D01*
X0026114Y0119578D01*
X0026245Y0119575D01*
X0026377Y0119568D01*
X0026508Y0119557D01*
X0026638Y0119542D01*
X0026768Y0119523D01*
X0026898Y0119500D01*
X0027026Y0119474D01*
X0027154Y0119443D01*
X0027281Y0119408D01*
X0027407Y0119370D01*
X0027531Y0119328D01*
X0027655Y0119282D01*
X0027776Y0119232D01*
X0027896Y0119179D01*
X0028015Y0119122D01*
X0028132Y0119062D01*
X0028246Y0118998D01*
X0028359Y0118930D01*
X0028470Y0118859D01*
X0028579Y0118785D01*
X0028685Y0118708D01*
X0028789Y0118627D01*
X0028890Y0118544D01*
X0028989Y0118457D01*
X0029085Y0118367D01*
X0029178Y0118274D01*
X0029269Y0118179D01*
X0029356Y0118081D01*
X0029441Y0117980D01*
X0029522Y0117877D01*
X0029600Y0117771D01*
X0029675Y0117663D01*
X0029747Y0117553D01*
X0029815Y0117441D01*
X0029880Y0117327D01*
X0029941Y0117210D01*
X0029999Y0117092D01*
X0030053Y0116972D01*
X0030104Y0116851D01*
X0030151Y0116728D01*
X0030194Y0116604D01*
X0030233Y0116479D01*
X0030269Y0116352D01*
X0030300Y0116224D01*
X0030328Y0116096D01*
X0030352Y0115967D01*
X0030372Y0115837D01*
X0030388Y0115706D01*
X0030400Y0115575D01*
X0030408Y0115444D01*
X0030412Y0115313D01*
X0030412Y0115181D01*
X0030408Y0115050D01*
X0030400Y0114919D01*
X0030388Y0114788D01*
X0030372Y0114657D01*
X0030352Y0114527D01*
X0030328Y0114398D01*
X0030300Y0114270D01*
X0030269Y0114142D01*
X0030233Y0114015D01*
X0030194Y0113890D01*
X0030151Y0113766D01*
X0030104Y0113643D01*
X0030053Y0113522D01*
X0029999Y0113402D01*
X0029941Y0113284D01*
X0029880Y0113167D01*
X0029815Y0113053D01*
X0029747Y0112941D01*
X0029675Y0112831D01*
X0029600Y0112723D01*
X0029522Y0112617D01*
X0029441Y0112514D01*
X0029356Y0112413D01*
X0029269Y0112315D01*
X0029178Y0112220D01*
X0029085Y0112127D01*
X0028989Y0112037D01*
X0028890Y0111950D01*
X0028789Y0111867D01*
X0028685Y0111786D01*
X0028579Y0111709D01*
X0028470Y0111635D01*
X0028359Y0111564D01*
X0028247Y0111496D01*
X0028132Y0111432D01*
X0028015Y0111372D01*
X0027896Y0111315D01*
X0027776Y0111262D01*
X0027655Y0111212D01*
X0027531Y0111166D01*
X0027407Y0111124D01*
X0027281Y0111086D01*
X0027154Y0111051D01*
X0027026Y0111020D01*
X0026898Y0110994D01*
X0026768Y0110971D01*
X0026638Y0110952D01*
X0026508Y0110937D01*
X0026377Y0110926D01*
X0026245Y0110919D01*
X0026114Y0110916D01*
X0025982Y0110917D01*
X0025851Y0110922D01*
X0025720Y0110931D01*
X0025589Y0110944D01*
X0025459Y0110961D01*
X0025329Y0110982D01*
X0025200Y0111007D01*
X0025072Y0111035D01*
X0024944Y0111068D01*
X0024818Y0111104D01*
X0024693Y0111145D01*
X0024569Y0111189D01*
X0024446Y0111236D01*
X0024325Y0111288D01*
X0024206Y0111343D01*
X0024088Y0111402D01*
X0023973Y0111464D01*
X0023859Y0111530D01*
X0023747Y0111599D01*
X0023637Y0111671D01*
X0023530Y0111747D01*
X0023425Y0111826D01*
X0023322Y0111908D01*
X0023222Y0111993D01*
X0023125Y0112082D01*
X0023030Y0112173D01*
X0022938Y0112267D01*
X0022849Y0112364D01*
X0022763Y0112463D01*
X0022680Y0112565D01*
X0022600Y0112670D01*
X0022524Y0112776D01*
X0022451Y0112885D01*
X0022381Y0112997D01*
X0022314Y0113110D01*
X0022251Y0113225D01*
X0022191Y0113343D01*
X0022135Y0113461D01*
X0022083Y0113582D01*
X0022034Y0113704D01*
X0021989Y0113828D01*
X0021948Y0113952D01*
X0021911Y0114079D01*
X0021877Y0114206D01*
X0021847Y0114334D01*
X0021822Y0114463D01*
X0021800Y0114592D01*
X0021782Y0114722D01*
X0021768Y0114853D01*
X0021758Y0114984D01*
X0021752Y0115116D01*
X0021750Y0115247D01*
D12*
X0161514Y0044774D02*
X0161516Y0044905D01*
X0161522Y0045037D01*
X0161532Y0045168D01*
X0161546Y0045299D01*
X0161564Y0045429D01*
X0161586Y0045558D01*
X0161611Y0045687D01*
X0161641Y0045815D01*
X0161675Y0045942D01*
X0161712Y0046069D01*
X0161753Y0046193D01*
X0161798Y0046317D01*
X0161847Y0046439D01*
X0161899Y0046560D01*
X0161955Y0046678D01*
X0162015Y0046796D01*
X0162078Y0046911D01*
X0162145Y0047024D01*
X0162215Y0047136D01*
X0162288Y0047245D01*
X0162364Y0047351D01*
X0162444Y0047456D01*
X0162527Y0047558D01*
X0162613Y0047657D01*
X0162702Y0047754D01*
X0162794Y0047848D01*
X0162889Y0047939D01*
X0162986Y0048028D01*
X0163086Y0048113D01*
X0163189Y0048195D01*
X0163294Y0048274D01*
X0163401Y0048350D01*
X0163511Y0048422D01*
X0163623Y0048491D01*
X0163737Y0048557D01*
X0163852Y0048619D01*
X0163970Y0048678D01*
X0164089Y0048733D01*
X0164210Y0048785D01*
X0164333Y0048832D01*
X0164457Y0048876D01*
X0164582Y0048917D01*
X0164708Y0048953D01*
X0164836Y0048986D01*
X0164964Y0049014D01*
X0165093Y0049039D01*
X0165223Y0049060D01*
X0165353Y0049077D01*
X0165484Y0049090D01*
X0165615Y0049099D01*
X0165746Y0049104D01*
X0165878Y0049105D01*
X0166009Y0049102D01*
X0166141Y0049095D01*
X0166272Y0049084D01*
X0166402Y0049069D01*
X0166532Y0049050D01*
X0166662Y0049027D01*
X0166790Y0049001D01*
X0166918Y0048970D01*
X0167045Y0048935D01*
X0167171Y0048897D01*
X0167295Y0048855D01*
X0167419Y0048809D01*
X0167540Y0048759D01*
X0167660Y0048706D01*
X0167779Y0048649D01*
X0167896Y0048589D01*
X0168010Y0048525D01*
X0168123Y0048457D01*
X0168234Y0048386D01*
X0168343Y0048312D01*
X0168449Y0048235D01*
X0168553Y0048154D01*
X0168654Y0048071D01*
X0168753Y0047984D01*
X0168849Y0047894D01*
X0168942Y0047801D01*
X0169033Y0047706D01*
X0169120Y0047608D01*
X0169205Y0047507D01*
X0169286Y0047404D01*
X0169364Y0047298D01*
X0169439Y0047190D01*
X0169511Y0047080D01*
X0169579Y0046968D01*
X0169644Y0046854D01*
X0169705Y0046737D01*
X0169763Y0046619D01*
X0169817Y0046499D01*
X0169868Y0046378D01*
X0169915Y0046255D01*
X0169958Y0046131D01*
X0169997Y0046006D01*
X0170033Y0045879D01*
X0170064Y0045751D01*
X0170092Y0045623D01*
X0170116Y0045494D01*
X0170136Y0045364D01*
X0170152Y0045233D01*
X0170164Y0045102D01*
X0170172Y0044971D01*
X0170176Y0044840D01*
X0170176Y0044708D01*
X0170172Y0044577D01*
X0170164Y0044446D01*
X0170152Y0044315D01*
X0170136Y0044184D01*
X0170116Y0044054D01*
X0170092Y0043925D01*
X0170064Y0043797D01*
X0170033Y0043669D01*
X0169997Y0043542D01*
X0169958Y0043417D01*
X0169915Y0043293D01*
X0169868Y0043170D01*
X0169817Y0043049D01*
X0169763Y0042929D01*
X0169705Y0042811D01*
X0169644Y0042694D01*
X0169579Y0042580D01*
X0169511Y0042468D01*
X0169439Y0042358D01*
X0169364Y0042250D01*
X0169286Y0042144D01*
X0169205Y0042041D01*
X0169120Y0041940D01*
X0169033Y0041842D01*
X0168942Y0041747D01*
X0168849Y0041654D01*
X0168753Y0041564D01*
X0168654Y0041477D01*
X0168553Y0041394D01*
X0168449Y0041313D01*
X0168343Y0041236D01*
X0168234Y0041162D01*
X0168123Y0041091D01*
X0168011Y0041023D01*
X0167896Y0040959D01*
X0167779Y0040899D01*
X0167660Y0040842D01*
X0167540Y0040789D01*
X0167419Y0040739D01*
X0167295Y0040693D01*
X0167171Y0040651D01*
X0167045Y0040613D01*
X0166918Y0040578D01*
X0166790Y0040547D01*
X0166662Y0040521D01*
X0166532Y0040498D01*
X0166402Y0040479D01*
X0166272Y0040464D01*
X0166141Y0040453D01*
X0166009Y0040446D01*
X0165878Y0040443D01*
X0165746Y0040444D01*
X0165615Y0040449D01*
X0165484Y0040458D01*
X0165353Y0040471D01*
X0165223Y0040488D01*
X0165093Y0040509D01*
X0164964Y0040534D01*
X0164836Y0040562D01*
X0164708Y0040595D01*
X0164582Y0040631D01*
X0164457Y0040672D01*
X0164333Y0040716D01*
X0164210Y0040763D01*
X0164089Y0040815D01*
X0163970Y0040870D01*
X0163852Y0040929D01*
X0163737Y0040991D01*
X0163623Y0041057D01*
X0163511Y0041126D01*
X0163401Y0041198D01*
X0163294Y0041274D01*
X0163189Y0041353D01*
X0163086Y0041435D01*
X0162986Y0041520D01*
X0162889Y0041609D01*
X0162794Y0041700D01*
X0162702Y0041794D01*
X0162613Y0041891D01*
X0162527Y0041990D01*
X0162444Y0042092D01*
X0162364Y0042197D01*
X0162288Y0042303D01*
X0162215Y0042412D01*
X0162145Y0042524D01*
X0162078Y0042637D01*
X0162015Y0042752D01*
X0161955Y0042870D01*
X0161899Y0042988D01*
X0161847Y0043109D01*
X0161798Y0043231D01*
X0161753Y0043355D01*
X0161712Y0043479D01*
X0161675Y0043606D01*
X0161641Y0043733D01*
X0161611Y0043861D01*
X0161586Y0043990D01*
X0161564Y0044119D01*
X0161546Y0044249D01*
X0161532Y0044380D01*
X0161522Y0044511D01*
X0161516Y0044643D01*
X0161514Y0044774D01*
X0162695Y0034932D02*
X0162697Y0035063D01*
X0162703Y0035195D01*
X0162713Y0035326D01*
X0162727Y0035457D01*
X0162745Y0035587D01*
X0162767Y0035716D01*
X0162792Y0035845D01*
X0162822Y0035973D01*
X0162856Y0036100D01*
X0162893Y0036227D01*
X0162934Y0036351D01*
X0162979Y0036475D01*
X0163028Y0036597D01*
X0163080Y0036718D01*
X0163136Y0036836D01*
X0163196Y0036954D01*
X0163259Y0037069D01*
X0163326Y0037182D01*
X0163396Y0037294D01*
X0163469Y0037403D01*
X0163545Y0037509D01*
X0163625Y0037614D01*
X0163708Y0037716D01*
X0163794Y0037815D01*
X0163883Y0037912D01*
X0163975Y0038006D01*
X0164070Y0038097D01*
X0164167Y0038186D01*
X0164267Y0038271D01*
X0164370Y0038353D01*
X0164475Y0038432D01*
X0164582Y0038508D01*
X0164692Y0038580D01*
X0164804Y0038649D01*
X0164918Y0038715D01*
X0165033Y0038777D01*
X0165151Y0038836D01*
X0165270Y0038891D01*
X0165391Y0038943D01*
X0165514Y0038990D01*
X0165638Y0039034D01*
X0165763Y0039075D01*
X0165889Y0039111D01*
X0166017Y0039144D01*
X0166145Y0039172D01*
X0166274Y0039197D01*
X0166404Y0039218D01*
X0166534Y0039235D01*
X0166665Y0039248D01*
X0166796Y0039257D01*
X0166927Y0039262D01*
X0167059Y0039263D01*
X0167190Y0039260D01*
X0167322Y0039253D01*
X0167453Y0039242D01*
X0167583Y0039227D01*
X0167713Y0039208D01*
X0167843Y0039185D01*
X0167971Y0039159D01*
X0168099Y0039128D01*
X0168226Y0039093D01*
X0168352Y0039055D01*
X0168476Y0039013D01*
X0168600Y0038967D01*
X0168721Y0038917D01*
X0168841Y0038864D01*
X0168960Y0038807D01*
X0169077Y0038747D01*
X0169191Y0038683D01*
X0169304Y0038615D01*
X0169415Y0038544D01*
X0169524Y0038470D01*
X0169630Y0038393D01*
X0169734Y0038312D01*
X0169835Y0038229D01*
X0169934Y0038142D01*
X0170030Y0038052D01*
X0170123Y0037959D01*
X0170214Y0037864D01*
X0170301Y0037766D01*
X0170386Y0037665D01*
X0170467Y0037562D01*
X0170545Y0037456D01*
X0170620Y0037348D01*
X0170692Y0037238D01*
X0170760Y0037126D01*
X0170825Y0037012D01*
X0170886Y0036895D01*
X0170944Y0036777D01*
X0170998Y0036657D01*
X0171049Y0036536D01*
X0171096Y0036413D01*
X0171139Y0036289D01*
X0171178Y0036164D01*
X0171214Y0036037D01*
X0171245Y0035909D01*
X0171273Y0035781D01*
X0171297Y0035652D01*
X0171317Y0035522D01*
X0171333Y0035391D01*
X0171345Y0035260D01*
X0171353Y0035129D01*
X0171357Y0034998D01*
X0171357Y0034866D01*
X0171353Y0034735D01*
X0171345Y0034604D01*
X0171333Y0034473D01*
X0171317Y0034342D01*
X0171297Y0034212D01*
X0171273Y0034083D01*
X0171245Y0033955D01*
X0171214Y0033827D01*
X0171178Y0033700D01*
X0171139Y0033575D01*
X0171096Y0033451D01*
X0171049Y0033328D01*
X0170998Y0033207D01*
X0170944Y0033087D01*
X0170886Y0032969D01*
X0170825Y0032852D01*
X0170760Y0032738D01*
X0170692Y0032626D01*
X0170620Y0032516D01*
X0170545Y0032408D01*
X0170467Y0032302D01*
X0170386Y0032199D01*
X0170301Y0032098D01*
X0170214Y0032000D01*
X0170123Y0031905D01*
X0170030Y0031812D01*
X0169934Y0031722D01*
X0169835Y0031635D01*
X0169734Y0031552D01*
X0169630Y0031471D01*
X0169524Y0031394D01*
X0169415Y0031320D01*
X0169304Y0031249D01*
X0169192Y0031181D01*
X0169077Y0031117D01*
X0168960Y0031057D01*
X0168841Y0031000D01*
X0168721Y0030947D01*
X0168600Y0030897D01*
X0168476Y0030851D01*
X0168352Y0030809D01*
X0168226Y0030771D01*
X0168099Y0030736D01*
X0167971Y0030705D01*
X0167843Y0030679D01*
X0167713Y0030656D01*
X0167583Y0030637D01*
X0167453Y0030622D01*
X0167322Y0030611D01*
X0167190Y0030604D01*
X0167059Y0030601D01*
X0166927Y0030602D01*
X0166796Y0030607D01*
X0166665Y0030616D01*
X0166534Y0030629D01*
X0166404Y0030646D01*
X0166274Y0030667D01*
X0166145Y0030692D01*
X0166017Y0030720D01*
X0165889Y0030753D01*
X0165763Y0030789D01*
X0165638Y0030830D01*
X0165514Y0030874D01*
X0165391Y0030921D01*
X0165270Y0030973D01*
X0165151Y0031028D01*
X0165033Y0031087D01*
X0164918Y0031149D01*
X0164804Y0031215D01*
X0164692Y0031284D01*
X0164582Y0031356D01*
X0164475Y0031432D01*
X0164370Y0031511D01*
X0164267Y0031593D01*
X0164167Y0031678D01*
X0164070Y0031767D01*
X0163975Y0031858D01*
X0163883Y0031952D01*
X0163794Y0032049D01*
X0163708Y0032148D01*
X0163625Y0032250D01*
X0163545Y0032355D01*
X0163469Y0032461D01*
X0163396Y0032570D01*
X0163326Y0032682D01*
X0163259Y0032795D01*
X0163196Y0032910D01*
X0163136Y0033028D01*
X0163080Y0033146D01*
X0163028Y0033267D01*
X0162979Y0033389D01*
X0162934Y0033513D01*
X0162893Y0033637D01*
X0162856Y0033764D01*
X0162822Y0033891D01*
X0162792Y0034019D01*
X0162767Y0034148D01*
X0162745Y0034277D01*
X0162727Y0034407D01*
X0162713Y0034538D01*
X0162703Y0034669D01*
X0162697Y0034801D01*
X0162695Y0034932D01*
X0171750Y0034932D02*
X0171752Y0035063D01*
X0171758Y0035195D01*
X0171768Y0035326D01*
X0171782Y0035457D01*
X0171800Y0035587D01*
X0171822Y0035716D01*
X0171847Y0035845D01*
X0171877Y0035973D01*
X0171911Y0036100D01*
X0171948Y0036227D01*
X0171989Y0036351D01*
X0172034Y0036475D01*
X0172083Y0036597D01*
X0172135Y0036718D01*
X0172191Y0036836D01*
X0172251Y0036954D01*
X0172314Y0037069D01*
X0172381Y0037182D01*
X0172451Y0037294D01*
X0172524Y0037403D01*
X0172600Y0037509D01*
X0172680Y0037614D01*
X0172763Y0037716D01*
X0172849Y0037815D01*
X0172938Y0037912D01*
X0173030Y0038006D01*
X0173125Y0038097D01*
X0173222Y0038186D01*
X0173322Y0038271D01*
X0173425Y0038353D01*
X0173530Y0038432D01*
X0173637Y0038508D01*
X0173747Y0038580D01*
X0173859Y0038649D01*
X0173973Y0038715D01*
X0174088Y0038777D01*
X0174206Y0038836D01*
X0174325Y0038891D01*
X0174446Y0038943D01*
X0174569Y0038990D01*
X0174693Y0039034D01*
X0174818Y0039075D01*
X0174944Y0039111D01*
X0175072Y0039144D01*
X0175200Y0039172D01*
X0175329Y0039197D01*
X0175459Y0039218D01*
X0175589Y0039235D01*
X0175720Y0039248D01*
X0175851Y0039257D01*
X0175982Y0039262D01*
X0176114Y0039263D01*
X0176245Y0039260D01*
X0176377Y0039253D01*
X0176508Y0039242D01*
X0176638Y0039227D01*
X0176768Y0039208D01*
X0176898Y0039185D01*
X0177026Y0039159D01*
X0177154Y0039128D01*
X0177281Y0039093D01*
X0177407Y0039055D01*
X0177531Y0039013D01*
X0177655Y0038967D01*
X0177776Y0038917D01*
X0177896Y0038864D01*
X0178015Y0038807D01*
X0178132Y0038747D01*
X0178246Y0038683D01*
X0178359Y0038615D01*
X0178470Y0038544D01*
X0178579Y0038470D01*
X0178685Y0038393D01*
X0178789Y0038312D01*
X0178890Y0038229D01*
X0178989Y0038142D01*
X0179085Y0038052D01*
X0179178Y0037959D01*
X0179269Y0037864D01*
X0179356Y0037766D01*
X0179441Y0037665D01*
X0179522Y0037562D01*
X0179600Y0037456D01*
X0179675Y0037348D01*
X0179747Y0037238D01*
X0179815Y0037126D01*
X0179880Y0037012D01*
X0179941Y0036895D01*
X0179999Y0036777D01*
X0180053Y0036657D01*
X0180104Y0036536D01*
X0180151Y0036413D01*
X0180194Y0036289D01*
X0180233Y0036164D01*
X0180269Y0036037D01*
X0180300Y0035909D01*
X0180328Y0035781D01*
X0180352Y0035652D01*
X0180372Y0035522D01*
X0180388Y0035391D01*
X0180400Y0035260D01*
X0180408Y0035129D01*
X0180412Y0034998D01*
X0180412Y0034866D01*
X0180408Y0034735D01*
X0180400Y0034604D01*
X0180388Y0034473D01*
X0180372Y0034342D01*
X0180352Y0034212D01*
X0180328Y0034083D01*
X0180300Y0033955D01*
X0180269Y0033827D01*
X0180233Y0033700D01*
X0180194Y0033575D01*
X0180151Y0033451D01*
X0180104Y0033328D01*
X0180053Y0033207D01*
X0179999Y0033087D01*
X0179941Y0032969D01*
X0179880Y0032852D01*
X0179815Y0032738D01*
X0179747Y0032626D01*
X0179675Y0032516D01*
X0179600Y0032408D01*
X0179522Y0032302D01*
X0179441Y0032199D01*
X0179356Y0032098D01*
X0179269Y0032000D01*
X0179178Y0031905D01*
X0179085Y0031812D01*
X0178989Y0031722D01*
X0178890Y0031635D01*
X0178789Y0031552D01*
X0178685Y0031471D01*
X0178579Y0031394D01*
X0178470Y0031320D01*
X0178359Y0031249D01*
X0178247Y0031181D01*
X0178132Y0031117D01*
X0178015Y0031057D01*
X0177896Y0031000D01*
X0177776Y0030947D01*
X0177655Y0030897D01*
X0177531Y0030851D01*
X0177407Y0030809D01*
X0177281Y0030771D01*
X0177154Y0030736D01*
X0177026Y0030705D01*
X0176898Y0030679D01*
X0176768Y0030656D01*
X0176638Y0030637D01*
X0176508Y0030622D01*
X0176377Y0030611D01*
X0176245Y0030604D01*
X0176114Y0030601D01*
X0175982Y0030602D01*
X0175851Y0030607D01*
X0175720Y0030616D01*
X0175589Y0030629D01*
X0175459Y0030646D01*
X0175329Y0030667D01*
X0175200Y0030692D01*
X0175072Y0030720D01*
X0174944Y0030753D01*
X0174818Y0030789D01*
X0174693Y0030830D01*
X0174569Y0030874D01*
X0174446Y0030921D01*
X0174325Y0030973D01*
X0174206Y0031028D01*
X0174088Y0031087D01*
X0173973Y0031149D01*
X0173859Y0031215D01*
X0173747Y0031284D01*
X0173637Y0031356D01*
X0173530Y0031432D01*
X0173425Y0031511D01*
X0173322Y0031593D01*
X0173222Y0031678D01*
X0173125Y0031767D01*
X0173030Y0031858D01*
X0172938Y0031952D01*
X0172849Y0032049D01*
X0172763Y0032148D01*
X0172680Y0032250D01*
X0172600Y0032355D01*
X0172524Y0032461D01*
X0172451Y0032570D01*
X0172381Y0032682D01*
X0172314Y0032795D01*
X0172251Y0032910D01*
X0172191Y0033028D01*
X0172135Y0033146D01*
X0172083Y0033267D01*
X0172034Y0033389D01*
X0171989Y0033513D01*
X0171948Y0033637D01*
X0171911Y0033764D01*
X0171877Y0033891D01*
X0171847Y0034019D01*
X0171822Y0034148D01*
X0171800Y0034277D01*
X0171782Y0034407D01*
X0171768Y0034538D01*
X0171758Y0034669D01*
X0171752Y0034801D01*
X0171750Y0034932D01*
X0172538Y0044774D02*
X0172540Y0044905D01*
X0172546Y0045037D01*
X0172556Y0045168D01*
X0172570Y0045299D01*
X0172588Y0045429D01*
X0172610Y0045558D01*
X0172635Y0045687D01*
X0172665Y0045815D01*
X0172699Y0045942D01*
X0172736Y0046069D01*
X0172777Y0046193D01*
X0172822Y0046317D01*
X0172871Y0046439D01*
X0172923Y0046560D01*
X0172979Y0046678D01*
X0173039Y0046796D01*
X0173102Y0046911D01*
X0173169Y0047024D01*
X0173239Y0047136D01*
X0173312Y0047245D01*
X0173388Y0047351D01*
X0173468Y0047456D01*
X0173551Y0047558D01*
X0173637Y0047657D01*
X0173726Y0047754D01*
X0173818Y0047848D01*
X0173913Y0047939D01*
X0174010Y0048028D01*
X0174110Y0048113D01*
X0174213Y0048195D01*
X0174318Y0048274D01*
X0174425Y0048350D01*
X0174535Y0048422D01*
X0174647Y0048491D01*
X0174761Y0048557D01*
X0174876Y0048619D01*
X0174994Y0048678D01*
X0175113Y0048733D01*
X0175234Y0048785D01*
X0175357Y0048832D01*
X0175481Y0048876D01*
X0175606Y0048917D01*
X0175732Y0048953D01*
X0175860Y0048986D01*
X0175988Y0049014D01*
X0176117Y0049039D01*
X0176247Y0049060D01*
X0176377Y0049077D01*
X0176508Y0049090D01*
X0176639Y0049099D01*
X0176770Y0049104D01*
X0176902Y0049105D01*
X0177033Y0049102D01*
X0177165Y0049095D01*
X0177296Y0049084D01*
X0177426Y0049069D01*
X0177556Y0049050D01*
X0177686Y0049027D01*
X0177814Y0049001D01*
X0177942Y0048970D01*
X0178069Y0048935D01*
X0178195Y0048897D01*
X0178319Y0048855D01*
X0178443Y0048809D01*
X0178564Y0048759D01*
X0178684Y0048706D01*
X0178803Y0048649D01*
X0178920Y0048589D01*
X0179034Y0048525D01*
X0179147Y0048457D01*
X0179258Y0048386D01*
X0179367Y0048312D01*
X0179473Y0048235D01*
X0179577Y0048154D01*
X0179678Y0048071D01*
X0179777Y0047984D01*
X0179873Y0047894D01*
X0179966Y0047801D01*
X0180057Y0047706D01*
X0180144Y0047608D01*
X0180229Y0047507D01*
X0180310Y0047404D01*
X0180388Y0047298D01*
X0180463Y0047190D01*
X0180535Y0047080D01*
X0180603Y0046968D01*
X0180668Y0046854D01*
X0180729Y0046737D01*
X0180787Y0046619D01*
X0180841Y0046499D01*
X0180892Y0046378D01*
X0180939Y0046255D01*
X0180982Y0046131D01*
X0181021Y0046006D01*
X0181057Y0045879D01*
X0181088Y0045751D01*
X0181116Y0045623D01*
X0181140Y0045494D01*
X0181160Y0045364D01*
X0181176Y0045233D01*
X0181188Y0045102D01*
X0181196Y0044971D01*
X0181200Y0044840D01*
X0181200Y0044708D01*
X0181196Y0044577D01*
X0181188Y0044446D01*
X0181176Y0044315D01*
X0181160Y0044184D01*
X0181140Y0044054D01*
X0181116Y0043925D01*
X0181088Y0043797D01*
X0181057Y0043669D01*
X0181021Y0043542D01*
X0180982Y0043417D01*
X0180939Y0043293D01*
X0180892Y0043170D01*
X0180841Y0043049D01*
X0180787Y0042929D01*
X0180729Y0042811D01*
X0180668Y0042694D01*
X0180603Y0042580D01*
X0180535Y0042468D01*
X0180463Y0042358D01*
X0180388Y0042250D01*
X0180310Y0042144D01*
X0180229Y0042041D01*
X0180144Y0041940D01*
X0180057Y0041842D01*
X0179966Y0041747D01*
X0179873Y0041654D01*
X0179777Y0041564D01*
X0179678Y0041477D01*
X0179577Y0041394D01*
X0179473Y0041313D01*
X0179367Y0041236D01*
X0179258Y0041162D01*
X0179147Y0041091D01*
X0179035Y0041023D01*
X0178920Y0040959D01*
X0178803Y0040899D01*
X0178684Y0040842D01*
X0178564Y0040789D01*
X0178443Y0040739D01*
X0178319Y0040693D01*
X0178195Y0040651D01*
X0178069Y0040613D01*
X0177942Y0040578D01*
X0177814Y0040547D01*
X0177686Y0040521D01*
X0177556Y0040498D01*
X0177426Y0040479D01*
X0177296Y0040464D01*
X0177165Y0040453D01*
X0177033Y0040446D01*
X0176902Y0040443D01*
X0176770Y0040444D01*
X0176639Y0040449D01*
X0176508Y0040458D01*
X0176377Y0040471D01*
X0176247Y0040488D01*
X0176117Y0040509D01*
X0175988Y0040534D01*
X0175860Y0040562D01*
X0175732Y0040595D01*
X0175606Y0040631D01*
X0175481Y0040672D01*
X0175357Y0040716D01*
X0175234Y0040763D01*
X0175113Y0040815D01*
X0174994Y0040870D01*
X0174876Y0040929D01*
X0174761Y0040991D01*
X0174647Y0041057D01*
X0174535Y0041126D01*
X0174425Y0041198D01*
X0174318Y0041274D01*
X0174213Y0041353D01*
X0174110Y0041435D01*
X0174010Y0041520D01*
X0173913Y0041609D01*
X0173818Y0041700D01*
X0173726Y0041794D01*
X0173637Y0041891D01*
X0173551Y0041990D01*
X0173468Y0042092D01*
X0173388Y0042197D01*
X0173312Y0042303D01*
X0173239Y0042412D01*
X0173169Y0042524D01*
X0173102Y0042637D01*
X0173039Y0042752D01*
X0172979Y0042870D01*
X0172923Y0042988D01*
X0172871Y0043109D01*
X0172822Y0043231D01*
X0172777Y0043355D01*
X0172736Y0043479D01*
X0172699Y0043606D01*
X0172665Y0043733D01*
X0172635Y0043861D01*
X0172610Y0043990D01*
X0172588Y0044119D01*
X0172570Y0044249D01*
X0172556Y0044380D01*
X0172546Y0044511D01*
X0172540Y0044643D01*
X0172538Y0044774D01*
D13*
X0020570Y0001467D02*
X0020570Y0198711D01*
X0182381Y0198711D01*
X0182381Y0001467D01*
X0020570Y0001467D01*
X0020570Y0001861D02*
X0181987Y0001861D01*
X0181987Y0009341D01*
X0094487Y0094578D02*
X0094489Y0094677D01*
X0094495Y0094776D01*
X0094505Y0094875D01*
X0094519Y0094973D01*
X0094537Y0095070D01*
X0094559Y0095167D01*
X0094584Y0095263D01*
X0094614Y0095357D01*
X0094647Y0095451D01*
X0094684Y0095543D01*
X0094725Y0095633D01*
X0094769Y0095722D01*
X0094817Y0095808D01*
X0094868Y0095893D01*
X0094923Y0095976D01*
X0094981Y0096056D01*
X0095042Y0096134D01*
X0095106Y0096210D01*
X0095173Y0096283D01*
X0095243Y0096353D01*
X0095316Y0096420D01*
X0095392Y0096484D01*
X0095470Y0096545D01*
X0095550Y0096603D01*
X0095633Y0096658D01*
X0095717Y0096709D01*
X0095804Y0096757D01*
X0095893Y0096801D01*
X0095983Y0096842D01*
X0096075Y0096879D01*
X0096169Y0096912D01*
X0096263Y0096942D01*
X0096359Y0096967D01*
X0096456Y0096989D01*
X0096553Y0097007D01*
X0096651Y0097021D01*
X0096750Y0097031D01*
X0096849Y0097037D01*
X0096948Y0097039D01*
X0097047Y0097037D01*
X0097146Y0097031D01*
X0097245Y0097021D01*
X0097343Y0097007D01*
X0097440Y0096989D01*
X0097537Y0096967D01*
X0097633Y0096942D01*
X0097727Y0096912D01*
X0097821Y0096879D01*
X0097913Y0096842D01*
X0098003Y0096801D01*
X0098092Y0096757D01*
X0098178Y0096709D01*
X0098263Y0096658D01*
X0098346Y0096603D01*
X0098426Y0096545D01*
X0098504Y0096484D01*
X0098580Y0096420D01*
X0098653Y0096353D01*
X0098723Y0096283D01*
X0098790Y0096210D01*
X0098854Y0096134D01*
X0098915Y0096056D01*
X0098973Y0095976D01*
X0099028Y0095893D01*
X0099079Y0095809D01*
X0099127Y0095722D01*
X0099171Y0095633D01*
X0099212Y0095543D01*
X0099249Y0095451D01*
X0099282Y0095357D01*
X0099312Y0095263D01*
X0099337Y0095167D01*
X0099359Y0095070D01*
X0099377Y0094973D01*
X0099391Y0094875D01*
X0099401Y0094776D01*
X0099407Y0094677D01*
X0099409Y0094578D01*
X0099407Y0094479D01*
X0099401Y0094380D01*
X0099391Y0094281D01*
X0099377Y0094183D01*
X0099359Y0094086D01*
X0099337Y0093989D01*
X0099312Y0093893D01*
X0099282Y0093799D01*
X0099249Y0093705D01*
X0099212Y0093613D01*
X0099171Y0093523D01*
X0099127Y0093434D01*
X0099079Y0093348D01*
X0099028Y0093263D01*
X0098973Y0093180D01*
X0098915Y0093100D01*
X0098854Y0093022D01*
X0098790Y0092946D01*
X0098723Y0092873D01*
X0098653Y0092803D01*
X0098580Y0092736D01*
X0098504Y0092672D01*
X0098426Y0092611D01*
X0098346Y0092553D01*
X0098263Y0092498D01*
X0098179Y0092447D01*
X0098092Y0092399D01*
X0098003Y0092355D01*
X0097913Y0092314D01*
X0097821Y0092277D01*
X0097727Y0092244D01*
X0097633Y0092214D01*
X0097537Y0092189D01*
X0097440Y0092167D01*
X0097343Y0092149D01*
X0097245Y0092135D01*
X0097146Y0092125D01*
X0097047Y0092119D01*
X0096948Y0092117D01*
X0096849Y0092119D01*
X0096750Y0092125D01*
X0096651Y0092135D01*
X0096553Y0092149D01*
X0096456Y0092167D01*
X0096359Y0092189D01*
X0096263Y0092214D01*
X0096169Y0092244D01*
X0096075Y0092277D01*
X0095983Y0092314D01*
X0095893Y0092355D01*
X0095804Y0092399D01*
X0095718Y0092447D01*
X0095633Y0092498D01*
X0095550Y0092553D01*
X0095470Y0092611D01*
X0095392Y0092672D01*
X0095316Y0092736D01*
X0095243Y0092803D01*
X0095173Y0092873D01*
X0095106Y0092946D01*
X0095042Y0093022D01*
X0094981Y0093100D01*
X0094923Y0093180D01*
X0094868Y0093263D01*
X0094817Y0093347D01*
X0094769Y0093434D01*
X0094725Y0093523D01*
X0094684Y0093613D01*
X0094647Y0093705D01*
X0094614Y0093799D01*
X0094584Y0093893D01*
X0094559Y0093989D01*
X0094537Y0094086D01*
X0094519Y0094183D01*
X0094505Y0094281D01*
X0094495Y0094380D01*
X0094489Y0094479D01*
X0094487Y0094578D01*
X0096061Y0112294D02*
X0096063Y0112393D01*
X0096069Y0112492D01*
X0096079Y0112591D01*
X0096093Y0112689D01*
X0096111Y0112786D01*
X0096133Y0112883D01*
X0096158Y0112979D01*
X0096188Y0113073D01*
X0096221Y0113167D01*
X0096258Y0113259D01*
X0096299Y0113349D01*
X0096343Y0113438D01*
X0096391Y0113524D01*
X0096442Y0113609D01*
X0096497Y0113692D01*
X0096555Y0113772D01*
X0096616Y0113850D01*
X0096680Y0113926D01*
X0096747Y0113999D01*
X0096817Y0114069D01*
X0096890Y0114136D01*
X0096966Y0114200D01*
X0097044Y0114261D01*
X0097124Y0114319D01*
X0097207Y0114374D01*
X0097291Y0114425D01*
X0097378Y0114473D01*
X0097467Y0114517D01*
X0097557Y0114558D01*
X0097649Y0114595D01*
X0097743Y0114628D01*
X0097837Y0114658D01*
X0097933Y0114683D01*
X0098030Y0114705D01*
X0098127Y0114723D01*
X0098225Y0114737D01*
X0098324Y0114747D01*
X0098423Y0114753D01*
X0098522Y0114755D01*
X0098621Y0114753D01*
X0098720Y0114747D01*
X0098819Y0114737D01*
X0098917Y0114723D01*
X0099014Y0114705D01*
X0099111Y0114683D01*
X0099207Y0114658D01*
X0099301Y0114628D01*
X0099395Y0114595D01*
X0099487Y0114558D01*
X0099577Y0114517D01*
X0099666Y0114473D01*
X0099752Y0114425D01*
X0099837Y0114374D01*
X0099920Y0114319D01*
X0100000Y0114261D01*
X0100078Y0114200D01*
X0100154Y0114136D01*
X0100227Y0114069D01*
X0100297Y0113999D01*
X0100364Y0113926D01*
X0100428Y0113850D01*
X0100489Y0113772D01*
X0100547Y0113692D01*
X0100602Y0113609D01*
X0100653Y0113525D01*
X0100701Y0113438D01*
X0100745Y0113349D01*
X0100786Y0113259D01*
X0100823Y0113167D01*
X0100856Y0113073D01*
X0100886Y0112979D01*
X0100911Y0112883D01*
X0100933Y0112786D01*
X0100951Y0112689D01*
X0100965Y0112591D01*
X0100975Y0112492D01*
X0100981Y0112393D01*
X0100983Y0112294D01*
X0100981Y0112195D01*
X0100975Y0112096D01*
X0100965Y0111997D01*
X0100951Y0111899D01*
X0100933Y0111802D01*
X0100911Y0111705D01*
X0100886Y0111609D01*
X0100856Y0111515D01*
X0100823Y0111421D01*
X0100786Y0111329D01*
X0100745Y0111239D01*
X0100701Y0111150D01*
X0100653Y0111064D01*
X0100602Y0110979D01*
X0100547Y0110896D01*
X0100489Y0110816D01*
X0100428Y0110738D01*
X0100364Y0110662D01*
X0100297Y0110589D01*
X0100227Y0110519D01*
X0100154Y0110452D01*
X0100078Y0110388D01*
X0100000Y0110327D01*
X0099920Y0110269D01*
X0099837Y0110214D01*
X0099753Y0110163D01*
X0099666Y0110115D01*
X0099577Y0110071D01*
X0099487Y0110030D01*
X0099395Y0109993D01*
X0099301Y0109960D01*
X0099207Y0109930D01*
X0099111Y0109905D01*
X0099014Y0109883D01*
X0098917Y0109865D01*
X0098819Y0109851D01*
X0098720Y0109841D01*
X0098621Y0109835D01*
X0098522Y0109833D01*
X0098423Y0109835D01*
X0098324Y0109841D01*
X0098225Y0109851D01*
X0098127Y0109865D01*
X0098030Y0109883D01*
X0097933Y0109905D01*
X0097837Y0109930D01*
X0097743Y0109960D01*
X0097649Y0109993D01*
X0097557Y0110030D01*
X0097467Y0110071D01*
X0097378Y0110115D01*
X0097292Y0110163D01*
X0097207Y0110214D01*
X0097124Y0110269D01*
X0097044Y0110327D01*
X0096966Y0110388D01*
X0096890Y0110452D01*
X0096817Y0110519D01*
X0096747Y0110589D01*
X0096680Y0110662D01*
X0096616Y0110738D01*
X0096555Y0110816D01*
X0096497Y0110896D01*
X0096442Y0110979D01*
X0096391Y0111063D01*
X0096343Y0111150D01*
X0096299Y0111239D01*
X0096258Y0111329D01*
X0096221Y0111421D01*
X0096188Y0111515D01*
X0096158Y0111609D01*
X0096133Y0111705D01*
X0096111Y0111802D01*
X0096093Y0111899D01*
X0096079Y0111997D01*
X0096069Y0112096D01*
X0096063Y0112195D01*
X0096061Y0112294D01*
X0064565Y0112294D02*
X0064567Y0112393D01*
X0064573Y0112492D01*
X0064583Y0112591D01*
X0064597Y0112689D01*
X0064615Y0112786D01*
X0064637Y0112883D01*
X0064662Y0112979D01*
X0064692Y0113073D01*
X0064725Y0113167D01*
X0064762Y0113259D01*
X0064803Y0113349D01*
X0064847Y0113438D01*
X0064895Y0113524D01*
X0064946Y0113609D01*
X0065001Y0113692D01*
X0065059Y0113772D01*
X0065120Y0113850D01*
X0065184Y0113926D01*
X0065251Y0113999D01*
X0065321Y0114069D01*
X0065394Y0114136D01*
X0065470Y0114200D01*
X0065548Y0114261D01*
X0065628Y0114319D01*
X0065711Y0114374D01*
X0065795Y0114425D01*
X0065882Y0114473D01*
X0065971Y0114517D01*
X0066061Y0114558D01*
X0066153Y0114595D01*
X0066247Y0114628D01*
X0066341Y0114658D01*
X0066437Y0114683D01*
X0066534Y0114705D01*
X0066631Y0114723D01*
X0066729Y0114737D01*
X0066828Y0114747D01*
X0066927Y0114753D01*
X0067026Y0114755D01*
X0067125Y0114753D01*
X0067224Y0114747D01*
X0067323Y0114737D01*
X0067421Y0114723D01*
X0067518Y0114705D01*
X0067615Y0114683D01*
X0067711Y0114658D01*
X0067805Y0114628D01*
X0067899Y0114595D01*
X0067991Y0114558D01*
X0068081Y0114517D01*
X0068170Y0114473D01*
X0068256Y0114425D01*
X0068341Y0114374D01*
X0068424Y0114319D01*
X0068504Y0114261D01*
X0068582Y0114200D01*
X0068658Y0114136D01*
X0068731Y0114069D01*
X0068801Y0113999D01*
X0068868Y0113926D01*
X0068932Y0113850D01*
X0068993Y0113772D01*
X0069051Y0113692D01*
X0069106Y0113609D01*
X0069157Y0113525D01*
X0069205Y0113438D01*
X0069249Y0113349D01*
X0069290Y0113259D01*
X0069327Y0113167D01*
X0069360Y0113073D01*
X0069390Y0112979D01*
X0069415Y0112883D01*
X0069437Y0112786D01*
X0069455Y0112689D01*
X0069469Y0112591D01*
X0069479Y0112492D01*
X0069485Y0112393D01*
X0069487Y0112294D01*
X0069485Y0112195D01*
X0069479Y0112096D01*
X0069469Y0111997D01*
X0069455Y0111899D01*
X0069437Y0111802D01*
X0069415Y0111705D01*
X0069390Y0111609D01*
X0069360Y0111515D01*
X0069327Y0111421D01*
X0069290Y0111329D01*
X0069249Y0111239D01*
X0069205Y0111150D01*
X0069157Y0111064D01*
X0069106Y0110979D01*
X0069051Y0110896D01*
X0068993Y0110816D01*
X0068932Y0110738D01*
X0068868Y0110662D01*
X0068801Y0110589D01*
X0068731Y0110519D01*
X0068658Y0110452D01*
X0068582Y0110388D01*
X0068504Y0110327D01*
X0068424Y0110269D01*
X0068341Y0110214D01*
X0068257Y0110163D01*
X0068170Y0110115D01*
X0068081Y0110071D01*
X0067991Y0110030D01*
X0067899Y0109993D01*
X0067805Y0109960D01*
X0067711Y0109930D01*
X0067615Y0109905D01*
X0067518Y0109883D01*
X0067421Y0109865D01*
X0067323Y0109851D01*
X0067224Y0109841D01*
X0067125Y0109835D01*
X0067026Y0109833D01*
X0066927Y0109835D01*
X0066828Y0109841D01*
X0066729Y0109851D01*
X0066631Y0109865D01*
X0066534Y0109883D01*
X0066437Y0109905D01*
X0066341Y0109930D01*
X0066247Y0109960D01*
X0066153Y0109993D01*
X0066061Y0110030D01*
X0065971Y0110071D01*
X0065882Y0110115D01*
X0065796Y0110163D01*
X0065711Y0110214D01*
X0065628Y0110269D01*
X0065548Y0110327D01*
X0065470Y0110388D01*
X0065394Y0110452D01*
X0065321Y0110519D01*
X0065251Y0110589D01*
X0065184Y0110662D01*
X0065120Y0110738D01*
X0065059Y0110816D01*
X0065001Y0110896D01*
X0064946Y0110979D01*
X0064895Y0111063D01*
X0064847Y0111150D01*
X0064803Y0111239D01*
X0064762Y0111329D01*
X0064725Y0111421D01*
X0064692Y0111515D01*
X0064662Y0111609D01*
X0064637Y0111705D01*
X0064615Y0111802D01*
X0064597Y0111899D01*
X0064583Y0111997D01*
X0064573Y0112096D01*
X0064567Y0112195D01*
X0064565Y0112294D01*
X0062990Y0094578D02*
X0062992Y0094677D01*
X0062998Y0094776D01*
X0063008Y0094875D01*
X0063022Y0094973D01*
X0063040Y0095070D01*
X0063062Y0095167D01*
X0063087Y0095263D01*
X0063117Y0095357D01*
X0063150Y0095451D01*
X0063187Y0095543D01*
X0063228Y0095633D01*
X0063272Y0095722D01*
X0063320Y0095808D01*
X0063371Y0095893D01*
X0063426Y0095976D01*
X0063484Y0096056D01*
X0063545Y0096134D01*
X0063609Y0096210D01*
X0063676Y0096283D01*
X0063746Y0096353D01*
X0063819Y0096420D01*
X0063895Y0096484D01*
X0063973Y0096545D01*
X0064053Y0096603D01*
X0064136Y0096658D01*
X0064220Y0096709D01*
X0064307Y0096757D01*
X0064396Y0096801D01*
X0064486Y0096842D01*
X0064578Y0096879D01*
X0064672Y0096912D01*
X0064766Y0096942D01*
X0064862Y0096967D01*
X0064959Y0096989D01*
X0065056Y0097007D01*
X0065154Y0097021D01*
X0065253Y0097031D01*
X0065352Y0097037D01*
X0065451Y0097039D01*
X0065550Y0097037D01*
X0065649Y0097031D01*
X0065748Y0097021D01*
X0065846Y0097007D01*
X0065943Y0096989D01*
X0066040Y0096967D01*
X0066136Y0096942D01*
X0066230Y0096912D01*
X0066324Y0096879D01*
X0066416Y0096842D01*
X0066506Y0096801D01*
X0066595Y0096757D01*
X0066681Y0096709D01*
X0066766Y0096658D01*
X0066849Y0096603D01*
X0066929Y0096545D01*
X0067007Y0096484D01*
X0067083Y0096420D01*
X0067156Y0096353D01*
X0067226Y0096283D01*
X0067293Y0096210D01*
X0067357Y0096134D01*
X0067418Y0096056D01*
X0067476Y0095976D01*
X0067531Y0095893D01*
X0067582Y0095809D01*
X0067630Y0095722D01*
X0067674Y0095633D01*
X0067715Y0095543D01*
X0067752Y0095451D01*
X0067785Y0095357D01*
X0067815Y0095263D01*
X0067840Y0095167D01*
X0067862Y0095070D01*
X0067880Y0094973D01*
X0067894Y0094875D01*
X0067904Y0094776D01*
X0067910Y0094677D01*
X0067912Y0094578D01*
X0067910Y0094479D01*
X0067904Y0094380D01*
X0067894Y0094281D01*
X0067880Y0094183D01*
X0067862Y0094086D01*
X0067840Y0093989D01*
X0067815Y0093893D01*
X0067785Y0093799D01*
X0067752Y0093705D01*
X0067715Y0093613D01*
X0067674Y0093523D01*
X0067630Y0093434D01*
X0067582Y0093348D01*
X0067531Y0093263D01*
X0067476Y0093180D01*
X0067418Y0093100D01*
X0067357Y0093022D01*
X0067293Y0092946D01*
X0067226Y0092873D01*
X0067156Y0092803D01*
X0067083Y0092736D01*
X0067007Y0092672D01*
X0066929Y0092611D01*
X0066849Y0092553D01*
X0066766Y0092498D01*
X0066682Y0092447D01*
X0066595Y0092399D01*
X0066506Y0092355D01*
X0066416Y0092314D01*
X0066324Y0092277D01*
X0066230Y0092244D01*
X0066136Y0092214D01*
X0066040Y0092189D01*
X0065943Y0092167D01*
X0065846Y0092149D01*
X0065748Y0092135D01*
X0065649Y0092125D01*
X0065550Y0092119D01*
X0065451Y0092117D01*
X0065352Y0092119D01*
X0065253Y0092125D01*
X0065154Y0092135D01*
X0065056Y0092149D01*
X0064959Y0092167D01*
X0064862Y0092189D01*
X0064766Y0092214D01*
X0064672Y0092244D01*
X0064578Y0092277D01*
X0064486Y0092314D01*
X0064396Y0092355D01*
X0064307Y0092399D01*
X0064221Y0092447D01*
X0064136Y0092498D01*
X0064053Y0092553D01*
X0063973Y0092611D01*
X0063895Y0092672D01*
X0063819Y0092736D01*
X0063746Y0092803D01*
X0063676Y0092873D01*
X0063609Y0092946D01*
X0063545Y0093022D01*
X0063484Y0093100D01*
X0063426Y0093180D01*
X0063371Y0093263D01*
X0063320Y0093347D01*
X0063272Y0093434D01*
X0063228Y0093523D01*
X0063187Y0093613D01*
X0063150Y0093705D01*
X0063117Y0093799D01*
X0063087Y0093893D01*
X0063062Y0093989D01*
X0063040Y0094086D01*
X0063022Y0094183D01*
X0063008Y0094281D01*
X0062998Y0094380D01*
X0062992Y0094479D01*
X0062990Y0094578D01*
D14*
X0072144Y0080798D02*
X0060333Y0077648D01*
X0048522Y0077648D01*
X0048522Y0130207D01*
X0053640Y0130207D01*
X0053640Y0135916D01*
X0106790Y0135916D01*
X0106790Y0080798D01*
X0072144Y0080798D01*
X0120034Y0116202D02*
X0120034Y0120705D01*
X0122286Y0118453D01*
X0119283Y0118453D01*
X0123887Y0118453D02*
X0124638Y0117703D01*
X0126890Y0117703D01*
X0126890Y0116202D02*
X0126890Y0120705D01*
X0124638Y0120705D01*
X0123887Y0119955D01*
X0123887Y0118453D01*
X0150385Y0131125D02*
X0151136Y0130375D01*
X0152637Y0130375D01*
X0153388Y0131125D01*
X0150385Y0134128D01*
X0150385Y0131125D01*
X0153388Y0131125D02*
X0153388Y0134128D01*
X0152637Y0134879D01*
X0151136Y0134879D01*
X0150385Y0134128D01*
X0154989Y0134128D02*
X0154989Y0132627D01*
X0155740Y0131876D01*
X0157992Y0131876D01*
X0157992Y0130375D02*
X0157992Y0134879D01*
X0155740Y0134879D01*
X0154989Y0134128D01*
X0154180Y0160186D02*
X0151178Y0160186D01*
X0152679Y0160186D02*
X0152679Y0164690D01*
X0154180Y0163188D01*
X0155782Y0162438D02*
X0155782Y0163939D01*
X0156532Y0164690D01*
X0158784Y0164690D01*
X0158784Y0160186D01*
X0158784Y0161687D02*
X0156532Y0161687D01*
X0155782Y0162438D01*
X0182144Y0198475D02*
X0020727Y0198475D01*
X0020727Y0001625D01*
X0182144Y0001625D01*
X0182144Y0198475D01*
X0107918Y0155546D02*
X0107918Y0154045D01*
X0107167Y0153294D01*
X0107167Y0151693D02*
X0105666Y0151693D01*
X0104915Y0150942D01*
X0104915Y0148691D01*
X0103414Y0148691D02*
X0107918Y0148691D01*
X0107918Y0150942D01*
X0107167Y0151693D01*
X0104165Y0153294D02*
X0103414Y0154045D01*
X0103414Y0155546D01*
X0104165Y0156297D01*
X0104915Y0156297D01*
X0105666Y0155546D01*
X0105666Y0154796D01*
X0105666Y0155546D02*
X0106417Y0156297D01*
X0107167Y0156297D01*
X0107918Y0155546D01*
X0138538Y0057713D02*
X0140790Y0057713D01*
X0140790Y0053209D01*
X0138538Y0053209D01*
X0137787Y0053960D01*
X0137787Y0056963D01*
X0138538Y0057713D01*
X0142391Y0057713D02*
X0142391Y0053209D01*
X0145394Y0057713D01*
X0145394Y0053209D01*
X0146995Y0053960D02*
X0146995Y0055461D01*
X0148496Y0055461D01*
X0146995Y0053960D02*
X0147746Y0053209D01*
X0149247Y0053209D01*
X0149997Y0053960D01*
X0149997Y0056963D01*
X0149247Y0057713D01*
X0147746Y0057713D01*
X0146995Y0056963D01*
D15*
X0111073Y0103392D02*
X0110523Y0103392D01*
X0109973Y0103943D01*
X0109973Y0105044D01*
X0109422Y0105594D01*
X0108872Y0105594D01*
X0108321Y0105044D01*
X0108321Y0103943D01*
X0108872Y0103392D01*
X0111073Y0103392D02*
X0111624Y0103943D01*
X0111624Y0105044D01*
X0111073Y0105594D01*
X0111624Y0107075D02*
X0108321Y0107075D01*
X0108321Y0108727D01*
X0108872Y0109277D01*
X0111073Y0109277D01*
X0111624Y0108727D01*
X0111624Y0107075D01*
X0111624Y0110758D02*
X0111624Y0111859D01*
X0111624Y0111309D02*
X0108321Y0111309D01*
X0108321Y0111859D02*
X0108321Y0110758D01*
X0108872Y0113214D02*
X0108321Y0113764D01*
X0108321Y0114865D01*
X0108872Y0115416D01*
X0111073Y0115416D01*
X0111624Y0114865D01*
X0111624Y0113764D01*
X0111073Y0113214D01*
X0108872Y0113214D01*
X0107771Y0116897D02*
X0107771Y0119099D01*
X0108321Y0120580D02*
X0108321Y0122232D01*
X0108872Y0122782D01*
X0109422Y0122782D01*
X0109973Y0122232D01*
X0109973Y0120580D01*
X0111624Y0120580D02*
X0108321Y0120580D01*
X0109973Y0122232D02*
X0110523Y0122782D01*
X0111073Y0122782D01*
X0111624Y0122232D01*
X0111624Y0120580D01*
X0111073Y0124263D02*
X0108872Y0124263D01*
X0108321Y0124814D01*
X0108321Y0125915D01*
X0108872Y0126465D01*
X0111073Y0126465D01*
X0111624Y0125915D01*
X0111624Y0124814D01*
X0111073Y0124263D01*
X0111624Y0127946D02*
X0111624Y0130148D01*
X0111624Y0129047D02*
X0108321Y0129047D01*
D16*
X0118644Y0134841D02*
X0118644Y0136376D01*
X0119411Y0137143D01*
X0120946Y0138678D02*
X0120946Y0141747D01*
X0123247Y0140980D02*
X0120946Y0138678D01*
X0122480Y0137143D02*
X0123247Y0136376D01*
X0123247Y0134841D01*
X0122480Y0134074D01*
X0119411Y0134074D01*
X0118644Y0134841D01*
X0118644Y0140980D02*
X0123247Y0140980D01*
X0131242Y0139798D02*
X0131242Y0138264D01*
X0132009Y0137496D01*
X0132009Y0135962D02*
X0131242Y0135194D01*
X0131242Y0133660D01*
X0132009Y0132893D01*
X0135079Y0132893D01*
X0135846Y0133660D01*
X0135846Y0135194D01*
X0135079Y0135962D01*
X0135846Y0137496D02*
X0133544Y0137496D01*
X0134311Y0139031D01*
X0134311Y0139798D01*
X0133544Y0140566D01*
X0132009Y0140566D01*
X0131242Y0139798D01*
X0135846Y0140566D02*
X0135846Y0137496D01*
X0136279Y0150742D02*
X0131675Y0150742D01*
X0133210Y0150742D02*
X0133210Y0153044D01*
X0133977Y0153811D01*
X0135512Y0153811D01*
X0136279Y0153044D01*
X0136279Y0150742D01*
X0133210Y0152277D02*
X0131675Y0153811D01*
X0131675Y0155346D02*
X0131675Y0158415D01*
X0131675Y0156881D02*
X0136279Y0156881D01*
X0134744Y0155346D01*
X0122106Y0161372D02*
X0122106Y0163674D01*
X0121338Y0164441D01*
X0119804Y0164441D01*
X0119036Y0163674D01*
X0119036Y0161372D01*
X0117502Y0161372D02*
X0122106Y0161372D01*
X0119036Y0162907D02*
X0117502Y0164441D01*
X0117502Y0165976D02*
X0120571Y0169045D01*
X0121338Y0169045D01*
X0122106Y0168278D01*
X0122106Y0166743D01*
X0121338Y0165976D01*
X0117502Y0165976D02*
X0117502Y0169045D01*
X0090098Y0159991D02*
X0090098Y0158456D01*
X0089331Y0157689D01*
X0090098Y0156154D02*
X0086261Y0156154D01*
X0085494Y0155387D01*
X0085494Y0153852D01*
X0086261Y0153085D01*
X0090098Y0153085D01*
X0085494Y0157689D02*
X0088563Y0160758D01*
X0089331Y0160758D01*
X0090098Y0159991D01*
X0085494Y0160758D02*
X0085494Y0157689D01*
X0053578Y0169266D02*
X0053578Y0173870D01*
X0051276Y0173870D01*
X0050509Y0173102D01*
X0050509Y0171568D01*
X0051276Y0170800D01*
X0053578Y0170800D01*
X0052044Y0170800D02*
X0050509Y0169266D01*
X0048974Y0169266D02*
X0045905Y0169266D01*
X0047440Y0169266D02*
X0047440Y0173870D01*
X0048974Y0172335D01*
X0044370Y0173102D02*
X0044370Y0170033D01*
X0041301Y0173102D01*
X0041301Y0170033D01*
X0042068Y0169266D01*
X0043603Y0169266D01*
X0044370Y0170033D01*
X0044370Y0173102D02*
X0043603Y0173870D01*
X0042068Y0173870D01*
X0041301Y0173102D01*
X0118250Y0104365D02*
X0118250Y0102831D01*
X0119017Y0102063D01*
X0119017Y0100529D02*
X0118250Y0099761D01*
X0118250Y0098227D01*
X0119017Y0097459D01*
X0122086Y0097459D01*
X0122854Y0098227D01*
X0122854Y0099761D01*
X0122086Y0100529D01*
X0122086Y0102063D02*
X0122854Y0102831D01*
X0122854Y0104365D01*
X0122086Y0105133D01*
X0121319Y0105133D01*
X0120552Y0104365D01*
X0119784Y0105133D01*
X0119017Y0105133D01*
X0118250Y0104365D01*
X0120552Y0104365D02*
X0120552Y0103598D01*
X0141478Y0102063D02*
X0144547Y0105133D01*
X0145315Y0105133D01*
X0146082Y0104365D01*
X0146082Y0102831D01*
X0145315Y0102063D01*
X0145315Y0100529D02*
X0146082Y0099761D01*
X0146082Y0098227D01*
X0145315Y0097459D01*
X0142246Y0097459D01*
X0141478Y0098227D01*
X0141478Y0099761D01*
X0142246Y0100529D01*
X0141478Y0102063D02*
X0141478Y0105133D01*
X0142679Y0113203D02*
X0141911Y0113970D01*
X0141911Y0115505D01*
X0142679Y0116272D01*
X0142679Y0117807D02*
X0141911Y0118574D01*
X0141911Y0120109D01*
X0142679Y0120876D01*
X0143446Y0120876D01*
X0144213Y0120109D01*
X0144213Y0117807D01*
X0142679Y0117807D01*
X0144213Y0117807D02*
X0145748Y0119341D01*
X0146515Y0120876D01*
X0145748Y0116272D02*
X0146515Y0115505D01*
X0146515Y0113970D01*
X0145748Y0113203D01*
X0142679Y0113203D01*
D17*
X0082394Y0155585D02*
X0068194Y0155585D01*
X0068194Y0170185D02*
X0082394Y0170185D01*
D18*
X0099457Y0059823D03*
X0099457Y0049728D03*
X0099457Y0016953D03*
D19*
X0099523Y0017084D03*
X0099392Y0050515D03*
D20*
X0099457Y0051170D03*
X0099457Y0059430D03*
X0099457Y0017215D03*
D21*
X0099523Y0017346D03*
X0095459Y0033341D03*
X0099392Y0051564D03*
D22*
X0099457Y0059168D03*
X0095393Y0032816D03*
X0099457Y0017477D03*
D23*
X0099457Y0017608D03*
X0095524Y0032423D03*
X0099457Y0052350D03*
X0099457Y0059037D03*
D24*
X0099392Y0052613D03*
X0099523Y0017739D03*
D25*
X0099457Y0017870D03*
X0099457Y0052875D03*
D26*
X0099523Y0018002D03*
D27*
X0099457Y0018133D03*
D28*
X0099523Y0018264D03*
D29*
X0099523Y0018395D03*
X0097556Y0056415D03*
X0097425Y0056546D03*
X0097294Y0056677D03*
X0097294Y0056808D03*
X0099392Y0058512D03*
D30*
X0097425Y0057332D03*
X0097294Y0057201D03*
X0097163Y0057070D03*
X0099392Y0054055D03*
X0099523Y0018526D03*
D31*
X0099457Y0018657D03*
X0099457Y0054317D03*
D32*
X0099392Y0054448D03*
X0099523Y0018788D03*
D33*
X0099523Y0018919D03*
X0099392Y0054579D03*
D34*
X0099523Y0019050D03*
D35*
X0099523Y0019181D03*
X0099392Y0054972D03*
D36*
X0099457Y0019313D03*
D37*
X0099457Y0019444D03*
X0099457Y0055235D03*
X0099457Y0057988D03*
D38*
X0099523Y0019575D03*
D39*
X0099523Y0019706D03*
X0099392Y0055497D03*
D40*
X0099457Y0019837D03*
D41*
X0099523Y0019968D03*
X0099392Y0055628D03*
D42*
X0099523Y0020099D03*
D43*
X0099457Y0020230D03*
D44*
X0099523Y0020361D03*
D45*
X0099457Y0020493D03*
D46*
X0099523Y0020624D03*
D47*
X0099523Y0020755D03*
D48*
X0099457Y0020886D03*
D49*
X0099523Y0021017D03*
D50*
X0099457Y0021148D03*
D51*
X0099523Y0021279D03*
D52*
X0099457Y0021410D03*
D53*
X0099523Y0021541D03*
X0099523Y0021672D03*
D54*
X0099457Y0021804D03*
D55*
X0099523Y0021935D03*
D56*
X0099457Y0022066D03*
D57*
X0099523Y0022197D03*
X0099523Y0022328D03*
D58*
X0099457Y0022459D03*
D59*
X0099523Y0022590D03*
D60*
X0099457Y0022721D03*
X0099457Y0022852D03*
D61*
X0099523Y0022983D03*
D62*
X0099457Y0023115D03*
X0099457Y0023246D03*
D63*
X0099523Y0023377D03*
X0099523Y0023508D03*
X0099392Y0032292D03*
D64*
X0099457Y0032161D03*
X0099457Y0032030D03*
X0099457Y0023639D03*
D65*
X0099523Y0023770D03*
X0099523Y0023901D03*
X0099392Y0031767D03*
X0099392Y0031898D03*
D66*
X0099457Y0031636D03*
X0099457Y0031505D03*
X0099457Y0031374D03*
X0099457Y0031243D03*
X0099457Y0024032D03*
D67*
X0099523Y0024163D03*
X0099523Y0024294D03*
D68*
X0099457Y0024426D03*
X0099457Y0024557D03*
D69*
X0099523Y0024688D03*
X0099523Y0024819D03*
D70*
X0099457Y0024950D03*
X0099457Y0025081D03*
D71*
X0099523Y0025212D03*
X0099523Y0025343D03*
X0099523Y0025474D03*
D72*
X0099457Y0025606D03*
X0099457Y0025737D03*
D73*
X0099523Y0025868D03*
X0099523Y0025999D03*
D74*
X0099457Y0026130D03*
X0099457Y0026261D03*
D75*
X0099523Y0026392D03*
D76*
X0099457Y0026523D03*
D77*
X0099392Y0026654D03*
D78*
X0099457Y0026785D03*
D79*
X0099392Y0026917D03*
X0099392Y0027048D03*
X0099392Y0029801D03*
D80*
X0099392Y0029539D03*
X0099392Y0027179D03*
D81*
X0099457Y0027310D03*
X0099457Y0029407D03*
D82*
X0099392Y0029276D03*
X0099392Y0029145D03*
X0099392Y0029014D03*
X0099392Y0028883D03*
X0099392Y0028752D03*
X0099392Y0028621D03*
X0099392Y0028490D03*
X0099392Y0028359D03*
X0099392Y0028228D03*
X0099392Y0028096D03*
X0099392Y0027965D03*
X0099392Y0027834D03*
X0099392Y0027703D03*
X0099392Y0027572D03*
X0099392Y0027441D03*
D83*
X0099457Y0029670D03*
D84*
X0099392Y0029932D03*
D85*
X0099457Y0030063D03*
D86*
X0099457Y0030194D03*
D87*
X0106406Y0035307D03*
X0106668Y0035176D03*
X0106799Y0035045D03*
X0107061Y0034914D03*
X0107192Y0034783D03*
X0107323Y0034652D03*
X0107585Y0034520D03*
X0108765Y0032423D03*
X0099457Y0045140D03*
D88*
X0106078Y0035438D03*
X0107782Y0034389D03*
X0108831Y0032554D03*
D89*
X0095393Y0032554D03*
X0095393Y0032685D03*
X0099457Y0052219D03*
D90*
X0099457Y0045009D03*
X0107848Y0034258D03*
X0107979Y0034127D03*
X0108110Y0033996D03*
X0108241Y0033865D03*
X0108241Y0033734D03*
X0108372Y0033603D03*
X0108503Y0033341D03*
X0108634Y0033209D03*
X0108634Y0033078D03*
X0108765Y0032816D03*
X0108765Y0032685D03*
D91*
X0108700Y0032947D03*
X0108438Y0033472D03*
X0099392Y0044878D03*
D92*
X0099392Y0051957D03*
X0095459Y0032947D03*
D93*
X0095393Y0033078D03*
X0099457Y0051826D03*
D94*
X0095459Y0033209D03*
D95*
X0095459Y0033472D03*
X0099392Y0051433D03*
D96*
X0095327Y0033603D03*
D97*
X0095262Y0033734D03*
D98*
X0095393Y0033865D03*
X0099457Y0050777D03*
D99*
X0099457Y0050646D03*
X0095393Y0033996D03*
D100*
X0095393Y0034127D03*
X0103784Y0057463D03*
D101*
X0103652Y0057726D03*
X0099457Y0050122D03*
X0095262Y0055759D03*
X0095131Y0055890D03*
X0095393Y0034258D03*
D102*
X0096638Y0034389D03*
D103*
X0089166Y0034389D03*
D104*
X0096573Y0034520D03*
D105*
X0096507Y0034652D03*
X0100178Y0036356D03*
X0100178Y0036487D03*
X0100178Y0036618D03*
D106*
X0100113Y0036880D03*
X0096442Y0034783D03*
D107*
X0096376Y0034914D03*
D108*
X0096245Y0035045D03*
D109*
X0096180Y0035176D03*
X0096442Y0035569D03*
X0099457Y0060479D03*
D110*
X0096245Y0035307D03*
D111*
X0096311Y0035438D03*
X0099457Y0046713D03*
D112*
X0099457Y0041600D03*
X0108110Y0035569D03*
D113*
X0104242Y0035569D03*
X0095983Y0047500D03*
X0095983Y0047631D03*
D114*
X0099392Y0049991D03*
X0103456Y0057857D03*
X0098867Y0035700D03*
D115*
X0098933Y0035831D03*
X0099457Y0049859D03*
D116*
X0098998Y0035963D03*
D117*
X0098998Y0036094D03*
D118*
X0100178Y0036225D03*
D119*
X0095524Y0037143D03*
X0092902Y0036225D03*
X0099457Y0041207D03*
D120*
X0099457Y0040682D03*
X0095393Y0037536D03*
X0092771Y0036356D03*
D121*
X0092705Y0036487D03*
D122*
X0100178Y0036749D03*
D123*
X0099654Y0037667D03*
X0095590Y0037011D03*
X0104767Y0037011D03*
D124*
X0099982Y0037011D03*
X0099457Y0044091D03*
D125*
X0099457Y0040944D03*
X0099457Y0040813D03*
X0095393Y0037405D03*
X0104963Y0037143D03*
D126*
X0099982Y0037143D03*
X0099457Y0043698D03*
X0102341Y0047631D03*
X0091984Y0053661D03*
D127*
X0105160Y0037274D03*
D128*
X0099916Y0037274D03*
D129*
X0099457Y0041076D03*
X0095524Y0037274D03*
D130*
X0099785Y0037405D03*
X0096245Y0046975D03*
X0096245Y0047106D03*
X0096114Y0047237D03*
D131*
X0099785Y0037536D03*
X0110404Y0057070D03*
X0110142Y0057332D03*
D132*
X0095327Y0037667D03*
D133*
X0095262Y0037798D03*
X0099457Y0040289D03*
X0099457Y0040420D03*
D134*
X0099457Y0040158D03*
X0095262Y0037929D03*
D135*
X0099457Y0040027D03*
D136*
X0099457Y0040551D03*
D137*
X0099457Y0041338D03*
X0099457Y0041469D03*
D138*
X0099457Y0041731D03*
D139*
X0099457Y0041862D03*
X0099457Y0041993D03*
D140*
X0099457Y0042124D03*
X0110339Y0056808D03*
X0110339Y0056939D03*
D141*
X0110339Y0057201D03*
X0099457Y0042256D03*
D142*
X0099392Y0042387D03*
D143*
X0099457Y0042518D03*
D144*
X0099457Y0042649D03*
D145*
X0099457Y0042780D03*
X0099457Y0042911D03*
X0096442Y0046844D03*
X0096048Y0047369D03*
X0099457Y0061003D03*
D146*
X0099457Y0043042D03*
D147*
X0099457Y0043173D03*
X0095917Y0047893D03*
D148*
X0099457Y0043435D03*
X0099457Y0043304D03*
D149*
X0099457Y0043567D03*
X0102079Y0047106D03*
X0102210Y0047237D03*
X0092247Y0053268D03*
X0092115Y0053399D03*
D150*
X0099457Y0043960D03*
X0099457Y0043829D03*
X0102341Y0047762D03*
X0102341Y0047893D03*
D151*
X0099457Y0044222D03*
X0099457Y0060872D03*
D152*
X0099457Y0044484D03*
X0099457Y0044353D03*
D153*
X0099457Y0044615D03*
D154*
X0099457Y0044746D03*
D155*
X0099457Y0045271D03*
X0107192Y0055890D03*
X0091591Y0057726D03*
D156*
X0091525Y0057594D03*
X0099392Y0045402D03*
X0107127Y0055759D03*
X0107258Y0056021D03*
D157*
X0099457Y0045533D03*
D158*
X0099457Y0045664D03*
X0091460Y0057463D03*
D159*
X0099457Y0045795D03*
D160*
X0099392Y0045926D03*
D161*
X0099457Y0046057D03*
X0099457Y0060610D03*
D162*
X0099457Y0046189D03*
D163*
X0099457Y0046320D03*
D164*
X0099392Y0046451D03*
D165*
X0099457Y0046582D03*
D166*
X0101883Y0046844D03*
X0102276Y0047369D03*
X0102276Y0047500D03*
X0092312Y0053137D03*
X0092050Y0053530D03*
D167*
X0095983Y0048024D03*
X0102014Y0046975D03*
D168*
X0095983Y0047762D03*
D169*
X0102276Y0048024D03*
D170*
X0099457Y0048155D03*
X0099457Y0060217D03*
D171*
X0099457Y0048286D03*
D172*
X0099392Y0048417D03*
D173*
X0099457Y0048548D03*
D174*
X0099457Y0048680D03*
X0099457Y0060085D03*
D175*
X0099457Y0048811D03*
D176*
X0099392Y0048942D03*
D177*
X0099457Y0049073D03*
X0102604Y0053399D03*
D178*
X0102735Y0053661D03*
X0099457Y0049204D03*
X0099457Y0059954D03*
D179*
X0102735Y0053793D03*
X0099457Y0049335D03*
D180*
X0099392Y0049466D03*
X0102669Y0053924D03*
D181*
X0099457Y0049597D03*
D182*
X0099457Y0050253D03*
X0103784Y0057594D03*
X0099457Y0059692D03*
D183*
X0095065Y0056152D03*
X0099392Y0050384D03*
D184*
X0099392Y0050908D03*
D185*
X0099392Y0051039D03*
D186*
X0099457Y0051302D03*
D187*
X0099457Y0051695D03*
D188*
X0099392Y0052088D03*
D189*
X0099392Y0052481D03*
D190*
X0099457Y0052744D03*
X0099457Y0058906D03*
D191*
X0099392Y0053006D03*
D192*
X0102407Y0053137D03*
X0102538Y0053268D03*
X0102669Y0053530D03*
D193*
X0092050Y0053793D03*
D194*
X0092050Y0053924D03*
D195*
X0099457Y0054186D03*
D196*
X0099457Y0054710D03*
D197*
X0099457Y0054841D03*
X0099457Y0058119D03*
D198*
X0099392Y0055104D03*
D199*
X0099457Y0055366D03*
D200*
X0095065Y0056021D03*
D201*
X0107258Y0056152D03*
D202*
X0099457Y0056283D03*
D203*
X0110011Y0056415D03*
X0110142Y0056546D03*
X0110273Y0056677D03*
D204*
X0097228Y0056939D03*
D205*
X0099523Y0060741D03*
X0091788Y0057857D03*
D206*
X0099457Y0058250D03*
D207*
X0099392Y0058381D03*
D208*
X0099392Y0058643D03*
D209*
X0099457Y0058774D03*
D210*
X0099457Y0059299D03*
D211*
X0099392Y0059561D03*
D212*
X0099457Y0060348D03*
M02*
