G75*
%MOIN*%
%OFA0B0*%
%FSLAX25Y25*%
%IPPOS*%
%LPD*%
%AMOC8*
5,1,8,0,0,1.08239X$1,22.5*
%
%ADD10C,0.00000*%
%ADD11R,0.02756X0.05512*%
%ADD12R,0.05512X0.07874*%
%ADD13R,0.05039X0.05512*%
%ADD14R,0.07677X0.05512*%
%ADD15R,0.05118X0.05906*%
%ADD16R,0.05236X0.02087*%
%ADD17R,0.05906X0.05118*%
%ADD18C,0.00500*%
D10*
X0020570Y0001467D02*
X0020570Y0198711D01*
X0182381Y0198711D01*
X0182381Y0001467D01*
X0020570Y0001467D01*
X0020570Y0001861D02*
X0181987Y0001861D01*
X0181987Y0009341D01*
X0094487Y0094578D02*
X0094489Y0094677D01*
X0094495Y0094776D01*
X0094505Y0094875D01*
X0094519Y0094973D01*
X0094537Y0095070D01*
X0094559Y0095167D01*
X0094584Y0095263D01*
X0094614Y0095357D01*
X0094647Y0095451D01*
X0094684Y0095543D01*
X0094725Y0095633D01*
X0094769Y0095722D01*
X0094817Y0095808D01*
X0094868Y0095893D01*
X0094923Y0095976D01*
X0094981Y0096056D01*
X0095042Y0096134D01*
X0095106Y0096210D01*
X0095173Y0096283D01*
X0095243Y0096353D01*
X0095316Y0096420D01*
X0095392Y0096484D01*
X0095470Y0096545D01*
X0095550Y0096603D01*
X0095633Y0096658D01*
X0095717Y0096709D01*
X0095804Y0096757D01*
X0095893Y0096801D01*
X0095983Y0096842D01*
X0096075Y0096879D01*
X0096169Y0096912D01*
X0096263Y0096942D01*
X0096359Y0096967D01*
X0096456Y0096989D01*
X0096553Y0097007D01*
X0096651Y0097021D01*
X0096750Y0097031D01*
X0096849Y0097037D01*
X0096948Y0097039D01*
X0097047Y0097037D01*
X0097146Y0097031D01*
X0097245Y0097021D01*
X0097343Y0097007D01*
X0097440Y0096989D01*
X0097537Y0096967D01*
X0097633Y0096942D01*
X0097727Y0096912D01*
X0097821Y0096879D01*
X0097913Y0096842D01*
X0098003Y0096801D01*
X0098092Y0096757D01*
X0098178Y0096709D01*
X0098263Y0096658D01*
X0098346Y0096603D01*
X0098426Y0096545D01*
X0098504Y0096484D01*
X0098580Y0096420D01*
X0098653Y0096353D01*
X0098723Y0096283D01*
X0098790Y0096210D01*
X0098854Y0096134D01*
X0098915Y0096056D01*
X0098973Y0095976D01*
X0099028Y0095893D01*
X0099079Y0095809D01*
X0099127Y0095722D01*
X0099171Y0095633D01*
X0099212Y0095543D01*
X0099249Y0095451D01*
X0099282Y0095357D01*
X0099312Y0095263D01*
X0099337Y0095167D01*
X0099359Y0095070D01*
X0099377Y0094973D01*
X0099391Y0094875D01*
X0099401Y0094776D01*
X0099407Y0094677D01*
X0099409Y0094578D01*
X0099407Y0094479D01*
X0099401Y0094380D01*
X0099391Y0094281D01*
X0099377Y0094183D01*
X0099359Y0094086D01*
X0099337Y0093989D01*
X0099312Y0093893D01*
X0099282Y0093799D01*
X0099249Y0093705D01*
X0099212Y0093613D01*
X0099171Y0093523D01*
X0099127Y0093434D01*
X0099079Y0093348D01*
X0099028Y0093263D01*
X0098973Y0093180D01*
X0098915Y0093100D01*
X0098854Y0093022D01*
X0098790Y0092946D01*
X0098723Y0092873D01*
X0098653Y0092803D01*
X0098580Y0092736D01*
X0098504Y0092672D01*
X0098426Y0092611D01*
X0098346Y0092553D01*
X0098263Y0092498D01*
X0098179Y0092447D01*
X0098092Y0092399D01*
X0098003Y0092355D01*
X0097913Y0092314D01*
X0097821Y0092277D01*
X0097727Y0092244D01*
X0097633Y0092214D01*
X0097537Y0092189D01*
X0097440Y0092167D01*
X0097343Y0092149D01*
X0097245Y0092135D01*
X0097146Y0092125D01*
X0097047Y0092119D01*
X0096948Y0092117D01*
X0096849Y0092119D01*
X0096750Y0092125D01*
X0096651Y0092135D01*
X0096553Y0092149D01*
X0096456Y0092167D01*
X0096359Y0092189D01*
X0096263Y0092214D01*
X0096169Y0092244D01*
X0096075Y0092277D01*
X0095983Y0092314D01*
X0095893Y0092355D01*
X0095804Y0092399D01*
X0095718Y0092447D01*
X0095633Y0092498D01*
X0095550Y0092553D01*
X0095470Y0092611D01*
X0095392Y0092672D01*
X0095316Y0092736D01*
X0095243Y0092803D01*
X0095173Y0092873D01*
X0095106Y0092946D01*
X0095042Y0093022D01*
X0094981Y0093100D01*
X0094923Y0093180D01*
X0094868Y0093263D01*
X0094817Y0093347D01*
X0094769Y0093434D01*
X0094725Y0093523D01*
X0094684Y0093613D01*
X0094647Y0093705D01*
X0094614Y0093799D01*
X0094584Y0093893D01*
X0094559Y0093989D01*
X0094537Y0094086D01*
X0094519Y0094183D01*
X0094505Y0094281D01*
X0094495Y0094380D01*
X0094489Y0094479D01*
X0094487Y0094578D01*
X0096061Y0112294D02*
X0096063Y0112393D01*
X0096069Y0112492D01*
X0096079Y0112591D01*
X0096093Y0112689D01*
X0096111Y0112786D01*
X0096133Y0112883D01*
X0096158Y0112979D01*
X0096188Y0113073D01*
X0096221Y0113167D01*
X0096258Y0113259D01*
X0096299Y0113349D01*
X0096343Y0113438D01*
X0096391Y0113524D01*
X0096442Y0113609D01*
X0096497Y0113692D01*
X0096555Y0113772D01*
X0096616Y0113850D01*
X0096680Y0113926D01*
X0096747Y0113999D01*
X0096817Y0114069D01*
X0096890Y0114136D01*
X0096966Y0114200D01*
X0097044Y0114261D01*
X0097124Y0114319D01*
X0097207Y0114374D01*
X0097291Y0114425D01*
X0097378Y0114473D01*
X0097467Y0114517D01*
X0097557Y0114558D01*
X0097649Y0114595D01*
X0097743Y0114628D01*
X0097837Y0114658D01*
X0097933Y0114683D01*
X0098030Y0114705D01*
X0098127Y0114723D01*
X0098225Y0114737D01*
X0098324Y0114747D01*
X0098423Y0114753D01*
X0098522Y0114755D01*
X0098621Y0114753D01*
X0098720Y0114747D01*
X0098819Y0114737D01*
X0098917Y0114723D01*
X0099014Y0114705D01*
X0099111Y0114683D01*
X0099207Y0114658D01*
X0099301Y0114628D01*
X0099395Y0114595D01*
X0099487Y0114558D01*
X0099577Y0114517D01*
X0099666Y0114473D01*
X0099752Y0114425D01*
X0099837Y0114374D01*
X0099920Y0114319D01*
X0100000Y0114261D01*
X0100078Y0114200D01*
X0100154Y0114136D01*
X0100227Y0114069D01*
X0100297Y0113999D01*
X0100364Y0113926D01*
X0100428Y0113850D01*
X0100489Y0113772D01*
X0100547Y0113692D01*
X0100602Y0113609D01*
X0100653Y0113525D01*
X0100701Y0113438D01*
X0100745Y0113349D01*
X0100786Y0113259D01*
X0100823Y0113167D01*
X0100856Y0113073D01*
X0100886Y0112979D01*
X0100911Y0112883D01*
X0100933Y0112786D01*
X0100951Y0112689D01*
X0100965Y0112591D01*
X0100975Y0112492D01*
X0100981Y0112393D01*
X0100983Y0112294D01*
X0100981Y0112195D01*
X0100975Y0112096D01*
X0100965Y0111997D01*
X0100951Y0111899D01*
X0100933Y0111802D01*
X0100911Y0111705D01*
X0100886Y0111609D01*
X0100856Y0111515D01*
X0100823Y0111421D01*
X0100786Y0111329D01*
X0100745Y0111239D01*
X0100701Y0111150D01*
X0100653Y0111064D01*
X0100602Y0110979D01*
X0100547Y0110896D01*
X0100489Y0110816D01*
X0100428Y0110738D01*
X0100364Y0110662D01*
X0100297Y0110589D01*
X0100227Y0110519D01*
X0100154Y0110452D01*
X0100078Y0110388D01*
X0100000Y0110327D01*
X0099920Y0110269D01*
X0099837Y0110214D01*
X0099753Y0110163D01*
X0099666Y0110115D01*
X0099577Y0110071D01*
X0099487Y0110030D01*
X0099395Y0109993D01*
X0099301Y0109960D01*
X0099207Y0109930D01*
X0099111Y0109905D01*
X0099014Y0109883D01*
X0098917Y0109865D01*
X0098819Y0109851D01*
X0098720Y0109841D01*
X0098621Y0109835D01*
X0098522Y0109833D01*
X0098423Y0109835D01*
X0098324Y0109841D01*
X0098225Y0109851D01*
X0098127Y0109865D01*
X0098030Y0109883D01*
X0097933Y0109905D01*
X0097837Y0109930D01*
X0097743Y0109960D01*
X0097649Y0109993D01*
X0097557Y0110030D01*
X0097467Y0110071D01*
X0097378Y0110115D01*
X0097292Y0110163D01*
X0097207Y0110214D01*
X0097124Y0110269D01*
X0097044Y0110327D01*
X0096966Y0110388D01*
X0096890Y0110452D01*
X0096817Y0110519D01*
X0096747Y0110589D01*
X0096680Y0110662D01*
X0096616Y0110738D01*
X0096555Y0110816D01*
X0096497Y0110896D01*
X0096442Y0110979D01*
X0096391Y0111063D01*
X0096343Y0111150D01*
X0096299Y0111239D01*
X0096258Y0111329D01*
X0096221Y0111421D01*
X0096188Y0111515D01*
X0096158Y0111609D01*
X0096133Y0111705D01*
X0096111Y0111802D01*
X0096093Y0111899D01*
X0096079Y0111997D01*
X0096069Y0112096D01*
X0096063Y0112195D01*
X0096061Y0112294D01*
X0064565Y0112294D02*
X0064567Y0112393D01*
X0064573Y0112492D01*
X0064583Y0112591D01*
X0064597Y0112689D01*
X0064615Y0112786D01*
X0064637Y0112883D01*
X0064662Y0112979D01*
X0064692Y0113073D01*
X0064725Y0113167D01*
X0064762Y0113259D01*
X0064803Y0113349D01*
X0064847Y0113438D01*
X0064895Y0113524D01*
X0064946Y0113609D01*
X0065001Y0113692D01*
X0065059Y0113772D01*
X0065120Y0113850D01*
X0065184Y0113926D01*
X0065251Y0113999D01*
X0065321Y0114069D01*
X0065394Y0114136D01*
X0065470Y0114200D01*
X0065548Y0114261D01*
X0065628Y0114319D01*
X0065711Y0114374D01*
X0065795Y0114425D01*
X0065882Y0114473D01*
X0065971Y0114517D01*
X0066061Y0114558D01*
X0066153Y0114595D01*
X0066247Y0114628D01*
X0066341Y0114658D01*
X0066437Y0114683D01*
X0066534Y0114705D01*
X0066631Y0114723D01*
X0066729Y0114737D01*
X0066828Y0114747D01*
X0066927Y0114753D01*
X0067026Y0114755D01*
X0067125Y0114753D01*
X0067224Y0114747D01*
X0067323Y0114737D01*
X0067421Y0114723D01*
X0067518Y0114705D01*
X0067615Y0114683D01*
X0067711Y0114658D01*
X0067805Y0114628D01*
X0067899Y0114595D01*
X0067991Y0114558D01*
X0068081Y0114517D01*
X0068170Y0114473D01*
X0068256Y0114425D01*
X0068341Y0114374D01*
X0068424Y0114319D01*
X0068504Y0114261D01*
X0068582Y0114200D01*
X0068658Y0114136D01*
X0068731Y0114069D01*
X0068801Y0113999D01*
X0068868Y0113926D01*
X0068932Y0113850D01*
X0068993Y0113772D01*
X0069051Y0113692D01*
X0069106Y0113609D01*
X0069157Y0113525D01*
X0069205Y0113438D01*
X0069249Y0113349D01*
X0069290Y0113259D01*
X0069327Y0113167D01*
X0069360Y0113073D01*
X0069390Y0112979D01*
X0069415Y0112883D01*
X0069437Y0112786D01*
X0069455Y0112689D01*
X0069469Y0112591D01*
X0069479Y0112492D01*
X0069485Y0112393D01*
X0069487Y0112294D01*
X0069485Y0112195D01*
X0069479Y0112096D01*
X0069469Y0111997D01*
X0069455Y0111899D01*
X0069437Y0111802D01*
X0069415Y0111705D01*
X0069390Y0111609D01*
X0069360Y0111515D01*
X0069327Y0111421D01*
X0069290Y0111329D01*
X0069249Y0111239D01*
X0069205Y0111150D01*
X0069157Y0111064D01*
X0069106Y0110979D01*
X0069051Y0110896D01*
X0068993Y0110816D01*
X0068932Y0110738D01*
X0068868Y0110662D01*
X0068801Y0110589D01*
X0068731Y0110519D01*
X0068658Y0110452D01*
X0068582Y0110388D01*
X0068504Y0110327D01*
X0068424Y0110269D01*
X0068341Y0110214D01*
X0068257Y0110163D01*
X0068170Y0110115D01*
X0068081Y0110071D01*
X0067991Y0110030D01*
X0067899Y0109993D01*
X0067805Y0109960D01*
X0067711Y0109930D01*
X0067615Y0109905D01*
X0067518Y0109883D01*
X0067421Y0109865D01*
X0067323Y0109851D01*
X0067224Y0109841D01*
X0067125Y0109835D01*
X0067026Y0109833D01*
X0066927Y0109835D01*
X0066828Y0109841D01*
X0066729Y0109851D01*
X0066631Y0109865D01*
X0066534Y0109883D01*
X0066437Y0109905D01*
X0066341Y0109930D01*
X0066247Y0109960D01*
X0066153Y0109993D01*
X0066061Y0110030D01*
X0065971Y0110071D01*
X0065882Y0110115D01*
X0065796Y0110163D01*
X0065711Y0110214D01*
X0065628Y0110269D01*
X0065548Y0110327D01*
X0065470Y0110388D01*
X0065394Y0110452D01*
X0065321Y0110519D01*
X0065251Y0110589D01*
X0065184Y0110662D01*
X0065120Y0110738D01*
X0065059Y0110816D01*
X0065001Y0110896D01*
X0064946Y0110979D01*
X0064895Y0111063D01*
X0064847Y0111150D01*
X0064803Y0111239D01*
X0064762Y0111329D01*
X0064725Y0111421D01*
X0064692Y0111515D01*
X0064662Y0111609D01*
X0064637Y0111705D01*
X0064615Y0111802D01*
X0064597Y0111899D01*
X0064583Y0111997D01*
X0064573Y0112096D01*
X0064567Y0112195D01*
X0064565Y0112294D01*
X0062990Y0094578D02*
X0062992Y0094677D01*
X0062998Y0094776D01*
X0063008Y0094875D01*
X0063022Y0094973D01*
X0063040Y0095070D01*
X0063062Y0095167D01*
X0063087Y0095263D01*
X0063117Y0095357D01*
X0063150Y0095451D01*
X0063187Y0095543D01*
X0063228Y0095633D01*
X0063272Y0095722D01*
X0063320Y0095808D01*
X0063371Y0095893D01*
X0063426Y0095976D01*
X0063484Y0096056D01*
X0063545Y0096134D01*
X0063609Y0096210D01*
X0063676Y0096283D01*
X0063746Y0096353D01*
X0063819Y0096420D01*
X0063895Y0096484D01*
X0063973Y0096545D01*
X0064053Y0096603D01*
X0064136Y0096658D01*
X0064220Y0096709D01*
X0064307Y0096757D01*
X0064396Y0096801D01*
X0064486Y0096842D01*
X0064578Y0096879D01*
X0064672Y0096912D01*
X0064766Y0096942D01*
X0064862Y0096967D01*
X0064959Y0096989D01*
X0065056Y0097007D01*
X0065154Y0097021D01*
X0065253Y0097031D01*
X0065352Y0097037D01*
X0065451Y0097039D01*
X0065550Y0097037D01*
X0065649Y0097031D01*
X0065748Y0097021D01*
X0065846Y0097007D01*
X0065943Y0096989D01*
X0066040Y0096967D01*
X0066136Y0096942D01*
X0066230Y0096912D01*
X0066324Y0096879D01*
X0066416Y0096842D01*
X0066506Y0096801D01*
X0066595Y0096757D01*
X0066681Y0096709D01*
X0066766Y0096658D01*
X0066849Y0096603D01*
X0066929Y0096545D01*
X0067007Y0096484D01*
X0067083Y0096420D01*
X0067156Y0096353D01*
X0067226Y0096283D01*
X0067293Y0096210D01*
X0067357Y0096134D01*
X0067418Y0096056D01*
X0067476Y0095976D01*
X0067531Y0095893D01*
X0067582Y0095809D01*
X0067630Y0095722D01*
X0067674Y0095633D01*
X0067715Y0095543D01*
X0067752Y0095451D01*
X0067785Y0095357D01*
X0067815Y0095263D01*
X0067840Y0095167D01*
X0067862Y0095070D01*
X0067880Y0094973D01*
X0067894Y0094875D01*
X0067904Y0094776D01*
X0067910Y0094677D01*
X0067912Y0094578D01*
X0067910Y0094479D01*
X0067904Y0094380D01*
X0067894Y0094281D01*
X0067880Y0094183D01*
X0067862Y0094086D01*
X0067840Y0093989D01*
X0067815Y0093893D01*
X0067785Y0093799D01*
X0067752Y0093705D01*
X0067715Y0093613D01*
X0067674Y0093523D01*
X0067630Y0093434D01*
X0067582Y0093348D01*
X0067531Y0093263D01*
X0067476Y0093180D01*
X0067418Y0093100D01*
X0067357Y0093022D01*
X0067293Y0092946D01*
X0067226Y0092873D01*
X0067156Y0092803D01*
X0067083Y0092736D01*
X0067007Y0092672D01*
X0066929Y0092611D01*
X0066849Y0092553D01*
X0066766Y0092498D01*
X0066682Y0092447D01*
X0066595Y0092399D01*
X0066506Y0092355D01*
X0066416Y0092314D01*
X0066324Y0092277D01*
X0066230Y0092244D01*
X0066136Y0092214D01*
X0066040Y0092189D01*
X0065943Y0092167D01*
X0065846Y0092149D01*
X0065748Y0092135D01*
X0065649Y0092125D01*
X0065550Y0092119D01*
X0065451Y0092117D01*
X0065352Y0092119D01*
X0065253Y0092125D01*
X0065154Y0092135D01*
X0065056Y0092149D01*
X0064959Y0092167D01*
X0064862Y0092189D01*
X0064766Y0092214D01*
X0064672Y0092244D01*
X0064578Y0092277D01*
X0064486Y0092314D01*
X0064396Y0092355D01*
X0064307Y0092399D01*
X0064221Y0092447D01*
X0064136Y0092498D01*
X0064053Y0092553D01*
X0063973Y0092611D01*
X0063895Y0092672D01*
X0063819Y0092736D01*
X0063746Y0092803D01*
X0063676Y0092873D01*
X0063609Y0092946D01*
X0063545Y0093022D01*
X0063484Y0093100D01*
X0063426Y0093180D01*
X0063371Y0093263D01*
X0063320Y0093347D01*
X0063272Y0093434D01*
X0063228Y0093523D01*
X0063187Y0093613D01*
X0063150Y0093705D01*
X0063117Y0093799D01*
X0063087Y0093893D01*
X0063062Y0093989D01*
X0063040Y0094086D01*
X0063022Y0094183D01*
X0063008Y0094281D01*
X0062998Y0094380D01*
X0062992Y0094479D01*
X0062990Y0094578D01*
D11*
X0068995Y0137373D03*
X0073325Y0137373D03*
X0077656Y0137373D03*
X0081987Y0137373D03*
X0086318Y0137373D03*
X0090648Y0137373D03*
X0094979Y0137373D03*
X0099310Y0137373D03*
X0103640Y0137373D03*
D12*
X0108759Y0096152D03*
X0046554Y0096152D03*
D13*
X0108995Y0133948D03*
D14*
X0049999Y0133948D03*
D15*
X0047538Y0164066D03*
X0055018Y0164066D03*
D16*
X0068994Y0162885D03*
X0068994Y0167885D03*
X0068994Y0157885D03*
X0081594Y0157885D03*
X0081594Y0162885D03*
X0081594Y0167885D03*
D17*
X0127656Y0163475D03*
X0127656Y0155995D03*
X0127656Y0146940D03*
X0127656Y0139459D03*
X0141042Y0140641D03*
X0141042Y0133160D03*
X0151278Y0120956D03*
X0151278Y0113475D03*
X0151278Y0105207D03*
X0151278Y0097727D03*
X0128050Y0097727D03*
X0128050Y0105207D03*
X0141042Y0150483D03*
X0141042Y0157963D03*
D18*
X0182144Y0198475D02*
X0020727Y0198475D01*
X0020727Y0001625D01*
X0182144Y0001625D01*
X0182144Y0198475D01*
M02*
